<svg xmlns="http://www.w3.org/2000/svg" width="112.545" height="61.748" viewBox="0 0 112.545 61.748">
  <g id="그룹_1" data-name="그룹 1" transform="translate(-370.365 -383.356)">
    <g id="admission-bg-illust-1" transform="translate(-923.154 88.93)">
      <path id="패스_1" data-name="패스 1" d="M1377.9,325c0,1.3-.1,2.5-.2,3.8l-.4-.1c-1.8,3.9-5.9,4.7-11.2,5.4-7.9,1-26.8-1.9-34.4-4.7-5-1.8-12-4.3-13.3-9.9a20.006,20.006,0,0,1,.9-3.5l.4.2c1,5.2,8.7,7.2,13.6,9.1,7.4,2.9,23.8,4.9,31.6,4.3,5.3-.4,10.8-1.1,12.8-4.6Z" fill="#fdd23e"/>
      <path id="패스_2" data-name="패스 2" d="M1377.9,325h-.3c-1.9,3.5-7.5,4.2-12.8,4.6-7.8.6-24.3-1.4-31.6-4.3-4.9-1.9-12.6-3.9-13.6-9.1l-.4-.2a31.138,31.138,0,0,1,2.8-6.2c-1,4.5,14.1,9.4,16.9,10.2a93,93,0,0,0,23.5,3.1c4.2,0,11.9-.9,14.7-3.3h.2A23.058,23.058,0,0,1,1377.9,325Z" fill="#fff799"/>
      <path id="패스_3" data-name="패스 3" d="M1376.2,334.9a19.921,19.921,0,0,1-13.5,6.8,106.739,106.739,0,0,1-23.9-2c-6.6-1.4-15.5-4.1-20.7-9.4a29.6,29.6,0,0,1,.1-10.7c1.3,5.6,8.3,8,13.3,9.9,7.6,2.8,26.5,5.7,34.4,4.7,5.3-.7,9.4-1.5,11.2-5.4l.4.1a21.534,21.534,0,0,1-1.3,6Z" fill="#fff799"/>
      <path id="패스_4" data-name="패스 4" d="M1377.4,319.8h-.2c-2.9,2.4-10.6,3.3-14.7,3.3A88.69,88.69,0,0,1,1339,320c-2.8-.8-17.9-5.7-16.9-10.2.1-.1.1-.2.2-.4a24.6,24.6,0,0,1,3.9-5.1c-4,6.7,18.3,13.4,26.2,14s21.9.5,23.9-2.4l.2-.1C1376.8,317.2,1377.2,318.5,1377.4,319.8Z" fill="#fdd23e"/>
      <path id="패스_5" data-name="패스 5" d="M1376.4,315.9l-.2.1c-2,3-15.9,3-23.9,2.4s-30.2-7.3-26.2-14h0a29.866,29.866,0,0,1,5.5-4.6c-.8,2.4,4,6.2,5.6,7.3,6,4,15.5,6.1,21.9,6.3,5,.2,13-.5,14.9-3.1a25.553,25.553,0,0,1,2.4,5.6Z" fill="#fff799"/>
      <path id="패스_6" data-name="패스 6" d="M1376.2,334.9a33.783,33.783,0,0,1-2.7,5.8,16.325,16.325,0,0,1-1.1,1.7,19.709,19.709,0,0,1-9.4,3,114.289,114.289,0,0,1-23.4-1.8c-6.3-1.3-14.8-3.7-20-8.2a28.261,28.261,0,0,1-1.3-5c5.2,5.3,14.1,8,20.7,9.4a112.4,112.4,0,0,0,23.9,2A19.72,19.72,0,0,0,1376.2,334.9Z" fill="#fdd23e"/>
      <path id="패스_7" data-name="패스 7" d="M1363,345.4a19.36,19.36,0,0,0,9.4-3,29.358,29.358,0,0,1-4,4.6c-5.5,2.3-13.2,2.7-19.2,2a100.779,100.779,0,0,1-17.1-3.9c-3.3-1.1-9.5-4.1-11.4-6.9-.5-.9-.8-1.9-1.2-2.8,5.2,4.6,13.6,7,20,8.2a115.271,115.271,0,0,0,23.5,1.8Z" fill="#fff799"/>
      <path id="패스_8" data-name="패스 8" d="M1369.9,304.8a26.652,26.652,0,0,1,4,5.5c-1.9,2.6-9.8,3.3-14.9,3.1-6.3-.2-15.8-2.3-21.9-6.3-1.6-1.1-6.4-4.8-5.6-7.3a27.341,27.341,0,0,1,6.2-3c-1.1,2.6,4.5,5.7,6.4,6.9,3.2,2,10.3,3.1,14.1,3.4,3.3.3,9.6.2,11.5-2.2Z" fill="#fdd23e"/>
      <path id="패스_9" data-name="패스 9" d="M1369.9,304.8l-.2.2c-1.8,2.4-8.2,2.5-11.5,2.2-3.8-.3-10.9-1.5-14.1-3.4-1.9-1.2-7.5-4.3-6.4-6.9a24.38,24.38,0,0,1,6.6-1.5c-2,5.3,20.4,8,20.4,5.9l.4-.6a20.88,20.88,0,0,1,4.8,4.1Z" fill="#fff799"/>
      <path id="패스_10" data-name="패스 10" d="M1365.2,300.6l-.4.6c0,2.1-22.4-.6-20.4-5.9a29.15,29.15,0,0,1,19.1,4.2C1364,299.8,1364.6,300.2,1365.2,300.6Z" fill="#fdd23e"/>
      <path id="패스_11" data-name="패스 11" d="M1368.4,347a31.35,31.35,0,0,1-8.1,5.5c-4.6.9-11.7.3-16.3-.5-5.9-1-14.2-2-18.4-6.6a28.289,28.289,0,0,1-4.8-7.2c1.8,2.8,8.1,5.8,11.4,6.9a92,92,0,0,0,17.1,3.9C1355.3,349.7,1363,349.3,1368.4,347Z" fill="#fdd23e"/>
      <path id="패스_12" data-name="패스 12" d="M1344,351.9c4.6.8,11.7,1.4,16.3.5a29.91,29.91,0,0,1-28.1-1.7,31.751,31.751,0,0,1-6.6-5.4C1329.8,350,1338.1,350.9,1344,351.9Z" fill="#fff799"/>
      <path id="패스_13" data-name="패스 13" d="M1326.1,304.4a29.86,29.86,0,0,1,5.5-4.6,27.341,27.341,0,0,1,6.2-3,24.379,24.379,0,0,1,6.6-1.5,29.15,29.15,0,0,1,19.1,4.2c.6.4,1.2.7,1.7,1.1a24.131,24.131,0,0,1,4.8,4.2,26.656,26.656,0,0,1,4,5.5,31,31,0,0,1,2.5,5.6c.4,1.3.7,2.6,1,4a29.564,29.564,0,0,1,.5,5.2c0,1.3-.1,2.5-.2,3.8a31.764,31.764,0,0,1-1.4,6.1,33.773,33.773,0,0,1-2.7,5.8,16.289,16.289,0,0,1-1.1,1.7,29.358,29.358,0,0,1-4,4.6,31.352,31.352,0,0,1-8.1,5.5,29.91,29.91,0,0,1-28.1-1.7,31.751,31.751,0,0,1-6.6-5.4,28.292,28.292,0,0,1-4.8-7.2c-.5-.9-.8-1.9-1.2-2.8a28.26,28.26,0,0,1-1.3-5,29.6,29.6,0,0,1,.1-10.7,19.994,19.994,0,0,1,.9-3.5,31.146,31.146,0,0,1,2.8-6.2c.1-.1.1-.2.2-.4a15.1,15.1,0,0,1,3.6-5.3" fill="none" stroke="#d93915" stroke-linecap="round" stroke-linejoin="round" stroke-width="1.25"/>
      <path id="패스_14" data-name="패스 14" d="M1344.4,295.1c0,.1-.1.1-.1.2-2,5.3,20.4,8,20.4,5.9" fill="none" stroke="#d93915" stroke-linecap="round" stroke-linejoin="round" stroke-width="1.25"/>
      <path id="패스_15" data-name="패스 15" d="M1337.8,296.8c-1.1,2.6,4.5,5.7,6.4,6.9,3.2,2,10.3,3.1,14.1,3.4,3.3.3,9.6.2,11.5-2.2" fill="none" stroke="#d93915" stroke-linecap="round" stroke-linejoin="round" stroke-width="1.25"/>
      <path id="패스_16" data-name="패스 16" d="M1331.6,299.8h0c-.8,2.4,4,6.2,5.6,7.3,6,4,15.5,6.1,21.9,6.3,5,.2,13-.5,14.9-3.1.1-.1.1-.2.2-.3" fill="none" stroke="#d93915" stroke-linecap="round" stroke-linejoin="round" stroke-width="1.25"/>
      <path id="패스_17" data-name="패스 17" d="M1326.1,304.4h0c-4,6.7,18.3,13.4,26.2,14s21.9.5,23.9-2.4" fill="none" stroke="#d93915" stroke-linecap="round" stroke-linejoin="round" stroke-width="1.25"/>
      <path id="패스_18" data-name="패스 18" d="M1322.2,309.3a1.42,1.42,0,0,0-.2.6c-1,4.5,14.1,9.4,16.9,10.2a93,93,0,0,0,23.5,3.1c4.2,0,11.9-.9,14.7-3.3" fill="none" stroke="#d93915" stroke-linecap="round" stroke-linejoin="round" stroke-width="1.25"/>
      <path id="패스_19" data-name="패스 19" d="M1319.6,316.2c1,5.2,8.7,7.2,13.6,9.1,7.4,2.9,23.8,4.9,31.6,4.3,5.3-.4,10.8-1.1,12.8-4.6" fill="none" stroke="#d93915" stroke-linecap="round" stroke-linejoin="round" stroke-width="1.25"/>
      <path id="패스_20" data-name="패스 20" d="M1318.3,319.6c1.3,5.6,8.3,8,13.3,9.9,7.6,2.8,26.5,5.7,34.4,4.7,5.3-.7,9.4-1.5,11.2-5.4" fill="none" stroke="#d93915" stroke-linecap="round" stroke-linejoin="round" stroke-width="1.25"/>
      <path id="패스_21" data-name="패스 21" d="M1317.3,329.3c.3.3.6.7.9,1,5.2,5.3,14.1,8,20.7,9.4a112.4,112.4,0,0,0,23.9,2,20.15,20.15,0,0,0,13.5-6.8c-.3-.1-.1,0,0-.2" fill="none" stroke="#d93915" stroke-linecap="round" stroke-linejoin="round" stroke-width="1.25"/>
      <path id="패스_22" data-name="패스 22" d="M1318.3,334.1l1.2,1.2c5.2,4.6,13.6,7,20,8.2a114.841,114.841,0,0,0,23.4,1.8,19.361,19.361,0,0,0,9.4-3,18.084,18.084,0,0,0,3.8-3.1c-.3-.1-.1,0,0-.2" fill="none" stroke="#d93915" stroke-linecap="round" stroke-linejoin="round" stroke-width="1.25"/>
      <path id="패스_23" data-name="패스 23" d="M1320.8,338.2c1.8,2.8,8.1,5.8,11.4,6.9a92,92,0,0,0,17.1,3.9c6,.7,13.7.3,19.2-2" fill="none" stroke="#d93915" stroke-linecap="round" stroke-linejoin="round" stroke-width="1.25"/>
      <path id="패스_24" data-name="패스 24" d="M1325.6,345.3c4.2,4.6,12.5,5.5,18.4,6.6,4.6.8,11.7,1.4,16.3.5" fill="none" stroke="#d93915" stroke-linecap="round" stroke-linejoin="round" stroke-width="1.25"/>
      <path id="패스_25" data-name="패스 25" d="M1404.8,336.7c5,7.8-21.8,4.6-28.2,4.4v-1.2c14.2.7,20.5-1.4,21.1-4,.8-3.7-19.6-8.8-19.6-8.8h-.2l.1-.9C1384,327.9,1401.1,331,1404.8,336.7Z" fill="#d93915"/>
      <path id="패스_26" data-name="패스 26" d="M1378.1,327.1s20.4,5.1,19.6,8.8c-.6,2.7-6.9,4.7-21.1,4-4.8-.2-10.4-.8-17-1.7-31.5-4.4-56.1-12.1-59.8-18.6-2.9-5.1,19.4-4.3,19.4-4.3l.1.1-.5,1.3s-15-1-12.7,3.4c2.9,5.6,23.9,12.1,50.7,15.9s34.4,2.4,33.7-1.4c-.7-4.1-12.8-6.7-12.8-6.7l.1-.8Z" fill="#fffbcc"/>
      <path id="패스_27" data-name="패스 27" d="M1376.6,339.9v1.2h-.2a192.876,192.876,0,0,1-39-4.7c-7.9-1.8-40.6-8.7-43.1-17.2-2.1-7.4,19-5.8,25.6-5l-.5,1.2h0l-.1-.1s-22.2-.8-19.4,4.3c3.6,6.4,28.3,14.2,59.8,18.6a155.2,155.2,0,0,0,16.9,1.7Z" fill="#d93915"/>
      <path id="패스_28" data-name="패스 28" d="M1319.4,315.5l.5-1.2c-6.6-.8-27.7-2.4-25.6,5,2.4,8.5,35.1,15.4,43.1,17.2a192.881,192.881,0,0,0,39,4.7h.2c6.4.2,33.3,3.5,28.2-4.4-3.7-5.7-20.8-8.8-26.9-10.6l-.1.9-.1.8s12.1,2.6,12.8,6.7c.7,3.8-6.9,5.2-33.7,1.4s-47.8-10.2-50.7-15.9c-2.3-4.4,12.7-3.4,12.7-3.4Z" fill="none" stroke="#d93915" stroke-linecap="round" stroke-linejoin="round" stroke-width="1.25"/>
      <path id="패스_29" data-name="패스 29" d="M1378.1,327.1s20.4,5.1,19.6,8.8c-.6,2.7-6.9,4.7-21.1,4-4.8-.2-10.4-.8-17-1.7-31.5-4.4-56.1-12.1-59.8-18.6-2.9-5.1,19.4-4.3,19.4-4.3" fill="none" stroke="#d93915" stroke-linecap="round" stroke-linejoin="round" stroke-width="1.25"/>
    </g>
  </g>
</svg>
