<svg xmlns="http://www.w3.org/2000/svg" width="300.583" height="651.044" viewBox="0 0 300.583 651.044">
  <path id="admission-bg-illust-3" d="M1620.6,9.6c-109.7-1.2-226.8,70.8-247.8,142.1-8.4,28.6-9.5,70.2,44.9,106.1,7.8,5.1,21.1,13.4,29.5,18.1,22.2,12.3,47.5,21.4,56.8,46.1,9.8,26.1-19.6,58-44.6,86-8.4,9.4-21,21.3-21.2,35.1s18.6,19.9,28.7,22.7l1.2.3c19.5,5.4,39.9,5.9,59.4,7.5,27.2,2.2,53.6,6,80.8,18.5,42.7,19.5,52.4,44.4,54.3,64.1,3.3,33.9-15.6,67.9-54.1,96.6-3.3,2.5-7.1-2.8-4.2-4.7,37.9-24.4,56.8-60.5,53.8-91.6-2.4-25.3-20.2-46.2-51.2-60.4-25.9-11.8-52-14-79.7-16.2-19.9-1.6-38.3-2.9-58.5-8.5l-3.4-.7c-11.4-2.4-29.4-10.5-31.7-23.8-2.6-15,12.1-32.1,21.1-42.2,20.8-23.2,52.1-60.3,44.3-81-8.3-22.1-33.7-32-55-43.8-8.5-4.7-17.3-9.6-25.4-14.9-45.6-30.1-63.6-71-50.6-115,10.3-35,40.3-70,82.2-96.1C1493.7,26.8,1559.9,4.5,1610.7,4" transform="translate(-1363.114 -3.28)" fill="#fffab8" stroke="#bd771a" stroke-miterlimit="10" stroke-width="1.44"/>
</svg>
