<svg xmlns="http://www.w3.org/2000/svg" width="74" height="454" viewBox="0 0 74 454"><defs><style>.a{fill:#f8b500;}.b{fill:none;stroke:#f8b500;stroke-miterlimit:10;}</style></defs><path class="a" d="M68,83.6c-3.4,6.2-11.3,10.1-17.8,11.6a4.49,4.49,0,0,0-.6-1.2A30.78,30.78,0,0,0,60,89.8a31.32,31.32,0,0,0-5.2-3.5,39.27,39.27,0,0,1-4.1,2.1,8.12,8.12,0,0,0-.9-1,24.27,24.27,0,0,0,10.1-6.8l1.5.3c-.6.7-1.3,1.4-2,2.1H67l.3-.1Zm4.1,9.2C68.7,100.5,60.2,104,52,105.3a4.33,4.33,0,0,0-.5-1.2,34.23,34.23,0,0,0,12.2-3.9A26.14,26.14,0,0,0,58,96.1a34.78,34.78,0,0,1-4.8,2.1,3.92,3.92,0,0,0-.8-1c5.6-1.8,9.7-4.8,11.7-7.3l1.4.4a20.79,20.79,0,0,1-2.1,2.1H71l.3-.1ZM58,84.3a14.29,14.29,0,0,1-2,1.4,27.54,27.54,0,0,1,5.2,3.4,19.44,19.44,0,0,0,5-4.9H58Zm4,9.2c-.9.6-1.8,1.3-2.9,1.9a40.12,40.12,0,0,1,5.7,4,16.65,16.65,0,0,0,5.6-5.9Z"/><path class="a" d="M56.8,128.3c-.4-.9-1.6-2.9-2.4-4.3v13.6H53.2v-14c-1,3.3-2.3,6.8-3.7,8.7a7.63,7.63,0,0,0-.8-1.1c1.7-2.3,3.5-6.9,4.3-10.9H49.3v-1.2h3.9v-6h1.2v6h3.2v1.2H54.4v2c.7,1,2.7,4.1,3.2,4.9Zm6.8,4c-2.2,1.3-4.6,2.8-6.4,3.9l-.7-1.1c1.7-.9,4.2-2.3,6.8-3.8Zm2-5.9c1.3,4.1,3.9,7.6,7.4,9a3.92,3.92,0,0,0-.8,1,14.21,14.21,0,0,1-6.5-7.3v6.7c0,.9-.2,1.3-.8,1.5a14.31,14.31,0,0,1-3.4.2,9.29,9.29,0,0,0-.4-1.3H64c.3,0,.4-.1.4-.5V125H57.5v-1h6.9v-2.6H58.9v-1.2h5.5v-2.4H58v-1.1h3.7a18.17,18.17,0,0,0-1.5-3.2l1-.4a10.63,10.63,0,0,1,1.6,3.2l-.8.4h5.6l-.5-.2a22.61,22.61,0,0,0,1.7-3.5l1.2.4a30.49,30.49,0,0,1-1.8,3.2h4.1v1.1H65.7v2.4h6v1.2h-6v2.6h6.9v1.2H65.7v1.3Zm-6.2.2a16.81,16.81,0,0,1,2.8,3.6l-.9.7a20.26,20.26,0,0,0-2.7-3.7Zm8.3,3.8a32.46,32.46,0,0,0,3.5-3.9l1,.7a33.94,33.94,0,0,1-3.6,3.9Z"/><path class="a" d="M57.5,146.4a32.33,32.33,0,0,1-3.1,5.8V170H53.2V154a28.38,28.38,0,0,1-3.9,4.4l-.8-1.2A30.17,30.17,0,0,0,56.4,146Zm12.1,21.9c1.5,0,1.8-1.1,2-5.1a2.73,2.73,0,0,0,1.2.6c-.3,4.3-.7,5.7-3.2,5.7H63.7c-2.4,0-3.2-.6-3.2-3.1V146.1h1.3v10.6a47.71,47.71,0,0,0,8.6-6.1l.9,1.1a54,54,0,0,1-9.5,6.3v8.5c0,1.4.4,1.8,1.9,1.8Z"/><path class="a" d="M64.2,183.2h7.1v1.3c-1.4-.1-3.5-.1-7.1-.1h-.9c0,1.6,0,3.3.1,4.5a6.08,6.08,0,0,1,.7,3.2c0,3.6-1.5,7.2-7.2,9l-.9-1.3c3.8-.9,5.9-2.8,6.5-5.5a3.47,3.47,0,0,1-2.6,1.3c-2.2,0-3.9-1.5-3.9-4.2a4.13,4.13,0,0,1,6.1-3.8v-3.2c-3.8,0-8.4.2-11.5.5v-1.4c2.7-.1,7.5-.2,11.5-.3a15.57,15.57,0,0,0-.1-2.4c0-.4-.1-1-.1-1.3h1.6c0,.2-.1,1-.1,1.3v2.3h.8Zm-1.4,7.6a2.51,2.51,0,0,0-2.6-2.4,3,3,0,0,0-2.9,3.1,2.65,2.65,0,0,0,2.8,2.9C61.8,194.4,62.8,193.1,62.8,190.8Z"/><path class="a" d="M66.5,214.4a12.49,12.49,0,0,0-1.2.9c-1.2.9-4.7,4.3-6.8,6.2a10.58,10.58,0,0,1,3.8-.7c4.2,0,7.1,2.5,7.1,5.8,0,4.3-3.9,6.8-8.8,6.8-3.4,0-4.9-1.6-4.9-3.4a3.21,3.21,0,0,1,3.5-3c3.1,0,4.7,2.2,5.1,4.6a5,5,0,0,0,3.7-4.9c0-2.7-2.5-4.6-5.9-4.6-4.1,0-6.5,1.9-9.9,5.3l-1-1c2.2-2,5.5-4.9,7-6.2s4.6-4.2,5.9-5.4c-1.4.1-6.9.4-8.1.4-.5,0-1,.1-1.5.1l-.1-1.5a8.64,8.64,0,0,0,1.5.1c1.3,0,7.2-.2,8.5-.4a4.07,4.07,0,0,0,1-.2Zm-3.4,17.4c-.3-2.2-1.6-3.8-3.8-3.8a2.07,2.07,0,0,0-2.3,1.8c0,1.5,1.5,2.2,3.6,2.2A7.07,7.07,0,0,0,63.1,231.8Z"/><path class="a" d="M68.2,245.8c-.2.4-.5,1.2-.7,1.6a36.93,36.93,0,0,1-4.1,8.2,77.23,77.23,0,0,1,6.5,6.2l-1,1.1a62.45,62.45,0,0,0-6.3-6.3,31.71,31.71,0,0,1-10.4,8.8l-1.1-1.1a29.66,29.66,0,0,0,10.5-8.6,88.89,88.89,0,0,0-7.4-5.5l.8-1.1a88.89,88.89,0,0,1,7.4,5.5,29.87,29.87,0,0,0,3.9-7.8,8.45,8.45,0,0,0,.5-1.7Z"/><path class="a" d="M69.2,285.1A11.48,11.48,0,0,0,71,285v1.5c-.6,0-1.2-.1-1.8-.1H61.8c-.1,2.9-.4,5.5-1.5,7.5a13.41,13.41,0,0,1-5,4.7l-1.2-1a11,11,0,0,0,5-4.2c1.2-2,1.4-4.4,1.4-7H52.4a14.08,14.08,0,0,0-2.1.1V285a14.08,14.08,0,0,0,2.1.1Zm-13.7-5.3a13.42,13.42,0,0,0-2.1.1v-1.5a14.08,14.08,0,0,0,2.1.1h9.2a14.77,14.77,0,0,0,2.1-.1v1.5a15.48,15.48,0,0,0-2.1-.1Zm13.7.4a27.06,27.06,0,0,0-2.1-3.7l1-.5a21.22,21.22,0,0,1,2.1,3.6Zm1.6-5.1a26.67,26.67,0,0,1,2.2,3.6l-1,.5a17.92,17.92,0,0,0-2.1-3.6Z"/><path class="a" d="M70.8,306.4a32,32,0,0,1-5.6,4.7v9.2a10.93,10.93,0,0,0,.1,2H63.8c0-.3.1-1.3.1-2v-8.4a38.37,38.37,0,0,1-8,3.4l-.8-1.3a30.51,30.51,0,0,0,8.3-3.4,22.7,22.7,0,0,0,6.3-5.2Z"/><path class="a" d="M71.6,338.5a3,3,0,0,0-.5.7,25.29,25.29,0,0,1-6.5,7.3l-1.2-.9a18.94,18.94,0,0,0,6.2-6.5H54.1c-.9,0-1.9.1-2.8.1v-1.6a24.58,24.58,0,0,0,2.8.2H69.4c.4,0,1-.1,1.3-.1ZM61.4,342c0,7.6-.9,12.1-7.2,15.2L53,356.1a10,10,0,0,0,2.1-1c4.4-2.6,4.9-7,4.9-11.4a10.28,10.28,0,0,0-.1-1.7Z"/><path class="a" d="M67.9,372.9a7.58,7.58,0,0,1-1.6.9,91.43,91.43,0,0,0-8.1,4.5c-2.5,1.7-3.9,3.5-3.9,5.6,0,2.3,2.1,3.9,6.4,3.9a42.15,42.15,0,0,0,8-.8v1.5a51.94,51.94,0,0,1-7.9.6c-4.5,0-7.8-1.5-7.8-5,0-2.5,1.5-4.7,4.5-6.7a64.07,64.07,0,0,1-3.7-8.2l1.3-.5a79,79,0,0,0,3.5,8c2.5-1.6,5.7-3.1,7.1-4,.6-.4,1-.6,1.5-1Z"/><path class="a" d="M71.2,406.4a36.14,36.14,0,0,0-5.8-5.9l1.1-1a46.93,46.93,0,0,1,5.9,5.9Z"/><path class="a" d="M5.1,227.9c-.4,3.5-1.3,7.9-3.3,10.4l-1.1-.7c1.9-2.4,2.7-6.6,3.1-10Zm4.3-2.6v14c0,1.2.4,1.5,1.9,1.5h5.6c1.7,0,2-1.1,2.2-6a2.73,2.73,0,0,0,1.2.6c-.2,5.1-.7,6.6-3.4,6.6H11.3c-2.4,0-3.1-.6-3.1-2.7V225.4H9.4Zm-.3-7.2a46.47,46.47,0,0,1,9.2,4.4l-.8,1.1a42.84,42.84,0,0,0-9.1-4.5Zm11.2,8.8A31,31,0,0,1,25.4,237l-1.2.6a31.21,31.21,0,0,0-4.9-10.1Z"/><path class="a" d="M13,271.7a16.83,16.83,0,0,1,2-.2,8.19,8.19,0,0,0,6.8-8.2,7.73,7.73,0,0,0-7.6-8,48.92,48.92,0,0,1-1.5,7.8c-1.5,5.4-3.5,7.9-5.6,7.9-1.9,0-4.1-2.3-4.1-6.6a10.66,10.66,0,0,1,10.8-10.3,9.06,9.06,0,0,1,9.4,9.3c0,5.5-3.6,9-9.4,9.7Zm0-16.3a9.48,9.48,0,0,0-8.6,8.9c0,3.7,1.8,5.2,2.9,5.2s2.8-1.8,4.3-6.7A57,57,0,0,0,13,255.4Z"/><path class="a" d="M3.7,292.5v14.8H2.5V284h9.2v8.5Zm0-7.5v2.6h6.8V285Zm6.8,6.4v-2.7H3.7v2.7Zm3.4,9.1a8.34,8.34,0,0,0,6.1,4.3,3.92,3.92,0,0,0-.8,1,9.27,9.27,0,0,1-6.1-4.5c-.7,1.7-2.3,3.4-6.3,4.6A3.45,3.45,0,0,0,6,305c4.1-1.2,5.6-2.9,6-4.5H6.1v-1.1h6.2v-2.5H6.5v-1.1H9.8a8.87,8.87,0,0,0-1.4-2.5l1-.4a7.69,7.69,0,0,1,1.5,2.8l-.2.1h4a20,20,0,0,0,1.5-2.9l1.2.5c-.5.8-1,1.8-1.5,2.5h3.6V297H13.4v2.6h6.7v1.1H13.9Zm9.9,4.9c0,.9-.2,1.3-.8,1.6a12.91,12.91,0,0,1-3.3.2c-.1-.3-.3-.9-.4-1.3h2.9c.4,0,.5-.1.5-.5V292.5H14.5V284h9.4v21.4ZM15.6,285v2.6h7V285Zm7,6.4v-2.7h-7v2.7Z"/><path class="a" d="M8.2,315.7a39.89,39.89,0,0,1-2.5,5.6v18.3H4.5V323.4a38.37,38.37,0,0,1-3.2,4.4,8.34,8.34,0,0,0-.8-1.2A33.55,33.55,0,0,0,7,315.3Zm4.3,16.9a24.79,24.79,0,0,1-4.3,5.9c-.2-.2-.7-.5-.9-.7a21.31,21.31,0,0,0,4.1-5.5Zm11.8-.9a14.51,14.51,0,0,0-1.2-1.9c-2.1.1-4.3.2-6.4.2v9.5H15.5V330c-3,.1-5.7.2-7.9.2l-.2-1.3c1.2,0,2.7-.1,4.3-.1.7-.6,1.5-1.4,2.3-2.2a27.92,27.92,0,0,0-5.5-4.4l.7-.8c.6.4,1.2.8,1.9,1.2a33.21,33.21,0,0,0,3.2-4.2c-1.9.2-3.8.4-5.7.5-.1-.3-.2-.8-.3-1.1,5-.4,11.1-1.1,14.3-2.2l.9,1a54.23,54.23,0,0,1-7.8,1.5l.1.1a50,50,0,0,1-4,4.9c1.1.9,2.2,1.8,2.9,2.5a60.6,60.6,0,0,0,5-5.9l1.2.6a97.13,97.13,0,0,1-7.6,8.2c2.7-.1,5.8-.1,8.9-.2a28.68,28.68,0,0,0-2.9-3.1l.9-.5a26,26,0,0,1,5,6Zm-3.6.5a27.18,27.18,0,0,1,4.2,5.6l-1,.6a25.14,25.14,0,0,0-4.2-5.7Z"/><path class="a" d="M14,366.4c.1-1.1.1-3.2.1-4.6-2.6,1.4-4.6,2.9-4.6,4.9,0,2.4,2.4,2.6,5.1,2.6a54.33,54.33,0,0,0,6.7-.5l-.1,1.4c-2,.2-4.7.4-6.8.4-3.4,0-6.3-.7-6.3-3.8,0-2.9,2.9-4.8,5.9-6.4a2.21,2.21,0,0,0-2.5-2,6.7,6.7,0,0,0-4.6,2A32.32,32.32,0,0,0,4.6,363l-1.1-.9a26.17,26.17,0,0,0,5.9-8.4H7.9c-1.1,0-2.7,0-4.1-.1v-1.3a33.11,33.11,0,0,0,4.2.3H9.9a10.86,10.86,0,0,0,.7-3.4l1.4.1c-.2.8-.4,2-.8,3.2a69.44,69.44,0,0,0,8.1-.8V353a76.92,76.92,0,0,1-8.5.7A18.19,18.19,0,0,1,8,358.5a6.89,6.89,0,0,1,3.9-1.2,3,3,0,0,1,3.3,2.6c2-1,3.8-1.8,5.3-2.5.6-.3,1.1-.5,1.7-.8l.5,1.3c-.5.2-1.2.4-1.8.7-1.6.6-3.7,1.5-5.8,2.5,0,1.5.1,3.9.1,5.2H14Z"/><path class="a" d="M24.6,396.4H13.7v6.3c0,.9-.2,1.3-1,1.6a25.2,25.2,0,0,1-4.7.2,4.49,4.49,0,0,0-.6-1.2,29.27,29.27,0,0,0,4.4,0c.6-.1.6-.2.6-.5v-6.3H1.7v-1.2H12.5v-2.1h.7a23.47,23.47,0,0,0,4.9-2.9H5.9V389H19.3l.3-.1.8.6a25.93,25.93,0,0,1-6.7,4.4v1.2H24.6Zm-21-6.2H2.4v-5.7H6.7a16.09,16.09,0,0,0-2.5-3.7l1-.5a19.84,19.84,0,0,1,2.6,3.8l-.8.4h6a15.46,15.46,0,0,0-2.1-4.3l1.1-.4a22,22,0,0,1,2.2,4.3l-.9.4h4.9a32.78,32.78,0,0,0,3.2-4.4l1.2.5a40.14,40.14,0,0,1-3,3.9h4.5v5.7H22.9v-4.5H3.6Z"/><path class="a" d="M1.8,433.8,1,432.6a27.71,27.71,0,0,0,6.5-5.1l.8,1A35.55,35.55,0,0,1,1.8,433.8Zm6-.5a12.46,12.46,0,0,0,4.2.6c1.1,0,2.8-.4,2.8-2.4s-1.9-4.3-3.5-6c-.5-.5-1.2-1.3-1.9-1.9l1-.9c.5.6,1.2,1.3,1.7,2,2.1,2.4,3.9,4.7,3.9,7,0,3-2.6,3.6-3.9,3.6a23,23,0,0,1-4.2-.4ZM13,420.6a15.63,15.63,0,0,0,1.9-1.4,31.85,31.85,0,0,0-5.6-3.3l.8-1a38.1,38.1,0,0,1,6,3.6l.3,1c-.6.5-1.7,1.4-2.6,2Zm9.7,13.1a25.08,25.08,0,0,0-4.4-8l1.1-.6a28,28,0,0,1,4.5,8ZM21.8,421l-1,.5a27.06,27.06,0,0,0-2.1-3.7l.9-.4A31.31,31.31,0,0,1,21.8,421Zm2.7-1.1-1,.5a27.74,27.74,0,0,0-2.2-3.7l1-.4A23.21,23.21,0,0,1,24.5,419.9Z"/><path class="a" d="M24.9,449.3a3.8,3.8,0,1,1-7.6,0,3.8,3.8,0,1,1,7.6,0Zm-1,0a2.8,2.8,0,1,0-2.8,2.9A2.88,2.88,0,0,0,23.9,449.3Z"/><line class="b" x1="60.6" y1="1" x2="60.6" y2="70"/></svg>