<svg xmlns="http://www.w3.org/2000/svg" xmlns:xlink="http://www.w3.org/1999/xlink" width="251.88mm" height="316.09mm" viewBox="0 0 714 896"><defs><style>.a,.s{fill:none;}.b,.c,.g{fill:#ec6d74;}.b{stroke:#ec6d74;stroke-width:1.5px;}.b,.d,.e,.f,.g,.h,.i,.j,.k,.l,.m,.n,.o,.s{stroke-linecap:round;stroke-linejoin:round;}.d,.o,.t{fill:#fff9ad;}.d,.e,.f,.g,.h,.i,.j,.k,.l,.m,.n,.o,.p,.s{stroke:#bd771a;}.e,.h,.u{fill:#fffde0;}.f{fill:#f5b6b9;}.f,.g,.h,.i,.j,.k,.l,.m,.n,.o,.p{stroke-width:1.32px;}.i,.q{fill:#fff799;}.j{fill:#56b879;}.k,.p{fill:#fff;}.l{fill:#99d4af;}.m{fill:#f4a8ab;}.n{fill:#fffdeb;}.p{stroke-miterlimit:10;}.r{fill:url(#a);}.s{stroke-width:1.32px;}.v{fill:#88cda1;}.w{fill:url(#b);}.x{fill:#fbd49b;}</style><pattern id="a" width="127.56" height="127.56" patternTransform="translate(-269.73 -95.83) rotate(-5.26) scale(0.23)" patternUnits="userSpaceOnUse" viewBox="0 0 127.56 127.56"><rect class="a" width="127.56" height="127.56"/><circle class="c" cx="109.79" cy="115.38" r="5.52"/><circle class="c" cx="130.18" cy="117.56" r="5.52"/><circle class="c" cx="109.79" cy="97.22" r="5.52"/><circle class="c" cx="131.15" cy="95.03" r="5.52"/><circle class="c" cx="67.27" cy="115.38" r="5.52"/><circle class="c" cx="87.66" cy="117.56" r="5.52"/><circle class="c" cx="67.27" cy="97.22" r="5.52"/><circle class="c" cx="88.63" cy="95.03" r="5.52"/><circle class="c" cx="24.75" cy="115.38" r="5.52"/><circle class="c" cx="45.14" cy="117.56" r="5.52"/><circle class="c" cx="24.75" cy="97.22" r="5.52"/><circle class="c" cx="46.11" cy="95.03" r="5.52"/><circle class="c" cx="2.62" cy="117.56" r="5.52"/><circle class="c" cx="3.59" cy="95.03" r="5.52"/><circle class="c" cx="95.62" cy="72.86" r="5.52"/><circle class="c" cx="116.01" cy="75.04" r="5.52"/><circle class="c" cx="95.62" cy="54.7" r="5.52"/><circle class="c" cx="116.98" cy="52.51" r="5.52"/><circle class="c" cx="53.1" cy="72.86" r="5.52"/><circle class="c" cx="73.49" cy="75.04" r="5.52"/><circle class="c" cx="53.1" cy="54.7" r="5.52"/><circle class="c" cx="74.46" cy="52.51" r="5.52"/><circle class="c" cx="10.58" cy="72.86" r="5.52"/><circle class="c" cx="30.97" cy="75.04" r="5.52"/><circle class="c" cx="10.58" cy="54.7" r="5.52"/><circle class="c" cx="31.94" cy="52.51" r="5.52"/><circle class="c" cx="123.96" cy="30.34" r="5.52"/><circle class="c" cx="123.96" cy="12.18" r="5.52"/><circle class="c" cx="81.45" cy="30.34" r="5.52"/><circle class="c" cx="101.84" cy="32.53" r="5.52"/><circle class="c" cx="81.45" cy="12.18" r="5.52"/><circle class="c" cx="102.81" cy="9.99" r="5.52"/><circle class="c" cx="38.93" cy="30.34" r="5.52"/><circle class="c" cx="59.32" cy="32.53" r="5.52"/><circle class="c" cx="38.93" cy="12.18" r="5.52"/><circle class="c" cx="60.29" cy="9.99" r="5.52"/><circle class="c" cx="-3.59" cy="30.34" r="5.52"/><circle class="c" cx="16.8" cy="32.53" r="5.52"/><circle class="c" cx="-3.59" cy="12.18" r="5.52"/><circle class="c" cx="17.77" cy="9.99" r="5.52"/></pattern><pattern id="b" width="56.69" height="62.91" patternTransform="matrix(0.21, -0.25, 3.68, 3.08, -899.58, -692.17)" patternUnits="userSpaceOnUse" viewBox="0 0 56.69 62.91"><rect class="a" width="56.69" height="62.91"/><path class="b" d="M52.78,125.47c2.85-1.53,5.31-6.65,6.64-9.54A40.84,40.84,0,0,0,63,101.07c.39-7.49.46-15.1-2.12-22.13-1.82-5-4.19-12.55-8.82-15.68H49.59c4.62,3.13,7,10.71,8.82,15.68,2.58,7,2.5,14.64,2.12,22.13a41,41,0,0,1-3.62,14.86c-1.33,2.89-3.8,8-6.64,9.54Z"/><path class="b" d="M42.59,125.47c3.31-1.79,5-5.94,6.48-9.19,5.4-12,5.08-25.59,1.57-37.73C49,73,46.9,66.64,41.91,63.26H39.25c2.52,0,5.35,6.83,6.14,8.64,4.58,10.48,6.78,22.77,4.28,34.43-1.23,5.74-4,16-9.75,19.14Z"/><path class="b" d="M24.43,125.47c2.85-1.53,5.32-6.65,6.65-9.54a41.25,41.25,0,0,0,3.62-14.86c.38-7.49.45-15.1-2.13-22.13-1.82-5-4.19-12.55-8.81-15.68H21.24c4.63,3.13,7,10.71,8.82,15.68,2.58,7,2.51,14.64,2.12,22.13a41,41,0,0,1-3.61,14.86c-1.33,2.89-3.8,8-6.65,9.54Z"/><path class="b" d="M33.88,125.47c3-1.59,4.69-5.44,6.07-8.3a42,42,0,0,0,4.2-16.1c.38-7.41.14-14.9-2.06-21.94-1.7-5.45-4-12.55-8.88-15.87H30.84c2.53,0,5.36,6.83,6.15,8.64a72.06,72.06,0,0,1,3.79,10.71c2.74,10.68,2.16,23-2.61,33.32-1.33,2.89-3.8,8-6.65,9.54Z"/><path class="b" d="M14.24,125.47c3.31-1.79,5-5.94,6.48-9.19,5.41-12,5.08-25.59,1.57-37.73C20.68,73,18.55,66.64,13.56,63.26H10.9c2.53,0,5.35,6.83,6.14,8.64,4.58,10.48,6.79,22.77,4.29,34.43-1.24,5.74-4,16-9.75,19.14Z"/><path class="b" d="M-3.91,125.47c2.84-1.53,5.31-6.65,6.64-9.54a41,41,0,0,0,3.62-14.86c.38-7.49.46-15.1-2.12-22.13C2.41,74,0,66.39-4.59,63.26H-7.1c4.62,3.13,7,10.71,8.82,15.68,2.58,7,2.5,14.64,2.12,22.13A41.25,41.25,0,0,1,.22,115.93c-1.33,2.89-3.8,8-6.65,9.54Z"/><path class="b" d="M5.54,125.47c3-1.59,4.69-5.44,6.07-8.3a42.13,42.13,0,0,0,4.19-16.1c.38-7.41.14-14.9-2.06-21.94-1.7-5.45-4-12.55-8.88-15.87H2.5c2.52,0,5.35,6.83,6.14,8.64a70.94,70.94,0,0,1,3.79,10.71c2.74,10.68,2.17,23-2.61,33.32-1.33,2.89-3.8,8-6.65,9.54Z"/><path class="b" d="M52.78,62.56C55.63,61,58.09,55.91,59.42,53A40.84,40.84,0,0,0,63,38.16c.39-7.49.46-15.1-2.12-22.13C59.1,11.06,56.73,3.48,52.1.35H49.59c4.62,3.13,7,10.71,8.82,15.68,2.58,7,2.5,14.64,2.12,22.13A41,41,0,0,1,56.91,53c-1.33,2.89-3.8,8-6.64,9.54Z"/><path class="b" d="M42.59,62.56c3.31-1.79,5-5.94,6.48-9.19,5.4-12,5.08-25.59,1.57-37.74C49,10.06,46.9,3.73,41.91.35H39.25C41.77.35,44.6,7.18,45.39,9,50,19.47,52.17,31.76,49.67,43.42c-1.23,5.74-4,16-9.75,19.14Z"/><path class="b" d="M24.43,62.56C27.28,61,29.75,55.91,31.08,53A41.25,41.25,0,0,0,34.7,38.16c.38-7.49.45-15.1-2.13-22.13-1.82-5-4.19-12.55-8.81-15.68H21.24c4.63,3.13,7,10.71,8.82,15.68,2.58,7,2.51,14.64,2.12,22.13A41,41,0,0,1,28.57,53c-1.33,2.89-3.8,8-6.65,9.54Z"/><path class="b" d="M33.88,62.56c3-1.59,4.69-5.44,6.07-8.3a42,42,0,0,0,4.2-16.1c.38-7.41.14-14.9-2.06-21.94-1.7-5.45-4-12.55-8.88-15.87H30.84C33.37.35,36.2,7.18,37,9A72.06,72.06,0,0,1,40.78,19.7c2.74,10.68,2.16,23-2.61,33.32-1.33,2.89-3.8,8-6.65,9.54Z"/><path class="b" d="M14.24,62.56c3.31-1.79,5-5.94,6.48-9.19,5.41-12,5.08-25.59,1.57-37.74C20.68,10.06,18.55,3.73,13.56.35H10.9C13.43.35,16.25,7.18,17,9c4.58,10.48,6.79,22.77,4.29,34.43-1.24,5.74-4,16-9.75,19.14Z"/><path class="b" d="M-3.91,62.56C-1.07,61,1.4,55.91,2.73,53A41,41,0,0,0,6.35,38.16c.38-7.49.46-15.1-2.12-22.13C2.41,11.06,0,3.48-4.59.35H-7.1C-2.48,3.48-.11,11.06,1.72,16c2.58,7,2.5,14.64,2.12,22.13A41.25,41.25,0,0,1,.22,53c-1.33,2.89-3.8,8-6.65,9.54Z"/><path class="b" d="M5.54,62.56c3-1.59,4.69-5.44,6.07-8.3a42.13,42.13,0,0,0,4.19-16.1c.38-7.41.14-14.9-2.06-21.94C12,10.77,9.76,3.67,4.86.35H2.5C5,.35,7.85,7.18,8.64,9A70.94,70.94,0,0,1,12.43,19.7c2.74,10.68,2.17,23-2.61,33.32C8.49,55.91,6,61,3.17,62.56Z"/><path class="b" d="M52.78-.35C55.63-1.89,58.09-7,59.42-9.89A40.84,40.84,0,0,0,63-24.75c.39-7.5.46-15.1-2.12-22.14-1.82-5-4.19-12.54-8.82-15.67H49.59c4.62,3.13,7,10.7,8.82,15.67,2.58,7,2.5,14.64,2.12,22.14A41,41,0,0,1,56.91-9.89c-1.33,2.89-3.8,8-6.64,9.54Z"/><path class="b" d="M42.59-.35c3.31-1.79,5-5.95,6.48-9.19,5.4-12,5.08-25.59,1.57-37.74C49-52.86,46.9-59.18,41.91-62.56H39.25c2.52,0,5.35,6.83,6.14,8.64C50-43.44,52.17-31.15,49.67-19.49c-1.23,5.74-4,16-9.75,19.14Z"/><path class="b" d="M24.43-.35C27.28-1.89,29.75-7,31.08-9.89A41.25,41.25,0,0,0,34.7-24.75c.38-7.5.45-15.1-2.13-22.14-1.82-5-4.19-12.54-8.81-15.67H21.24c4.63,3.13,7,10.7,8.82,15.67,2.58,7,2.51,14.64,2.12,22.14A41,41,0,0,1,28.57-9.89c-1.33,2.89-3.8,8-6.65,9.54Z"/><path class="b" d="M33.88-.35c3-1.59,4.69-5.44,6.07-8.31a41.87,41.87,0,0,0,4.2-16.09c.38-7.41.14-14.9-2.06-21.94-1.7-5.45-4-12.55-8.88-15.87H30.84c2.53,0,5.36,6.83,6.15,8.64a71.66,71.66,0,0,1,3.79,10.71c2.74,10.68,2.16,23-2.61,33.32-1.33,2.89-3.8,8-6.65,9.54Z"/><path class="b" d="M14.24-.35c3.31-1.79,5-5.95,6.48-9.19,5.41-12,5.08-25.59,1.57-37.74-1.61-5.58-3.74-11.9-8.73-15.28H10.9c2.53,0,5.35,6.83,6.14,8.64,4.58,10.48,6.79,22.77,4.29,34.43-1.24,5.74-4,16-9.75,19.14Z"/><path class="b" d="M-3.91-.35C-1.07-1.89,1.4-7,2.73-9.89A41,41,0,0,0,6.35-24.75c.38-7.5.46-15.1-2.12-22.14-1.82-5-4.2-12.54-8.82-15.67H-7.1c4.62,3.13,7,10.7,8.82,15.67,2.58,7,2.5,14.64,2.12,22.14A41.25,41.25,0,0,1,.22-9.89C-1.11-7-3.58-1.89-6.43-.35Z"/><path class="b" d="M5.54-.35c3-1.59,4.69-5.44,6.07-8.31A42,42,0,0,0,15.8-24.75c.38-7.41.14-14.9-2.06-21.94-1.7-5.45-4-12.55-8.88-15.87H2.5c2.52,0,5.35,6.83,6.14,8.64a70.56,70.56,0,0,1,3.79,10.71c2.74,10.68,2.17,23-2.61,33.32C8.49-7,6-1.89,3.17-.35Z"/></pattern></defs><polygon class="d" points="654.9 46.6 621.2 76 607.9 45.5 641.6 16.1 654.9 46.6"/><polygon class="e" points="650.5 45.8 622.8 70 612.3 46.3 640.1 22.1 650.5 45.8"/><path class="f" d="M214.9,128c-2.3-1.4-5.7,1.2-5.9,3.5-.2,3.6,4.5,4.7,7,2.7C218.1,132.4,218.1,128.7,214.9,128Z"/><path class="g" d="M227,105.5a8,8,0,0,0-4.9,2.8,4.82,4.82,0,0,0,1.4,6.9c3.7,2.1,10.9-2.6,9.3-7C231.9,105.7,229.4,105.1,227,105.5Z"/><path class="f" d="M331.1-.6c-2.4.4-3.4,4.1-2.1,5.9,1.9,2.7,6,.7,6.5-2.2C336,.6,333.8-2,331.1-.6Z"/><path class="h" d="M303.1,41.5c-2.1,1.6.3,4.9,2.2,2.5a1.75,1.75,0,0,0-2.1-2.7"/><path class="i" d="M607.4,242.8c-1.7-3.2-5.6-5.9-9.3-5-1.9.5-2.5,2.5-3.4,3-1.5.7-2.2.2-3.7.7-10.4,3.2,4.1,11.5,5.4,4.2,2.5.6,5.4,3.5,8.1,3,2.4-.5,4.3-2.6,3.3-5A6.31,6.31,0,0,1,607.4,242.8Z"/><path class="i" d="M608,241.7c-1.7-3.2-5.6-5.9-9.3-5-1.9.5-2.5,2.5-3.4,3-1.5.7-2.2.2-3.7.7-10.4,3.2,4.1,11.5,5.4,4.2,2.5.6,5.4,3.5,8.1,3,2.4-.5,4.3-2.6,3.3-5A7.93,7.93,0,0,0,608,241.7Z"/><path class="f" d="M701.5,211.4c-2.4-.4-4.5,2.9-3.8,5,1,3.1,5.5,2.5,6.8-.1C705.7,214.1,704.5,210.9,701.5,211.4Z"/><path class="j" d="M641.3,245.7c-2.5.9-1.1,4.8,1.3,3.1,1.9-1.3.2-3.5-1.2-3.2"/><path class="h" d="M662.2,243.2c-2.5.9-1.1,4.8,1.3,3.1,1.9-1.3.2-3.5-1.2-3.2"/><polygon class="k" points="680.5 114.7 661.7 122.5 661.5 107.1 680.4 99.3 680.5 114.7"/><polygon class="i" points="678.6 113.6 663.6 119.8 663.5 108.2 678.5 102 678.6 113.6"/><polygon class="k" points="695.3 94.6 678.7 101.5 678.5 87.8 695.2 81 695.3 94.6"/><polygon class="l" points="693.6 93.6 680.3 99.1 680.2 88.8 693.5 83.3 693.6 93.6"/><path class="g" d="M115.9,308.8l-13.1-4.6c-7.4-2.6-10.1-10.3-6.2-17.2l7-12.3c4-6.9,13.1-10.4,20.5-7.8l13.1,4.6c7.4,2.6,10.1,10.3,6.2,17.2l-7,12.3C132.4,307.9,123.2,311.4,115.9,308.8Z"/><path class="h" d="M113.7,306.8l-13.1-4.6c-7.4-2.6-10.1-10.3-6.2-17.2l7-12.3c4-6.9,13.1-10.4,20.5-7.8l13.1,4.6c7.4,2.6,10.1,10.3,6.2,17.2l-7,12.3C130.2,305.9,121,309.4,113.7,306.8Z"/><path class="m" d="M131.9,282a6.64,6.64,0,0,0-5.4-4.2c-2.5-.4-3.7,1.8-5.7,1.8-3.4,0-2.7-5.6-4.3-7-2.6-2.4-3.2,4.4-5,5.4-.3-.4-1.1-.6-1.3-1-2.4,1.9-1.2,4.2-1.3,6.3-3.7-1.5-1.6,6.7,0,7.8-2.5,1.1-5.3-.7-7.4-1.5.4,4.6,6.1,6.9,10.8,6.8,8.9-.3,16.2-4.3,19.7-11.6a20.9,20.9,0,0,0,2.5-.1,3,3,0,0,0-1.7-1.2,4.89,4.89,0,0,0,2.1-1.9C134.3,281.4,133.3,281.9,131.9,282Z"/><path class="j" d="M37.8,241.6c-.9-2.7-2.6-4.6-4.9-2.3h0c-.3-2.1-1.5-2.7-3.8-1.7.2-2.5-1.7-4.5-3.7-2.3.8-2.8-2.2-4.1-4.5-1.4.3-3.2-2.2-4.9-4.9-3.2.8-2.6-.9-4.1-3.7-3.1-.3-3.3-3.8-4.8-5.8-1.9-.3-.3.5-1.2-.6-1.1a5.47,5.47,0,0,0-2.6,2.6,1.58,1.58,0,0,0,1.1,2.2,5.36,5.36,0,0,0,3.3-.1c-1.6,3-.1,6,3.4,4.3h0c-1,3.1.3,5.1,3.5,3.9-.5,3.9,3.1,5.2,6.2,3.6-.2,3.1,2.2,4.4,5.1,3.3,1.1,2.5,1.1,2.3,3.9,1.9.8,3.5,3.8,3.5,6.1,1.1-.1.1.3,1.3.3,1.4.4.9,1.9,1.2,2.7,1.2s2.3-.8,1.8-1.9a2.75,2.75,0,0,0,2.9,1.7c1.6-.4,1.6-2.5,1.1-3.7-.1-.2.6-.7.7-.9.6-1.4-1.6-1.7-2.4-1.8a6.15,6.15,0,0,1-1.4-.1c0-.6-.1-1.5-.7-1.8C40,241.1,38.6,241.6,37.8,241.6Z"/><path class="n" d="M233.9,328.6c-2.3,1.3-24.6-6.2-24.7-8.7-1.8-2,6.9-16.3,9.7-16.9,3.5-1.1,24.7,6.9,24.7,8.7C245.1,313.1,235.8,328.6,233.9,328.6Z"/><path class="j" d="M223.1,309.1c-1.6,2.8-4.3,6.6-4.9,9.5a41.7,41.7,0,0,0,9.4.6,22.18,22.18,0,0,0,7.3-.9C231.5,315.3,228.8,312.5,223.1,309.1Z"/><path class="h" d="M576.5,330.6c-2.8-1-8.1-.5-11.6-.3-3.1.2-7.4.3-9.8.7-1.7.3-2.2,2.8-2.9,4.6s-1.6,4.2-1.4,5.9c2.1.2,4.9-1.6,6.9-2.4,3-1.2,6-2.5,8.9-3.8S574,332,576.5,330.6Z"/><path class="h" d="M575.5,327.8c-3.9-2.4-8.6-4.1-12.9-6.2-1.5-.7-9.8-5.4-9.6-2.9.1,1.3,1,8.9,1.9,9.7.6.6,3.1-.1,4.1-.1,2.1.1,4.3-.2,6.3,0,3.8.2,7.6-.2,11.3.1"/><path class="h" d="M475.1,436.8c.6-3.6-4.3-9-6.8-5-.2-2-4-1.4-5.7.2-1.5-3.8-6.3-2.1-9.1-.9-1.3-2.6-4.8-1.9-6.1.3,0,.3.1.3.1,0-1.3-1.9-4-2.8-5.9-1-1.5-2.6-5.4-3.4-7.6-1.2,0-2.5-3.9-3.9-5.5-2-1.9-1.7-5.3-2.4-6.7-.4-1.3-2.9-7.7-1.2-5.4.4,0,0-.3-.8-.5-.7-2.8,1.4-1.3,6.6,2,4.3-.3,3.2,3.1,4.7,5.5,2.4-1.8,4,4.6,4.7,6.7,2.2-.7,4.4,4.2,3.2,6.7,2-.2,3.9,4.3,3.9,6.8,2.2-.2,3.5,4.3,3.5,6.3,1.7-.4,3.5,4.1,3.3,5.8,1.3,1.2,2.8,4.8,1.3,6.6-.1.8,1.7,2.8,1.5,4.2.1,1.6,1.4,3.6.3,4.6-1.4,1.1,2.7,3.7.8,4.3-1.6C477.7,440,477.8,436.7,475.1,436.8Z"/><path class="m" d="M309.9,384.9c-2.4,4.8-5.3,9.7-7.2,13.8,3.2,1.1,7.6,2.8,10.9,3.8,3.5,1.1,7.5,2.3,10.8,3,2.1-3.9,4.3-8.6,6.7-12.6a12.43,12.43,0,0,1-4-1.6,65.49,65.49,0,0,0-7.4-2.7C316.5,387.6,313.9,386.3,309.9,384.9Z"/><path class="m" d="M309.9,384.9c.5,1.2,1.6,4.8,2.4,6.6,1.1,2.6,2,4.2,2.8,6a51.11,51.11,0,0,0,7.6-2.3c1.7-.6,7.1-1.7,8.5-2.7Z"/><path class="l" d="M320,396.1c1.6,3,3.2,6.2,4.6,9.2"/><path class="m" d="M442.7,406.6,432.6,403c-5.7-2-7.8-7.9-4.8-13.3l5.4-9.5c3.1-5.3,10.2-8.1,15.9-6.1l10.1,3.6c5.7,2,7.8,7.9,4.8,13.3l-5.4,9.5C455.5,405.9,448.4,408.6,442.7,406.6Z"/><path class="o" d="M456.8,387.5a5.06,5.06,0,0,0-4.2-3.3c-1.9-.3-2.9,1.4-4.4,1.4-2.6,0-2.1-4.3-3.3-5.4-2-1.8-2.4,3.4-3.9,4.2-.2-.3-.8-.5-1-.8-1.8,1.5-.9,3.2-1,4.9-2.9-1.2-1.2,5.2,0,6.1-1.9.9-4.1-.6-5.7-1.2.3,3.6,4.7,5.4,8.4,5.2,6.9-.2,12.6-3.3,15.3-9a14.08,14.08,0,0,0,2-.1,3,3,0,0,0-1.3-.9,5,5,0,0,0,1.7-1.5A16.63,16.63,0,0,0,456.8,387.5Z"/><path class="j" d="M604.7,353.9l-12.5-4.4a4.21,4.21,0,0,1-2.3-6.3l6.7-11.7a6.42,6.42,0,0,1,7.5-2.8l12.5,4.4a4.21,4.21,0,0,1,2.3,6.3l-6.7,11.7A6.74,6.74,0,0,1,604.7,353.9Zm-1.8-23a3.43,3.43,0,0,0-3.9,1.5l-6.7,11.7a2.19,2.19,0,0,0,1.2,3.3l12.5,4.4a3.43,3.43,0,0,0,3.9-1.5l6.7-11.7a2.19,2.19,0,0,0-1.2-3.3Z"/><path class="j" d="M540.1,409.2c-2.9,1.6-31.2-7.8-31.3-11-2.3-2.5,8.8-20.7,12.2-21.4,4.4-1.4,31.4,8.7,31.3,11C554.3,389.6,542.5,409.3,540.1,409.2Z"/><path class="o" d="M539.1,407.1c-2.9,1.6-31.2-7.8-31.3-11-2.3-2.5,8.8-20.7,12.2-21.4,4.4-1.4,31.4,8.7,31.3,11C553.3,387.5,541.5,407.1,539.1,407.1Z"/><path class="g" d="M525.5,382.3c-2,3.5-5.5,8.3-6.2,12a52.68,52.68,0,0,0,12,.8,32,32,0,0,0,9.3-1.1C536.1,390.2,532.6,386.7,525.5,382.3Z"/><path class="j" d="M675.6,367.6c.4-2.2-2.4-4.5-3.1-1.8a2,2,0,0,0-3.7.8c-2.1-.7-3.5,2.9-1.3,3.8-2.2-.3-1,5.9,1.7,3.2-.5,2.4,2.5,2.9,3.1.6,1.3,1.2,3.6.6,3.4-1.5v.8c1.9.1,3-2.4,1.5-2.5,1.2-.3,1.2-1.5.3-2.4.6-.4-.1-.8-1-1.3"/><path class="h" d="M684.5,379.7c-1.6-1.1-4.6-2-3.7,1.1-.2,0-.2-.4-.6-.2a18.69,18.69,0,0,1-1.7,3.1c-.3-.2-.8-.4-1.1-.6-.4.9-1.3,1.2-1.9,1.8-1.6-1.6-2.7,1.2-4.1,1.9-.9-1-1.9.1-2.5,1.5-.6-2.3-2.5-1.4-3.5.3-1.3-2.7-4.4.3-5.9,1.3-.8-2.5-2.8-1.1-3.7.6-.5-3.2-4-1.6-5.2.4-3-2.8-4.2-2-7.4.3-1-4.3-4.7-1.4-6.7.4-2.9-3.2-6.4-2.4-9.6.2-1.4-3.3-4.9-3.6-6.7-.4-1.9-2.1-5.7-2.7-7,.4a3.42,3.42,0,0,0-5.9.2c-1.5-1.2-4.2-3-4.8.1-1.9-1.5-4.9-2.5-6.3.3-5.5-3.1-9,4.6-4.7,3.8.7,3,4,2.3,5.7.6,1,1.8,3,1.5,4.5.4a3.77,3.77,0,0,0,4.7.6c1.3,2.3,3.4,2.3,5.6,1.2,1.5,1.9,3.7,1,5.7.4,1.7,3.3,4.8,1.1,7.2,0,1.1,2.5,4,1.3,5.7.2,1.9,3.1,6.3,1.2,8.5-.5.8,2.8,5.2,1.4,6.8.1,1.7,3,5.8,2.1,7.9-.1,1.7,1.6,4.6.7,5.7-1.3,1.3,2.4,5.4.7,6.7-1,1.7,1.4,5.1,1,6.3-1,1.9,2,5.6-.1,6.4-2.4,2.1.8,5.5-.9,5.2-3.3,2,.9,2.9-2,2.4-3.6.2,0,.2.2.6.2-.1-1.8.1-5.6-1.5-6.5a.45.45,0,0,0,0,.5C686.2,379.4,684.6,378.1,684.5,379.7Z"/><path class="i" d="M608.3,666.6c-2-1.4-5.3.6-5.6,2.7-.5,3.3,3.7,4.7,6.1,3C610.9,670.9,611.2,667.4,608.3,666.6Z"/><path class="i" d="M100,878.1c-2.7-2-7.2.8-7.7,3.7-.7,4.4,5.1,6.4,8.4,4.1C103.6,884,104,879.3,100,878.1Z"/><path class="i" d="M597.5,671.4c-2.6-.4-3.2,3.7-.2,3.4a1.75,1.75,0,0,0,.4-3.4"/><path class="f" d="M560.8,656.8c-2-1.4-5.3.6-5.6,2.7-.5,3.3,3.7,4.7,6.1,3C563.4,661.1,563.7,657.7,560.8,656.8Z"/><path class="j" d="M100.6,620.5c-2.6-.4-3.2,3.7-.2,3.4a1.75,1.75,0,0,0,.4-3.4"/><path class="j" d="M55.1,602.9c-2.6-.4-3.2,3.7-.2,3.4a1.75,1.75,0,0,0,.4-3.4"/><path class="j" d="M639.8,763.9c-1.6-2.7-4.6-1.3-6.2.6-2.4,2.9-1.8,6.1-.1,9.1s.8,6.8,2.8,9.8c3.8,6,11.2,1.5,12-4.3.8-5.5-1.9-6.4-5.3-9.1C640.8,768.3,641.6,764.6,639.8,763.9Z"/><path class="i" d="M642,761.7c-1.6-2.7-4.6-1.3-6.2.6-2.4,2.9-1.8,6.1-.1,9.1s.8,6.8,2.8,9.8c3.8,6,11.2,1.5,12-4.3.8-5.5-1.9-6.4-5.3-9.1C643,766.1,643.8,762.4,642,761.7Z"/><path class="p" d="M569.3,825.8c-2.6-2.8-6.3,3.1-3.2,5.1,4.6,2.9,3.8-3.5,2.8-5.5"/><path class="i" d="M119,869.7c-2.6-.4-3.2,3.7-.2,3.4a1.75,1.75,0,0,0,.4-3.4"/><path class="i" d="M51.6,832.6a22.62,22.62,0,0,0-12.3-1.3c-4.4.8-7,3.4-12.1,3.5s-7.2-3-12,.2-1.7,9.3,2.5,12c8.5,5.4,9.2.2,15.6-.9,4.4-.8,8.1.9,12.6.3,6-.8,10.8-4.3,10.3-8.5C55.9,835.6,54.1,833.8,51.6,832.6Z"/><path class="j" d="M51.6,829.9a22.62,22.62,0,0,0-12.3-1.3c-4.4.8-7,3.4-12.1,3.5-5.3.1-7.3-3.1-12.1.1s-1.7,9.3,2.5,12c8.5,5.4,9.2.2,15.6-.9,4.4-.8,8.1.9,12.6.3,6-.8,10.8-4.3,10.3-8.5C55.9,832.9,54.1,831.1,51.6,829.9Z"/><polygon class="q" points="91.58 61.32 83.38 68.23 73.49 72.3 62.83 73.6 52.32 71.15 43.21 65.43 36.01 57.42 32.08 47.42 30.99 36.74 33.39 26.24 39.17 17.2 47.21 10.15 57.03 5.83 67.73 5.15 78.19 7.42 87.25 13.11 94.4 21.07 98.57 30.95 99.31 41.63 97.18 52.13 91.58 61.32"/><polygon class="r" points="91.41 61.18 83.51 68.46 73.51 72.37 62.84 73.38 52.47 70.79 43.08 65.58 36.03 57.41 31.94 47.45 30.98 36.74 33.45 26.27 39.22 17.24 47.23 10.18 57.07 5.99 67.73 5.13 78.19 7.42 87.42 12.91 94.28 21.14 98.5 30.97 99.64 41.65 96.95 52.04 91.41 61.18"/><polygon class="s" points="91.41 61.18 83.51 68.46 73.51 72.37 62.84 73.38 52.47 70.79 43.08 65.58 36.03 57.41 31.94 47.45 30.98 36.74 33.45 26.27 39.22 17.24 47.23 10.18 57.07 5.99 67.73 5.13 78.19 7.42 87.42 12.91 94.28 21.14 98.5 30.97 99.64 41.65 96.95 52.04 91.41 61.18"/><polygon class="t" points="584.53 202.02 583.41 206.99 568.36 208.55 569.48 203.59 584.53 202.02"/><path class="q" d="M594.05,217.57c-1.63-1.92-2.06-2.13-4.67-1.95-4.48.3-9,.63-13.45.89s-8.69.82-13,1.42-9.17.5-13.37,1.61l-.12,0c-.39-1.56.17-2.31,1.24-2.64,1.58-.49,8.58-1.31,16.3-2.06l-.28,1.23,15-1.34.27-1.16c4-.27,7-.44,8.13-.38,3.14-.7,6,3,7.45,5.89.74,1.48-.67,3.51-1,4.07C597.19,221.94,595.2,218.9,594.05,217.57Z"/><path class="u" d="M575.28,197.55l49.59-5.11L632,164l8.35-33.2-50.25,5.17-52.68,5.45-8.25,32.89L522,203.06Zm-5.8,6L514,209.31l20.7-68.24L648.31,124.5,630,197.34,584.53,202l.41-1.83-15,1.33Z"/><path class="q" d="M594.05,217.57c1.15,1.33,3.14,4.37,2.46,5.62-1.12,1.85-9,1.85-11.7,2.1-25.85,2.39-30,2.93-32.07.11a18.94,18.94,0,0,1-3.34-5.82l.12,0c4.2-1.11,9-1,13.37-1.61s8.68-1.15,13-1.42,9-.59,13.45-.89C592,215.44,592.42,215.65,594.05,217.57Z"/><polygon class="t" points="516.38 213.91 514 209.31 569.48 203.59 568.36 208.55 516.38 213.91"/><polygon class="u" points="534.7 141.06 514 209.31 532.34 136.47 648.32 124.5 534.7 141.06"/><path class="q" d="M581.65,214.77l-15,1.34.28-1.23c5.15-.49,10.61-1,15-1.27Z"/><path class="q" d="M581.92,213.61c-4.37.3-9.83.78-15,1.27l1.42-6.33,15-1.56Z"/><polygon class="u" points="584.53 202.02 569.48 203.59 569.95 201.52 584.94 200.19 584.53 202.02"/><polygon class="t" points="650.68 129.09 632.36 201.94 583.41 206.99 584.53 202.02 629.98 197.34 648.32 124.5 650.68 129.09"/><polygon class="v" points="640.37 130.76 632.02 163.96 631.05 163.72 582.21 168.87 590.13 136.09 590.12 135.93 640.37 130.76"/><polygon class="w" points="640.37 130.76 632.02 163.96 631.05 163.72 582.21 168.87 590.13 136.09 590.12 135.93 640.37 130.76"/><polygon class="u" points="632.02 163.96 624.87 192.44 575.28 197.54 582.21 168.87 631.05 163.72 632.02 163.96"/><polygon class="u" points="590.12 135.93 590.13 136.09 582.21 168.87 529.64 174.4 529.19 174.27 537.44 141.38 590.12 135.93"/><polygon class="x" points="582.21 168.87 575.28 197.54 521.95 203.06 529.19 174.27 529.64 174.4 582.21 168.87"/><line class="s" x1="583.41" y1="206.99" x2="581.92" y2="213.61"/><line class="s" x1="566.94" y1="214.88" x2="568.36" y2="208.55"/><polyline class="s" points="648.32 124.5 650.68 129.09 632.36 201.94 583.41 206.99 568.36 208.55 516.38 213.91 514 209.31"/><polygon class="s" points="648.32 124.5 629.98 197.34 584.53 202.02 569.48 203.59 514 209.31 532.34 136.47 648.32 124.5"/><path class="s" d="M590.05,213.23c-1.11-.06-4.17.11-8.13.38-4.37.3-9.83.78-15,1.27-7.72.75-14.72,1.57-16.3,2.06-1.07.33-1.63,1.08-1.24,2.64a18.94,18.94,0,0,0,3.34,5.82c2.09,2.82,6.22,2.28,32.07-.11,2.69-.25,10.58-.25,11.7-2.1.32-.56,1.73-2.59,1-4.07-1.47-2.92-4.31-6.59-7.45-5.89"/><path class="s" d="M549.52,219.54c4.2-1.11,9-1,13.37-1.61s8.68-1.15,13-1.42,9-.59,13.45-.89c2.61-.18,3,0,4.67,1.95,1.15,1.33,3.14,4.37,2.46,5.62"/><polygon class="s" points="632.02 163.96 624.87 192.44 575.28 197.54 521.95 203.06 529.19 174.27 537.44 141.38 590.12 135.93 640.37 130.76 632.02 163.96"/><polyline class="s" points="590.13 136.09 582.21 168.87 575.28 197.54 575.21 197.86"/><polyline class="s" points="529.64 174.4 582.21 168.87 631.05 163.72"/></svg>