<svg xmlns="http://www.w3.org/2000/svg" width="74" height="417" viewBox="0 0 74 417"><defs><style>.a{fill:#ea6094;}.b{fill:none;stroke:#ea6094;stroke-miterlimit:10;}</style></defs><path class="a" d="M72.7,100.5H49.6V99.3H72.7Zm-14.2,1.6a30.35,30.35,0,0,1-8,3.5,7.64,7.64,0,0,0-.9-.9,31.57,31.57,0,0,0,7.6-3.3Zm1.9-17.3H50.3V83.6H60.4V81.1h1.3v2.5H72v1.2H61.7V87h7.5V97.5H53.6V87h6.9V84.8ZM67.9,88H54.8v2.1H67.9Zm0,3.1H54.8v2.2H67.9Zm0,3.2H54.8v2.2H67.9Zm-3.2,7.1a59.13,59.13,0,0,1,8,3.3l-1,.9a68.85,68.85,0,0,0-7.8-3.4Z"/><path class="a" d="M57.4,132.3c-2.8,1-5.7,2-7.9,2.8l-.3-1.3c1-.3,2.3-.8,3.7-1.2v-7.9H49.7v-1.2h3.2v-6.6H49.4v-1.2h7.8v1.2H54v6.6h2.9v1.2H54v7.5c1-.3,2.1-.7,3.1-1.1Zm15.8,3.6v1.2h-17v-1.2h8.4v-4.3H58.3v-1.2h6.3v-3.7H58.7V115H71.8v11.7h-6v3.7h6.5v1.2H65.8v4.3ZM59.9,120.1h4.8V116H59.9Zm0,5.4h4.8v-4.2H59.9Zm10.8-9.4H65.8v4.1h4.9Zm0,5.2H65.8v4.2h4.9Z"/><path class="a" d="M62,164.8c.1-1.1.1-3.2.1-4.6-2.6,1.4-4.6,2.9-4.6,4.9,0,2.4,2.4,2.6,5.1,2.6a54.33,54.33,0,0,0,6.7-.5l-.1,1.4c-2,.2-4.7.4-6.8.4-3.4,0-6.3-.7-6.3-3.8,0-2.9,2.9-4.8,5.9-6.4a2.21,2.21,0,0,0-2.5-2,6.7,6.7,0,0,0-4.6,2,32.32,32.32,0,0,0-2.3,2.6l-1.1-.9a26.17,26.17,0,0,0,5.9-8.4H55.9c-1.1,0-2.7,0-4.1-.1v-1.3a33.11,33.11,0,0,0,4.2.3h1.9a10.86,10.86,0,0,0,.7-3.4l1.4.1c-.2.8-.4,2-.8,3.2a69.44,69.44,0,0,0,8.1-.8v1.3a76.92,76.92,0,0,1-8.5.7,18.19,18.19,0,0,1-2.8,4.8,6.89,6.89,0,0,1,3.9-1.2,3,3,0,0,1,3.3,2.6c2-1,3.8-1.8,5.3-2.5.6-.3,1.1-.5,1.7-.8l.5,1.3c-.5.2-1.2.4-1.8.7-1.6.6-3.7,1.5-5.8,2.5,0,1.5.1,3.9.1,5.2H62Z"/><path class="a" d="M51.9,193.7a23.77,23.77,0,0,1-2,6.8,4.67,4.67,0,0,0-1-.5,22.65,22.65,0,0,0,1.9-6.5Zm2.8-2.2v11.4H53.5V191.5c-1.6.1-3.1.2-4.3.3l-.1-1.2,1.6-.1c.7-.8,1.3-1.9,2-2.9a21.63,21.63,0,0,0-3.6-3.9l.7-.8a6.47,6.47,0,0,1,.9.8,42,42,0,0,0,2.6-5.2l1.1.5a45.15,45.15,0,0,1-3,5.4c.7.8,1.4,1.5,1.9,2.2,1.1-1.8,2.1-3.6,2.9-5.1l1.1.5a83.18,83.18,0,0,1-5.4,8.6c1.4-.1,3-.1,4.7-.2a22.89,22.89,0,0,0-1.4-2.7l1-.4a23.89,23.89,0,0,1,2.6,5.4l-1,.5a7,7,0,0,0-.6-1.7Zm2.3,1.9a17.93,17.93,0,0,1,1.7,4.9l-1,.4a24.64,24.64,0,0,0-1.7-5Zm13.3-2.3c-.1,3.6-.2,7.1-.3,9.7h3V202H57.9v-1.2h3.5c.3-2.6.7-6.1,1-9.7H59v-1.2h3.5c.3-3,.5-6,.7-8.7H59.5V180h11c0,2.9-.1,6.4-.1,9.9H73v1.2Zm-1.6,9.7c.2-2.6.3-6.1.4-9.7H63.7c-.3,3.6-.7,7.2-1,9.7Zm-4.2-19.6c-.2,2.6-.4,5.7-.7,8.7h5.4c.1-3,.1-6,.1-8.7Z"/><path class="a" d="M60.1,233.6c0,.8-.2,1.2-.8,1.4a14.39,14.39,0,0,1-3.6.2c-.1-.3-.3-.8-.4-1.1a16,16,0,0,0,3.2,0c.4,0,.5-.1.5-.5v-5.4H52.1a16.71,16.71,0,0,1-2,7.1,3.33,3.33,0,0,0-1-.6c1.8-2.9,2-6.9,2-9.9V219a6.42,6.42,0,0,1-1,1.3,8.74,8.74,0,0,0-1-.8,20.81,20.81,0,0,0,4.2-8.7l1.2.3a17.23,17.23,0,0,1-.7,2.1h3.5l.2-.1.8.5a20.44,20.44,0,0,1-1.8,4H60v16Zm-6.6-19.4q-.75,1.8-1.5,3.3h3.5a25.21,25.21,0,0,0,1.5-3.3Zm-1.3,10.5a18.48,18.48,0,0,1-.1,2.3h3v-3.7H52.2Zm0-2.5h2.9v-3.6H52.2Zm3.9,0H59v-3.6H56.1ZM59,227v-3.7H56.1V227Zm7.3-13.7c-.6,3.2-2,6-5.2,7.5a3.45,3.45,0,0,0-.8-.9c3-1.3,4.2-3.9,4.7-6.6H61.1v-1.2H72.3v.6c-.2,4.6-.5,6.3-1,6.9a1.43,1.43,0,0,1-1.3.5,13.34,13.34,0,0,1-2.7-.1,3.54,3.54,0,0,0-.3-1.1c1.2.1,2.3.1,2.6.1s.6,0,.8-.2c.4-.4.6-1.8.8-5.5Zm6.8,16.4H67.8v5.4H66.6v-5.4H60.7v-1.2h5.9v-3.8H63.3a21,21,0,0,1-1.5,3,3.88,3.88,0,0,0-1.1-.6,16.59,16.59,0,0,0,2.6-6.2l1.2.2a23.35,23.35,0,0,1-.7,2.5h2.9v-3h1.2v3h4.9v1.2H67.9v3.8h5.3v1.1Z"/><path class="a" d="M70.3,252.9a34.57,34.57,0,0,1-4.5,1.2c.8,1.8,1.7,3.7,2.4,5l-.7.9c-1.2-.2-3-.5-4.6-.6l.1-1.1a31.15,31.15,0,0,0,3.5.4c-.5-1.1-1.3-2.7-2-4.3a60.88,60.88,0,0,1-11.4.3l-.1-1.3a49.07,49.07,0,0,0,10.9-.1c-.5-1.1-.9-2.1-1.2-2.8-.2-.4-.3-.8-.5-1.2a54,54,0,0,1-9,0l-.1-1.3a42.09,42.09,0,0,0,8.6.2c-.2-.5-.4-.9-.5-1.2a11.88,11.88,0,0,0-.8-1.6l1.5-.4c.3.9.7,2,1.1,3a31.94,31.94,0,0,0,5.1-1.2l.3,1.3a29.29,29.29,0,0,1-4.9,1.2l.4,1a27.39,27.39,0,0,0,1.3,2.9,38.92,38.92,0,0,0,4.8-1.3Zm-14.7,5.8a9.44,9.44,0,0,0-.6,2.7c0,2.2,1.8,3.5,5.6,3.5a29.78,29.78,0,0,0,6-.6v1.4a37,37,0,0,1-5.9.5c-4.4,0-6.9-1.6-6.9-4.6a10,10,0,0,1,.6-3.1Z"/><path class="a" d="M71.5,283a36.14,36.14,0,0,0-5.8-5.9l1.1-1a46.93,46.93,0,0,1,5.9,5.9Z"/><path class="a" d="M5.5,188.4c-.4,3.5-1.3,7.9-3.3,10.4l-1.1-.7c1.9-2.4,2.7-6.6,3.1-10Zm4.2-2.6v14c0,1.2.4,1.5,1.9,1.5h5.6c1.7,0,2-1.1,2.2-6a2.73,2.73,0,0,0,1.2.6c-.2,5.1-.7,6.6-3.4,6.6H11.6c-2.4,0-3.1-.6-3.1-2.7V185.9H9.7Zm-.3-7.3a46.47,46.47,0,0,1,9.2,4.4l-.8,1.1a42.84,42.84,0,0,0-9.1-4.5Zm11.3,8.8a31,31,0,0,1,5.1,10.1l-1.2.6a31.21,31.21,0,0,0-4.9-10.1Z"/><path class="a" d="M9.7,229.5c-2.8,1-5.7,2-7.9,2.8L1.5,231c1-.3,2.3-.8,3.7-1.2v-7.9H2v-1.2H5.2V214H1.7v-1.2H9.5V214H6.4v6.6H9.3v1.2H6.4v7.5c1-.3,2.1-.7,3.1-1.1Zm15.8,3.6v1.2H8.5v-1.2h8.4v-4.3H10.6v-1.2h6.3v-3.7H11V212.2H24.1v11.7h-6v3.7h6.5v1.2H18.1v4.3ZM12.2,217.3H17v-4.1H12.2Zm0,5.4H17v-4.2H12.2ZM23,213.3H18.1v4.1H23Zm0,5.2H18.1v4.2H23Z"/><path class="a" d="M14.3,262c.1-1.1.1-3.2.1-4.6-2.6,1.4-4.6,2.9-4.6,4.9,0,2.4,2.4,2.6,5.1,2.6a54.33,54.33,0,0,0,6.7-.5l-.1,1.4c-2,.2-4.7.4-6.8.4-3.4,0-6.3-.7-6.3-3.8,0-2.9,2.9-4.8,5.9-6.4a2.21,2.21,0,0,0-2.5-2,6.7,6.7,0,0,0-4.6,2,32.32,32.32,0,0,0-2.3,2.6l-1.1-.9a26.17,26.17,0,0,0,5.9-8.4H8.2c-1.1,0-2.7,0-4.1-.1v-1.3a33.11,33.11,0,0,0,4.2.3h1.9a10.86,10.86,0,0,0,.7-3.4l1.4.1c-.2.8-.4,2-.8,3.2a69.44,69.44,0,0,0,8.1-.8v1.3a76.92,76.92,0,0,1-8.5.7,18.19,18.19,0,0,1-2.8,4.8,6.89,6.89,0,0,1,3.9-1.2,3,3,0,0,1,3.3,2.6c2-1,3.8-1.8,5.3-2.5.6-.3,1.1-.5,1.7-.8l.5,1.3c-.5.2-1.2.4-1.8.7-1.6.6-3.7,1.5-5.8,2.5,0,1.5.1,3.9.1,5.2H14.3Z"/><path class="a" d="M6.3,289.4v9c0,.9-.2,1.2-.8,1.5a20.37,20.37,0,0,1-3,.1,5.64,5.64,0,0,0-.4-1.2H4.7c.3,0,.5-.1.5-.5v-8.5c-1.3.5-2.5.9-3.5,1.2l-.4-1.3c1-.3,2.4-.8,3.9-1.3v-6H1.5v-1.2H5.1v-5.6H6.3v5.6H9.4v1.2H6.3V288l2.9-1,.2,1.2Zm12.6,1.2a16.75,16.75,0,0,0,6.8,6.9,8.12,8.12,0,0,0-.9,1,20.68,20.68,0,0,1-7-7.6v9H16.6v-9a16.53,16.53,0,0,1-7.4,7.6,3.92,3.92,0,0,0-.8-1,15.72,15.72,0,0,0,7.2-7H9.8v-1.2h6.9v-3.1h1.2v3.1H25v1.2H18.9Zm-3.1-11.2c-.3,4.2-1.4,6.4-5.4,7.6a2,2,0,0,0-.7-.9c3.7-1,4.7-2.9,4.9-6.6h1.2Zm-4.3,2.2H10.3v-4.4H24.8v4.4H23.6v-3.2H11.5Zm8.4-2.2v5.3c0,.5.1.6.9.6h2.6c.7,0,.8-.3.8-2.6a3.7,3.7,0,0,0,1.1.5c-.1,2.6-.5,3.2-1.8,3.2H20.6c-1.5,0-1.9-.3-1.9-1.8v-5.3h1.2Z"/><path class="a" d="M23,331c.8,0,1-.5,1-4.1a13.39,13.39,0,0,0,1.2.6c-.1,3.9-.5,4.8-2.1,4.8H20.2c-1.6,0-2.1-.4-2.1-2v-6.9H12.4c-.4,3.2-2.3,6.8-9.9,9.1a4.06,4.06,0,0,0-.9-1c7.1-2.1,9-5.3,9.4-8.1H3.3v-1.2h7.9v-3.6h1.3v3.5h6.9v8.1c0,.6.2.8,1,.8ZM10.9,311.8c-.6,4.6-2.3,7.1-8.1,8.4a3.38,3.38,0,0,0-.7-1.1c5.4-1.1,6.9-3.3,7.4-7.4H3.7v3.2H2.5v-4.5H12.8v-2.6h1.3v2.6H24.6v4.3H23.3v-3H16.9v5.4c0,.6.2.7,1.2.7h4c.8,0,.9-.2,1-2.1a4.33,4.33,0,0,0,1.2.5c-.2,2.3-.5,2.8-2,2.8H18.2c-1.9,0-2.4-.3-2.4-1.9v-5.4H10.9Z"/><path class="a" d="M16.9,345.7H24V347c-1.4-.1-3.5-.1-7.1-.1H16c0,1.6,0,3.3.1,4.5a6.08,6.08,0,0,1,.7,3.2c0,3.6-1.5,7.2-7.2,9l-.9-1.3c3.8-.9,5.9-2.8,6.5-5.5a3.47,3.47,0,0,1-2.6,1.3c-2.2,0-3.9-1.5-3.9-4.2a4.13,4.13,0,0,1,6.1-3.8v-3.2c-3.8,0-8.4.2-11.5.5V346c2.7-.1,7.5-.2,11.5-.3a15.57,15.57,0,0,0-.1-2.4c0-.4-.1-1-.1-1.3h1.6c0,.2-.1,1-.1,1.3v2.3h.8Zm-1.5,7.5a2.51,2.51,0,0,0-2.6-2.4,3,3,0,0,0-2.9,3.1,2.65,2.65,0,0,0,2.8,2.9C14.4,356.9,15.4,355.5,15.4,353.2Z"/><path class="a" d="M19.1,376.8a12.49,12.49,0,0,0-1.2.9c-1.2.9-4.7,4.3-6.8,6.2a10.58,10.58,0,0,1,3.8-.7c4.2,0,7.1,2.5,7.1,5.8,0,4.3-3.9,6.8-8.8,6.8-3.4,0-4.9-1.6-4.9-3.4a3.29,3.29,0,0,1,3.5-3.1c3.1,0,4.7,2.2,5.1,4.6a5,5,0,0,0,3.7-4.9c0-2.7-2.5-4.6-5.9-4.6-4.1,0-6.5,1.9-9.9,5.3l-1-1c2.2-2,5.5-4.9,7-6.2s4.6-4.2,5.9-5.4c-1.4.1-6.9.4-8.1.4-.5,0-1,.1-1.5.1L7,376.1a8.64,8.64,0,0,0,1.5.1c1.3,0,7.2-.2,8.5-.4a4.07,4.07,0,0,0,1-.2Zm-3.4,17.5c-.3-2.2-1.6-3.8-3.8-3.8a2.07,2.07,0,0,0-2.3,1.8c0,1.5,1.5,2.2,3.6,2.2A10.14,10.14,0,0,0,15.7,394.3Z"/><path class="a" d="M25.2,409.7a3.8,3.8,0,1,1-7.6,0,3.8,3.8,0,1,1,7.6,0Zm-1,0a2.8,2.8,0,1,0-2.8,2.9A2.82,2.82,0,0,0,24.2,409.7Z"/><line class="b" x1="60.5" y1="1" x2="60.5" y2="70"/></svg>