<svg xmlns="http://www.w3.org/2000/svg" width="116" height="584" viewBox="0 0 116 584"><defs><style>.a{fill:#00a7db;}</style></defs><path class="a" d="M82.4,18.3c-.6,5.8-2.2,12.9-5.3,17l-1.8-1.1c3-3.9,4.5-10.7,5.1-16.3Zm6.9-4.2V36.9c0,1.9.6,2.4,3.1,2.4h9.1c2.8,0,3.2-1.8,3.5-9.8a6.64,6.64,0,0,0,2,1.1c-.4,8.3-1.1,10.7-5.5,10.7H92.3c-3.9,0-5.1-.9-5.1-4.4V14.1ZM88.9,2.3a76.9,76.9,0,0,1,14.9,7.1l-1.2,1.8A66.73,66.73,0,0,0,87.7,3.9Zm18.3,14.4c3.9,5.1,7.2,11.9,8.3,16.5l-2,.9c-1-4.6-4.4-11.5-8.1-16.5Z"/><path class="a" d="M89.2,83.2c-4.5,1.6-9.3,3.3-12.8,4.5l-.6-2.2c1.7-.5,3.8-1.2,6.1-2V70.7H76.7v-2h5.2V57.9H76.3v-2H89v2H83.8V68.6h4.7v2H83.8V82.8c1.6-.5,3.4-1.1,5-1.7ZM115,89.1v2H87.3v-2H101V82H90.8V80H101V74H91.4V54.8h21.4V74H103v6h10.5v2H103v7.1ZM93.4,63.4h7.8V56.8H93.4Zm0,8.6h7.8V65.2H93.4Zm17.5-15.3H103v6.6h7.9Zm0,8.5H103V72h7.9Z"/><path class="a" d="M87.1,103.7c-.7,2.2-1.6,4.8-2.3,6.6h7.4v28.2H80v3.6H78.1V110.3h4.7a64.44,64.44,0,0,0,2-7.2Zm3.1,8.5H80v10.5H90.2Zm0,24.3V124.7H80v11.8Zm22.9-25c-.7,20.4-1.3,27.1-3,29.2a3.75,3.75,0,0,1-3,1.4c-1.3.1-3.8,0-6.1-.1a5.22,5.22,0,0,0-.7-2.1c2.8.2,5.3.3,6.3.3s1.4-.1,1.8-.7c1.4-1.6,2.1-8.4,2.8-27.2h-12a39.32,39.32,0,0,1-4.2,8.2,9.43,9.43,0,0,0-1.8-1.1c3-4,5.2-10.1,6.5-16.4l2,.5c-.5,2.3-1.2,4.7-1.9,6.9h13.3Zm-8.3,19.7a80.41,80.41,0,0,0-6.9-10.3l1.7-1a81.07,81.07,0,0,1,7,10.1Z"/><path class="a" d="M85.9,154.7a77.94,77.94,0,0,1-3.1,8.5v30.7H80.9V167.3a55.69,55.69,0,0,1-4.7,7.4,10,10,0,0,0-1.2-1.9c3.8-4.6,7-11.5,9.1-18.6Zm6.8,30.1c.9,0,1-1.1,1.1-6.4a6.08,6.08,0,0,0,1.8.9c-.1,5.8-.6,7.5-2.8,7.5H89.5c-2.2,0-2.7-.7-2.7-3.3V158.4h1.9v11.8a55.6,55.6,0,0,0,5.4-5.6l1.4,1.5a56.43,56.43,0,0,1-6.8,6.3v11.2c0,1.2.2,1.4,1.1,1.4h2.9Zm9.6,3.2a26.47,26.47,0,0,1-9.2,5.9,9.6,9.6,0,0,0-1.4-1.5c3.2-1.2,6.9-3.5,8.6-5.5Zm0-25.5c.5-1.3,1.1-3,1.5-4.4H94.4v-1.9h20.4v1.9H106c-.6,1.5-1.2,3.1-1.7,4.4h8.9v23.1H96.4V162.5Zm9,1.8H98.4v5.3h12.9Zm0,7H98.4v5.3h12.9Zm0,7.1H98.4v5.3h12.9Zm-2.9,8.6a47.59,47.59,0,0,1,7,5.6l-1.6,1.2a46.36,46.36,0,0,0-6.9-5.6Z"/><path class="a" d="M112.4,241c0,1.8-.4,2.6-1.8,2.9s-4,.4-7.9.4a7.91,7.91,0,0,0-.8-2.3c3.4.1,6.4.1,7.3,0s1.1-.3,1.1-1.1V214.1H80.6v30.1h-2V212H90.3a63.71,63.71,0,0,0,3-7.9l2.4.5c-1,2.4-2.2,5.1-3.2,7.3h19.9Zm-23.5-5.8v3.2H87V221h16.6v14.2Zm0-12.3v10.3h12.8V222.9Z"/><path class="a" d="M96.7,285.7c.1-1.8.1-5.1.1-7.5-4.3,2.3-7.6,4.8-7.6,8.1,0,3.9,3.9,4.3,8.3,4.3a73.91,73.91,0,0,0,11-.9l-.1,2.3a99.93,99.93,0,0,1-11,.7c-5.5,0-10.3-1.1-10.3-6.1,0-4.7,4.7-7.7,9.6-10.4-.2-2.2-1.8-3.3-4.1-3.3a10.94,10.94,0,0,0-7.5,3.2,44.15,44.15,0,0,0-3.8,4.3l-1.8-1.5c5.9-6.1,8.4-10.8,9.7-13.8H86.8c-1.8,0-4.4,0-6.7-.2v-2.2a57.12,57.12,0,0,0,6.8.4H90a24.89,24.89,0,0,0,1.2-5.5l2.3.2a54.16,54.16,0,0,1-1.4,5.3,90.61,90.61,0,0,0,13.1-1.4v2.2a102.64,102.64,0,0,1-13.8,1.2,33.26,33.26,0,0,1-4.5,7.9,12,12,0,0,1,6.3-2c2.8,0,5,1.5,5.4,4.2,3.2-1.6,6.3-2.9,8.7-4,1-.5,1.8-.9,2.7-1.3l.9,2.2c-.9.3-2,.7-2.9,1.1-2.6,1-6,2.4-9.4,4.1,0,2.5.1,6.3.1,8.5h-2Z"/><path class="a" d="M90.3,307.3A43.89,43.89,0,0,1,77.1,325a7.09,7.09,0,0,0-1.8-1.6,38,38,0,0,0,12.9-16.7Zm18.1,15.3v1.1c-.7,13.8-1.4,18.8-2.9,20.4-.7.9-1.5,1.1-2.9,1.2s-4.1,0-6.9-.1a5.22,5.22,0,0,0-.7-2.1c3.1.2,5.9.3,6.9.3s1.5-.1,1.8-.5c1.2-1.2,2-5.9,2.6-18.2H93.6c-1.2,8.9-4,17.2-14.7,21.1a10.92,10.92,0,0,0-1.3-1.7c10.4-3.5,12.8-11.3,13.9-19.4H81.9v-2h26.5Zm-6.1-16c2.8,6.2,8.4,12.9,13,16.1a9.76,9.76,0,0,0-1.7,1.8c-4.7-3.6-10.2-10.7-13.2-17.1Z"/><path class="a" d="M90.1,381.9c-.8-1.4-3-4.5-4.6-6.7V396h-2V372.5c-1.8,5.8-4.3,11.7-6.8,15-.3-.5-.9-1.4-1.2-1.8,3-3.9,6.2-11.3,7.7-17.8H76.5v-2.1h7.1v-9.6h2v9.6h6.1v2.1H85.6v4.8c1.4,1.6,5.2,6.2,6.1,7.5Zm24.7-8.4H108v22.7h-2V373.5H97c-.1,6.8-1,15.7-5.8,22.4a7.31,7.31,0,0,0-1.6-1.4c4.8-6.7,5.3-15.5,5.3-22.3V360.1l1.9.6c5.1-1.1,10.7-2.5,13.9-4l1.8,1.6c-4,1.7-10.1,3.1-15.6,4.2v8.8h17.8v2.2Z"/><path class="a" d="M88,410.2a18.7,18.7,0,0,0-.3,3.4c-.2,4.9-.5,15.3-.5,22.3,0,4.9,3.2,6.6,7.4,6.6,8,0,12.2-4.5,15.2-8.8l1.5,1.9c-2.9,4-7.9,9.2-16.8,9.2-5.5,0-9.4-2.3-9.4-9s.4-17.2.4-22.1a11.61,11.61,0,0,0-.3-3.4H88Z"/><path class="a" d="M112.3,469.5a62.22,62.22,0,0,0-9.4-9.7l1.8-1.6a88.26,88.26,0,0,1,9.6,9.7Z"/><path class="a" d="M9.4,86.4a44.17,44.17,0,0,0-7.5-5.2l1.2-1.5a42.4,42.4,0,0,1,7.5,5ZM3.3,105.5a128.42,128.42,0,0,0,7.2-14.4l1.6,1.3c-2,4.6-4.8,10.4-7,14.4ZM5.2,68.1a33.3,33.3,0,0,1,7.3,5.1l-1.3,1.6A32.78,32.78,0,0,0,4,69.5ZM19.7,78.2a32.61,32.61,0,0,0-4.5-8.3l1.8-.8a34.88,34.88,0,0,1,4.7,8.2Zm18,26c0,1.5-.3,2.2-1.4,2.6s-3.1.4-6.4.4a9,9,0,0,0-.8-2.1,48.18,48.18,0,0,0,5.6,0c.7,0,.9-.3.9-.9V97.3H18.3v10.2h-2V80.2h9.9V67.5h2V80.2h9.5Zm-19.4-22v5.6H35.7V82.2ZM35.7,95.3V89.7H18.3v5.6Zm3.6-25.5a59.11,59.11,0,0,1-5.2,8.3l-1.7-.9a58.19,58.19,0,0,0,5-8.4Z"/><path class="a" d="M17.2,153.4a72.38,72.38,0,0,1-13.1,4.8,11.43,11.43,0,0,0-1.5-1.7c4.3-.9,9.5-2.3,12.7-4ZM8,137q-1.8.6-4.2,1.2a5.85,5.85,0,0,0-1-1.7c5.8-1.3,9-3,10.8-4.9h-7l-.3.7-2-.1a56.62,56.62,0,0,0,2.4-6.6h8.7v-2.9H4.7v-1.6H15.6v-2.8h2v2.8h7.6v-2.8h2v2.8H37v6.2H27.2v2.8H39.7v.9c-.4,2.6-.6,3.8-1.3,4.4a3.26,3.26,0,0,1-1.8.7H35.4v15.8H8Zm6.7-7.1a12.9,12.9,0,0,0,.8-2.8H8.2c-.3.9-.6,1.9-.9,2.8Zm18.5,7H10v3.3H33.2Zm0,4.8H10V145H33.2Zm0,4.9H10v3.3H33.2Zm-17.1-15a9.68,9.68,0,0,1-4,3.7H32.8c-.1-.4-.3-.9-.4-1.2,1.5.1,2.8.2,3.3.2s.9,0,1.1-.2.4-1,.7-2.4H27.2v3.4h-2v-3.4H16.1Zm9.1-4.5H17.5a8.68,8.68,0,0,1-.5,2.8h8.2Zm0-1.7v-2.9H17.6v2.9ZM27,152.6a115.89,115.89,0,0,1,13.1,4.1l-2,1.3a100,100,0,0,0-12.6-4.3Zm.2-30.1v2.9H35v-2.9Z"/><path class="a" d="M23.8,185.3a86.7,86.7,0,0,1-8.1,5.3H34.8v17.9H32.7v-1.4H13.8v1.5h-2V192.7c-2.8,1.5-5.7,2.8-8.6,4a17.91,17.91,0,0,0-1.4-1.8,89.22,89.22,0,0,0,18.7-9.6H2.5v-1.9H17.7v-6.6H6.3v-1.9H17.7v-6h2v6H31.1v1.6a58.81,58.81,0,0,0,5.2-6l1.7,1.1a65.85,65.85,0,0,1-11.7,11.9H40.2v1.9H23.8Zm8.9,7.2H13.8v5.2H32.7Zm0,12.6v-5.6H13.8v5.6Zm-9.6-21.8a83.24,83.24,0,0,0,7.7-6.6h-11v6.6Z"/><path class="a" d="M15.4,229.3a61.2,61.2,0,0,1-4.9,6.8v23.3h-2v-21a70.77,70.77,0,0,1-5.7,5.4c-.3-.4-1.1-1.3-1.5-1.7a52.37,52.37,0,0,0,12.2-13.4Zm-1.7-9.2A59.09,59.09,0,0,1,3.1,230.7,19.23,19.23,0,0,0,1.8,229a45.66,45.66,0,0,0,9.9-9.7Zm26.8,16.1H33.7v19.9c0,1.5-.4,2.3-1.6,2.6s-3.5.3-7.9.3a6.42,6.42,0,0,0-.8-2c3.4.1,6.3.1,7.1,0s1.1-.2,1.1-1V236.1H16.4v-2H40.6v2.1Zm-1.2-12.1h-21v-2h21Z"/><path class="a" d="M39.7,281.6c-.6,18.8-1,24.8-2.4,26.6a2.82,2.82,0,0,1-2.6,1.3,46.44,46.44,0,0,1-5.1-.1,4.66,4.66,0,0,0-.6-2c2.2.2,4.3.2,5.1.2s1.2-.1,1.5-.6c1.1-1.4,1.6-7.5,2.1-24.6H30.4c-.5,11.7-2.4,21.7-10.3,27.5a6.07,6.07,0,0,0-1.7-1.4,16.7,16.7,0,0,0,3.1-2.8c-6.9.9-14,1.8-19,2.4l-.3-2c2.6-.3,6-.6,9.6-1.1v-4.5H3.3v-1.8h8.5v-3.3H3.4V282.6h8.4v-3.4H2v-1.8h9.7v-3.7c-2.9.3-5.8.5-8.5.6a5.78,5.78,0,0,0-.6-1.7c6.3-.4,14.2-1.1,18.5-2.2l1.2,1.6a72.22,72.22,0,0,1-8.7,1.4v3.9h9.6v1.8H13.6v3.4h8.7v12.8H13.6v3.3h8.7v1.8H13.6v4.3c2.9-.3,6-.7,9-1.1v.5c4.1-5.5,5.3-13.2,5.8-21.9H22.7v-2h5.7c.1-3.3.1-6.6.1-10h2c0,3.4,0,6.8-.1,10h9.3ZM5.2,288.2h6.5v-3.8H5.2Zm6.5,5.6v-4H5.2v4Zm2-9.4v3.8h6.8v-3.8Zm6.8,5.5H13.7v4h6.8Z"/><path class="a" d="M22.7,351.2c.1-1.8.1-5.1.1-7.5-4.3,2.3-7.6,4.8-7.6,8.1,0,3.9,3.9,4.3,8.3,4.3a73.91,73.91,0,0,0,11-.9l-.1,2.3a99.93,99.93,0,0,1-11,.7c-5.5,0-10.3-1.1-10.3-6.1,0-4.7,4.7-7.7,9.6-10.4-.2-2.2-1.8-3.3-4.1-3.3a10.94,10.94,0,0,0-7.5,3.2,44.15,44.15,0,0,0-3.8,4.3l-1.8-1.5c5.9-6.1,8.4-10.8,9.7-13.8H12.8c-1.8,0-4.4,0-6.7-.2v-2.2a57.12,57.12,0,0,0,6.8.4H16a24.89,24.89,0,0,0,1.2-5.5l2.3.2a54.16,54.16,0,0,1-1.4,5.3,90.61,90.61,0,0,0,13.1-1.4v2.2a102.64,102.64,0,0,1-13.8,1.2,33.26,33.26,0,0,1-4.5,7.9,12,12,0,0,1,6.3-2c2.8,0,5,1.5,5.4,4.2,3.2-1.6,6.3-2.9,8.7-4,1-.5,1.8-.9,2.7-1.3l.9,2.2c-.9.3-2,.7-2.9,1.1-2.6,1-6,2.4-9.4,4.1,0,2.5.1,6.3.1,8.5h-2Z"/><path class="a" d="M16.1,380.3H1.9v-1.9H16.1Zm-1.2,28.1H5.5v2.2H3.7V395.9H15v12.5ZM3.7,384.3H14.9v1.8H3.7Zm0,5.8H14.9v1.8H3.7Zm11.1-15.5H3.9v-1.8H14.8ZM5.5,397.8v8.8h7.6v-8.8Zm20.4-4.4c-.4,9.5-1.9,14.8-9.3,17.6a16.67,16.67,0,0,0-1.2-1.6c7-2.6,8.2-7.3,8.5-16.1h2Zm1.6-16H17.3v-1.9H27.5v-4.4h2v4.4H40.1v1.9H29.5v5h9.3v1.8H18.7v-1.8h8.8Zm-8.3,18.1H17.3v-7.3H40.2v7.3h-2V390h-19Zm18.7,12.9c1.1,0,1.2-.7,1.4-5.9a5.08,5.08,0,0,0,1.8.9c-.2,5.6-.7,7-3,7h-4c-2.4,0-3-.6-3-3.1V393.4H33v13.9c0,1,.2,1.1,1.3,1.1Z"/><path class="a" d="M38.6,450.3a50,50,0,0,0-4.8-3.6c-1.6,6-4.8,10.2-11,13.4L21,458.5a18.34,18.34,0,0,0,11-12.8,31,31,0,0,0-13-4c-1.6,3.7-3.8,9.2-5.5,11.5-1.4,1.9-2.7,2.6-4.5,2.6a4.9,4.9,0,0,1-4.8-5.2c0-6.1,5.5-10.8,13.5-10.9,1.7-3.7,3.4-7.8,4.9-10.8l-9.4.5a25.82,25.82,0,0,0-2.9.3l-.1-2.5c1,.1,2,.1,2.9.1,2,0,8.1-.4,9.7-.5a3.31,3.31,0,0,0,1.5-.4l1.5,1.2a12.49,12.49,0,0,0-.9,1.2c-1.2,1.9-3.2,6.7-5,10.8a33.26,33.26,0,0,1,12.5,3.8,30.52,30.52,0,0,0,.5-4.1c0-.9.1-2.2.1-3.5l2.2.2a65.58,65.58,0,0,1-.9,8.4,44.29,44.29,0,0,1,5.3,3.5Zm-21.8-8.7c-6.7.4-10.5,4.5-10.5,8.7,0,2.1,1.3,3.3,2.8,3.3a3,3,0,0,0,2.7-1.5C13.4,449.9,15.2,445.2,16.8,441.6Z"/><path class="a" d="M19.7,509.5c0,1.3-.3,2-1.3,2.3s-2.6.3-5.8.3a13.36,13.36,0,0,0-.7-1.8,41.73,41.73,0,0,0,5.2,0c.6-.1.9-.2.9-.8v-8.8H6.6c-.3,4-1.2,8.4-3.2,11.6a6.24,6.24,0,0,0-1.6-1C4.7,506.6,5,500,5,495.1v-9.4a17.68,17.68,0,0,1-1.6,2.2,7.63,7.63,0,0,0-1.7-1.3c3.1-3.5,5.5-8.8,6.9-14.3l2,.5c-.3,1.1-.7,2.3-1.1,3.4h5.8l.3-.1,1.2.9a34.72,34.72,0,0,1-2.9,6.5h5.7v26ZM8.9,478c-.8,1.9-1.6,3.7-2.5,5.4H12a29.46,29.46,0,0,0,2.4-5.4ZM6.8,495.1c0,1.1,0,2.4-.1,3.7h4.8v-6.1H6.8Zm0-4.1h4.7v-5.8H6.8Zm6.4,0h4.7v-5.8H13.2Zm4.7,7.8v-6.1H13.2v6.1Zm11.8-22.3c-1,5.3-3.2,9.8-8.5,12.2a8.64,8.64,0,0,0-1.3-1.4c4.9-2.2,6.9-6.3,7.7-10.8H21.2v-1.9H39.5v1c-.4,7.5-.8,10.2-1.7,11.2a2.53,2.53,0,0,1-2.2.9,37,37,0,0,1-4.5-.1,4.76,4.76,0,0,0-.5-1.8c1.9.1,3.7.2,4.3.2s1,0,1.3-.4c.6-.7.9-2.9,1.3-9H29.7Zm11.1,26.6H32.1v8.8h-2v-8.8H20.5v-2h9.6V495H24.7a23.93,23.93,0,0,1-2.5,4.8c-.4-.3-1.3-.7-1.8-1a25.52,25.52,0,0,0,4.2-10.2l2,.4c-.3,1.4-.7,2.7-1.1,4h4.7v-4.8h2V493h7.9v1.9H32.2v6.2h8.7v2Z"/><path class="a" d="M29,527.2c-.6.5-1.8,1.6-2.3,2.1-2.9,2.8-9.1,7.8-12.3,10.6-2.7,2.3-2.7,3,.2,5.5,4.1,3.4,11.6,9.9,15.6,14l-1.9,1.8c-.6-.8-1.6-1.8-2.3-2.6-2.2-2.5-9.5-8.8-13.4-12s-3.2-4.9.2-7.9c3-2.6,9.6-7.9,12.5-10.9a19.93,19.93,0,0,0,1.9-2.4Z"/><path class="a" d="M40.5,575.7a6.17,6.17,0,0,1-6.1,6.3,6.25,6.25,0,0,1-6.2-6.3,6.34,6.34,0,0,1,6.2-6.4A6.26,6.26,0,0,1,40.5,575.7Zm-1.5,0a4.55,4.55,0,1,0-4.6,4.7A4.67,4.67,0,0,0,39,575.7Z"/></svg>