<svg xmlns="http://www.w3.org/2000/svg" xmlns:xlink="http://www.w3.org/1999/xlink" width="1536" height="748" viewBox="0 0 1536 748"><defs><style>.a,.ac,.i,.z{fill:none;}.b,.j,.t{fill:#e61673;}.c,.v{fill:#fffde0;}.d,.g{fill:#fdf4f7;}.e,.l{fill:#fff;}.f,.s{fill:#fffbcc;}.ac,.g,.i,.j,.k,.l,.m,.n,.o,.p,.q,.r,.s,.t,.u,.v,.w,.z{stroke:#e61673;stroke-linecap:round;stroke-linejoin:round;}.g,.i,.l,.m,.p,.q,.r,.s,.t,.u,.v,.w{stroke-width:1.14px;}.h{fill:#e84383;}.j,.k{stroke-width:1.2px;}.k,.p{fill:#fff799;}.m,.x{fill:#f9c270;}.n,.o,.r{fill:#84ccc9;}.n{stroke-width:1.14px;}.o{stroke-width:1.14px;}.q{fill:#f3a1c1;}.u{fill:#f8c7da;}.w{fill:#fad9e6;}.y{fill:url(#a);}.z{stroke-width:0.8px;}.aa{fill:#fdedd4;}.ab{fill:url(#b);}.ac{stroke-width:1.26px;}</style><pattern id="a" width="127.56" height="127.56" patternTransform="matrix(0.17, 0, 0, 0.17, -717.01, 35.68)" patternUnits="userSpaceOnUse" viewBox="0 0 127.56 127.56"><rect class="a" width="127.56" height="127.56"/><circle class="b" cx="109.79" cy="115.38" r="5.52"/><circle class="b" cx="130.18" cy="117.56" r="5.52"/><circle class="b" cx="109.79" cy="97.22" r="5.52"/><circle class="b" cx="131.15" cy="95.03" r="5.52"/><circle class="b" cx="67.27" cy="115.38" r="5.52"/><circle class="b" cx="87.66" cy="117.56" r="5.52"/><circle class="b" cx="67.27" cy="97.22" r="5.52"/><circle class="b" cx="88.63" cy="95.03" r="5.52"/><circle class="b" cx="24.75" cy="115.38" r="5.52"/><circle class="b" cx="45.14" cy="117.56" r="5.52"/><circle class="b" cx="24.75" cy="97.22" r="5.52"/><circle class="b" cx="46.11" cy="95.03" r="5.52"/><circle class="b" cx="2.62" cy="117.56" r="5.52"/><circle class="b" cx="3.59" cy="95.03" r="5.52"/><circle class="b" cx="95.62" cy="72.86" r="5.52"/><circle class="b" cx="116.01" cy="75.04" r="5.52"/><circle class="b" cx="95.62" cy="54.7" r="5.52"/><circle class="b" cx="116.98" cy="52.51" r="5.52"/><circle class="b" cx="53.1" cy="72.86" r="5.52"/><circle class="b" cx="73.49" cy="75.04" r="5.52"/><circle class="b" cx="53.1" cy="54.7" r="5.52"/><circle class="b" cx="74.46" cy="52.51" r="5.52"/><circle class="b" cx="10.58" cy="72.86" r="5.52"/><circle class="b" cx="30.97" cy="75.04" r="5.52"/><circle class="b" cx="10.58" cy="54.7" r="5.52"/><circle class="b" cx="31.94" cy="52.51" r="5.52"/><circle class="b" cx="123.96" cy="30.34" r="5.52"/><circle class="b" cx="123.96" cy="12.18" r="5.52"/><circle class="b" cx="81.45" cy="30.34" r="5.52"/><circle class="b" cx="101.84" cy="32.52" r="5.52"/><circle class="b" cx="81.45" cy="12.18" r="5.52"/><circle class="b" cx="102.81" cy="9.99" r="5.52"/><circle class="b" cx="38.93" cy="30.34" r="5.52"/><circle class="b" cx="59.32" cy="32.52" r="5.52"/><circle class="b" cx="38.93" cy="12.18" r="5.52"/><circle class="b" cx="60.29" cy="9.99" r="5.52"/><circle class="b" cx="-3.59" cy="30.34" r="5.52"/><circle class="b" cx="16.8" cy="32.52" r="5.52"/><circle class="b" cx="-3.59" cy="12.18" r="5.52"/><circle class="b" cx="17.77" cy="9.99" r="5.52"/></pattern><pattern id="b" width="127.56" height="127.56" patternTransform="translate(-782.98 59.21) rotate(1.01) scale(0.19)" patternUnits="userSpaceOnUse" viewBox="0 0 127.56 127.56"><rect class="a" width="127.56" height="127.56"/><circle class="b" cx="109.79" cy="115.38" r="5.52"/><circle class="b" cx="130.18" cy="117.56" r="5.52"/><circle class="b" cx="109.79" cy="97.22" r="5.52"/><circle class="b" cx="131.15" cy="95.03" r="5.52"/><circle class="b" cx="67.27" cy="115.38" r="5.52"/><circle class="b" cx="87.66" cy="117.56" r="5.52"/><circle class="b" cx="67.27" cy="97.22" r="5.52"/><circle class="b" cx="88.63" cy="95.03" r="5.52"/><circle class="b" cx="24.75" cy="115.38" r="5.52"/><circle class="b" cx="45.14" cy="117.56" r="5.52"/><circle class="b" cx="24.75" cy="97.22" r="5.52"/><circle class="b" cx="46.11" cy="95.03" r="5.52"/><circle class="b" cx="2.62" cy="117.56" r="5.52"/><circle class="b" cx="3.59" cy="95.03" r="5.52"/><circle class="b" cx="95.62" cy="72.86" r="5.52"/><circle class="b" cx="116.01" cy="75.04" r="5.52"/><circle class="b" cx="95.62" cy="54.7" r="5.52"/><circle class="b" cx="116.98" cy="52.51" r="5.52"/><circle class="b" cx="53.1" cy="72.86" r="5.52"/><circle class="b" cx="73.49" cy="75.04" r="5.52"/><circle class="b" cx="53.1" cy="54.7" r="5.52"/><circle class="b" cx="74.46" cy="52.51" r="5.52"/><circle class="b" cx="10.58" cy="72.86" r="5.52"/><circle class="b" cx="30.97" cy="75.04" r="5.52"/><circle class="b" cx="10.58" cy="54.7" r="5.52"/><circle class="b" cx="31.94" cy="52.51" r="5.52"/><circle class="b" cx="123.96" cy="30.34" r="5.52"/><circle class="b" cx="123.96" cy="12.18" r="5.52"/><circle class="b" cx="81.45" cy="30.34" r="5.52"/><circle class="b" cx="101.84" cy="32.52" r="5.52"/><circle class="b" cx="81.45" cy="12.18" r="5.52"/><circle class="b" cx="102.81" cy="9.99" r="5.52"/><circle class="b" cx="38.93" cy="30.34" r="5.52"/><circle class="b" cx="59.32" cy="32.52" r="5.52"/><circle class="b" cx="38.93" cy="12.18" r="5.52"/><circle class="b" cx="60.29" cy="9.99" r="5.52"/><circle class="b" cx="-3.59" cy="30.34" r="5.52"/><circle class="b" cx="16.8" cy="32.52" r="5.52"/><circle class="b" cx="-3.59" cy="12.18" r="5.52"/><circle class="b" cx="17.77" cy="9.99" r="5.52"/></pattern></defs><path class="c" d="M976.3,453.3c.5,1.5-1.8,7.2-4.8,13.2a50.83,50.83,0,0,0,3.9-14.2A1.79,1.79,0,0,1,976.3,453.3Z"/><path class="d" d="M975.5,475.2c2.1.5-.7,3.7-1.4,4.4a38.54,38.54,0,0,1-5.6,4.9,6.2,6.2,0,0,1-1-4.5c1.3-.9,2.6-1.9,4-2.7C972.2,476.9,974.6,475,975.5,475.2Z"/><path class="e" d="M975.5,443.3a44,44,0,0,1-.1,8.9c-.9-.6-2.5-.8-4.5-1.8a19.48,19.48,0,0,0,.9-5.8c-.1-1.4-.8-2.4-.6-4,.1-.9,1.6-7.7,3.5-6,.4.4.3,3.3.4,4A38.89,38.89,0,0,1,975.5,443.3Z"/><path class="e" d="M971.5,466.6a62.14,62.14,0,0,1-4.2,8.1Z"/><path class="f" d="M965.2,450.5c.1,4.6-1.6,8.6-2.2,10.4a108.69,108.69,0,0,0,.5-11.4C964.4,449.7,965.2,450,965.2,450.5Z"/><path class="e" d="M963.5,448.7v.8a20.4,20.4,0,0,0-4.9-.5c.4-2.7,1-5.5.5-8.2-.3-1.6-1.2-2.8-1.3-4.3a18,18,0,0,1,1-4c.6-1.6,1.8-1.7,2.3-.1.5,1.3.4,3.2.7,4.6A73.26,73.26,0,0,1,963.5,448.7Z"/><path class="e" d="M963,461v.1C962.9,461.2,962.9,461.1,963,461Z"/><path class="f" d="M949.8,494.2l-3,1.7.2-.2A9.59,9.59,0,0,1,949.8,494.2Z"/><path class="e" d="M947,495.6l-.2.2-.7.4Z"/><path class="e" d="M946.1,496.2l.7-.4-4.8,5.3A12.55,12.55,0,0,1,946.1,496.2Z"/><path class="d" d="M944.4,462.6c2.4,0,1,6.6.8,7.5a2.66,2.66,0,0,1-3.1.4h0C942.4,468.9,943,462.6,944.4,462.6Z"/><path class="c" d="M970.9,450.5a7.46,7.46,0,0,1-1.2-.7c-.8-.5-6.1,10.6-6.7,11.3-.1.1-.1,0,0-.1v-.1h0a108.69,108.69,0,0,0,.5-11.4,20.4,20.4,0,0,0-4.9-.5,4.87,4.87,0,0,0-1.5.2c-.9.3-3.1,9.9-3.9,12.5-.6,1.9-2.1,5.5-2.8,7.3a56.64,56.64,0,0,1-4.4,8.9,11.17,11.17,0,0,1-1.4,1.8c-1.4,1.8-3.7,4.3-5.6,6.3l-.9.9a.75.75,0,0,1,.9,0c.5.4.1,1.6.2,2.2.2,1,1.1,1.4,1.6,2.2a3.34,3.34,0,0,1,.2,2.6,5.44,5.44,0,0,0,0,1.8,7.44,7.44,0,0,1,1.2,2.9l4.1-2.3.9-.6a11.61,11.61,0,0,1,2.7-1.4h0l.9-.3a45.5,45.5,0,0,0,10.7-4.6,62.23,62.23,0,0,0,7.1-4.7h0a6.2,6.2,0,0,1-1-4.5,52.75,52.75,0,0,1-6.4,4c.6-.7,1.2-1.5,1.8-2.2a82.88,82.88,0,0,0,4.3-7.3c1.3-2.5,2.8-5.3,4.2-8.1v-.1a50.83,50.83,0,0,0,3.9-14.2C974.4,451.7,972.8,451.5,970.9,450.5Z"/><path class="c" d="M945.2,470.2a39.8,39.8,0,0,0-.8,5.9c-.1,1.1.1,2.4.1,3.6-1.4,1.8-3.7,4.3-5.6,6.3l-2.8,1.7h-.2c.9-3,1.4-6,2.7-8.9a55.31,55.31,0,0,0,3.4-7.9v-.3h0A3,3,0,0,0,945.2,470.2Z"/><path class="g" d="M942.1,499.1a8.7,8.7,0,0,1-1.8,5.3,5.87,5.87,0,0,1-5.6,2.7,7.32,7.32,0,0,1-2.5-.8c-2.1-1.1-3-4-3.8-6.4a4.6,4.6,0,0,1,3.6-1.4c.9.1,1.2.4,2.1-.1.5-.3,1-.9,1.6-.8,1.1.1,1.5,1.4,2.4,1.5a2,2,0,0,0,1.7-.7,8.79,8.79,0,0,1,.6,1l1.6-.9A1.27,1.27,0,0,1,942.1,499.1Z"/><path class="h" d="M940.8,495.6a10.8,10.8,0,0,1,0-1.8,3.38,3.38,0,0,0-.2-2.6c-.5-.8-1.4-1.3-1.6-2.2-.1-.5.3-1.8-.2-2.2a.75.75,0,0,0-.9,0,4.7,4.7,0,0,0-.9.6,1.64,1.64,0,0,1-.9.2l-.3.2v-.2h-.2c-1.6,0-2.4.8-3.1,2.2-.5,1-.7,2.2-1.6,2.9s-2.1.9-2.9,1.7c-2,2-1.5,4.1.2,5.7.1-.1.2-.2.2-.3a4.6,4.6,0,0,1,3.6-1.4c.9.1,1.2.4,2.1-.1.5-.3,1-.9,1.6-.8,1.1.1,1.5,1.4,2.4,1.5a2,2,0,0,0,1.7-.7,8.79,8.79,0,0,1,.6,1l1.6-.9A6.8,6.8,0,0,0,940.8,495.6Z"/><path class="h" d="M936.2,487.7l-.3.2v-.2Z"/><path class="i" d="M935.9,487.7c.9-3,1.4-6,2.7-8.9a55.31,55.31,0,0,0,3.4-7.9v-.3c.3-1.7,1-7.9,2.4-7.9,2.4,0,1,6.6.8,7.5a39.8,39.8,0,0,0-.8,5.9c-.1,1.1.1,2.4.1,3.6"/><path class="g" d="M975.4,452.3a44.21,44.21,0,0,0,.1-8.9,34.21,34.21,0,0,0-.4-4.6c-.1-.7,0-3.6-.4-4-1.9-1.7-3.4,5-3.5,6-.1,1.5.5,2.5.6,4a14.4,14.4,0,0,1-.9,5.8"/><path class="i" d="M967.3,474.6a62.14,62.14,0,0,0,4.2-8.1"/><path class="i" d="M963,461v.1"/><path class="g" d="M958.6,448.9c.4-2.7,1-5.5.5-8.2-.3-1.6-1.2-2.8-1.3-4.3a18,18,0,0,1,1-4c.6-1.6,1.8-1.7,2.3-.1.5,1.3.4,3.2.7,4.6a111.82,111.82,0,0,1,1.5,11.8v.8"/><path class="i" d="M961.1,484.1c.6-.7,1.2-1.5,1.8-2.2a82.88,82.88,0,0,0,4.3-7.3c1.3-2.5,2.8-5.3,4.2-8.1v-.1c2.9-6,5.3-11.7,4.8-13.2a1.79,1.79,0,0,0-.9-1c-.9-.6-2.5-.8-4.5-1.8a7.46,7.46,0,0,1-1.2-.7c-.8-.5-6.1,10.6-6.7,11.3-.1.1-.1,0,0-.1v-.1h0c.6-1.8,2.3-5.8,2.2-10.4,0-.4-.7-.8-1.7-1a20.4,20.4,0,0,0-4.9-.5,4.87,4.87,0,0,0-1.5.2c-.9.3-3.1,9.9-3.9,12.5-.6,1.9-2.1,5.5-2.8,7.3a56.64,56.64,0,0,1-4.4,8.9,11.17,11.17,0,0,1-1.4,1.8c-1.4,1.8-3.7,4.3-5.6,6.3l-.9.9"/><path class="i" d="M968.5,484.6a44.65,44.65,0,0,0,5.6-4.9c.7-.8,3.5-4,1.4-4.4-.9-.2-3.3,1.7-4,2.2-1.3.9-2.7,1.8-4,2.7a52.75,52.75,0,0,1-6.4,4,20.63,20.63,0,0,1-5.4,2"/><path class="i" d="M942,501.1a12.55,12.55,0,0,1,4.1-4.9l.9-.6a11.61,11.61,0,0,1,2.7-1.4l.9-.3a45.5,45.5,0,0,0,10.7-4.6,62.23,62.23,0,0,0,7.1-4.7"/><path class="i" d="M928.4,499.9c.7,2.2,1.4,5,3.5,6.2,2.5,1.4,6.6.7,8.3-1.6a8.7,8.7,0,0,0,1.8-5.3,1.27,1.27,0,0,0-.1-.6,8.13,8.13,0,0,0-1.2-2.9"/><path class="i" d="M928.4,499.9c-.1.1-.2.2-.2.3-1.7-1.6-2.2-3.7-.2-5.7.9-.8,2-1,2.9-1.7s1.1-1.9,1.6-2.9c.7-1.4,1.5-2.2,3.1-2.2h.4a1.64,1.64,0,0,0,.9-.2,4.7,4.7,0,0,0,.9-.6.75.75,0,0,1,.9,0c.5.4.1,1.6.2,2.2.2,1,1.1,1.4,1.6,2.2a3.34,3.34,0,0,1,.2,2.6,5.44,5.44,0,0,0,0,1.8v.7a3.41,3.41,0,0,1-1,2.1,1.9,1.9,0,0,1-1.7.7c-.9-.2-1.3-1.5-2.4-1.5-.6,0-1.1.5-1.6.8-.9.5-1.2.2-2.1.1A4,4,0,0,0,928.4,499.9Z"/><path class="i" d="M931.3,501.9c0,.1.1.1.1.2"/><path class="i" d="M934.3,501.4c0,.1.1.1.1.2"/><path class="i" d="M967.5,480.1a6.2,6.2,0,0,0,1,4.5h0"/><path class="i" d="M942.1,470.5c.6.5,1.8.6,3.1-.4"/><path class="j" d="M1035,705.4c-5.3-.2-13.7,5.4-8.1,12,3.7,4.4,11,2.7,13.6-2.4C1043.1,710.1,1038.8,705.6,1035,705.4Z"/><path class="k" d="M1035,704.2c-5.3-.1-13.7,4.6-8.1,10.4,3.7,3.8,11,2.3,13.6-2.1C1043.1,708.3,1038.8,704.3,1035,704.2Z"/><path class="k" d="M1042.3,727.7c-2.8-.1-7.1,2.4-4.2,5.4,1.9,2,5.7,1.2,7.1-1.1C1046.5,729.9,1044.3,727.8,1042.3,727.7Z"/><path class="l" d="M919.8,471.6c-3.5-1.7-6.4,4.3-2.4,4.9.9.2,3.4-1.5,3.5-2.5.1-1.4-1.2-1.6-1.8-2.5"/><path class="l" d="M925.3,462.9c-2.1-.9-3.8,2.3-1.6,2.8,1.7.4,2.8-2.9.5-3.1"/><path class="m" d="M465.2,147l-8,9.3,8.2,6.5,8-9.3C474.4,148.7,468.3,145.4,465.2,147Z"/><ellipse class="n" cx="461.01" cy="159.9" rx="3.3" ry="5.2" transform="translate(56.24 432.42) rotate(-53.08)"/><path class="m" d="M432.7,187.4l7.8,9.5,8.4-6.4-7.8-9.5C436.3,179.1,431.7,184.1,432.7,187.4Z"/><ellipse class="o" cx="444.92" cy="194.03" rx="5.3" ry="3.3" transform="translate(-29.45 296.89) rotate(-35.8)"/><path class="m" d="M484.8,262.5l7.8,9.5,8.4-6.4-7.8-9.5C488.4,254.2,483.8,259.2,484.8,262.5Z"/><ellipse class="o" cx="497" cy="269.11" rx="5.3" ry="3.3" transform="translate(-63.52 341.53) rotate(-35.8)"/><path class="p" d="M73.8,456.6c-1.4-1.6-4.8-1.8-5.8.4-1.3,2.9,2.7,5,5.1,4.7,3.1-.3,3.9-3.7.9-5.1"/><path class="p" d="M79.4,528.5c-1-1.1-3.3-1.3-4,.3-.9,2.1,1.8,3.5,3.5,3.3,2.1-.2,2.7-2.6.7-3.6"/><path class="p" d="M142.3,437.9c-1-1.1-3.3-1.3-4,.3-.9,2.1,1.8,3.5,3.5,3.3,2.1-.2,2.7-2.6.7-3.6"/><path class="q" d="M498.3,190.7c-.3,4.1,6.9,6.7,7.1,1.9.1-3.7-6-5.4-7.1-1.3"/><path class="q" d="M499,189.3c-.3,4.1,6.9,6.7,7.1,1.9.1-3.7-6-5.4-7.1-1.3"/><path class="q" d="M37.5,487.2c-10,6,15.2,15.7,16.6,5.2,1-7.4-13.2-8.5-17.1-5.3"/><path class="q" d="M38.6,485c-10,6,15.2,15.7,16.6,5.2,1-7.4-13.2-8.5-17.1-5.3"/><path class="r" d="M9,494.4c-1.9-2.1-6.4-2.4-7.7.5-1.7,3.9,3.6,6.6,6.7,6.2,4.1-.4,5.2-4.8,1.3-6.8"/><path class="r" d="M227.3,668.4c-1.4-1.6-4.8-1.8-5.8.4-1.3,3,2.7,5.1,5.1,4.8,3.1-.3,3.9-3.7,1-5.2"/><path class="s" d="M8.2,494.6c-3.8,4.6,8,7.9,5.9,1.2C13.5,493.7,9.2,491.3,8.2,494.6Z"/><path class="r" d="M599.6,485.4c-1.1-5.2-10.9-5.2-13-.8-.8,1.6.8,2.8-.1,4.1s-3.4.6-4.1,2.2c-1.6,3.7,3.4,5.1,5.9,4.4,1.4-.4,1.8-2,3.6-2.3,1.4-.2,2.9,1,4.6.7C599.4,492.9,603.1,487.9,599.6,485.4Z"/><path class="t" d="M430,542.2c-4.3-.1-11.1,4.4-6.6,9.8,3,3.6,8.9,2.2,11.1-1.9A5.45,5.45,0,0,0,430,542.2Z"/><path class="p" d="M430,541.2c-4.3-.1-11.1,3.8-6.6,8.4,3,3.1,8.9,1.9,11.1-1.7C436.6,544.5,433.1,541.3,430,541.2Z"/><path class="r" d="M506.6,519.7c3.6,1.2,5.4,6.5.5,8.3-2.3.9-5.6-.9-6.2-3.5-.7-3.4,3.9-6.2,6.7-4.2m-1.3,2.2a1.7,1.7,0,0,0-2.6,1.6,2,2,0,0,0,2.4,1.4c1.9-.7,1.2-2.7-.2-3.2"/><path class="q" d="M202.4,80.1c-1.7,4.4,8.8,1.2,6.7-2.5-1.5-2.6-6.4.6-6.8,2.6"/><path class="p" d="M201.3,79.3c-1.7,4.4,8.8,1.2,6.7-2.5-1.5-2.6-6.4.6-6.8,2.6"/><path class="p" d="M483,93.8c1.3-1.3,1.3-4.3-.6-5-2.6-1-4.2,2.6-3.9,4.6.4,2.7,3.4,3.2,4.5.6"/><path class="r" d="M497.2,42.1c-.5-1-1.8-1.5-2.3-2.5-.8-1.5.5-2.2.1-3.7-.6-2.2-3.2-1.6-4.7-.9-2.8,1.3-4.9,3.4-3.4,6.4-.2,2.2-1.9,4.8-1.6,7,.5,3.9,4,4,6.8,2.3C494.6,49.2,498.9,45.5,497.2,42.1Z"/><path class="m" d="M496.9,56.7c-6.2-4.5-9.6,10.9-1.2,7.8C498.3,63.5,501.1,57.7,496.9,56.7Z"/><path class="q" d="M484.9,75.5c-2.7-.1-4.1,4.8-1,4.7,2.4,0,3.3-4.2.6-4.7"/><path class="q" d="M495.9,92c-2.7-3.9-6.1,6.5-1.8,6.9,3,.2,3.2-5.5,1.8-7.1"/><path class="u" d="M1294.9,341.3c-1.4,2.5,3.6,2.9,5.2,3.3,3.4.8,9.1,1.3,12.4,2.4,1.4.5-.9,1.9-1.2,4.8-.2,2.3,1,4.7,3.1,5.2,5.8,1.3,5-6.8,2.8-10.1-1.1-1.6-2.3-1.6-4.2-2.1-1.7-.4-5.2-1-6.8-1.5C1304.1,342.6,1296.7,340.9,1294.9,341.3Z"/><path class="u" d="M1417.4,123.7c-2.5-1.6-3,3.5-3.5,5.1-1,3.3-1.8,9-3,12.2-.5,1.4-1.8-1-4.8-1.4-2.3-.3-4.8.7-5.3,2.9-1.6,5.7,6.6,5.3,9.9,3.3,1.7-1,1.7-2.2,2.3-4.1.5-1.7,1.2-5.2,1.8-6.7C1415.6,132.8,1417.8,125.6,1417.4,123.7Z"/><path class="u" d="M1260.7,193.3a13.82,13.82,0,0,0,2.7.8c1.2.2,2.4.3,3.5.6,3.4.8,9.1,1.3,12.4,2.4,1.4.5-.9,1.9-1.2,4.8-.2,2.3,1,4.7,3.1,5.2,5.8,1.3,5-6.8,2.8-10.1-1.1-1.6-2.3-1.6-4.2-2.1-1.7-.4-5.2-1-6.8-1.5a17.1,17.1,0,0,0-3-.9c-1.2-.2-2.4-.2-3.6-.4a6.77,6.77,0,0,0,5.5-1,14.26,14.26,0,0,1,3-2,7.43,7.43,0,0,1,2.6-.3c1.4,0,3,.2,3.7,1.4.4.9.1,2,.4,2.9a5.7,5.7,0,0,0-1.2-7.3,6.3,6.3,0,0,0-7.5-.1c-1.1.8-1.9,2-2.9,2.8a7.65,7.65,0,0,1-3.9,1.1c-1.2.1-2.4.2-3.6.4a7.11,7.11,0,0,0-2,.4c-.2.1-.5.2-.6.4C1259,192,1259.6,192.8,1260.7,193.3Z"/><path class="u" d="M1319.2,288.8c-2.5-1.5-3,3.5-3.4,5.1-.9,3.3-1.6,9-2.8,12.3-.5,1.4-1.8-1-4.8-1.3-2.3-.3-4.7.8-5.3,3-1.5,5.7,6.7,5.2,10,3.1,1.6-1,1.7-2.3,2.2-4.1s1.1-5.2,1.7-6.8C1317.5,297.9,1319.5,290.6,1319.2,288.8Z"/><path class="u" d="M1289.2,354c-1.1-1.4-10.3-13.3-12-14.1-.4.2-5.6,4.3-8,6.2-.7.5,2,4.7,2.5,5.5s-1,1-1.7,1.5a6.9,6.9,0,0,0-2.5,3.4,1.67,1.67,0,0,0,1.6,2.1,8.48,8.48,0,0,0,6.9-4.4,1.51,1.51,0,0,0-.2-1.8c-1-1.1-4.4-4.9-3.8-5.4,1.3-1.1,3.9-2.5,5.2-3.9.7,1,1.7,2,2.1,2.6,2.1,2.7,6.2,6.7,8.1,9.6.8,1.2-1.9.9-3.9,3-1.6,1.7-2.2,4.3-.8,6,3.7,4.6,8.1-2.2,8.5-6.1C1291.3,356.4,1290.4,355.6,1289.2,354Z"/><path class="u" d="M1334.7,195.4c.3-1.7,3.1-16.5,2.6-18.3-.4-.2-6.9-1.4-10-1.9-.9-.2-2.2,4.6-2.5,5.6s-1.4-.1-2.3-.3a6.65,6.65,0,0,0-4.2.4,1.61,1.61,0,0,0-.5,2.6,8.61,8.61,0,0,0,7.8,2.3,1.38,1.38,0,0,0,1.2-1.3c.2-1.4.7-6.5,1.5-6.4,1.7.2,4.4,1.2,6.4,1.3a29.83,29.83,0,0,0-.5,3.3c-.6,3.4-.9,9.1-1.8,12.5-.4,1.4-1.9-.8-4.9-.9-2.3-.1-4.7,1.2-5,3.4-1,5.8,7.1,4.6,10.2,2.3C1334.4,198.5,1334.3,197.3,1334.7,195.4Z"/><path class="i" d="M983.2,153c2.9-5.6,5.6-12.4,8.1-15.6.8-1,4.8-1.6,7.6-2,4-.5,7.9-1.1,11.9-1.6"/><path class="v" d="M981.4,156.8c-5.9-7.8-13.3-17.2-15.3-22.9-1.9-5.4,6.7-6.2,10.9-6.9,5.1-.8,8.3-.5,12.5,2.8,5,4,12.4,11.5,15.6,16.5"/><path class="v" d="M983.1,157.9c1.1.3,16.3-2.9,19.4-4.9,2.2-1.5,2.6-1.8,5.1-6.1,3.6-6.1,6.2-10.3,6.3-13,0-.8-1.5-3-2.6-3a77.38,77.38,0,0,0-11.3,1c-8.2,1.2-10.6,2.2-11.3,3.4a116.61,116.61,0,0,0-8.1,15.3"/><path class="v" d="M980.6,155.7c2.9,3.4,11.9,18.5,13,20.2,1.5-.3,2.7-1.1,2.2-2.1-2.1-3.7-7.1-14-8.6-17.1"/><path class="v" d="M998.5,153.4c3.2,5,7.1,11.5,10.3,16l2.3-1.1c-2.3-5.4-5.8-11.5-8.1-16.5"/><path class="v" d="M992.8,139.7c2.8,4.4,10.1,13.2,13.2,17.1.9,1.1,2.7-.7,2.7-.7-1.3-2.7-5.7-8.6-7.4-11.4-1.5-2.5-3.3-4.9-4.9-7.2"/><path class="v" d="M1008.8,136.5c1.6,2.4,10.9,14,13.2,15.7l2.2-1.1c-.1-1.6-10-14.1-11.4-16.1"/><path class="r" d="M1050.1,541.2c-.6.8-.5,1.9-1.1,2.8-.9,1.3-2,1-3,2.1-1.5,1.6,0,2.8,1.2,3.2,2.2.9,4.8.9,6.6-1.7,1.9-1.2,4.7-1.7,6.4-3.1,3-2.5,1.6-4.6-.9-5.3C1057,538.6,1052.2,538.3,1050.1,541.2Z"/><path class="p" d="M1059.5,529.7c-.1,4.7,8.8,1,4.3-2.1C1062.4,526.6,1058.5,527.2,1059.5,529.7Z"/><path class="q" d="M1046.5,559.4c1.5,2.2,6.3.7,4.4-1.9-1.4-2-5.3-.3-4.2,2.2"/><path class="p" d="M1062.4,499.6c-1.7,4.4,8.8,1.2,6.7-2.5-1.5-2.6-6.4.6-6.8,2.6"/><path class="q" d="M1004.4,501.5c-.8-7.9-13.6-5.9-12.7,1,1.1,8.4,12.4,4.2,12.7-1"/><path class="w" d="M981.1,567.8c-.8-7.9-13.6-5.9-12.7,1,1,8.4,12.4,4.1,12.7-1"/><path class="r" d="M90,512.8c3.1-1.3,5.4-4.9,8.5-6.3,4.8-2.1,6,1.3,10.3.2,6.5-1.6,6.6-8.7,5.5-12.9-2-7.7-6.6-13.5-16-9.4-6.3-.5-12.6-5.1-18.8-4.4-11.3,1.3-13.8,10.9-10.8,18.6C71.5,505.6,79.3,517.4,90,512.8Z"/><path class="s" d="M94.3,507.9c3.1-1.3,5.4-4.9,8.5-6.3,4.8-2.1,6,1.3,10.3.2,6.5-1.6,6.6-8.7,5.5-12.9-2-7.7-6.6-13.5-16-9.4-6.3-.5-12.6-5.1-18.8-4.4C72.5,476.5,70,486,73,493.7,75.7,500.7,83.6,512.5,94.3,507.9Z"/><path class="r" d="M638.5,447.1c-3.6-1.7-2.4,8.3,1.1,7.1,1.1,4.3,3.2,1.8,5.6,3.1.8.4,1,2.1,1.6,2.3,1.4.5,3.5-.6,4.4-.3,1.5.5,1.4,2,3,2.7,2.2.9,3.5-.7,5.5-.4,1.2.2.7,2.1,2,2.2a7.87,7.87,0,0,0,4.7-1.4c1.4,3.3,4.6,1.1,7,.4,2.2,4.5,12.4,1.5,15.3,0,.9-.5,6.5-1.9,5.5-4.7-.5-1.3-2.6-1.3-3.4-.9-.9-1.4-.8-1.5-2.3-1.2-.2-1.8-1.2-2.9-2.9-1.7,0-2.2-2.1-4.1-3.5-2.3a4.94,4.94,0,0,0-1.9-3.5c-3.2-2.2-2.3.9-4,1-1,0-1.8-.9-2.3-.9s-1.5-.7-2.3-.7c-1.2,0-2.3,1.7-3.2,1.6-1.2-.1-1.2-1.8-2.1-1.8-1.5-.1-4,.7-5.4.4-1-.3-2.2-2.3-2.8-2.4-1.4-.1-2.7,1-4.2,1.1-.7-4.1-3.7-.2-5.5,0-1.5.2-2.1-1.9-4.3-.8-.7-1.9-2.2-2.5-3.6-.8C639,444.5,638.9,444.9,638.5,447.1Z"/><polygon class="x" points="1521.06 97.37 1513.17 102.64 1503.85 104.59 1494.56 102.5 1486.61 97.27 1481.45 89.27 1479.73 79.95 1481.38 70.56 1486.76 62.64 1494.8 57.49 1504.14 55.57 1513.45 57.66 1521.4 62.91 1526.68 70.86 1528.29 80.24 1526.42 89.55 1521.06 97.37"/><polygon class="y" points="1521.06 97.37 1513.24 102.81 1503.85 104.41 1494.52 102.57 1486.74 97.14 1481.26 89.35 1479.48 79.94 1481.47 70.6 1486.8 62.68 1494.78 57.46 1504.14 55.85 1513.44 57.69 1521.31 63 1526.5 70.93 1528.38 80.24 1526.53 89.59 1521.06 97.37"/><polygon class="z" points="1521.06 97.37 1513.24 102.81 1503.85 104.41 1494.52 102.57 1486.74 97.14 1481.26 89.35 1479.48 79.94 1481.47 70.6 1486.8 62.68 1494.78 57.46 1504.14 55.85 1513.44 57.69 1521.31 63 1526.5 70.93 1528.38 80.24 1526.53 89.59 1521.06 97.37"/><polygon class="aa" points="1284.12 48.16 1271.78 55.02 1257.66 55.08 1245.59 47.77 1238.51 35.6 1238.56 21.47 1245.87 9.43 1258.04 2.45 1272.12 2.41 1284.16 9.67 1291.21 21.82 1290.99 35.86 1284.12 48.16"/><polygon class="ab" points="1283.97 48 1271.75 54.91 1257.7 54.93 1245.51 47.86 1238.7 35.55 1238.73 21.52 1245.71 9.27 1258.05 2.48 1272.12 2.41 1284.2 9.63 1291.08 21.86 1291.29 35.95 1283.97 48"/><polygon class="ac" points="1283.97 48 1271.75 54.91 1257.7 54.93 1245.51 47.86 1238.7 35.55 1238.73 21.52 1245.71 9.27 1258.05 2.48 1272.12 2.41 1284.2 9.63 1291.08 21.86 1291.29 35.95 1283.97 48"/></svg>