<svg xmlns="http://www.w3.org/2000/svg" width="116" height="492" viewBox="0 0 116 492"><defs><style>.a{fill:#ea6094;}</style></defs><path class="a" d="M114.2,33.6H76.5V31.7h37.7ZM91.1,36.2a57,57,0,0,1-13,5.8,19.2,19.2,0,0,0-1.4-1.5c4.3-1.2,9.6-3.4,12.4-5.4ZM94.2,8H77.8V6H94.3V2h2.1V6H113V8H96.3v3.5h12.2V28.7H83V11.5H94.2Zm12.2,5.2H85.1v3.4h21.4V13.2Zm0,5H85.1v3.6h21.4V18.2Zm0,5.2H85.1V27h21.4V23.4Zm-5.2,11.7a128.63,128.63,0,0,1,13.1,5.4L112.6,42a113.24,113.24,0,0,0-12.8-5.5Z"/><path class="a" d="M89.2,85.4c-4.5,1.6-9.3,3.3-12.8,4.5l-.6-2.2c1.7-.5,3.8-1.2,6.1-2V72.9H76.7v-2h5.2V60.1H76.3v-2H89v2H83.8V70.8h4.7v2H83.8V85c1.6-.5,3.4-1.1,5-1.7ZM115,91.3v2H87.3v-2H101V84.2H90.8v-2H101v-6H91.4V57h21.4V76.1H103v6h10.5v2H103v7.1h12ZM93.4,65.6h7.8V59H93.4Zm0,8.6h7.8V67.4H93.4Zm17.5-15.3H103v6.6h7.9Zm0,8.5H103v6.8h7.9Z"/><path class="a" d="M96.7,138.3c.1-1.8.1-5.1.1-7.5-4.3,2.3-7.6,4.8-7.6,8.1,0,3.9,3.9,4.3,8.3,4.3a73.91,73.91,0,0,0,11-.9l-.1,2.3a99.93,99.93,0,0,1-11,.7c-5.5,0-10.3-1.1-10.3-6.1,0-4.7,4.7-7.7,9.6-10.4-.2-2.2-1.8-3.3-4.1-3.3a10.94,10.94,0,0,0-7.5,3.2,44.15,44.15,0,0,0-3.8,4.3l-1.8-1.5c5.9-6.1,8.4-10.8,9.7-13.8H86.8c-1.8,0-4.4,0-6.7-.2v-2.2a57.12,57.12,0,0,0,6.8.4H90a24.89,24.89,0,0,0,1.2-5.5l2.3.2a54.16,54.16,0,0,1-1.4,5.3,90.61,90.61,0,0,0,13.1-1.4v2.2a102.64,102.64,0,0,1-13.8,1.2,33.26,33.26,0,0,1-4.5,7.9,12,12,0,0,1,6.3-2c2.8,0,5,1.5,5.4,4.2,3.2-1.6,6.3-2.9,8.7-4,1-.5,1.8-.9,2.7-1.3l.9,2.2c-.9.3-2,.7-2.9,1.1-2.6,1-6,2.4-9.4,4.1,0,2.5.1,6.3.1,8.5h-2Z"/><path class="a" d="M80.4,185.5a43.07,43.07,0,0,1-3.2,11.1,9.15,9.15,0,0,0-1.7-.9,33.17,33.17,0,0,0,3.1-10.6Zm4.4-3.7v18.7H83V182c-2.6.2-5,.3-7,.4l-.2-2,2.7-.1a49.86,49.86,0,0,0,3.3-4.8,38.17,38.17,0,0,0-5.8-6.4l1.2-1.3a16.61,16.61,0,0,1,1.4,1.3,66.91,66.91,0,0,0,4.2-8.5l1.8.8a61.1,61.1,0,0,1-4.9,8.8,31.59,31.59,0,0,1,3.1,3.6c1.8-2.9,3.4-5.9,4.7-8.4l1.8.8a126.58,126.58,0,0,1-8.8,14c2.3-.1,5-.2,7.6-.4-.7-1.5-1.5-3-2.3-4.4l1.6-.7a40.71,40.71,0,0,1,4.2,8.8l-1.7.8c-.2-.8-.6-1.8-.9-2.8Zm3.8,3.1a32,32,0,0,1,2.8,8l-1.7.6a38.42,38.42,0,0,0-2.7-8.1Zm21.7-3.7c-.1,5.9-.3,11.6-.6,15.8h5v2H90v-2h5.8c.6-4.2,1.2-9.9,1.7-15.8H92v-2h5.7c.4-4.9.8-9.9,1.1-14.1H92.7v-2h18c0,4.8-.1,10.5-.2,16.1h4.4v2ZM107.7,197c.3-4.3.5-9.9.6-15.8H99.5c-.6,5.9-1.1,11.7-1.6,15.8Zm-6.9-32c-.3,4.3-.7,9.2-1.1,14.1h8.7c.1-4.9.2-9.8.2-14.1Z"/><path class="a" d="M93.7,250.4c0,1.3-.3,2-1.3,2.3s-2.6.3-5.8.3a13.36,13.36,0,0,0-.7-1.8,41.73,41.73,0,0,0,5.2,0c.6-.1.9-.2.9-.8v-8.8H80.6c-.3,4-1.2,8.4-3.2,11.6a6.24,6.24,0,0,0-1.6-1c2.9-4.7,3.2-11.3,3.2-16.2v-9.4a17.68,17.68,0,0,1-1.6,2.2,7.63,7.63,0,0,0-1.7-1.3c3.1-3.5,5.5-8.8,6.9-14.3l2,.5c-.3,1.1-.7,2.3-1.1,3.4h5.8l.3-.1,1.2.9a34.72,34.72,0,0,1-2.9,6.5h5.7v26ZM82.9,218.9c-.8,1.9-1.6,3.7-2.5,5.4H86a29.46,29.46,0,0,0,2.4-5.4ZM80.8,236c0,1.1,0,2.4-.1,3.7h4.8v-6.1H80.8Zm0-4.1h4.7v-5.8H80.8Zm6.4,0h4.7v-5.8H87.2Zm4.7,7.9v-6.1H87.2v6.1Zm11.8-22.4c-1,5.3-3.2,9.8-8.5,12.2a8.64,8.64,0,0,0-1.3-1.4c4.9-2.2,6.9-6.3,7.7-10.8H95.2v-1.9h18.3v1c-.4,7.5-.8,10.2-1.7,11.2a2.53,2.53,0,0,1-2.2.9,37,37,0,0,1-4.5-.1,4.76,4.76,0,0,0-.5-1.8c1.9.1,3.7.2,4.3.2s1,0,1.3-.4c.6-.7.9-2.9,1.3-9h-7.8Zm11.1,26.7h-8.7v8.8h-2v-8.8H94.5v-2h9.6v-6.2H98.7a23.93,23.93,0,0,1-2.5,4.8c-.4-.3-1.3-.7-1.8-1a25.52,25.52,0,0,0,4.2-10.2l2,.4c-.3,1.4-.7,2.7-1.1,4h4.7v-4.8h2v4.8h7.9v1.9h-7.9V242h8.7v2.1Z"/><path class="a" d="M110.3,282a37.2,37.2,0,0,1-7.4,1.9c1.3,2.9,2.7,6,3.8,8.2l-1.1,1.4c-1.9-.3-4.9-.7-7.5-1.1l.2-1.8c2.3.3,4.4.6,5.8.7-.8-1.8-2-4.4-3.2-7.1a94.75,94.75,0,0,1-18.6.4l-.1-2.2a80.47,80.47,0,0,0,17.8-.2c-.8-1.8-1.5-3.4-2-4.5a16.67,16.67,0,0,1-.8-2,90,90,0,0,1-14.7,0l-.2-2.2a66.69,66.69,0,0,0,14,.3,19.47,19.47,0,0,0-.9-2,15.65,15.65,0,0,0-1.3-2.6l2.5-.6c.5,1.5,1.1,3.3,1.7,5a49.26,49.26,0,0,0,8.4-2l.4,2.1a64.93,64.93,0,0,1-8.1,1.9l.7,1.7c.4,1,1.2,2.7,2,4.8a37.8,37.8,0,0,0,7.8-2.2Zm-24,9.4a12.62,12.62,0,0,0-1,4.4c0,3.6,2.9,5.8,9,5.8a52.26,52.26,0,0,0,9.7-.9V303a59.2,59.2,0,0,1-9.6.8c-7.1,0-11.3-2.6-11.3-7.5a17.11,17.11,0,0,1,1-5.1Z"/><path class="a" d="M112.3,330.9a62.22,62.22,0,0,0-9.4-9.7l1.8-1.6a88.26,88.26,0,0,1,9.6,9.7Z"/><path class="a" d="M8.4,123.9c-.6,5.8-2.2,12.9-5.3,17l-1.8-1.1c3-3.9,4.5-10.7,5.1-16.3Zm6.9-4.2v22.8c0,1.9.6,2.4,3.1,2.4h9.1c2.8,0,3.2-1.8,3.5-9.8a6.64,6.64,0,0,0,2,1.1c-.4,8.3-1.1,10.7-5.5,10.7H18.3c-3.9,0-5.1-.9-5.1-4.4V119.8h2.1Zm-.4-11.8A76.9,76.9,0,0,1,29.8,115l-1.2,1.8a66.73,66.73,0,0,0-14.9-7.3Zm18.3,14.4c3.9,5.1,7.2,11.9,8.3,16.5l-2,.9c-1-4.6-4.4-11.5-8.1-16.5Z"/><path class="a" d="M15.2,191c-4.5,1.6-9.3,3.3-12.8,4.5l-.6-2.2c1.7-.5,3.8-1.2,6.1-2V178.4H2.7v-2H7.9V165.7H2.3v-2H15v2H9.9v10.7h4.7v2H9.9v12.2c1.6-.5,3.4-1.1,5-1.7ZM41,196.9v2H13.3v-2H27v-7.1H16.8v-2H27v-6H17.4V162.7H38.8v19.1H29v6H39.5v2H29.1v7.1ZM19.4,171.2h7.8v-6.6H19.4Zm0,8.6h7.8V173H19.4Zm17.5-15.3H29v6.6h7.9Zm0,8.5H29v6.8h7.9Z"/><path class="a" d="M22.7,243.9c.1-1.8.1-5.1.1-7.5-4.3,2.3-7.6,4.8-7.6,8.1,0,3.9,3.9,4.3,8.3,4.3a73.91,73.91,0,0,0,11-.9l-.1,2.3a99.93,99.93,0,0,1-11,.7c-5.5,0-10.3-1.1-10.3-6.1,0-4.7,4.7-7.7,9.6-10.4-.2-2.2-1.8-3.3-4.1-3.3a10.94,10.94,0,0,0-7.5,3.2,44.15,44.15,0,0,0-3.8,4.3l-1.8-1.5c5.9-6.1,8.4-10.8,9.7-13.8H12.8c-1.8,0-4.4,0-6.7-.2v-2.2a57.12,57.12,0,0,0,6.8.4H16a24.89,24.89,0,0,0,1.2-5.5l2.3.2a54.16,54.16,0,0,1-1.4,5.3,90.61,90.61,0,0,0,13.1-1.4v2.2a102.64,102.64,0,0,1-13.8,1.2,33.26,33.26,0,0,1-4.5,7.9,12,12,0,0,1,6.3-2c2.8,0,5,1.5,5.4,4.2,3.2-1.6,6.3-2.9,8.7-4,1-.5,1.8-.9,2.7-1.3l.9,2.2c-.9.3-2,.7-2.9,1.1-2.6,1-6,2.4-9.4,4.1,0,2.5.1,6.3.1,8.5h-2Z"/><path class="a" d="M9.8,288.5v14.6c0,1.4-.4,2-1.3,2.4a18.19,18.19,0,0,1-5,.4,9.61,9.61,0,0,0-.7-2H7.1c.6,0,.8-.2.8-.8V289.2c-2.1.7-4.1,1.5-5.8,2l-.6-2.1c1.7-.5,3.9-1.3,6.4-2.2v-9.8H2v-2H7.8v-9.2h2v9.2h5v2h-5v9.2l4.7-1.7.3,2Zm20.5,2.1a28.1,28.1,0,0,0,11.1,11.3,12.94,12.94,0,0,0-1.5,1.7,33.14,33.14,0,0,1-11.4-12.3V306h-2V291.4a28.26,28.26,0,0,1-12,12.4,7.46,7.46,0,0,0-1.4-1.7,25.52,25.52,0,0,0,11.7-11.5H15.2v-2H26.5v-5h2v5H40.2v2Zm-5.1-18.3c-.5,6.9-2.3,10.4-8.9,12.4a4.18,4.18,0,0,0-1.1-1.5c6.1-1.7,7.6-4.8,8-10.8h2ZM18.1,276H16.2v-7.2H39.8v7.1H37.9v-5.2H18.1Zm13.8-3.8v8.6c0,.9.2,1.1,1.5,1.1h4.3c1.1,0,1.3-.5,1.4-4.2a3.7,3.7,0,0,0,1.8.8c-.2,4.2-.8,5.2-2.9,5.2H33.3c-2.5,0-3.2-.5-3.2-2.9v-8.6Z"/><path class="a" d="M37,356.4c1.4,0,1.6-.8,1.7-6.7a5.57,5.57,0,0,0,1.9.9c-.2,6.3-.8,7.8-3.4,7.8H32.4c-2.7,0-3.5-.6-3.5-3.3V343.8H19.6c-.7,5.3-3.8,11.1-16.1,14.9A17.73,17.73,0,0,0,2.1,357c11.6-3.5,14.6-8.7,15.4-13.2H4.8v-2H17.7v-5.7h2v5.7H31V355c0,1.1.3,1.2,1.6,1.2H37ZM17.2,325.1c-1,7.6-3.8,11.6-13.1,13.8A6.7,6.7,0,0,0,3,337.1c8.8-1.8,11.3-5.4,12.1-12H5.5v5.3h-2v-7.3H20.3v-4.3h2.1v4.3H39.5v7H37.4v-5H27v8.8c0,.9.3,1.1,2,1.1h6.4c1.3,0,1.5-.4,1.6-3.5a4.55,4.55,0,0,0,1.9.8c-.3,3.7-.9,4.6-3.3,4.6H28.9c-3.1,0-3.9-.5-3.9-3.1V325H17.2Z"/><path class="a" d="M26.9,380.3H38.6v2.2c-2.2-.1-5.6-.2-11.7-.2H25.5c0,2.6,0,5.4.1,7.3a10.52,10.52,0,0,1,1.2,5.2c0,5.9-2.4,11.7-11.8,14.7l-1.4-2.1c6.2-1.5,9.6-4.5,10.7-8.9a5.3,5.3,0,0,1-4.3,2.1c-3.6,0-6.4-2.5-6.4-6.8a6.9,6.9,0,0,1,6.7-7,7.93,7.93,0,0,1,3.2.7v-5.2c-6.3,0-13.6.4-18.8.8v-2.3c4.4-.1,12.2-.4,18.8-.5,0-1.7,0-3.1-.1-3.9a12.48,12.48,0,0,0-.2-2.1h2.6c0,.4-.1,1.6-.1,2.1v3.8h1.2Zm-2.4,12.3c-.6-2.8-2.1-3.9-4.2-3.9a4.8,4.8,0,0,0-4.7,5.1,4.41,4.41,0,0,0,4.6,4.8C23,398.6,24.6,396.3,24.5,392.6Z"/><path class="a" d="M30.6,431.1c-.6.5-1.5,1.1-2,1.5-1.9,1.5-7.7,7-11.1,10.1a17.59,17.59,0,0,1,6.3-1.2c6.8,0,11.5,4,11.5,9.5,0,7.1-6.3,11-14.3,11-5.5,0-7.9-2.6-7.9-5.6,0-2.6,2.2-5,5.8-5,5,0,7.7,3.6,8.3,7.5,3.7-1.4,6.1-4,6.1-8,0-4.4-4.1-7.5-9.6-7.5-6.6,0-10.7,3.1-16.1,8.7L6,450.5c3.6-3.3,9-8,11.4-10.1l9.7-8.8c-2.3.1-11.2.6-13.3.7a21.05,21.05,0,0,0-2.5.2l-.1-2.4a22.63,22.63,0,0,0,2.5.1c2.1,0,11.8-.4,13.9-.6a10.93,10.93,0,0,0,1.7-.3Zm-5.5,28.4c-.4-3.7-2.6-6.2-6.3-6.2-2.1,0-3.8,1.2-3.8,2.9,0,2.4,2.4,3.6,5.8,3.6A15.06,15.06,0,0,0,25.1,459.5Z"/><path class="a" d="M40.5,484.7a6.17,6.17,0,0,1-6.1,6.3,6.25,6.25,0,0,1-6.2-6.3,6.34,6.34,0,0,1,6.2-6.4A6.26,6.26,0,0,1,40.5,484.7Zm-1.5,0a4.55,4.55,0,1,0-4.6,4.7A4.67,4.67,0,0,0,39,484.7Z"/></svg>