<svg xmlns="http://www.w3.org/2000/svg" xmlns:xlink="http://www.w3.org/1999/xlink" width="218.72mm" height="342.19mm" viewBox="0 0 620 970"><defs><style>.a,.aa,.r{fill:none;}.b,.x{fill:#e61673;}.c{fill:#f8c7da;}.aa,.c,.d,.e,.f,.g,.h,.i,.j,.k,.p,.r,.s,.t,.u,.v,.w,.x{stroke:#e61673;stroke-linecap:round;stroke-linejoin:round;}.c,.d,.e,.f,.g,.h,.k,.p,.r,.w,.x{stroke-width:1.32px;}.d,.i,.j,.s,.t,.u,.v{fill:#84ccc9;}.e{fill:#fff799;}.f{fill:#f3a1c1;}.g{fill:#ea568f;}.h,.y{fill:#f9c270;}.i{stroke-width:1.32px;}.j{stroke-width:1.32px;}.k,.n{fill:#fff;}.l,.w{fill:#fffde0;}.m,.p{fill:#fdf4f7;}.o{fill:#fffbcc;}.q{fill:#e84383;}.s{stroke-width:1.32px;}.t{stroke-width:1.32px;}.u{stroke-width:1.32px;}.v{stroke-width:1.32px;}.z{fill:url(#a);}.aa{stroke-width:1.32px;}</style><pattern id="a" width="127.56" height="127.56" patternTransform="translate(-895.86 -70.16) rotate(1.01) scale(0.2)" patternUnits="userSpaceOnUse" viewBox="0 0 127.56 127.56"><rect class="a" width="127.56" height="127.56"/><circle class="b" cx="109.79" cy="115.38" r="5.52"/><circle class="b" cx="130.18" cy="117.56" r="5.52"/><circle class="b" cx="109.79" cy="97.22" r="5.52"/><circle class="b" cx="131.15" cy="95.03" r="5.52"/><circle class="b" cx="67.27" cy="115.38" r="5.52"/><circle class="b" cx="87.66" cy="117.56" r="5.52"/><circle class="b" cx="67.27" cy="97.22" r="5.52"/><circle class="b" cx="88.63" cy="95.03" r="5.52"/><circle class="b" cx="24.75" cy="115.38" r="5.52"/><circle class="b" cx="45.14" cy="117.56" r="5.52"/><circle class="b" cx="24.75" cy="97.22" r="5.52"/><circle class="b" cx="46.11" cy="95.03" r="5.52"/><circle class="b" cx="2.62" cy="117.56" r="5.52"/><circle class="b" cx="3.59" cy="95.03" r="5.52"/><circle class="b" cx="95.62" cy="72.86" r="5.52"/><circle class="b" cx="116.01" cy="75.04" r="5.52"/><circle class="b" cx="95.62" cy="54.7" r="5.52"/><circle class="b" cx="116.98" cy="52.51" r="5.52"/><circle class="b" cx="53.1" cy="72.86" r="5.52"/><circle class="b" cx="73.49" cy="75.04" r="5.52"/><circle class="b" cx="53.1" cy="54.7" r="5.52"/><circle class="b" cx="74.46" cy="52.51" r="5.52"/><circle class="b" cx="10.58" cy="72.86" r="5.52"/><circle class="b" cx="30.97" cy="75.04" r="5.52"/><circle class="b" cx="10.58" cy="54.7" r="5.52"/><circle class="b" cx="31.94" cy="52.51" r="5.52"/><circle class="b" cx="123.96" cy="30.34" r="5.52"/><circle class="b" cx="123.96" cy="12.18" r="5.52"/><circle class="b" cx="81.45" cy="30.34" r="5.52"/><circle class="b" cx="101.84" cy="32.52" r="5.52"/><circle class="b" cx="81.45" cy="12.18" r="5.52"/><circle class="b" cx="102.81" cy="9.99" r="5.52"/><circle class="b" cx="38.93" cy="30.34" r="5.52"/><circle class="b" cx="59.32" cy="32.52" r="5.52"/><circle class="b" cx="38.93" cy="12.18" r="5.52"/><circle class="b" cx="60.29" cy="9.99" r="5.52"/><circle class="b" cx="-3.59" cy="30.34" r="5.52"/><circle class="b" cx="16.8" cy="32.52" r="5.52"/><circle class="b" cx="-3.59" cy="12.18" r="5.52"/><circle class="b" cx="17.77" cy="9.99" r="5.52"/></pattern></defs><path class="c" d="M204.6,1.5c-2-1.2-2.4,2.8-2.7,4.1-.7,2.7-1.3,7.2-2.2,9.8-.4,1.1-1.5-.8-3.8-1.1-1.8-.2-3.8.7-4.2,2.4-1.2,4.6,5.3,4.1,8,2.5,1.3-.8,1.4-1.8,1.8-3.3s.9-4.1,1.3-5.4C203.3,8.8,204.9,2.9,204.6,1.5Z"/><path class="d" d="M44.4,43.5c-.5.7-.4,1.5-.9,2.2-.8,1.1-1.6.8-2.4,1.6-1.2,1.3,0,2.2.9,2.6,1.8.7,3.8.7,5.3-1.3,1.5-.9,3.8-1.4,5.1-2.5,2.4-2,1.3-3.7-.7-4.2C49.9,41.5,46,41.2,44.4,43.5Z"/><path class="e" d="M51.9,34.3c-.1,3.8,7.1.8,3.4-1.7C54.2,31.9,51.1,32.3,51.9,34.3Z"/><path class="f" d="M41.5,58.1c1.2,1.8,5,.5,3.5-1.5-1.1-1.6-4.2-.3-3.4,1.8"/><path class="f" d="M70.2,24c-.3,4.1,6.9,6.7,7.1,1.9.1-3.7-6.1-5.4-7.1-1.3"/><path class="c" d="M180.6,53.6c-.9-1.1-8.3-10.6-9.6-11.3-.3.1-4.5,3.4-6.4,5-.6.4,1.6,3.8,2,4.4s-.8.8-1.4,1.2a4.85,4.85,0,0,0-2,2.7,1.33,1.33,0,0,0,1.3,1.7,6.87,6.87,0,0,0,5.5-3.5,1.36,1.36,0,0,0-.1-1.5c-.8-.9-3.5-3.9-3-4.3,1-.9,3.1-2,4.1-3.1.6.8,1.3,1.6,1.7,2.1,1.7,2.2,5,5.4,6.5,7.7.6,1-1.5.7-3.1,2.4-1.3,1.3-1.8,3.4-.7,4.8,2.9,3.7,6.5-1.8,6.8-4.9C182.3,55.5,181.6,54.9,180.6,53.6Z"/><path class="f" d="M69.5,25.3c-.3,4.1,6.9,6.7,7.1,1.9.1-3.7-6.1-5.4-7.1-1.3"/><path class="g" d="M198.4,117.8c-1.8-1.5-2.8,2.4-3.3,3.6-1.1,2.5-2.4,6.9-3.8,9.4-.6,1-1.3-1-3.6-1.7-1.8-.5-3.9,0-4.6,1.7-1.9,4.3,4.6,4.9,7.5,3.7,1.4-.6,1.6-1.6,2.3-3s1.6-3.9,2.2-5.1C195.9,124.8,198.4,119.2,198.4,117.8Z"/><path class="g" d="M176.5,134.4c-2.7,1-4.9,2.9-7.5,4.1a44.75,44.75,0,0,0,.9,11.6c-1,0-.5-.6-1.3-.8a7.5,7.5,0,0,0-3-.2c-2.3.7-.4,3.5.8,4,2.3,1.1,5.4.3,5.3-2,0-.4-.5-1.4-.6-2.2a24.52,24.52,0,0,1-.2-2.7c0-2.1-.6-4-.5-6,1.9-1.1,3.9-2.3,5.8-3.3,1.1,1,.7,6.6.2,8-1.4-.7-4.5-.7-2.8,2.3.5.8,3,1.6,4.1,1.2,1.4-.4,1.2-1.9,1.3-3,.1-2.7.3-9.5-1.7-11.4C176.9,134.2,176.1,134.4,176.5,134.4Z"/><path class="h" d="M29.9,168.1l-6.8,8,7.1,5.6,6.8-8C37.8,169.6,32.6,166.8,29.9,168.1Z"/><ellipse class="i" cx="26.43" cy="179.15" rx="2.8" ry="4.5" transform="translate(-132.68 92.67) rotate(-53.08)"/><path class="h" d="M2.1,202.7l6.7,8.1,7.2-5.5-6.7-8.1C5.2,195.6,1.3,199.9,2.1,202.7Z"/><ellipse class="j" cx="12.58" cy="208.31" rx="4.5" ry="2.8" transform="translate(-119.46 46.71) rotate(-35.8)"/><path class="h" d="M46.7,267l6.7,8.1,7.2-5.5-6.7-8.1C49.8,259.9,45.9,264.2,46.7,267Z"/><ellipse class="j" cx="57.16" cy="272.59" rx="4.5" ry="2.8" transform="translate(-148.64 84.93) rotate(-35.8)"/><path class="k" d="M301.8,375.4c-2.8-1.4-5.1,3.4-1.9,4,.7.1,2.7-1.2,2.8-2,.1-1.1-1-1.3-1.5-2"/><path class="k" d="M306.2,368.5c-1.6-.7-3,1.9-1.3,2.3,1.3.3,2.2-2.3.4-2.5"/><path class="l" d="M347,360.8c.4,1.2-1.5,5.8-3.8,10.5a42,42,0,0,0,3.1-11.4C346.6,360.2,346.9,360.4,347,360.8Z"/><path class="m" d="M346.4,378.3c1.7.4-.6,2.9-1.2,3.6a42.77,42.77,0,0,1-4.4,4,5.38,5.38,0,0,1-.8-3.6c1.1-.7,2.1-1.5,3.2-2.2C343.8,379.7,345.6,378.1,346.4,378.3Z"/><path class="n" d="M346.4,352.8a34.66,34.66,0,0,1-.1,7.2c-.8-.5-2-.6-3.6-1.4a14.87,14.87,0,0,0,.7-4.7c-.1-1.1-.6-1.9-.5-3.2.1-.7,1.2-6.1,2.8-4.8.4.3.2,2.6.4,3.2C346.3,350.3,346.3,351.5,346.4,352.8Z"/><path class="n" d="M343.2,371.4a57.51,57.51,0,0,1-3.4,6.5C340.9,375.9,342.1,373.6,343.2,371.4Z"/><path class="o" d="M338.1,358.5c.1,3.7-1.3,6.9-1.7,8.3.2-3,.5-6.1.4-9.1C337.6,357.9,338.1,358.2,338.1,358.5Z"/><path class="n" d="M336.8,357.1v.6a17.22,17.22,0,0,0-3.9-.4c.3-2.2.8-4.4.4-6.6-.2-1.3-.9-2.2-1-3.4a12.51,12.51,0,0,1,.8-3.2c.5-1.2,1.4-1.3,1.9-.1s.3,2.5.6,3.7C336.2,350.8,336.5,353.9,336.8,357.1Z"/><path class="n" d="M336.4,366.9v.1C336.3,367.1,336.3,367,336.4,366.9Z"/><path class="o" d="M325.8,393.5l-2.4,1.3.2-.2A11.3,11.3,0,0,1,325.8,393.5Z"/><path class="n" d="M323.6,394.6l-.2.2-.5.3C323.1,394.9,323.4,394.8,323.6,394.6Z"/><path class="n" d="M322.9,395.1l.5-.3-3.8,4.2A10,10,0,0,1,322.9,395.1Z"/><path class="m" d="M321.6,368.2c1.9,0,.8,5.3.6,6a2,2,0,0,1-2.5.3h0C319.9,373.2,320.4,368.2,321.6,368.2Z"/><path class="l" d="M342.7,358.5c-.3-.2-.6-.3-.9-.5-.7-.4-4.9,8.5-5.4,9-.1.1-.1,0,0-.1v-.1h0c.2-3,.5-6.1.4-9.1a17.22,17.22,0,0,0-3.9-.4c-.5,0-1,.1-1.2.1-.8.2-2.5,7.9-3.1,10-.5,1.5-1.7,4.4-2.3,5.9a34.61,34.61,0,0,1-3.6,7.2c-.2.3-.6.8-1.1,1.5-1.2,1.4-3,3.4-4.5,5-.2.3-.5.5-.7.8.2-.1.5-.2.7,0,.4.3.1,1.3.2,1.7.2.8.9,1.1,1.2,1.8a2.8,2.8,0,0,1,.2,2,3.3,3.3,0,0,0,0,1.4,6.71,6.71,0,0,1,1,2.3l3.3-1.8a3,3,0,0,1,.7-.5,7.55,7.55,0,0,1,2.2-1.1h0a1.85,1.85,0,0,1,.7-.2,37.86,37.86,0,0,0,8.6-3.7,51.33,51.33,0,0,0,5.7-3.8h0a5.38,5.38,0,0,1-.8-3.6,39.38,39.38,0,0,1-5.1,3.2c.5-.6,1-1.2,1.5-1.7A57.21,57.21,0,0,0,340,378c1.1-2,2.3-4.2,3.4-6.5v-.1a42,42,0,0,0,3.1-11.4C345.6,359.5,344.3,359.3,342.7,358.5Z"/><path class="l" d="M322.2,374.3a38.08,38.08,0,0,0-.7,4.7c-.1.9.1,1.9.1,2.9-1.2,1.4-3,3.4-4.5,5l-2.2,1.4h-.2a44.81,44.81,0,0,1,2.2-7.1,38.55,38.55,0,0,0,2.7-6.3v-.2h0A2.61,2.61,0,0,0,322.2,374.3Z"/><path class="p" d="M319.7,397.4a6.73,6.73,0,0,1-1.4,4.3,4.54,4.54,0,0,1-4.5,2.1,6.64,6.64,0,0,1-2-.6c-1.7-.9-2.4-3.2-3-5.1a3.56,3.56,0,0,1,2.9-1.1c.7.1,1,.3,1.7-.1.4-.2.8-.7,1.3-.7.9.1,1.2,1.1,1.9,1.2a1.66,1.66,0,0,0,1.3-.5,5.58,5.58,0,0,1,.5.8l1.3-.7Z"/><path class="q" d="M318.7,394.6a6.55,6.55,0,0,1,0-1.4,2.33,2.33,0,0,0-.2-2c-.4-.7-1.1-1-1.2-1.8-.1-.4.2-1.4-.2-1.7a.48.48,0,0,0-.7,0,1.79,1.79,0,0,0-.7.5,1.2,1.2,0,0,1-.8.2l-.2.1v-.2h-.2A2.58,2.58,0,0,0,312,390c-.4.8-.5,1.7-1.3,2.3s-1.6.7-2.3,1.4a2.81,2.81,0,0,0,.2,4.5c.1-.1.1-.2.2-.2a3.56,3.56,0,0,1,2.9-1.1c.7.1,1,.3,1.7-.1.4-.2.8-.7,1.3-.7.9.1,1.2,1.1,1.9,1.2a1.66,1.66,0,0,0,1.3-.5,5.58,5.58,0,0,1,.5.8l1.3-.7A9.43,9.43,0,0,0,318.7,394.6Z"/><path class="q" d="M314.9,388.3l-.2.1v-.2A.31.31,0,0,0,314.9,388.3Z"/><path class="r" d="M314.8,388.3a44.81,44.81,0,0,1,2.2-7.1,38.55,38.55,0,0,0,2.7-6.3v-.2c.3-1.3.8-6.3,1.9-6.3,1.9,0,.8,5.3.6,6a38.08,38.08,0,0,0-.7,4.7c-.1.9.1,1.9.1,2.9"/><path class="p" d="M346.3,359.9a34.66,34.66,0,0,0,.1-7.2,23.25,23.25,0,0,0-.4-3.7c-.1-.6,0-2.9-.4-3.2-1.5-1.4-2.7,4-2.8,4.8-.1,1.2.4,2,.5,3.2a11,11,0,0,1-.7,4.7"/><path class="r" d="M339.8,377.8a50.09,50.09,0,0,0,3.4-6.5"/><path class="r" d="M336.4,366.9v.1"/><path class="p" d="M332.9,357.3c.3-2.2.8-4.4.4-6.6-.2-1.3-.9-2.2-1-3.4a12.51,12.51,0,0,1,.8-3.2c.5-1.2,1.4-1.3,1.9-.1s.3,2.5.6,3.7a73.18,73.18,0,0,1,1.2,9.4v.6"/><path class="r" d="M334.9,385.4c.5-.6,1-1.2,1.5-1.7a57.21,57.21,0,0,0,3.5-5.8c1.1-2,2.3-4.2,3.4-6.5v-.1c2.3-4.8,4.3-9.3,3.8-10.5a1.39,1.39,0,0,0-.7-.8c-.8-.5-2-.6-3.6-1.4-.3-.2-.6-.3-.9-.5-.7-.4-4.9,8.5-5.4,9-.1.1-.1,0,0-.1v-.1h0a22.7,22.7,0,0,0,1.7-8.3c0-.3-.6-.6-1.3-.8a17.22,17.22,0,0,0-3.9-.4c-.5,0-1,.1-1.2.1-.8.2-2.5,7.9-3.1,10-.5,1.5-1.7,4.4-2.3,5.9a34.61,34.61,0,0,1-3.6,7.2c-.2.3-.6.8-1.1,1.5-1.2,1.4-3,3.4-4.5,5-.2.3-.5.5-.7.8"/><path class="r" d="M340.8,385.8a28.33,28.33,0,0,0,4.4-4c.6-.6,2.8-3.2,1.2-3.6-.7-.2-2.6,1.4-3.2,1.7-1.1.7-2.1,1.4-3.2,2.2a39.38,39.38,0,0,1-5.1,3.2,22.26,22.26,0,0,1-4.3,1.6"/><path class="r" d="M319.6,399a10,10,0,0,1,3.3-3.9,3,3,0,0,1,.7-.5,7.55,7.55,0,0,1,2.2-1.1,1.85,1.85,0,0,1,.7-.2,37.86,37.86,0,0,0,8.6-3.7,51.33,51.33,0,0,0,5.7-3.8"/><path class="r" d="M308.8,398c.5,1.8,1.1,4,2.8,5,2,1.1,5.3.6,6.7-1.3a6.73,6.73,0,0,0,1.4-4.3.9.9,0,0,0-.1-.5,5.23,5.23,0,0,0-1-2.3"/><path class="r" d="M308.8,398c-.1.1-.1.2-.2.2-1.3-1.3-1.7-3-.2-4.5.7-.7,1.6-.8,2.3-1.4s.9-1.5,1.3-2.3c.6-1.1,1.2-1.8,2.5-1.7h.4a1.51,1.51,0,0,0,.8-.2,3,3,0,0,0,.7-.5c.2-.1.5-.2.7,0,.4.3.1,1.3.2,1.7.2.8.9,1.1,1.2,1.8a2.8,2.8,0,0,1,.2,2,3.3,3.3,0,0,0,0,1.4v.6a2.67,2.67,0,0,1-.8,1.7,1.38,1.38,0,0,1-1.3.5c-.7-.1-1-1.2-1.9-1.2-.5,0-.9.4-1.3.7-.7.4-1,.2-1.7.1A3.56,3.56,0,0,0,308.8,398Z"/><path class="r" d="M311,399.6c0,.1.1.1.1.2"/><path class="r" d="M313.4,399.2c0,.1.1.1.1.2"/><path class="r" d="M340,382.2a5.38,5.38,0,0,0,.8,3.6h0"/><path class="r" d="M319.7,374.6a2,2,0,0,0,2.5-.3"/><path class="d" d="M108.6,399.9c-2.9-1.3-1.9,6.6.9,5.7.9,3.5,2.5,1.5,4.5,2.5.6.3.8,1.7,1.3,1.9,1.2.4,2.8-.5,3.5-.2,1.2.4,1.1,1.6,2.4,2.1,1.8.7,2.8-.6,4.4-.3,1,.2.6,1.7,1.6,1.8a6.48,6.48,0,0,0,3.8-1.1c1.1,2.7,3.7.9,5.6.3,1.7,3.6,10,1.2,12.2,0,.7-.4,5.2-1.5,4.4-3.8-.4-1.1-2.1-1-2.7-.7-.7-1.1-.6-1.2-1.9-.9-.2-1.4-1-2.3-2.3-1.3,0-1.8-1.7-3.3-2.8-1.9a3.93,3.93,0,0,0-1.5-2.8c-2.6-1.7-1.9.7-3.2.8-.8,0-1.4-.8-1.9-.8s-1.2-.6-1.8-.6c-.9,0-1.8,1.3-2.6,1.3-1-.1-1-1.4-1.7-1.5-1.2-.1-3.2.6-4.3.3-.8-.2-1.8-1.8-2.2-1.9-1.1-.1-2.2.8-3.3.9-.6-3.3-3-.1-4.4,0-1.2.1-1.7-1.5-3.5-.6-.6-1.5-1.8-2-2.9-.6C109,397.8,108.9,398.2,108.6,399.9Z"/><path class="c" d="M595.7,306.1c-1.2,2,2.9,2.3,4.2,2.6,2.7.6,7.3,1.1,9.9,1.9,1.1.4-.7,1.5-.9,3.9-.2,1.8.8,3.8,2.5,4.2,4.6,1,4-5.5,2.2-8.1-.9-1.3-1.8-1.3-3.3-1.7s-4.2-.8-5.4-1.2C603,307.2,597.1,305.8,595.7,306.1Z"/><path class="c" d="M615,264.2c-2-1.2-2.4,2.8-2.7,4.1-.7,2.7-1.3,7.2-2.2,9.8-.4,1.1-1.5-.8-3.8-1.1-1.8-.2-3.8.7-4.2,2.4-1.2,4.6,5.3,4.1,8,2.5,1.3-.8,1.4-1.8,1.8-3.3s.9-4.1,1.3-5.4C613.7,271.5,615.3,265.6,615,264.2Z"/><path class="c" d="M591.1,316.3c-.9-1.1-8.3-10.6-9.6-11.3-.3.1-4.5,3.4-6.4,5-.6.4,1.6,3.8,2,4.4s-.8.8-1.4,1.2a4.85,4.85,0,0,0-2,2.7A1.33,1.33,0,0,0,575,320a6.87,6.87,0,0,0,5.5-3.5,1.36,1.36,0,0,0-.1-1.5c-.8-.9-3.5-3.9-3-4.3,1-.9,3.1-2,4.1-3.1.6.8,1.3,1.6,1.7,2.1,1.7,2.2,5,5.4,6.5,7.7.6,1-1.5.7-3.1,2.4-1.3,1.3-1.8,3.4-.7,4.8,2.9,3.7,6.5-1.8,6.8-4.9C592.8,318.2,592,317.6,591.1,316.3Z"/><polyline class="d" points="539.4 316.4 544.7 312.2 543.4 318.8"/><path class="f" d="M543.4,318.8l-28.9,47.7-4-2.4,28.9-47.7A2.71,2.71,0,0,1,543.4,318.8Z"/><ellipse class="s" cx="512.33" cy="365.38" rx="1.5" ry="2.3" transform="translate(-65.68 614.15) rotate(-58.78)"/><path class="f" d="M558.9,325.4l-.2,4.2h-3.5l.2-4.2A2,2,0,0,1,558.9,325.4Z"/><ellipse class="t" cx="556.91" cy="329.71" rx="1.8" ry="1.1" transform="translate(-6.8 11.76) rotate(-1.2)"/><path class="f" d="M557.6,343.2l-4.1.9-.6-3.5,4.1-.9A2.1,2.1,0,0,1,557.6,343.2Z"/><ellipse class="u" cx="553.07" cy="342.29" rx="1.1" ry="1.8" transform="translate(-43.05 82.13) rotate(-8.18)"/><polyline class="d" points="486.2 383.6 480.9 379.5 487.6 379.1"/><path class="f" d="M487.6,379.1l36.7,11.5-1.4,4.5-36.7-11.5C484.6,382,486.1,379.3,487.6,379.1Z"/><ellipse class="v" cx="523.78" cy="392.98" rx="2.3" ry="1.5" transform="translate(-8.23 774.74) rotate(-72.54)"/><path class="w" d="M344.9,158.5c-4.7-6.3-10.6-13.7-12.3-18.3-1.5-4.3,5.4-5,8.7-5.5,4.1-.7,6.7-.4,10,2.2,4,3.2,9.9,9.2,12.5,13.2"/><path class="w" d="M346.2,159.4c.8.2,13.1-2.3,15.5-3.9,1.8-1.2,2.1-1.5,4.1-4.9,2.8-4.8,5-8.2,5-10.4,0-.6-1.2-2.4-2-2.4a54.89,54.89,0,0,0-9.1.8c-6.6.9-8.5,1.8-9.1,2.7a92.18,92.18,0,0,0-6.4,12.3"/><path class="w" d="M344.2,157.6c2.3,2.7,9.5,14.8,10.4,16.2,1.2-.2,2.2-.9,1.8-1.6-1.6-3-5.7-11.2-6.9-13.7"/><path class="w" d="M358.5,155.9c2.6,4,5.7,9.2,8.2,12.8l1.9-.9c-1.8-4.3-4.6-9.2-6.5-13.2"/><path class="w" d="M354,144.9c2.2,3.5,8.1,10.6,10.6,13.7.7.8,2.1-.6,2.1-.6-1-2.2-4.6-6.9-5.9-9.1-1.2-2-2.7-4-3.9-5.8"/><path class="w" d="M366.7,142.3c1.3,1.9,8.7,11.2,10.5,12.5l1.7-.9c-.1-1.3-8-11.3-9.1-12.8"/><path class="r" d="M346.3,155.5c2.3-4.5,4.5-9.9,6.5-12.5.7-.8,3.8-1.2,6.1-1.6,3.2-.4,6.3-.9,9.5-1.3"/><path class="e" d="M37.7,723.5c-1.4-1.6-4.8-1.8-5.8.4-1.3,2.9,2.7,5,5.1,4.7,3.1-.3,3.9-3.7,1-5.1"/><path class="e" d="M43.3,795.5c-1-1.1-3.3-1.3-4,.3-.9,2.1,1.8,3.5,3.5,3.3,2.1-.2,2.7-2.6.7-3.6"/><path class="e" d="M106.3,704.8c-1-1.1-3.3-1.3-4,.3-.9,2.1,1.8,3.5,3.5,3.3,2.1-.2,2.7-2.6.7-3.6"/><path class="x" d="M215.1,932.5c-5.1-.1-13,5.1-7.7,11.5,3.5,4.2,10.4,2.6,13-2.3C222.8,936.9,218.7,932.6,215.1,932.5Z"/><path class="e" d="M215.1,931.3c-5.1-.1-13,4.4-7.7,9.9,3.5,3.6,10.4,2.2,13-2C222.8,935.1,218.7,931.4,215.1,931.3Z"/><path class="e" d="M150.8,905.6c-2.7-.1-6.9,2.3-4.1,5.2,1.9,1.9,5.5,1.2,6.9-1S152.7,905.7,150.8,905.6Z"/><path class="x" d="M467.3,951.2c-4.3-.1-11.1,4.4-6.6,9.8,3,3.6,8.9,2.2,11.1-1.9S470.4,951.4,467.3,951.2Z"/><path class="e" d="M467.3,950.2c-4.3-.1-11.1,3.8-6.6,8.5,3,3.1,8.9,1.9,11.1-1.7S470.4,950.3,467.3,950.2Z"/><path class="x" d="M597.7,859.8c-2.9-.1-7.5,2.9-4.4,6.6,2,2.4,6,1.5,7.5-1.3A3.72,3.72,0,0,0,597.7,859.8Z"/><path class="e" d="M597.7,859.1c-2.9-.1-7.5,2.5-4.4,5.7,2,2.1,6,1.3,7.5-1.1C602.1,861.3,599.8,859.2,597.7,859.1Z"/><path class="d" d="M544.1,928.7c3.6,1.2,5.4,6.5.5,8.3a5,5,0,0,1-6.2-3.5c-.7-3.4,3.9-6.2,6.7-4.2m-1.3,2.2a1.7,1.7,0,0,0-2.6,1.6,2,2,0,0,0,2.4,1.4c1.9-.7,1.2-2.7-.2-3.2"/><path class="f" d="M410.5,433.5c-1.4,3.6,7.1,1,5.3-2-1.2-2.1-5.1.5-5.5,2.1"/><path class="e" d="M409.6,432.8c-1.4,3.6,7.1,1,5.3-2-1.2-2.1-5.1.5-5.5,2.1"/><path class="h" d="M474.4,222.6a1.38,1.38,0,0,0-1.8-.2c-3.4,5.1,5.8,4.4,3,.2"/><polygon class="y" points="529.75 69.49 520.78 75.49 510.17 77.7 499.61 75.32 490.57 69.38 484.71 60.28 482.75 49.67 484.62 39 490.74 30 499.88 24.14 510.51 21.95 521.1 24.33 530.13 30.29 536.14 39.34 537.97 50.01 535.85 60.59 529.75 69.49"/><polygon class="z" points="529.75 69.49 520.86 75.68 510.17 77.49 499.57 75.4 490.72 69.23 484.49 60.37 482.46 49.67 484.72 39.05 490.78 30.04 499.86 24.1 510.51 22.27 521.08 24.36 530.03 30.4 535.94 39.42 538.08 50.01 535.97 60.64 529.75 69.49"/><polygon class="aa" points="529.75 69.49 520.86 75.68 510.17 77.49 499.57 75.4 490.72 69.23 484.49 60.37 482.46 49.67 484.72 39.05 490.78 30.04 499.86 24.1 510.51 22.27 521.08 24.36 530.03 30.4 535.94 39.42 538.08 50.01 535.97 60.64 529.75 69.49"/></svg>