<svg xmlns="http://www.w3.org/2000/svg" width="1538" height="690" viewBox="0 0 1538 690"><defs><style>.a,.ae,.k{fill:#fffbcc;}.a,.aa,.ak,.ao,.b,.c,.d,.e,.f,.g,.h,.l,.m,.n,.o,.r,.t,.u,.z{stroke:#9c639c;}.a,.aa,.ab,.ac,.ad,.ae,.af,.ag,.ah,.ak,.ao,.aq,.b,.c,.d,.e,.f,.g,.h,.l,.m,.n,.o,.r,.t,.u,.z{stroke-linecap:round;stroke-linejoin:round;}.a,.ab,.ac,.ad,.ae,.af,.ag,.ah,.ak,.ao,.b,.c,.d,.h,.o,.r,.t,.u{stroke-width:1.22px;}.al,.b{fill:#fce1b7;}.aa,.c{fill:#09c;}.am,.d,.e,.f,.g,.m,.z{fill:#fff799;}.e{stroke-width:1.22px;}.f{stroke-width:1.22px;}.g{stroke-width:1.22px;}.h{fill:#f8b500;}.i{fill:#80cce5;}.j{fill:#33add6;}.ad,.af,.aq,.l,.q,.r{fill:none;}.l{stroke-width:1.71px;}.m,.n{stroke-width:1.22px;}.n,.x{fill:#f9c270;}.o{fill:#9c639c;}.p{fill:#99d6ea;}.s{fill:#fee99f;}.t{fill:#81cde4;}.u{fill:#a9ca69;}.v{fill:#fdedd4;}.w{fill:#e5f5fa;}.y{fill:#fef9f1;}.z{stroke-width:1.22px;}.aa{stroke-width:1.22px;}.ab,.ai{fill:#cae5cd;}.ab,.ac,.ad,.ae,.ah,.aq{stroke:#956094;}.ac{fill:#0ea7c3;}.af{stroke:#8f5d8e;}.ag{fill:#8f5d8e;stroke:#8e5c8d;}.ah{fill:#f1a9a8;}.aj,.ao{fill:#fff;}.ak{fill:#ccebf5;}.an{fill:#fbf8cf;}.ap{fill:#fffded;}.aq{stroke-width:1.08px;}.ar{fill:#078fbe;}</style></defs><path class="a" d="M97.7,388.5c-3.9-1.6-8.8-.3-6.7,4,.5,1.1,1.4,1.9,1.9,3.1.4.9.4,2.6,1.1,3.3,1.9,1.9,6.6.6,8.5-1.1,2.1-1.9,1.7-4.1,0-6.2C101.4,390.2,99.3,389.5,97.7,388.5Z"/><path class="b" d="M147.1,608.2c-2.7-2-5.3,1.9-4.8,4a5.28,5.28,0,0,0,4.4,3.8c6.3.7,2.3-6.2.4-7.8"/><path class="c" d="M8.8,278.6c-7.2.2-9.8,9.4-2.2,9.4,6.9,0,5.2-8.2,2.2-9.4"/><path class="b" d="M73.5,160c-4-1.6-11.9,1-10.1,5.8,1.1,2.8,8,5.1,11,5,3.9-.2,8.8-3.5,7-7.4-1.1-2.5-7.2-3-7.9-3.4"/><path class="d" d="M15.8,338.6c-7.2-.6-12.2,9.8-3.1,9.3,5.9-.3,10.7-10.2,2.3-9.3"/><path class="c" d="M45.7,647.3a14,14,0,0,0-6.3-.4c-2.4.6-5.6,2.6-6.5,4.7-1.3,3.4,2.8,8.4,6,10,5.2,2.5,12.3,2.3,16.2-1.9,2.5-2.7,2.3-5.4-.2-7.9C53.2,650.1,49.4,648.2,45.7,647.3Z"/><path class="a" d="M43.8,650.3a14,14,0,0,0-6.3-.4c-2.4.6-5.6,2.6-6.5,4.7-1.3,3.4,2.8,8.4,6,10,5.2,2.5,12.3,2.3,16.2-1.9,2.5-2.7,2.3-5.4-.2-7.9C51.4,653,47.5,651.2,43.8,650.3Z"/><path class="b" d="M73.4,674.4c-2.2-1.2-6,.8-3.1,2.4,2.4,1.4,3.6-1.4,3.1-2.4"/><ellipse class="d" cx="761" cy="222.3" rx="10.5" ry="7.1"/><ellipse class="d" cx="761" cy="220.3" rx="10.5" ry="6.6"/><ellipse class="e" cx="771.17" cy="213.3" rx="9" ry="4.5" transform="translate(-27.33 264.22) rotate(-19.11)"/><ellipse class="e" cx="770.77" cy="212.1" rx="9" ry="4.2" transform="translate(-26.96 264.02) rotate(-19.11)"/><ellipse class="f" cx="786.95" cy="128.09" rx="5.91" ry="8.71" transform="translate(261.88 728.09) rotate(-58.06)"/><ellipse class="g" cx="790.54" cy="130.9" rx="5.4" ry="8.7" transform="translate(257.58 729.26) rotate(-57.71)"/><path class="h" d="M786.1,255.1l-3.6-10.4c-4.3-12.4-42-10.5-84.3,4.1s-73.1,36.5-68.8,48.9l3.6,10.4"/><path class="i" d="M786.1,255c3.3,9.5-14.2,24.7-41.7,37.9l-34.9-11.3,47.1-32.7-.1-1.8C772.7,246.1,783.9,248.6,786.1,255Z"/><path class="j" d="M756.5,247.1l.1,1.8-47.1,32.7-20.7-17.1-.1-.4c4.2-1.7,8.6-3.4,13.1-4.9C722.2,252.1,741.5,248,756.5,247.1Z"/><path class="k" d="M709.6,281.5l34.9,11.3a276.08,276.08,0,0,1-27.1,11.1c-42.3,14.7-80,16.5-84.3,4.1-3.8-11.1,20.3-29.8,55.7-44l.1.4Z"/><path class="l" d="M756.5,247.1c16.2-1,27.4,1.6,29.6,8,3.3,9.5-14.2,24.7-41.7,37.9a276.08,276.08,0,0,1-27.1,11.1c-42.3,14.7-80,16.5-84.3,4.1-3.8-11.1,20.3-29.8,55.7-44,4.2-1.7,8.6-3.4,13.1-4.9C722.2,252.1,741.5,248,756.5,247.1Z"/><polyline class="l" points="688.9 264.5 709.6 281.5 756.7 248.9"/><line class="l" x1="709.6" y1="281.5" x2="744.4" y2="292.9"/><ellipse class="m" cx="341.5" cy="183.37" rx="3.89" ry="6.48" transform="translate(63.81 453.8) rotate(-72.47)"/><ellipse class="n" cx="341.87" cy="182.27" rx="3.59" ry="6.48" transform="translate(65.11 453.38) rotate(-72.47)"/><path class="c" d="M576.5,499.8c-2.6.9-6.1,2.2-7.3,3.4a9.93,9.93,0,0,0,7.2,3.8,21.62,21.62,0,0,0-.8-7.2"/><path class="o" d="M530,490.1c-1.7-1.6-6.3-7.1-8.6-7.4-3.6-.4-6.4,5.3-4.7,8.1,1.8,3,4.6,6.1,6.6,6.5,10.1,1.9,7.6-6,6.7-7.2"/><path class="c" d="M529.2,486a12,12,0,0,0-6.2-3.4c-3.6-.4-6.1,3-4.4,5.8,1.8,3,4.6,6,6.6,6.5,8.3,2,5.6-8.6,4-8.9"/><path class="c" d="M549.2,534.3c-3.7-2.3-9.5-2.3-12.4,1.4-3.4,4.3,1.2,10.6,6.9,9.6,4.1-.7,7-3.6,6.9-7.2C550.6,536.7,550.3,534.4,549.2,534.3Z"/><path class="a" d="M548.3,531.8c-3.4-2.2-8.9-2.1-11.6,1.3-3.2,4,1.1,9.7,6.4,8.9,3.8-.6,7.5-2.4,7.4-5.8C550.6,534.9,550.6,533.7,548.3,531.8Z"/><path class="a" d="M494.5,532.4c-1.7,1.8-3.5,3.7-5.3,5.4,1.3.7,2.7,1.5,4.1,2.2.8-1.7.9-5.8.7-7.3"/><path class="c" d="M494,532.6a15.09,15.09,0,0,1,5,3.1,33.29,33.29,0,0,1-5.5,4.4c.5-2.2.1-4.9.8-7.1"/><path class="p" d="M1304.3,2.3l-20.6,26.6-.1,21.4c12.4,7.2,24.7,11.5,33.5,15.3l19.7-24L1304,24.3Z"/><polygon class="p" points="1304.3 2.2 1304.4 5.5 1304.2 8.6 1304 11.7 1304.2 14.9 1304.3 18 1303.9 21.2 1304.1 24.3 1306.8 25.7 1309.4 27.3 1312.3 28.4 1315.1 29.9 1317.8 31.4 1320.5 32.8 1323.3 34.2 1326 35.8 1328.8 37.1 1331.3 38.8 1334.1 40.2 1336.9 41.6 1337 38.4 1336.6 35.2 1336.9 32 1336.7 28.8 1336.5 25.6 1336.6 22.4 1336.3 19.3 1333.7 17.9 1331.1 16.3 1328.4 15.1 1325.8 13.5 1323.1 12 1320.3 10.9 1317.8 9.3 1315 8 1312.3 6.7 1309.7 5.1 1307.1 3.6 1304.3 2.2"/><polygon class="p" points="1304.3 2.2 1304.4 5.5 1304.2 8.6 1304 11.7 1304.2 14.9 1304.3 18 1303.9 21.2 1304.1 24.3 1306.8 25.7 1309.4 27.3 1312.3 28.4 1315.1 29.9 1317.8 31.4 1320.5 32.8 1323.3 34.2 1326 35.8 1328.8 37.1 1331.3 38.8 1334.1 40.2 1336.9 41.6 1337 38.4 1336.6 35.2 1336.9 32 1336.7 28.8 1336.5 25.6 1336.6 22.4 1336.3 19.3 1333.7 17.9 1331.1 16.3 1328.4 15.1 1325.8 13.5 1323.1 12 1320.3 10.9 1317.8 9.3 1315 8 1312.3 6.7 1309.7 5.1 1307.1 3.6 1304.3 2.2"/><line class="q" x1="1304" y1="24.3" x2="1283.6" y2="50.3"/><polygon class="p" points="1304.2 10.7 1283.7 34.8 1283.7 40 1304.1 15.8 1336.5 32.1 1337.2 28.4 1304.2 10.7"/><polyline class="p" points="1320.3 10.8 1320.3 12.3 1319.6 32.5 1298.9 58 1303.7 59.5 1323.8 34.7 1324.6 13"/><path class="p" d="M1322.4,22.3c-3.1-4-7.9-11-4.5-15.7,1.7-2.3,4.8-4.1,5.5-.4.5,2.5-1.6,6.1-2,8.7A15.58,15.58,0,0,0,1322.4,22.3Z"/><path class="p" d="M1321.3,4.2a12.09,12.09,0,0,1,6,1.5c2.2,1.6-2.3,6-2.9,9.4-.6,3.6,2.2,6-2.1,7.5-.4-3.6-2.7-6.3-1.5-10C1321.7,9.7,1324.8,6.8,1321.3,4.2Z"/><path class="p" d="M1324.3,20c-.8-3.5,2.4-7.3,4.8-9.5,1.8-1.6,4-3.5,5.1-5.8.6-1.3.5-2.8.7-4.2-.8-.2-1.3.9-2.2.6s-.8-1.8-1.8-2c-.4,1.3-.1,2.9-.5,4.3s-1.9,2.8-3,4c-1.5,1.7-3.1,3.1-4,5.3-1,2.6-.8,5-.5,7.6"/><path class="p" d="M1324.6,21.5c2.2-2.3,6.9-2,9.5-1,1.8.7,3.4,1.4,5.3,1.1,1.2-.1,3-1,4.1-.2-.4.5-1.4.8-1.7,1.4-.4.8,0,.6.3,1.2.8,1.6,0,1.2-1.5,1.2a24.37,24.37,0,0,1-2.7.1c-1-.2-2-.6-3-.9-2-.5-3.8-1.4-5.8-1.9a19.93,19.93,0,0,0-5.4-.1"/><path class="p" d="M1322,23c-.2-.4-.8-.7-1-1.1-.3-.7.2-.7.8-1.1,1.1-.6,2.3-1.5,3.2-.2,1.1,1.7-1.9,2.3-3,2.7C1322.1,23.2,1322.1,23.2,1322,23Z"/><path class="p" d="M1322.2,23.4c3.7-3.7,6.3,4.3,8.4,6.1.4.4,2.1,1.1,1.8,1.9a1.31,1.31,0,0,1-1.7.7,13.69,13.69,0,0,1-3.9-1.8c-1-.8-1.5-2.3-2-3.4S1323.3,23.5,1322.2,23.4Z"/><path class="p" d="M1322.5,23a5.72,5.72,0,0,1,6.5.2c1.6,1.3,2.3,3.4,4.1,4.6.7.4,2.9,1,3.3,1.8s-.8,1.2-1.5,1.4c-1,.2-1.9.8-2.8,1,1.2-.8-.5-1.7-1.2-2a3.65,3.65,0,0,1-2-2.4c-1-2.3-2.9-4.6-5.4-4.9"/><path class="r" d="M1304.3,2.3l-20.6,26.6-.1,21.4c12.4,7.2,24.7,11.5,33.5,15.3l19.7-24L1304,24.3Z"/><polygon class="s" points="1304.3 2.2 1304.4 5.5 1304.2 8.6 1304 11.7 1304.2 14.9 1304.3 18 1303.9 21.2 1304.1 24.3 1306.8 25.7 1309.4 27.3 1312.3 28.4 1315.1 29.9 1317.8 31.4 1320.5 32.8 1323.3 34.2 1326 35.8 1328.8 37.1 1331.3 38.8 1334.1 40.2 1336.9 41.6 1337 38.4 1336.6 35.2 1336.9 32 1336.7 28.8 1336.5 25.6 1336.6 22.4 1336.3 19.3 1333.7 17.9 1331.1 16.3 1328.4 15.1 1325.8 13.5 1323.1 12 1320.3 10.9 1317.8 9.3 1315 8 1312.3 6.7 1309.7 5.1 1307.1 3.6 1304.3 2.2"/><polygon class="r" points="1304.3 2.2 1304.4 5.5 1304.2 8.6 1304 11.7 1304.2 14.9 1304.3 18 1303.9 21.2 1304.1 24.3 1306.8 25.7 1309.4 27.3 1312.3 28.4 1315.1 29.9 1317.8 31.4 1320.5 32.8 1323.3 34.2 1326 35.8 1328.8 37.1 1331.3 38.8 1334.1 40.2 1336.9 41.6 1337 38.4 1336.6 35.2 1336.9 32 1336.7 28.8 1336.5 25.6 1336.6 22.4 1336.3 19.3 1333.7 17.9 1331.1 16.3 1328.4 15.1 1325.8 13.5 1323.1 12 1320.3 10.9 1317.8 9.3 1315 8 1312.3 6.7 1309.7 5.1 1307.1 3.6 1304.3 2.2"/><line class="r" x1="1304" y1="24.3" x2="1283.6" y2="50.3"/><polygon class="r" points="1304.2 10.7 1283.7 34.8 1283.7 40 1304.1 15.8 1336.5 32.1 1337.2 28.4 1304.2 10.7"/><polyline class="r" points="1320.3 10.8 1320.3 12.3 1319.6 32.5 1298.9 58 1303.7 59.5 1323.8 34.7 1324.6 13"/><path class="t" d="M1322.4,22.3c-3.1-4-7.9-11-4.5-15.7,1.7-2.3,4.8-4.1,5.5-.4.5,2.5-1.6,6.1-2,8.7A15.58,15.58,0,0,0,1322.4,22.3Z"/><path class="r" d="M1321.3,4.2a12.09,12.09,0,0,1,6,1.5c2.2,1.6-2.3,6-2.9,9.4-.6,3.6,2.2,6-2.1,7.5-.4-3.6-2.7-6.3-1.5-10C1321.7,9.7,1324.8,6.8,1321.3,4.2Z"/><path class="r" d="M1324.3,20c-.8-3.5,2.4-7.3,4.8-9.5,1.8-1.6,4-3.5,5.1-5.8.6-1.3.5-2.8.7-4.2-.8-.2-1.3.9-2.2.6s-.8-1.8-1.8-2c-.4,1.3-.1,2.9-.5,4.3s-1.9,2.8-3,4c-1.5,1.7-3.1,3.1-4,5.3-1,2.6-.8,5-.5,7.6"/><path class="r" d="M1324.6,21.5c2.2-2.3,6.9-2,9.5-1,1.8.7,3.4,1.4,5.3,1.1,1.2-.1,3-1,4.1-.2-.4.5-1.4.8-1.7,1.4-.4.8,0,.6.3,1.2.8,1.6,0,1.2-1.5,1.2a24.37,24.37,0,0,1-2.7.1c-1-.2-2-.6-3-.9-2-.5-3.8-1.4-5.8-1.9a19.93,19.93,0,0,0-5.4-.1"/><path class="u" d="M1322,23c-.2-.4-.8-.7-1-1.1-.3-.7.2-.7.8-1.1,1.1-.6,2.3-1.5,3.2-.2,1.1,1.7-1.9,2.3-3,2.7C1322.1,23.2,1322.1,23.2,1322,23Z"/><path class="r" d="M1322.2,23.4c3.7-3.7,6.3,4.3,8.4,6.1.4.4,2.1,1.1,1.8,1.9a1.31,1.31,0,0,1-1.7.7,13.69,13.69,0,0,1-3.9-1.8c-1-.8-1.5-2.3-2-3.4S1323.3,23.5,1322.2,23.4Z"/><path class="t" d="M1322.5,23a5.72,5.72,0,0,1,6.5.2c1.6,1.3,2.3,3.4,4.1,4.6.7.4,2.9,1,3.3,1.8s-.8,1.2-1.5,1.4c-1,.2-1.9.8-2.8,1,1.2-.8-.5-1.7-1.2-2a3.65,3.65,0,0,1-2-2.4c-1-2.3-2.9-4.6-5.4-4.9"/><path class="r" d="M1304.3,2.3l-20.6,26.6-.1,21.4c12.4,7.2,24.7,11.5,33.5,15.3l19.7-24L1304,24.3Z"/><polygon class="r" points="1304.3 2.2 1304.4 5.5 1304.2 8.6 1304 11.7 1304.2 14.9 1304.3 18 1303.9 21.2 1304.1 24.3 1306.8 25.7 1309.4 27.3 1312.3 28.4 1315.1 29.9 1317.8 31.4 1320.5 32.8 1323.3 34.2 1326 35.8 1328.8 37.1 1331.3 38.8 1334.1 40.2 1336.9 41.6 1337 38.4 1336.6 35.2 1336.9 32 1336.7 28.8 1336.5 25.6 1336.6 22.4 1336.3 19.3 1333.7 17.9 1331.1 16.3 1328.4 15.1 1325.8 13.5 1323.1 12 1320.3 10.9 1317.8 9.3 1315 8 1312.3 6.7 1309.7 5.1 1307.1 3.6 1304.3 2.2"/><polygon class="r" points="1304.3 2.2 1304.4 5.5 1304.2 8.6 1304 11.7 1304.2 14.9 1304.3 18 1303.9 21.2 1304.1 24.3 1306.8 25.7 1309.4 27.3 1312.3 28.4 1315.1 29.9 1317.8 31.4 1320.5 32.8 1323.3 34.2 1326 35.8 1328.8 37.1 1331.3 38.8 1334.1 40.2 1336.9 41.6 1337 38.4 1336.6 35.2 1336.9 32 1336.7 28.8 1336.5 25.6 1336.6 22.4 1336.3 19.3 1333.7 17.9 1331.1 16.3 1328.4 15.1 1325.8 13.5 1323.1 12 1320.3 10.9 1317.8 9.3 1315 8 1312.3 6.7 1309.7 5.1 1307.1 3.6 1304.3 2.2"/><line class="r" x1="1304" y1="24.3" x2="1283.6" y2="50.3"/><polygon class="r" points="1304.2 10.7 1283.7 34.8 1283.7 40 1304.1 15.8 1336.5 32.1 1337.2 28.4 1304.2 10.7"/><polyline class="r" points="1320.3 10.8 1320.3 12.3 1319.6 32.5 1298.9 58 1303.7 59.5 1323.8 34.7 1324.6 13"/><path class="r" d="M1322.4,22.3c-3.1-4-7.9-11-4.5-15.7,1.7-2.3,4.8-4.1,5.5-.4.5,2.5-1.6,6.1-2,8.7A15.58,15.58,0,0,0,1322.4,22.3Z"/><path class="r" d="M1321.3,4.2a12.09,12.09,0,0,1,6,1.5c2.2,1.6-2.3,6-2.9,9.4-.6,3.6,2.2,6-2.1,7.5-.4-3.6-2.7-6.3-1.5-10C1321.7,9.7,1324.8,6.8,1321.3,4.2Z"/><path class="r" d="M1324.3,20c-.8-3.5,2.4-7.3,4.8-9.5,1.8-1.6,4-3.5,5.1-5.8.6-1.3.5-2.8.7-4.2-.8-.2-1.3.9-2.2.6s-.8-1.8-1.8-2c-.4,1.3-.1,2.9-.5,4.3s-1.9,2.8-3,4c-1.5,1.7-3.1,3.1-4,5.3-1,2.6-.8,5-.5,7.6"/><path class="r" d="M1324.6,21.5c2.2-2.3,6.9-2,9.5-1,1.8.7,3.4,1.4,5.3,1.1,1.2-.1,3-1,4.1-.2-.4.5-1.4.8-1.7,1.4-.4.8,0,.6.3,1.2.8,1.6,0,1.2-1.5,1.2a24.37,24.37,0,0,1-2.7.1c-1-.2-2-.6-3-.9-2-.5-3.8-1.4-5.8-1.9a19.93,19.93,0,0,0-5.4-.1"/><path class="r" d="M1322,23c-.2-.4-.8-.7-1-1.1-.3-.7.2-.7.8-1.1,1.1-.6,2.3-1.5,3.2-.2,1.1,1.7-1.9,2.3-3,2.7C1322.1,23.2,1322.1,23.2,1322,23Z"/><path class="r" d="M1322.2,23.4c3.7-3.7,6.3,4.3,8.4,6.1.4.4,2.1,1.1,1.8,1.9a1.31,1.31,0,0,1-1.7.7,13.69,13.69,0,0,1-3.9-1.8c-1-.8-1.5-2.3-2-3.4S1323.3,23.5,1322.2,23.4Z"/><path class="r" d="M1322.5,23a5.72,5.72,0,0,1,6.5.2c1.6,1.3,2.3,3.4,4.1,4.6.7.4,2.9,1,3.3,1.8s-.8,1.2-1.5,1.4c-1,.2-1.9.8-2.8,1,1.2-.8-.5-1.7-1.2-2a3.65,3.65,0,0,1-2-2.4c-1-2.3-2.9-4.6-5.4-4.9"/><path class="v" d="M1237,384.2l-1.6,6A41.46,41.46,0,0,0,1237,384.2Zm-10.1-6.3c8.1-.9,25.3-1.6,25.3-1.6a224.58,224.58,0,0,1-10.3,28c.1-5.1-3.9-7.2-8-8.4-6.2-1.8-13.4,1.2-15.2,5h-.1c3.4-6.7,7.2-15.5,8.3-23Z"/><path class="w" d="M1241.9,404.2a224.58,224.58,0,0,0,10.3-28s-17.2.8-25.3,1.6c-1.1,7.5-4.9,16.3-8.3,22.9-.7,1.3-1.4,2.6-2,3.8-1,1.8-2,3.7-3,5.5a195.51,195.51,0,0,0-11.9,27,125.1,125.1,0,0,0,13.4-.9c3.3-.4,12.9-1.1,12.9-1.1,1.9-6.4,6.5-15.9,8.9-20.3.2-.4.4-.7.6-1.1C1238.9,410.7,1240.4,407.6,1241.9,404.2Zm16.5-32.3c-2.9,11.7-7.8,26.1-12.8,36.2-4.9,9.8-10.8,19.7-13.5,31.5-10.6.9-25.6,2.6-36.6,2.4.2-1.8,2.5-8.7,4.1-13.2,3.2-9,6.8-14.9,10.3-21.5,6-11.3,10.3-21.6,12.8-34.8a267.52,267.52,0,0,1,35.7-.6Z"/><path class="x" d="M1235.3,390.2l1.6-6A25.94,25.94,0,0,1,1235.3,390.2Z"/><path class="y" d="M1233.9,395.8c4.1,1.2,8.1,3.3,8,8.4q-2.25,5.1-4.5,9.3c-4.1,4.6-21.9,8.5-23.8-3.5h-.1c1-1.8,2-3.7,3-5.5.6-1.1,1.3-2.4,2-3.8h.1C1220.5,397,1227.7,394,1233.9,395.8Z"/><path class="v" d="M1237.5,413.5a10.59,10.59,0,0,1-.6,1.1,139.26,139.26,0,0,0-8.9,20.3s-9.5.7-12.9,1.1a130.51,130.51,0,0,1-13.4.9,208,208,0,0,1,11.9-27h.1C1215.5,422,1233.4,418.1,1237.5,413.5Zm-21.3,17.3,2.7-6.4A17,17,0,0,0,1216.2,430.8Z"/><path class="x" d="M1218.9,424.4l-2.7,6.4A17,17,0,0,1,1218.9,424.4Z"/><path class="r" d="M1195.6,441.9c11.1.2,26-1.5,36.6-2.4,2.7-11.8,8.6-21.7,13.5-31.5,5-10.1,9.9-24.5,12.8-36.2a281.94,281.94,0,0,0-35.6.6c-2.5,13.2-6.8,23.5-12.8,34.8-3.5,6.5-7.1,12.5-10.3,21.5C1198.1,433.2,1195.7,440.1,1195.6,441.9Z"/><path class="r" d="M1237.5,413.5a10.59,10.59,0,0,1-.6,1.1,139.26,139.26,0,0,0-8.9,20.3s-9.5.7-12.9,1.1a130.51,130.51,0,0,1-13.4.9,208,208,0,0,1,11.9-27c1-1.8,2-3.7,3-5.5.6-1.1,1.3-2.4,2-3.8,3.4-6.6,7.2-15.4,8.3-22.9,8.1-.9,25.3-1.6,25.3-1.6a224.58,224.58,0,0,1-10.3,28C1240.4,407.6,1238.9,410.7,1237.5,413.5Z"/><path class="r" d="M1213.7,410.1c1.8,12,19.7,8.1,23.8,3.5l.2-.2"/><path class="r" d="M1218.7,400.8c1.8-3.8,9-6.8,15.2-5,4.1,1.2,8.1,3.3,8,8.4v.2"/><path class="r" d="M1216.2,430.8a19,19,0,0,1,2.7-6.4"/><path class="r" d="M1235.3,390.2a29.69,29.69,0,0,0,1.6-6"/><line class="r" x1="1237" y1="384.2" x2="1237" y2="384"/><ellipse class="z" cx="1390.96" cy="361.65" rx="9.7" ry="14.4" transform="translate(895.78 1710.86) rotate(-84.42)"/><ellipse class="z" cx="1391.13" cy="359" rx="9" ry="14.4" transform="translate(898.56 1708.63) rotate(-84.42)"/><ellipse class="z" cx="1175.79" cy="524.72" rx="7.1" ry="10.5" transform="translate(539.23 1643.91) rotate(-84.42)"/><ellipse class="z" cx="1176.05" cy="522.83" rx="6.6" ry="10.5" transform="translate(541.34 1642.47) rotate(-84.42)"/><path class="d" d="M1472.3,241.7c2.2,2.8-.8,8.9-6.6,13.5s-12.1,5.7-14.7,3.1c-5.3-5.3-1.1-11.2,4.8-15.8S1468.4,236.7,1472.3,241.7Z"/><ellipse class="aa" cx="1459.39" cy="247.27" rx="13.5" ry="6.1" transform="translate(155.3 947.5) rotate(-37.85)"/><path class="a" d="M1372.1,539.4c-6.8-4.3-12.5,3.6-5.4,7.4C1373.6,550.5,1377.2,543.7,1372.1,539.4Z"/><path class="ab" d="M1357.4,284.1c3.2-3.2,8,4.9,1.2,6.6-4.5,1.2-6.8-3.1-4.1-6.1"/><path class="ac" d="M1372.7,259.6c.9-3.1,2.1-11.1,5.8-12.3,2.9-.9,3,2.1,4.5,3.3,1,.9,2.6,0,3.1,2,.6,2.5-2.4,4.7-4.1,5.8a73.29,73.29,0,0,1-7.8,4.1c-1,.4-2.1.7-3.1,1.2-.2.1-1.1.3-.1,0"/><path class="ad" d="M1378.4,247.1c3.3.1,1,5.8.2,7.1-2.1,3.5-6.4,8.5-10.5,9.8"/><path class="ae" d="M1366.8,241.7c6.3-2.6,12.3-9.8,19-11.7,6.4-1.9,22.8,4.6,22.5,12.6-.4,11.1-17.7-1.3-21.7-1.8s-12.3,3.4-15.8,5.5"/><path class="ae" d="M1367.5,241.8c-4.6-.9-4.2-.4-3.5-4.5.8-4.5,3.5-10,7.5-11.9,3.6-1.7,19.4,1,17.8-4.3-2.4-8-21.3-7.6-26.7-4.2-7,4.5-5.9,15.5-6.3,22.4-.2,2.7-1.5,1.7-5.3,3.5-5.7,2.7-5.2,11.3-.8,15.6,5.7,5.6,17.1,5.4,23.8,1.7,4.8-2.7,3.8-13.2-.8-14.4"/><path class="ac" d="M1366.3,260.8c5.4,1.6,11.6-3.6,15.6-6.5a25.14,25.14,0,0,1,12.6-5.2c4.1-.4,6.7,1.7,10.3,3.1-1.8,2.1-4.9,2.6-2.4,5.4.8.9,2.5,1.8.4,2.1-1.7.3-4.1-2.5-5.4-3.3-5.3-3.3-9.2-.1-14.2,2.2-4,1.8-8.1,3.5-12.7,2.4"/><path class="af" d="M1358.4,252.3s-.3,1.6-.4,2.4"/><path class="ag" d="M1364.3,247.5c1,.4,2-1,1.2-1.6-1.2-.9-1.6,1.1-1.7,1.6"/><path class="ag" d="M1359.8,245.9c.8-.2,1.4-1.9-.1-2-1.2-.1-1.2,1.7-.2,2.2"/><path class="ah" d="M1357.1,247.5c3.4-1.5,8.8,3.3,4.4,5.1-3.9,1.6-7.5-3.6-4.4-5.1"/><path class="af" d="M1373.1,247.2a1.23,1.23,0,0,1-.6-.1"/><path class="af" d="M1370.5,247.2a.87.87,0,0,1-.5-.1"/><path class="af" d="M1368,247.2a1.23,1.23,0,0,1-.6-.1"/><path class="af" d="M1355.3,242.2a1.42,1.42,0,0,0,.2.6"/><path class="af" d="M1356.5,243.8c0,.2.1.3.1.5"/><path class="ad" d="M1360.5,258.5c-1.2-1.8-1.7-1.7-2.3-3.9a10.82,10.82,0,0,1-4.5,1.4"/><path class="ai" d="M1371.1,251.2a5.35,5.35,0,0,0-4,3.1c-.3,1.7,1.5,3.3,2.2,4,1.5,1.5,4.8,3,7.7,1.1a9.77,9.77,0,0,0,.7-3.2C1377.5,252.9,1374,250.8,1371.1,251.2Z"/><path class="k" d="M1369.2,258.3c-.7-.7-2.5-2.3-2.2-4-.8,1.2-1.4,2.7-2.2,3.9-1.1,1.7-.8,1.9-2.6,2.8l-1.8,1.1a3.09,3.09,0,0,1-1,.4c.3-.1.7-.3,1-.4l-9.9-5.7c-5.5-2.5-5.3-7.1-6.3-10.5a5.41,5.41,0,0,1-2.5,3.8,6.35,6.35,0,0,1-4.2,1.3c-1.1.1-3.8-.4-4.5-1.3h-.1c.1.4.2.8.3,1.1,1.8,5.1,6.3,9.3,9.1,12.9,1.4,1.9-2.5,3.3-3.5,3.3-2.8-.2-3.6-.8-3.9-2a9.78,9.78,0,0,1-1,5.7,3,3,0,0,1-4.13,1,3.18,3.18,0,0,1-.37-.27c.5.5,1.2,1,2,1.7,4,3.2,6.9,6,11.9,8.1,5.2,2.2,7.7,5.3,14.3,3.9,6.4-1.4,9.3-7.8,10.7-13.8h0c.2-.2,1.5-1.8,2.2-2.4a17.19,17.19,0,0,0,3.3-3.3,24.24,24.24,0,0,0,2.6-5,5.74,5.74,0,0,1,.5-1.2C1374,261.3,1370.7,259.8,1369.2,258.3Zm-23.4,23.9c-8.1-2.2.8-16.5,6.2-16.9,9.3-2.3,2,19.1-6.2,16.9Z"/><path class="ai" d="M1351.9,265.2c9.3-2.3,2,19.2-6.2,16.9C1337.7,280,1346.6,265.7,1351.9,265.2Z"/><path class="ai" d="M1340.5,242.1c-5-1.2-8.2,3.5-7.5,7.7h.1c.7.9,3.4,1.4,4.5,1.3a6.35,6.35,0,0,0,4.2-1.3,5.41,5.41,0,0,0,2.5-3.8A4.89,4.89,0,0,0,1340.5,242.1Z"/><path class="aj" d="M1334,261.8a8.59,8.59,0,0,1,.9,3.4A15.51,15.51,0,0,0,1334,261.8Z"/><path class="ai" d="M1334,261.8a3.64,3.64,0,0,0-.4-.9c-1-2.2-2.3-5.5-5.4-5.4-2.6.1-3.3,3.4-3.4,5.4,0,2.8.6,4,1.9,6.6a12.89,12.89,0,0,0,2.6,4h.1a2.91,2.91,0,0,0,4.1-.15,3.09,3.09,0,0,0,.4-.55,9.46,9.46,0,0,0,1-5.7A17.15,17.15,0,0,0,1334,261.8Z"/><path class="ad" d="M1329.4,271.5c.5.5,1.2,1,2,1.7,4,3.2,6.9,6,11.9,8.1,5.2,2.2,7.7,5.3,14.3,3.9,6.4-1.4,9.3-7.8,10.7-13.8"/><path class="ad" d="M1334,261.8a3.64,3.64,0,0,0-.4-.9c-1-2.2-2.3-5.5-5.4-5.4-2.6.1-3.3,3.4-3.4,5.4,0,2.8.6,4,1.9,6.6a12.89,12.89,0,0,0,2.6,4"/><path class="ad" d="M1350.6,256.4c-5.5-2.5-5.3-7.1-6.3-10.5a4.89,4.89,0,0,0-3.8-3.9c-5-1.2-8.2,3.5-7.5,7.7.1.4.2.8.3,1.1,1.8,5.1,6.3,9.3,9.1,12.9,1.4,1.9-2.5,3.3-3.5,3.3-2.8-.2-3.6-.8-3.9-2"/><path class="ad" d="M1368.3,271.3h0a20.87,20.87,0,0,1,2.2-2.4,17.19,17.19,0,0,0,3.3-3.3,24.24,24.24,0,0,0,2.6-5,5.74,5.74,0,0,1,.5-1.2,9.77,9.77,0,0,0,.7-3.2c-.1-3.2-3.6-5.3-6.5-4.9a5.35,5.35,0,0,0-4,3.1c-.8,1.2-1.4,2.7-2.2,3.9a11.71,11.71,0,0,1-4.3,4,3.09,3.09,0,0,1-1,.4"/><path class="ad" d="M1376.9,259.3c-2.9,2-6.2.4-7.7-1.1-.7-.7-2.5-2.3-2.2-4"/><path class="ad" d="M1344.3,246a5.41,5.41,0,0,1-2.5,3.8,6.35,6.35,0,0,1-4.2,1.3c-1.1.1-3.8-.4-4.5-1.3"/><path class="ad" d="M1351.9,265.2c9.3-2.3,2,19.2-6.2,16.9C1337.7,280,1346.6,265.7,1351.9,265.2Z"/><path class="ad" d="M1334,261.6v.1a8.59,8.59,0,0,1,.9,3.4,9.77,9.77,0,0,1-1,5.7,3,3,0,0,1-4.13,1,3.18,3.18,0,0,1-.37-.27h-.1"/><path class="c" d="M1270.4,658.3c-2.6-1.7-6.8-1.6-8.8,1-2.4,3.1.9,7.5,4.9,6.8,2.9-.5,5-2.6,4.9-5.2C1271.4,660,1271.2,658.4,1270.4,658.3Z"/><path class="a" d="M1269.8,656.5c-2.4-1.5-6.3-1.5-8.2.9-2.2,2.8.8,6.9,4.6,6.3,2.7-.4,5.3-1.7,5.3-4.1A3.86,3.86,0,0,0,1269.8,656.5Z"/><path class="ak" d="M1377.6,183.7c2.8-.9,2-4.3-.9-4.6-15.6,1-31.7,6.4-44.4,9.4-.3-2.3-3.5-5-5.9-4.9-3.4.2-14.5,2-14,4.4-.1,1.5,9.5-.3,13.1-.6l1.1,3.4c-3.2.4-14.5,1.4-14.1,3.6-.1,2.4,14.1-.7,15.2-.8.1.8,1,2.4.7,3.2-5.1,1.6-14.1,2.3-13.3,4.9-.1,1.5,13.7-.4,16.9-1.5,2.4-.8,2.8-2.7,1.7-7.2C1343,191,1375.8,184.8,1377.6,183.7Z"/><path class="al" d="M1038.3,320.5l.6-1.3c2-2.9,5-5.5,6-8.8.3-1.1-1.2-7.2-2.6-10.7-2.2-5.6-3.3-9.5-6.3-11-2-1-10.5-3.7-12.8-3.5-1.5.1-4.6,1.3-7.3,2.6l-.1-.1c-5.6-1.8-12.9-1.4-15.5,4.9-1.4,3.6,0,7.9.9,11.5,1.2,4.9,2.8,9.8,4.1,14.6,1.7,6.1,3.7,11.9,7.1,16.6,1.8,2.4,5.9,2.8,8.9,3,4.4.2,10.3,1.1,14.3-.9C1043,333.7,1036.7,325.5,1038.3,320.5Z"/><path class="r" d="M1015.8,287.7c-5.6-1.8-12.9-1.4-15.5,4.9-1.4,3.6,0,7.9.9,11.5,1.2,4.9,2.8,9.8,4.1,14.6,1.7,6.1,3.7,11.9,7.1,16.6,1.8,2.4,5.9,2.8,8.9,3,4.4.2,10.3,1.1,14.3-.9,7.4-3.7,1.7-13.2,2.8-17.5"/><path class="r" d="M1024.5,332.8a19.62,19.62,0,0,1-5.3-.3,10.94,10.94,0,0,1-2.5,2.3,14.52,14.52,0,0,0,5.6.5,4.19,4.19,0,0,0,2.2-2.5"/><path class="o" d="M999.4,296.9c-2.3,1.7-4.4,3.3-3.5,6.6,1,3.6,3.5,3.6,6,1.4,3.4-3.1,3.1-9.7-2.9-7.6"/><path class="o" d="M1008.2,320.8c-3.8-3.6-10.4,7-3.2,9.3,4.7,1.5,8.8-7.7,4.1-8.9"/><path class="c" d="M1043.5,312.9c-3.6.7-10.1,0-13.8-.9-3.4-.8-2.6-1.3-5.1,1.1-1.8,1.8-3.8,4.3-2,5,3.1,1.3,11.5,1.9,14.8,2.3"/><path class="c" d="M1019.6,291.5a32.25,32.25,0,0,0,1.7,8.3,75.09,75.09,0,0,0-7.1,3c-2.4,1.3-2.2-3.7-2.6-6C1011.3,295.2,1013.5,293.9,1019.6,291.5Z"/><path class="c" d="M1022,303a17.75,17.75,0,0,0,1.6,6.4,50.23,50.23,0,0,1-7.6,4.9c0-1.8-2.8-6.6-2-8.3,0,.1,6.3-1.7,8-3"/><path class="r" d="M1032,336.1a12.49,12.49,0,0,0,2.3-3.1,12.16,12.16,0,0,0,4.2-.9c.2,3.6-3.5,4.3-6.5,4"/><path class="r" d="M1011.1,291.1c1.4-2.1,9.4-5.7,12.1-5.9,2.3-.2,10.8,2.5,12.8,3.5,2.9,1.5,4,5.4,6.3,11,1.4,3.5,2.7,9.5,2.6,10.7-.5,5.7-4.8,6.6-6.5,9.5"/><polygon class="r" points="1139.1 204.6 1197.4 168.1 1231.2 178.9 1234.6 195.3 1198.1 238.1 1151.1 221.5 1139.1 204.6"/><polyline class="r" points="1139.1 204.6 1188.9 219.5 1231.2 178.9"/><line class="r" x1="1194.2" y1="216.2" x2="1201" y2="234.5"/><path class="r" d="M1202.3,207.2c.4,2.3,5.5,15.2,5.9,18"/><path class="r" d="M1208.8,201c1.2,2.7,5.3,15.4,5.8,17.6"/><path class="r" d="M1215,195.1c1.6,4.6,3.6,12,5.6,16.6"/><path class="r" d="M1221.3,188.9a87.39,87.39,0,0,0,4.8,14.7"/><path class="r" d="M1226.2,183c.4,1.9,5,16.2,5,16.2"/><polyline class="r" points="1151.1 221.5 1199.8 184.1 1234.6 195.3"/><path class="r" d="M1151.3,208.7s8,14.9,7.2,14.8"/><path class="r" d="M1163.2,211.7c.1,2.9,3,6.3,4.2,9,.8,1.9,1.6,3.7,2.5,5.5"/><path class="r" d="M1175,216.8c1.3,3,2.1,5.6,3.2,8.7.5,1.4,2.2,5.7,3.1,6.1"/><line class="r" x1="1150.8" y1="198.5" x2="1158.5" y2="215.3"/><line class="r" x1="1165.3" y1="189.4" x2="1171.9" y2="204.9"/><path class="r" d="M1158.6,193.8c1.2,2.4,5.5,14.7,6.6,15.9"/><path class="r" d="M1173.9,183c.4,2,5.7,12.9,5.8,15.8"/><path class="r" d="M1182.9,178.4c.5,2.8,3.8,10.8,4.7,14.3"/><path class="r" d="M1189.7,173.1c.1,2.7,4.6,15.1,4.6,15.1"/><path class="r" d="M1197,169c.6,4.3,1.8,10.9,2.8,15.1"/><path class="r" d="M1205.4,171.4c1.3,4.2,2,12.5,2.8,15.4"/><path class="r" d="M1214.5,173.9c.8,4.9,2.1,11.2,3.4,16"/><path class="r" d="M1222.8,176.1c-.4-.6.2,1.4.2,1.7.2,1.2,1.1,6.2,1.5,7.4"/><line class="r" x1="1208.2" y1="186.8" x2="1162" y2="223.9"/><line class="r" x1="1214.9" y1="189" x2="1171.3" y2="228.2"/><line class="r" x1="1190.8" y1="191.9" x2="1211.9" y2="197.3"/><line class="r" x1="1181.5" y1="199.2" x2="1202.7" y2="204.6"/><line class="r" x1="1171.2" y1="208" x2="1193.6" y2="213.8"/><path class="d" d="M1233.5,237.5c-4.8,4.3,2,10.9,7.1,6,3.1-3,1.5-10.5-4-8.8m-70.4,28.9c-5.8-1.1-6.3,10-1.1,11.4,8.7,2.2,10.1-10.7,1.1-11.4m-3.9-1.3,47.7-39.8,30.5,7.3-37.6,41.6Zm39.2,2.5,29.5-32.7-19.2-4.5-38.5,32.2Z"/><polyline class="d" points="1167.1 258.2 1139.4 192.5 1134 196.7 1162.3 262.3 1169.1 263.8"/><polyline class="d" points="1205.4 264.1 1184.9 212.2 1178.7 213.6 1200.1 267.2"/><path class="d" d="M1140.8,195.4c-2.1-8.3-10.4-2.3-12.5-1.2-4.9,2.6-15.7,9.2-17.3,11.3-1.9,2.5,1.3,3.5,1.3,3.5,1.1,1.8,6.7-2.9,9.1-4.1,4.4-2.2,9.7-4.9,13.4-6.4"/><path class="d" d="M1185.4,214.3c-1.8-6.3-5-3.7-14,1.1-2,1.1-13.5,7-12.6,9.7,1.6,4.9,8.1,0,9.5-.8,6-3.4,12.1-6.4,12.1-6.4"/><path class="d" d="M1205,269.4c-7.6,3.6-.9,16.3,6.5,7.9,3.8-4.2-1.8-9.5-6.5-7.9"/><path class="d" d="M1299.8,97.1c-3.4-1.4-8.1,1.4-7.7,5.3.5,4.3,6.2,5.1,8.8,2.3C1303.1,102.5,1302.1,98.2,1299.8,97.1Z"/><path class="a" d="M1502.9,53.7c-2.1.7-4,2-6.1,2.8a7.86,7.86,0,0,0,5.9,3.1c.1-2,.8-4,.2-5.9"/><path class="d" d="M893,90.9s-.2,2.9-.3,8a17.08,17.08,0,0,1-4.9-1.8c-.1-1.5-1-2.9-.9-4.4-1,.7-2.6,1-3.5,1.6.2-2.3.7-4.8.7-7.2-2.1-.9-4.3-1.7-6.4-2.4a58.13,58.13,0,0,0-.3,5.9l-7.1-3.4c.2-2.6-.3-4.7.1-7.1m-18-8.9s-2.2,12.7-12.6,9.8c-12.8-3.5-14.4-15.5-13.7-22,1-8.4,7.2-15.9,17.2-10.7,6.3,3.3,9.9,10.4,9.5,16M847,68.5c1.7-3.9-.7-13.4-7.6-14.4-6.3-.9-7.6,4.4-7.7,10.3C831.5,75.5,846,80,847,68.5Z"/><path class="d" d="M892.6,89.9s-.5,4.9-.6,9.9a17.08,17.08,0,0,1-4.9-1.8c-.1-1.5-1-2.9-.9-4.4-1,.7-2.6,1-3.5,1.6.2-2.3.7-4.8.7-7.2-2.1-.9-4.3-1.7-6.4-2.4a58.13,58.13,0,0,0-.3,5.9l-7.1-3.4c.2-2.6-.3-4.7.1-7.1"/><path class="am" d="M850.8,71.3c1.2.4,2.4.9,3.7,1.4a39.21,39.21,0,0,1,3.6,1.6c1.2.6,2.3,1.3,3.4,1.9A38.51,38.51,0,0,1,865,78c1.2.6,2.3,1.3,3.4,1.9s2.3,1.2,3.5,1.8c1,.5,2.1.8,3.1,1.3l3,1.5c1,.5,1.9,1.1,2.9,1.6s2.1.9,3.1,1.3,2.1,1.3,3.2,1.9a11.09,11.09,0,0,0,3.5,1.2,3.43,3.43,0,0,0,3.4-1.9,3.66,3.66,0,0,0,.1-3.9,5.87,5.87,0,0,0-2.6-1.7c-1-.4-2.1-.6-3-1-1.3-.5-2.5-1.2-3.8-1.8s-2.5-1.1-3.8-1.7-2.5-1.3-3.7-1.8a37.21,37.21,0,0,1-3.5-1.5c-1.2-.5-2.3-1.1-3.4-1.6s-2.2-1.2-3.4-1.8-2.3-1-3.5-1.6-2.3-1.2-3.4-1.8-2.2-1.2-3.4-1.8-2.4-1-3.5-1.5"/><path class="r" d="M850.8,71.3c1.2.4,2.4.9,3.7,1.4a39.21,39.21,0,0,1,3.6,1.6c1.2.6,2.3,1.3,3.4,1.9A38.51,38.51,0,0,1,865,78c1.2.6,2.3,1.3,3.4,1.9s2.3,1.2,3.5,1.8c1,.5,2.1.8,3.1,1.3l3,1.5c1,.5,1.9,1.1,2.9,1.6s2.1.9,3.1,1.3,2.1,1.3,3.2,1.9a11.09,11.09,0,0,0,3.5,1.2,3.43,3.43,0,0,0,3.4-1.9,3.66,3.66,0,0,0,.1-3.9,5.87,5.87,0,0,0-2.6-1.7c-1-.4-2.1-.6-3-1-1.3-.5-2.5-1.2-3.8-1.8s-2.5-1.1-3.8-1.7-2.5-1.3-3.7-1.8a37.21,37.21,0,0,1-3.5-1.5c-1.2-.5-2.3-1.1-3.4-1.6s-2.2-1.2-3.4-1.8-2.3-1-3.5-1.6-2.3-1.2-3.4-1.8-2.2-1.2-3.4-1.8-2.4-1-3.5-1.5"/><polygon class="p" points="1235.8 52.6 1239.4 61.3 1243.1 70.1 1253.6 75.9 1262.3 70.2 1270.4 63.7 1267.2 55.6 1264.1 47.3 1255.3 53 1246.5 58.9 1235.8 52.6"/><polygon class="p" points="1235.8 52.6 1239.4 61.3 1243.1 70.1 1253.6 75.9 1262.3 70.2 1270.4 63.7 1267.2 55.6 1264.1 47.3 1255.3 53 1246.5 58.9 1235.8 52.6"/><path class="p" d="M1235.8,52.5l10.7,6.2c6.4-4.1,11.8-7.6,17.6-11.4L1253,41.4Z"/><line class="q" x1="1246.5" y1="58.8" x2="1253.6" y2="76"/><polyline class="p" points="1244.3 47 1245.1 47.4 1254.8 53.4 1261.6 70.6 1263.7 68.7 1257.1 51.9 1246.7 45.5"/><polygon class="an" points="1235.8 52.6 1239.4 61.3 1243.1 70.1 1253.6 75.9 1262.3 70.2 1270.4 63.7 1267.2 55.6 1264.1 47.3 1255.3 53 1246.5 58.9 1235.8 52.6"/><polygon class="r" points="1235.8 52.6 1239.4 61.3 1243.1 70.1 1253.6 75.9 1262.3 70.2 1270.4 63.7 1267.2 55.6 1264.1 47.3 1255.3 53 1246.5 58.9 1235.8 52.6"/><path class="r" d="M1235.8,52.5l10.7,6.2c6.4-4.1,11.8-7.6,17.6-11.4L1253,41.4Z"/><line class="r" x1="1246.5" y1="58.8" x2="1253.6" y2="76"/><polyline class="r" points="1244.3 47 1245.1 47.4 1254.8 53.4 1261.6 70.6 1263.7 68.7 1257.1 51.9 1246.7 45.5"/><polygon class="r" points="1235.8 52.6 1239.4 61.3 1243.1 70.1 1253.6 75.9 1262.3 70.2 1270.4 63.7 1267.2 55.6 1264.1 47.3 1255.3 53 1246.5 58.9 1235.8 52.6"/><polygon class="r" points="1235.8 52.6 1239.4 61.3 1243.1 70.1 1253.6 75.9 1262.3 70.2 1270.4 63.7 1267.2 55.6 1264.1 47.3 1255.3 53 1246.5 58.9 1235.8 52.6"/><path class="r" d="M1235.8,52.5l10.7,6.2c6.4-4.1,11.8-7.6,17.6-11.4L1253,41.4Z"/><line class="r" x1="1246.5" y1="58.8" x2="1253.6" y2="76"/><polyline class="r" points="1244.3 47 1245.1 47.4 1254.8 53.4 1261.6 70.6 1263.7 68.7 1257.1 51.9 1246.7 45.5"/><polygon class="p" points="1421.9 68.1 1419 69.1 1416.1 69.6 1413.3 70.9 1410.4 71.3 1407.7 72.5 1404.8 73.4 1401.9 74 1399.1 75 1396.3 76 1393.3 76.4 1390.6 77.5 1387.8 78.5 1386 81.1 1383.8 83.6 1382 86.4 1380.4 89.2 1381.7 92.1 1383.3 94.8 1384.9 97.7 1386.8 100.3 1388.6 103.1 1390.1 105.9 1392 108.4 1395 107.8 1398 107.1 1400.9 106 1403.9 105.3 1406.9 104.5 1409.9 103.5 1412.8 102.7 1415.8 101.7 1418.9 101.3 1421.8 100.2 1425 99.5 1423.4 96.9 1422.2 94.3 1420.9 91.8 1419.4 89.4 1418 86.8 1416.5 84.4 1415.2 81.8 1414 79.2 1416 76.5 1417.9 73.7 1419.9 70.9 1421.9 68.1"/><polygon class="p" points="1421.9 68.1 1419 69.1 1416.1 69.6 1413.3 70.9 1410.4 71.3 1407.7 72.5 1404.8 73.4 1401.9 74 1399.1 75 1396.3 76 1393.3 76.4 1390.6 77.5 1387.8 78.5 1386 81.1 1383.8 83.6 1382 86.4 1380.4 89.2 1381.7 92.1 1383.3 94.8 1384.9 97.7 1386.8 100.3 1388.6 103.1 1390.1 105.9 1392 108.4 1395 107.8 1398 107.1 1400.9 106 1403.9 105.3 1406.9 104.5 1409.9 103.5 1412.8 102.7 1415.8 101.7 1418.9 101.3 1421.8 100.2 1425 99.5 1423.4 96.9 1422.2 94.3 1420.9 91.8 1419.4 89.4 1418 86.8 1416.5 84.4 1415.2 81.8 1414 79.2 1416 76.5 1417.9 73.7 1419.9 70.9 1421.9 68.1"/><polygon class="p" points="1421.8 68.2 1419.8 70.8 1417.9 73.6 1415.9 76.4 1414.1 79.2 1415.3 81.8 1416.7 84.3 1418 86.8 1419.3 89.4 1420.7 91.9 1422.2 94.3 1423.4 96.9 1424.7 99.3 1426.4 97.2 1427.8 94.8 1429.2 92.5 1430.8 90.2 1432.4 87.9 1430.9 85 1429.3 82.3 1427.8 79.4 1426.2 76.6 1424.9 73.7 1423.4 70.9 1421.8 68.2"/><polygon class="p" points="1421.8 68.2 1419.8 70.8 1417.9 73.6 1415.9 76.4 1414.1 79.2 1415.3 81.8 1416.7 84.3 1418 86.8 1419.3 89.4 1420.7 91.9 1422.2 94.3 1423.4 96.9 1424.7 99.3 1426.4 97.2 1427.8 94.8 1429.2 92.5 1430.8 90.2 1432.4 87.9 1430.9 85 1429.3 82.3 1427.8 79.4 1426.2 76.6 1424.9 73.7 1423.4 70.9 1421.8 68.2"/><polyline class="p" points="1414.1 79.3 1405.6 81.8 1397.1 84 1388.7 86.7 1380.2 89.2"/><polyline class="p" points="1414.1 79.3 1405.6 81.8 1397.1 84 1388.7 86.7 1380.2 89.2"/><polygon class="p" points="1418.8 72.4 1385.6 81.3 1383.8 83.9 1417 74.9 1427.9 94.5 1429.5 92.8 1418.8 72.4"/><polyline class="p" points="1427 78 1426.5 78.7 1419.1 88.8 1385.3 98.4 1387.2 100.8 1420.5 91.4 1428.4 80.6"/><path class="p" d="M1424.1,84.6c-.2-3.1-.2-8.3,3.2-9.5,1.7-.6,3.9-.4,2.9,1.7-.7,1.5-3,2.6-4,3.8A8.21,8.21,0,0,0,1424.1,84.6Z"/><path class="p" d="M1429.8,75a8,8,0,0,1,2.6,2.9c.5,1.6-3.3,2.3-4.7,3.8s-1,3.8-3.6,3.1c1-2,.8-4.1,2.7-5.6C1428.1,77.9,1430.7,77.5,1429.8,75Z"/><path class="p" d="M1425.8,84.1c.8-2.1,3.8-2.9,5.7-3.2a12.06,12.06,0,0,0,4.6-1.2,16.18,16.18,0,0,0,1.8-1.9c-.3-.4-1,0-1.3-.5s.2-1.2-.2-1.7c-.7.5-1,1.5-1.7,2a7.89,7.89,0,0,1-2.9,1,11.23,11.23,0,0,0-3.9,1.3,9.47,9.47,0,0,0-2.9,3.7"/><path class="p" d="M1425.5,84.9c1.9-.4,4.2,1.3,5.2,2.8a5.91,5.91,0,0,0,2.3,2.4c.7.3,1.9.5,2.1,1.3-.4.1-1-.1-1.4.1s-.2.3-.3.7c-.1,1.1-.4.6-1.2.1a6.68,6.68,0,0,1-1.4-.9,8.68,8.68,0,0,1-1.2-1.5c-.9-.9-1.4-2-2.3-2.9a9.43,9.43,0,0,0-2.7-1.9"/><path class="p" d="M1423.6,84.8c0-.3-.2-.6-.1-.9.1-.5.3-.3.8-.3.8,0,1.7.1,1.7,1,0,1.2-1.8.5-2.5.3C1423.6,84.9,1423.6,84.9,1423.6,84.8Z"/><path class="p" d="M1423.6,85.1c3.2-.6,1.7,4.4,2.1,6,.1.3.7,1.3.3,1.6a.89.89,0,0,1-1.1-.2,6.41,6.41,0,0,1-1.3-2.3,4.78,4.78,0,0,1,.2-2.4C1423.8,87,1424.1,85.5,1423.6,85.1Z"/><polygon class="s" points="1421.9 68.1 1419 69.1 1416.1 69.6 1413.3 70.9 1410.4 71.3 1407.7 72.5 1404.8 73.4 1401.9 74 1399.1 75 1396.3 76 1393.3 76.4 1390.6 77.5 1387.8 78.5 1386 81.1 1383.8 83.6 1382 86.4 1380.4 89.2 1381.7 92.1 1383.3 94.8 1384.9 97.7 1386.8 100.3 1388.6 103.1 1390.1 105.9 1392 108.4 1395 107.8 1398 107.1 1400.9 106 1403.9 105.3 1406.9 104.5 1409.9 103.5 1412.8 102.7 1415.8 101.7 1418.9 101.3 1421.8 100.2 1425 99.5 1423.4 96.9 1422.2 94.3 1420.9 91.8 1419.4 89.4 1418 86.8 1416.5 84.4 1415.2 81.8 1414 79.2 1416 76.5 1417.9 73.7 1419.9 70.9 1421.9 68.1"/><polygon class="r" points="1421.9 68.1 1419 69.1 1416.1 69.6 1413.3 70.9 1410.4 71.3 1407.7 72.5 1404.8 73.4 1401.9 74 1399.1 75 1396.3 76 1393.3 76.4 1390.6 77.5 1387.8 78.5 1386 81.1 1383.8 83.6 1382 86.4 1380.4 89.2 1381.7 92.1 1383.3 94.8 1384.9 97.7 1386.8 100.3 1388.6 103.1 1390.1 105.9 1392 108.4 1395 107.8 1398 107.1 1400.9 106 1403.9 105.3 1406.9 104.5 1409.9 103.5 1412.8 102.7 1415.8 101.7 1418.9 101.3 1421.8 100.2 1425 99.5 1423.4 96.9 1422.2 94.3 1420.9 91.8 1419.4 89.4 1418 86.8 1416.5 84.4 1415.2 81.8 1414 79.2 1416 76.5 1417.9 73.7 1419.9 70.9 1421.9 68.1"/><polygon class="s" points="1421.8 68.2 1419.8 70.8 1417.9 73.6 1415.9 76.4 1414.1 79.2 1415.3 81.8 1416.7 84.3 1418 86.8 1419.3 89.4 1420.7 91.9 1422.2 94.3 1423.4 96.9 1424.7 99.3 1426.4 97.2 1427.8 94.8 1429.2 92.5 1430.8 90.2 1432.4 87.9 1430.9 85 1429.3 82.3 1427.8 79.4 1426.2 76.6 1424.9 73.7 1423.4 70.9 1421.8 68.2"/><polygon class="r" points="1421.8 68.2 1419.8 70.8 1417.9 73.6 1415.9 76.4 1414.1 79.2 1415.3 81.8 1416.7 84.3 1418 86.8 1419.3 89.4 1420.7 91.9 1422.2 94.3 1423.4 96.9 1424.7 99.3 1426.4 97.2 1427.8 94.8 1429.2 92.5 1430.8 90.2 1432.4 87.9 1430.9 85 1429.3 82.3 1427.8 79.4 1426.2 76.6 1424.9 73.7 1423.4 70.9 1421.8 68.2"/><polyline class="aj" points="1414.1 79.3 1405.6 81.8 1397.1 84 1388.7 86.7 1380.2 89.2"/><polyline class="r" points="1414.1 79.3 1405.6 81.8 1397.1 84 1388.7 86.7 1380.2 89.2"/><polygon class="c" points="1418.8 72.4 1385.6 81.3 1383.8 83.9 1417 74.9 1427.9 94.5 1429.5 92.8 1418.8 72.4"/><polyline class="c" points="1427 78 1426.5 78.7 1419.1 88.8 1385.3 98.4 1387.2 100.8 1420.5 91.4 1428.4 80.6"/><path class="c" d="M1424.1,84.6c-.2-3.1-.2-8.3,3.2-9.5,1.7-.6,3.9-.4,2.9,1.7-.7,1.5-3,2.6-4,3.8A8.21,8.21,0,0,0,1424.1,84.6Z"/><path class="c" d="M1429.8,75a8,8,0,0,1,2.6,2.9c.5,1.6-3.3,2.3-4.7,3.8s-1,3.8-3.6,3.1c1-2,.8-4.1,2.7-5.6C1428.1,77.9,1430.7,77.5,1429.8,75Z"/><path class="c" d="M1425.8,84.1c.8-2.1,3.8-2.9,5.7-3.2a12.06,12.06,0,0,0,4.6-1.2,16.18,16.18,0,0,0,1.8-1.9c-.3-.4-1,0-1.3-.5s.2-1.2-.2-1.7c-.7.5-1,1.5-1.7,2a7.89,7.89,0,0,1-2.9,1,11.23,11.23,0,0,0-3.9,1.3,9.47,9.47,0,0,0-2.9,3.7"/><path class="c" d="M1425.5,84.9c1.9-.4,4.2,1.3,5.2,2.8a5.91,5.91,0,0,0,2.3,2.4c.7.3,1.9.5,2.1,1.3-.4.1-1-.1-1.4.1s-.2.3-.3.7c-.1,1.1-.4.6-1.2.1a6.68,6.68,0,0,1-1.4-.9,8.68,8.68,0,0,1-1.2-1.5c-.9-.9-1.4-2-2.3-2.9a9.43,9.43,0,0,0-2.7-1.9"/><path class="ao" d="M1423.6,84.8c0-.3-.2-.6-.1-.9.1-.5.3-.3.8-.3.8,0,1.7.1,1.7,1,0,1.2-1.8.5-2.5.3C1423.6,84.9,1423.6,84.9,1423.6,84.8Z"/><path class="c" d="M1423.6,85.1c3.2-.6,1.7,4.4,2.1,6,.1.3.7,1.3.3,1.6a.89.89,0,0,1-1.1-.2,6.41,6.41,0,0,1-1.3-2.3,4.78,4.78,0,0,1,.2-2.4C1423.8,87,1424.1,85.5,1423.6,85.1Z"/><polygon class="r" points="1421.9 68.1 1419 69.1 1416.1 69.6 1413.3 70.9 1410.4 71.3 1407.7 72.5 1404.8 73.4 1401.9 74 1399.1 75 1396.3 76 1393.3 76.4 1390.6 77.5 1387.8 78.5 1386 81.1 1383.8 83.6 1382 86.4 1380.4 89.2 1381.7 92.1 1383.3 94.8 1384.9 97.7 1386.8 100.3 1388.6 103.1 1390.1 105.9 1392 108.4 1395 107.8 1398 107.1 1400.9 106 1403.9 105.3 1406.9 104.5 1409.9 103.5 1412.8 102.7 1415.8 101.7 1418.9 101.3 1421.8 100.2 1425 99.5 1423.4 96.9 1422.2 94.3 1420.9 91.8 1419.4 89.4 1418 86.8 1416.5 84.4 1415.2 81.8 1414 79.2 1416 76.5 1417.9 73.7 1419.9 70.9 1421.9 68.1"/><polygon class="r" points="1421.9 68.1 1419 69.1 1416.1 69.6 1413.3 70.9 1410.4 71.3 1407.7 72.5 1404.8 73.4 1401.9 74 1399.1 75 1396.3 76 1393.3 76.4 1390.6 77.5 1387.8 78.5 1386 81.1 1383.8 83.6 1382 86.4 1380.4 89.2 1381.7 92.1 1383.3 94.8 1384.9 97.7 1386.8 100.3 1388.6 103.1 1390.1 105.9 1392 108.4 1395 107.8 1398 107.1 1400.9 106 1403.9 105.3 1406.9 104.5 1409.9 103.5 1412.8 102.7 1415.8 101.7 1418.9 101.3 1421.8 100.2 1425 99.5 1423.4 96.9 1422.2 94.3 1420.9 91.8 1419.4 89.4 1418 86.8 1416.5 84.4 1415.2 81.8 1414 79.2 1416 76.5 1417.9 73.7 1419.9 70.9 1421.9 68.1"/><polygon class="r" points="1421.8 68.2 1419.8 70.8 1417.9 73.6 1415.9 76.4 1414.1 79.2 1415.3 81.8 1416.7 84.3 1418 86.8 1419.3 89.4 1420.7 91.9 1422.2 94.3 1423.4 96.9 1424.7 99.3 1426.4 97.2 1427.8 94.8 1429.2 92.5 1430.8 90.2 1432.4 87.9 1430.9 85 1429.3 82.3 1427.8 79.4 1426.2 76.6 1424.9 73.7 1423.4 70.9 1421.8 68.2"/><polygon class="r" points="1421.8 68.2 1419.8 70.8 1417.9 73.6 1415.9 76.4 1414.1 79.2 1415.3 81.8 1416.7 84.3 1418 86.8 1419.3 89.4 1420.7 91.9 1422.2 94.3 1423.4 96.9 1424.7 99.3 1426.4 97.2 1427.8 94.8 1429.2 92.5 1430.8 90.2 1432.4 87.9 1430.9 85 1429.3 82.3 1427.8 79.4 1426.2 76.6 1424.9 73.7 1423.4 70.9 1421.8 68.2"/><polyline class="r" points="1414.1 79.3 1405.6 81.8 1397.1 84 1388.7 86.7 1380.2 89.2"/><polyline class="r" points="1414.1 79.3 1405.6 81.8 1397.1 84 1388.7 86.7 1380.2 89.2"/><polygon class="r" points="1418.8 72.4 1385.6 81.3 1383.8 83.9 1417 74.9 1427.9 94.5 1429.5 92.8 1418.8 72.4"/><polyline class="r" points="1427 78 1426.5 78.7 1419.1 88.8 1385.3 98.4 1387.2 100.8 1420.5 91.4 1428.4 80.6"/><path class="r" d="M1424.1,84.6c-.2-3.1-.2-8.3,3.2-9.5,1.7-.6,3.9-.4,2.9,1.7-.7,1.5-3,2.6-4,3.8A8.21,8.21,0,0,0,1424.1,84.6Z"/><path class="r" d="M1429.8,75a8,8,0,0,1,2.6,2.9c.5,1.6-3.3,2.3-4.7,3.8s-1,3.8-3.6,3.1c1-2,.8-4.1,2.7-5.6C1428.1,77.9,1430.7,77.5,1429.8,75Z"/><path class="r" d="M1425.8,84.1c.8-2.1,3.8-2.9,5.7-3.2a12.06,12.06,0,0,0,4.6-1.2,16.18,16.18,0,0,0,1.8-1.9c-.3-.4-1,0-1.3-.5s.2-1.2-.2-1.7c-.7.5-1,1.5-1.7,2a7.89,7.89,0,0,1-2.9,1,11.23,11.23,0,0,0-3.9,1.3,9.47,9.47,0,0,0-2.9,3.7"/><path class="r" d="M1425.5,84.9c1.9-.4,4.2,1.3,5.2,2.8a5.91,5.91,0,0,0,2.3,2.4c.7.3,1.9.5,2.1,1.3-.4.1-1-.1-1.4.1s-.2.3-.3.7c-.1,1.1-.4.6-1.2.1a6.68,6.68,0,0,1-1.4-.9,8.68,8.68,0,0,1-1.2-1.5c-.9-.9-1.4-2-2.3-2.9a9.43,9.43,0,0,0-2.7-1.9"/><path class="r" d="M1423.6,84.8c0-.3-.2-.6-.1-.9.1-.5.3-.3.8-.3.8,0,1.7.1,1.7,1,0,1.2-1.8.5-2.5.3C1423.6,84.9,1423.6,84.9,1423.6,84.8Z"/><path class="r" d="M1423.6,85.1c3.2-.6,1.7,4.4,2.1,6,.1.3.7,1.3.3,1.6a.89.89,0,0,1-1.1-.2,6.41,6.41,0,0,1-1.3-2.3,4.78,4.78,0,0,1,.2-2.4C1423.8,87,1424.1,85.5,1423.6,85.1Z"/><path class="d" d="M1521.3,160c-5.2.4-7-2.4-6.8-7.4.2-4,1.9-7.7,6.1-9a7.36,7.36,0,0,1,7.8,2.7c2.6,3.4,1,11-3.3,12.4A15,15,0,0,1,1521.3,160Zm.5-4.3c3-.2,5.2-5.5,2.5-7.4s-5.9,2.2-5.4,4.9a2.68,2.68,0,0,0,2.82,2.51Z"/><path class="a" d="M172.8,354.8a8.3,8.3,0,0,0-12.3,3.9c-1.1,3.2,1.8,6.8,5.3,8,5.2,1.8,12.7-4.8,10-9.2C175.1,356.3,173.9,355,172.8,354.8Z"/><path class="ap" d="M857.42,536.12c-.72-.15-.25.64-.5,1.34s-.2.71-.45,1.41-.23.7-.48,1.4-.34.66-.59,1.36-.2.71-.45,1.41-.2.71-.45,1.41l-.5,1.39c-.25.7-.36.66-.61,1.36s-.41.68-.47,1.42.21.73.36,1.48.1.75.25,1.49.18.73.32,1.48.11.75.26,1.49.21.73.36,1.47.13.74.28,1.48.08.76.22,1.5.23.73.37,1.47.09.75.24,1.5.11.75.26,1.49.21.73.36,1.47.11.75.26,1.5l.3,1.49c.15.74,0,.79.33,1.48l1.45.53c.48.18,1,.31,1.47.49s.94.45,1.43.62,1,.28,1.49.45,1,.41,1.44.58,1,.27,1.5.44,1,.38,1.45.54l1.47.51c.49.16,1,.26,1.49.43l1.48.47c.5.16,1,.28,1.49.44l1.48.47c.49.16,1,.35,1.47.5l1.47.48,1.49.44,1.49.44c.49.15,1,.33,1.47.47s1,.22,1.51.36l1.5.39,1.49.42,1.49.39c.5.14,1,.3,1.49.43s1,.29,1.49.42l1.5.39c.5.12,1,.28,1.49.41s1,.21,1.52.33l1.5.36,1.5.35c.51.12,1,.2,1.52.31s1,.28,1.5.39l1.51.29c.51.11,1,.17,1.52.27s1,.22,1.51.31l1.52.24c.52-.58.36-.69.7-1.39s.35-.7.69-1.4.33-.71.67-1.41.32-.72.66-1.42.3-.73.64-1.43.38-.69.72-1.39.35-.71.69-1.41,1-.73.73-1.45-.81-.21-1.57-.43-.76-.18-1.52-.39-.75-.25-1.51-.46-.74-.25-1.5-.46l-1.52-.43c-.76-.21-.78-.16-1.53-.38s-.75-.25-1.51-.46L901,569c-.76-.21-.76-.2-1.52-.42s-.75-.24-1.51-.45-.77-.17-1.53-.39l-1.52-.41c-.76-.22-.75-.25-1.51-.47l-1.52-.42c-.76-.21-.74-.26-1.5-.47s-.78-.15-1.54-.37l-1.52-.43c-.76-.22-.75-.24-1.51-.46s-.75-.24-1.51-.45-.76-.2-1.52-.42-.75-.26-1.51-.48l-1.52-.43c-.76-.22-.78-.14-1.54-.35s-.75-.26-1.51-.48-.76-.19-1.52-.41-.77-.19-1.52-.41-.77-.2-1.53-.42l-1.52-.44c-.76-.22-.75-.23-1.51-.44l-1.52-.44c-.76-.22-.76-.24-1.52-.45s-.74-.29-1.5-.5L863,558.2c-.76-.22-1,.15-1.5-.43s-.21-.74-.36-1.51-.06-.79-.21-1.57-.13-.78-.28-1.55-.23-.76-.38-1.54-.09-.78-.24-1.55-.16-.77-.31-1.55-.18-.77-.33-1.54-.13-.78-.27-1.55-.1-.79-.25-1.56-.12-.79-.26-1.56-.15-.78-.29-1.55-.2-.77-.35-1.55-.36-.77-.31-1.56S858.2,536.29,857.42,536.12Z"/><path class="aq" d="M857.42,536.12c-.72-.15-.25.64-.5,1.34s-.2.71-.45,1.41-.23.7-.48,1.4-.34.66-.59,1.36-.2.71-.45,1.41-.2.71-.45,1.41l-.5,1.39c-.25.7-.36.66-.61,1.36s-.41.68-.47,1.42.21.73.36,1.48.1.75.25,1.49.18.73.32,1.48.11.75.26,1.49.21.73.36,1.47.13.74.28,1.48.08.76.22,1.5.23.73.37,1.47.09.75.24,1.5.11.75.26,1.49.21.73.36,1.47.11.75.26,1.5l.3,1.49c.15.74,0,.79.33,1.48l1.45.53c.48.18,1,.31,1.47.49s.94.45,1.43.62,1,.28,1.49.45,1,.41,1.44.58,1,.27,1.5.44,1,.38,1.45.54l1.47.51c.49.16,1,.26,1.49.43l1.48.47c.5.16,1,.28,1.49.44l1.48.47c.49.16,1,.35,1.47.5l1.47.48,1.49.44,1.49.44c.49.15,1,.33,1.47.47s1,.22,1.51.36l1.5.39,1.49.42,1.49.39c.5.14,1,.3,1.49.43s1,.29,1.49.42l1.5.39c.5.12,1,.28,1.49.41s1,.21,1.52.33l1.5.36,1.5.35c.51.12,1,.2,1.52.31s1,.28,1.5.39l1.51.29c.51.11,1,.17,1.52.27s1,.22,1.51.31l1.52.24c.52-.58.36-.69.7-1.39s.35-.7.69-1.4.33-.71.67-1.41.32-.72.66-1.42.3-.73.64-1.43.38-.69.72-1.39.35-.71.69-1.41,1-.73.73-1.45-.81-.21-1.57-.43-.76-.18-1.52-.39-.75-.25-1.51-.46-.74-.25-1.5-.46l-1.52-.43c-.76-.21-.78-.16-1.53-.38s-.75-.25-1.51-.46L901,569c-.76-.21-.76-.2-1.52-.42s-.75-.24-1.51-.45-.77-.17-1.53-.39l-1.52-.41c-.76-.22-.75-.25-1.51-.47l-1.52-.42c-.76-.21-.74-.26-1.5-.47s-.78-.15-1.54-.37l-1.52-.43c-.76-.22-.75-.24-1.51-.46s-.75-.24-1.51-.45-.76-.2-1.52-.42-.75-.26-1.51-.48l-1.52-.43c-.76-.22-.78-.14-1.54-.35s-.75-.26-1.51-.48-.76-.19-1.52-.41-.77-.19-1.52-.41-.77-.2-1.53-.42l-1.52-.44c-.76-.22-.75-.23-1.51-.44l-1.52-.44c-.76-.22-.76-.24-1.52-.45s-.74-.29-1.5-.5L863,558.2c-.76-.22-1,.15-1.5-.43s-.21-.74-.36-1.51-.06-.79-.21-1.57-.13-.78-.28-1.55-.23-.76-.38-1.54-.09-.78-.24-1.55-.16-.77-.31-1.55-.18-.77-.33-1.54-.13-.78-.27-1.55-.1-.79-.25-1.56-.12-.79-.26-1.56-.15-.78-.29-1.55-.2-.77-.35-1.55-.36-.77-.31-1.56S858.2,536.29,857.42,536.12Z"/><path class="ar" d="M857.42,536.06c-.77.65.08,1,.26,2s.4.95.59,1.93,0,1,.18,2,.22,1,.4,2,.39.95.58,1.93.07,1,.26,2,.13,1,.32,2,.35,1,.54,2,0,1,.17,2,.28,1,.46,2-.06,1.06.35,2c.64.27,1.28.49,1.91.76l1.92.8c.64.26,1.32.42,2,.68s1.21.7,1.86,1,1.32.41,2,.66,1.31.46,2,.7,1.26.6,1.91.83,1.26.58,1.91.81,1.35.33,2,.56,1.34.36,2,.58l2,.62c.66.21,1.31.46,2,.66s1.31.44,2,.64,1.29.52,2,.71,1.39.16,2,.34,1.34.34,2,.51,1.28.59,1.95.75,1.4.09,2.07.25,1.35.27,2,.42,1.31.48,2,.62,1.37.19,2,.32,1.33.41,2,.53,1.41-.07,2.08,0,1.34.43,2,.52,1.36.24,2,.33,1.43,0,2.11.12c.11-1-.39-1-.63-2s-.26-1-.5-2,.05-1.07-.19-2.06-.43-1-.67-2-.25-1-.49-2-.22-1-.46-2-.11-1-.35-2-.26-1-.5-2l-.48-2c-.24-1-.4-1-.64-2s.42-1.38-.29-2.12-1.11-.21-2.11-.5-1-.31-2-.6-1-.36-2-.65-1-.25-2-.54-1.05-.12-2.06-.41-1-.45-2-.74-1.06-.13-2.07-.42-.94-.51-2-.8-1-.14-2.06-.43-1-.24-2-.53-1-.34-2-.63-1-.43-2-.72-1-.31-2-.6-1.07-.1-2.08-.39-1-.39-2-.68-1.06-.12-2.07-.41-.94-.54-2-.83-1-.26-2-.55-1-.26-2-.55-1.07-.06-2.08-.35-.93-.58-1.94-.87-1.09,0-2.1-.27-.93-.6-1.94-.89-1.21.21-2.13-.31S858.22,535.38,857.42,536.06Z"/><path class="aq" d="M857.42,536.06c-.77.65.08,1,.26,2s.4.95.59,1.93,0,1,.18,2,.22,1,.4,2,.39.95.58,1.93.07,1,.26,2,.13,1,.32,2,.35,1,.54,2,0,1,.17,2,.28,1,.46,2-.06,1.06.35,2c.64.27,1.28.49,1.91.76l1.92.8c.64.26,1.32.42,2,.68s1.21.7,1.86,1,1.32.41,2,.66,1.31.46,2,.7,1.26.6,1.91.83,1.26.58,1.91.81,1.35.33,2,.56,1.34.36,2,.58l2,.62c.66.21,1.31.46,2,.66s1.31.44,2,.64,1.29.52,2,.71,1.39.16,2,.34,1.34.34,2,.51,1.28.59,1.95.75,1.4.09,2.07.25,1.35.27,2,.42,1.31.48,2,.62,1.37.19,2,.32,1.33.41,2,.53,1.41-.07,2.08,0,1.34.43,2,.52,1.36.24,2,.33,1.43,0,2.11.12c.11-1-.39-1-.63-2s-.26-1-.5-2,.05-1.07-.19-2.06-.43-1-.67-2-.25-1-.49-2-.22-1-.46-2-.11-1-.35-2-.26-1-.5-2l-.48-2c-.24-1-.4-1-.64-2s.42-1.38-.29-2.12-1.11-.21-2.11-.5-1-.31-2-.6-1-.36-2-.65-1-.25-2-.54-1.05-.12-2.06-.41-1-.45-2-.74-1.06-.13-2.07-.42-.94-.51-2-.8-1-.14-2.06-.43-1-.24-2-.53-1-.34-2-.63-1-.43-2-.72-1-.31-2-.6-1.07-.1-2.08-.39-1-.39-2-.68-1.06-.12-2.07-.41-.94-.54-2-.83-1-.26-2-.55-1-.26-2-.55-1.07-.06-2.08-.35-.93-.58-1.94-.87-1.09,0-2.1-.27-.93-.6-1.94-.89-1.21.21-2.13-.31S858.22,535.38,857.42,536.06Z"/><polyline class="aj" points="861.51 557.8 859.26 563.59 857.08 569.41"/><polyline class="aq" points="861.51 557.8 859.26 563.59 857.08 569.41"/><path class="ap" d="M842.17,488.82c-.71-.19-.34.64-.65,1.3s-.28.68-.59,1.35-.36.64-.68,1.3-.29.68-.61,1.34-.28.68-.6,1.34-.36.64-.67,1.31l-.64,1.33c-.32.66-.28.68-.6,1.34s-.53.6-.65,1.33.12.79.21,1.57.06.79.15,1.57.15.78.24,1.57.08.78.18,1.56.07.79.17,1.57.13.78.22,1.56.09.79.18,1.57.11.79.2,1.57.07.79.16,1.57.07.79.16,1.58.12.78.22,1.57.09.78.19,1.57-.3.95.19,1.57.75.28,1.5.54.76.24,1.51.51.73.32,1.48.59.77.22,1.52.49l1.5.55c.75.27.74.32,1.49.59s.77.23,1.52.5l1.51.53c.75.27.75.84,1.51.58s.42-.68.82-1.34.39-.68.8-1.35.43-.65.83-1.32l.82-1.34c.4-.67.37-.69.78-1.35s.43-.66.84-1.33l.82-1.34c.41-.67,1-.58.8-1.32s-.7-.29-1.42-.55l-1.44-.53c-.73-.27-.74-.25-1.46-.51l-1.46-.52-1.45-.52-1.45-.52c-.73-.26-.74-.24-1.46-.5s-.72-.29-1.45-.55-.74-.23-1.47-.49-1,.07-1.46-.54-.09-.77-.17-1.53-.07-.76-.15-1.52-.11-.76-.19-1.52-.07-.76-.15-1.52-.07-.76-.15-1.52-.11-.75-.19-1.51-.05-.77-.13-1.53-.11-.75-.2-1.51l-.16-1.53c-.08-.76-.07-.76-.15-1.52s-.08-.76-.17-1.52-.09-.76-.18-1.53-.24-.76-.13-1.52S842.91,489,842.17,488.82Z"/><path class="aq" d="M842.17,488.82c-.71-.19-.34.64-.65,1.3s-.28.68-.59,1.35-.36.64-.68,1.3-.29.68-.61,1.34-.28.68-.6,1.34-.36.64-.67,1.31l-.64,1.33c-.32.66-.28.68-.6,1.34s-.53.6-.65,1.33.12.79.21,1.57.06.79.15,1.57.15.78.24,1.57.08.78.18,1.56.07.79.17,1.57.13.78.22,1.56.09.79.18,1.57.11.79.2,1.57.07.79.16,1.57.07.79.16,1.58.12.78.22,1.57.09.78.19,1.57-.3.95.19,1.57.75.28,1.5.54.76.24,1.51.51.73.32,1.48.59.77.22,1.52.49l1.5.55c.75.27.74.32,1.49.59s.77.23,1.52.5l1.51.53c.75.27.75.84,1.51.58s.42-.68.82-1.34.39-.68.8-1.35.43-.65.83-1.32l.82-1.34c.4-.67.37-.69.78-1.35s.43-.66.84-1.33l.82-1.34c.41-.67,1-.58.8-1.32s-.7-.29-1.42-.55l-1.44-.53c-.73-.27-.74-.25-1.46-.51l-1.46-.52-1.45-.52-1.45-.52c-.73-.26-.74-.24-1.46-.5s-.72-.29-1.45-.55-.74-.23-1.47-.49-1,.07-1.46-.54-.09-.77-.17-1.53-.07-.76-.15-1.52-.11-.76-.19-1.52-.07-.76-.15-1.52-.07-.76-.15-1.52-.11-.75-.19-1.51-.05-.77-.13-1.53-.11-.75-.2-1.51l-.16-1.53c-.08-.76-.07-.76-.15-1.52s-.08-.76-.17-1.52-.09-.76-.18-1.53-.24-.76-.13-1.52S842.91,489,842.17,488.82Z"/><path class="ar" d="M842.16,488.79c-.82.7.15,1.08.27,2.14s.09,1.07.2,2.14.2,1.05.31,2.12,0,1.07.13,2.13.21,1.06.33,2.12,0,1.07.16,2.14.05,1.07.17,2.14.16,1.06.28,2.12.13,1.07.24,2.14-.47,1.33.2,2.17,1.06.37,2.1.75,1.07.26,2.11.63,1,.41,2.06.78,1,.36,2.08.74l2.08.75c1,.37,1,.46,2,.83s1.24,1.42,2.1.72-.24-1.08-.42-2.16-.17-1.08-.35-2.16-.13-1.08-.3-2.16-.11-1.09-.28-2.17l-.36-2.15c-.17-1.08-.16-1.09-.34-2.17s-.29-1.06-.46-2.14-.14-1.08-.32-2.16-.13-1.09-.31-2.17.26-1.28-.41-2.14-.92-.41-1.87-.76-.94-.39-1.89-.74-1-.34-1.9-.7l-1.9-.71c-1-.35-1-.3-1.93-.65s-1.1-.08-1.94-.66S842.93,488.14,842.16,488.79Z"/><path class="aq" d="M842.16,488.79c-.82.7.15,1.08.27,2.14s.09,1.07.2,2.14.2,1.05.31,2.12,0,1.07.13,2.13.21,1.06.33,2.12,0,1.07.16,2.14.05,1.07.17,2.14.16,1.06.28,2.12.13,1.07.24,2.14-.47,1.33.2,2.17,1.06.37,2.1.75,1.07.26,2.11.63,1,.41,2.06.78,1,.36,2.08.74l2.08.75c1,.37,1,.46,2,.83s1.24,1.42,2.1.72-.24-1.08-.42-2.16-.17-1.08-.35-2.16-.13-1.08-.3-2.16-.11-1.09-.28-2.17l-.36-2.15c-.17-1.08-.16-1.09-.34-2.17s-.29-1.06-.46-2.14-.14-1.08-.32-2.16-.13-1.09-.31-2.17.26-1.28-.41-2.14-.92-.41-1.87-.76-.94-.39-1.89-.74-1-.34-1.9-.7l-1.9-.71c-1-.35-1-.3-1.93-.65s-1.1-.08-1.94-.66S842.93,488.14,842.16,488.79Z"/><polyline class="aj" points="844.44 510.09 841.73 515.64 838.91 521.14"/><polyline class="aq" points="844.44 510.09 841.73 515.64 838.91 521.14"/><path class="ap" d="M815.45,499.82c-.71-.18-.34.63-.65,1.3s-.28.68-.6,1.34-.33.65-.64,1.32-.33.66-.64,1.32-.27.69-.59,1.35-.33.66-.65,1.32-.32.66-.64,1.32-.31.67-.63,1.34-.52.6-.63,1.33.07.79.17,1.57.13.78.22,1.57.11.78.21,1.56,0,.79.12,1.57.15.78.25,1.56.08.79.17,1.57.12.78.22,1.57.05.79.14,1.57.09.79.19,1.57.1.78.2,1.57.06.79.15,1.58.15.78.24,1.56-.32,1,.17,1.58.75.27,1.5.54l1.5.56c.75.27.77.22,1.52.49s.74.29,1.49.56.76.25,1.51.52l1.5.54c.75.27.74.31,1.49.58l1.51.53c.76.27.75.79,1.51.53s.42-.66.83-1.32l.82-1.33c.41-.67.39-.68.8-1.35s.43-.65.84-1.32.41-.66.82-1.33.36-.7.77-1.37.45-.64.86-1.31,1-.59.77-1.33-.7-.26-1.42-.52-.7-.31-1.43-.57l-1.46-.5-1.45-.51-1.46-.51c-.73-.26-.72-.29-1.45-.55l-1.45-.52-1.46-.52c-.72-.26-.74-.23-1.47-.49s-1,0-1.43-.56-.09-.75-.17-1.51-.1-.76-.19-1.52,0-.77-.12-1.53-.12-.75-.2-1.51-.1-.76-.18-1.52-.08-.76-.17-1.52l-.16-1.52c-.08-.76-.05-.76-.13-1.52s-.12-.76-.21-1.52-.06-.76-.14-1.52-.06-.77-.15-1.53-.11-.76-.2-1.52-.26-.77-.15-1.53S816.2,500,815.45,499.82Z"/><path class="aq" d="M815.45,499.82c-.71-.18-.34.63-.65,1.3s-.28.68-.6,1.34-.33.65-.64,1.32-.33.66-.64,1.32-.27.69-.59,1.35-.33.66-.65,1.32-.32.66-.64,1.32-.31.67-.63,1.34-.52.6-.63,1.33.07.79.17,1.57.13.78.22,1.57.11.78.21,1.56,0,.79.12,1.57.15.78.25,1.56.08.79.17,1.57.12.78.22,1.57.05.79.14,1.57.09.79.19,1.57.1.78.2,1.57.06.79.15,1.58.15.78.24,1.56-.32,1,.17,1.58.75.27,1.5.54l1.5.56c.75.27.77.22,1.52.49s.74.29,1.49.56.76.25,1.51.52l1.5.54c.75.27.74.31,1.49.58l1.51.53c.76.27.75.79,1.51.53s.42-.66.83-1.32l.82-1.33c.41-.67.39-.68.8-1.35s.43-.65.84-1.32.41-.66.82-1.33.36-.7.77-1.37.45-.64.86-1.31,1-.59.77-1.33-.7-.26-1.42-.52-.7-.31-1.43-.57l-1.46-.5-1.45-.51-1.46-.51c-.73-.26-.72-.29-1.45-.55l-1.45-.52-1.46-.52c-.72-.26-.74-.23-1.47-.49s-1,0-1.43-.56-.09-.75-.17-1.51-.1-.76-.19-1.52,0-.77-.12-1.53-.12-.75-.2-1.51-.1-.76-.18-1.52-.08-.76-.17-1.52l-.16-1.52c-.08-.76-.05-.76-.13-1.52s-.12-.76-.21-1.52-.06-.76-.14-1.52-.06-.77-.15-1.53-.11-.76-.2-1.52-.26-.77-.15-1.53S816.2,500,815.45,499.82Z"/><path class="ar" d="M815.42,499.77c-.81.69.19,1.1.3,2.16s.08,1.07.2,2.13.18,1.06.3,2.12.08,1.07.19,2.13.16,1.06.27,2.13,0,1.07.16,2.14.19,1,.31,2.12.06,1.07.17,2.14,0,1.07.17,2.14-.37,1.28.3,2.12,1,.39,2.05.76,1,.35,2.09.72,1,.43,2.05.8l2.08.75c1,.38,1.06.31,2.1.68l2.08.74c1,.37,1.19,1.46,2,.76s-.1-1.06-.27-2.14-.31-1.06-.48-2.14-.11-1.09-.29-2.17-.19-1.07-.36-2.15-.1-1.09-.28-2.17-.27-1.06-.44-2.14-.2-1.08-.38-2.16-.1-1.09-.28-2.17-.16-1.08-.34-2.17.28-1.28-.4-2.15-1-.3-1.91-.65-.91-.45-1.86-.81-1-.24-2-.59-.9-.48-1.85-.83-1-.3-1.93-.66-1.08-.1-1.92-.68S816.2,499.11,815.42,499.77Z"/><path class="aq" d="M815.42,499.77c-.81.69.19,1.1.3,2.16s.08,1.07.2,2.13.18,1.06.3,2.12.08,1.07.19,2.13.16,1.06.27,2.13,0,1.07.16,2.14.19,1,.31,2.12.06,1.07.17,2.14,0,1.07.17,2.14-.37,1.28.3,2.12,1,.39,2.05.76,1,.35,2.09.72,1,.43,2.05.8l2.08.75c1,.38,1.06.31,2.1.68l2.08.74c1,.37,1.19,1.46,2,.76s-.1-1.06-.27-2.14-.31-1.06-.48-2.14-.11-1.09-.29-2.17-.19-1.07-.36-2.15-.1-1.09-.28-2.17-.27-1.06-.44-2.14-.2-1.08-.38-2.16-.1-1.09-.28-2.17-.16-1.08-.34-2.17.28-1.28-.4-2.15-1-.3-1.91-.65-.91-.45-1.86-.81-1-.24-2-.59-.9-.48-1.85-.83-1-.3-1.93-.66-1.08-.1-1.92-.68S816.2,499.11,815.42,499.77Z"/><polyline class="aj" points="817.78 521.11 815 526.63 812.28 532.18"/><polyline class="aq" points="817.78 521.11 815 526.63 812.28 532.18"/><path class="ap" d="M933.15,480.79c-.71-.18-.35.68-.66,1.34s-.32.66-.63,1.33-.27.68-.58,1.34-.36.65-.67,1.31-.26.69-.58,1.36-.36.64-.67,1.3-.31.68-.62,1.34-.34.66-.66,1.32-.5.62-.61,1.34.13.79.22,1.57.08.79.17,1.57,0,.79.14,1.57.16.78.25,1.56,0,.79.14,1.57.13.78.22,1.57.08.78.17,1.57.11.78.2,1.56l.2,1.57c.09.79.12.78.21,1.57s.1.79.19,1.57,0,.79.14,1.58-.28.95.22,1.57.73.29,1.48.56.76.23,1.51.5l1.5.54,1.51.54c.75.26.73.31,1.49.58l1.5.54c.75.27.76.25,1.51.52s.76.25,1.51.52.75.82,1.5.56.39-.68.8-1.35.42-.66.83-1.32.41-.67.82-1.33.4-.68.81-1.35.41-.66.82-1.33.44-.64.85-1.31l.81-1.34c.41-.67,1.08-.62.83-1.36s-.75-.25-1.47-.51-.72-.28-1.44-.54l-1.45-.53-1.45-.53c-.73-.26-.75-.2-1.48-.46s-.71-.31-1.43-.57-.74-.22-1.47-.48l-1.45-.53-1.46-.53c-.73-.26-1,.09-1.48-.52s-.06-.78-.14-1.54-.12-.75-.2-1.51,0-.77-.1-1.53l-.16-1.52c-.08-.76-.1-.76-.19-1.52l-.16-1.52c-.08-.76-.08-.76-.17-1.52s-.07-.76-.16-1.52-.09-.76-.17-1.52-.13-.76-.21-1.52,0-.76-.13-1.52-.07-.77-.15-1.53-.32-.77-.21-1.53S933.9,481,933.15,480.79Z"/><path class="aq" d="M933.15,480.79c-.71-.18-.35.68-.66,1.34s-.32.66-.63,1.33-.27.68-.58,1.34-.36.65-.67,1.31-.26.69-.58,1.36-.36.64-.67,1.3-.31.68-.62,1.34-.34.66-.66,1.32-.5.62-.61,1.34.13.79.22,1.57.08.79.17,1.57,0,.79.14,1.57.16.78.25,1.56,0,.79.14,1.57.13.78.22,1.57.08.78.17,1.57.11.78.2,1.56l.2,1.57c.09.79.12.78.21,1.57s.1.79.19,1.57,0,.79.14,1.58-.28.95.22,1.57.73.29,1.48.56.76.23,1.51.5l1.5.54,1.51.54c.75.26.73.31,1.49.58l1.5.54c.75.27.76.25,1.51.52s.76.25,1.51.52.75.82,1.5.56.39-.68.8-1.35.42-.66.83-1.32.41-.67.82-1.33.4-.68.81-1.35.41-.66.82-1.33.44-.64.85-1.31l.81-1.34c.41-.67,1.08-.62.83-1.36s-.75-.25-1.47-.51-.72-.28-1.44-.54l-1.45-.53-1.45-.53c-.73-.26-.75-.2-1.48-.46s-.71-.31-1.43-.57-.74-.22-1.47-.48l-1.45-.53-1.46-.53c-.73-.26-1,.09-1.48-.52s-.06-.78-.14-1.54-.12-.75-.2-1.51,0-.77-.1-1.53l-.16-1.52c-.08-.76-.1-.76-.19-1.52l-.16-1.52c-.08-.76-.08-.76-.17-1.52s-.07-.76-.16-1.52-.09-.76-.17-1.52-.13-.76-.21-1.52,0-.76-.13-1.52-.07-.77-.15-1.53-.32-.77-.21-1.53S933.9,481,933.15,480.79Z"/><path class="ar" d="M933.14,480.81c-.82.69.13,1.07.24,2.14s.19,1.05.31,2.12.09,1.06.21,2.13.11,1.06.23,2.12.11,1.07.23,2.13,0,1.08.15,2.14.17,1.06.28,2.13.08,1.07.19,2.13.1,1.07.22,2.14-.39,1.28.29,2.12,1,.36,2.06.73,1,.44,2.05.81,1,.39,2.07.76,1.08.26,2.11.64,1,.47,2,.84,1.07.3,2.11.68,1.24,1.51,2.1.81-.18-1.12-.35-2.19-.28-1.07-.45-2.14,0-1.11-.22-2.19-.17-1.07-.35-2.15-.19-1.08-.36-2.15-.3-1.06-.48-2.14,0-1.1-.22-2.18-.19-1.08-.37-2.16-.2-1.08-.37-2.16.25-1.27-.43-2.13-.9-.41-1.85-.76-.94-.38-1.89-.73-1-.31-1.92-.66-.93-.42-1.88-.77-1-.25-1.94-.61-1.08-.13-1.92-.7S933.92,480.15,933.14,480.81Z"/><path class="aq" d="M933.14,480.81c-.82.69.13,1.07.24,2.14s.19,1.05.31,2.12.09,1.06.21,2.13.11,1.06.23,2.12.11,1.07.23,2.13,0,1.08.15,2.14.17,1.06.28,2.13.08,1.07.19,2.13.1,1.07.22,2.14-.39,1.28.29,2.12,1,.36,2.06.73,1,.44,2.05.81,1,.39,2.07.76,1.08.26,2.11.64,1,.47,2,.84,1.07.3,2.11.68,1.24,1.51,2.1.81-.18-1.12-.35-2.19-.28-1.07-.45-2.14,0-1.11-.22-2.19-.17-1.07-.35-2.15-.19-1.08-.36-2.15-.3-1.06-.48-2.14,0-1.1-.22-2.18-.19-1.08-.37-2.16-.2-1.08-.37-2.16.25-1.27-.43-2.13-.9-.41-1.85-.76-.94-.38-1.89-.73-1-.31-1.92-.66-.93-.42-1.88-.77-1-.25-1.94-.61-1.08-.13-1.92-.7S933.92,480.15,933.14,480.81Z"/><polyline class="aj" points="935.51 502.14 932.65 507.62 929.92 513.17"/><polyline class="aq" points="935.51 502.14 932.65 507.62 929.92 513.17"/></svg>