<svg xmlns="http://www.w3.org/2000/svg" xmlns:xlink="http://www.w3.org/1999/xlink" width="1566" height="565" viewBox="0 0 1566 565"><defs><style>.a,.j,.y{fill:none;}.b,.c,.f{fill:#ec6d74;}.b{stroke:#ec6d74;stroke-width:1.5px;}.aa,.b,.d,.e,.f,.g,.h,.i,.j,.k,.l,.m,.n,.o,.p,.r,.y{stroke-linecap:round;stroke-linejoin:round;}.d{fill:#fffdeb;}.aa,.d,.e,.f,.g,.h,.i,.j,.k,.l,.m,.n,.o,.p,.q,.r,.y{stroke:#bd771a;}.d,.e,.f,.g,.h,.i,.j,.k,.l,.n,.o,.p,.q,.r{stroke-width:1.21px;}.e{fill:#fffcd6;}.g{fill:#f4a8ab;}.h,.u{fill:#fffde0;}.i,.s{fill:#fff9ad;}.k,.m{fill:#56b879;}.l{fill:#bd771a;}.m{stroke-width:1.21px;}.n{fill:#f5b6b9;}.o,.t{fill:#fff799;}.p{fill:#f1bc6f;}.q{fill:#fff;stroke-miterlimit:10;}.r{fill:#fffaba;}.v{fill:#88cda1;}.w{fill:url(#a);}.x{fill:#fbd49b;}.aa,.y{stroke-width:1.21px;}.z{fill:#99d4af;}.aa{fill:url(#b);}</style><pattern id="a" width="56.69" height="62.91" patternTransform="matrix(0.28, -0.33, 4.96, 4.16, -400.35, -366.34)" patternUnits="userSpaceOnUse" viewBox="0 0 56.69 62.91"><rect class="a" width="56.69" height="62.91"/><path class="b" d="M53.53,125.47c2.84-1.53,5.31-6.65,6.64-9.54a41,41,0,0,0,3.62-14.86c.38-7.49.46-15.1-2.12-22.13-1.82-5-4.2-12.55-8.82-15.68H50.34c4.62,3.13,7,10.71,8.82,15.68,2.58,7,2.5,14.64,2.12,22.13a41.25,41.25,0,0,1-3.62,14.86c-1.33,2.89-3.8,8-6.65,9.54Z"/><path class="b" d="M43.34,125.47c3.31-1.79,5-5.94,6.48-9.19,5.4-12,5.08-25.59,1.56-37.73C49.77,73,47.64,66.64,42.66,63.26H40c2.52,0,5.35,6.83,6.14,8.64,4.58,10.48,6.78,22.77,4.28,34.43-1.23,5.74-4,16-9.75,19.14Z"/><path class="b" d="M25.18,125.47c2.85-1.53,5.32-6.65,6.65-9.54a41,41,0,0,0,3.61-14.86c.39-7.49.46-15.1-2.12-22.13-1.82-5-4.19-12.55-8.82-15.68H22c4.63,3.13,7,10.71,8.82,15.68,2.58,7,2.51,14.64,2.12,22.13a40.84,40.84,0,0,1-3.62,14.86c-1.33,2.89-3.79,8-6.64,9.54Z"/><path class="b" d="M34.63,125.47c2.95-1.59,4.69-5.44,6.07-8.3a42.15,42.15,0,0,0,4.2-16.1c.37-7.41.13-14.9-2.06-21.94-1.7-5.45-4-12.55-8.89-15.87H31.59c2.53,0,5.35,6.83,6.14,8.64a71,71,0,0,1,3.8,10.71c2.74,10.69,2.16,23-2.61,33.32-1.34,2.89-3.8,8-6.65,9.54Z"/><path class="b" d="M15,125.47c3.31-1.79,5-5.94,6.48-9.19,5.41-12,5.08-25.59,1.57-37.73C21.42,73,19.3,66.64,14.31,63.26H11.65c2.53,0,5.35,6.83,6.14,8.64,4.58,10.48,6.78,22.77,4.28,34.43-1.23,5.74-4,16-9.74,19.14Z"/><path class="b" d="M-3.17,125.47c2.85-1.53,5.32-6.65,6.65-9.54A41.25,41.25,0,0,0,7.1,101.07C7.48,93.58,7.56,86,5,78.94,3.15,74,.78,66.39-3.84,63.26H-6.35C-1.73,66.39.64,74,2.46,78.94,5,86,5,93.58,4.59,101.07A41.25,41.25,0,0,1,1,115.93c-1.33,2.89-3.8,8-6.65,9.54Z"/><path class="b" d="M6.29,125.47c3-1.59,4.68-5.44,6.07-8.3a42.13,42.13,0,0,0,4.19-16.1c.38-7.41.14-14.9-2.06-21.94-1.7-5.45-4-12.55-8.88-15.87H3.25c2.52,0,5.35,6.83,6.14,8.64a72.06,72.06,0,0,1,3.79,10.71c2.74,10.69,2.16,23-2.61,33.32-1.33,2.89-3.8,8-6.65,9.54Z"/><path class="b" d="M53.53,62.56C56.37,61,58.84,55.91,60.17,53a41,41,0,0,0,3.62-14.86c.38-7.49.46-15.1-2.12-22.13-1.82-5-4.2-12.55-8.82-15.68H50.34C55,3.48,57.34,11.06,59.16,16c2.58,7,2.5,14.64,2.12,22.13A41.25,41.25,0,0,1,57.66,53c-1.33,2.89-3.8,8-6.65,9.54Z"/><path class="b" d="M43.34,62.56c3.31-1.79,5-5.94,6.48-9.19,5.4-12,5.08-25.59,1.56-37.74C49.77,10.06,47.64,3.73,42.66.35H40c2.52,0,5.35,6.83,6.14,8.64,4.58,10.48,6.78,22.77,4.28,34.43-1.23,5.74-4,16-9.75,19.14Z"/><path class="b" d="M25.18,62.56C28,61,30.5,55.91,31.83,53a41,41,0,0,0,3.61-14.86c.39-7.49.46-15.1-2.12-22.13C31.5,11.06,29.13,3.48,24.5.35H22C26.62,3.48,29,11.06,30.81,16c2.58,7,2.51,14.64,2.12,22.13A40.84,40.84,0,0,1,29.31,53c-1.33,2.89-3.79,8-6.64,9.54Z"/><path class="b" d="M34.63,62.56c2.95-1.59,4.69-5.44,6.07-8.3a42.15,42.15,0,0,0,4.2-16.1c.37-7.41.13-14.9-2.06-21.94-1.7-5.45-4-12.55-8.89-15.87H31.59c2.53,0,5.35,6.83,6.14,8.64a71,71,0,0,1,3.8,10.71c2.74,10.68,2.16,23-2.61,33.32-1.34,2.89-3.8,8-6.65,9.54Z"/><path class="b" d="M15,62.56c3.31-1.79,5-5.94,6.48-9.19,5.41-12,5.08-25.59,1.57-37.74C21.42,10.06,19.3,3.73,14.31.35H11.65C14.18.35,17,7.18,17.79,9c4.58,10.48,6.78,22.77,4.28,34.43-1.23,5.74-4,16-9.74,19.14Z"/><path class="b" d="M-3.17,62.56C-.32,61,2.15,55.91,3.48,53A41.25,41.25,0,0,0,7.1,38.16C7.48,30.67,7.56,23.06,5,16,3.15,11.06.78,3.48-3.84.35H-6.35C-1.73,3.48.64,11.06,2.46,16,5,23.06,5,30.67,4.59,38.16A41.25,41.25,0,0,1,1,53c-1.33,2.89-3.8,8-6.65,9.54Z"/><path class="b" d="M6.29,62.56c3-1.59,4.68-5.44,6.07-8.3a42.13,42.13,0,0,0,4.19-16.1c.38-7.41.14-14.9-2.06-21.94-1.7-5.45-4-12.55-8.88-15.87H3.25C5.77.35,8.6,7.18,9.39,9A72.06,72.06,0,0,1,13.18,19.7c2.74,10.68,2.16,23-2.61,33.32-1.33,2.89-3.8,8-6.65,9.54Z"/><path class="b" d="M53.53-.35C56.37-1.89,58.84-7,60.17-9.89a41,41,0,0,0,3.62-14.86c.38-7.5.46-15.1-2.12-22.14-1.82-5-4.2-12.54-8.82-15.67H50.34c4.62,3.13,7,10.7,8.82,15.67,2.58,7,2.5,14.64,2.12,22.14A41.25,41.25,0,0,1,57.66-9.89C56.33-7,53.86-1.89,51-.35Z"/><path class="b" d="M43.34-.35c3.31-1.79,5-5.94,6.48-9.19,5.4-12,5.08-25.59,1.56-37.74-1.61-5.58-3.74-11.9-8.72-15.28H40c2.52,0,5.35,6.83,6.14,8.64,4.58,10.48,6.78,22.77,4.28,34.43-1.23,5.74-4,16-9.75,19.14Z"/><path class="b" d="M25.18-.35C28-1.89,30.5-7,31.83-9.89a41,41,0,0,0,3.61-14.86c.39-7.5.46-15.1-2.12-22.14-1.82-5-4.19-12.54-8.82-15.67H22c4.63,3.13,7,10.7,8.82,15.67,2.58,7,2.51,14.64,2.12,22.14A40.84,40.84,0,0,1,29.31-9.89C28-7,25.52-1.89,22.67-.35Z"/><path class="b" d="M34.63-.35c2.95-1.59,4.69-5.44,6.07-8.31a42.05,42.05,0,0,0,4.2-16.09c.37-7.41.13-14.9-2.06-21.94-1.7-5.45-4-12.55-8.89-15.87H31.59c2.53,0,5.35,6.83,6.14,8.64a70.6,70.6,0,0,1,3.8,10.71c2.74,10.68,2.16,23-2.61,33.32-1.34,2.89-3.8,8-6.65,9.54Z"/><path class="b" d="M15-.35c3.31-1.79,5-5.94,6.48-9.19,5.41-12,5.08-25.59,1.57-37.74-1.62-5.58-3.74-11.9-8.73-15.28H11.65c2.53,0,5.35,6.83,6.14,8.64,4.58,10.48,6.78,22.77,4.28,34.43-1.23,5.74-4,16-9.74,19.14Z"/><path class="b" d="M-3.17-.35C-.32-1.89,2.15-7,3.48-9.89A41.25,41.25,0,0,0,7.1-24.75c.38-7.5.46-15.1-2.12-22.14-1.83-5-4.2-12.54-8.82-15.67H-6.35c4.62,3.13,7,10.7,8.81,15.67C5-39.85,5-32.25,4.59-24.75A41.25,41.25,0,0,1,1-9.89C-.36-7-2.83-1.89-5.68-.35Z"/><path class="b" d="M6.29-.35c3-1.59,4.68-5.44,6.07-8.31a42,42,0,0,0,4.19-16.09c.38-7.41.14-14.9-2.06-21.94-1.7-5.45-4-12.55-8.88-15.87H3.25c2.52,0,5.35,6.83,6.14,8.64a71.66,71.66,0,0,1,3.79,10.71c2.74,10.68,2.16,23-2.61,33.32C9.24-7,6.77-1.89,3.92-.35Z"/></pattern><pattern id="b" width="127.56" height="127.56" patternTransform="matrix(0.23, -0.11, 0.11, 0.23, -198.08, -79.2)" patternUnits="userSpaceOnUse" viewBox="0 0 127.56 127.56"><rect class="a" width="127.56" height="127.56"/><circle class="c" cx="109.79" cy="115.38" r="5.52"/><circle class="c" cx="130.18" cy="117.56" r="5.52"/><circle class="c" cx="109.79" cy="97.22" r="5.52"/><circle class="c" cx="131.15" cy="95.03" r="5.52"/><circle class="c" cx="67.27" cy="115.38" r="5.52"/><circle class="c" cx="87.66" cy="117.56" r="5.52"/><circle class="c" cx="67.27" cy="97.22" r="5.52"/><circle class="c" cx="88.63" cy="95.03" r="5.52"/><circle class="c" cx="24.75" cy="115.38" r="5.52"/><circle class="c" cx="45.14" cy="117.56" r="5.52"/><circle class="c" cx="24.75" cy="97.22" r="5.52"/><circle class="c" cx="46.11" cy="95.03" r="5.52"/><circle class="c" cx="2.62" cy="117.56" r="5.52"/><circle class="c" cx="3.59" cy="95.03" r="5.52"/><circle class="c" cx="95.62" cy="72.86" r="5.52"/><circle class="c" cx="116.01" cy="75.04" r="5.52"/><circle class="c" cx="95.62" cy="54.7" r="5.52"/><circle class="c" cx="116.98" cy="52.51" r="5.52"/><circle class="c" cx="53.1" cy="72.86" r="5.52"/><circle class="c" cx="73.49" cy="75.04" r="5.52"/><circle class="c" cx="53.1" cy="54.7" r="5.52"/><circle class="c" cx="74.46" cy="52.51" r="5.52"/><circle class="c" cx="10.58" cy="72.86" r="5.52"/><circle class="c" cx="30.97" cy="75.04" r="5.52"/><circle class="c" cx="10.58" cy="54.7" r="5.52"/><circle class="c" cx="31.94" cy="52.51" r="5.52"/><circle class="c" cx="123.96" cy="30.34" r="5.52"/><circle class="c" cx="123.96" cy="12.18" r="5.52"/><circle class="c" cx="81.45" cy="30.34" r="5.52"/><circle class="c" cx="101.84" cy="32.53" r="5.52"/><circle class="c" cx="81.45" cy="12.18" r="5.52"/><circle class="c" cx="102.81" cy="9.99" r="5.52"/><circle class="c" cx="38.93" cy="30.34" r="5.52"/><circle class="c" cx="59.32" cy="32.53" r="5.52"/><circle class="c" cx="38.93" cy="12.18" r="5.52"/><circle class="c" cx="60.29" cy="9.99" r="5.52"/><circle class="c" cx="-3.59" cy="30.34" r="5.52"/><circle class="c" cx="16.8" cy="32.53" r="5.52"/><circle class="c" cx="-3.59" cy="12.18" r="5.52"/><circle class="c" cx="17.77" cy="9.99" r="5.52"/></pattern></defs><path class="d" d="M739.3,367.2c-5.4-1.8-15.6-1-22.2-.5-5.9.4-14.2.6-18.9,1.3-3.3.5-4.2,5.4-5.6,8.9-1.3,3.3-3.1,8.1-2.7,11.4,3.9.4,9.5-3.1,13.2-4.6,5.8-2.3,11.4-4.8,17.1-7.4C725.6,373.8,734.4,370,739.3,367.2Z"/><path class="d" d="M737.3,361.9c-7.5-4.6-16.6-7.9-24.7-11.8-2.8-1.4-18.8-10.3-18.5-5.7.2,2.5,1.8,17.1,3.6,18.7,1.2,1.1,6-.3,7.8-.2,4,.1,8.2-.3,12.1-.1,7.3.4,14.5-.4,21.7.3"/><path class="e" d="M600.3,280.6c1-2.5,1.6-3.7-.4-5.9-1.3-1.4-1.8-1.3-2.5-3.2-.6-1.7,0-11.3-3.7-7.1-1.4,1.6-.8,4.8-1.7,6.6-2.1.1-3.6-2.3-5.2.2-.3.5.3.9.1,1.4-.2.3-.9.6-1.1,1-.5,1-1.2,1.3-.5,2.6-2.2,1.8-1.7,2.5-1.2,3.7s-1.9,2.1-1,3.3c.4.6,2.1,1.2,2.7,1.5a33,33,0,0,0,10.6,2.9c1.6.2,3,2.3,4.1.3.6-1.1,2.5-5,2.6-6.2A27.94,27.94,0,0,0,600.3,280.6Z"/><path class="f" d="M599.9,287.4a7.61,7.61,0,0,0-.8,2.1c2.5,1.1,4.4,2.2,5,1.1,1-1.9,3.3-6,3.4-8.3.1-.9-4.3-3-4.9-1.2A39.82,39.82,0,0,1,599.9,287.4Z"/><path class="g" d="M593.6,312.3l-24.8-8.7a5.8,5.8,0,0,0-6.6,2.5l-13.3,23.2a3.63,3.63,0,0,0,2,5.5l14.8,5.2c1.4-2.7,3.6-5.9,5.1-8.4s2.9-4.9,4.4-7.6c-1.4-.7-2.9-.9-4.4-1.5.5-.9,1.2-2.3,1.8-3.2a25.42,25.42,0,0,1,4.7,1.4c.8-1.3,2.7-4.4,3.6-5,1.2-.7,3.7.5,5.2,1,1.3.5,1,.5,1.2.6-.6.8-1.2,1.9-1.8,2.8-1.3-.3-2-1.1-2.6-.8s-1.6,2.1-2,2.8a37.88,37.88,0,0,0,3.6,1.2c-.6,1-1.7,3-2.1,3.6a16.53,16.53,0,0,1-3.4-1.2c-.9,1.6-2.9,5.1-3.9,7-1.5,2.9-3,5.9-4.8,8.7l5.3,1.9a5.8,5.8,0,0,0,6.6-2.5l13.3-23.2A3.45,3.45,0,0,0,593.6,312.3Z"/><path class="h" d="M1244.3,401.9c-3.7-1.2-10.6-.7-15.2-.4-4,.3-9.7.4-12.9.9-2.3.3-2.9,3.7-3.8,6s-2.1,5.5-1.8,7.8c2.7.3,6.5-2.1,9-3.2,3.9-1.6,7.8-3.3,11.7-5C1235,406.4,1241,403.8,1244.3,401.9Z"/><path class="h" d="M1242.9,398.3c-5.1-3.1-11.3-5.4-16.9-8.1-1.9-.9-12.8-7-12.6-3.9.1,1.7,1.3,11.7,2.4,12.7.8.7,4.1-.2,5.4-.1,2.7.1,5.6-.2,8.3-.1,5,.3,9.9-.3,14.8.2"/><path class="h" d="M482.5,285.5c1.3-2.9-1.4-5.9-3.9-2.9-.4-2.4-1.1-2.2-3.1-2.1-2-1.7-4.4-1.5-5.2,1.1-3-1.4-9.4,2.3-6.7,5.5-3.5-.8-6.7,8.1-1.3,8.9-2.4,1.4-.5,10.3,3.3,7.7-1.1,3.9,2.4,8.3,6.4,5.6-1.5,3.6,2.5,6.4,6,4.9.8,3.4,4.8,4.3,7.7,2.7-.2,2.9,2.1,4.5,4.9,3.3.6,2.7,3.3,3.2,5.6,2.2a3.91,3.91,0,0,0,5.9,2.6c.4,2.6,3,2.8,5,1.2.3,2.6,2.4,2.8,4.4,1.1,1.3,2.1,2.8,1.3,3.8-1.1,2.6-.1,4.8-4.7,1.3-5.8.9-3-1.9-7.9-4.5-4.4.4-2.2-3.3-4.4-5.6-2.3.4-3.9-5.7-7.5-6.5-3.9a4.9,4.9,0,0,0-6.1-4.4,3.09,3.09,0,0,0-4.4-2.8c-.8-2.4-3.8-4.6-5.6-3.8.7-.3-1.3-3.1-1.5-3.3a4.07,4.07,0,0,0-1.7-1.2c-.4-.1-1.4-.1-1.3.3a.62.62,0,0,0,.1-.7,3.35,3.35,0,0,0-1.8-2c-.3-.1-2.4.1-2.1-.1,1.2-.8.5-2.3-.5-3.3a3.61,3.61,0,0,0,2.3,0c.2-.1,1-1.6.7-1.7,2,.8,1.1.4,2.7.4C484.8,288.9,485.7,283.5,482.5,285.5Z"/><path class="f" d="M739.7,306l-8.6-3c-4.8-1.7-6.6-6.7-4.1-11.3l4.6-8.1a11.74,11.74,0,0,1,13.5-5.1l8.6,3c4.8,1.7,6.6,6.7,4.1,11.3l-4.6,8.1A11.74,11.74,0,0,1,739.7,306Z"/><path class="g" d="M739.1,304.2l-8.6-3c-4.8-1.7-6.6-6.7-4.1-11.3l4.6-8.1a11.74,11.74,0,0,1,13.5-5.1l8.6,3c4.8,1.7,6.7,6.7,4.1,11.3l-4.6,8.1C749.9,303.6,743.9,305.9,739.1,304.2Z"/><path class="i" d="M735.8,293.5a5.3,5.3,0,0,1-2-9c5.1-4.6,12.1-2,16.2,1,3.5,2.5,5.3,7.1.7,10.4-2.8,2.1-6.1,1.8-9.1,1.1-2.8-.7-6,.7-9.3.3a11.18,11.18,0,0,0,5.3-2.7A4.65,4.65,0,0,1,735.8,293.5Z"/><path class="j" d="M738.6,287.8c-.7-.3-2,.4-1,1s1.9-.5,1.7-1.4c-.5-.1-.4.2-.7.4"/><path class="j" d="M742.8,289c-.9-.4-2.1.7-1.2,1.2,1.1.6,2.4-.7,1.4-1.5"/><path class="j" d="M747.7,291c-.5-.5-2.3-.6-2,.5s3.1.1,1.6-1"/><path class="h" d="M1385.6,466.2c-2.1-1.4-6-2.7-4.9,1.5-.3,0-.3-.5-.8-.2a25.62,25.62,0,0,1-2.2,4c-.4-.2-1.1-.5-1.5-.7-.6,1.2-1.7,1.6-2.5,2.4-2.1-2.1-3.5,1.6-5.4,2.5-1.2-1.3-2.5.1-3.3,2-.8-3-3.3-1.9-4.6.4-1.8-3.5-5.7.3-7.8,1.7-1-3.3-3.6-1.4-4.9.8-.7-4.2-5.2-2.1-6.8.5-4-3.7-5.5-2.6-9.7.4-1.4-5.6-6.1-1.9-8.7.5-3.8-4.1-8.4-3.1-12.6.3-1.8-4.3-6.4-4.7-8.7-.5-2.5-2.8-7.4-3.5-9.1.5-1.7-2.7-6.2-2.9-7.7.3-2-1.6-5.5-3.9-6.3.1-2.5-2-6.5-3.2-8.3.4-7.3-4-11.8,6-6.1,5,.9,4,5.2,3.1,7.4.8,1.3,2.3,4,1.9,5.9.5a4.84,4.84,0,0,0,6.1.8c1.7,3.1,4.4,3,7.3,1.6,1.9,2.5,4.9,1.3,7.4.5,2.3,4.3,6.2,1.5,9.4,0,1.4,3.3,5.2,1.8,7.4.3,2.5,4.1,8.2,1.5,11.2-.7,1.1,3.7,6.8,1.8,9,.1,2.2,3.9,7.6,2.8,10.4-.1,2.3,2.2,6.1.9,7.5-1.7,1.7,3.2,7.1,1,8.7-1.3,2.3,1.9,6.6,1.4,8.2-1.3,2.5,2.6,7.3-.1,8.4-3.2,2.7,1,7.3-1.2,6.9-4.3,2.6,1.2,3.8-2.6,3.1-4.7.3,0,.3.3.8.2-.1-2.4.1-7.3-1.9-8.5a.45.45,0,0,0,0,.6C1387.9,465.8,1385.8,464.1,1385.6,466.2Z"/><path class="k" d="M1196.6,504.9c-3.7,2.1-40.8-10.3-41-14.4-3-3.3,11.5-27.1,16-28,5.8-1.8,41.1,11.4,41,14.4C1215.2,479.2,1199.8,504.9,1196.6,504.9Z"/><path class="i" d="M1195.3,502c-3.7,2.1-40.8-10.3-41-14.4-3-3.3,11.5-27.1,16-28,5.8-1.8,41.1,11.4,41,14.4C1213.8,476.4,1198.4,502.1,1195.3,502Z"/><path class="f" d="M1177.4,469.7c-2.6,4.6-7.1,10.9-8.2,15.8a73.57,73.57,0,0,0,15.7,1.1c3.9-.1,8.6-.2,12.2-1.5C1191.3,480,1186.8,475.4,1177.4,469.7Z"/><path class="f" d="M891.7,462l-21.8-7.6c-12.2-4.3-16.8-17.1-10.3-28.6l11.7-20.4c6.6-11.5,21.8-17.3,34.1-13l21.8,7.6c12.2,4.3,16.8,17.1,10.3,28.6L925.8,449C919.2,460.5,903.9,466.3,891.7,462Z"/><path class="h" d="M888.7,457.2l-21.8-7.6c-12.2-4.3-16.8-17.1-10.3-28.6l11.7-20.4c6.6-11.5,21.8-17.3,34.1-13l21.8,7.6c12.2,4.3,16.8,17.1,10.3,28.6l-11.7,20.4C916.2,455.7,900.9,461.5,888.7,457.2Z"/><path class="g" d="M880.3,429.9c-9.4-2.8-13.3-15.3-5.2-22.7,12.9-11.8,30.6-5,41.1,2.4,8.8,6.3,13.3,17.9,1.8,26.3-7.2,5.3-15.4,4.6-23,2.8-7.1-1.7-15.2,1.7-23.5.8a28.23,28.23,0,0,0,13.4-6.9C882.8,431.8,881.1,431,880.3,429.9Z"/><path class="l" d="M887.5,415.4c-1.8-.7-5.1,1.1-2.6,2.6s4.9-1.4,4.3-3.5c-1.1-.3-.9.4-1.7.9"/><path class="l" d="M898.1,418.6c-2.3-1-5.4,1.7-3.1,2.9,2.8,1.4,6.1-1.8,3.6-3.8"/><path class="l" d="M910.7,423.6c-1.3-1.4-5.8-1.6-5,1.2.8,2.6,7.9.3,4.1-2.6"/><path class="g" d="M1069,501.5l-13.3-4.7c-7.5-2.6-10.3-10.4-6.3-17.4l7.1-12.4c4-7,13.3-10.5,20.8-7.9l13.3,4.7c7.5,2.6,10.3,10.4,6.3,17.4l-7.1,12.4C1085.8,500.6,1076.5,504.1,1069,501.5Z"/><path class="i" d="M1087.5,476.4a6.75,6.75,0,0,0-5.5-4.3c-2.5-.4-3.8,1.8-5.8,1.8-3.5,0-2.7-5.6-4.4-7.1-2.6-2.4-3.2,4.5-5,5.5-.3-.4-1.1-.6-1.3-1-2.4,1.9-1.2,4.2-1.3,6.4-3.8-1.5-1.6,6.8,0,8-2.5,1.2-5.4-.7-7.5-1.6.4,4.7,6.2,7,11,6.9,9-.3,16.5-4.3,20-11.8a23.48,23.48,0,0,0,2.6-.1,3,3,0,0,0-1.7-1.2,5.85,5.85,0,0,0,2.2-1.9C1089.9,475.7,1088.9,476.3,1087.5,476.4Z"/><path class="k" d="M1281.2,432.4l-16.3-5.7c-3.5-1.2-4.8-4.9-2.9-8.2l8.8-15.3a8.43,8.43,0,0,1,9.8-3.7l16.3,5.7c3.5,1.2,4.8,4.9,2.9,8.2l-8.8,15.3A8.69,8.69,0,0,1,1281.2,432.4Zm-2.4-30.1a4.51,4.51,0,0,0-5.1,1.9l-8.8,15.3a2.88,2.88,0,0,0,1.5,4.3l16.3,5.7a4.51,4.51,0,0,0,5.1-1.9l8.8-15.3a2.88,2.88,0,0,0-1.5-4.3Z"/><path class="k" d="M1276.2,423.8a7.2,7.2,0,0,1-3.9-10.9c2.6-4.3,8.4-6.6,13.1-5s6.5,6.5,3.9,10.9A11.2,11.2,0,0,1,1276.2,423.8Zm7.5-13a7.28,7.28,0,0,0-8.4,3.2,4.66,4.66,0,0,0,2.5,7,7.28,7.28,0,0,0,8.4-3.2A4.6,4.6,0,0,0,1283.7,410.8Z"/><ellipse class="m" cx="1293.71" cy="410.96" rx="1.8" ry="1.5" transform="translate(-56.96 546.06) rotate(-23.33)"/><path class="i" d="M681.8,286.3c-2.7,1.5-29-7.3-29.2-10.2-2.1-2.3,8.2-19.3,11.4-19.9,4.1-1.3,29.2,8.1,29.2,10.2C695,268,684,286.3,681.8,286.3Z"/><path class="f" d="M669.1,263.3c-1.9,3.3-5.1,7.8-5.8,11.2a57.48,57.48,0,0,0,11.1.8,27.09,27.09,0,0,0,8.6-1.1C679,270.6,675.8,267.3,669.1,263.3Z"/><path class="n" d="M674,269.4c-.5-3.3-5.6-4.7-8-3-3.7,2.6-1.1,8.1,2.8,8.9C672.2,276,675.9,273.1,674,269.4Z"/><path class="f" d="M1403.7,440.4l-11.4-4c-6.4-2.2-8.8-8.9-5.4-14.9l6.1-10.7c3.4-6,11.4-9.1,17.8-6.8l11.4,4c6.4,2.2,8.8,8.9,5.4,14.9l-6.1,10.7C1418.1,439.6,1410.1,442.7,1403.7,440.4Z"/><path class="h" d="M1401.8,438.7l-11.4-4c-6.4-2.2-8.8-8.9-5.4-14.9l6.1-10.7c3.4-6,11.4-9.1,17.8-6.8l11.4,4c6.4,2.2,8.8,8.9,5.4,14.9l-6.1,10.7C1416.2,437.9,1408.2,441,1401.8,438.7Z"/><path class="g" d="M1417.6,417.1a5.9,5.9,0,0,0-4.7-3.7c-2.2-.3-3.2,1.6-5,1.6-3,0-2.4-4.8-3.7-6.1-2.3-2.1-2.8,3.8-4.3,4.7-.3-.3-.9-.5-1.1-.9-2.1,1.7-1,3.6-1.1,5.5-3.3-1.3-1.4,5.9,0,6.8-2.2,1-4.6-.6-6.5-1.3.4,4,5.3,6,9.4,5.9,7.8-.2,14.1-3.7,17.2-10.1a16.2,16.2,0,0,0,2.2-.1,2.38,2.38,0,0,0-1.5-1,5.19,5.19,0,0,0,1.9-1.7A26,26,0,0,0,1417.6,417.1Z"/><path class="o" d="M38.8,527.8a22.9,22.9,0,0,0-12.4,2.8c-4.1,2.2-5.7,5.6-10.6,7.4-5.1,1.9-8.1-.6-11.7,4s1.3,9.6,6.4,10.9c10,2.5,9-2.8,14.9-6,4-2.2,8.2-1.7,12.4-3.8,5.6-2.7,9.1-7.7,7.2-11.6C43.9,529.3,41.6,528.1,38.8,527.8Z"/><path class="p" d="M37.9,525.1a22.9,22.9,0,0,0-12.4,2.8c-4.1,2.2-5.7,5.6-10.6,7.4-5.1,1.9-8.1-.6-11.7,4s1.3,9.6,6.4,10.9c10,2.5,9-2.8,14.9-6,4-2.2,8.2-1.7,12.4-3.8,5.6-2.7,9.1-7.7,7.2-11.6C43.1,526.6,40.7,525.5,37.9,525.1Z"/><path class="q" d="M155.6,416.7c-3.1-3.3-7.4,3.6-3.7,6,5.4,3.4,4.4-4.1,3.2-6.5"/><path class="o" d="M35.7,363.8a15.26,15.26,0,0,0-11.3-.6c-4.6,9.1,15,11.6,11.9,1.3a10.84,10.84,0,0,1-1.9-.8"/><path class="o" d="M346,107.1c-4.5-3.7-12-5.3-16.9-1.7-2.5,1.9-2.2,5.3-3.2,6.5-1.7,2-3.2,1.7-5,3.2-13.5,11.1,13.2,14.5,10.5,2.9,4.1-.7,10.2,1.9,13.9-.6,3.3-2.2,4.7-6.5,1.7-9.5A7,7,0,0,1,346,107.1Z"/><path class="o" d="M346.3,105.1c-4.5-3.7-12-5.3-16.9-1.7-2.5,1.9-2.2,5.3-3.2,6.5-1.7,2-3.2,1.7-5,3.2-13.5,11.1,13.2,14.5,10.5,2.9,4.1-.7,10.2,1.9,13.9-.6,3.3-2.2,4.7-6.5,1.7-9.5A3.92,3.92,0,0,1,346.3,105.1Z"/><path class="k" d="M397.9,90.4c-3.1,2.8,1.3,7.7,3.9,3.7,2-3.1-1.9-5.3-3.7-4"/><path class="h" d="M433.4,213.1c-3.8.8-9.5,4.8-13.3,7.4-3.3,2.3-8.1,5.3-10.7,7.3-1.8,1.4-.6,4.6-.2,7.1s1,5.8,2.4,7.6c2.5-1.1,4.5-5.1,6.2-7.3,2.6-3.4,5-6.8,7.5-10.3C427.7,221.7,431.5,216.4,433.4,213.1Z"/><path class="h" d="M430.4,210.6c-6-.1-12.5,1.1-18.6,1.6-2.1.2-14.6.4-12.8,3.1.9,1.4,7,9.4,8.6,9.7,1.1.2,3.4-2.2,4.5-2.8,2.4-1.3,4.7-3,7.1-4.3,4.4-2.3,8.4-5.3,12.9-7.4"/><path class="r" d="M473.3,20.6a1.09,1.09,0,0,1-.2-1.4c2.9-.7,11.6-.4,10.2,4.4,4.2-1.2,6.2,3.4,7.1,6.6,3.5-1,7,2.1,7.4,5.6,2.3-.4,4.3.7,3.3,3.2,5-.8,12,2.7,11.4,8.4,3.9-.5,5.2,3.4,5.6,6.4,4.5-.3,9.6,3,9.7,7.8,3.7.5,8.7,2.7,8,7.1,2.6.5,6.3,2.3,5.3,5.3,2.4.6,4.4,2.4,4.2,5.1,2.5.5,7.1,2.5,5.3,5.7,3.1.9,8.9,2.3,8.2,6.4,4.1,0,5.9,4.1,7.3,7.4-.2-.1.2-.3.5-.1-.6,1.9-3.2,4.7-5,2.8-2.1,1.2-6.8.4-3.8-2.1-2,2.4-5.1-.1-5.5-2.6a4.68,4.68,0,0,1-6.9-3.3c-2.4,3-8.8-1.2-5.7-4-3.1,4.9-7.5-3.8-8.1-6.5-4.1,4-7.2-2.7-7.5-6.1-3.3,4.2-7.9-3.3-9.3-6-5.6,3.4-8.8-2.1-10.9-7.4-3.3,4.1-8.9-2-7.9-5.9-3.2,1.9-6.7-3.5-6.1-6.4-3.2,3.5-7.6-3.4-6.4-6.9-3.1.3-5.8-2.8-6.6-5.5a4.36,4.36,0,0,0,1-.8c-2.5-.3-12.3-5.5-6.6-8-2.4-.6-7-2.8-4.4-5.6C462.3,19.8,468.4,18.7,473.3,20.6Z"/><path class="r" d="M522.1,57.6c-1.1,3.9,2.1,6.8,6,6.7.6-.3.5-.3-.1-.1-.2,3.5,4.6,5.1,8.3,4.7,1.7,2.6,3.1,2.5,4.8-.2,1.7,4.6,7.1-1.9,3-4.5,1.9-3.9-2.5-9-5.9-6.7,3.5-5-9.6-15.9-14.8-16.6.9-4.9-3.2-8.4-8.1-8.8.5-5.9-19.3-19.1-23-15.7.9-5.6-8.4-11-13.4-8.9-4.3-7.4-13.1,6.5-6.7,9.1-.8.9-1.1,2.3-1.8,3.3,1.2.7,2.5,3,4,3.7-1.5,3,.5,2.4,2.2,3.9"/><path class="o" d="M795,145.3c-2.3-4.2-7.4-7.8-12.2-6.6-2.5.6-3.3,3.3-4.5,3.9-1.9.9-2.9.3-4.8.9-13.7,4.1,5.4,15.1,7,5.5,3.3.8,7.1,4.6,10.6,3.9,3.2-.6,5.6-3.4,4.3-6.6A10.37,10.37,0,0,0,795,145.3Z"/><path class="o" d="M795.8,143.8c-2.3-4.2-7.4-7.8-12.2-6.6-2.5.6-3.3,3.3-4.5,3.9-1.9.9-2.9.3-4.8.9-13.7,4.1,5.4,15.1,7,5.5,3.3.8,7.1,4.6,10.6,3.9,3.2-.6,5.6-3.4,4.3-6.6A4.18,4.18,0,0,0,795.8,143.8Z"/><path class="n" d="M852.6,103.9c-3.1-.5-5.8,3.8-5,6.6,1.3,4.1,7.1,3.3,9-.1C858.2,107.4,856.5,103.2,852.6,103.9Z"/><path class="h" d="M866.7,145.8c-3.3,1.1-1.5,6.2,1.8,4,2.5-1.7.3-4.6-1.5-4.2"/><path class="o" d="M1281.2,315.3c-2.3-4.2-7.4-7.8-12.2-6.6-2.5.6-3.3,3.3-4.5,3.9-1.9.9-2.9.3-4.8.9-13.7,4.1,5.4,15.1,7,5.5,3.3.8,7.1,4.6,10.6,3.9,3.2-.6,5.6-3.4,4.3-6.6A1.78,1.78,0,0,0,1281.2,315.3Z"/><path class="o" d="M1282.1,313.8c-2.3-4.2-7.4-7.8-12.2-6.6-2.5.6-3.3,3.3-4.5,3.9-1.9.9-2.9.3-4.8.9-13.7,4.1,5.4,15.1,7,5.5,3.3.8,7.1,4.6,10.6,3.9,3.2-.6,5.6-3.4,4.3-6.6A10.37,10.37,0,0,1,1282.1,313.8Z"/><path class="k" d="M1325.6,319c-3.3,1.1-1.5,6.2,1.8,4,2.5-1.7.3-4.6-1.5-4.2"/><path class="h" d="M1552.7,156.9c-3.3,1.1-1.5,6.2,1.8,4,2.5-1.7.3-4.6-1.5-4.2"/><path class="h" d="M1487.2,137.1c-.5-2.7-3.8-.8-2.4.5-1.7-1.6-4.5,1.3-2.3,2.6-2.6-1-2,4.9.6,3.7-1,1.8,1.5,4.5,3.2,2,2,3.5,8.7-3.2,4.5-4.9,1.6,1.6,1.2-2.8-.9-3.8.5-1.2-.2-1.9-1.1-1"/><polygon class="s" points="1292.33 243.47 1290.82 250.17 1270.53 252.28 1272.04 245.58 1292.33 243.47"/><path class="t" d="M1305.17,264.44c-2.19-2.59-2.78-2.87-6.29-2.63-6,.41-12.09.85-18.14,1.2-5.88.36-11.73,1.11-17.59,1.92s-12.37.67-18,2.18l-.16.05c-.54-2.1.22-3.12,1.66-3.56,2.13-.67,11.58-1.77,22-2.79l-.37,1.66,20.22-1.8.36-1.57c5.35-.37,9.48-.59,11-.52,4.24-.93,8.06,4,10,7.95,1,2-.89,4.74-1.33,5.5C1309.41,270.34,1306.72,266.24,1305.17,264.44Z"/><path class="u" d="M1279.85,237.43l66.9-6.89,9.64-38.41,11.26-44.79-67.78,7-71,7.34L1217.68,206l-9.76,38.83Zm-7.81,8.15-74.84,7.73,27.93-92.06,153.24-22.35-24.74,98.26-61.3,6.31.56-2.48-20.22,1.8Z"/><path class="t" d="M1305.17,264.44c1.55,1.8,4.24,5.9,3.32,7.59-1.51,2.5-12.16,2.49-15.78,2.83-34.87,3.22-40.44,3.95-43.25.15-2.69-3.57-4-6.09-4.5-7.85l.16-.05c5.66-1.51,12.14-1.38,18-2.18s11.71-1.56,17.59-1.92c6-.35,12.1-.79,18.14-1.2C1302.39,261.57,1303,261.85,1305.17,264.44Z"/><polygon class="s" points="1200.42 259.51 1197.2 253.31 1272.04 245.58 1270.53 252.28 1200.42 259.51"/><polygon class="u" points="1225.13 161.25 1197.2 253.31 1221.94 155.05 1378.37 138.9 1225.13 161.25"/><path class="t" d="M1288.45,260.67l-20.22,1.8.37-1.66c7-.65,14.32-1.3,20.21-1.71Z"/><path class="t" d="M1288.81,259.1c-5.89.41-13.26,1.06-20.21,1.71l1.93-8.53,20.29-2.11Z"/><polygon class="u" points="1292.33 243.47 1272.04 245.58 1272.67 242.79 1292.89 241 1292.33 243.47"/><polygon class="s" points="1381.56 145.09 1356.85 243.35 1290.82 250.17 1292.33 243.47 1353.63 237.16 1378.37 138.9 1381.56 145.09"/><polygon class="v" points="1367.65 147.34 1356.39 192.13 1355.08 191.81 1289.2 198.75 1299.88 154.53 1299.87 154.32 1367.65 147.34"/><polygon class="w" points="1367.65 147.34 1356.39 192.13 1355.08 191.81 1289.2 198.75 1299.88 154.53 1299.87 154.32 1367.65 147.34"/><polygon class="u" points="1356.39 192.13 1346.75 230.54 1279.85 237.43 1289.2 198.75 1355.08 191.81 1356.39 192.13"/><polygon class="u" points="1299.87 154.32 1299.88 154.53 1289.2 198.75 1218.3 206.21 1217.68 206.04 1228.82 161.66 1299.87 154.32"/><polygon class="x" points="1289.2 198.75 1279.85 237.43 1207.92 244.87 1217.68 206.04 1218.3 206.21 1289.2 198.75"/><line class="y" x1="1290.82" y1="250.17" x2="1288.81" y2="259.1"/><line class="y" x1="1268.6" y1="260.81" x2="1270.53" y2="252.28"/><polyline class="y" points="1378.37 138.9 1381.56 145.09 1356.85 243.35 1290.82 250.17 1270.53 252.28 1200.42 259.51 1197.2 253.31"/><polygon class="y" points="1378.37 138.9 1353.63 237.16 1292.33 243.47 1272.04 245.58 1197.2 253.31 1221.94 155.05 1378.37 138.9"/><path class="y" d="M1299.78,258.58c-1.49-.07-5.62.15-11,.52-5.89.41-13.26,1.06-20.21,1.71-10.4,1-19.85,2.12-22,2.79-1.44.44-2.2,1.46-1.66,3.56.46,1.76,1.81,4.28,4.5,7.85,2.81,3.8,8.38,3.07,43.25-.15,3.62-.34,14.27-.33,15.78-2.83.44-.76,2.33-3.5,1.33-5.5-2-3.94-5.8-8.88-10-7.95"/><path class="y" d="M1245.12,267.11c5.66-1.51,12.14-1.38,18-2.18s11.71-1.56,17.59-1.92c6-.35,12.1-.79,18.14-1.2,3.51-.24,4.1,0,6.29,2.63,1.55,1.8,4.24,5.9,3.32,7.59"/><polygon class="y" points="1356.39 192.13 1346.75 230.54 1279.85 237.43 1207.92 244.87 1217.68 206.04 1228.82 161.66 1299.87 154.32 1367.65 147.34 1356.39 192.13"/><polyline class="y" points="1299.88 154.53 1289.2 198.75 1279.85 237.43 1279.76 237.85"/><polyline class="y" points="1218.3 206.21 1289.2 198.75 1355.08 191.81"/><polygon class="z" points="1333.03 53.15 1325.51 65.66 1314.07 74.67 1299.96 78.27 1285.46 76.72 1273.03 69.12 1263.97 57.75 1260.35 43.66 1262.12 29.24 1269.29 16.56 1280.9 7.77 1294.92 3.82 1309.43 5.6 1322.11 12.92 1330.87 24.58 1334.76 38.63 1333.03 53.15"/><circle class="aa" cx="1297.45" cy="41.15" r="37.34"/></svg>