<svg xmlns="http://www.w3.org/2000/svg" width="116" height="606" viewBox="0 0 116 606"><defs><style>.a{fill:#f8b500;}</style></defs><path class="a" d="M107.1,6.8c-5.5,10-18.4,16.5-29,19a5.73,5.73,0,0,0-1-1.9,53.15,53.15,0,0,0,17-6.8,48.29,48.29,0,0,0-8.5-5.7,52.23,52.23,0,0,1-6.7,3.3,7.52,7.52,0,0,0-1.5-1.6C85.2,10.2,90.9,5.8,93.9,2l2.4.5c-1,1.1-2.1,2.3-3.3,3.4h12.4l.4-.1Zm6.7,14.9C108.4,34.3,94.4,40,81,42.1a7.22,7.22,0,0,0-.9-2A54.59,54.59,0,0,0,100,33.8a45.55,45.55,0,0,0-9.2-6.7A70.34,70.34,0,0,1,83,30.5a10.1,10.1,0,0,0-1.3-1.6c9-3,15.7-7.7,19.1-11.9l2.3.6A36.33,36.33,0,0,1,99.7,21H112l.4-.1ZM90.7,7.9a27.49,27.49,0,0,1-3.3,2.3,39.11,39.11,0,0,1,8.5,5.6A30.53,30.53,0,0,0,104,7.9Zm6.7,15A42.51,42.51,0,0,1,92.7,26a46.43,46.43,0,0,1,9.2,6.6,25.38,25.38,0,0,0,9-9.7Z"/><path class="a" d="M88.8,77.3c-.7-1.5-2.6-4.7-4-7V92.4h-2V69.6c-1.6,5.5-3.8,11-6,14.3a11.8,11.8,0,0,0-1.3-1.8c2.8-3.8,5.6-11.3,7-17.7H76.4v-2h6.4V52.6h2v9.8H90v2H84.8v3.3c1.2,1.6,4.5,6.7,5.2,8Zm11.1,6.6c-3.6,2.2-7.5,4.5-10.5,6.3l-1.1-1.8c2.8-1.5,6.9-3.8,11-6.2Zm3.3-9.6c2.1,6.6,6.4,12.3,12,14.7a12.7,12.7,0,0,0-1.4,1.7c-4.6-2.2-8.2-6.6-10.7-11.9V89.7c0,1.5-.3,2.1-1.2,2.5s-2.9.4-5.5.4a9.65,9.65,0,0,0-.6-2.1h4.7c.5,0,.6-.2.6-.7V72.3H90V70.4h11.2V66.2h-9V64.3h9V60.4H90.9V58.6h6a30.48,30.48,0,0,0-2.5-5.2l1.7-.6A21,21,0,0,1,98.7,58l-1.3.6h9.1l-.9-.4a41.13,41.13,0,0,0,2.7-5.6l2,.7c-1,1.8-2,3.9-3,5.3h6.6v1.8H103.1v3.9h9.8v1.9h-9.8v4.2h11.3v1.9H103.1v2Zm-10.1.3a27.2,27.2,0,0,1,4.5,5.9l-1.5,1.1a35.42,35.42,0,0,0-4.4-6.1Zm13.5,6.1a46.83,46.83,0,0,0,5.6-6.3l1.6,1.1a59.33,59.33,0,0,1-5.8,6.3Z"/><path class="a" d="M90,104.7a60.16,60.16,0,0,1-5,9.4v29H83V117a50.4,50.4,0,0,1-6.4,7.2,12.14,12.14,0,0,0-1.4-2A49,49,0,0,0,88,104Zm19.8,35.7c2.5,0,2.9-1.7,3.2-8.3a5.38,5.38,0,0,0,2,1c-.4,7-1.1,9.3-5.2,9.3h-9.6c-4,0-5.2-1.1-5.2-5.1V104.2h2v17.2c5.2-3,10.8-6.7,14-9.9l1.5,1.8c-3.9,3.5-9.9,7.2-15.4,10.3v13.9c0,2.3.6,2.9,3.2,2.9Z"/><path class="a" d="M100.9,162.5h11.7v2.2c-2.2-.1-5.6-.2-11.7-.2H99.5c0,2.6,0,5.4.1,7.3a10.52,10.52,0,0,1,1.2,5.2c0,5.9-2.4,11.7-11.8,14.7l-1.4-2.1c6.2-1.5,9.6-4.5,10.7-8.9a5.3,5.3,0,0,1-4.3,2.1c-3.6,0-6.4-2.5-6.4-6.8a6.9,6.9,0,0,1,6.7-7,7.93,7.93,0,0,1,3.2.7v-5.2c-6.3,0-13.6.4-18.8.8V163c4.4-.1,12.2-.4,18.8-.5,0-1.7,0-3.1-.1-3.9a12.48,12.48,0,0,0-.2-2.1h2.6c0,.4-.1,1.6-.1,2.1v3.8h1.2Zm-2.4,12.3c-.6-2.8-2.1-3.9-4.2-3.9a4.8,4.8,0,0,0-4.7,5.1,4.41,4.41,0,0,0,4.6,4.8C97,180.8,98.6,178.5,98.5,174.8Z"/><path class="a" d="M104.6,211.1c-.6.5-1.5,1.1-2,1.5-1.9,1.5-7.7,7-11.1,10.1a17.59,17.59,0,0,1,6.3-1.2c6.8,0,11.5,4,11.5,9.5,0,7.1-6.3,11-14.3,11-5.5,0-7.9-2.6-7.9-5.6,0-2.6,2.2-5,5.8-5,5,0,7.7,3.6,8.3,7.5,3.7-1.4,6.1-4,6.1-8,0-4.4-4.1-7.5-9.6-7.5-6.6,0-10.7,3.1-16.1,8.7L80,230.5c3.6-3.3,9-8,11.4-10.1l9.7-8.8c-2.3.1-11.2.6-13.3.7a21.05,21.05,0,0,0-2.5.2l-.1-2.4a22.63,22.63,0,0,0,2.5.1c2.1,0,11.8-.4,13.9-.6a10.93,10.93,0,0,0,1.7-.3Zm-5.5,28.4c-.4-3.7-2.6-6.2-6.3-6.2-2.1,0-3.8,1.2-3.8,2.9,0,2.4,2.4,3.6,5.8,3.6A15.06,15.06,0,0,0,99.1,239.5Z"/><path class="a" d="M107.5,260.1a22.07,22.07,0,0,0-1.2,2.7,55.35,55.35,0,0,1-6.7,13.3,102.93,102.93,0,0,1,10.6,10.2l-1.7,1.8a91.07,91.07,0,0,0-10.3-10.3,51.86,51.86,0,0,1-16.9,14.4l-1.8-1.7a47,47,0,0,0,17.1-14.1,131.14,131.14,0,0,0-12.1-9l1.3-1.8c3.8,2.5,9,6.4,12.1,9a52.17,52.17,0,0,0,6.4-12.7,18.7,18.7,0,0,0,.8-2.8Z"/><path class="a" d="M109.1,321.9a15.64,15.64,0,0,0,3-.2v2.4c-.9,0-2-.1-3-.1H97c-.1,4.8-.6,9-2.4,12.3a21.14,21.14,0,0,1-8.2,7.7l-2-1.6a17.3,17.3,0,0,0,8.1-6.9c1.9-3.3,2.2-7.1,2.3-11.5H81.6c-1.3,0-2.3,0-3.5.1v-2.4a34.91,34.91,0,0,0,3.5.2Zm-22.4-8.6c-1.3,0-2.5,0-3.5.1V311c1.1.1,2.1.2,3.4.2h15a21.14,21.14,0,0,0,3.5-.2v2.4c-1.1-.1-2.5-.1-3.5-.1Zm22.4.6a40.69,40.69,0,0,0-3.5-6l1.6-.7a48.3,48.3,0,0,1,3.5,5.9Zm2.5-8.3a35.82,35.82,0,0,1,3.6,5.9l-1.6.8a30.64,30.64,0,0,0-3.5-5.9Z"/><path class="a" d="M111.7,354.5a53,53,0,0,1-9,7.7v15a30.22,30.22,0,0,0,.1,3.3h-2.4c0-.5.1-2.1.1-3.3V363.5a65,65,0,0,1-13,5.5l-1.2-2.1a49.91,49.91,0,0,0,13.5-5.5,37.37,37.37,0,0,0,10.2-8.5Z"/><path class="a" d="M112.9,404.6a10.63,10.63,0,0,0-.9,1.1,40.6,40.6,0,0,1-10.7,12l-1.9-1.5c4.2-2.4,8.5-7.6,10.1-10.6H84.4c-1.5,0-3.1.1-4.6.2v-2.6a34.4,34.4,0,0,0,4.6.3h25a13.61,13.61,0,0,0,2.1-.2Zm-16.6,5.6c0,12.4-1.5,19.8-11.7,24.7l-2-1.7a17.38,17.38,0,0,0,3.4-1.6c7.2-4.3,8.1-11.4,8.1-18.7a25.28,25.28,0,0,0-.1-2.7Z"/><path class="a" d="M107,458.4a26.28,26.28,0,0,1-2.6,1.5,119.23,119.23,0,0,0-13.1,7.4c-4.1,2.8-6.4,5.8-6.4,9.1,0,3.8,3.5,6.3,10.4,6.3a59,59,0,0,0,13.1-1.4v2.5a83.38,83.38,0,0,1-12.9,1c-7.4,0-12.7-2.4-12.7-8.2,0-4.1,2.5-7.7,7.3-11A131.3,131.3,0,0,1,84,452.3l2.1-.9a119,119,0,0,0,5.7,13c4.1-2.6,9.2-5.1,11.6-6.5a16.63,16.63,0,0,0,2.4-1.6Z"/><path class="a" d="M112.3,510.7a62.22,62.22,0,0,0-9.4-9.7l1.8-1.6a88.26,88.26,0,0,1,9.6,9.7Z"/><path class="a" d="M8.4,253.5c-.6,5.8-2.2,12.9-5.3,17l-1.8-1.1c3-3.9,4.5-10.7,5.1-16.3Zm6.9-4.2V272c0,1.9.6,2.4,3.1,2.4h9.1c2.8,0,3.2-1.8,3.5-9.8a6.64,6.64,0,0,0,2,1.1c-.4,8.3-1.1,10.7-5.5,10.7H18.3c-3.9,0-5.1-.9-5.1-4.4V249.3Zm-.4-11.9a76.9,76.9,0,0,1,14.9,7.1l-1.2,1.8A66.73,66.73,0,0,0,13.7,239Zm18.3,14.4c3.9,5.1,7.2,11.9,8.3,16.5l-2,.9c-1-4.6-4.4-11.5-8.1-16.5Z"/><path class="a" d="M21.3,322.6c1.2-.1,2.4-.3,3.3-.4,5.3-1.2,11.1-5.3,11.1-13.3,0-6.8-4.5-12.6-12.4-13a75.12,75.12,0,0,1-2.5,12.7c-2.5,8.8-5.6,12.9-9.1,12.9-3.1,0-6.7-3.8-6.7-10.8,0-8.9,7.8-16.8,17.5-16.8,9.3,0,15.3,6.9,15.3,15.1,0,8.9-5.9,14.7-15.4,15.8ZM21.1,296c-8.5.8-14,8.2-14,14.5,0,6,2.9,8.5,4.7,8.5s4.6-2.9,7-10.9A68.13,68.13,0,0,0,21.1,296Z"/><path class="a" d="M6.1,354.2v24.1h-2V340.4h15v13.8Zm0-12.1v4.2h11v-4.2Zm11,10.4V348H6.1v4.4h11Zm5.5,14.9c1.8,3.6,5.2,6,9.9,7a6.53,6.53,0,0,0-1.3,1.6,15.35,15.35,0,0,1-10-7.3c-1.1,2.7-3.8,5.5-10.3,7.6-.3-.4-.9-1.1-1.2-1.5,6.7-2,9.1-4.8,9.9-7.3H9.9v-1.8h10v-4.2H10.6v-1.8H16a11.56,11.56,0,0,0-2.3-4l1.7-.6a17.16,17.16,0,0,1,2.5,4.5l-.3.1h6.5a30.72,30.72,0,0,0,2.4-4.8l1.9.7c-.8,1.4-1.6,2.9-2.4,4h5.8v1.8H21.9v4.1H32.7v1.8H22.6Zm16.2,7.9c0,1.5-.3,2.2-1.4,2.6-.9.4-2.7.4-5.4.4a10.33,10.33,0,0,0-.7-2.1H36c.6,0,.8-.2.8-.8V354.3H23.4V340.5H38.8ZM25.4,342.1v4.2H36.8v-4.2Zm11.4,10.4V348H25.4v4.4H36.8Z"/><path class="a" d="M13.4,389.9a73.82,73.82,0,0,1-4,9.1v29.9h-2V402.5a52.23,52.23,0,0,1-5.2,7.1c-.3-.5-.9-1.5-1.2-1.9a54,54,0,0,0,10.6-18.4Zm7,27.5a35.24,35.24,0,0,1-7.1,9.5,7.17,7.17,0,0,0-1.5-1.1,32,32,0,0,0,6.7-9ZM39.6,416c-.5-.9-1.2-1.9-2-3.1-3.5.1-7,.3-10.4.4v15.5h-2V413.3c-4.9.2-9.3.3-12.9.4l-.3-2.1c2,0,4.4-.1,7.1-.1,1.2-1.1,2.4-2.2,3.7-3.6a52.54,52.54,0,0,0-9-7.2l1.2-1.3c1,.6,2,1.3,3,2a49,49,0,0,0,5.2-6.8c-3.1.4-6.3.6-9.2.8a5.78,5.78,0,0,0-.6-1.7c8.1-.7,18.1-1.8,23.3-3.5l1.5,1.7a78.74,78.74,0,0,1-12.6,2.4l.2.1a87,87,0,0,1-6.5,8,41.7,41.7,0,0,1,4.7,4.1,124.74,124.74,0,0,0,8.2-9.5l1.9,1a142.79,142.79,0,0,1-12.5,13.4c4.5-.1,9.5-.2,14.4-.4a58,58,0,0,0-4.7-5.1l1.5-.9a43.93,43.93,0,0,1,8.2,9.8Zm-5.8.7a44.08,44.08,0,0,1,6.9,9.2l-1.6,1a40.5,40.5,0,0,0-6.8-9.3Z"/><path class="a" d="M22.7,470.3c.1-1.8.1-5.1.1-7.5-4.3,2.3-7.6,4.8-7.6,8.1,0,3.9,3.9,4.3,8.3,4.3a73.91,73.91,0,0,0,11-.9l-.1,2.3a99.93,99.93,0,0,1-11,.7c-5.5,0-10.3-1.1-10.3-6.1,0-4.7,4.7-7.7,9.6-10.4-.2-2.2-1.8-3.3-4.1-3.3a10.94,10.94,0,0,0-7.5,3.2A44.15,44.15,0,0,0,7.3,465l-1.8-1.5c5.9-6.1,8.4-10.8,9.7-13.8H12.8c-1.8,0-4.4,0-6.7-.2v-2.2a57.12,57.12,0,0,0,6.8.4H16a24.89,24.89,0,0,0,1.2-5.5l2.3.2a54.16,54.16,0,0,1-1.4,5.3,90.61,90.61,0,0,0,13.1-1.4v2.2a102.64,102.64,0,0,1-13.8,1.2,33.26,33.26,0,0,1-4.5,7.9,12,12,0,0,1,6.3-2c2.8,0,5,1.5,5.4,4.2,3.2-1.6,6.3-2.9,8.7-4,1-.5,1.8-.9,2.7-1.3l.9,2.2c-.9.3-2,.7-2.9,1.1-2.6,1-6,2.4-9.4,4.1,0,2.5.1,6.3.1,8.5h-2Z"/><path class="a" d="M40.1,517H22.4v10.2c0,1.5-.4,2.2-1.7,2.6s-3.6.4-7.6.4a9.34,9.34,0,0,0-1-2c3.7.1,6.3.1,7.2,0s1-.3,1-.9V517H2.8v-2H20.3v-3.4h1.1a35.39,35.39,0,0,0,8-4.8H9.6v-1.9H31.5l.5-.1,1.4,1.1a36.8,36.8,0,0,1-11,7.2v2H40.2V517ZM5.8,506.9h-2v-9.2h7a39.7,39.7,0,0,0-4-6.1l1.7-.8a24.26,24.26,0,0,1,4.2,6.2l-1.2.7h9.8a34.29,34.29,0,0,0-3.4-7l1.7-.7a26.87,26.87,0,0,1,3.5,7l-1.5.7h8.1a56.75,56.75,0,0,0,5.2-7.2l2,.8a63.53,63.53,0,0,1-4.9,6.4h7.3v9.2h-2v-7.3H5.8Z"/><path class="a" d="M2.9,575.7l-1.3-1.8a49.35,49.35,0,0,0,10.6-8.3l1.3,1.6A51.92,51.92,0,0,1,2.9,575.7Zm9.8-.8a22,22,0,0,0,6.8.9c1.8,0,4.5-.7,4.5-4,0-3.1-3.2-7-5.7-9.9-.8-.9-2-2.1-3-3.1l1.7-1.5c.9,1,1.9,2.1,2.8,3.2,3.5,3.9,6.4,7.7,6.4,11.4,0,4.9-4.2,5.9-6.4,5.9a37.46,37.46,0,0,1-6.8-.7Zm8.5-20.7c1.1-.7,2.3-1.7,3-2.2a41.36,41.36,0,0,0-9.2-5.4l1.3-1.7a56.31,56.31,0,0,1,9.9,5.9l.6,1.6c-.9.8-2.8,2.2-4.2,3.3ZM37,575.6c-1.3-3.9-4.3-9.9-7.2-13.1l1.8-1.1a52,52,0,0,1,7.4,13Zm-1.5-20.8-1.6.8a44.15,44.15,0,0,0-3.4-6l1.5-.7A48.3,48.3,0,0,1,35.5,554.8Zm4.5-1.6-1.6.8a58.85,58.85,0,0,0-3.5-6l1.6-.7C37.5,548.9,39.2,551.5,40,553.2Z"/><path class="a" d="M40.5,598.8a6.17,6.17,0,0,1-6.1,6.3,6.25,6.25,0,0,1-6.2-6.3,6.34,6.34,0,0,1,6.2-6.4A6.39,6.39,0,0,1,40.5,598.8Zm-1.5,0a4.55,4.55,0,1,0-4.6,4.7A4.67,4.67,0,0,0,39,598.8Z"/></svg>