<svg xmlns="http://www.w3.org/2000/svg" width="74" height="439" viewBox="0 0 74 439"><defs><style>.a{fill:#00a7db;}.b{fill:none;stroke:#00a7db;stroke-miterlimit:10;}</style></defs><path class="a" d="M52.8,92.2c-.4,3.5-1.3,7.9-3.3,10.4l-1.1-.7c1.9-2.4,2.7-6.6,3.1-10Zm4.3-2.6v14c0,1.2.4,1.5,1.9,1.5h5.6c1.7,0,2-1.1,2.2-6a2.73,2.73,0,0,0,1.2.6c-.2,5.1-.7,6.6-3.4,6.6H59c-2.4,0-3.1-.6-3.1-2.7v-14Zm-.3-7.2A46.47,46.47,0,0,1,66,86.8l-.8,1.1a42.84,42.84,0,0,0-9.1-4.5ZM68,91.2a31,31,0,0,1,5.1,10.1l-1.2.6A31.21,31.21,0,0,0,67,91.8Z"/><path class="a" d="M57,132c-2.8,1-5.7,2-7.9,2.8l-.3-1.3c1-.3,2.3-.8,3.7-1.2v-7.9H49.3v-1.2h3.2v-6.6H49v-1.2h7.8v1.2H53.6v6.6h2.9v1.2H53.6v7.5c1-.3,2.1-.7,3.1-1.1Zm15.9,3.6v1.2h-17v-1.2h8.4v-4.3H58V130h6.3v-3.7H58.4V114.6H71.5v11.7h-6V130H72v1.2H65.5v4.3h7.4ZM59.6,119.8h4.8v-4.1H59.6Zm0,5.4h4.8V121H59.6Zm10.7-9.4H65.4v4.1h4.9Zm0,5.2H65.4v4.2h4.9Z"/><path class="a" d="M55.7,144.6c-.4,1.3-1,2.9-1.4,4.1h4.6V166H51.4v2.2H50.2V148.7h2.9c.4-1.3,1-3.1,1.3-4.4Zm2,5.2H51.4v6.5h6.3Zm0,14.9v-7.2H51.4v7.2Zm14-15.3c-.4,12.5-.8,16.6-1.9,17.9a2.06,2.06,0,0,1-1.8.8,26.06,26.06,0,0,1-3.8-.1,6.47,6.47,0,0,0-.4-1.3c1.7.1,3.3.2,3.8.2a1.37,1.37,0,0,0,1.1-.4c.9-1,1.3-5.2,1.7-16.7H63.1a26,26,0,0,1-2.6,5,10.54,10.54,0,0,0-1.1-.7,27.57,27.57,0,0,0,4-10l1.2.3a29,29,0,0,1-1.2,4.2h8.1v.8Zm-5.1,12a52.8,52.8,0,0,0-4.2-6.3l1-.6a58.78,58.78,0,0,1,4.3,6.2Z"/><path class="a" d="M55,175.9a39.87,39.87,0,0,1-1.9,5.2v18.8H51.9V183.6a33.09,33.09,0,0,1-2.9,4.6,7.46,7.46,0,0,0-.7-1.2,34.69,34.69,0,0,0,5.6-11.4Zm4.2,18.5c.6,0,.6-.7.7-3.9a2.7,2.7,0,0,0,1.1.5c-.1,3.5-.4,4.6-1.7,4.6h-2c-1.3,0-1.7-.4-1.7-2.1V178.1h1.2v7.2a34.62,34.62,0,0,0,3.3-3.5l.9.9a38.08,38.08,0,0,1-4.2,3.9v6.9c0,.7.1.9.7.9Zm5.8,1.9a16.34,16.34,0,0,1-5.6,3.6,3.84,3.84,0,0,0-.9-.9,14.7,14.7,0,0,0,5.3-3.4Zm0-15.6a21.36,21.36,0,0,0,.9-2.7H60.1v-1.2H72.6V178H67.2c-.3.9-.7,1.9-1,2.7h5.5v14.1H61.5V180.7Zm5.6,1.1H62.7V185h7.9Zm0,4.3H62.7v3.2h7.9Zm0,4.3H62.7v3.3h7.9Zm-1.8,5.3a34,34,0,0,1,4.3,3.4l-1,.7a31.1,31.1,0,0,0-4.2-3.5Z"/><path class="a" d="M71.2,228.8c0,1.1-.3,1.6-1.1,1.8a27.15,27.15,0,0,1-4.8.2,7.84,7.84,0,0,0-.5-1.4,31.68,31.68,0,0,0,4.5,0c.5,0,.7-.2.7-.7V212.3H51.8v18.5H50.5V211.1h7.2a47.8,47.8,0,0,0,1.9-4.8l1.5.3a46.84,46.84,0,0,1-2,4.5H71.3v17.7Zm-14.3-3.5v1.9H55.7V216.5H65.9v8.7h-9Zm0-7.5v6.3h7.9v-6.3Z"/><path class="a" d="M61.7,256.3c.1-1.1.1-3.2.1-4.6-2.6,1.4-4.6,2.9-4.6,4.9,0,2.4,2.4,2.6,5.1,2.6a54.33,54.33,0,0,0,6.7-.5l-.1,1.4c-2,.2-4.7.4-6.8.4-3.4,0-6.3-.7-6.3-3.8,0-2.9,2.9-4.8,5.9-6.4a2.21,2.21,0,0,0-2.5-2,6.7,6.7,0,0,0-4.6,2,32.32,32.32,0,0,0-2.3,2.6l-1.1-.9a26.17,26.17,0,0,0,5.9-8.4H55.6c-1.1,0-2.7,0-4.1-.1v-1.3a33.11,33.11,0,0,0,4.2.3h1.9a10.86,10.86,0,0,0,.7-3.4l1.4.1c-.2.8-.4,2-.8,3.2a69.44,69.44,0,0,0,8.1-.8v1.3a76.92,76.92,0,0,1-8.5.7,18.19,18.19,0,0,1-2.8,4.8,6.89,6.89,0,0,1,3.9-1.2,3,3,0,0,1,3.3,2.6c2-1,3.8-1.8,5.3-2.5.6-.3,1.1-.5,1.7-.8l.5,1.3c-.5.2-1.2.4-1.8.7-1.6.6-3.7,1.5-5.8,2.5,0,1.5.1,3.9.1,5.2H61.7Z"/><path class="a" d="M57.7,269.6a26.71,26.71,0,0,1-8.1,10.9,5.24,5.24,0,0,0-1.1-1,22.2,22.2,0,0,0,7.9-10.3Zm11.1,9.3v.7c-.4,8.4-.9,11.5-1.8,12.5a2,2,0,0,1-1.8.7,32.13,32.13,0,0,1-4.2-.1,6.47,6.47,0,0,0-.4-1.3c1.9.1,3.6.2,4.2.2a1.61,1.61,0,0,0,1.1-.3c.8-.8,1.2-3.6,1.6-11.2H59.8c-.7,5.5-2.4,10.5-9,12.9a7.63,7.63,0,0,0-.8-1.1c6.4-2.2,7.9-6.9,8.5-11.9H52.6v-1.2H68.8Zm-3.7-9.8a26.51,26.51,0,0,0,8,9.9,10,10,0,0,0-1,1.1c-2.9-2.2-6.2-6.6-8.1-10.5Z"/><path class="a" d="M57.6,315.3a43.53,43.53,0,0,0-2.8-4.1V324H53.6V309.6c-1.1,3.5-2.6,7.2-4.2,9.2a7.63,7.63,0,0,0-.8-1.1,32.29,32.29,0,0,0,4.7-10.9H49.2v-1.3h4.3v-5.9h1.2v5.9h3.8v1.3H54.7v2.9c.9,1,3.2,3.8,3.7,4.6Zm15.1-5.2H68.5V324H67.3V310.1H61.8c-.1,4.2-.6,9.6-3.5,13.7a3.92,3.92,0,0,0-1-.8c2.9-4.1,3.3-9.5,3.3-13.7V302l1.2.4a42.06,42.06,0,0,0,8.5-2.4l1.1,1a62.7,62.7,0,0,1-9.6,2.6V309H72.7Z"/><path class="a" d="M56.3,332.7a13.61,13.61,0,0,0-.2,2.1c-.1,3-.3,9.4-.3,13.7,0,3,1.9,4,4.5,4,4.9,0,7.5-2.8,9.3-5.4l.9,1.2a12.13,12.13,0,0,1-10.3,5.6c-3.4,0-5.8-1.4-5.8-5.5s.3-10.5.3-13.6a6.82,6.82,0,0,0-.2-2.1Z"/><path class="a" d="M71.2,369.1a36.14,36.14,0,0,0-5.8-5.9l1.1-1a46.93,46.93,0,0,1,5.9,5.9Z"/><path class="a" d="M5.8,134a26.1,26.1,0,0,0-4.6-3.2l.7-.9A24.51,24.51,0,0,1,6.5,133ZM2,145.7a79.94,79.94,0,0,0,4.4-8.8l1,.8c-1.2,2.8-2.9,6.4-4.3,8.9Zm1.2-23a23.54,23.54,0,0,1,4.5,3.1l-.8,1a17.25,17.25,0,0,0-4.4-3.2Zm8.9,6.3a18.67,18.67,0,0,0-2.8-5.1l1.1-.5a20.09,20.09,0,0,1,2.9,5Zm11,15.9c0,.9-.2,1.3-.9,1.6a18,18,0,0,1-3.9.2,6.94,6.94,0,0,0-.5-1.3,18.88,18.88,0,0,0,3.5,0c.4,0,.6-.2.6-.5v-4.2H11.2v6.2H10V130.2h6v-7.8h1.3v7.8h5.8ZM11.2,131.4v3.4H21.9v-3.4Zm10.7,8.1V136H11.2v3.5Zm2.2-15.7a31.68,31.68,0,0,1-3.2,5.1l-1-.5a37.79,37.79,0,0,0,3-5.1Z"/><path class="a" d="M10.6,175.1a44.23,44.23,0,0,1-8,2.9,4.3,4.3,0,0,0-.9-1,39.77,39.77,0,0,0,7.8-2.4ZM4.9,165a16.26,16.26,0,0,1-2.6.7,6,6,0,0,0-.6-1.1c3.6-.8,5.5-1.8,6.6-3H4.1l-.2.4H2.7c.5-1.1,1-2.8,1.5-4.1H9.6v-1.8H2.9v-1H9.6v-1.7h1.2v1.7h4.7v-1.7h1.2v1.7h6v3.8h-6v1.7h7.6v.5c-.2,1.6-.4,2.3-.8,2.7a1.37,1.37,0,0,1-1.1.4h-.8v9.7H4.9ZM9,160.7a4.8,4.8,0,0,0,.5-1.7H5.1c-.2.6-.4,1.2-.6,1.7ZM20.4,165H6.2v2H20.4Zm0,2.9H6.2v2H20.4Zm0,3H6.2v2H20.4ZM9.9,161.7A7.06,7.06,0,0,1,7.4,164H20.1a6.89,6.89,0,0,1-.3-.8,18.15,18.15,0,0,0,2,.1,1.29,1.29,0,0,0,.7-.1c.2-.2.3-.6.4-1.5H16.6v2.1H15.4v-2.1Zm5.5-2.7H10.7a4.67,4.67,0,0,1-.3,1.7h5.1V159Zm0-1.1v-1.8H10.7v1.8Zm1.2,16.7c3,.8,6.1,1.8,8,2.5l-1.3.8a54.2,54.2,0,0,0-7.8-2.6Zm.1-18.4V158h4.8v-1.8Z"/><path class="a" d="M14.6,194.7a42.57,42.57,0,0,1-5,3.2H21.3v11H20V208H8.5v.9H7.2v-9.7a50.54,50.54,0,0,1-5.3,2.4,8.7,8.7,0,0,0-.9-1.1,54.31,54.31,0,0,0,11.5-5.9H1.5v-1.2h9.3v-4.1h-7v-1.2h7v-3.7h1.3v3.7h7v1a36.85,36.85,0,0,0,3.2-3.7l1,.6a41.41,41.41,0,0,1-7.2,7.3h8.5v1.2h-10Zm5.5,4.4H8.5v3.2H20.1Zm0,7.7v-3.4H8.5v3.4Zm-5.9-13.3a46,46,0,0,0,4.7-4.1H12.1v4.1Z"/><path class="a" d="M9.5,221.7q-1.35,2.1-3,4.2v14.3H5.2V227.3c-1.2,1.2-2.3,2.3-3.5,3.3a10.63,10.63,0,0,1-.9-1.1,31.13,31.13,0,0,0,7.5-8.2ZM8.4,216a33.35,33.35,0,0,1-6.5,6.5,3.92,3.92,0,0,0-.8-1,28.59,28.59,0,0,0,6.1-5.9Zm16.5,9.9H20.7v12.2c0,.9-.3,1.4-1,1.6a24.62,24.62,0,0,1-4.8.2,10.41,10.41,0,0,0-.5-1.2,28.15,28.15,0,0,0,4.3,0c.5,0,.7-.1.7-.6V225.9H10v-1.2H24.8v1.2Zm-.8-7.4H11.2v-1.2H24.1Z"/><path class="a" d="M24.4,253.8c-.3,11.5-.6,15.2-1.5,16.3a1.72,1.72,0,0,1-1.6.8,17.22,17.22,0,0,1-3.1-.1,2.45,2.45,0,0,0-.4-1.2c1.4.1,2.6.1,3.1.1a1.08,1.08,0,0,0,.9-.3c.7-.9,1-4.6,1.3-15.1H18.6c-.3,7.2-1.5,13.3-6.3,16.9a4.3,4.3,0,0,0-1-.9,10.46,10.46,0,0,0,1.9-1.7c-4.2.5-8.6,1.1-11.7,1.5l-.2-1.2c1.6-.2,3.7-.4,5.9-.6v-2.8H2v-1.1H7.2v-2H2.1v-7.9H7.2v-2.1H1.3v-1.1H7.2V249c-1.8.2-3.6.3-5.2.4-.1-.3-.2-.8-.3-1A80.32,80.32,0,0,0,13,247.1l.7,1a48.13,48.13,0,0,1-5.3.9v2.4h5.9v1.1H8.4v2.1h5.3v7.9H8.4v2h5.3v1.1H8.4v2.6l5.5-.6v.3c2.5-3.4,3.3-8.1,3.5-13.4H14V253h3.5c.1-2,.1-4,.1-6.2h1.2c0,2.1,0,4.2-.1,6.2h5.7Zm-21.2,4h4v-2.3h-4Zm4,3.5v-2.4h-4v2.4Zm1.2-5.8v2.3h4.2v-2.3Zm4.2,3.3H8.4v2.4h4.2Z"/><path class="a" d="M14,296.5c.1-1.1.1-3.2.1-4.6-2.6,1.4-4.6,2.9-4.6,4.9,0,2.4,2.4,2.6,5.1,2.6a54.33,54.33,0,0,0,6.7-.5l-.1,1.4c-2,.2-4.7.4-6.8.4-3.4,0-6.3-.7-6.3-3.8,0-2.9,2.9-4.8,5.9-6.4a2.21,2.21,0,0,0-2.5-2,6.7,6.7,0,0,0-4.6,2,32.32,32.32,0,0,0-2.3,2.6l-1.1-.9a26.17,26.17,0,0,0,5.9-8.4H7.9c-1.1,0-2.7,0-4.1-.1v-1.3a33.11,33.11,0,0,0,4.2.3H9.9a10.86,10.86,0,0,0,.7-3.4l1.4.1c-.2.8-.4,2-.8,3.2a69.44,69.44,0,0,0,8.1-.8v1.3a76.92,76.92,0,0,1-8.5.7A18.19,18.19,0,0,1,8,288.6a6.89,6.89,0,0,1,3.9-1.2,3,3,0,0,1,3.3,2.6c2-1,3.8-1.8,5.3-2.5.6-.3,1.1-.5,1.7-.8l.6,1.3c-.5.2-1.2.4-1.8.7-1.6.6-3.7,1.5-5.8,2.5,0,1.5.1,3.9.1,5.2H14Z"/><path class="a" d="M9.9,314.3H1.2v-1.2H9.9Zm-.7,17.3H3.4v1.3H2.3v-9H9.2ZM2.3,316.8H9.2v1.1H2.3Zm0,3.5H9.2v1.1H2.3Zm6.8-9.5H2.4v-1.1H9.1ZM3.4,325v5.4H8V325Zm12.5-2.7c-.3,5.8-1.2,9.1-5.7,10.8a3.92,3.92,0,0,0-.8-1c4.3-1.6,5-4.5,5.2-9.9h1.3Zm1-9.8H10.6v-1.2h6.3v-2.7h1.2v2.7h6.5v1.2H18.1v3.1h5.7v1.1H11.4v-1.1h5.4v-3.1Zm-5.1,11.2H10.6v-4.5H24.7v4.5H23.5v-3.4H11.8Zm11.5,7.9c.7,0,.8-.5.8-3.6a5.36,5.36,0,0,0,1.1.5c-.1,3.4-.4,4.3-1.8,4.3H21c-1.5,0-1.9-.4-1.9-1.9v-8.5h1.2v8.5c0,.6.1.7.8.7Z"/><path class="a" d="M23.7,357.3a19.47,19.47,0,0,0-3-2.2,11.81,11.81,0,0,1-6.8,8.2l-1.1-1a11.62,11.62,0,0,0,6.8-7.9,19.28,19.28,0,0,0-8-2.5c-1,2.3-2.3,5.6-3.4,7.1a3.08,3.08,0,0,1-2.7,1.6,3,3,0,0,1-3-3.2c0-3.8,3.4-6.6,8.3-6.7,1-2.3,2.1-4.8,3-6.6-1,.1-4.6.2-5.8.3-.6.1-1.2.1-1.8.2l-.1-1.5a10.87,10.87,0,0,0,1.8.1c1.3,0,4.9-.2,6-.3a2,2,0,0,0,.9-.2l.9.8a2.76,2.76,0,0,0-.6.8c-.7,1.2-1.9,4.1-3.1,6.6a21,21,0,0,1,7.7,2.3,11.34,11.34,0,0,0,.3-2.5c0-.5.1-1.3.1-2.2l1.3.1c-.1,1.9-.3,3.6-.5,5.2a23.58,23.58,0,0,1,3.3,2.2ZM10.3,352c-4.1.2-6.5,2.8-6.5,5.3a1.78,1.78,0,0,0,1.7,2,1.71,1.71,0,0,0,1.6-.9C8.2,357,9.3,354.2,10.3,352Z"/><path class="a" d="M12.1,393.6c0,.8-.2,1.2-.8,1.4a14.39,14.39,0,0,1-3.6.2c-.1-.3-.3-.8-.4-1.1a16,16,0,0,0,3.2,0c.4,0,.5-.1.5-.5v-5.4H4a16.71,16.71,0,0,1-2,7.1,3.33,3.33,0,0,0-1-.6c1.8-2.9,2-6.9,2-9.9V379a6.42,6.42,0,0,1-1,1.3,8.74,8.74,0,0,0-1-.8,20.81,20.81,0,0,0,4.2-8.7l1.2.3a17.23,17.23,0,0,1-.7,2.1H9.2l.2-.1.8.5a20.44,20.44,0,0,1-1.8,4h3.5v16ZM5.5,374.3q-.75,1.8-1.5,3.3H7.5A25.21,25.21,0,0,0,9,374.3ZM4.2,384.8a18.48,18.48,0,0,1-.1,2.3h3v-3.7H4.2Zm0-2.6H7.1v-3.6H4.2Zm3.9,0H11v-3.6H8.1Zm2.9,4.9v-3.7H8.1v3.7Zm7.3-13.8c-.6,3.2-2,6-5.2,7.5a3.45,3.45,0,0,0-.8-.9c3-1.3,4.2-3.9,4.7-6.6H13.1v-1.2H24.3v.6c-.2,4.6-.5,6.3-1,6.9a1.43,1.43,0,0,1-1.3.5,13.34,13.34,0,0,1-2.7-.1,3.54,3.54,0,0,0-.3-1.1c1.2.1,2.3.1,2.6.1s.6,0,.8-.2c.4-.4.6-1.8.8-5.5ZM25,389.7H19.7v5.4H18.5v-5.4H12.6v-1.2h5.9v-3.8H15.2a21,21,0,0,1-1.5,3,3.88,3.88,0,0,0-1.1-.6,16.59,16.59,0,0,0,2.6-6.2l1.2.2a23.35,23.35,0,0,1-.7,2.5h2.9v-3h1.2v3h4.9v1.2H19.8v3.8H25Z"/><path class="a" d="M17.8,404.5a17.88,17.88,0,0,0-1.4,1.3c-1.8,1.7-5.6,4.8-7.6,6.5-1.6,1.4-1.7,1.9.1,3.3,2.5,2.1,7.1,6,9.6,8.6l-1.2,1.1c-.4-.5-1-1.1-1.4-1.6-1.4-1.5-5.8-5.4-8.2-7.4s-2-3,.1-4.8a95.83,95.83,0,0,0,7.6-6.7,8.78,8.78,0,0,0,1.2-1.5Z"/><path class="a" d="M24.9,434.2a3.8,3.8,0,1,1-7.6,0,3.8,3.8,0,1,1,7.6,0Zm-1,0a2.8,2.8,0,1,0-2.8,2.9A2.88,2.88,0,0,0,23.9,434.2Z"/><line class="b" x1="59.5" y1="1" x2="59.5" y2="70"/></svg>