<svg xmlns="http://www.w3.org/2000/svg" width="267" height="272" viewBox="0 0 267 272"><path d="M132.73,271c-1,0-2,0-3-.05l.06-2c1,0,2,0,3,.05Zm3,0,0-2c1,0,2,0,3-.08l.08,2C137.77,270.94,136.76,271,135.75,271Zm-9.06-.15c-1-.05-2-.12-3-.19l.14-2q1.49.11,3,.18Zm15.1-.08-.13-2c1-.06,2-.13,3-.22l.17,2C143.8,270.61,142.8,270.68,141.79,270.75Zm-21.13-.36q-1.5-.15-3-.33l.24-2,3,.32Zm27.15-.15-.21-2,3-.35.26,2Zm-33.15-.57c-1-.14-2-.29-3-.46l.32-2c1,.16,2,.31,3,.45Zm39.14-.22-.3-2c1-.15,2-.32,2.94-.49l.34,2C155.79,269.14,154.8,269.3,153.8,269.45Zm-45.1-.77c-1-.18-2-.38-3-.59l.42-2c1,.21,1.94.4,2.91.59Zm51.05-.28-.39-2c1-.2,1.94-.4,2.91-.62l.44,1.95C161.73,268,160.74,268.2,159.75,268.4Zm-57-1c-1-.23-2-.47-2.93-.73l.5-1.93c1,.25,1.92.49,2.89.72Zm62.86-.35-.48-1.94,2.88-.75.52,1.93C167.6,266.57,166.63,266.83,165.65,267.07Zm-68.71-1.18c-1-.28-1.93-.56-2.9-.86l.6-1.91c1,.29,1.9.58,2.85.85Zm74.54-.41-.57-1.92c1-.29,1.9-.58,2.84-.89l.62,1.91C173.41,264.89,172.45,265.19,171.48,265.48Zm-80.32-1.39c-1-.32-1.91-.66-2.86-1l.68-1.88q1.39.51,2.82,1Zm86.07-.48-.66-1.88c.94-.33,1.87-.67,2.8-1l.7,1.87C179.13,262.94,178.18,263.28,177.23,263.61ZM85.46,262c-.94-.36-1.88-.74-2.81-1.13l.77-1.85c.91.39,1.84.76,2.76,1.12Zm97.43-.53-.75-1.86c.92-.37,1.83-.75,2.74-1.14l.79,1.84C184.75,260.73,183.82,261.11,182.89,261.49Zm-103-1.8c-.92-.4-1.84-.82-2.75-1.26l.85-1.8,2.71,1.24Zm108.57-.57-.84-1.82,2.69-1.27.87,1.8C190.25,258.27,189.34,258.7,188.43,259.12Zm-114-2c-.9-.45-1.8-.91-2.69-1.38l.93-1.77c.88.46,1.76.92,2.65,1.36Zm119.47-.62-.91-1.78c.88-.45,1.75-.91,2.62-1.38l1,1.75C195.63,255.56,194.75,256,193.85,256.49ZM69,254.28c-.89-.49-1.76-1-2.63-1.5l1-1.73c.86.51,1.72,1,2.59,1.49Zm130.12-.66-1-1.74c.86-.49,1.71-1,2.56-1.5l1,1.71C200.89,252.61,200,253.12,199.15,253.62ZM63.81,251.21c-.86-.53-1.71-1.07-2.56-1.62l1.1-1.68c.83.55,1.67,1.08,2.51,1.6Zm140.51-.7-1.07-1.69c.83-.53,1.67-1.07,2.49-1.62l1.11,1.66C206,249.42,205.17,250,204.32,250.51Zm-145.58-2.6c-.83-.57-1.66-1.15-2.48-1.74l1.17-1.62c.81.58,1.62,1.15,2.44,1.71Zm150.6-.75-1.14-1.64c.81-.56,1.61-1.14,2.41-1.73l1.18,1.61C211,246,210.17,246.58,209.34,247.16ZM53.83,244.38c-.81-.61-1.61-1.23-2.4-1.85L52.67,241c.78.62,1.57,1.22,2.36,1.82Zm160.38-.79L213,242c.78-.61,1.56-1.22,2.33-1.84l1.26,1.55C215.8,242.36,215,243,214.21,243.59Zm-165.13-3q-1.17-1-2.31-1.95l1.31-1.51c.75.64,1.51,1.29,2.27,1.92Zm169.83-.83-1.29-1.53c.76-.64,1.51-1.28,2.25-1.94l1.33,1.5C220.44,238.5,219.68,239.15,218.91,239.8Zm-174.4-3.13c-.75-.68-1.48-1.36-2.22-2.06l1.38-1.45c.72.69,1.45,1.36,2.18,2Zm178.93-.87-1.36-1.47q1.09-1,2.16-2l1.39,1.44C224.91,234.43,224.17,235.12,223.44,235.8ZM40.13,232.51c-.72-.71-1.42-1.43-2.12-2.15L39.45,229c.69.71,1.38,1.42,2.09,2.12Zm187.65-.91-1.43-1.4c.7-.71,1.39-1.42,2.07-2.15l1.46,1.38C229.18,230.16,228.49,230.89,227.78,231.6ZM35.94,228.16c-.68-.75-1.36-1.49-2-2.25l1.5-1.32c.66.74,1.32,1.48,2,2.21Zm196-.95-1.49-1.34c.67-.74,1.32-1.48,2-2.24l1.52,1.31C233.27,225.7,232.6,226.46,231.93,227.21ZM32,223.62c-.65-.77-1.28-1.55-1.91-2.34L31.6,220c.62.78,1.25,1.54,1.88,2.3Zm203.92-1-1.54-1.27c.63-.77,1.25-1.54,1.86-2.33l1.58,1.24C237.14,221.06,236.51,221.85,235.87,222.63ZM28.18,218.91c-.61-.8-1.22-1.61-1.81-2.42L28,215.31c.58.8,1.17,1.59,1.78,2.38Zm211.43-1-1.6-1.2c.59-.79,1.18-1.6,1.76-2.4l1.62,1.16C240.81,216.25,240.21,217.06,239.61,217.87ZM24.62,214c-.57-.83-1.14-1.66-1.69-2.5l1.66-1.1,1.67,2.46ZM243.12,213l-1.65-1.13c.56-.82,1.11-1.65,1.65-2.48l1.68,1.08C244.25,211.27,243.69,212.11,243.12,213ZM21.29,209c-.54-.85-1.06-1.71-1.58-2.57l1.72-1c.51.85,1,1.69,1.55,2.53Zm225.13-1.13-1.71-1.05c.52-.85,1-1.7,1.53-2.56l1.73,1C247.46,206.14,246.94,207,246.42,207.87ZM18.19,203.82c-.49-.87-1-1.75-1.46-2.64l1.77-1c.47.88.94,1.74,1.43,2.6Zm231.28-1.18-1.75-1c.48-.87.95-1.74,1.41-2.63l1.78.93Q250.21,201.32,249.47,202.64ZM15.34,198.51c-.46-.89-.9-1.79-1.34-2.7l1.8-.87c.43.9.87,1.78,1.32,2.66Zm236.94-1.23-1.79-.89c.44-.89.87-1.79,1.3-2.69l1.81.85Q253,195.92,252.28,197.28Zm-239.55-4.2c-.42-.91-.82-1.83-1.21-2.76l1.84-.78c.38.91.78,1.82,1.19,2.72Zm242.12-1.29L253,191c.4-.91.79-1.82,1.17-2.74L256,189C255.65,189.93,255.25,190.87,254.85,191.79ZM10.37,187.54c-.37-.94-.73-1.88-1.09-2.82l1.88-.7c.34.93.7,1.86,1.07,2.78Zm246.79-1.36-1.87-.72c.36-.92.71-1.86,1-2.79l1.88.67C257.88,184.29,257.52,185.24,257.16,186.18ZM8.26,181.87c-.33-1-.65-1.9-1-2.87l1.9-.61c.3,1,.62,1.89.94,2.83Zm251-1.39-1.89-.64c.31-.94.62-1.89.91-2.84l1.91.59C259.84,178.56,259.53,179.52,259.21,180.48ZM6.42,176.12c-.29-1-.56-1.94-.83-2.91l1.93-.52c.26,1,.53,1.91.81,2.86ZM261,174.69l-1.93-.54q.4-1.44.78-2.88l1.94.5C261.53,172.75,261.27,173.72,261,174.69ZM4.84,170.28c-.24-1-.47-2-.69-2.94l1.95-.43c.21,1,.44,1.93.68,2.89Zm257.67-1.44-1.95-.46c.23-1,.44-1.93.65-2.9l2,.41C263,166.88,262.74,167.86,262.51,168.84Zm-259-4.46c-.2-1-.38-2-.56-3l2-.34c.17,1,.36,2,.55,2.92Zm260.22-1.46-2-.36q.27-1.47.51-2.94l2,.33C264.11,160.94,263.94,161.93,263.75,162.92ZM2.49,158.43c-.15-1-.29-2-.42-3l2-.26c.12,1,.26,2,.41,2.95ZM264.72,157l-2-.28c.14-1,.27-2,.38-3l2,.23Q264.93,155.46,264.72,157Zm-263-4.53c-.1-1-.19-2-.28-3l2-.16q.12,1.49.27,3ZM265.42,151l-2-.18q.13-1.49.24-3l2,.14C265.6,149,265.52,150,265.42,151ZM1.23,146.41c-.06-1-.11-2-.14-3l2-.07c0,1,.08,2,.14,3Zm264.62-1.48-2-.1c0-1,.08-2,.11-3l2,0C265.93,142.92,265.89,143.92,265.85,144.93ZM1,140.38c0-.63,0-1.26,0-1.88v-1.15l2,0v1.13c0,.62,0,1.23,0,1.85Zm265-1.49-2,0v-.37c0-.87,0-1.73,0-2.6l2,0q0,1.32,0,2.64ZM3.06,134.39l-2-.06c0-1,.08-2,.13-3l2,.11C3.14,132.41,3.09,133.4,3.06,134.39Zm260.82-1.46q-.06-1.49-.15-3l2-.13c.07,1,.12,2,.16,3ZM3.38,128.45l-2-.15c.07-1,.16-2,.26-3l2,.19C3.54,126.47,3.46,127.46,3.38,128.45ZM263.5,127c-.09-1-.18-2-.29-3l2-.22c.11,1,.2,2,.29,3ZM4,122.52l-2-.24c.13-1,.26-2,.4-3l2,.28C4.22,120.55,4.09,121.54,4,122.52Zm258.88-1.45c-.14-1-.28-2-.43-2.94l2-.31c.15,1,.3,2,.43,3Zm-258-4.44-2-.33c.17-1,.35-2,.54-3l2,.38C5.17,114.68,5,115.65,4.82,116.63Zm257.11-1.44c-.18-1-.37-2-.57-2.92l2-.4q.3,1.48.57,3ZM6,110.79l-2-.42c.22-1,.44-2,.68-3l1.94.47C6.38,108.85,6.16,109.82,6,110.79Zm254.79-1.43c-.23-1-.46-1.93-.7-2.89L262,106c.25,1,.48,2,.7,2.94ZM7.34,105l-1.93-.51c.25-1,.52-1.95.8-2.91l1.92.55C7.86,103.08,7.59,104,7.34,105Zm251.94-1.41c-.27-1-.54-1.91-.83-2.86l1.92-.58c.29,1,.57,1.93.84,2.91ZM9,99.28l-1.9-.6c.3-1,.62-1.92.94-2.88l1.89.64C9.6,97.39,9.29,98.33,9,99.28Zm248.57-1.39q-.46-1.41-1-2.82l1.89-.66c.33,1,.66,1.9,1,2.86ZM10.92,93.63,9,92.94c.35-1,.71-1.9,1.08-2.84l1.86.74C11.62,91.76,11.26,92.69,10.92,93.63Zm244.66-1.35c-.35-.93-.71-1.85-1.09-2.77l1.86-.75c.37.93.74,1.87,1.1,2.81ZM13.1,88.07l-1.84-.77c.39-.94.79-1.86,1.2-2.78l1.83.81C13.88,86.24,13.49,87.15,13.1,88.07Zm240.25-1.3c-.4-.91-.8-1.81-1.21-2.71l1.82-.83c.42.91.82,1.83,1.22,2.75ZM15.53,82.62l-1.8-.86c.43-.91.87-1.82,1.33-2.72l1.78.9C16.4,80.83,16,81.72,15.53,82.62Zm235.34-1.24c-.44-.89-.88-1.77-1.33-2.65l1.77-.92c.46.89.92,1.79,1.36,2.69ZM18.22,77.29l-1.77-.94c.47-.89,1-1.78,1.45-2.66l1.75,1C19.16,75.54,18.68,76.41,18.22,77.29Zm229.93-1.18c-.48-.87-1-1.74-1.46-2.6l1.74-1c.5.87,1,1.74,1.47,2.63Zm-227-4-1.72-1c.51-.87,1-1.73,1.57-2.58l1.7,1.05C22.16,70.39,21.64,71.24,21.14,72.09Zm224-1.13c-.51-.85-1-1.69-1.56-2.53l1.68-1.07c.54.85,1.07,1.7,1.59,2.56ZM24.29,67l-1.67-1.09c.55-.85,1.11-1.68,1.69-2.51L26,64.56C25.39,65.38,24.84,66.2,24.29,67ZM242,66c-.55-.83-1.11-1.64-1.68-2.45l1.63-1.15c.58.82,1.15,1.65,1.71,2.48ZM27.67,62.13,26.05,61q.89-1.22,1.8-2.43l1.59,1.21Q28.54,60.92,27.67,62.13Zm210.9-1.05-1.79-2.37,1.58-1.22c.61.79,1.22,1.6,1.82,2.41Zm-207.3-3.7L29.7,56.13c.63-.79,1.27-1.57,1.91-2.34l1.54,1.28C32.51,55.83,31.89,56.6,31.27,57.38Zm203.66-1c-.63-.77-1.26-1.53-1.9-2.29l1.52-1.29c.66.77,1.3,1.54,1.93,2.32ZM35.08,52.8l-1.51-1.31c.66-.76,1.34-1.51,2-2.26l1.48,1.35Q36.06,51.68,35.08,52.8Zm196-.95c-.66-.74-1.33-1.48-2-2.2l1.46-1.37c.69.74,1.37,1.49,2,2.24Zm-192-3.45L37.65,47c.69-.73,1.4-1.45,2.11-2.16l1.41,1.41C40.47,47,39.78,47.68,39.09,48.4ZM227,47.49l-2.1-2.11,1.4-1.43c.72.71,1.43,1.42,2.13,2.14ZM43.3,44.19l-1.38-1.44c.72-.7,1.46-1.39,2.2-2.07l1.35,1.48C44.74,42.83,44,43.5,43.3,44.19Zm179.48-.87c-.72-.68-1.46-1.35-2.2-2l1.34-1.49c.75.67,1.49,1.35,2.23,2ZM47.69,40.18l-1.31-1.51c.75-.66,1.52-1.32,2.29-2L50,38.24C49.19,38.88,48.44,39.52,47.69,40.18Zm170.66-.84c-.76-.64-1.52-1.28-2.29-1.91l1.27-1.55c.78.64,1.55,1.29,2.32,1.95Zm-166.09-3L51,34.8c.79-.63,1.58-1.24,2.39-1.85l1.21,1.59C53.82,35.14,53,35.75,52.26,36.37Zm161.48-.8-2.37-1.8,1.19-1.61L215,34ZM57,32.77l-1.17-1.62c.81-.59,1.63-1.17,2.46-1.75l1.14,1.65C58.6,31.61,57.79,32.19,57,32.77ZM209,32c-.81-.58-1.63-1.15-2.45-1.7l1.12-1.66c.83.57,1.66,1.14,2.48,1.72ZM61.88,29.39l-1.1-1.67c.84-.55,1.69-1.1,2.54-1.63l1.06,1.69C63.54,28.31,62.71,28.84,61.88,29.39ZM204,28.68c-.83-.54-1.68-1.07-2.52-1.59l1-1.7c.86.52,1.72,1.06,2.56,1.6ZM66.92,26.24l-1-1.72c.86-.51,1.73-1,2.61-1.51l1,1.74C68.63,25.24,67.77,25.73,66.92,26.24Zm132-.67c-.86-.5-1.73-1-2.6-1.47l1-1.75c.89.48,1.77,1,2.64,1.49ZM72.09,23.32l-.94-1.76c.89-.48,1.78-.94,2.68-1.39l.9,1.78C73.84,22.4,73,22.85,72.09,23.32Zm121.62-.63c-.88-.46-1.77-.91-2.66-1.35l.88-1.79c.91.44,1.81.9,2.7,1.37ZM77.39,20.64l-.86-1.8c.91-.43,1.82-.86,2.74-1.27l.81,1.83C79.18,19.8,78.28,20.22,77.39,20.64Zm111-.58c-.9-.42-1.81-.83-2.72-1.23l.79-1.83c.93.4,1.85.82,2.77,1.24ZM82.8,18.21,82,16.37c.92-.39,1.85-.77,2.78-1.14l.74,1.86Zm100.09-.54c-.92-.38-1.85-.74-2.78-1.1l.71-1.87c1,.36,1.89.74,2.82,1.12ZM88.33,16l-.69-1.88c.94-.35,1.89-.68,2.85-1L91.13,15C90.19,15.35,89.26,15.69,88.33,16Zm89-.49c-.94-.34-1.88-.66-2.83-1l.63-1.89c1,.31,1.92.64,2.87,1ZM94,14.1l-.61-1.91c1-.3,1.93-.6,2.9-.88l.56,1.92Q95.37,13.65,94,14.1Zm77.68-.44c-.95-.29-1.9-.57-2.86-.84l.54-1.92c1,.27,1.94.55,2.9.85Zm-72-1.23-.51-1.94c1-.26,1.94-.51,2.92-.74l.48,1.94C101.59,11.92,100.63,12.17,99.67,12.43Zm66.23-.37c-1-.25-1.92-.48-2.89-.71l.45-1.95c1,.23,2,.47,2.94.72Zm-60.44-1L105,9.07c1-.22,2-.42,3-.62l.38,2C107.4,10.61,106.42,10.81,105.46,11Zm54.64-.31c-1-.2-1.94-.39-2.92-.57l.36-2c1,.18,2,.37,3,.58Zm-48.8-.83-.34-2c1-.17,2-.33,3-.48l.29,2C113.25,9.56,112.27,9.71,111.3,9.88Zm43-.24c-1-.16-2-.3-2.94-.44l.27-2c1,.14,2,.29,3,.45ZM117.19,9l-.25-2,3-.34.2,2C119.16,8.77,118.17,8.89,117.19,9Zm31.16-.17c-1-.12-2-.22-3-.31l.18-2c1,.09,2,.2,3,.31Zm-25.24-.43-.16-2c1-.08,2-.14,3-.2l.11,2C125.09,8.26,124.1,8.33,123.11,8.41Zm19.31-.11c-1-.07-2-.12-3-.17l.09-2c1,0,2,.1,3,.17Zm-13.77-.23-.07-2c1,0,2-.06,3-.07l0,2C130.63,8,129.63,8,128.65,8.07Zm8.23,0-3,0V6c1,0,2,0,3,0Z"/></svg>