<?xml version="1.0" encoding="utf-8"?>
<!-- Generator: Adobe Illustrator 25.2.1, SVG Export Plug-In . SVG Version: 6.00 Build 0)  -->
<svg version="1.1" id="レイヤー_6" xmlns="http://www.w3.org/2000/svg" xmlns:xlink="http://www.w3.org/1999/xlink" x="0px"
	 y="0px" width="699px" height="923px" viewBox="0 0 699 923" style="enable-background:new 0 0 699 923;" xml:space="preserve">
<style type="text/css">
	.st0{fill:#F9C270;stroke:#9C639C;stroke-width:1.3249;stroke-linecap:round;stroke-linejoin:round;stroke-miterlimit:10;}
	.st1{fill:#80CCE5;stroke:#9C639C;stroke-width:1.3249;stroke-linecap:round;stroke-linejoin:round;stroke-miterlimit:10;}
	.st2{fill:#FDE7C6;}
	.st3{fill:#FEF3E2;}
	.st4{fill:#CCEBF5;}
	.st5{fill:none;stroke:#9C639C;stroke-width:1.3249;stroke-linecap:round;stroke-linejoin:round;stroke-miterlimit:10;}
	.st6{fill:#FFF799;stroke:#9C639C;stroke-width:1.3249;stroke-linecap:round;stroke-linejoin:round;stroke-miterlimit:10;}
	.st7{fill:#99D6EA;stroke:#9C639C;stroke-width:1.3249;stroke-linecap:round;stroke-linejoin:round;stroke-miterlimit:10;}
	.st8{fill:#CCEBF5;stroke:#9C639C;stroke-width:1.3249;stroke-linecap:round;stroke-linejoin:round;stroke-miterlimit:10;}
	.st9{fill:#FCE1B7;}
	.st10{fill:#9C639C;stroke:#9C639C;stroke-width:1.3249;stroke-linecap:round;stroke-linejoin:round;stroke-miterlimit:10;}
	.st11{fill:#0099CC;stroke:#9C639C;stroke-width:1.3249;stroke-linecap:round;stroke-linejoin:round;stroke-miterlimit:10;}
	.st12{fill:#B2E0F0;stroke:#9C639C;stroke-width:1.3249;stroke-linecap:round;stroke-linejoin:round;stroke-miterlimit:10;}
	.st13{fill:#FFFFFF;stroke:#9C639C;stroke-width:1.3249;stroke-linecap:round;stroke-linejoin:round;stroke-miterlimit:10;}
	.st14{fill:#F8B500;stroke:#9C639C;stroke-width:1.3249;stroke-linecap:round;stroke-linejoin:round;stroke-miterlimit:10;}
	.st15{fill:#80CCE5;}
	.st16{fill:#33ADD6;}
	.st17{fill:#FFFBCC;}
	.st18{fill:#FFFBCC;stroke:#9C639C;stroke-width:1.3249;stroke-linecap:round;stroke-linejoin:round;stroke-miterlimit:10;}
	.st19{fill:#FCE1B7;stroke:#9C639C;stroke-width:1.3249;stroke-linecap:round;stroke-linejoin:round;stroke-miterlimit:10;}
	.st20{fill:#FFF799;stroke:#9C639C;stroke-width:1.3249;stroke-miterlimit:10;}
</style>
<g>
	<g>
		<g>
			<path class="st0" d="M538.1,18.2c-7.6-20.5-18.9-2.4-20.5,0c-3.2,4.7-6.2,9.7-5.8,15.6c0.1,2.3,0.6,3.3-0.1,5.3
				c-0.5,1.5-1.9,2.8-2,4.5c-0.3,4.5,3.2,3.9,5.4,6.2"/>
			<path class="st1" d="M545.1,41.4c-1.5-2.1-5.7-16.4-5.8-18.9c-0.1-4.3-1-12.6-8.7-13.8c0,0,2.8,4.1,1.4,7.3
				c-1.6,3.7-1.2,7.3-4.1,10.4c-2.4,2.6-4.9,5.2-7.3,7.9c-3.7,4.1-2.3,9.8-9.7,11.2c-4.8,0.9,20.9,12.9,25.4,16"/>
			<g id="XMLID_2_">
				<g>
					<path class="st2" d="M577.8,80.9c-2.8-2.8-5-6-5.3-10.2c-0.6-7.1,3.7-8.2,8.8-11.6l0.5-0.1c0.4,2.8,0.8,5.8,2.7,7.4
						c1.9,1.6-1.6,6.5-1.9,9.2c-0.2,2,0.3,7.7-2.7,3.7c-0.1,0.9-0.2,1.8-0.3,2.7L579,82C578.6,81.6,578.2,81.3,577.8,80.9z"/>
					<path class="st3" d="M579,82l0.5,0.1c-0.5,3.4-1.8,6.5-6.1,7.4c-3.1,0.7-5.6-0.9-8.5-0.8c-4.9,0.2-7.9,3-11.5-2.1
						c-1.8-2.5-1.9-5.6-2.3-8.4c-0.3-1.9-2.6-6.3-2.2-7.9c0.1-0.3,0.2-0.5,0.3-0.8c3.5,1.2,7.8,2.3,11.5,4c0.1,2.4,0.4,4.9,2.2,5.6
						c1.4,0.5,2.9-0.1,4.4-0.9c0.1,0.1,0.2,0.2,0.3,0.4l0.1-0.6c0.2-0.1,0.5-0.2,0.7-0.3l9.4,3.4C578.2,81.3,578.6,81.6,579,82z"/>
					<path class="st3" d="M568.4,77.5l-0.5-0.2l4.9-21.6c-2.3-2.9-5.3-4.5-8.3-6.3c-3.5-5.5-7.6-15.2-4.7-17.8
						c1.3-1.2,4.2-1.5,5.9-1.2c3.8,0.7,4.1,2.9,4.6,6.1c0.6,3.4,1.8,7,4,9.9c2,2.7,4.8,4.4,6.3,7.5c0.7,1.4,0.9,3.2,1.2,5.1
						l-0.5,0.1c-5,3.4-9.3,4.5-8.8,11.6c0.3,4.2,2.5,7.4,5.3,10.2L568.4,77.5z"/>
					<path class="st3" d="M572.8,55.7l-4.9,21.6l-1.9-0.7l0,0l1.3-23.7c-0.7-0.6-1.7-1.8-2.7-3.4C567.5,51.2,570.5,52.9,572.8,55.7z
						"/>
					<path class="st4" d="M567.9,77.3l-0.1,0.5c-0.2,0.1-0.3,0.1-0.5,0.2c-0.4-0.5-0.8-1-1.3-1.4L567.9,77.3z"/>
					<path class="st4" d="M567.7,77.8l-0.1,0.6c-0.1-0.1-0.2-0.3-0.3-0.4C567.4,78,567.6,77.9,567.7,77.8z"/>
					<path class="st3" d="M567.3,52.9l-1.3,23.7c-1.5-1.3-3.3-2.4-5.3-3.2c-0.1-1.5-0.2-2.9-0.6-3.8c-1.5-3.2-9.1-3.6-11-0.1
						c-0.5-0.2-1-0.3-1.5-0.5c-5.3-2.1-13.5-4.8-17.6-9c-3.8-3.9-0.1-3.4,2.9-5.5c2.4-1.7,4.4-6.8,6-9.1c1.4-2,1.8-5,2.6-7.4
						c2-5.9-2.5-10.1,2.6-8c5.5,2.3,9.2,8.8,12.1,12.8c2.3,3.2,5.4,5,8.5,6.8C565.5,51.1,566.5,52.3,567.3,52.9z"/>
					<path class="st3" d="M560.6,73.4c-3.7-1.6-8-2.7-11.5-4c1.9-3.4,9.4-3.1,11,0.1C560.5,70.4,560.5,71.9,560.6,73.4z"/>
				</g>
				<g>
					<path class="st5" d="M579.8,79.4c3.1,4,2.5-1.8,2.7-3.7c0.3-2.6,3.8-7.5,1.9-9.2c-1.9-1.7-2.3-4.6-2.7-7.4
						c-0.2-1.9-0.5-3.7-1.2-5.1c-1.4-3.1-4.3-4.8-6.3-7.5c-2.1-2.9-3.4-6.5-4-9.9c-0.5-3.2-0.8-5.4-4.6-6.1
						c-1.6-0.3-4.6,0.1-5.9,1.2c-2.9,2.6,1.2,12.3,4.7,17.8"/>
					<path class="st5" d="M565.9,76.6c0.5,0.4,0.9,0.9,1.3,1.4"/>
					<path class="st5" d="M560.6,73.4c2,0.9,3.8,1.9,5.3,3.2"/>
					<path class="st5" d="M572.8,55.7c-2.3-2.9-5.3-4.5-8.3-6.3c-3.1-1.8-6.2-3.6-8.5-6.8c-2.9-4-6.6-10.5-12.1-12.8
						c-5.1-2.1-0.6,2.1-2.6,8c-0.8,2.5-1.2,5.4-2.6,7.4c-1.6,2.3-3.6,7.4-6,9.1c-2.9,2.1-6.7,1.6-2.9,5.5c4.1,4.2,12.3,6.9,17.6,9
						c0.5,0.2,0.9,0.4,1.5,0.5"/>
					<path class="st5" d="M579.8,79.1c0,0.1,0,0.2,0,0.3c-0.1,0.9-0.2,1.8-0.3,2.7c-0.5,3.4-1.8,6.5-6.1,7.4
						c-3.1,0.7-5.6-0.9-8.5-0.8c-4.9,0.2-7.9,3-11.5-2.1c-1.8-2.5-1.9-5.6-2.3-8.4c-0.3-1.9-2.6-6.3-2.2-7.9
						c0.1-0.3,0.2-0.5,0.3-0.8c1.9-3.4,9.4-3.1,11,0.1c0.4,0.9,0.5,2.3,0.6,3.8c0.1,2.4,0.4,4.9,2.2,5.6c1.4,0.5,2.9-0.1,4.4-0.9
						c0.1-0.1,0.3-0.2,0.5-0.2c0.2-0.1,0.5-0.2,0.7-0.3c0.5-0.2,1-0.5,1.6-0.6"/>
					<path class="st5" d="M581.3,59.1c-5,3.4-9.3,4.5-8.8,11.6c0.3,4.2,2.5,7.4,5.3,10.2c0.4,0.4,0.7,0.7,1.1,1.1"/>
				</g>
			</g>
		</g>
		<path class="st5" d="M534.6,10.3c1,2.4,0.1,6.6-0.1,9.2c-0.3,3.7-2.1,7.3-4.4,10.3c-1.8,2.5-4.1,4.7-6.1,7
			c-2.3,2.7-3.1,6.3-5.6,8.8c-0.7,0.8-3.7,4.1-4.9,3.3"/>
		<path class="st5" d="M539.1,18.8c-0.3,4.2-2,8.6-4.3,12.1c-1.7,2.5-3.8,4.5-5.6,6.8c-2.1,2.7-3.7,6.1-5.6,9
			c-0.9,1.5-4.3,5.4-6.5,4.3"/>
		<path class="st5" d="M520.9,53.2c2.8,1.6,6.3-3.1,7.4-5c2.1-3.3,3.6-6.2,5.7-9.5c2-3.1,4-6.8,5-10.4c0.3-1,0.4-2.7,0.7-3.4"/>
		<path class="st5" d="M541.1,30.4c-1.2,5.8-2.3,9.3-6.5,16.1c-2.1,3.4-5,7.5-8.7,9.3"/>
	</g>
	<path class="st6" d="M529.8,99.6c-1.5-0.5-3.5,1-3.1,2.6c0.4,1.8,2.9,2,3.9,0.6C531.5,101.8,530.8,100,529.8,99.6z"/>
	<path class="st6" d="M604.9,68.8c-2-0.6-4.5,1.2-4,3.4c0.5,2.4,3.8,2.6,5.1,0.8C607,71.6,606.2,69.3,604.9,68.8z"/>
	<path class="st6" d="M627.1,3.1c-2-0.6-4.5,1.2-4,3.4c0.5,2.4,3.8,2.6,5.1,0.8C629.2,6,628.4,3.6,627.1,3.1z"/>
	<path class="st6" d="M634.4,20.7c-1.5-0.5-3.5,1-3.1,2.6c0.4,1.8,2.9,2,3.9,0.6C636.1,22.9,635.4,21.1,634.4,20.7z"/>
	<g>
		
			<ellipse transform="matrix(0.7262 -0.6875 0.6875 0.7262 42.6436 491.1899)" class="st6" cx="637.9" cy="192.1" rx="8.8" ry="4.3"/>
		<ellipse transform="matrix(0.7262 -0.6875 0.6875 0.7262 43.0158 490.3863)" class="st6" cx="637.1" cy="191.2" rx="8.8" ry="4"/>
	</g>
	<g>
		<path class="st6" d="M689.4,151.7c0.8,2.4-2.5,6-7.4,7.7s-9.6,0.9-10.4-1.5c-0.8-2.4,2.5-5.7,7.4-7.4
			C683.9,148.8,688.6,149.4,689.4,151.7z"/>
		
			<ellipse transform="matrix(0.9449 -0.3273 0.3273 0.9449 -12.8307 231.0064)" class="st6" cx="680" cy="153.6" rx="9.5" ry="4.3"/>
	</g>
	<g>
		<ellipse transform="matrix(0.7262 -0.6875 0.6875 0.7262 21.8844 503.0311)" class="st6" cx="642.4" cy="224" rx="4.4" ry="4.3"/>
		<ellipse transform="matrix(0.7262 -0.6875 0.6875 0.7262 22.5296 501.9687)" class="st7" cx="641.4" cy="222.7" rx="4.4" ry="4"/>
	</g>
	<g>
		
			<ellipse transform="matrix(0.7262 -0.6875 0.6875 0.7262 -93.5197 473.6864)" class="st6" cx="547.9" cy="354.2" rx="3.4" ry="3.3"/>
		
			<ellipse transform="matrix(0.7262 -0.6875 0.6875 0.7262 -93.0172 472.859)" class="st7" cx="547.1" cy="353.2" rx="3.4" ry="3.1"/>
	</g>
	<g>
		<g>
			<g>
				<polygon class="st5" points="520.1,138.3 551,114.5 570.7,118.7 573.5,127.8 555.3,154 527.8,147.2 				"/>
				<polyline class="st5" points="520.1,138.3 549,143.9 569.9,119.5 				"/>
				<line class="st5" x1="551.9" y1="141.8" x2="556.7" y2="151.8"/>
				<path class="st5" d="M556,136.3c0.3,1.3,4,8.3,4.3,9.8"/>
				<path class="st5" d="M559.3,132.4c0.8,1.5,3.5,7.6,3.9,8.8"/>
				<path class="st5" d="M562.4,128.7c1.2,2.5,2.7,6.6,4.1,9.1"/>
				<path class="st5" d="M565.9,125.6c0.8,2.3,1.9,5.2,3.2,7.3"/>
				<path class="st5" d="M568.5,122.3c0.3,1,3.3,7.8,3.3,7.8"/>
				<polyline class="st5" points="527.8,147.2 553.2,123.4 573.5,127.8 				"/>
				<path class="st5" d="M527.2,140c0,0,5.3,7.9,4.9,7.9"/>
				<path class="st5" d="M534.1,141c0.2,1.6,2.1,3.4,2.9,4.8c0.6,1,1.1,2,1.7,3"/>
				<path class="st5" d="M541.1,143.2c0.9,1.6,1.5,3,2.3,4.7c0.4,0.7,1.6,3.1,2.1,3.3"/>
				<line class="st5" x1="526.4" y1="134.2" x2="531.6" y2="143.3"/>
				<line class="st5" x1="534.1" y1="128.3" x2="538.7" y2="136.6"/>
				<path class="st5" d="M530.5,131.1c0.8,1.3,3.9,8,4.6,8.6"/>
				<path class="st5" d="M538.6,124.2c0.3,1.1,3.9,7,4.1,8.6"/>
				<path class="st5" d="M543.4,121.1c0.4,1.6,2.7,5.9,3.4,7.8"/>
				<path class="st5" d="M546.9,117.8c0.2,1.5,3,7.2,3,7.2"/>
				<path class="st5" d="M550.8,115c0.6,2.4,1.6,6.1,2.4,8.4"/>
				<path class="st5" d="M555.7,115.9c1,2.3,1.8,7,2.4,8.5"/>
				<path class="st5" d="M561,116.8c0.7,2.7,1.6,5.6,2.6,8.2"/>
				<path class="st5" d="M565.9,118.3c-0.2-0.3,0,0.1,0.1,0.2c0.2,0.7,1,3.5,1.3,4.1"/>
				<line class="st5" x1="558.1" y1="124.5" x2="534.1" y2="147.9"/>
				<line class="st5" x1="562" y1="125.3" x2="539.6" y2="149.8"/>
				<line class="st5" x1="548.6" y1="128.3" x2="560.8" y2="130.2"/>
				<line class="st5" x1="543.8" y1="132.9" x2="556" y2="134.8"/>
				<line class="st5" x1="538.4" y1="138.5" x2="550.6" y2="140.3"/>
				<path class="st6" d="M575.2,151.7c-2.5,2.7,1.7,6,4.3,3c1.6-1.8,0.3-6-2.7-4.8 M538.7,170.1c-3.3-0.3-3,6,0,6.5
					C543.7,177.4,543.8,170,538.7,170.1 M536.4,169.6l24.7-25.1l17.6,2.5l-18.9,25.5L536.4,169.6z M558.6,168.8l14.8-20.1l-11.1-1.5
					l-20,20.3L558.6,168.8z"/>
				<polyline class="st6" points="538.9,167 519.6,131.5 516.8,134.1 536.4,169.6 540.3,170.1 				"/>
				<polyline class="st6" points="560.8,168.2 546.4,140.1 542.9,141.2 558,170.3 				"/>
				<path class="st6" d="M520.6,133c-1.6-4.6-6-0.8-7.1,0c-2.6,1.7-8.4,6-9.1,7.3c-0.9,1.5,0.9,1.9,0.9,1.9c0.7,1,3.6-2,4.9-2.8
					c2.4-1.5,5.2-3.3,7.2-4.4"/>
			</g>
			<path class="st6" d="M546.8,141.2c-1.4-3.4-3-1.8-7.8,1.4c-1.1,0.7-7.2,4.7-6.6,6.2c1.2,2.7,4.5-0.5,5.3-1
				c3.2-2.2,6.5-4.3,6.5-4.3"/>
		</g>
		<path class="st6" d="M560.9,171.2c-4.1,2.4,0.4,9.2,4.1,4.1C566.9,172.8,563.4,170,560.9,171.2"/>
	</g>
	<path class="st6" d="M669.8,70.1c0.2-1.5-1.6-3.4-2.7-1.5c-1.1,1.9,2.6,3.4,3.2,1C670.1,69.7,669.9,69.9,669.8,70.1"/>
	<path class="st8" d="M669.7,74c0.9,0,0.3,4.3,0.4,6.4c-1.4-1.1-3.1-1.9-4.7-2.8C666.9,76.6,669,74.6,669.7,74"/>
	<g>
		<g>
			<g>
				<path class="st9" d="M459.5,212l0.3-0.8c1.1-2,2.8-3.8,3.2-5.9c0.1-0.7-1.2-4.5-2.3-6.6c-1.8-3.4-2.7-5.8-4.6-6.6
					c-1.3-0.5-6.9-1.7-8.3-1.4c-0.9,0.2-2.8,1.1-4.5,2.1l-0.1-0.1c-3.7-0.8-8.2-0.1-9.5,4.1c-0.7,2.3,0.5,5,1.3,7.2
					c1.1,3,2.4,6,3.5,9c1.4,3.8,3.1,7.3,5.5,10c1.3,1.4,3.9,1.4,5.8,1.3c2.8-0.1,6.6,0,9-1.5C463.3,220.1,458.8,215.3,459.5,212z"/>
				<path class="st5" d="M443.3,192.7c-3.7-0.8-8.2-0.1-9.5,4.1c-0.7,2.3,0.5,5,1.3,7.2c1.1,3,2.4,6,3.5,9c1.4,3.8,3.1,7.3,5.5,10
					c1.3,1.4,3.9,1.4,5.8,1.3c2.8-0.1,6.6,0,9-1.5c4.4-2.8,0.3-8.5,0.7-11.2"/>
				<path class="st5" d="M451.6,220.6c-1.2,0.2-2,0.2-3.4,0.2c-0.4,0.5-0.9,1.2-1.4,1.6c1.1,0.2,3,0.2,3.6,0
					C450.8,222.1,451.6,221.2,451.6,220.6"/>
				<path class="st10" d="M433.5,199.5c-1.3,1.2-2.6,2.4-1.8,4.4c0.9,2.2,2.4,2.1,3.9,0.5c2-2.2,1.4-6.3-2.3-4.6"/>
				<path class="st10" d="M440.5,214.1c-2.6-2-6.2,5.1-1.5,6c3.1,0.6,5.1-5.4,2.1-5.9"/>
			</g>
			<path class="st11" d="M462.4,206.9c-2.3,0.7-6.4,0.6-8.7,0.3c-2.2-0.3-1.7-0.7-3.1,1c-1,1.3-2.1,2.9-0.9,3.3
				c2,0.6,7.4,0.5,9.5,0.5"/>
			<path class="st11" d="M445.9,194.8c0.2,1.5,0.9,3.9,1.6,5.2c-1.6,0.8-2.9,1.4-4.3,2.4c-1.4,1-1.6-2.2-2-3.7
				C440.9,197.7,442.2,196.7,445.9,194.8z"/>
			<path class="st11" d="M448.1,202c0.1,1.1,0.8,3,1.4,4c-1.1,0.9-2.6,2.5-4.5,3.6c-0.1-1.1-2.2-4-1.8-5.1
				C443.3,204.4,447.2,202.8,448.1,202"/>
			<path class="st5" d="M456.5,222.2c0.5-0.7,1-1.5,1.3-2.1c0.7-0.1,1.7-0.4,2.6-0.9C460.7,221.6,458.4,222.2,456.5,222.2"/>
		</g>
		<path class="st5" d="M440.5,195.1c0.8-1.4,5.6-4.2,7.3-4.5c1.5-0.3,7,0.9,8.3,1.4c1.9,0.8,2.9,3.2,4.6,6.6
			c1.1,2.1,2.3,5.9,2.3,6.6c0,3.6-2.6,4.5-3.5,6.4"/>
	</g>
	<g>
		<ellipse class="st6" cx="329.1" cy="382.9" rx="4.9" ry="3.3"/>
		<ellipse class="st6" cx="329.1" cy="381.9" rx="4.9" ry="3"/>
	</g>
	<g>
		
			<ellipse transform="matrix(0.9127 -0.4087 0.4087 0.9127 -120.1793 177.4171)" class="st6" cx="355.1" cy="370" rx="8.2" ry="4.6"/>
		
			<ellipse transform="matrix(0.9127 -0.4087 0.4087 0.9127 -119.7416 177.0969)" class="st6" cx="354.6" cy="368.8" rx="8.2" ry="4.3"/>
	</g>
	<g>
		<g>
			<g>
				<path class="st5" d="M371.4,136l-63.1-13.1c-1.4-0.3-2.1-1.6-1.6-2.8L322,86.4c0.6-1.3,2.2-2.1,3.6-1.8l63.1,13.1
					c1.4,0.3,2.1,1.6,1.6,2.8L375,134.2C374.5,135.5,372.8,136.3,371.4,136z"/>
			</g>
			<g>
				<path class="st12" d="M371,134.7l-63.1-13.1c-1.4-0.3-2.1-1.6-1.6-2.8l15.3-33.7c0.6-1.3,2.2-2.1,3.6-1.8l63.1,13.1
					c1.4,0.3,2.1,1.6,1.6,2.8l-15.3,33.7C374,134.2,372.4,135,371,134.7z"/>
				<path class="st6" d="M328,108.6l-9.4-1.9c-0.8-0.2-1.1-0.8-0.8-1.5l2.9-6.4c0.3-0.7,1.2-1.1,2-0.9l9.4,1.9
					c0.8,0.2,1.1,0.8,0.8,1.5l-2.9,6.4C329.7,108.4,328.8,108.8,328,108.6z"/>
				<polygon class="st11" points="367.4,129.2 355.2,126.7 358.1,120.5 370.2,123 				"/>
				<path class="st13" d="M327.7,87.5c-1.3,0.4-2.5,0.8-3.8,1c0.6,0.7,1.1,1.7,1.8,2.4c0.4-1.2,1.2-2.2,1.7-3.3"/>
			</g>
		</g>
		<g>
			<path class="st5" d="M319.6,111.5c0.1,0.9-0.2,1.7-0.8,2.1"/>
			<path class="st5" d="M323.4,112.1c-0.4,0.8-0.7,1.7-0.8,2.5c0.9-0.4,1.4-1.1,2-2"/>
			<path class="st5" d="M342,115.8c-0.5,1.2-0.6,2.3-0.4,2.5"/>
			<path class="st5" d="M345.4,117c-0.6,1.1-1,2-0.4,2.1"/>
			<path class="st5" d="M326.7,113.1c-0.2,0.7-0.7,1.4-0.3,2c0.8-0.3,1.1-1.2,0.9-2"/>
			<path class="st5" d="M330.9,113.7c-0.3,0.6-0.8,1.8-0.8,2.2"/>
			<path class="st5" d="M333.6,114c-0.3,0.8-0.5,1.7-0.6,2.5"/>
			<path class="st5" d="M336.7,114.9c-0.7,0.2-0.8,1.2-0.8,1.9c0.7-0.5,1.3-1.5,2.3-1.5c0,0.7-0.2,1.6,0,1.7"/>
			<path class="st5" d="M348.8,117.6c-0.5,0.7-0.9,1.5-0.8,2.3c0.9-0.6,1.4-1.7,2-2.6"/>
		</g>
	</g>
	<g>
		<g>
			<path class="st14" d="M348.3,172.7l-2.8-8.1c-3.3-9.6-32.6-8.2-65.4,3.2c-32.8,11.4-56.7,28.4-53.4,38l2.8,8.1"/>
		</g>
		<g id="XMLID_12_">
			<g>
				<path class="st15" d="M348.3,172.7c2.6,7.4-11,19.2-32.3,29.3l-27.1-8.8l36.5-25.4l-0.1-1.4
					C337.9,165.7,346.6,167.8,348.3,172.7z"/>
				<path class="st16" d="M325.3,166.5l0.1,1.4l-36.5,25.4l-16-13.3l-0.1-0.3c3.3-1.3,6.7-2.6,10.2-3.8
					C298.7,170.5,313.7,167.3,325.3,166.5z"/>
				<path class="st17" d="M288.9,193.3l27.1,8.8c-6.4,3.1-13.5,6-21.1,8.6c-32.8,11.4-62.1,12.8-65.4,3.2
					c-3-8.6,15.8-23.1,43.2-34.1l0.1,0.3L288.9,193.3z"/>
			</g>
			<g>
				<path class="st5" d="M325.3,166.5c12.6-0.8,21.3,1.2,23,6.2c2.6,7.4-11,19.2-32.3,29.3c-6.4,3.1-13.5,6-21.1,8.6
					c-32.8,11.4-62.1,12.8-65.4,3.2c-3-8.6,15.8-23.1,43.2-34.1c3.3-1.3,6.7-2.6,10.2-3.8C298.7,170.5,313.7,167.3,325.3,166.5z"/>
				<polyline class="st5" points="272.9,180.1 288.9,193.3 325.5,168 				"/>
				<line class="st5" x1="288.9" y1="193.3" x2="316" y2="202.1"/>
			</g>
		</g>
	</g>
	<g>
		
			<ellipse transform="matrix(0.7957 -0.6057 0.6057 0.7957 -76.5649 80.8645)" class="st6" cx="81.6" cy="153.9" rx="4.2" ry="2.3"/>
		<ellipse transform="matrix(0.7957 -0.6057 0.6057 0.7957 -76.332 80.5202)" class="st6" cx="81.2" cy="153.4" rx="4.2" ry="2.1"/>
	</g>
	<g>
		<ellipse class="st6" cx="5.1" cy="175.4" rx="2.1" ry="2"/>
	</g>
	<g>
		<ellipse class="st0" cx="55.6" cy="98.3" rx="2.1" ry="2"/>
	</g>
	<g>
		<ellipse class="st0" cx="120" cy="58.3" rx="2.1" ry="2"/>
	</g>
	<path class="st18" d="M152.2,505.8c-3.2-1.5-7.2-0.3-5.5,3.8c0.4,1,1.2,1.8,1.6,2.9c0.3,0.8,0.3,2.4,0.9,3.1c1.5,1.8,5.4,0.6,7-1
		c1.7-1.7,1.4-3.9,0-5.8C155.2,507.4,153.5,506.8,152.2,505.8z"/>
	<path class="st11" d="M150.5,446.6c-5.9,0.2-8,8.8-1.9,8.8C154.4,455.4,152.9,447.7,150.5,446.6"/>
	<path class="st6" d="M89.2,468c-5.9-0.6-10,9.1-2.5,8.7c4.9-0.3,8.7-9.5,1.9-8.7"/>
	<path class="st18" d="M547.4,618.1c-1.7,0.7-3.3,1.9-4.9,2.7c1.1,1.8,2.9,2.7,4.9,2.9C547.3,621.8,547.9,619.9,547.4,618.1"/>
	<g>
		<path class="st18" d="M480.5,649.1c-1.4,1.7-2.8,3.4-4.3,5c1.1,0.7,2.2,1.4,3.3,2c0.7-1.6,0.7-5.4,0.6-6.8"/>
		<path class="st11" d="M480,649.4c1.6,0.7,2.8,1.7,4.1,2.9c-1.3,1.5-3,3-4.5,4.1c0.4-2.1,0.1-4.5,0.6-6.6"/>
	</g>
	<path class="st11" d="M103.1,822.6c-1.9-0.6-3.8-0.8-5.2-0.4c-2,0.5-4.6,2.4-5.3,4.4c-1.1,3.2,2.3,7.8,4.9,9.3
		c4.2,2.4,10,2.1,13.3-1.8c2.1-2.5,1.9-5-0.2-7.4C109.2,825.2,106.1,823.5,103.1,822.6z"/>
	<path class="st18" d="M101.5,825.3c-1.9-0.6-3.8-0.8-5.2-0.4c-2,0.5-4.6,2.4-5.3,4.4c-1.1,3.2,2.3,7.8,4.9,9.3
		c4.2,2.4,10,2.1,13.3-1.8c2.1-2.5,1.9-5-0.2-7.4C107.7,827.9,104.5,826.2,101.5,825.3z"/>
	<path class="st19" d="M156.3,847.8c-2.2-1.9-4.4,1.8-3.9,3.8c0.4,1.7,1.8,3.3,3.6,3.6C161.1,855.8,157.9,849.4,156.3,847.8"/>
	<path class="st20" d="M391.6,912c-4.4,0-8.1-0.8-10.7-2.8c-1.8-1.4-4-4-3.9-8.6c0-1.6,1.3-2.8,2.9-2.8c1.6,0,2.8,1.3,2.8,2.9
		c0,2.4,0.9,3.4,1.6,4c6.3,4.7,27.1,0.5,33.9-1.7l-9.5,2.3c37.3-11.4,81.1-35.6,103.1-58.9c22.6-23.9,31.6-47.8,27.6-72.9
		c-1.9-11.6-7.1-20.8-12.6-30.6c-2.6-4.6-5.3-9.3-7.6-14.4c-0.7-1.4,0-3.1,1.4-3.8c1.4-0.7,1.1,0,1.8,1.4c2.3,4.9,4.9,9.5,7.4,14
		c5.5,9.8,13.2,19.8,15.2,32.5c4.3,27-5.2,52.4-29,77.7c-22.6,24-56.1,43.6-94.3,55.3l-1.7,0.5C410.1,909.2,399.7,912,391.6,912z"/>
	<path class="st19" d="M170.5,410.3c-3.3-1.5-9.7,0.9-8.2,5.4c0.9,2.6,6.6,4.8,9,4.6c3.1-0.1,7.2-3.3,5.7-6.9
		C176,411,171.1,410.6,170.5,410.3"/>
</g>
<g>
</g>
<g>
</g>
<g>
</g>
<g>
</g>
<g>
</g>
<g>
</g>
</svg>
