<svg xmlns="http://www.w3.org/2000/svg" xmlns:xlink="http://www.w3.org/1999/xlink" width="750" height="4571" viewBox="0 0 750 4571"><defs><style>.a,.h{fill:none;}.b{fill:#e61673;}.c{clip-path:url(#a);}.d{fill:#fffbcc;}.d,.e{stroke:#9c639c;stroke-width:1.22px;}.d,.e,.h,.i,.j,.m,.n,.o,.p{stroke-linecap:round;stroke-linejoin:round;}.e{fill:#09c;}.f,.i{fill:#f9c270;}.g{fill:url(#b);}.h,.i,.j,.k{stroke:#e61673;}.h{stroke-width:0.8px;}.i,.j{stroke-width:1.14px;}.j,.l,.n{fill:#fff;}.k{fill:#fce1b7;stroke-width:1.03px;}.k,.l{stroke-miterlimit:10;}.l,.m{stroke:#bd771a;stroke-width:0.87px;}.m,.p{fill:#fff799;}.n,.o,.p{stroke:#da3915;}.n{stroke-width:0.9px;}.o{fill:#e5745b;}.o,.p{stroke-width:1.52px;}</style><clipPath id="a"><rect class="a" width="750" height="4571"/></clipPath><pattern id="b" width="127.56" height="127.56" patternTransform="translate(-720.7 111.08) rotate(1.01) scale(0.17)" patternUnits="userSpaceOnUse" viewBox="0 0 127.56 127.56"><rect class="a" width="127.56" height="127.56"/><circle class="b" cx="109.79" cy="115.38" r="5.52"/><circle class="b" cx="130.18" cy="117.56" r="5.52"/><circle class="b" cx="109.79" cy="97.22" r="5.52"/><circle class="b" cx="131.15" cy="95.03" r="5.52"/><circle class="b" cx="67.27" cy="115.38" r="5.52"/><circle class="b" cx="87.66" cy="117.56" r="5.52"/><circle class="b" cx="67.27" cy="97.22" r="5.52"/><circle class="b" cx="88.63" cy="95.03" r="5.52"/><circle class="b" cx="24.75" cy="115.38" r="5.52"/><circle class="b" cx="45.14" cy="117.56" r="5.52"/><circle class="b" cx="24.75" cy="97.22" r="5.52"/><circle class="b" cx="46.11" cy="95.03" r="5.52"/><circle class="b" cx="2.62" cy="117.56" r="5.52"/><circle class="b" cx="3.59" cy="95.03" r="5.52"/><circle class="b" cx="95.62" cy="72.86" r="5.52"/><circle class="b" cx="116.01" cy="75.04" r="5.52"/><circle class="b" cx="95.62" cy="54.7" r="5.52"/><circle class="b" cx="116.98" cy="52.51" r="5.52"/><circle class="b" cx="53.1" cy="72.86" r="5.52"/><circle class="b" cx="73.49" cy="75.04" r="5.52"/><circle class="b" cx="53.1" cy="54.7" r="5.52"/><circle class="b" cx="74.46" cy="52.51" r="5.52"/><circle class="b" cx="10.58" cy="72.86" r="5.52"/><circle class="b" cx="30.97" cy="75.04" r="5.52"/><circle class="b" cx="10.58" cy="54.7" r="5.52"/><circle class="b" cx="31.94" cy="52.51" r="5.52"/><circle class="b" cx="123.96" cy="30.34" r="5.52"/><circle class="b" cx="123.96" cy="12.18" r="5.52"/><circle class="b" cx="81.45" cy="30.34" r="5.52"/><circle class="b" cx="101.84" cy="32.52" r="5.52"/><circle class="b" cx="81.45" cy="12.18" r="5.52"/><circle class="b" cx="102.81" cy="9.99" r="5.52"/><circle class="b" cx="38.93" cy="30.34" r="5.52"/><circle class="b" cx="59.32" cy="32.52" r="5.52"/><circle class="b" cx="38.93" cy="12.18" r="5.52"/><circle class="b" cx="60.29" cy="9.99" r="5.52"/><circle class="b" cx="-3.59" cy="30.34" r="5.52"/><circle class="b" cx="16.8" cy="32.52" r="5.52"/><circle class="b" cx="-3.59" cy="12.18" r="5.52"/><circle class="b" cx="17.77" cy="9.99" r="5.52"/></pattern></defs><g class="c"><path class="d" d="M674.05,2280.48c-1.69,1.83-3.46,3.66-5.27,5.39,1.3.72,2.7,1.49,4.07,2.15.84-1.69.91-5.78.69-7.31"/><path class="e" d="M673.54,2280.71a16.39,16.39,0,0,1,5,3.13,32.33,32.33,0,0,1-5.54,4.41c.54-2.22.06-4.87.78-7.09"/><path class="e" d="M679.74,2369.41c-2.63-1.66-6.78-1.62-8.83,1-2.41,3.07.87,7.52,4.92,6.85,2.89-.48,5-2.57,4.89-5.15C680.7,2371.1,680.47,2369.51,679.74,2369.41Z"/><path class="d" d="M679.08,2367.64c-2.45-1.53-6.31-1.49-8.22.91-2.25,2.82.8,6.92,4.58,6.3,2.69-.44,5.34-1.71,5.28-4.09C680.7,2369.85,680.72,2369,679.08,2367.64Z"/><path class="d" d="M668.79,2123c-3.88-1.62-8.77-.3-6.72,4,.52,1.1,1.45,1.92,1.93,3.13.35.91.4,2.59,1.14,3.35,1.86,1.93,6.6.59,8.52-1.11,2.1-1.87,1.66-4.15,0-6.17C672.42,2124.73,670.37,2124,668.79,2123Z"/><polygon class="f" points="119.69 4456.02 111.8 4461.29 102.47 4463.23 93.18 4461.14 85.23 4455.92 80.07 4447.92 78.35 4438.59 80 4429.21 85.38 4421.29 93.42 4416.14 102.77 4414.21 112.07 4416.3 120.02 4421.55 125.31 4429.5 126.91 4438.89 125.04 4448.19 119.69 4456.02"/><polygon class="g" points="119.69 4456.02 111.86 4461.46 102.47 4463.05 93.15 4461.22 85.36 4455.78 79.89 4447.99 78.1 4438.59 80.09 4429.25 85.42 4421.33 93.4 4416.1 102.77 4414.49 112.06 4416.33 119.93 4421.64 125.12 4429.58 127 4438.89 125.15 4448.23 119.69 4456.02"/><polygon class="h" points="119.69 4456.02 111.86 4461.46 102.47 4463.05 93.15 4461.22 85.36 4455.78 79.89 4447.99 78.1 4438.59 80.09 4429.25 85.42 4421.33 93.4 4416.1 102.77 4414.49 112.06 4416.33 119.93 4421.64 125.12 4429.58 127 4438.89 125.15 4448.23 119.69 4456.02"/><path class="i" d="M41.67,4542.06c-1.31,2-1.2,4.78,1.82,4.52a2.93,2.93,0,0,0,2.4-1.39,2.53,2.53,0,0,0-1.35-3.39A4.57,4.57,0,0,0,41.67,4542.06Z"/><path class="j" d="M12.21,4569.64c1.8.78,3.62-2.35,3.06-3.78a2.15,2.15,0,0,0-1.31-1.23C11.75,4563.93,10,4568.66,12.21,4569.64Z"/><path class="k" d="M109,273c-2-.14-5.1-.24-7.07-.3-13.57-.42-26.49,1.54-34.35,12.62-10.08,14.21-4.44,36.71-16.51,49.27-6.86,7.15-19.67,12-29.38,10-29.49-6-55.53-55.64-60.77-64.05-5.84-9.37-13.53-17.54-23-18.86-12.94-1.81-23.8,12.18-23.42,25.25s9.61,23.68,17.05,34.42c16,23.1,47.25,60.3,90.48,98.17C41.34,436.44,57,459.72,56.09,485.39,55.2,512,32.37,576.16-12.66,588.88c-99.87,28.2-164.67-59.36-176.92-76.69-4.84-6.84-10.81-17.79-13.34-21.65-15-22.86-18.82-46.94-23.05-73.66l-5.74-.6a191.08,191.08,0,0,0,24.05,74.62c15.56,27.4,84.55,134.56,193.73,103.76,49.7-14,70.78-75.56,74.53-106.85,3.52-29.28-17.83-55.53-40.35-74.56S-66.42,325.9-78.66,299.07c-2.75-6-3.63-9.44-2.67-16S-74.41,268.47-68,267c11.42-2.58,21.65,8.27,28.07,18.07,9.16,14,28.55,60.54,67.33,64.07,11.91,1.08,24.08-6.23,29.84-16.71,7.94-14.45,3.57-34.55,14.94-46.5,8.91-9.36,22.45-9,36.16-8.54"/><path class="l" d="M103.81,237.34c3-1.12,3.62,4.72.5,5-4.55.46-1.56-4.05,0-5.19"/><path class="m" d="M153.14,331.68a10.81,10.81,0,0,1,7.47,3.26c0,7.31-13.37,2.69-8.08-2.93a7.37,7.37,0,0,0,1.48.1C152.72,331.92,154.42,331.43,153.14,331.68Z"/><path class="n" d="M96.18,282c-3.62-7.12-1.77-15.33,4.13-18.33s13.63.34,17.25,7.46,1.77,15.33-4.13,18.33S99.8,289.07,96.18,282Zm15.4,3.72c4.1-2.09,5.39-7.8,2.87-12.75s-7.89-7.28-12-5.19-5.4,7.79-2.88,12.75S107.47,287.75,111.58,285.67Z"/><path class="n" d="M98.67,280.68c-3.62-7.12-1.77-15.33,4.13-18.33s13.63.34,17.25,7.46,1.77,15.33-4.13,18.34S102.29,287.81,98.67,280.68ZM114.79,284c4.1-2.08,5.39-7.79,2.87-12.74s-7.89-7.28-12-5.19-5.39,7.79-2.87,12.74S110.68,286.12,114.79,284Z"/><path class="k" d="M109,273c9.67.72,19.59,1.46,28-3.08,11.71-6.38,15.58-21.35,15.86-34.69.82-39.79-21.56-81.71-44.26-114.4C79.43,79,46.79,44.83,3.35,18.08-8.12,11-25.92,4.63-39.35,3.58S-61,7.86-68.91,19.45c-5.48,1.9,3-14.61,17.82-18.1a56.09,56.09,0,0,1,26.33.47c21.25,5.32,40,17.7,57.21,31.29a395.17,395.17,0,0,1,91.09,102.57c19.61,31.89,35,68.24,32.62,105.6-.66,10.59-3.21,21.92-11.22,28.87-9.56,8.29-23.14,7.7-36.56,7.25"/><polyline class="o" points="612.95 2295.89 592.61 2259.94 594.55 2257.54 616.29 2293.61"/><polyline class="p" points="614.89 2293.5 594.55 2257.54 598.73 2255.31 618.23 2291.21"/><path class="p" d="M573.59,2274.32c.16-6.8,11.87-10.49,17.21-11.14,4.77-.57,4.76.36,7,4.46-7.29-.18-19.1,2-22,9.47"/><polyline class="o" points="588.62 2312.04 563 2268.19 564.94 2265.79 591.96 2309.76"/><polyline class="p" points="590.55 2309.64 564.94 2265.79 569.12 2263.56 593.9 2307.36"/><path class="p" d="M589.19,2309.7c2.34-.13,4.49-1.61,6.68-2.51,3-1.24,6.09-2.22,9.21-3.23,4.32-1.41,9.76-2.49,13.58-4.91,2.28-1.45,3.83-3.81,5.63-5.79,2-2.21,7.57-7.56,7.57-10.6,0-10.08-16.68-2-23.11,0-6.82,2.1-16.14,6.64-17.47,9.07C589.83,2294.38,584,2309.26,589.19,2309.7Z"/><path class="o" d="M590.72,2313.3c2.33-.13,4.49-1.61,6.68-2.51,3-1.24,6.09-2.22,9.21-3.24,4.32-1.4,9.75-2.48,13.57-4.91,2.29-1.45,4.1-5.37,5.51-7.64,2.1-3.36,4.76-7.24,5.9-10.06,3.2-7.87-14.89-.66-21.31,1.32-6.82,2.1-16.14,6.64-17.47,9.07C591.36,2298,585.55,2312.86,590.72,2313.3Z"/><path class="p" d="M594.53,2307.93s-4-2-4.27,4.11l18.79,34,2.5.26,1.08-2.41Z"/><path class="p" d="M622,2297.73s-4-2-4.25,4.14l19,33.88,2.5.25,1.06-2.42Z"/><path class="p" d="M595.91,2297.2s-.77-3.4,3.2-2.64l24,32.76-3,2.32Z"/><path class="p" d="M625.18,2287.34s-1.12-3.31,2.9-3l27.25,30.11-2.75,2.62Z"/></g></svg>