<svg xmlns="http://www.w3.org/2000/svg" width="83" height="54" viewBox="0 0 83 54"><defs><style>.a{fill:#231815;}</style></defs><path class="a" d="M42,26.53c0,17.1-7.52,26.6-21,26.6S0,43.63,0,26.53,7.52,0,21,0,42,9.5,42,26.53Zm-40.51,0C1.52,42.64,8.44,51.61,21,51.61s19.53-9,19.53-25.08-7-25-19.53-25S1.52,10.41,1.52,26.53Z"/><path class="a" d="M64.68,23.18c10.72,0,17.79,5.09,17.79,13.91,0,9.5-6.77,16-17.63,16a28.25,28.25,0,0,1-15-4.49l.91-1.21a26.27,26.27,0,0,0,14.07,4.18C74.94,51.61,81,45.68,81,37.39S74.79,24.7,64.68,24.7H59.36V23.33L77.91,1.52H52V0H80V1.37L61.49,23.18Z"/></svg>