<svg xmlns="http://www.w3.org/2000/svg" width="88" height="54" viewBox="0 0 88 54"><defs><style>.a{fill:#231815;}</style></defs><path class="a" d="M42,26.53c0,17.1-7.52,26.6-21,26.6S0,43.63,0,26.53,7.52,0,21,0,42,9.5,42,26.53Zm-40.51,0C1.52,42.64,8.44,51.61,21,51.61s19.53-9,19.53-25.08-7-25-19.53-25S1.52,10.41,1.52,26.53Z"/><path class="a" d="M58.66,1.52v22a39,39,0,0,1,11.63-2.13c10.42,0,17.1,5.78,17.1,14.67C87.39,46.36,80.63,53,70.14,53A31.89,31.89,0,0,1,53.8,47.81l.76-1.22a31,31,0,0,0,15.58,4.87c9.58,0,15.73-6,15.73-15.36,0-8-6.15-13.15-15.58-13.15a38.18,38.18,0,0,0-13.15,2.74V0H85.49V1.52Z"/></svg>