<svg xmlns="http://www.w3.org/2000/svg" width="1700" height="2619" viewBox="0 0 1700 2619"><defs><style>.a{fill:#fce1b7;stroke-width:1.03px;}.a,.i,.j{stroke:#e61673;}.a,.l{stroke-miterlimit:10;}.b,.j,.l{fill:#fff;}.b,.c,.d,.m{stroke:#da3915;}.b,.c,.d,.e,.f,.g,.h,.i,.j,.k,.m{stroke-linecap:round;stroke-linejoin:round;}.b{stroke-width:0.9px;}.c{fill:#e5745b;}.c,.d{stroke-width:1.52px;}.d,.g{fill:#fff799;}.e{fill:#fffbcc;}.e,.f,.g,.h{stroke:#9c639c;stroke-width:1.22px;}.f{fill:#09c;}.h,.i{fill:#f9c270;}.i,.j{stroke-width:1.14px;}.k{fill:#f5b6b9;}.k,.l{stroke:#bd771a;stroke-width:1.21px;}.m{fill:none;stroke-width:1.24px;}</style></defs><path class="a" d="M341.26,552.07c-2-.15-5.1-.24-7.07-.3-13.57-.43-26.49,1.54-34.35,12.61-10.08,14.22-4.44,36.71-16.51,49.28-6.86,7.15-19.67,12-29.38,10-29.49-6-55.53-55.64-60.77-64-5.84-9.38-13.53-17.54-23-18.86-12.95-1.81-23.8,12.18-23.42,25.24s9.61,23.68,17,34.43c16,23.1,47.25,60.29,90.48,98.17,19.32,16.92,34.93,40.21,34.07,65.88-.89,26.59-23.73,90.77-68.75,103.48C119.75,896.13,55,808.56,42.69,791.24c-4.83-6.84-10.8-17.8-13.33-21.66-14.95-22.85-18.82-46.93-23-73.65l-5.74-.61a191,191,0,0,0,24.05,74.62c15.56,27.41,84.55,134.57,193.73,103.77,49.7-14,70.78-75.56,74.53-106.85,3.52-29.28-17.83-55.53-40.35-74.56s-86.67-87.36-98.91-114.18c-2.75-6-3.63-9.45-2.67-16s6.92-14.62,13.37-16.08c11.42-2.58,21.65,8.27,28.07,18.07,9.16,14,28.55,60.54,67.33,64.06,11.91,1.09,24.08-6.22,29.84-16.7,7.94-14.46,3.57-34.55,14.94-46.5,8.91-9.36,22.45-9,36.16-8.55"/><path class="b" d="M328.46,561c-3.62-7.13-1.77-15.33,4.13-18.33s13.63.34,17.25,7.46,1.77,15.33-4.13,18.33S332.08,568.12,328.46,561Zm15.4,3.71c4.1-2.08,5.39-7.79,2.87-12.75s-7.89-7.27-12-5.18-5.4,7.79-2.88,12.74S339.75,566.8,343.86,564.71Z"/><path class="b" d="M331,559.73c-3.62-7.12-1.77-15.33,4.13-18.33s13.63.34,17.25,7.46,1.77,15.33-4.13,18.33S334.57,566.85,331,559.73Zm16.12,3.35c4.1-2.09,5.39-7.79,2.87-12.75s-7.89-7.27-12-5.19-5.39,7.8-2.88,12.75S343,565.17,347.07,563.08Z"/><path class="a" d="M341.26,552.07c9.67.71,19.59,1.46,27.95-3.09,11.71-6.37,15.58-21.35,15.86-34.68.82-39.8-21.56-81.71-44.27-114.4-29.09-41.9-61.74-76-105.17-102.78-11.47-7.06-29.27-13.44-42.7-14.49s-21.61,4.28-29.56,15.86c-5.48,1.91,3-14.61,17.82-18.09a55.83,55.83,0,0,1,26.33.47c21.25,5.32,40,17.7,57.21,31.29a395.13,395.13,0,0,1,91.09,102.56c19.61,31.89,35,68.24,32.62,105.61-.66,10.59-3.21,21.92-11.23,28.87-9.55,8.28-23.13,7.7-36.55,7.24"/><polyline class="c" points="1472.23 1120.94 1451.89 1084.98 1453.83 1082.59 1475.57 1118.66"/><polyline class="d" points="1474.16 1118.54 1453.83 1082.59 1458.01 1080.36 1477.51 1116.26"/><path class="d" d="M1432.87,1099.37c.16-6.8,11.87-10.5,17.21-11.14,4.77-.58,4.76.35,7,4.46-7.29-.19-19.1,2-22,9.46"/><polyline class="c" points="1447.9 1137.09 1422.28 1093.24 1424.22 1090.84 1451.24 1134.81"/><polyline class="d" points="1449.83 1134.69 1424.22 1090.84 1428.4 1088.61 1453.18 1132.41"/><path class="d" d="M1448.47,1134.75c2.34-.13,4.49-1.61,6.68-2.51,3-1.24,6.09-2.22,9.21-3.24,4.32-1.4,9.75-2.49,13.58-4.91,2.28-1.45,3.83-3.81,5.63-5.78,2-2.22,7.57-7.57,7.57-10.61,0-10.08-16.68-2-23.11,0-6.82,2.11-16.14,6.65-17.47,9.08C1449.11,1119.43,1443.31,1134.31,1448.47,1134.75Z"/><path class="c" d="M1450,1138.35c2.33-.13,4.49-1.62,6.68-2.51,3-1.24,6.09-2.22,9.21-3.24,4.32-1.4,9.75-2.49,13.57-4.91,2.29-1.45,4.1-5.38,5.51-7.64,2.1-3.37,4.76-7.24,5.9-10.06,3.2-7.87-14.89-.66-21.31,1.31-6.83,2.1-16.14,6.65-17.47,9.08C1450.64,1123,1444.83,1137.91,1450,1138.35Z"/><path class="d" d="M1453.81,1133s-4-2-4.28,4.11l18.8,34,2.5.27,1.08-2.41Z"/><path class="d" d="M1481.23,1122.78s-4-2-4.25,4.14l19,33.88,2.51.24,1.06-2.41Z"/><path class="d" d="M1455.19,1122.25s-.77-3.4,3.19-2.65l24,32.76-3,2.32Z"/><path class="d" d="M1484.46,1112.38s-1.12-3.3,2.9-3l27.25,30.11-2.75,2.61Z"/><path class="e" d="M1515.07,2001.06c-3.88-1.62-8.77-.31-6.72,4,.52,1.11,1.45,1.92,1.92,3.14.36.91.41,2.58,1.14,3.35,1.87,1.93,6.61.59,8.53-1.12,2.1-1.87,1.66-4.14,0-6.16C1518.7,2002.78,1516.65,2002.07,1515.07,2001.06Z"/><path class="f" d="M1393.15,1841.31c-7.25.21-9.84,9.42-2.29,9.42,7,0,5.24-8.24,2.29-9.42"/><path class="e" d="M366.62,1599.54a26.54,26.54,0,0,0-6.88,2.69,13.5,13.5,0,0,0,5.23,4.65c.57-2.09.8-6.86.88-6.67"/><path class="g" d="M1417.5,2096.18c-7.24-.6-12.18,9.78-3.07,9.27,5.94-.33,10.67-10.2,2.31-9.27"/><path class="h" d="M1480.53,2175.05c-3.33-3-6.67-6.08-9.79-9.23-1.73,1.86-3.57,3.87-5.17,5.85,3.25,1.64,11.48,2.57,14.61,2.54"/><path class="f" d="M1480.18,2174.21c-1.83,2.91-4.39,5-7.34,7.12a53.39,53.39,0,0,1-7.77-9.45c4.37,1.29,14.16,2.64,14.16,2.64"/><path class="i" d="M259,2590.1c-1.31,2-1.2,4.78,1.82,4.53a2.94,2.94,0,0,0,2.4-1.4,2.52,2.52,0,0,0-1.35-3.38A4.56,4.56,0,0,0,259,2590.1Z"/><path class="j" d="M229.49,2617.69c1.8.78,3.62-2.36,3.06-3.79a2.13,2.13,0,0,0-1.32-1.22C229,2612,227.23,2616.7,229.49,2617.69Z"/><path class="k" d="M1645,115.1c-2.31-1.68-6.22.69-6.61,3.21-.6,3.82,4.38,5.5,7.2,3.52C1648.06,120.12,1648.42,116.09,1645,115.1Z"/><path class="l" d="M1613.83,169.35c-3.07-3.25-7.44,3.64-3.74,6,5.38,3.39,4.44-4.09,3.25-6.46"/><circle class="m" cx="1409.62" cy="101.23" r="4.41"/></svg>