<svg xmlns="http://www.w3.org/2000/svg" width="93" height="54" viewBox="0 0 93 54"><defs><style>.a{fill:#231815;}</style></defs><path class="a" d="M42,26.53c0,17.09-7.52,26.6-21,26.6S0,43.62,0,26.53,7.52,0,21,0,42,9.5,42,26.53Zm-40.51,0C1.52,42.64,8.44,51.61,21,51.61s19.53-9,19.53-25.08-7-25-19.53-25S1.52,10.41,1.52,26.53Z"/><path class="a" d="M90.44,3.34l-.76,1.37A29.5,29.5,0,0,0,76.84,1.52c-13.23,0-20.3,12.39-18.55,32.68C60,25.31,66.58,19.84,76.23,19.84c10.18,0,16.49,6.15,16.49,16.41,0,10.49-6.61,16.88-16.8,16.88-12.16,0-19.45-8.74-19.45-25.16,0-16.8,7.67-28,20.21-28A33.86,33.86,0,0,1,90.44,3.34ZM59.58,36.71c0,6,4.72,14.9,16,14.9,9.2,0,15.66-5.93,15.66-15.51,0-9.12-5.93-14.74-15-14.74C65.82,21.36,59.58,28.8,59.58,36.71Z"/></svg>