<svg xmlns="http://www.w3.org/2000/svg" width="87" height="54" viewBox="0 0 87 54"><defs><style>.a{fill:#231815;}</style></defs><path class="a" d="M42,26.53c0,17.1-7.52,26.6-21,26.6S0,43.63,0,26.53,7.52,0,21,0,42,9.5,42,26.53Zm-40.51,0C1.52,42.64,8.44,51.61,21,51.61s19.53-9,19.53-25.08-7-25-19.53-25S1.52,10.41,1.52,26.53Z"/><path class="a" d="M82.79,12.39c0,4.56-3.42,10.94-9.12,16.87L53.6,51.61H86.74v1.52H52.08V51L72.6,28.2c5.4-5.63,8.67-11.63,8.67-15.81,0-6.77-5.1-10.87-13.46-10.87A21,21,0,0,0,53.22,8L52.16,6.92A22.43,22.43,0,0,1,67.81,0C77.09,0,82.79,4.71,82.79,12.39Z"/></svg>