<svg xmlns="http://www.w3.org/2000/svg" xmlns:xlink="http://www.w3.org/1999/xlink" width="1700" height="2619" viewBox="0 0 1700 2619"><defs><style>.a,.m{fill:none;}.b{fill:#e61673;}.c,.d,.g,.j{fill:#fff799;}.c,.e,.m{stroke:#e61673;}.c,.d,.e,.g,.h,.i,.m,.n,.o{stroke-linecap:round;stroke-linejoin:round;}.c,.d,.e{stroke-width:0.6px;}.d,.f,.g{stroke:#bd771a;}.e{fill:#56b879;}.f,.n{fill:#fff;}.f,.j{stroke-miterlimit:10;}.f,.g{stroke-width:0.87px;}.h{fill:#fffbcc;}.h,.i,.j{stroke:#9c639c;stroke-width:1.22px;}.i{fill:#09c;}.k{fill:#f9c270;}.l{fill:url(#a);}.m{stroke-width:0.8px;}.n,.o{stroke:#da3915;stroke-width:1.48px;}.o{fill:#cae5cd;}</style><pattern id="a" width="127.56" height="127.56" patternTransform="translate(-741.01 71.57) rotate(1.01) scale(0.17)" patternUnits="userSpaceOnUse" viewBox="0 0 127.56 127.56"><rect class="a" width="127.56" height="127.56"/><circle class="b" cx="109.79" cy="115.38" r="5.52"/><circle class="b" cx="130.18" cy="117.56" r="5.52"/><circle class="b" cx="109.79" cy="97.22" r="5.52"/><circle class="b" cx="131.15" cy="95.03" r="5.52"/><circle class="b" cx="67.27" cy="115.38" r="5.52"/><circle class="b" cx="87.66" cy="117.56" r="5.52"/><circle class="b" cx="67.27" cy="97.22" r="5.52"/><circle class="b" cx="88.63" cy="95.03" r="5.52"/><circle class="b" cx="24.75" cy="115.38" r="5.52"/><circle class="b" cx="45.14" cy="117.56" r="5.52"/><circle class="b" cx="24.75" cy="97.22" r="5.52"/><circle class="b" cx="46.11" cy="95.03" r="5.52"/><circle class="b" cx="2.62" cy="117.56" r="5.52"/><circle class="b" cx="3.59" cy="95.03" r="5.52"/><circle class="b" cx="95.62" cy="72.86" r="5.52"/><circle class="b" cx="116.01" cy="75.04" r="5.52"/><circle class="b" cx="95.62" cy="54.7" r="5.52"/><circle class="b" cx="116.98" cy="52.51" r="5.52"/><circle class="b" cx="53.1" cy="72.86" r="5.52"/><circle class="b" cx="73.49" cy="75.04" r="5.52"/><circle class="b" cx="53.1" cy="54.7" r="5.52"/><circle class="b" cx="74.46" cy="52.51" r="5.52"/><circle class="b" cx="10.58" cy="72.86" r="5.52"/><circle class="b" cx="30.97" cy="75.04" r="5.52"/><circle class="b" cx="10.58" cy="54.7" r="5.52"/><circle class="b" cx="31.94" cy="52.51" r="5.52"/><circle class="b" cx="123.96" cy="30.34" r="5.52"/><circle class="b" cx="123.96" cy="12.18" r="5.52"/><circle class="b" cx="81.45" cy="30.34" r="5.52"/><circle class="b" cx="101.84" cy="32.52" r="5.52"/><circle class="b" cx="81.45" cy="12.18" r="5.52"/><circle class="b" cx="102.81" cy="9.99" r="5.52"/><circle class="b" cx="38.93" cy="30.34" r="5.52"/><circle class="b" cx="59.32" cy="32.52" r="5.52"/><circle class="b" cx="38.93" cy="12.18" r="5.52"/><circle class="b" cx="60.29" cy="9.99" r="5.52"/><circle class="b" cx="-3.59" cy="30.34" r="5.52"/><circle class="b" cx="16.8" cy="32.52" r="5.52"/><circle class="b" cx="-3.59" cy="12.18" r="5.52"/><circle class="b" cx="17.77" cy="9.99" r="5.52"/></pattern></defs><rect class="a" x="-360.21" y="-7516" width="1500" height="8367.35"/><path class="c" d="M165.25,721.94c1,.15,1.41,1.73.88,2.47-.8,1.12-2.49.31-2.71-.9C163.22,722.46,164.13,721.35,165.25,721.94Z"/><path class="d" d="M186.76,735.34c2.2,3.44-1.94,6.88-5.33,6.66-4.14-.27-8-4.93-9.42-8.47-2.95-7.24,3.94-8,8.45-4.82C183.31,730.75,184.8,733.05,186.76,735.34Z"/><path class="e" d="M180.22,720.18c5.23,3.29,8.8,7.12,7.1,13.89-2,8.14-9.92,3-12.81-2.07C171,725.88,173.45,719.9,180.22,720.18Zm-1.31,7.49c-3.47.16,1.74,4.62,3.13,5.29,1.55-1.81-1.26-4.69-3.13-5.29"/><path class="f" d="M336.09,516.38c3-1.11,3.62,4.73.49,5-4.55.46-1.55-4,0-5.19"/><path class="g" d="M385.42,610.72a10.87,10.87,0,0,1,7.47,3.27c0,7.3-13.37,2.69-8.08-2.94a6.15,6.15,0,0,0,1.48.1C385,611,386.7,610.48,385.42,610.72Z"/><path class="h" d="M1640.65,1075.57c-6.76-4.25-12.51,3.6-5.4,7.41C1642.17,1086.69,1645.79,1079.84,1640.65,1075.57Z"/><path class="h" d="M1533.33,1105.53c-1.69,1.82-3.46,3.65-5.27,5.38,1.3.72,2.7,1.5,4.07,2.15.84-1.69.91-5.77.69-7.31"/><path class="i" d="M1532.82,1105.75a16.42,16.42,0,0,1,5,3.14,32.67,32.67,0,0,1-5.54,4.4c.54-2.21.06-4.86.78-7.09"/><path class="i" d="M1539,1194.45c-2.63-1.66-6.78-1.61-8.83,1-2.41,3.06.87,7.52,4.92,6.85,2.89-.48,5-2.57,4.89-5.16C1540,1196.15,1539.75,1194.56,1539,1194.45Z"/><path class="h" d="M1538.36,1192.69c-2.45-1.53-6.32-1.49-8.22.91-2.25,2.82.8,6.92,4.58,6.3,2.69-.44,5.34-1.71,5.28-4.1C1540,1194.9,1540,1194,1538.36,1192.69Z"/><path class="j" d="M1685.18,2278.16c-65.3,9.17-178.21,2.29-234.1-40.42-21.57-16.49-32.18-36.84-31.53-60.49.74-27,13.78-51.57,36.71-69.32,23.83-18.43,54.88-26.85,87.42-23.71,6,.58,12.15,1.34,18.09,2.08,29.81,3.68,58,7.17,84.93-7.86,14.82-8.27,24.94-19.13,27.06-29.07,1.3-6.11-.43-11.82-5.15-17-5.24-5.75-12.63-10.68-20.44-15.89-16.52-11-33.59-22.42-31.26-42.87s24.24-39.82,46.91-41.47a3.2,3.2,0,0,1,3.62,2.79,3.39,3.39,0,0,1-3.32,3.29c-21.53,1.55-41.26,20.51-43,36.18-2,17.13,12.92,27.06,28.68,37.57,7.79,5.2,15.84,10.57,21.59,16.88,6,6.57,10.91,13.51,9.23,21.41-2.49,11.65-13.82,24.09-30.33,33.29-29.19,16.27-60,12.46-89.7,8.78-5.88-.72-12-1.48-17.88-2-30.55-2.94-59.89,5-82.17,22.2-21.38,16.55-33.55,39.53-34.24,64.72-.6,21.8,9.24,40.61,29.26,55.91,54.27,41.47,165.35,47.95,229.35,39,1.83-.26,4.66,1.18,4.67,3S1687,2277.9,1685.18,2278.16Z"/><polygon class="k" points="336.96 2504.06 329.07 2509.34 319.75 2511.28 310.46 2509.19 302.51 2503.96 297.35 2495.96 295.63 2486.64 297.28 2477.26 302.66 2469.34 310.7 2464.18 320.05 2462.26 329.35 2464.35 337.3 2469.59 342.58 2477.55 344.19 2486.93 342.32 2496.24 336.96 2504.06"/><polygon class="l" points="336.96 2504.06 329.14 2509.5 319.75 2511.1 310.43 2509.26 302.64 2503.83 297.17 2496.04 295.38 2486.64 297.37 2477.29 302.7 2469.38 310.68 2464.15 320.05 2462.54 329.34 2464.38 337.21 2469.69 342.4 2477.62 344.29 2486.93 342.43 2496.28 336.96 2504.06"/><polygon class="m" points="336.96 2504.06 329.14 2509.5 319.75 2511.1 310.43 2509.26 302.64 2503.83 297.17 2496.04 295.38 2486.64 297.37 2477.29 302.7 2469.38 310.68 2464.15 320.05 2462.54 329.34 2464.38 337.21 2469.69 342.4 2477.62 344.29 2486.93 342.43 2496.28 336.96 2504.06"/><path class="n" d="M1490.07,4.6a27,27,0,0,0-11.54,4.08c-1.48,1-3.39,2.57-3.69,4.46s.06,3.5,1.6,4c1.88.66.32,1.68-1,1.88-6.16.87-10.83,3.93-10.41,6.85s5.74,4.57,11.9,3.7a21.21,21.21,0,0,0,7.57-2.39,6.41,6.41,0,0,0,2.62-2.52c.92-2-1.56-3.1-.49-4.36,1.2-1.42,3.57-.5,5.13-.4,5.83.39,16.85-2.56,15.81-9.9C1506.93,5.75,1499.11,3.32,1490.07,4.6Z"/><path class="o" d="M1489.57,1.08A26.94,26.94,0,0,0,1478,5.17c-1.48,1-3.4,2.57-3.7,4.45s.07,3.5,1.6,4c1.88.65.32,1.68-1,1.87-6.17.87-10.83,3.94-10.42,6.85s5.74,4.58,11.91,3.71a21.31,21.31,0,0,0,7.56-2.4,6.41,6.41,0,0,0,2.63-2.51c.91-2-1.56-3.11-.49-4.37,1.19-1.42,3.56-.5,5.12-.39,5.84.38,16.85-2.56,15.82-9.91C1506.43,2.24,1498.61-.2,1489.57,1.08Z"/></svg>