<?xml version="1.0" encoding="utf-8"?>
<!-- Generator: Adobe Illustrator 25.2.1, SVG Export Plug-In . SVG Version: 6.00 Build 0)  -->
<svg version="1.1" id="レイヤー_1" xmlns="http://www.w3.org/2000/svg" xmlns:xlink="http://www.w3.org/1999/xlink" x="0px"
	 y="0px" viewBox="0 0 280 64" style="enable-background:new 0 0 280 64;" xml:space="preserve">
<style type="text/css">
	.st0{fill:none;stroke:#000000;stroke-width:3.0341;stroke-miterlimit:10;}
	.st1{fill:none;stroke:#000000;stroke-width:2.8824;stroke-linejoin:round;stroke-miterlimit:10;}
	.st2{fill:none;stroke:#000000;stroke-width:2.2681;stroke-miterlimit:10;}
	.st3{fill:none;stroke:#000000;stroke-width:3.0341;stroke-linejoin:round;stroke-miterlimit:10;}
</style>
<g>
	<line class="st0" x1="278.8" y1="37.8" x2="233.5" y2="37.8"/>
	<circle class="st0" cx="256.1" cy="17.1" r="7.6"/>
	<path class="st0" d="M246.7,34.1c0-5.2,4.2-9.4,9.4-9.4c5.2,0,9.4,4.2,9.4,9.4"/>
	<polygon points="271.3,37.8 267.5,47.3 271.3,47.3 275,37.8 	"/>
	<polygon points="237.3,37.8 241,47.3 244.8,47.3 241,37.8 	"/>
	<line class="st0" x1="273.1" y1="34.1" x2="273.1" y2="28.4"/>
	<circle cx="273.1" cy="26.5" r="3.8"/>
	<polyline class="st0" points="265.6,54.8 265.6,45.4 271.3,45.4 	"/>
	<polyline class="st0" points="246.7,54.8 246.7,45.4 241,45.4 	"/>
	<line class="st0" x1="246.7" y1="45.4" x2="265.6" y2="45.4"/>
</g>
<g>
	<g>
		<path d="M115.8,12.7v19.9H83V12.7H115.8 M118,9.5H80.9c-0.5,0-1,0.4-1,1v24.2c0,0.5,0.4,1,1,1H118c0.5,0,1-0.4,1-1V10.5
			C119,10,118.5,9.5,118,9.5L118,9.5z"/>
	</g>
	<polygon class="st1" points="123.9,52.5 74.9,52.5 80.8,40 118,40 	"/>
	<line class="st2" x1="83.9" y1="44.3" x2="89.5" y2="44.3"/>
	<line class="st2" x1="81.4" y1="48.1" x2="87" y2="48.1"/>
	<line class="st2" x1="89" y1="48.1" x2="94.6" y2="48.1"/>
	<line class="st2" x1="96.5" y1="48.1" x2="102.2" y2="48.1"/>
	<line class="st2" x1="104.1" y1="48.1" x2="109.8" y2="48.1"/>
	<line class="st2" x1="111.7" y1="48.1" x2="117.3" y2="48.1"/>
	<line class="st2" x1="91.9" y1="44.3" x2="97.6" y2="44.3"/>
	<line class="st2" x1="100" y1="44.3" x2="105.6" y2="44.3"/>
	<line class="st2" x1="108" y1="44.3" x2="113.7" y2="44.3"/>
</g>
<g>
	<path class="st3" d="M42,51.1H8.4c-3.1,0-5.6-2.5-5.6-5.6V13.7h33.6v13.1"/>
	<path class="st3" d="M42,51.1L42,51.1c-3.1,0-5.6-2.5-5.6-5.6V26.8h11.2v18.7C47.6,48.6,45.1,51.1,42,51.1z"/>
	<rect x="10.2" y="21.2" class="st3" width="18.7" height="5.6"/>
	<line class="st3" x1="8.4" y1="32.4" x2="17.7" y2="32.4"/>
	<line class="st3" x1="21.4" y1="32.4" x2="30.8" y2="32.4"/>
	<line class="st3" x1="8.4" y1="38" x2="17.7" y2="38"/>
	<line class="st3" x1="21.4" y1="38" x2="30.8" y2="38"/>
	<line class="st3" x1="8.4" y1="43.6" x2="17.7" y2="43.6"/>
	<line class="st3" x1="21.4" y1="43.6" x2="30.8" y2="43.6"/>
</g>
<g>
	<path class="st0" d="M156,53.8c0-8.1,6.6-14.7,14.7-14.7c8.1,0,14.7,6.6,14.7,14.7"/>
	<circle class="st0" cx="170.7" cy="24" r="10.5"/>
	<g>
		<path d="M204.2,23c0,4.6-1,8.9-2.8,12.8l3.5,2.3c2.2-4.6,3.4-9.8,3.4-15.2s-1.3-10.6-3.4-15.2l-3.5,2.3
			C203.2,14,204.2,18.4,204.2,23z"/>
		<path d="M187.4,23c0,1.1-0.1,2.2-0.4,3.2l3.7,2.5c0.6-1.8,0.9-3.7,0.9-5.7s-0.3-3.9-0.9-5.7l-3.7,2.5
			C187.3,20.8,187.4,21.8,187.4,23z"/>
		<path d="M195.8,23c0,2.9-0.5,5.6-1.5,8.1l3.6,2.4c1.4-3.2,2.1-6.8,2.1-10.5s-0.8-7.3-2.1-10.5l-3.6,2.4
			C195.3,17.4,195.8,20.1,195.8,23z"/>
	</g>
</g>
</svg>
