<svg xmlns="http://www.w3.org/2000/svg" xmlns:xlink="http://www.w3.org/1999/xlink" width="1700" height="1468" viewBox="0 0 1700 1468"><defs><style>.a,.e,.h{fill:none;}.b{fill:#e61673;}.c{fill:#fdedd4;}.d{fill:url(#a);}.e{stroke:#e61673;stroke-width:1.46px;}.e,.f,.h,.k{stroke-linecap:round;stroke-linejoin:round;}.f,.l{fill:#fff;}.f,.h,.k{stroke:#9c639c;stroke-width:1.22px;}.g{fill:#fff799;}.i{fill:#81cde4;}.j,.k{fill:#4cb7db;}</style><pattern id="a" width="127.56" height="127.56" patternTransform="matrix(0.22, 0, 0, -0.22, 1428.8, 3353.16)" patternUnits="userSpaceOnUse" viewBox="0 0 127.56 127.56"><rect class="a" width="127.56" height="127.56"/><rect class="a" width="127.56" height="127.56"/><circle class="b" cx="109.79" cy="12.18" r="5.52"/><circle class="b" cx="130.18" cy="10" r="5.52"/><circle class="b" cx="109.79" cy="30.34" r="5.52"/><circle class="b" cx="131.15" cy="32.53" r="5.52"/><circle class="b" cx="67.27" cy="12.18" r="5.52"/><circle class="b" cx="87.66" cy="10" r="5.52"/><circle class="b" cx="67.27" cy="30.34" r="5.52"/><circle class="b" cx="88.63" cy="32.53" r="5.52"/><circle class="b" cx="24.75" cy="12.18" r="5.52"/><circle class="b" cx="45.14" cy="10" r="5.52"/><circle class="b" cx="24.75" cy="30.34" r="5.52"/><circle class="b" cx="46.11" cy="32.53" r="5.52"/><circle class="b" cx="2.62" cy="10" r="5.52"/><circle class="b" cx="3.59" cy="32.53" r="5.52"/><circle class="b" cx="95.62" cy="54.7" r="5.52"/><circle class="b" cx="116.01" cy="52.52" r="5.52"/><circle class="b" cx="95.62" cy="72.86" r="5.52"/><circle class="b" cx="116.98" cy="75.05" r="5.52"/><circle class="b" cx="53.1" cy="54.7" r="5.52"/><circle class="b" cx="73.49" cy="52.52" r="5.52"/><circle class="b" cx="53.1" cy="72.86" r="5.52"/><circle class="b" cx="74.46" cy="75.05" r="5.52"/><circle class="b" cx="10.58" cy="54.7" r="5.52"/><circle class="b" cx="30.97" cy="52.52" r="5.52"/><circle class="b" cx="10.58" cy="72.86" r="5.52"/><circle class="b" cx="31.94" cy="75.05" r="5.52"/><circle class="b" cx="123.96" cy="97.22" r="5.52"/><circle class="b" cx="123.96" cy="115.38" r="5.52"/><circle class="b" cx="81.45" cy="97.22" r="5.52"/><circle class="b" cx="101.84" cy="95.04" r="5.52"/><circle class="b" cx="81.45" cy="115.38" r="5.52"/><circle class="b" cx="102.81" cy="117.57" r="5.52"/><circle class="b" cx="38.93" cy="97.22" r="5.52"/><circle class="b" cx="59.32" cy="95.04" r="5.52"/><circle class="b" cx="38.93" cy="115.38" r="5.52"/><circle class="b" cx="60.29" cy="117.57" r="5.52"/><circle class="b" cx="-3.59" cy="97.22" r="5.52"/><circle class="b" cx="16.8" cy="95.04" r="5.52"/><circle class="b" cx="-3.59" cy="115.38" r="5.52"/><circle class="b" cx="17.77" cy="117.57" r="5.52"/></pattern></defs><polygon class="c" points="372.16 355.93 357.92 363.85 341.63 363.92 327.71 355.49 319.53 341.44 319.6 325.14 328.02 311.25 342.07 303.2 358.31 303.14 372.21 311.53 380.34 325.55 380.08 341.75 372.16 355.93"/><polygon class="d" points="371.98 355.75 357.89 363.73 341.68 363.75 327.61 355.58 319.75 341.39 319.78 325.19 327.84 311.07 342.07 303.23 358.31 303.15 372.25 311.48 380.19 325.59 380.43 341.84 371.98 355.75"/><polygon class="e" points="371.98 355.75 357.89 363.73 341.68 363.75 327.61 355.58 319.75 341.39 319.78 325.19 327.84 311.07 342.07 303.23 358.31 303.15 372.25 311.48 380.19 325.59 380.43 341.84 371.98 355.75"/><rect class="f" x="1357.87" y="550.16" width="23.97" height="58.14" transform="translate(379.07 -529.99) rotate(25.31)"/><path class="g" d="M1355,615.87c-.63.23-.59-.18-1.19-.46s-.55-.39-1.15-.68-.59-.3-1.19-.59l-1.21-.56c-.6-.29-.61-.27-1.21-.55s-.63-.22-1.24-.51-.56-.36-1.16-.64-.62-.24-1.22-.52-.67-.15-1.27-.43-.53-.45-1.13-.73l-1.19-.59-1.22-.55c-.6-.28-.67-.13-1.27-.42s-.53-.44-1.13-.73-.65-.18-1.26-.47-.54-.4-1.15-.69-.67-.14-1.27-.43-1,0-1.23-.61.25-.64.53-1.24.35-.56.64-1.16.32-.58.6-1.17.23-.62.51-1.22.28-.6.56-1.2.36-.56.64-1.15.13-.67.41-1.27.37-.55.65-1.15.36-.55.64-1.15.31-.58.59-1.17.16-.66.44-1.25.32-.58.61-1.17.33-.57.61-1.17.28-.6.57-1.19.22-.63.5-1.23.33-.57.61-1.17.27-.6.55-1.2.21-.63.49-1.22.26-.61.54-1.21.43-.52.71-1.12.11-.68.4-1.28.41-.53.69-1.13.23-.62.51-1.22.36-.56.64-1.16.21-.63.49-1.23.19-.64.48-1.24.41-.53.69-1.13.27-.6.55-1.2.2-.64.49-1.24.45-.52.73-1.11.29-.6.57-1.2.2-.64.48-1.23.3-.59.58-1.19.19-.64.47-1.24.42-.53.7-1.13.12-.68.4-1.27.44-.53.73-1.13.22-.62.5-1.22.18-.65.46-1.25.46-.52.74-1.12l.57-1.19c.28-.6.18-.65.47-1.25s.38-.56.66-1.16-.1-.92.53-1.15.54.24,1.15.52.62.24,1.22.52.59.32,1.19.6.58.34,1.18.62.62.25,1.22.53.58.33,1.18.61.62.24,1.22.53l1.2.58c.6.28.66.15,1.26.44s.62.25,1.22.53.5.51,1.1.79.65.19,1.25.47.57.36,1.17.64.59.32,1.19.6l1.21.57c.6.28.68.12,1.28.41s.55.41,1.15.7,1.13-.17,1.36.46-.44.61-.72,1.21-.24.62-.52,1.22-.35.56-.64,1.15-.21.63-.49,1.23-.19.64-.47,1.24-.34.57-.62,1.16-.43.53-.71,1.13-.1.68-.38,1.27-.43.53-.71,1.12-.18.64-.46,1.24-.34.57-.62,1.16-.25.61-.53,1.2-.27.61-.55,1.2-.2.64-.48,1.24-.29.59-.57,1.19-.42.53-.71,1.13-.2.63-.48,1.23-.38.55-.66,1.14-.16.66-.44,1.26-.3.58-.58,1.18-.25.61-.53,1.21-.44.53-.72,1.12-.27.61-.56,1.2-.22.63-.5,1.23-.22.62-.5,1.22-.34.57-.62,1.17-.2.64-.48,1.23-.33.58-.61,1.18-.32.58-.6,1.18-.23.62-.52,1.22-.29.59-.57,1.19-.41.54-.69,1.14-.26.6-.55,1.2-.31.58-.59,1.18-.18.65-.47,1.24-.35.57-.63,1.17-.32.58-.6,1.18-.28.6-.57,1.19-.09.69-.37,1.29-.45.52-.74,1.12-.13.67-.42,1.27-.3.59-.59,1.19-.41.54-.58,1.19S1355.67,615.65,1355,615.87Z"/><path class="h" d="M1355,615.87c-.63.23-.59-.18-1.19-.46s-.55-.39-1.15-.68-.59-.3-1.19-.59l-1.21-.56c-.6-.29-.61-.27-1.21-.55s-.63-.22-1.24-.51-.56-.36-1.16-.64-.62-.24-1.22-.52-.67-.15-1.27-.43-.53-.45-1.13-.73l-1.19-.59-1.22-.55c-.6-.28-.67-.13-1.27-.42s-.53-.44-1.13-.73-.65-.18-1.26-.47-.54-.4-1.15-.69-.67-.14-1.27-.43-1,0-1.23-.61.25-.64.53-1.24.35-.56.64-1.16.32-.58.6-1.17.23-.62.51-1.22.28-.6.56-1.2.36-.56.64-1.15.13-.67.41-1.27.37-.55.65-1.15.36-.55.64-1.15.31-.58.59-1.17.16-.66.44-1.25.32-.58.61-1.17.33-.57.61-1.17.28-.6.57-1.19.22-.63.5-1.23.33-.57.61-1.17.27-.6.55-1.2.21-.63.49-1.22.26-.61.54-1.21.43-.52.71-1.12.11-.68.4-1.28.41-.53.69-1.13.23-.62.51-1.22.36-.56.64-1.16.21-.63.49-1.23.19-.64.48-1.24.41-.53.69-1.13.27-.6.55-1.2.2-.64.49-1.24.45-.52.73-1.11.29-.6.57-1.2.2-.64.48-1.23.3-.59.58-1.19.19-.64.47-1.24.42-.53.7-1.13.12-.68.4-1.27.44-.53.73-1.13.22-.62.5-1.22.18-.65.46-1.25.46-.52.74-1.12l.57-1.19c.28-.6.18-.65.47-1.25s.38-.56.66-1.16-.1-.92.53-1.15.54.24,1.15.52.62.24,1.22.52.59.32,1.19.6.58.34,1.18.62.62.25,1.22.53.58.33,1.18.61.62.24,1.22.53l1.2.58c.6.28.66.15,1.26.44s.62.25,1.22.53.5.51,1.1.79.65.19,1.25.47.57.36,1.17.64.59.32,1.19.6l1.21.57c.6.28.68.12,1.28.41s.55.41,1.15.7,1.13-.17,1.36.46-.44.61-.72,1.21-.24.62-.52,1.22-.35.56-.64,1.15-.21.63-.49,1.23-.19.64-.47,1.24-.34.57-.62,1.16-.43.53-.71,1.13-.1.68-.38,1.27-.43.53-.71,1.12-.18.64-.46,1.24-.34.57-.62,1.16-.25.61-.53,1.2-.27.61-.55,1.2-.2.64-.48,1.24-.29.59-.57,1.19-.42.53-.71,1.13-.2.63-.48,1.23-.38.55-.66,1.14-.16.66-.44,1.26-.3.58-.58,1.18-.25.61-.53,1.21-.44.53-.72,1.12-.27.61-.56,1.2-.22.63-.5,1.23-.22.62-.5,1.22-.34.57-.62,1.17-.2.64-.48,1.23-.33.58-.61,1.18-.32.58-.6,1.18-.23.62-.52,1.22-.29.59-.57,1.19-.41.54-.69,1.14-.26.6-.55,1.2-.31.58-.59,1.18-.18.65-.47,1.24-.35.57-.63,1.17-.32.58-.6,1.18-.28.6-.57,1.19-.09.69-.37,1.29-.45.52-.74,1.12-.13.67-.42,1.27-.3.59-.59,1.19-.41.54-.58,1.19S1355.67,615.65,1355,615.87Z"/><path class="i" d="M1358.3,553.14c0-.65.53-.28,1.12-.53s.63-.17,1.23-.41l1.2-.46,1.2-.5,1.19-.49c.6-.25.61-.21,1.21-.45s.56-.36,1.16-.6.65-.12,1.25-.36.56-.33,1.16-.58.63-.18,1.23-.42.55-.59,1.19-.56.62.3,1.22.59l1.2.57c.6.28.59.31,1.19.59s.58.33,1.18.62.64.2,1.24.49l1.21.55,1.2.56c.6.29.56.39,1.16.67l1.2.57c.6.29.63.21,1.24.5l1.21.55c.6.29.57.36,1.17.64s.61.27,1.21.55l1.2.58c.61.28.62.25,1.22.54s.58.33,1.19.62l1.2.59c.6.28,1.26-.16,1.26.51s-.64.19-1.24.43-.57.32-1.17.57-.63.16-1.22.4-.57.34-1.17.58-.63.15-1.23.39-.58.29-1.18.53l-1.21.47c-.6.24-.61.2-1.21.44s-.58.3-1.18.54-.62.2-1.22.45-.54.55-1.19.53-.59-.32-1.19-.61-.59-.3-1.19-.59-.63-.24-1.23-.52-.62-.24-1.22-.53-.58-.33-1.18-.62-.58-.32-1.18-.61l-1.2-.57c-.6-.28-.63-.22-1.24-.5s-.61-.25-1.21-.54l-1.2-.57c-.61-.28-.59-.31-1.2-.59s-.59-.31-1.19-.59-.62-.25-1.22-.54l-1.2-.58c-.61-.28-.59-.31-1.2-.59s-.62-.23-1.23-.52-.54-.42-1.2-.55S1358.31,553.81,1358.3,553.14Z"/><path class="h" d="M1358.3,553.14c0-.65.53-.28,1.12-.53s.63-.17,1.23-.41l1.2-.46,1.2-.5,1.19-.49c.6-.25.61-.21,1.21-.45s.56-.36,1.16-.6.65-.12,1.25-.36.56-.33,1.16-.58.63-.18,1.23-.42.55-.59,1.19-.56.62.3,1.22.59l1.2.57c.6.28.59.31,1.19.59s.58.33,1.18.62.64.2,1.24.49l1.21.55,1.2.56c.6.29.56.39,1.16.67l1.2.57c.6.29.63.21,1.24.5l1.21.55c.6.29.57.36,1.17.64s.61.27,1.21.55l1.2.58c.61.28.62.25,1.22.54s.58.33,1.19.62l1.2.59c.6.28,1.26-.16,1.26.51s-.64.19-1.24.43-.57.32-1.17.57-.63.16-1.22.4-.57.34-1.17.58-.63.15-1.23.39-.58.29-1.18.53l-1.21.47c-.6.24-.61.2-1.21.44s-.58.3-1.18.54-.62.2-1.22.45-.54.55-1.19.53-.59-.32-1.19-.61-.59-.3-1.19-.59-.63-.24-1.23-.52-.62-.24-1.22-.53-.58-.33-1.18-.62-.58-.32-1.18-.61l-1.2-.57c-.6-.28-.63-.22-1.24-.5s-.61-.25-1.21-.54l-1.2-.57c-.61-.28-.59-.31-1.2-.59s-.59-.31-1.19-.59-.62-.25-1.22-.54l-1.2-.58c-.61-.28-.59-.31-1.2-.59s-.62-.23-1.23-.52-.54-.42-1.2-.55S1358.31,553.81,1358.3,553.14Z"/><path class="j" d="M1355,616c-.45-.49.43-.63.72-1.23s.22-.62.5-1.22.3-.59.58-1.18.22-.63.51-1.23.23-.62.51-1.21.3-.59.58-1.19.37-.55.65-1.15.22-.62.5-1.22.37-.55.65-1.15.33-.57.61-1.16.21-.63.49-1.23.27-.59.56-1.19.31-.58.59-1.18.23-.62.51-1.22.2-.63.48-1.23.31-.58.6-1.18.24-.61.53-1.21.43-.52.71-1.12.24-.61.53-1.21.3-.59.58-1.18.28-.6.56-1.2.31-.59.59-1.19.25-.61.53-1.21.29-.59.58-1.18.31-.58.6-1.18.16-.66.44-1.25.33-.58.61-1.18.23-.62.51-1.22.35-.56.64-1.16.3-.59.58-1.19.21-.63.49-1.23.37-.56.65-1.16.29-.59.57-1.19.28-.6.57-1.19.31-.59.59-1.19.12-.67.4-1.27.29-.59.57-1.19.36-.57.64-1.17.23-.62.51-1.22.42-.54.7-1.14.12-.67.41-1.27.36-.56.64-1.16.35-.57.63-1.18,0-.83.46-1.29.64-.24,1.24-.48.64-.13,1.24-.37.61-.21,1.21-.45.57-.31,1.17-.55.57-.32,1.17-.56.64-.14,1.24-.38.61-.23,1.21-.47.56-.33,1.16-.57.62-.19,1.22-.44.62-.2,1.22-.44.8-1.07,1.24-.58-.35.63-.63,1.23-.29.59-.57,1.19-.29.59-.57,1.19-.29.59-.58,1.19-.18.64-.46,1.24-.42.53-.71,1.12-.27.6-.55,1.2-.26.6-.54,1.2-.31.58-.59,1.17l-.56,1.2c-.28.59-.11.67-.39,1.26s-.36.56-.64,1.16-.31.58-.59,1.18-.19.64-.47,1.24-.34.57-.62,1.16-.22.63-.5,1.23-.43.53-.71,1.12-.16.66-.44,1.25-.41.54-.7,1.13-.15.66-.43,1.26-.38.55-.66,1.15-.17.65-.45,1.25-.45.51-.74,1.11-.29.59-.57,1.19-.22.63-.5,1.22-.26.61-.54,1.21-.25.62-.53,1.22-.26.6-.54,1.2-.42.54-.7,1.13-.31.59-.59,1.19l-.56,1.19c-.29.6-.24.63-.52,1.23s-.32.57-.6,1.17-.28.6-.56,1.2-.13.67-.41,1.27-.44.52-.72,1.12-.21.63-.49,1.23-.3.59-.58,1.19-.18.65-.46,1.25-.47.51-.76,1.11-.18.65-.46,1.25-.37.56-.65,1.16-.28.6-.57,1.2-.09.7-.57,1.16-.51.36-1.11.6-.59.26-1.19.5-.58.28-1.18.52-.64.14-1.24.39-.58.29-1.18.53-.66.09-1.26.33-.54.38-1.14.62-.63.17-1.23.41-.62.21-1.22.45a3.29,3.29,0,0,0-1.13.62C1355.69,616,1355.42,616.5,1355,616Z"/><path class="h" d="M1355,616c-.45-.49.43-.63.72-1.23s.22-.62.5-1.22.3-.59.58-1.18.22-.63.51-1.23.23-.62.51-1.21.3-.59.58-1.19.37-.55.65-1.15.22-.62.5-1.22.37-.55.65-1.15.33-.57.61-1.16.21-.63.49-1.23.27-.59.56-1.19.31-.58.59-1.18.23-.62.51-1.22.2-.63.48-1.23.31-.58.6-1.18.24-.61.53-1.21.43-.52.71-1.12.24-.61.53-1.21.3-.59.58-1.18.28-.6.56-1.2.31-.59.59-1.19.25-.61.53-1.21.29-.59.58-1.18.31-.58.6-1.18.16-.66.44-1.25.33-.58.61-1.18.23-.62.51-1.22.35-.56.64-1.16.3-.59.58-1.19.21-.63.49-1.23.37-.56.65-1.16.29-.59.57-1.19.28-.6.57-1.19.31-.59.59-1.19.12-.67.4-1.27.29-.59.57-1.19.36-.57.64-1.17.23-.62.51-1.22.42-.54.7-1.14.12-.67.41-1.27.36-.56.64-1.16.35-.57.63-1.18,0-.83.46-1.29.64-.24,1.24-.48.64-.13,1.24-.37.61-.21,1.21-.45.57-.31,1.17-.55.57-.32,1.17-.56.64-.14,1.24-.38.61-.23,1.21-.47.56-.33,1.16-.57.62-.19,1.22-.44.62-.2,1.22-.44.8-1.07,1.24-.58-.35.63-.63,1.23-.29.59-.57,1.19-.29.59-.57,1.19-.29.59-.58,1.19-.18.64-.46,1.24-.42.53-.71,1.12-.27.6-.55,1.2-.26.6-.54,1.2-.31.58-.59,1.17l-.56,1.2c-.28.59-.11.67-.39,1.26s-.36.56-.64,1.16-.31.58-.59,1.18-.19.64-.47,1.24-.34.57-.62,1.16-.22.63-.5,1.23-.43.53-.71,1.12-.16.66-.44,1.25-.41.54-.7,1.13-.15.66-.43,1.26-.38.55-.66,1.15-.17.65-.45,1.25-.45.51-.74,1.11-.29.59-.57,1.19-.22.63-.5,1.22-.26.61-.54,1.21-.25.62-.53,1.22-.26.6-.54,1.2-.42.54-.7,1.13-.31.59-.59,1.19l-.56,1.19c-.29.6-.24.63-.52,1.23s-.32.57-.6,1.17-.28.6-.56,1.2-.13.67-.41,1.27-.44.52-.72,1.12-.21.63-.49,1.23-.3.59-.58,1.19-.18.65-.46,1.25-.47.51-.76,1.11-.18.65-.46,1.25-.37.56-.65,1.16-.28.6-.57,1.2-.09.7-.57,1.16-.51.36-1.11.6-.59.26-1.19.5-.58.28-1.18.52-.64.14-1.24.39-.58.29-1.18.53-.66.09-1.26.33-.54.38-1.14.62-.63.17-1.23.41-.62.21-1.22.45a3.29,3.29,0,0,0-1.13.62C1355.69,616,1355.42,616.5,1355,616Z"/><rect class="f" x="1373.04" y="549.28" width="17.13" height="3.73" transform="translate(368.2 -537.71) rotate(25.31)"/><path class="g" d="M1379.11,560.28c-.62.21-.58-.28-1.17-.57l-1.19-.55c-.59-.28-.61-.26-1.2-.54l-1.2-.54c-.59-.28-.57-.33-1.16-.61l-1.2-.55-1.19-.57-1.19-.57-1.2-.56-1.19-.56c-.59-.28-.61-.25-1.2-.54s-.59-.3-1.19-.58-.93,0-1.18-.57.23-.57.5-1.13.27-.56.54-1.12-.06-1,.53-1.15.6.31,1.2.59.6.26,1.2.54l1.18.57c.6.28.59.3,1.18.58s.58.31,1.18.59.61.25,1.2.53l1.2.56c.59.28.58.31,1.17.59s.62.25,1.21.53.61.26,1.2.55l1.2.56c.59.28.58.31,1.18.59s1-.05,1.21.57-.29.56-.55,1.12a3.85,3.85,0,0,0-.5,1.14C1379.53,559.82,1379.71,560.09,1379.11,560.28Z"/><path class="h" d="M1379.11,560.28c-.62.21-.58-.28-1.17-.57l-1.19-.55c-.59-.28-.61-.26-1.2-.54l-1.2-.54c-.59-.28-.57-.33-1.16-.61l-1.2-.55-1.19-.57-1.19-.57-1.2-.56-1.19-.56c-.59-.28-.61-.25-1.2-.54s-.59-.3-1.19-.58-.93,0-1.18-.57.23-.57.5-1.13.27-.56.54-1.12-.06-1,.53-1.15.6.31,1.2.59.6.26,1.2.54l1.18.57c.6.28.59.3,1.18.58s.58.31,1.18.59.61.25,1.2.53l1.2.56c.59.28.58.31,1.17.59s.62.25,1.21.53.61.26,1.2.55l1.2.56c.59.28.58.31,1.18.59s1-.05,1.21.57-.29.56-.55,1.12a3.85,3.85,0,0,0-.5,1.14C1379.53,559.82,1379.71,560.09,1379.11,560.28Z"/><path class="i" d="M1365.19,549.6c0-.63.63-.24,1.22-.48s.59-.21,1.18-.45.58-.26,1.17-.49l1.18-.46,1.19-.47c.59-.24.59-.22,1.18-.45s.56-.32,1.15-.56.56-.46,1.2-.43.58.29,1.18.58.61.23,1.21.51.58.31,1.17.59.59.31,1.18.59.62.23,1.21.51.57.34,1.17.62.61.25,1.2.53.61.26,1.2.55.58.33,1.17.61.62.23,1.22.51l1.18.58c.6.29.58.33,1.18.61s1.17-.14,1.19.52-.57.23-1.16.47-.57.27-1.16.51-.61.17-1.2.41l-1.18.48c-.59.23-.57.28-1.16.52l-1.18.47-1.18.47c-.59.24-.55.45-1.18.42s-.6-.22-1.2-.51-.61-.24-1.2-.52l-1.19-.57c-.59-.28-.58-.31-1.17-.59l-1.18-.57c-.6-.28-.62-.24-1.22-.52l-1.18-.57-1.2-.56c-.59-.29-.56-.36-1.15-.64s-.63-.23-1.22-.51-.59-.3-1.18-.59a3.68,3.68,0,0,0-1.21-.51C1365.68,550.07,1365.2,550.26,1365.19,549.6Z"/><path class="h" d="M1365.19,549.6c0-.63.63-.24,1.22-.48s.59-.21,1.18-.45.58-.26,1.17-.49l1.18-.46,1.19-.47c.59-.24.59-.22,1.18-.45s.56-.32,1.15-.56.56-.46,1.2-.43.58.29,1.18.58.61.23,1.21.51.58.31,1.17.59.59.31,1.18.59.62.23,1.21.51.57.34,1.17.62.61.25,1.2.53.61.26,1.2.55.58.33,1.17.61.62.23,1.22.51l1.18.58c.6.29.58.33,1.18.61s1.17-.14,1.19.52-.57.23-1.16.47-.57.27-1.16.51-.61.17-1.2.41l-1.18.48c-.59.23-.57.28-1.16.52l-1.18.47-1.18.47c-.59.24-.55.45-1.18.42s-.6-.22-1.2-.51-.61-.24-1.2-.52l-1.19-.57c-.59-.28-.58-.31-1.17-.59l-1.18-.57c-.6-.28-.62-.24-1.22-.52l-1.18-.57-1.2-.56c-.59-.29-.56-.36-1.15-.64s-.63-.23-1.22-.51-.59-.3-1.18-.59a3.68,3.68,0,0,0-1.21-.51C1365.68,550.07,1365.2,550.26,1365.19,549.6Z"/><polygon class="k" points="1379.12 560.3 1380.71 556.92 1390.14 553.12 1388.55 556.5 1379.12 560.3"/><path class="g" d="M1352.65,612.33c-.87.18-1.11,0-1.53-.82-.32-.58.26-.52.54-1.11s.23-.62.51-1.22.34-.56.62-1.15.19-.64.47-1.23l.56-1.18c.28-.6.38-.55.66-1.14s.14-.66.42-1.25.34-.56.62-1.16l.56-1.18c.28-.6.32-.58.61-1.17l.56-1.19c.28-.59.2-.63.48-1.23s.35-.56.63-1.15.31-.58.59-1.18.24-.61.52-1.2.23-.62.51-1.21.25-.61.53-1.21.38-.55.66-1.14.26-.61.54-1.2.33-.57.61-1.17.18-.64.46-1.23.36-.56.64-1.16.27-.6.55-1.19.19-.64.47-1.24.3-.58.58-1.18.38-.55.66-1.14.23-.63.51-1.22.36-.56.64-1.15.22-.63.5-1.22.19-.64.47-1.24.4-.53.69-1.13.16-.65.44-1.24.32-.58.6-1.18.34-.57.62-1.16.26-.61.54-1.21.34-.57.63-1.16.24-.62.52-1.21.2-.64.48-1.24.39-.55.67-1.15-.11-1.06.54-1.19c.88-.18,1.17,0,1.59.76.32.58-.31.56-.59,1.15s-.18.64-.46,1.23-.26.6-.54,1.2-.3.58-.58,1.18-.34.56-.62,1.15-.3.58-.58,1.17-.26.61-.54,1.2-.3.58-.58,1.17-.27.6-.55,1.19-.21.63-.49,1.22-.31.59-.59,1.18-.35.57-.63,1.16-.31.58-.59,1.18-.29.58-.57,1.18-.24.61-.52,1.2-.24.62-.52,1.21-.27.6-.55,1.2-.35.56-.63,1.15-.2.63-.49,1.23-.37.55-.65,1.14-.18.65-.46,1.24-.23.62-.51,1.21-.37.56-.65,1.15-.25.62-.53,1.21-.38.55-.66,1.14-.13.67-.41,1.27-.35.56-.63,1.15-.23.63-.51,1.22-.42.53-.7,1.12-.23.62-.51,1.22-.29.59-.57,1.19-.24.61-.52,1.21-.31.58-.59,1.18-.35.56-.63,1.16-.26.6-.54,1.2-.19.64-.47,1.24-.34.57-.62,1.17-.27.6-.55,1.2a4,4,0,0,0-.51,1.2C1353.13,611.85,1353.3,612.21,1352.65,612.33Z"/><path class="h" d="M1352.65,612.33c-.87.18-1.11,0-1.53-.82-.32-.58.26-.52.54-1.11s.23-.62.51-1.22.34-.56.62-1.15.19-.64.47-1.23l.56-1.18c.28-.6.38-.55.66-1.14s.14-.66.42-1.25.34-.56.62-1.16l.56-1.18c.28-.6.32-.58.61-1.17l.56-1.19c.28-.59.2-.63.48-1.23s.35-.56.63-1.15.31-.58.59-1.18.24-.61.52-1.2.23-.62.51-1.21.25-.61.53-1.21.38-.55.66-1.14.26-.61.54-1.2.33-.57.61-1.17.18-.64.46-1.23.36-.56.64-1.16.27-.6.55-1.19.19-.64.47-1.24.3-.58.58-1.18.38-.55.66-1.14.23-.63.51-1.22.36-.56.64-1.15.22-.63.5-1.22.19-.64.47-1.24.4-.53.69-1.13.16-.65.44-1.24.32-.58.6-1.18.34-.57.62-1.16.26-.61.54-1.21.34-.57.63-1.16.24-.62.52-1.21.2-.64.48-1.24.39-.55.67-1.15-.11-1.06.54-1.19c.88-.18,1.17,0,1.59.76.32.58-.31.56-.59,1.15s-.18.64-.46,1.23-.26.6-.54,1.2-.3.58-.58,1.18-.34.56-.62,1.15-.3.58-.58,1.17-.26.61-.54,1.2-.3.58-.58,1.17-.27.6-.55,1.19-.21.63-.49,1.22-.31.59-.59,1.18-.35.57-.63,1.16-.31.58-.59,1.18-.29.58-.57,1.18-.24.61-.52,1.2-.24.62-.52,1.21-.27.6-.55,1.2-.35.56-.63,1.15-.2.63-.49,1.23-.37.55-.65,1.14-.18.65-.46,1.24-.23.62-.51,1.21-.37.56-.65,1.15-.25.62-.53,1.21-.38.55-.66,1.14-.13.67-.41,1.27-.35.56-.63,1.15-.23.63-.51,1.22-.42.53-.7,1.12-.23.62-.51,1.22-.29.59-.57,1.19-.24.61-.52,1.21-.31.58-.59,1.18-.35.56-.63,1.16-.26.6-.54,1.2-.19.64-.47,1.24-.34.57-.62,1.17-.27.6-.55,1.2a4,4,0,0,0-.51,1.2C1353.13,611.85,1353.3,612.21,1352.65,612.33Z"/><path class="g" d="M1348,610.22a1.31,1.31,0,0,1-1.69-.83c-.32-.58.29-.65.58-1.24s.39-.54.67-1.13.22-.62.5-1.22.23-.62.51-1.21.33-.57.61-1.16.33-.57.61-1.16.18-.64.46-1.23.36-.56.64-1.15.21-.62.49-1.21.28-.6.57-1.19.35-.56.64-1.16.25-.6.53-1.2.18-.64.46-1.23.36-.56.64-1.15.24-.61.52-1.21.24-.61.52-1.2l.56-1.2c.28-.59.34-.57.62-1.16s.25-.61.53-1.2.38-.55.66-1.14.23-.62.51-1.22.24-.61.52-1.21.35-.56.63-1.16.23-.62.51-1.21.35-.56.63-1.16.18-.64.47-1.24.35-.56.63-1.16.37-.55.65-1.15.15-.65.43-1.24.42-.54.7-1.13.22-.63.5-1.22l.56-1.19c.28-.6.33-.57.62-1.17s.17-.64.46-1.24.28-.59.57-1.19.34-.57.62-1.16.23-.63.51-1.22.32-.58.6-1.18.18-.65.47-1.25,0-1.07.63-1.2a1.29,1.29,0,0,1,1.7.77c.31.58-.32.65-.6,1.24s-.32.58-.6,1.17-.3.59-.58,1.18-.22.62-.5,1.21-.31.58-.59,1.17-.2.63-.48,1.22-.44.52-.72,1.11-.27.6-.55,1.19-.16.65-.44,1.24-.42.53-.7,1.13-.11.67-.4,1.27-.39.54-.67,1.13-.23.62-.51,1.21-.23.62-.51,1.21-.34.57-.62,1.16-.31.58-.59,1.18-.3.58-.58,1.18-.31.58-.59,1.17-.15.66-.43,1.26-.36.55-.64,1.15-.26.6-.54,1.2-.29.59-.57,1.19-.24.61-.52,1.2-.38.55-.66,1.15-.21.63-.49,1.22-.33.57-.61,1.17-.19.64-.47,1.24-.44.52-.72,1.11-.17.65-.45,1.24-.3.59-.58,1.18-.27.6-.56,1.2-.38.54-.66,1.14-.13.67-.41,1.27-.38.55-.66,1.14-.2.63-.48,1.23-.4.55-.68,1.14-.17.65-.45,1.25-.38.55-.67,1.15a3.56,3.56,0,0,0-.47,1.22C1348.47,609.68,1348.67,610.09,1348,610.22Z"/><path class="h" d="M1348,610.22a1.31,1.31,0,0,1-1.69-.83c-.32-.58.29-.65.58-1.24s.39-.54.67-1.13.22-.62.5-1.22.23-.62.51-1.21.33-.57.61-1.16.33-.57.61-1.16.18-.64.46-1.23.36-.56.64-1.15.21-.62.49-1.21.28-.6.57-1.19.35-.56.64-1.16.25-.6.53-1.2.18-.64.46-1.23.36-.56.64-1.15.24-.61.52-1.21.24-.61.52-1.2l.56-1.2c.28-.59.34-.57.62-1.16s.25-.61.53-1.2.38-.55.66-1.14.23-.62.51-1.22.24-.61.52-1.21.35-.56.63-1.16.23-.62.51-1.21.35-.56.63-1.16.18-.64.47-1.24.35-.56.63-1.16.37-.55.65-1.15.15-.65.43-1.24.42-.54.7-1.13.22-.63.5-1.22l.56-1.19c.28-.6.33-.57.62-1.17s.17-.64.46-1.24.28-.59.57-1.19.34-.57.62-1.16.23-.63.51-1.22.32-.58.6-1.18.18-.65.47-1.25,0-1.07.63-1.2a1.29,1.29,0,0,1,1.7.77c.31.58-.32.65-.6,1.24s-.32.58-.6,1.17-.3.59-.58,1.18-.22.62-.5,1.21-.31.58-.59,1.17-.2.63-.48,1.22-.44.52-.72,1.11-.27.6-.55,1.19-.16.65-.44,1.24-.42.53-.7,1.13-.11.67-.4,1.27-.39.54-.67,1.13-.23.62-.51,1.21-.23.62-.51,1.21-.34.57-.62,1.16-.31.58-.59,1.18-.3.58-.58,1.18-.31.58-.59,1.17-.15.66-.43,1.26-.36.55-.64,1.15-.26.6-.54,1.2-.29.59-.57,1.19-.24.61-.52,1.2-.38.55-.66,1.15-.21.63-.49,1.22-.33.57-.61,1.17-.19.64-.47,1.24-.44.52-.72,1.11-.17.65-.45,1.24-.3.59-.58,1.18-.27.6-.56,1.2-.38.54-.66,1.14-.13.67-.41,1.27-.38.55-.66,1.14-.2.63-.48,1.23-.4.55-.68,1.14-.17.65-.45,1.25-.38.55-.67,1.15a3.56,3.56,0,0,0-.47,1.22C1348.47,609.68,1348.67,610.09,1348,610.22Z"/><path class="g" d="M1343.35,607.9c-.87.17-1.13,0-1.56-.77-.31-.57.27-.55.55-1.14s.25-.61.53-1.2.22-.63.5-1.22.34-.56.62-1.15.29-.59.57-1.18.35-.56.63-1.15.23-.62.51-1.21.23-.62.51-1.21.32-.57.6-1.17.33-.57.61-1.16.27-.6.55-1.2.2-.63.48-1.22.33-.57.62-1.17.27-.59.55-1.19.26-.6.54-1.19.32-.58.6-1.17.21-.63.49-1.23.26-.6.54-1.2.33-.57.61-1.16.26-.61.54-1.2.35-.56.63-1.16.18-.64.46-1.24.29-.59.57-1.19.32-.57.6-1.17.31-.58.59-1.17.26-.61.54-1.21.35-.56.63-1.16l.57-1.19c.28-.59.16-.65.44-1.24s.34-.56.63-1.16.24-.61.52-1.21.25-.61.53-1.2.27-.61.55-1.2.29-.59.58-1.19.29-.59.58-1.18.29-.6.57-1.19.3-.59.59-1.18.38-.55.66-1.15.26-.61.54-1.21-.12-1,.53-1.15c.88-.17,1.23-.12,1.66.67.31.57-.4.59-.68,1.18s-.3.59-.58,1.18-.15.65-.43,1.24-.36.56-.64,1.16-.25.6-.53,1.19-.22.62-.5,1.21-.3.59-.58,1.18-.35.56-.63,1.15-.32.57-.6,1.17-.28.59-.57,1.18-.2.64-.48,1.23-.25.61-.53,1.2-.37.56-.65,1.15-.27.6-.55,1.19-.24.62-.52,1.21-.32.58-.6,1.17-.19.63-.47,1.23-.3.59-.58,1.18-.31.59-.59,1.18-.21.63-.49,1.22-.33.57-.62,1.16-.37.56-.65,1.15-.17.65-.45,1.24-.41.54-.69,1.13-.24.62-.52,1.22-.33.57-.61,1.16-.26.61-.55,1.2-.14.67-.42,1.26-.27.6-.56,1.19-.39.54-.67,1.14-.27.6-.55,1.19-.23.62-.51,1.22-.29.59-.58,1.19l-.56,1.19c-.28.59-.33.57-.62,1.16s-.19.64-.47,1.24-.31.59-.59,1.18-.29.59-.58,1.19-.52.52-.66,1.17S1344,607.77,1343.35,607.9Z"/><path class="h" d="M1343.35,607.9c-.87.17-1.13,0-1.56-.77-.31-.57.27-.55.55-1.14s.25-.61.53-1.2.22-.63.5-1.22.34-.56.62-1.15.29-.59.57-1.18.35-.56.63-1.15.23-.62.51-1.21.23-.62.51-1.21.32-.57.6-1.17.33-.57.61-1.16.27-.6.55-1.2.2-.63.48-1.22.33-.57.62-1.17.27-.59.55-1.19.26-.6.54-1.19.32-.58.6-1.17.21-.63.49-1.23.26-.6.54-1.2.33-.57.61-1.16.26-.61.54-1.2.35-.56.63-1.16.18-.64.46-1.24.29-.59.57-1.19.32-.57.6-1.17.31-.58.59-1.17.26-.61.54-1.21.35-.56.63-1.16l.57-1.19c.28-.59.16-.65.44-1.24s.34-.56.63-1.16.24-.61.52-1.21.25-.61.53-1.2.27-.61.55-1.2.29-.59.58-1.19.29-.59.58-1.18.29-.6.57-1.19.3-.59.59-1.18.38-.55.66-1.15.26-.61.54-1.21-.12-1,.53-1.15c.88-.17,1.23-.12,1.66.67.31.57-.4.59-.68,1.18s-.3.59-.58,1.18-.15.65-.43,1.24-.36.56-.64,1.16-.25.6-.53,1.19-.22.62-.5,1.21-.3.59-.58,1.18-.35.56-.63,1.15-.32.57-.6,1.17-.28.59-.57,1.18-.2.64-.48,1.23-.25.61-.53,1.2-.37.56-.65,1.15-.27.6-.55,1.19-.24.62-.52,1.21-.32.58-.6,1.17-.19.63-.47,1.23-.3.59-.58,1.18-.31.59-.59,1.18-.21.63-.49,1.22-.33.57-.62,1.16-.37.56-.65,1.15-.17.65-.45,1.24-.41.54-.69,1.13-.24.62-.52,1.22-.33.57-.61,1.16-.26.61-.55,1.2-.14.67-.42,1.26-.27.6-.56,1.19-.39.54-.67,1.14-.27.6-.55,1.19-.23.62-.51,1.22-.29.59-.58,1.19l-.56,1.19c-.28.59-.33.57-.62,1.16s-.19.64-.47,1.24-.31.59-.59,1.18-.29.59-.58,1.19-.52.52-.66,1.17S1344,607.77,1343.35,607.9Z"/><path class="g" d="M1338.71,605.72c-.87.17-1.16,0-1.59-.77-.31-.58.32-.55.6-1.15s.26-.6.55-1.19.18-.64.46-1.23.37-.55.65-1.14.2-.63.48-1.23.39-.53.67-1.12.2-.63.48-1.23.26-.6.54-1.19.31-.58.59-1.17.36-.56.64-1.16.29-.59.57-1.18.18-.65.46-1.24.34-.57.62-1.16.18-.64.46-1.23.42-.53.7-1.12.27-.6.55-1.2.26-.6.55-1.19.15-.66.44-1.25.43-.52.72-1.12.11-.67.39-1.27.45-.51.73-1.1.13-.67.41-1.27l.56-1.19c.28-.59.38-.55.66-1.14s.2-.63.49-1.23.24-.61.52-1.21.43-.52.72-1.12.2-.63.49-1.22.2-.63.48-1.23l.57-1.19c.28-.59.45-.51.73-1.11s.23-.62.51-1.21.19-.64.47-1.24.35-.56.63-1.15.24-.62.52-1.22.34-.57.62-1.17.19-.64.47-1.23.3-.59.58-1.19.39-.55.67-1.15-.14-1.16.51-1.28c.88-.18,1.18,0,1.61.84.31.58-.33.55-.62,1.14s-.18.64-.47,1.23-.32.57-.61,1.16-.27.6-.55,1.19-.23.61-.51,1.21-.29.58-.57,1.18-.21.62-.49,1.21-.44.52-.72,1.11-.17.65-.45,1.24-.39.54-.67,1.14-.18.64-.46,1.24-.36.56-.64,1.15-.3.58-.58,1.18-.18.64-.47,1.23-.27.6-.55,1.19-.23.62-.51,1.21-.29.59-.57,1.19-.34.56-.63,1.16-.32.57-.6,1.17-.26.6-.54,1.19-.28.6-.57,1.19-.34.57-.62,1.16-.17.65-.45,1.24-.25.62-.53,1.21-.28.6-.57,1.19-.26.6-.55,1.2-.32.57-.61,1.17-.32.57-.6,1.17-.29.59-.57,1.18-.34.57-.62,1.17-.23.61-.51,1.21-.29.59-.57,1.19-.29.59-.58,1.18-.23.62-.52,1.21-.37.56-.65,1.15-.26.61-.54,1.21-.23.62-.51,1.22-.31.58-.6,1.18a4,4,0,0,0-.51,1.21C1339.15,605.23,1339.36,605.59,1338.71,605.72Z"/><path class="h" d="M1338.71,605.72c-.87.17-1.16,0-1.59-.77-.31-.58.32-.55.6-1.15s.26-.6.55-1.19.18-.64.46-1.23.37-.55.65-1.14.2-.63.48-1.23.39-.53.67-1.12.2-.63.48-1.23.26-.6.54-1.19.31-.58.59-1.17.36-.56.64-1.16.29-.59.57-1.18.18-.65.46-1.24.34-.57.62-1.16.18-.64.46-1.23.42-.53.7-1.12.27-.6.55-1.2.26-.6.55-1.19.15-.66.44-1.25.43-.52.72-1.12.11-.67.39-1.27.45-.51.73-1.1.13-.67.41-1.27l.56-1.19c.28-.59.38-.55.66-1.14s.2-.63.49-1.23.24-.61.52-1.21.43-.52.72-1.12.2-.63.49-1.22.2-.63.48-1.23l.57-1.19c.28-.59.45-.51.73-1.11s.23-.62.51-1.21.19-.64.47-1.24.35-.56.63-1.15.24-.62.52-1.22.34-.57.62-1.17.19-.64.47-1.23.3-.59.58-1.19.39-.55.67-1.15-.14-1.16.51-1.28c.88-.18,1.18,0,1.61.84.31.58-.33.55-.62,1.14s-.18.64-.47,1.23-.32.57-.61,1.16-.27.6-.55,1.19-.23.61-.51,1.21-.29.58-.57,1.18-.21.62-.49,1.21-.44.52-.72,1.11-.17.65-.45,1.24-.39.54-.67,1.14-.18.64-.46,1.24-.36.56-.64,1.15-.3.58-.58,1.18-.18.64-.47,1.23-.27.6-.55,1.19-.23.62-.51,1.21-.29.59-.57,1.19-.34.56-.63,1.16-.32.57-.6,1.17-.26.6-.54,1.19-.28.6-.57,1.19-.34.57-.62,1.16-.17.65-.45,1.24-.25.62-.53,1.21-.28.6-.57,1.19-.26.6-.55,1.2-.32.57-.61,1.17-.32.57-.6,1.17-.29.59-.57,1.18-.34.57-.62,1.17-.23.61-.51,1.21-.29.59-.57,1.19-.29.59-.58,1.18-.23.62-.52,1.21-.37.56-.65,1.15-.26.61-.54,1.21-.23.62-.51,1.22-.31.58-.6,1.18a4,4,0,0,0-.51,1.21C1339.15,605.23,1339.36,605.59,1338.71,605.72Z"/><path class="l" d="M1382.43,565.91c-.28.59-.26.6-.54,1.19l-.56,1.18c-.28.6-.23.62-.51,1.21s-.38.55-.66,1.14-.23.61-.51,1.21-.27.6-.55,1.19-.34.56-.62,1.16-.33.57-.62,1.16-.21.62-.49,1.22-.24.61-.52,1.2l-.56,1.19c-.28.6-.3.59-.58,1.18s-.29.59-.57,1.18-.35.56-.63,1.16-.18.64-.46,1.23-.27.6-.55,1.2-.4.53-.68,1.13-.17.65-.45,1.24-.26.6-.54,1.2-.38.55-.66,1.14-.24.62-.52,1.21-.36.56-.64,1.15-.14.67-.43,1.26-.38.55-.66,1.14-.31.58-.59,1.18-.24.61-.52,1.2-.21.63-.49,1.23-.28.6-.56,1.19-.42.53-.7,1.12-.19.64-.47,1.24l-.56,1.19c-.28.6-.29.59-.57,1.19s-.34.57-.63,1.16-.27.6-.55,1.2l-.56,1.19c-.29.6-.21.64-.49,1.24s-.4.54-.68,1.14"/><path class="h" d="M1382.43,565.91c-.28.59-.26.6-.54,1.19l-.56,1.18c-.28.6-.23.62-.51,1.21s-.38.55-.66,1.14-.23.61-.51,1.21-.27.6-.55,1.19-.34.56-.62,1.16-.33.57-.62,1.16-.21.62-.49,1.22-.24.61-.52,1.2l-.56,1.19c-.28.6-.3.59-.58,1.18s-.29.59-.57,1.18-.35.56-.63,1.16-.18.64-.46,1.23-.27.6-.55,1.2-.4.53-.68,1.13-.17.65-.45,1.24-.26.6-.54,1.2-.38.55-.66,1.14-.24.62-.52,1.21-.36.56-.64,1.15-.14.67-.43,1.26-.38.55-.66,1.14-.31.58-.59,1.18-.24.61-.52,1.2-.21.63-.49,1.23-.28.6-.56,1.19-.42.53-.7,1.12-.19.64-.47,1.24l-.56,1.19c-.28.6-.29.59-.57,1.19s-.34.57-.63,1.16-.27.6-.55,1.2l-.56,1.19c-.29.6-.21.64-.49,1.24s-.4.54-.68,1.14"/><path class="l" d="M1386.91,564.15c-.28.59-.35.55-.63,1.15s-.21.62-.49,1.21-.38.55-.66,1.14-.21.62-.49,1.21-.27.6-.55,1.19-.38.55-.66,1.14-.26.6-.55,1.2-.21.62-.49,1.22-.37.55-.66,1.14-.22.62-.5,1.21-.35.56-.63,1.16-.21.62-.49,1.22l-.56,1.18c-.28.6-.35.56-.63,1.16s-.17.65-.45,1.24-.32.58-.6,1.17-.34.57-.62,1.16-.15.66-.43,1.25-.33.57-.61,1.17-.39.54-.67,1.14-.22.62-.51,1.21-.23.62-.51,1.21l-.58,1.19c-.28.59-.29.59-.57,1.18s-.33.58-.61,1.17-.23.62-.51,1.21-.3.59-.58,1.18-.33.58-.61,1.17-.17.64-.46,1.24-.37.55-.65,1.15-.27.6-.55,1.19-.18.65-.46,1.24-.34.57-.62,1.17-.31.59-.59,1.18-.2.64-.48,1.23-.38.56-.66,1.16-.24.61-.52,1.21"/><path class="h" d="M1386.91,564.15c-.28.59-.35.55-.63,1.15s-.21.62-.49,1.21-.38.55-.66,1.14-.21.62-.49,1.21-.27.6-.55,1.19-.38.55-.66,1.14-.26.6-.55,1.2-.21.62-.49,1.22-.37.55-.66,1.14-.22.62-.5,1.21-.35.56-.63,1.16-.21.62-.49,1.22l-.56,1.18c-.28.6-.35.56-.63,1.16s-.17.65-.45,1.24-.32.58-.6,1.17-.34.57-.62,1.16-.15.66-.43,1.25-.33.57-.61,1.17-.39.54-.67,1.14-.22.62-.51,1.21-.23.62-.51,1.21l-.58,1.19c-.28.59-.29.59-.57,1.18s-.33.58-.61,1.17-.23.62-.51,1.21-.3.59-.58,1.18-.33.58-.61,1.17-.17.64-.46,1.24-.37.55-.65,1.15-.27.6-.55,1.19-.18.65-.46,1.24-.34.57-.62,1.17-.31.59-.59,1.18-.2.64-.48,1.23-.38.56-.66,1.16-.24.61-.52,1.21"/></svg>