<?xml version="1.0" encoding="utf-8"?>
<!-- Generator: Adobe Illustrator 25.2.1, SVG Export Plug-In . SVG Version: 6.00 Build 0)  -->
<svg version="1.1" id="レイヤー_1" xmlns="http://www.w3.org/2000/svg" xmlns:xlink="http://www.w3.org/1999/xlink" x="0px"
	 y="0px" viewBox="0 0 270 64" style="enable-background:new 0 0 270 64;" xml:space="preserve">
<style type="text/css">
	.st0{fill:none;stroke:#000000;stroke-width:3.0341;stroke-linejoin:round;stroke-miterlimit:10;}
	.st1{fill:none;stroke:#000000;stroke-width:2.6549;stroke-linejoin:round;stroke-miterlimit:10;}
	.st2{fill:none;stroke:#000000;stroke-width:3.0341;stroke-linecap:round;stroke-miterlimit:10;}
	.st3{fill:none;stroke:#000000;stroke-width:3.0341;stroke-miterlimit:10;}
	.st4{fill:none;stroke:#000000;stroke-width:3.0341;stroke-linecap:round;stroke-linejoin:round;stroke-miterlimit:10;}
	.st5{fill:none;stroke:#000000;stroke-width:3.0735;stroke-linecap:round;stroke-linejoin:round;stroke-miterlimit:10;}
</style>
<g>
	<polygon class="st0" points="76.1,13.1 76.1,55.9 90.8,55.9 90.8,50.5 97.3,50.5 97.3,55.9 111.7,55.9 111.7,13.1 	"/>
	<line class="st1" x1="90.8" y1="43.8" x2="97" y2="43.8"/>
	<line class="st1" x1="90.8" y1="38.1" x2="97" y2="38.1"/>
	<line class="st1" x1="100.8" y1="49.6" x2="107" y2="49.6"/>
	<line class="st1" x1="100.8" y1="43.8" x2="107" y2="43.8"/>
	<line class="st1" x1="100.8" y1="38.1" x2="107" y2="38.1"/>
	<line class="st1" x1="80.8" y1="49.6" x2="87.1" y2="49.6"/>
	<line class="st1" x1="80.8" y1="43.8" x2="87.1" y2="43.8"/>
	<line class="st1" x1="80.8" y1="38.1" x2="87.1" y2="38.1"/>
	<line class="st1" x1="90.8" y1="31.8" x2="97" y2="31.8"/>
	<line class="st1" x1="100.8" y1="31.8" x2="107" y2="31.8"/>
	<line class="st1" x1="80.8" y1="31.8" x2="87.1" y2="31.8"/>
	<rect x="89.3" y="21.1" width="8.9" height="2.8"/>
	<rect x="89.3" y="21.1" transform="matrix(-1.836970e-16 1 -1 -1.836970e-16 116.2226 -71.1896)" width="8.9" height="2.8"/>
</g>
<g>
	<path class="st2" d="M3.3,53.8c0-9.1,7.4-16.5,16.5-16.5s16.5,7.4,16.5,16.5"/>
	<circle class="st3" cx="19.7" cy="22.9" r="9.9"/>
	<polygon points="23,37.3 16.4,37.3 18.1,42.3 21.4,42.3 	"/>
	<polygon points="16.4,53.8 23,53.8 21.4,43.9 18.1,43.9 	"/>
</g>
<g>
	<path class="st4" d="M162.4,30.8c0.8-0.9,1.3-2.1,1.3-3.4c0-2.8-2.2-5-5-5s-5,2.2-5,5v31.5"/>
	<circle class="st4" cx="167.4" cy="11.6" r="6.3"/>
	<path class="st0" d="M175,58.4l-3.4-13.2c-0.2-1.1,0.2-2.1,0.9-2.9l6.9-7.1l-6-10c-0.9-1.7-1-4.4,1.5-5.8c2.4-1.4,4.7,0.2,5.6,1.8
		l6.1,13c0.7,1.3,0.5,2.9-0.6,3.9l-7.5,7.7l0.7,11.8C179.6,60.7,175.7,61.2,175,58.4z"/>
</g>
<g>
	<path class="st4" d="M242.5,12.1c0,0-4-4.6-11.6-4.2s-16.4,8.9-11.6,25.2c4.8,16.3,23.2,24.4,23.2,24.4"/>
	<g>
		<circle class="st5" cx="242.5" cy="22.9" r="5.5"/>
		<path class="st4" d="M242.5,49.9L242.5,49.9c-2.9,0-5.3-2.4-5.3-5.3V38c0-2.9,2.4-5.3,5.3-5.3h0c2.9,0,5.3,2.4,5.3,5.3v6.7
			C247.8,47.5,245.4,49.9,242.5,49.9z"/>
		<path class="st4" d="M242.5,12.1c0,0,4-4.6,11.6-4.2s16.4,8.9,11.6,25.2c-4.8,16.3-23.2,24.4-23.2,24.4"/>
	</g>
</g>
</svg>
