<svg xmlns="http://www.w3.org/2000/svg" width="1700" height="1468" viewBox="0 0 1700 1468"><defs><style>.a,.b,.h{fill:#fff;}.a,.b,.d,.f,.g,.h{stroke:#9c639c;stroke-linecap:round;stroke-linejoin:round;}.a{stroke-width:1.22px;}.b{stroke-width:1.22px;}.c{fill:#fffde0;}.d{fill:none;}.d,.f,.g,.h{stroke-width:1.22px;}.e{fill:#0ea7c3;}.f{fill:#fff799;}.g{fill:#09c;}</style></defs><rect class="a" x="176.01" y="358.64" width="45.9" height="23.4" transform="translate(-220.89 391.88) rotate(-64.69)"/><polygon class="b" points="198.2 344.6 206.1 341 227.2 351 219.3 354.6 198.2 344.6"/><polygon class="b" points="199.7 396 219.3 354.6 227.2 351 207.6 392.5 199.7 396"/><polygon class="b" points="219.9 344.1 209.8 339.4 215 327.1 225 331.8 219.9 344.1"/><polygon class="b" points="215 327.1 221.1 324.6 231.1 329.3 225 331.8 215 327.1"/><polygon class="b" points="218.6 327.4 221.6 326.2 227.4 328.9 224.4 330.1 218.6 327.4"/><polygon class="b" points="219.9 344.1 225 331.8 231.1 329.3 226 341.6 219.9 344.1"/><rect class="a" x="204.36" y="343.88" width="3.3" height="23.4" transform="translate(-203.51 389.79) rotate(-64.69)"/><rect class="a" x="200.72" y="351.34" width="3.3" height="23.4" transform="translate(-212.33 390.78) rotate(-64.69)"/><rect class="a" x="197.24" y="358.74" width="3.3" height="23.4" transform="translate(-221.02 391.87) rotate(-64.69)"/><rect class="a" x="193.75" y="366.15" width="3.3" height="23.4" transform="translate(-229.72 392.95) rotate(-64.69)"/><rect class="a" x="190.22" y="373.65" width="3.3" height="23.4" transform="translate(-238.52 394.06) rotate(-64.69)"/><polygon class="b" points="215.8 362.1 223.5 358.8 224.9 355.8 217.2 359.1 215.8 362.1"/><polygon class="b" points="212.3 369.5 220 366.3 221.4 363.3 213.7 366.5 212.3 369.5"/><polygon class="b" points="208.8 376.9 216.5 373.7 217.9 370.7 210.2 373.9 208.8 376.9"/><polygon class="b" points="205.2 384.4 213 381.1 214.4 378.1 206.7 381.4 205.2 384.4"/><polygon class="b" points="201.7 391.8 209.4 388.6 210.9 385.6 203.1 388.8 201.7 391.8"/><path class="c" d="M381.76,561.14c-1.14.43-1.09-.14-2.2-.67s-.92-.89-2-1.41-1.08-.58-2.19-1.1-1.29-.12-2.39-.64-1-.74-2.1-1.26-1.14-.45-2.24-1-1.19-.34-2.3-.86-1.07-.58-2.17-1.11-1-.73-2.11-1.26-1-.65-2.15-1.17l-2.2-1.05c-1.11-.52-1.22-.28-2.32-.8s-1.15-.43-2.26-1-1-.79-2.07-1.31-1.12-.5-2.22-1-1.18-.37-2.28-.89-1.05-.64-2.16-1.17-1.23-.25-2.34-.78-1.08-.57-2.19-1.09-1.8,0-2.2-1.14.32-1.26.86-2.39.69-1.05,1.23-2.17.81-1,1.34-2.12.2-1.29.73-2.42.94-.93,1.47-2.06.38-1.2.91-2.33.7-1,1.23-2.18.47-1.15,1-2.28.09-1.34.63-2.47.52-1.13,1.05-2.26.89-.95,1.43-2.08.49-1.15,1-2.28.36-1.21.89-2.34.58-1.1,1.11-2.23.54-1.13,1.07-2.25.69-1.05,1.23-2.17.24-1.27.77-2.39.61-1.09,1.14-2.22.58-1.11,1.12-2.24.81-1,1.35-2.11,0-1.37.56-2.49.62-1.09,1.15-2.22.59-1.1,1.13-2.23.9-.95,1.43-2.08.35-1.22.88-2.35.36-1.21.9-2.34.69-1.05,1.22-2.18.7-1.05,1.23-2.18.2-1.29.73-2.42.79-1,1.32-2.13.34-1.22.87-2.35.54-1.13,1.07-2.26.78-1,1.31-2.15.46-1.16,1-2.29.21-1.29.75-2.42.14-1.71,1.32-2.15,1.16.4,2.26.92,1.17.39,2.27.91l2.21,1c1.1.52,1,.69,2.13,1.21s1.14.43,2.24.95,1,.84,2.06,1.37,1.19.34,2.29.86,1.16.4,2.27.92,1,.73,2.1,1.25,1.19.35,2.29.87,1,.75,2.11,1.27,1.25.2,2.35.73,1,.74,2.11,1.26,1,.8,2.07,1.32,1.3.11,2.41.63.9.95,2,1.47,1.21.32,2.31.85l2.21,1c1.11.53,1,.7,2.14,1.23s2-.39,2.42.77-.56,1.19-1.09,2.32-.74,1-1.27,2.16-.35,1.21-.89,2.34-.64,1.07-1.17,2.2-.22,1.28-.75,2.4-.65,1.08-1.18,2.2-.45,1.17-1,2.3-.67,1.06-1.2,2.19-.66,1.07-1.19,2.2-.58,1.1-1.11,2.23-.35,1.21-.89,2.34-.62,1.09-1.15,2.21-.28,1.25-.82,2.38-1,.89-1.57,2-.5,1.14-1,2.26-.15,1.31-.69,2.43-1,.92-1.5,2.05,0,1.37-.54,2.5-.88,1-1.41,2.09-.38,1.2-.91,2.33-.36,1.21-.9,2.33-.73,1-1.27,2.16-.6,1.1-1.14,2.22-.59,1.11-1.12,2.24-.64,1.07-1.17,2.2-.1,1.34-.64,2.46-.78,1-1.31,2.14-.48,1.16-1,2.29-.54,1.12-1.08,2.25-.4,1.19-.94,2.32-.83,1-1.36,2.11-.32,1.24-.85,2.37-.69,1-1.22,2.18-.24,1.28-.77,2.41-1.27.86-1.59,2.07S382.94,560.7,381.76,561.14Z"/><path class="d" d="M381.76,561.14c-1.14.43-1.09-.14-2.2-.67s-.92-.89-2-1.41-1.08-.58-2.19-1.1-1.29-.12-2.39-.64-1-.74-2.1-1.26-1.14-.45-2.24-1-1.19-.34-2.3-.86-1.07-.58-2.17-1.11-1-.73-2.11-1.26-1-.65-2.15-1.17l-2.2-1.05c-1.11-.52-1.22-.28-2.32-.8s-1.15-.43-2.26-1-1-.79-2.07-1.31-1.12-.5-2.22-1-1.18-.37-2.28-.89-1.05-.64-2.16-1.17-1.23-.25-2.34-.78-1.08-.57-2.19-1.09-1.8,0-2.2-1.14.32-1.26.86-2.39.69-1.05,1.23-2.17.81-1,1.34-2.12.2-1.29.73-2.42.94-.93,1.47-2.06.38-1.2.91-2.33.7-1,1.23-2.18.47-1.15,1-2.28.09-1.34.63-2.47.52-1.13,1.05-2.26.89-.95,1.43-2.08.49-1.15,1-2.28.36-1.21.89-2.34.58-1.1,1.11-2.23.54-1.13,1.07-2.25.69-1.05,1.23-2.17.24-1.27.77-2.39.61-1.09,1.14-2.22.58-1.11,1.12-2.24.81-1,1.35-2.11,0-1.37.56-2.49.62-1.09,1.15-2.22.59-1.1,1.13-2.23.9-.95,1.43-2.08.35-1.22.88-2.35.36-1.21.9-2.34.69-1.05,1.22-2.18.7-1.05,1.23-2.18.2-1.29.73-2.42.79-1,1.32-2.13.34-1.22.87-2.35.54-1.13,1.07-2.26.78-1,1.31-2.15.46-1.16,1-2.29.21-1.29.75-2.42.14-1.71,1.32-2.15,1.16.4,2.26.92,1.17.39,2.27.91l2.21,1c1.1.52,1,.69,2.13,1.21s1.14.43,2.24.95,1,.84,2.06,1.37,1.19.34,2.29.86,1.16.4,2.27.92,1,.73,2.1,1.25,1.19.35,2.29.87,1,.75,2.11,1.27,1.25.2,2.35.73,1,.74,2.11,1.26,1,.8,2.07,1.32,1.3.11,2.41.63.9.95,2,1.47,1.21.32,2.31.85l2.21,1c1.11.53,1,.7,2.14,1.23s2-.39,2.42.77-.56,1.19-1.09,2.32-.74,1-1.27,2.16-.35,1.21-.89,2.34-.64,1.07-1.17,2.2-.22,1.28-.75,2.4-.65,1.08-1.18,2.2-.45,1.17-1,2.3-.67,1.06-1.2,2.19-.66,1.07-1.19,2.2-.58,1.1-1.11,2.23-.35,1.21-.89,2.34-.62,1.09-1.15,2.21-.28,1.25-.82,2.38-1,.89-1.57,2-.5,1.14-1,2.26-.15,1.31-.69,2.43-1,.92-1.5,2.05,0,1.37-.54,2.5-.88,1-1.41,2.09-.38,1.2-.91,2.33-.36,1.21-.9,2.33-.73,1-1.27,2.16-.6,1.1-1.14,2.22-.59,1.11-1.12,2.24-.64,1.07-1.17,2.2-.1,1.34-.64,2.46-.78,1-1.31,2.14-.48,1.16-1,2.29-.54,1.12-1.08,2.25-.4,1.19-.94,2.32-.83,1-1.36,2.11-.32,1.24-.85,2.37-.69,1-1.22,2.18-.24,1.28-.77,2.41-1.27.86-1.59,2.07S382.94,560.7,381.76,561.14Z"/><path class="e" d="M381.64,561.53c-.82-.94.92-1.22,1.45-2.34s.32-1.23.86-2.36.31-1.23.84-2.36l1.08-2.25c.53-1.12,1-.89,1.55-2s.38-1.2.91-2.33.27-1.25.81-2.38.73-1,1.27-2.16.39-1.19.92-2.31.7-1,1.24-2.18.26-1.26.79-2.38.58-1.11,1.11-2.24.84-1,1.37-2.11.22-1.28.75-2.4.78-1,1.31-2.14.68-1.06,1.21-2.18.27-1.25.8-2.38.68-1.06,1.21-2.19.52-1.13,1.05-2.26.4-1.19.93-2.32.56-1.11,1.09-2.24.34-1.22.88-2.35,1-.92,1.5-2,.23-1.27.76-2.4.85-1,1.38-2.1.23-1.28.76-2.41.75-1,1.29-2.15.59-1.1,1.13-2.23.26-1.26.79-2.39.52-1.13,1.05-2.26.39-1.2.92-2.32.56-1.13,1.09-2.25.72-1,1.25-2.18.65-1.08,1.18-2.21.49-1.15,1-2.28.16-1.39,1.06-2.26,1.19-.26,2.31-.72,1-.76,2.11-1.22,1.08-.55,2.19-1l2.25-.9c1.12-.45,1.1-.49,2.22-.94s1.17-.31,2.29-.76,1.18-.32,2.29-.77,1.13-.43,2.26-.88,1.18-.31,2.3-.76,1.06-.59,2.19-1l2.24-.89c1.13-.46,1.35-1.81,2.15-.9s-.43,1.07-1,2.19-.81,1-1.34,2.13-.46,1.17-1,2.29-.37,1.21-.9,2.33-.63,1.09-1.16,2.21-.4,1.19-.93,2.32-.65,1.07-1.19,2.2-.59,1.1-1.12,2.23-.5,1.14-1,2.27-.42,1.17-1,2.3-.36,1.21-.89,2.34-.73,1-1.26,2.16-.56,1.12-1.09,2.24-.73,1-1.26,2.17-.38,1.2-.91,2.32-.4,1.19-.93,2.32-.65,1.07-1.18,2.2-.66,1.06-1.2,2.19-.49,1.15-1,2.27-.31,1.23-.85,2.36-.67,1.06-1.2,2.19-.52,1.13-1.05,2.26-.49,1.15-1,2.28-.63,1.08-1.16,2.21-.34,1.22-.87,2.35-.46,1.16-1,2.29-.67,1.07-1.2,2.2-.47,1.15-1,2.28-.73,1-1.26,2.17-.24,1.26-.77,2.39-.56,1.12-1.09,2.25-.64,1.08-1.17,2.21-.63,1.09-1.16,2.22-.46,1.16-1,2.29-.72,1-1.26,2.18-.13,1.34-1,2.21a4.21,4.21,0,0,1-2,1.21c-1.12.46-1.19.26-2.31.71s-1.08.56-2.2,1-1.08.55-2.2,1-1.1.51-2.22,1-1.14.4-2.25.85-1.14.41-2.26.86-1.13.43-2.25.88-1.15.38-2.27.83-1.25.15-2.37.6a6.83,6.83,0,0,0-2.25,1C382.79,561.21,382.44,562.44,381.64,561.53Z"/><path class="d" d="M381.64,561.53c-.82-.94.92-1.22,1.45-2.34s.32-1.23.86-2.36.31-1.23.84-2.36l1.08-2.25c.53-1.12,1-.89,1.55-2s.38-1.2.91-2.33.27-1.25.81-2.38.73-1,1.27-2.16.39-1.19.92-2.31.7-1,1.24-2.18.26-1.26.79-2.38.58-1.11,1.11-2.24.84-1,1.37-2.11.22-1.28.75-2.4.78-1,1.31-2.14.68-1.06,1.21-2.18.27-1.25.8-2.38.68-1.06,1.21-2.19.52-1.13,1.05-2.26.4-1.19.93-2.32.56-1.11,1.09-2.24.34-1.22.88-2.35,1-.92,1.5-2,.23-1.27.76-2.4.85-1,1.38-2.1.23-1.28.76-2.41.75-1,1.29-2.15.59-1.1,1.13-2.23.26-1.26.79-2.39.52-1.13,1.05-2.26.39-1.2.92-2.32.56-1.13,1.09-2.25.72-1,1.25-2.18.65-1.08,1.18-2.21.49-1.15,1-2.28.16-1.39,1.06-2.26,1.19-.26,2.31-.72,1-.76,2.11-1.22,1.08-.55,2.19-1l2.25-.9c1.12-.45,1.1-.49,2.22-.94s1.17-.31,2.29-.76,1.18-.32,2.29-.77,1.13-.43,2.26-.88,1.18-.31,2.3-.76,1.06-.59,2.19-1l2.24-.89c1.13-.46,1.35-1.81,2.15-.9s-.43,1.07-1,2.19-.81,1-1.34,2.13-.46,1.17-1,2.29-.37,1.21-.9,2.33-.63,1.09-1.16,2.21-.4,1.19-.93,2.32-.65,1.07-1.19,2.2-.59,1.1-1.12,2.23-.5,1.14-1,2.27-.42,1.17-1,2.3-.36,1.21-.89,2.34-.73,1-1.26,2.16-.56,1.12-1.09,2.24-.73,1-1.26,2.17-.38,1.2-.91,2.32-.4,1.19-.93,2.32-.65,1.07-1.18,2.2-.66,1.06-1.2,2.19-.49,1.15-1,2.27-.31,1.23-.85,2.36-.67,1.06-1.2,2.19-.52,1.13-1.05,2.26-.49,1.15-1,2.28-.63,1.08-1.16,2.21-.34,1.22-.87,2.35-.46,1.16-1,2.29-.67,1.07-1.2,2.2-.47,1.15-1,2.28-.73,1-1.26,2.17-.24,1.26-.77,2.39-.56,1.12-1.09,2.25-.64,1.08-1.17,2.21-.63,1.09-1.16,2.22-.46,1.16-1,2.29-.72,1-1.26,2.18-.13,1.34-1,2.21a4.21,4.21,0,0,1-2,1.21c-1.12.46-1.19.26-2.31.71s-1.08.56-2.2,1-1.08.55-2.2,1-1.1.51-2.22,1-1.14.4-2.25.85-1.14.41-2.26.86-1.13.43-2.25.88-1.15.38-2.27.83-1.25.15-2.37.6a6.83,6.83,0,0,0-2.25,1C382.79,561.21,382.44,562.44,381.64,561.53Z"/><polygon class="f" points="376.09 459.26 420.25 480.14 447.13 469.31 402.98 448.43 376.09 459.26"/><circle class="g" cx="394.91" cy="477.42" r="2.39"/><circle class="g" cx="402.45" cy="480.98" r="2.39"/><circle class="g" cx="409.99" cy="484.55" r="2.39"/><circle class="g" cx="390.81" cy="486.09" r="2.39"/><circle class="g" cx="398.35" cy="489.66" r="2.39"/><circle class="g" cx="405.89" cy="493.22" r="2.39"/><circle class="g" cx="386.71" cy="494.77" r="2.39"/><circle class="g" cx="394.25" cy="498.33" r="2.39"/><circle class="g" cx="401.79" cy="501.9" r="2.39"/><circle class="g" cx="382.61" cy="503.45" r="2.39"/><circle class="g" cx="390.14" cy="507.01" r="2.39"/><circle class="g" cx="397.68" cy="510.57" r="2.39"/><circle class="g" cx="378.5" cy="512.12" r="2.39"/><circle class="g" cx="386.04" cy="515.68" r="2.39"/><circle class="g" cx="393.58" cy="519.25" r="2.39"/><circle class="g" cx="374.4" cy="520.8" r="2.39"/><circle class="g" cx="387.05" cy="473.7" r="2.39"/><circle class="g" cx="382.95" cy="482.38" r="2.39"/><circle class="g" cx="378.85" cy="491.05" r="2.39"/><circle class="g" cx="374.75" cy="499.73" r="2.39"/><circle class="g" cx="370.65" cy="508.4" r="2.39"/><circle class="g" cx="366.54" cy="517.08" r="2.39"/><circle class="g" cx="381.94" cy="524.36" r="2.39"/><circle class="g" cx="389.48" cy="527.92" r="2.39"/><circle class="f" cx="395.43" cy="477.84" r="2.39"/><circle class="f" cx="402.97" cy="481.4" r="2.39"/><circle class="f" cx="410.51" cy="484.97" r="2.39"/><circle class="f" cx="391.33" cy="486.51" r="2.39"/><circle class="f" cx="398.87" cy="490.08" r="2.39"/><circle class="f" cx="406.41" cy="493.64" r="2.39"/><circle class="f" cx="387.23" cy="495.19" r="2.39"/><circle class="f" cx="394.77" cy="498.75" r="2.39"/><circle class="f" cx="402.3" cy="502.32" r="2.39"/><circle class="f" cx="383.12" cy="503.87" r="2.39"/><circle class="f" cx="390.66" cy="507.43" r="2.39"/><circle class="f" cx="398.2" cy="510.99" r="2.39"/><circle class="f" cx="379.02" cy="512.54" r="2.39"/><circle class="f" cx="386.56" cy="516.11" r="2.39"/><circle class="f" cx="394.1" cy="519.67" r="2.39"/><circle class="f" cx="374.92" cy="521.22" r="2.39"/><circle class="f" cx="387.57" cy="474.12" r="2.39"/><circle class="f" cx="383.47" cy="482.8" r="2.39"/><circle class="f" cx="379.37" cy="491.47" r="2.39"/><circle class="f" cx="375.27" cy="500.15" r="2.39"/><circle class="f" cx="371.16" cy="508.82" r="2.39"/><circle class="f" cx="367.06" cy="517.5" r="2.39"/><circle class="g" cx="378.92" cy="470.02" r="2.39"/><circle class="g" cx="374.82" cy="478.7" r="2.39"/><circle class="g" cx="370.72" cy="487.37" r="2.39"/><circle class="g" cx="366.61" cy="496.05" r="2.39"/><circle class="g" cx="362.51" cy="504.72" r="2.39"/><circle class="g" cx="358.41" cy="513.4" r="2.39"/><circle class="f" cx="379.44" cy="470.44" r="2.39"/><circle class="f" cx="375.34" cy="479.12" r="2.39"/><circle class="f" cx="371.23" cy="487.79" r="2.39"/><circle class="f" cx="367.13" cy="496.47" r="2.39"/><circle class="f" cx="363.03" cy="505.14" r="2.39"/><circle class="f" cx="358.93" cy="513.82" r="2.39"/><circle class="f" cx="382.46" cy="524.78" r="2.39"/><circle class="f" cx="390" cy="528.35" r="2.39"/><circle class="g" cx="370.21" cy="529.95" r="2.39"/><circle class="g" cx="362.35" cy="526.24" r="2.39"/><circle class="g" cx="377.75" cy="533.52" r="2.39"/><circle class="g" cx="385.29" cy="537.08" r="2.39"/><circle class="f" cx="370.73" cy="530.37" r="2.39"/><circle class="f" cx="362.87" cy="526.66" r="2.39"/><circle class="g" cx="354.22" cy="522.56" r="2.39"/><circle class="f" cx="354.73" cy="522.98" r="2.39"/><circle class="f" cx="378.27" cy="533.94" r="2.39"/><circle class="f" cx="385.8" cy="537.5" r="2.39"/><circle class="g" cx="366.02" cy="539.11" r="2.39"/><circle class="g" cx="358.16" cy="535.39" r="2.39"/><circle class="g" cx="373.56" cy="542.67" r="2.39"/><circle class="g" cx="381.09" cy="546.24" r="2.39"/><circle class="f" cx="366.54" cy="539.53" r="2.39"/><circle class="f" cx="358.68" cy="535.81" r="2.39"/><circle class="g" cx="350.02" cy="531.71" r="2.39"/><circle class="f" cx="350.54" cy="532.13" r="2.39"/><circle class="f" cx="374.07" cy="543.09" r="2.39"/><circle class="f" cx="381.61" cy="546.66" r="2.39"/><ellipse class="g" cx="423.45" cy="485.67" rx="2.75" ry="1.67" transform="translate(-196.62 660.87) rotate(-64.69)"/><ellipse class="g" cx="418.73" cy="495.64" rx="2.75" ry="1.67" transform="translate(-208.34 662.31) rotate(-64.69)"/><ellipse class="g" cx="414.01" cy="505.62" rx="2.75" ry="1.67" transform="matrix(0.43, -0.9, 0.9, 0.43, -220.06, 663.76)"/><ellipse class="g" cx="409.3" cy="515.6" rx="2.75" ry="1.67" transform="translate(-231.79 665.21) rotate(-64.69)"/><ellipse class="g" cx="404.58" cy="525.58" rx="2.75" ry="1.67" transform="translate(-243.51 666.66) rotate(-64.69)"/><ellipse class="g" cx="429.69" cy="483.51" rx="2.75" ry="1.67" transform="translate(-191.1 665.27) rotate(-64.69)"/><ellipse class="g" cx="424.97" cy="493.48" rx="2.75" ry="1.67" transform="translate(-202.82 666.72) rotate(-64.69)"/><ellipse class="g" cx="420.25" cy="503.46" rx="2.75" ry="1.67" transform="translate(-214.54 668.16) rotate(-64.69)"/><ellipse class="g" cx="415.53" cy="513.44" rx="2.75" ry="1.67" transform="translate(-226.26 669.61) rotate(-64.69)"/><ellipse class="g" cx="410.81" cy="523.42" rx="2.75" ry="1.67" transform="translate(-237.98 671.06) rotate(-64.69)"/><ellipse class="g" cx="435.84" cy="481.41" rx="2.75" ry="1.67" transform="translate(-185.68 669.63) rotate(-64.69)"/><ellipse class="g" cx="431.12" cy="491.39" rx="2.75" ry="1.67" transform="translate(-197.4 671.08) rotate(-64.69)"/><ellipse class="g" cx="426.41" cy="501.37" rx="2.75" ry="1.67" transform="translate(-209.12 672.53) rotate(-64.69)"/><ellipse class="g" cx="421.69" cy="511.35" rx="2.75" ry="1.67" transform="translate(-220.85 673.98) rotate(-64.69)"/><ellipse class="g" cx="416.97" cy="521.33" rx="2.75" ry="1.67" transform="translate(-232.57 675.42) rotate(-64.69)"/><ellipse class="g" cx="399.96" cy="535.76" rx="2.75" ry="1.67" transform="translate(-255.36 668.31) rotate(-64.69)"/><ellipse class="g" cx="406.19" cy="533.6" rx="2.75" ry="1.67" transform="translate(-249.83 672.71) rotate(-64.69)"/><ellipse class="g" cx="412.35" cy="531.51" rx="2.75" ry="1.67" transform="translate(-244.42 677.07) rotate(-64.69)"/><ellipse class="g" cx="394.7" cy="546.53" rx="2.75" ry="1.67" transform="translate(-268.1 669.72) rotate(-64.69)"/><ellipse class="g" cx="400.93" cy="544.37" rx="2.75" ry="1.67" transform="translate(-262.58 674.12) rotate(-64.69)"/><ellipse class="g" cx="407.09" cy="542.28" rx="2.75" ry="1.67" transform="translate(-257.17 678.49) rotate(-64.69)"/><path class="e" d="M438.42,464.94c-1.2.48-1.26.32-2.46.8s-1.21.45-2.41.93-1.17.54-2.37,1-1.15.59-2.35,1.08l-2.39,1c-1.2.49-1.28.27-2.48.76s-1.14.63-2.34,1.11-1.41,1.76-2.44,1,.26-1.25.51-2.46.37-1.18.62-2.39.25-1.21.5-2.41.25-1.22.51-2.42.14-1.24.4-2.45.43-1.17.69-2.38.16-1.23.42-2.43.28-1.21.53-2.42.31-1.2.57-2.4.23-1.22.49-2.43.12-1.24.38-2.45.39-1.18.65-2.38.13-1.24.39-2.45.43-1.17.68-2.38.14-1.24.4-2.45.22-1.22.48-2.43.31-1.2.56-2.42-.71-2.27.53-2.31.2,1.12.53,2.31.48,1.15.81,2.34.25,1.22.58,2.41.46,1.16.79,2.35.13,1.25.46,2.44.35,1.19.68,2.38.35,1.19.68,2.38.51,1.15.84,2.34.1,1.25.43,2.45.57,1.12.9,2.31.09,1.27.42,2.46.55,1.14.88,2.33l.66,2.39c.33,1.2.19,1.23.52,2.43s.44,1.17.77,2.36A.22.22,0,0,1,438.42,464.94Z"/><path class="d" d="M438.42,464.94c-1.2.48-1.26.32-2.46.8s-1.21.45-2.41.93-1.17.54-2.37,1-1.15.59-2.35,1.08l-2.39,1c-1.2.49-1.28.27-2.48.76s-1.14.63-2.34,1.11-1.41,1.76-2.44,1,.26-1.25.51-2.46.37-1.18.62-2.39.25-1.21.5-2.41.25-1.22.51-2.42.14-1.24.4-2.45.43-1.17.69-2.38.16-1.23.42-2.43.28-1.21.53-2.42.31-1.2.57-2.4.23-1.22.49-2.43.12-1.24.38-2.45.39-1.18.65-2.38.13-1.24.39-2.45.43-1.17.68-2.38.14-1.24.4-2.45.22-1.22.48-2.43.31-1.2.56-2.42-.71-2.27.53-2.31.2,1.12.53,2.31.48,1.15.81,2.34.25,1.22.58,2.41.46,1.16.79,2.35.13,1.25.46,2.44.35,1.19.68,2.38.35,1.19.68,2.38.51,1.15.84,2.34.1,1.25.43,2.45.57,1.12.9,2.31.09,1.27.42,2.46.55,1.14.88,2.33l.66,2.39c.33,1.2.19,1.23.52,2.43s.44,1.17.77,2.36A.22.22,0,0,1,438.42,464.94Z"/><polygon class="h" points="387.73 457.66 428.48 429.01 428.48 429.01 419.2 472.55 387.73 457.66"/><path class="c" d="M387.68,457.67c-.11-1.24,1.12-.64,2.14-1.35s1-.79,2-1.51,1.09-.62,2.1-1.34,1-.81,2-1.52l2-1.43c1-.72,1.08-.63,2.1-1.35s.91-.87,1.92-1.58,1.06-.66,2.08-1.38,1.08-.64,2.09-1.35.9-.9,1.92-1.61,1.06-.66,2.08-1.37,1.12-.57,2.14-1.29,1-.79,2-1.51,1-.77,2-1.49l2-1.42c1-.72,1-.7,2.05-1.42s1.07-.65,2.09-1.37,1-.79,2-1.5,1-.7,2.06-1.42,1.07-.65,2.09-1.37l0-.06c-.26,1.2-.41,1.17-.66,2.38s-.23,1.21-.49,2.42-.1,1.24-.36,2.45-.34,1.19-.6,2.4-.3,1.2-.55,2.41-.13,1.23-.39,2.44-.41,1.18-.66,2.39-.19,1.22-.45,2.43-.28,1.21-.53,2.41-.23,1.22-.49,2.43l-.52,2.42c-.26,1.21-.18,1.22-.43,2.43s-.41,1.18-.67,2.39-.19,1.22-.44,2.43-.24,1.22-.49,2.43-.36,1.19-.62,2.4-.34,1.19-.6,2.41.7,1.88-.41,2.43-1.14-.47-2.26-1l-2.25-1c-1.13-.53-1.12-.56-2.24-1.09s-1.11-.55-2.23-1.09-1.08-.62-2.2-1.16-1.2-.37-2.32-.91-1.14-.51-2.26-1-1-.71-2.16-1.24-1.21-.36-2.33-.89-1.14-.5-2.26-1-1.06-.67-2.18-1.2-1.15-.48-2.28-1-1-.95-2.23-1.19S387.79,458.91,387.68,457.67Z"/><path class="d" d="M387.68,457.67c-.11-1.24,1.12-.64,2.14-1.35s1-.79,2-1.51,1.09-.62,2.1-1.34,1-.81,2-1.52l2-1.43c1-.72,1.08-.63,2.1-1.35s.91-.87,1.92-1.58,1.06-.66,2.08-1.38,1.08-.64,2.09-1.35.9-.9,1.92-1.61,1.06-.66,2.08-1.37,1.12-.57,2.14-1.29,1-.79,2-1.51,1-.77,2-1.49l2-1.42c1-.72,1-.7,2.05-1.42s1.07-.65,2.09-1.37,1-.79,2-1.5,1-.7,2.06-1.42,1.07-.65,2.09-1.37l0-.06c-.26,1.2-.41,1.17-.66,2.38s-.23,1.21-.49,2.42-.1,1.24-.36,2.45-.34,1.19-.6,2.4-.3,1.2-.55,2.41-.13,1.23-.39,2.44-.41,1.18-.66,2.39-.19,1.22-.45,2.43-.28,1.21-.53,2.41-.23,1.22-.49,2.43l-.52,2.42c-.26,1.21-.18,1.22-.43,2.43s-.41,1.18-.67,2.39-.19,1.22-.44,2.43-.24,1.22-.49,2.43-.36,1.19-.62,2.4-.34,1.19-.6,2.41.7,1.88-.41,2.43-1.14-.47-2.26-1l-2.25-1c-1.13-.53-1.12-.56-2.24-1.09s-1.11-.55-2.23-1.09-1.08-.62-2.2-1.16-1.2-.37-2.32-.91-1.14-.51-2.26-1-1-.71-2.16-1.24-1.21-.36-2.33-.89-1.14-.5-2.26-1-1.06-.67-2.18-1.2-1.15-.48-2.28-1-1-.95-2.23-1.19S387.79,458.91,387.68,457.67Z"/></svg>