<?xml version="1.0" encoding="UTF-8"?><svg id="uuid-76bba95d-e5ac-4f6c-baac-1651e23bbfca" xmlns="http://www.w3.org/2000/svg" width="1334" height="3623" xmlns:xlink="http://www.w3.org/1999/xlink" viewBox="0 0 1334 3623"><defs><pattern id="uuid-6ebc5402-a774-4505-aa5f-04fc67c1fedd" x="0" y="0" width="127.56" height="127.56" patternTransform="translate(-6912.17 -4771.32) rotate(1.01) scale(.22)" patternUnits="userSpaceOnUse" viewBox="0 0 127.56 127.56"><rect y="0" width="127.56" height="127.56" fill="none" stroke-width="0"/><circle cx="109.79" cy="115.38" r="5.52" fill="#e61673" stroke-width="0"/><circle cx="130.18" cy="117.56" r="5.52" fill="#e61673" stroke-width="0"/><circle cx="109.79" cy="97.22" r="5.52" fill="#e61673" stroke-width="0"/><circle cx="131.15" cy="95.03" r="5.52" fill="#e61673" stroke-width="0"/><circle cx="67.27" cy="115.38" r="5.52" fill="#e61673" stroke-width="0"/><circle cx="87.66" cy="117.56" r="5.52" fill="#e61673" stroke-width="0"/><circle cx="67.27" cy="97.22" r="5.52" fill="#e61673" stroke-width="0"/><circle cx="88.63" cy="95.03" r="5.52" fill="#e61673" stroke-width="0"/><circle cx="24.75" cy="115.38" r="5.52" fill="#e61673" stroke-width="0"/><circle cx="45.14" cy="117.56" r="5.52" fill="#e61673" stroke-width="0"/><circle cx="24.75" cy="97.22" r="5.52" fill="#e61673" stroke-width="0"/><circle cx="46.11" cy="95.03" r="5.52" fill="#e61673" stroke-width="0"/><circle cx="2.62" cy="117.56" r="5.52" fill="#e61673" stroke-width="0"/><circle cx="3.59" cy="95.03" r="5.52" fill="#e61673" stroke-width="0"/><circle cx="95.62" cy="72.86" r="5.52" fill="#e61673" stroke-width="0"/><circle cx="116.01" cy="75.04" r="5.52" fill="#e61673" stroke-width="0"/><circle cx="95.62" cy="54.7" r="5.52" fill="#e61673" stroke-width="0"/><circle cx="116.98" cy="52.51" r="5.52" fill="#e61673" stroke-width="0"/><circle cx="53.1" cy="72.86" r="5.52" fill="#e61673" stroke-width="0"/><circle cx="73.49" cy="75.04" r="5.52" fill="#e61673" stroke-width="0"/><circle cx="53.1" cy="54.7" r="5.52" fill="#e61673" stroke-width="0"/><circle cx="74.46" cy="52.51" r="5.52" fill="#e61673" stroke-width="0"/><circle cx="10.58" cy="72.86" r="5.52" fill="#e61673" stroke-width="0"/><circle cx="30.97" cy="75.04" r="5.52" fill="#e61673" stroke-width="0"/><circle cx="10.58" cy="54.7" r="5.52" fill="#e61673" stroke-width="0"/><circle cx="31.94" cy="52.51" r="5.52" fill="#e61673" stroke-width="0"/><circle cx="123.96" cy="30.34" r="5.52" fill="#e61673" stroke-width="0"/><circle cx="123.96" cy="12.18" r="5.52" fill="#e61673" stroke-width="0"/><circle cx="81.45" cy="30.34" r="5.52" fill="#e61673" stroke-width="0"/><circle cx="101.84" cy="32.52" r="5.52" fill="#e61673" stroke-width="0"/><circle cx="81.45" cy="12.18" r="5.52" fill="#e61673" stroke-width="0"/><circle cx="102.81" cy="9.99" r="5.52" fill="#e61673" stroke-width="0"/><circle cx="38.93" cy="30.34" r="5.52" fill="#e61673" stroke-width="0"/><circle cx="59.32" cy="32.52" r="5.52" fill="#e61673" stroke-width="0"/><circle cx="38.93" cy="12.18" r="5.52" fill="#e61673" stroke-width="0"/><circle cx="60.29" cy="9.99" r="5.52" fill="#e61673" stroke-width="0"/><circle cx="-3.59" cy="30.34" r="5.52" fill="#e61673" stroke-width="0"/><circle cx="16.8" cy="32.52" r="5.52" fill="#e61673" stroke-width="0"/><circle cx="-3.59" cy="12.18" r="5.52" fill="#e61673" stroke-width="0"/><circle cx="17.77" cy="9.99" r="5.52" fill="#e61673" stroke-width="0"/></pattern><pattern id="uuid-9d1f468c-b7ea-42a5-95c4-d8f396fe3f70" patternTransform="translate(-6980.59 -4628.72) rotate(1.01) scale(.22)" xlink:href="#uuid-6ebc5402-a774-4505-aa5f-04fc67c1fedd"/></defs><path d="m384.21,3400.64c-3.5-1.54-7.72-1.96-11.33-.56-4.58,9.08,15,11.63,11.88,1.35-.76-.18-1.23-.48-1.9-.79,1.72.57-.1-1.09,1.35,0Z" fill="#fff799" stroke="#bd771a" stroke-linecap="round" stroke-linejoin="round" stroke-width="1.21"/><path d="m925.57,3094.89c2.58,1.05,6.51,2.86,9,4,17.18,7.88,32.07,18.33,35,37,3.76,23.96-17.2,48.5-9.94,71.64,4.13,13.16,17.12,27.09,30.44,30.62,40.5,10.74,103.67-34.95,115.41-42.19,13.09-8.07,27.73-13.48,40.34-9.27,17.25,5.77,22.12,29.92,13.56,45.97-8.56,16.05-26.65,23.56-42.58,32.35-34.23,18.88-96.23,45.88-173.57,66.32-34.56,9.13-68.44,28.48-83.26,61.01-15.36,33.7-26.64,127.82,21.6,171.56,107,97,242,28,268,14,10.27-5.53,24.49-15.49,30.03-18.73,32.8-19.22,52.53-46.84,74.35-77.53l7.52,2.8c-19.46,30.94-45.94,57.72-76.18,78.11-36.37,24.52-188.72,115.35-305.72,9.35-53.26-48.25-41.42-138.01-26.72-179.34,13.75-38.66,56.62-58.17,96.47-67.93,39.86-9.77,162.12-55.2,193.99-81.05,7.14-5.79,10.37-9.52,13.22-18.26,2.85-8.74.42-22.51-6.71-28.32-12.64-10.3-32.11-3.11-46.18,5.14-20.08,11.77-73.08,57.77-123.59,38.15-15.52-6.03-26.16-22.67-26.84-39.3-.95-22.94,16.94-45.28,10.17-67.21-5.3-17.18-22.39-25.14-39.77-33.04" fill="#fce1b7" stroke="#e61673" stroke-miterlimit="10" stroke-width="1.43"/><path d="m925.57,3094.89c-12.49-5.1-25.32-10.31-32.92-21.15-10.65-15.2-6.2-36.26,1.71-53.05,23.62-50.11,77.47-88.49,126.02-115.18,62.22-34.2,124.03-56.52,194.74-62.96,18.66-1.7,44.81,1.37,62.19,8.38,17.38,7.01,24.29,18.71,27.02,38.08,5.65,5.77,5.29-20.07-11-33.58-9.52-7.9-21.03-13.07-33.12-15.72-29.77-6.53-60.85-2.74-90.68,3.57-62.58,13.24-122.8,37.53-177.05,71.42-44.19,27.6-85.83,63.4-106.06,111.42-5.73,13.61-9.58,29.31-3.89,42.93,6.78,16.24,24.07,23.93,41.08,31.67" fill="#fce1b7" stroke="#e61673" stroke-miterlimit="10" stroke-width="1.43"/><path d="m431.14,336.74C402.95,239.43,273.5,47.88,1.92,8.8l.9-5.58c218.81,30.72,330.72,164.37,364.87,206.15,27.28,33.37,56,86.23,68.24,126.79" fill="#fce1b7" stroke="#e61673" stroke-miterlimit="10" stroke-width="1.33"/><path d="m431.14,336.74c2.93,10.12,4.77,19.22,5.55,27.03,3.35,33.25-2.45,79.52-60.33,108.9-8.26,4.19-22.33,10.84-31.1,14.37-23.25,9.35-48.85,14.57-61.76,40.17-13.64,27.05,9.15,67.93,28.46,103.7,6.51,12.05,16.51,27.59,14.47,42.86-2.05,15.34-21.02,18.49-31.17,19.68l-1.19.14c-19.52,2.28-39.05-1.1-57.94-3.07-26.3-2.76-52.19-3.55-80.14,5.01-43.95,13.46-57.32,39.12-62.39,60.6-8.7,36.88,3.72,78.16,35.71,117.28,2.78,3.4,7.21-1.78,4.79-4.36-32.2-34.31-44.26-77.83-36.29-111.62,6.51-27.57,26.86-47.32,58.84-57.12,26.64-8.16,51.97-5.51,78.78-2.7,19.25,2.02,36.99,4.1,57.23,1.73,0,0,3.34-.14,3.36-.14,11.25-.47,29.8-6.02,34.2-20.31,4.96-16.09-6.25-37.82-13.23-50.76-15.99-29.61-39.75-76.72-28.94-98.16,11.54-22.88,37.41-29.02,59.67-37.97,8.92-3.59,18.14-7.29,26.68-11.63,48.52-24.63,72.4-66.4,67.24-117.63-.79-7.87-2.78-16.87-5.71-26.59" fill="#fce1b7" stroke="#e61673" stroke-miterlimit="10" stroke-width="1.33"/><path d="m905.29,2275.68c-1.14.43-1.1-.14-2.2-.67s-.93-.9-2.03-1.42-1.08-.57-2.18-1.09-1.29-.12-2.39-.64-1-.75-2.1-1.27-1.14-.44-2.25-.96-1.19-.34-2.29-.86-1.07-.59-2.18-1.11-1-.74-2.1-1.26-1.04-.65-2.15-1.17-1.1-.53-2.21-1.05-1.22-.28-2.32-.8-1.15-.43-2.25-.95-.97-.79-2.08-1.31-1.12-.5-2.22-1.02-1.18-.37-2.28-.89-1.05-.64-2.15-1.16-1.23-.26-2.34-.78-1.09-.57-2.19-1.09-1.8.02-2.2-1.14.33-1.26.86-2.38.7-1.05,1.23-2.18.82-.99,1.35-2.12.2-1.29.73-2.41.94-.94,1.47-2.06.38-1.2.91-2.33.7-1.05,1.23-2.18.47-1.16,1-2.28.09-1.34.62-2.46.52-1.13,1.05-2.26.89-.96,1.43-2.08.49-1.15,1.03-2.27.35-1.21.89-2.34.58-1.11,1.11-2.24.54-1.12,1.07-2.25.7-1.05,1.23-2.17.24-1.26.78-2.39.61-1.09,1.14-2.22.58-1.11,1.11-2.23.82-.99,1.35-2.12.04-1.36.57-2.49.61-1.09,1.15-2.22.59-1.1,1.12-2.23.9-.95,1.44-2.08.34-1.22.88-2.35.37-1.21.9-2.34.69-1.05,1.22-2.18.7-1.05,1.23-2.18.2-1.29.73-2.42.79-1.01,1.32-2.13.34-1.22.87-2.35.53-1.13,1.07-2.26.78-1.01,1.31-2.14.46-1.17.99-2.3.21-1.29.74-2.42.15-1.71,1.32-2.15,1.16.4,2.26.93,1.17.39,2.27.91,1.11.51,2.21,1.03,1.02.69,2.12,1.21,1.15.43,2.25.95.95.84,2.06,1.37,1.19.34,2.29.86,1.16.4,2.27.92,1,.73,2.11,1.25,1.19.35,2.29.87,1,.75,2.1,1.27,1.25.21,2.36.73,1,.75,2.1,1.27.97.79,2.08,1.31,1.3.11,2.4.63.9.95,2.01,1.47,1.2.32,2.31.84,1.11.52,2.21,1.04,1.02.7,2.13,1.22,2.02-.38,2.42.77-.56,1.19-1.09,2.32-.73,1.03-1.27,2.16-.35,1.21-.89,2.34-.64,1.08-1.17,2.2-.22,1.28-.75,2.4-.65,1.07-1.18,2.2-.45,1.17-.98,2.3-.67,1.06-1.2,2.19-.66,1.07-1.19,2.2-.57,1.11-1.11,2.24-.35,1.21-.89,2.34-.62,1.08-1.16,2.21-.28,1.25-.81,2.37-1.04.89-1.57,2.02-.5,1.14-1.04,2.27-.15,1.31-.68,2.43-.97.92-1.5,2.05,0,1.38-.54,2.5-.88.96-1.42,2.09-.37,1.2-.91,2.33-.36,1.21-.89,2.34-.74,1.03-1.27,2.16-.61,1.09-1.14,2.22-.59,1.1-1.12,2.23-.64,1.08-1.17,2.21-.1,1.33-.63,2.46-.78,1.01-1.31,2.14-.48,1.16-1.01,2.28-.54,1.13-1.07,2.25-.41,1.19-.94,2.31-.83.99-1.37,2.12-.31,1.23-.85,2.36-.69,1.06-1.22,2.19-.23,1.27-.77,2.4-1.27.87-1.59,2.08.31,1.69-.86,2.13Z" fill="#fffde0" stroke-width="0"/><path d="m905.29,2275.68c-1.14.43-1.1-.14-2.2-.67s-.93-.9-2.03-1.42-1.08-.57-2.18-1.09-1.29-.12-2.39-.64-1-.75-2.1-1.27-1.14-.44-2.25-.96-1.19-.34-2.29-.86-1.07-.59-2.18-1.11-1-.74-2.1-1.26-1.04-.65-2.15-1.17-1.1-.53-2.21-1.05-1.22-.28-2.32-.8-1.15-.43-2.25-.95-.97-.79-2.08-1.31-1.12-.5-2.22-1.02-1.18-.37-2.28-.89-1.05-.64-2.15-1.16-1.23-.26-2.34-.78-1.09-.57-2.19-1.09-1.8.02-2.2-1.14.33-1.26.86-2.38.7-1.05,1.23-2.18.82-.99,1.35-2.12.2-1.29.73-2.41.94-.94,1.47-2.06.38-1.2.91-2.33.7-1.05,1.23-2.18.47-1.16,1-2.28.09-1.34.62-2.46.52-1.13,1.05-2.26.89-.96,1.43-2.08.49-1.15,1.03-2.27.35-1.21.89-2.34.58-1.11,1.11-2.24.54-1.12,1.07-2.25.7-1.05,1.23-2.17.24-1.26.78-2.39.61-1.09,1.14-2.22.58-1.11,1.11-2.23.82-.99,1.35-2.12.04-1.36.57-2.49.61-1.09,1.15-2.22.59-1.1,1.12-2.23.9-.95,1.44-2.08.34-1.22.88-2.35.37-1.21.9-2.34.69-1.05,1.22-2.18.7-1.05,1.23-2.18.2-1.29.73-2.42.79-1.01,1.32-2.13.34-1.22.87-2.35.53-1.13,1.07-2.26.78-1.01,1.31-2.14.46-1.17.99-2.3.21-1.29.74-2.42.15-1.71,1.32-2.15,1.16.4,2.26.93,1.17.39,2.27.91,1.11.51,2.21,1.03,1.02.69,2.12,1.21,1.15.43,2.25.95.95.84,2.06,1.37,1.19.34,2.29.86,1.16.4,2.27.92,1,.73,2.11,1.25,1.19.35,2.29.87,1,.75,2.1,1.27,1.25.21,2.36.73,1,.75,2.1,1.27.97.79,2.08,1.31,1.3.11,2.4.63.9.95,2.01,1.47,1.2.32,2.31.84,1.11.52,2.21,1.04,1.02.7,2.13,1.22,2.02-.38,2.42.77-.56,1.19-1.09,2.32-.73,1.03-1.27,2.16-.35,1.21-.89,2.34-.64,1.08-1.17,2.2-.22,1.28-.75,2.4-.65,1.07-1.18,2.2-.45,1.17-.98,2.3-.67,1.06-1.2,2.19-.66,1.07-1.19,2.2-.57,1.11-1.11,2.24-.35,1.21-.89,2.34-.62,1.08-1.16,2.21-.28,1.25-.81,2.37-1.04.89-1.57,2.02-.5,1.14-1.04,2.27-.15,1.31-.68,2.43-.97.92-1.5,2.05,0,1.38-.54,2.5-.88.96-1.42,2.09-.37,1.2-.91,2.33-.36,1.21-.89,2.34-.74,1.03-1.27,2.16-.61,1.09-1.14,2.22-.59,1.1-1.12,2.23-.64,1.08-1.17,2.21-.1,1.33-.63,2.46-.78,1.01-1.31,2.14-.48,1.16-1.01,2.28-.54,1.13-1.07,2.25-.41,1.19-.94,2.31-.83.99-1.37,2.12-.31,1.23-.85,2.36-.69,1.06-1.22,2.19-.23,1.27-.77,2.4-1.27.87-1.59,2.08.31,1.69-.86,2.13Z" fill="none" stroke="#9c639c" stroke-linecap="round" stroke-linejoin="round" stroke-width="1.22"/><path d="m905.17,2276.07c-.82-.94.92-1.22,1.45-2.35s.32-1.23.86-2.35.31-1.23.85-2.36.54-1.12,1.07-2.25,1.02-.9,1.55-2.02.38-1.2.91-2.33.27-1.25.81-2.38.74-1.03,1.27-2.16.4-1.19.93-2.32.7-1.05,1.23-2.18.26-1.26.8-2.38.58-1.11,1.11-2.23.84-.98,1.37-2.11.22-1.28.75-2.4.78-1.01,1.31-2.14.67-1.06,1.21-2.18.27-1.25.8-2.38.67-1.06,1.21-2.19.52-1.13,1.05-2.26.4-1.19.93-2.32.55-1.12,1.09-2.24.34-1.22.88-2.35.97-.92,1.5-2.05.23-1.27.76-2.4.85-.98,1.39-2.11.22-1.28.76-2.4.75-1.03,1.29-2.15.6-1.1,1.13-2.23.26-1.26.8-2.39.51-1.14,1.05-2.26.39-1.2.92-2.33.55-1.12,1.09-2.25.71-1.04,1.25-2.17.65-1.08,1.18-2.21.49-1.15,1.02-2.29.16-1.39,1.07-2.26,1.18-.26,2.3-.72.99-.77,2.11-1.22,1.08-.55,2.2-1,1.12-.45,2.24-.9,1.1-.49,2.22-.94,1.17-.31,2.29-.76,1.17-.32,2.29-.77,1.13-.43,2.25-.88,1.18-.3,2.3-.75,1.07-.59,2.19-1.04,1.13-.44,2.25-.9,1.34-1.81,2.14-.9-.43,1.07-.96,2.2-.8,1-1.34,2.13-.46,1.16-.99,2.29-.37,1.2-.9,2.33-.63,1.08-1.16,2.21-.4,1.19-.93,2.32-.65,1.07-1.18,2.2-.59,1.1-1.13,2.23-.5,1.14-1.03,2.27-.43,1.18-.96,2.3-.36,1.21-.9,2.34-.72,1.04-1.25,2.17-.56,1.11-1.1,2.24-.73,1.04-1.26,2.16-.38,1.2-.91,2.32-.39,1.19-.92,2.32-.65,1.07-1.18,2.2-.66,1.07-1.2,2.19-.49,1.15-1.03,2.27-.32,1.23-.85,2.35-.68,1.06-1.21,2.19-.51,1.14-1.04,2.27-.49,1.15-1.02,2.28-.63,1.08-1.17,2.21-.33,1.22-.86,2.35-.46,1.16-1,2.29-.67,1.06-1.2,2.19-.48,1.16-1.01,2.29-.73,1.04-1.26,2.16-.24,1.27-.77,2.39-.55,1.12-1.09,2.25-.64,1.08-1.17,2.21-.63,1.09-1.16,2.22-.46,1.16-1,2.3-.72,1.04-1.26,2.18-.14,1.34-1.04,2.21-.92.77-2.04,1.22-1.2.26-2.32.71-1.08.55-2.2,1-1.08.55-2.2,1-1.1.51-2.22.96-1.14.41-2.25.86-1.14.4-2.26.86-1.13.43-2.25.88-1.15.38-2.27.83-1.24.15-2.36.6-1.28.28-2.25,1c-1.2.89-1.55,2.13-2.35,1.22Z" fill="#0ea7c3" stroke-width="0"/><path d="m905.17,2276.07c-.82-.94.92-1.22,1.45-2.35s.32-1.23.86-2.35.31-1.23.85-2.36.54-1.12,1.07-2.25,1.02-.9,1.55-2.02.38-1.2.91-2.33.27-1.25.81-2.38.74-1.03,1.27-2.16.4-1.19.93-2.32.7-1.05,1.23-2.18.26-1.26.8-2.38.58-1.11,1.11-2.23.84-.98,1.37-2.11.22-1.28.75-2.4.78-1.01,1.31-2.14.67-1.06,1.21-2.18.27-1.25.8-2.38.67-1.06,1.21-2.19.52-1.13,1.05-2.26.4-1.19.93-2.32.55-1.12,1.09-2.24.34-1.22.88-2.35.97-.92,1.5-2.05.23-1.27.76-2.4.85-.98,1.39-2.11.22-1.28.76-2.4.75-1.03,1.29-2.15.6-1.1,1.13-2.23.26-1.26.8-2.39.51-1.14,1.05-2.26.39-1.2.92-2.33.55-1.12,1.09-2.25.71-1.04,1.25-2.17.65-1.08,1.18-2.21.49-1.15,1.02-2.29.16-1.39,1.07-2.26,1.18-.26,2.3-.72.99-.77,2.11-1.22,1.08-.55,2.2-1,1.12-.45,2.24-.9,1.1-.49,2.22-.94,1.17-.31,2.29-.76,1.17-.32,2.29-.77,1.13-.43,2.25-.88,1.18-.3,2.3-.75,1.07-.59,2.19-1.04,1.13-.44,2.25-.9,1.34-1.81,2.14-.9-.43,1.07-.96,2.2-.8,1-1.34,2.13-.46,1.16-.99,2.29-.37,1.2-.9,2.33-.63,1.08-1.16,2.21-.4,1.19-.93,2.32-.65,1.07-1.18,2.2-.59,1.1-1.13,2.23-.5,1.14-1.03,2.27-.43,1.18-.96,2.3-.36,1.21-.9,2.34-.72,1.04-1.25,2.17-.56,1.11-1.1,2.24-.73,1.04-1.26,2.16-.38,1.2-.91,2.32-.39,1.19-.92,2.32-.65,1.07-1.18,2.2-.66,1.07-1.2,2.19-.49,1.15-1.03,2.27-.32,1.23-.85,2.35-.68,1.06-1.21,2.19-.51,1.14-1.04,2.27-.49,1.15-1.02,2.28-.63,1.08-1.17,2.21-.33,1.22-.86,2.35-.46,1.16-1,2.29-.67,1.06-1.2,2.19-.48,1.16-1.01,2.29-.73,1.04-1.26,2.16-.24,1.27-.77,2.39-.55,1.12-1.09,2.25-.64,1.08-1.17,2.21-.63,1.09-1.16,2.22-.46,1.16-1,2.3-.72,1.04-1.26,2.18-.14,1.34-1.04,2.21-.92.77-2.04,1.22-1.2.26-2.32.71-1.08.55-2.2,1-1.08.55-2.2,1-1.1.51-2.22.96-1.14.41-2.25.86-1.14.4-2.26.86-1.13.43-2.25.88-1.15.38-2.27.83-1.24.15-2.36.6-1.28.28-2.25,1c-1.2.89-1.55,2.13-2.35,1.22Z" fill="none" stroke="#9c639c" stroke-linecap="round" stroke-linejoin="round" stroke-width="1.22"/><polygon points="899.62 2173.8 943.78 2194.68 970.67 2183.85 926.51 2162.97 899.62 2173.8" fill="#fff799" stroke="#9c639c" stroke-linecap="round" stroke-linejoin="round" stroke-width="1.22"/><circle cx="918.44" cy="2191.96" r="2.39" fill="#09c" stroke="#9c639c" stroke-linecap="round" stroke-linejoin="round" stroke-width="1.22"/><circle cx="925.98" cy="2195.52" r="2.39" fill="#09c" stroke="#9c639c" stroke-linecap="round" stroke-linejoin="round" stroke-width="1.22"/><circle cx="933.52" cy="2199.09" r="2.39" fill="#09c" stroke="#9c639c" stroke-linecap="round" stroke-linejoin="round" stroke-width="1.22"/><circle cx="914.34" cy="2200.63" r="2.39" fill="#09c" stroke="#9c639c" stroke-linecap="round" stroke-linejoin="round" stroke-width="1.22"/><circle cx="921.88" cy="2204.2" r="2.39" fill="#09c" stroke="#9c639c" stroke-linecap="round" stroke-linejoin="round" stroke-width="1.22"/><circle cx="929.42" cy="2207.76" r="2.39" fill="#09c" stroke="#9c639c" stroke-linecap="round" stroke-linejoin="round" stroke-width="1.22"/><circle cx="910.24" cy="2209.31" r="2.39" fill="#09c" stroke="#9c639c" stroke-linecap="round" stroke-linejoin="round" stroke-width="1.22"/><circle cx="917.78" cy="2212.87" r="2.39" fill="#09c" stroke="#9c639c" stroke-linecap="round" stroke-linejoin="round" stroke-width="1.22"/><circle cx="925.32" cy="2216.44" r="2.39" fill="#09c" stroke="#9c639c" stroke-linecap="round" stroke-linejoin="round" stroke-width="1.22"/><circle cx="906.14" cy="2217.98" r="2.39" fill="#09c" stroke="#9c639c" stroke-linecap="round" stroke-linejoin="round" stroke-width="1.22"/><circle cx="913.68" cy="2221.55" r="2.39" fill="#09c" stroke="#9c639c" stroke-linecap="round" stroke-linejoin="round" stroke-width="1.22"/><circle cx="921.21" cy="2225.11" r="2.39" fill="#09c" stroke="#9c639c" stroke-linecap="round" stroke-linejoin="round" stroke-width="1.22"/><circle cx="902.04" cy="2226.66" r="2.39" fill="#09c" stroke="#9c639c" stroke-linecap="round" stroke-linejoin="round" stroke-width="1.22"/><circle cx="909.57" cy="2230.22" r="2.39" fill="#09c" stroke="#9c639c" stroke-linecap="round" stroke-linejoin="round" stroke-width="1.22"/><circle cx="917.11" cy="2233.79" r="2.39" fill="#09c" stroke="#9c639c" stroke-linecap="round" stroke-linejoin="round" stroke-width="1.22"/><circle cx="897.93" cy="2235.34" r="2.39" fill="#09c" stroke="#9c639c" stroke-linecap="round" stroke-linejoin="round" stroke-width="1.22"/><circle cx="910.59" cy="2188.24" r="2.39" fill="#09c" stroke="#9c639c" stroke-linecap="round" stroke-linejoin="round" stroke-width="1.22"/><circle cx="906.48" cy="2196.92" r="2.39" fill="#09c" stroke="#9c639c" stroke-linecap="round" stroke-linejoin="round" stroke-width="1.22"/><circle cx="902.38" cy="2205.59" r="2.39" fill="#09c" stroke="#9c639c" stroke-linecap="round" stroke-linejoin="round" stroke-width="1.22"/><circle cx="898.28" cy="2214.27" r="2.39" fill="#09c" stroke="#9c639c" stroke-linecap="round" stroke-linejoin="round" stroke-width="1.22"/><circle cx="894.18" cy="2222.94" r="2.39" fill="#09c" stroke="#9c639c" stroke-linecap="round" stroke-linejoin="round" stroke-width="1.22"/><circle cx="890.07" cy="2231.62" r="2.39" fill="#09c" stroke="#9c639c" stroke-linecap="round" stroke-linejoin="round" stroke-width="1.22"/><circle cx="905.47" cy="2238.9" r="2.39" fill="#09c" stroke="#9c639c" stroke-linecap="round" stroke-linejoin="round" stroke-width="1.22"/><circle cx="913.01" cy="2242.46" r="2.39" fill="#09c" stroke="#9c639c" stroke-linecap="round" stroke-linejoin="round" stroke-width="1.22"/><circle cx="918.96" cy="2192.38" r="2.39" fill="#fff799" stroke="#9c639c" stroke-linecap="round" stroke-linejoin="round" stroke-width="1.22"/><circle cx="926.5" cy="2195.94" r="2.39" fill="#fff799" stroke="#9c639c" stroke-linecap="round" stroke-linejoin="round" stroke-width="1.22"/><circle cx="934.04" cy="2199.51" r="2.39" fill="#fff799" stroke="#9c639c" stroke-linecap="round" stroke-linejoin="round" stroke-width="1.22"/><circle cx="914.86" cy="2201.05" r="2.39" fill="#fff799" stroke="#9c639c" stroke-linecap="round" stroke-linejoin="round" stroke-width="1.22"/><circle cx="922.4" cy="2204.62" r="2.39" fill="#fff799" stroke="#9c639c" stroke-linecap="round" stroke-linejoin="round" stroke-width="1.22"/><circle cx="929.94" cy="2208.18" r="2.39" fill="#fff799" stroke="#9c639c" stroke-linecap="round" stroke-linejoin="round" stroke-width="1.22"/><circle cx="910.76" cy="2209.73" r="2.39" fill="#fff799" stroke="#9c639c" stroke-linecap="round" stroke-linejoin="round" stroke-width="1.22"/><circle cx="918.3" cy="2213.29" r="2.39" fill="#fff799" stroke="#9c639c" stroke-linecap="round" stroke-linejoin="round" stroke-width="1.22"/><circle cx="925.83" cy="2216.86" r="2.39" fill="#fff799" stroke="#9c639c" stroke-linecap="round" stroke-linejoin="round" stroke-width="1.22"/><circle cx="906.66" cy="2218.41" r="2.39" fill="#fff799" stroke="#9c639c" stroke-linecap="round" stroke-linejoin="round" stroke-width="1.22"/><circle cx="914.19" cy="2221.97" r="2.39" fill="#fff799" stroke="#9c639c" stroke-linecap="round" stroke-linejoin="round" stroke-width="1.22"/><circle cx="921.73" cy="2225.53" r="2.39" fill="#fff799" stroke="#9c639c" stroke-linecap="round" stroke-linejoin="round" stroke-width="1.22"/><circle cx="902.55" cy="2227.08" r="2.39" fill="#fff799" stroke="#9c639c" stroke-linecap="round" stroke-linejoin="round" stroke-width="1.22"/><circle cx="910.09" cy="2230.65" r="2.39" fill="#fff799" stroke="#9c639c" stroke-linecap="round" stroke-linejoin="round" stroke-width="1.22"/><circle cx="917.63" cy="2234.21" r="2.39" fill="#fff799" stroke="#9c639c" stroke-linecap="round" stroke-linejoin="round" stroke-width="1.22"/><circle cx="898.45" cy="2235.76" r="2.39" fill="#fff799" stroke="#9c639c" stroke-linecap="round" stroke-linejoin="round" stroke-width="1.22"/><circle cx="911.1" cy="2188.66" r="2.39" fill="#fff799" stroke="#9c639c" stroke-linecap="round" stroke-linejoin="round" stroke-width="1.22"/><circle cx="907" cy="2197.34" r="2.39" fill="#fff799" stroke="#9c639c" stroke-linecap="round" stroke-linejoin="round" stroke-width="1.22"/><circle cx="902.9" cy="2206.01" r="2.39" fill="#fff799" stroke="#9c639c" stroke-linecap="round" stroke-linejoin="round" stroke-width="1.22"/><circle cx="898.8" cy="2214.69" r="2.39" fill="#fff799" stroke="#9c639c" stroke-linecap="round" stroke-linejoin="round" stroke-width="1.22"/><circle cx="894.7" cy="2223.36" r="2.39" fill="#fff799" stroke="#9c639c" stroke-linecap="round" stroke-linejoin="round" stroke-width="1.22"/><circle cx="890.59" cy="2232.04" r="2.39" fill="#fff799" stroke="#9c639c" stroke-linecap="round" stroke-linejoin="round" stroke-width="1.22"/><circle cx="902.45" cy="2184.56" r="2.39" fill="#09c" stroke="#9c639c" stroke-linecap="round" stroke-linejoin="round" stroke-width="1.22"/><circle cx="898.35" cy="2193.24" r="2.39" fill="#09c" stroke="#9c639c" stroke-linecap="round" stroke-linejoin="round" stroke-width="1.22"/><circle cx="894.25" cy="2201.91" r="2.39" fill="#09c" stroke="#9c639c" stroke-linecap="round" stroke-linejoin="round" stroke-width="1.22"/><circle cx="890.14" cy="2210.59" r="2.39" fill="#09c" stroke="#9c639c" stroke-linecap="round" stroke-linejoin="round" stroke-width="1.22"/><circle cx="886.04" cy="2219.26" r="2.39" fill="#09c" stroke="#9c639c" stroke-linecap="round" stroke-linejoin="round" stroke-width="1.22"/><circle cx="881.94" cy="2227.94" r="2.39" fill="#09c" stroke="#9c639c" stroke-linecap="round" stroke-linejoin="round" stroke-width="1.22"/><circle cx="902.97" cy="2184.98" r="2.39" fill="#fff799" stroke="#9c639c" stroke-linecap="round" stroke-linejoin="round" stroke-width="1.22"/><circle cx="898.87" cy="2193.66" r="2.39" fill="#fff799" stroke="#9c639c" stroke-linecap="round" stroke-linejoin="round" stroke-width="1.22"/><circle cx="894.76" cy="2202.33" r="2.39" fill="#fff799" stroke="#9c639c" stroke-linecap="round" stroke-linejoin="round" stroke-width="1.22"/><circle cx="890.66" cy="2211.01" r="2.39" fill="#fff799" stroke="#9c639c" stroke-linecap="round" stroke-linejoin="round" stroke-width="1.22"/><circle cx="886.56" cy="2219.68" r="2.39" fill="#fff799" stroke="#9c639c" stroke-linecap="round" stroke-linejoin="round" stroke-width="1.22"/><circle cx="882.46" cy="2228.36" r="2.39" fill="#fff799" stroke="#9c639c" stroke-linecap="round" stroke-linejoin="round" stroke-width="1.22"/><circle cx="905.99" cy="2239.32" r="2.39" fill="#fff799" stroke="#9c639c" stroke-linecap="round" stroke-linejoin="round" stroke-width="1.22"/><circle cx="913.53" cy="2242.89" r="2.39" fill="#fff799" stroke="#9c639c" stroke-linecap="round" stroke-linejoin="round" stroke-width="1.22"/><circle cx="893.74" cy="2244.49" r="2.39" fill="#09c" stroke="#9c639c" stroke-linecap="round" stroke-linejoin="round" stroke-width="1.22"/><circle cx="885.88" cy="2240.78" r="2.39" fill="#09c" stroke="#9c639c" stroke-linecap="round" stroke-linejoin="round" stroke-width="1.22"/><circle cx="901.28" cy="2248.06" r="2.39" fill="#09c" stroke="#9c639c" stroke-linecap="round" stroke-linejoin="round" stroke-width="1.22"/><circle cx="908.82" cy="2251.62" r="2.39" fill="#09c" stroke="#9c639c" stroke-linecap="round" stroke-linejoin="round" stroke-width="1.22"/><circle cx="894.26" cy="2244.91" r="2.39" fill="#fff799" stroke="#9c639c" stroke-linecap="round" stroke-linejoin="round" stroke-width="1.22"/><circle cx="886.4" cy="2241.2" r="2.39" fill="#fff799" stroke="#9c639c" stroke-linecap="round" stroke-linejoin="round" stroke-width="1.22"/><circle cx="877.75" cy="2237.1" r="2.39" fill="#09c" stroke="#9c639c" stroke-linecap="round" stroke-linejoin="round" stroke-width="1.22"/><circle cx="878.27" cy="2237.52" r="2.39" fill="#fff799" stroke="#9c639c" stroke-linecap="round" stroke-linejoin="round" stroke-width="1.22"/><circle cx="901.8" cy="2248.48" r="2.39" fill="#fff799" stroke="#9c639c" stroke-linecap="round" stroke-linejoin="round" stroke-width="1.22"/><circle cx="909.34" cy="2252.04" r="2.39" fill="#fff799" stroke="#9c639c" stroke-linecap="round" stroke-linejoin="round" stroke-width="1.22"/><circle cx="889.55" cy="2253.65" r="2.39" fill="#09c" stroke="#9c639c" stroke-linecap="round" stroke-linejoin="round" stroke-width="1.22"/><circle cx="881.69" cy="2249.93" r="2.39" fill="#09c" stroke="#9c639c" stroke-linecap="round" stroke-linejoin="round" stroke-width="1.22"/><circle cx="897.09" cy="2257.21" r="2.39" fill="#09c" stroke="#9c639c" stroke-linecap="round" stroke-linejoin="round" stroke-width="1.22"/><circle cx="904.63" cy="2260.78" r="2.39" fill="#09c" stroke="#9c639c" stroke-linecap="round" stroke-linejoin="round" stroke-width="1.22"/><circle cx="890.07" cy="2254.07" r="2.39" fill="#fff799" stroke="#9c639c" stroke-linecap="round" stroke-linejoin="round" stroke-width="1.22"/><circle cx="882.21" cy="2250.35" r="2.39" fill="#fff799" stroke="#9c639c" stroke-linecap="round" stroke-linejoin="round" stroke-width="1.22"/><circle cx="873.56" cy="2246.25" r="2.39" fill="#09c" stroke="#9c639c" stroke-linecap="round" stroke-linejoin="round" stroke-width="1.22"/><circle cx="874.07" cy="2246.67" r="2.39" fill="#fff799" stroke="#9c639c" stroke-linecap="round" stroke-linejoin="round" stroke-width="1.22"/><circle cx="897.61" cy="2257.63" r="2.39" fill="#fff799" stroke="#9c639c" stroke-linecap="round" stroke-linejoin="round" stroke-width="1.22"/><circle cx="905.14" cy="2261.2" r="2.39" fill="#fff799" stroke="#9c639c" stroke-linecap="round" stroke-linejoin="round" stroke-width="1.22"/><ellipse cx="946.98" cy="2200.21" rx="2.75" ry="1.67" transform="translate(-1446.88 2115.77) rotate(-64.69)" fill="#09c" stroke="#9c639c" stroke-linecap="round" stroke-linejoin="round" stroke-width="1.22"/><ellipse cx="942.26" cy="2210.18" rx="2.75" ry="1.67" transform="translate(-1458.6 2117.22) rotate(-64.69)" fill="#09c" stroke="#9c639c" stroke-linecap="round" stroke-linejoin="round" stroke-width="1.22"/><ellipse cx="937.54" cy="2220.16" rx="2.75" ry="1.67" transform="translate(-1470.32 2118.66) rotate(-64.69)" fill="#09c" stroke="#9c639c" stroke-linecap="round" stroke-linejoin="round" stroke-width="1.22"/><ellipse cx="932.83" cy="2230.14" rx="2.75" ry="1.67" transform="translate(-1482.04 2120.11) rotate(-64.69)" fill="#09c" stroke="#9c639c" stroke-linecap="round" stroke-linejoin="round" stroke-width="1.22"/><ellipse cx="928.11" cy="2240.12" rx="2.75" ry="1.67" transform="translate(-1493.76 2121.56) rotate(-64.69)" fill="#09c" stroke="#9c639c" stroke-linecap="round" stroke-linejoin="round" stroke-width="1.22"/><ellipse cx="953.22" cy="2198.05" rx="2.75" ry="1.67" transform="translate(-1441.35 2120.17) rotate(-64.69)" fill="#09c" stroke="#9c639c" stroke-linecap="round" stroke-linejoin="round" stroke-width="1.22"/><ellipse cx="948.5" cy="2208.02" rx="2.75" ry="1.67" transform="translate(-1453.07 2121.62) rotate(-64.69)" fill="#09c" stroke="#9c639c" stroke-linecap="round" stroke-linejoin="round" stroke-width="1.22"/><ellipse cx="943.78" cy="2218" rx="2.75" ry="1.67" transform="translate(-1464.8 2123.07) rotate(-64.69)" fill="#09c" stroke="#9c639c" stroke-linecap="round" stroke-linejoin="round" stroke-width="1.22"/><ellipse cx="939.06" cy="2227.98" rx="2.75" ry="1.67" transform="translate(-1476.52 2124.51) rotate(-64.69)" fill="#09c" stroke="#9c639c" stroke-linecap="round" stroke-linejoin="round" stroke-width="1.22"/><ellipse cx="934.34" cy="2237.96" rx="2.75" ry="1.67" transform="translate(-1488.24 2125.96) rotate(-64.69)" fill="#09c" stroke="#9c639c" stroke-linecap="round" stroke-linejoin="round" stroke-width="1.22"/><ellipse cx="959.37" cy="2195.95" rx="2.75" ry="1.67" transform="translate(-1435.94 2124.54) rotate(-64.69)" fill="#09c" stroke="#9c639c" stroke-linecap="round" stroke-linejoin="round" stroke-width="1.22"/><ellipse cx="954.66" cy="2205.93" rx="2.75" ry="1.67" transform="translate(-1447.66 2125.98) rotate(-64.69)" fill="#09c" stroke="#9c639c" stroke-linecap="round" stroke-linejoin="round" stroke-width="1.22"/><ellipse cx="949.94" cy="2215.91" rx="2.75" ry="1.67" transform="translate(-1459.38 2127.43) rotate(-64.69)" fill="#09c" stroke="#9c639c" stroke-linecap="round" stroke-linejoin="round" stroke-width="1.22"/><ellipse cx="945.22" cy="2225.89" rx="2.75" ry="1.67" transform="translate(-1471.1 2128.88) rotate(-64.69)" fill="#09c" stroke="#9c639c" stroke-linecap="round" stroke-linejoin="round" stroke-width="1.22"/><ellipse cx="940.5" cy="2235.87" rx="2.75" ry="1.67" transform="translate(-1482.83 2130.33) rotate(-64.69)" fill="#09c" stroke="#9c639c" stroke-linecap="round" stroke-linejoin="round" stroke-width="1.22"/><ellipse cx="923.49" cy="2250.3" rx="2.75" ry="1.67" transform="translate(-1505.61 2123.21) rotate(-64.69)" fill="#09c" stroke="#9c639c" stroke-linecap="round" stroke-linejoin="round" stroke-width="1.22"/><ellipse cx="929.72" cy="2248.14" rx="2.75" ry="1.67" transform="translate(-1500.09 2127.61) rotate(-64.69)" fill="#09c" stroke="#9c639c" stroke-linecap="round" stroke-linejoin="round" stroke-width="1.22"/><ellipse cx="935.88" cy="2246.05" rx="2.75" ry="1.67" transform="translate(-1494.67 2131.98) rotate(-64.69)" fill="#09c" stroke="#9c639c" stroke-linecap="round" stroke-linejoin="round" stroke-width="1.22"/><ellipse cx="918.23" cy="2261.07" rx="2.75" ry="1.67" transform="translate(-1518.36 2124.62) rotate(-64.69)" fill="#09c" stroke="#9c639c" stroke-linecap="round" stroke-linejoin="round" stroke-width="1.22"/><ellipse cx="924.46" cy="2258.91" rx="2.75" ry="1.67" transform="translate(-1512.84 2129.02) rotate(-64.69)" fill="#09c" stroke="#9c639c" stroke-linecap="round" stroke-linejoin="round" stroke-width="1.22"/><ellipse cx="930.62" cy="2256.82" rx="2.75" ry="1.67" transform="translate(-1507.42 2133.39) rotate(-64.69)" fill="#09c" stroke="#9c639c" stroke-linecap="round" stroke-linejoin="round" stroke-width="1.22"/><path d="m961.95,2179.48c-1.2.48-1.26.32-2.46.81s-1.21.44-2.41.92-1.17.54-2.37,1.02-1.15.6-2.35,1.08-1.19.5-2.39.98-1.28.27-2.48.75-1.14.63-2.34,1.11-1.41,1.76-2.44.97.26-1.24.51-2.45.36-1.18.62-2.39.24-1.21.5-2.42.25-1.21.51-2.42.14-1.23.4-2.44.43-1.17.69-2.38.16-1.23.42-2.44.28-1.2.54-2.41.31-1.2.57-2.41.23-1.21.49-2.42.12-1.24.38-2.45.39-1.18.65-2.39.13-1.24.39-2.45.43-1.17.69-2.38.14-1.24.4-2.45.22-1.22.48-2.43.3-1.2.56-2.42-.72-2.27.52-2.31.21,1.11.54,2.31.48,1.15.81,2.34.25,1.22.58,2.41.46,1.16.79,2.35.13,1.25.46,2.44.35,1.19.68,2.38.35,1.19.68,2.38.51,1.15.84,2.34.1,1.25.43,2.45.57,1.13.9,2.32.08,1.26.41,2.46.55,1.13.88,2.33.33,1.19.66,2.39.19,1.23.52,2.43.43,1.17.77,2.36c.02.06-.03.13-.03.13Z" fill="#0ea7c3" stroke-width="0"/><path d="m961.95,2179.48c-1.2.48-1.26.32-2.46.81s-1.21.44-2.41.92-1.17.54-2.37,1.02-1.15.6-2.35,1.08-1.19.5-2.39.98-1.28.27-2.48.75-1.14.63-2.34,1.11-1.41,1.76-2.44.97.26-1.24.51-2.45.36-1.18.62-2.39.24-1.21.5-2.42.25-1.21.51-2.42.14-1.23.4-2.44.43-1.17.69-2.38.16-1.23.42-2.44.28-1.2.54-2.41.31-1.2.57-2.41.23-1.21.49-2.42.12-1.24.38-2.45.39-1.18.65-2.39.13-1.24.39-2.45.43-1.17.69-2.38.14-1.24.4-2.45.22-1.22.48-2.43.3-1.2.56-2.42-.72-2.27.52-2.31.21,1.11.54,2.31.48,1.15.81,2.34.25,1.22.58,2.41.46,1.16.79,2.35.13,1.25.46,2.44.35,1.19.68,2.38.35,1.19.68,2.38.51,1.15.84,2.34.1,1.25.43,2.45.57,1.13.9,2.32.08,1.26.41,2.46.55,1.13.88,2.33.33,1.19.66,2.39.19,1.23.52,2.43.43,1.17.77,2.36c.02.06-.03.13-.03.13Z" fill="none" stroke="#9c639c" stroke-linecap="round" stroke-linejoin="round" stroke-width="1.22"/><polygon points="911.26 2172.2 952.01 2143.55 952.01 2143.55 942.74 2187.09 911.26 2172.2" fill="#fff" stroke="#9c639c" stroke-linecap="round" stroke-linejoin="round" stroke-width="1.22"/><path d="m911.21,2172.21c-.11-1.24,1.12-.64,2.14-1.35s.97-.79,1.98-1.51,1.08-.63,2.1-1.34.95-.81,1.97-1.52,1.02-.71,2.04-1.43,1.08-.63,2.1-1.34.91-.87,1.93-1.59,1.06-.66,2.08-1.38,1.07-.64,2.09-1.35.89-.9,1.91-1.61,1.06-.65,2.08-1.37,1.12-.57,2.14-1.29.96-.79,1.98-1.51.98-.77,1.99-1.49,1.03-.7,2.05-1.42,1.03-.7,2.05-1.42,1.06-.66,2.08-1.37.97-.79,1.99-1.5,1.04-.7,2.06-1.41,1.07-.66,2.09-1.37l.02-.06c-.26,1.21-.4,1.18-.66,2.38s-.23,1.21-.49,2.42-.1,1.24-.36,2.45-.34,1.19-.6,2.4-.3,1.2-.56,2.41-.12,1.24-.38,2.45-.41,1.18-.67,2.38-.19,1.22-.45,2.43-.28,1.2-.53,2.41-.23,1.22-.49,2.43-.26,1.21-.52,2.42-.18,1.22-.43,2.43-.41,1.18-.67,2.39-.19,1.23-.44,2.44-.23,1.22-.49,2.43-.35,1.19-.61,2.4-.35,1.19-.61,2.41.7,1.89-.41,2.44-1.14-.47-2.26-1-1.13-.52-2.25-1.05-1.11-.56-2.23-1.09-1.11-.56-2.24-1.09-1.08-.63-2.2-1.16-1.2-.38-2.32-.91-1.13-.52-2.26-1.05-1.04-.71-2.16-1.24-1.21-.36-2.33-.89-1.14-.51-2.26-1.04-1.06-.68-2.18-1.21-1.15-.47-2.28-1.01-1-.95-2.23-1.19c-1.37-.27-2.22.29-2.33-.95Z" fill="#fffde0" stroke-width="0"/><path d="m911.21,2172.21c-.11-1.24,1.12-.64,2.14-1.35s.97-.79,1.98-1.51,1.08-.63,2.1-1.34.95-.81,1.97-1.52,1.02-.71,2.04-1.43,1.08-.63,2.1-1.34.91-.87,1.93-1.59,1.06-.66,2.08-1.38,1.07-.64,2.09-1.35.89-.9,1.91-1.61,1.06-.65,2.08-1.37,1.12-.57,2.14-1.29.96-.79,1.98-1.51.98-.77,1.99-1.49,1.03-.7,2.05-1.42,1.03-.7,2.05-1.42,1.06-.66,2.08-1.37.97-.79,1.99-1.5,1.04-.7,2.06-1.41,1.07-.66,2.09-1.37l.02-.06c-.26,1.21-.4,1.18-.66,2.38s-.23,1.21-.49,2.42-.1,1.24-.36,2.45-.34,1.19-.6,2.4-.3,1.2-.56,2.41-.12,1.24-.38,2.45-.41,1.18-.67,2.38-.19,1.22-.45,2.43-.28,1.2-.53,2.41-.23,1.22-.49,2.43-.26,1.21-.52,2.42-.18,1.22-.43,2.43-.41,1.18-.67,2.39-.19,1.23-.44,2.44-.23,1.22-.49,2.43-.35,1.19-.61,2.4-.35,1.19-.61,2.41.7,1.89-.41,2.44-1.14-.47-2.26-1-1.13-.52-2.25-1.05-1.11-.56-2.23-1.09-1.11-.56-2.24-1.09-1.08-.63-2.2-1.16-1.2-.38-2.32-.91-1.13-.52-2.26-1.05-1.04-.71-2.16-1.24-1.21-.36-2.33-.89-1.14-.51-2.26-1.04-1.06-.68-2.18-1.21-1.15-.47-2.28-1.01-1-.95-2.23-1.19c-1.37-.27-2.22.29-2.33-.95Z" fill="none" stroke="#9c639c" stroke-linecap="round" stroke-linejoin="round" stroke-width="1.22"/><ellipse cx="386.91" cy="2983.66" rx="7.73" ry="6.46" transform="translate(-2599.08 2615.13) rotate(-75.58)" fill="#fff799" stroke="#da3915" stroke-linecap="round" stroke-linejoin="round" stroke-width="1.26"/><path d="m339.95,3023.36c1.57-2.88,3.66-5.7,6.38-7.59,1.2-.83,2.92-1.85,4.43-1.54,1.52.31,2.64,1.05,2.61,2.36-.04,1.61,1.18.72,1.72-.25,2.41-4.43,6.07-7.1,8.17-5.96,2.1,1.14,1.84,5.66-.58,10.09-1.01,1.85-2.33,3.71-3.97,5.06-.68.56-1.68,1.21-2.65,1.28-1.77.12-1.91-2.07-3.17-1.61-1.42.5-1.39,2.57-1.76,3.78-1.36,4.54-6.74,12.06-12.01,9.18-3.07-1.67-2.69-8.3.85-14.8Z" fill="#fff" stroke="#da3915" stroke-linecap="round" stroke-linejoin="round" stroke-width="1.26"/><path d="m337.43,3021.98c1.57-2.88,3.66-5.7,6.38-7.59,1.2-.83,2.92-1.85,4.43-1.54,1.52.31,2.64,1.05,2.61,2.36-.04,1.61,1.18.72,1.72-.25,2.41-4.43,6.07-7.1,8.17-5.96,2.1,1.14,1.84,5.66-.58,10.09-1.01,1.85-2.33,3.71-3.97,5.06-.68.56-1.68,1.21-2.65,1.28-1.77.12-1.91-2.07-3.17-1.61-1.42.5-1.39,2.57-1.76,3.78-1.36,4.54-6.74,12.06-12.01,9.18-3.07-1.67-2.69-8.3.85-14.8Z" fill="#81cde4" stroke="#da3915" stroke-linecap="round" stroke-linejoin="round" stroke-width="1.26"/><path d="m908.04,317.69c.66,1.83-2.23,8.71-5.77,15.91,2.37-5.51,4-11.28,4.68-17.17.51.31.89.69,1.09,1.26Z" fill="#fffde0" stroke-width="0"/><path d="m907.07,344.12c2.54.6-.86,4.43-1.74,5.37-1.94,2.09-4.26,4.11-6.71,5.97-.97-1.11-1.54-3.74-1.2-5.43,1.6-1.11,3.2-2.26,4.83-3.28.89-.54,3.71-2.91,4.83-2.63Z" fill="#fdf4f7" stroke-width="0"/><path d="m907.1,305.64c.34,3.6.26,7.23-.14,10.8-1.14-.69-3.06-.97-5.43-2.14.66-2.31,1.26-4.66,1.03-7.06-.14-1.71-.91-2.94-.74-4.77.11-1.11,1.89-9.25,4.2-7.2.54.49.37,3.94.54,4.8.37,1.77.37,3.68.54,5.57Z" fill="#fff" stroke-width="0"/><path d="m902.24,333.69c-1.46,3.37-3.17,6.63-5.08,9.74,1.63-2.97,3.43-6.4,5.08-9.74Z" fill="#fff" stroke-width="0"/><path d="m894.62,314.27c.14,5.51-1.94,10.37-2.63,12.54.29-4.6.83-9.14.6-13.8,1.17.31,2.03.74,2.03,1.26Z" fill="#fffbcc" stroke-width="0"/><path d="m892.56,312.1c.03.31.03.63.03.91-1.71-.46-4.17-.66-5.91-.6.43-3.31,1.17-6.6.66-9.94-.31-1.97-1.43-3.37-1.51-5.2-.06-1.26.8-3.68,1.26-4.83.74-1.89,2.14-2.03,2.83-.11.6,1.63.51,3.83.86,5.57.89,4.68,1.46,9.34,1.8,14.2Z" fill="#fff" stroke-width="0"/><path d="m891.99,326.95v.17c-.09.09-.09.03,0-.17Z" fill="#fff" stroke-width="0"/><path d="m876.02,367.05l-3.6,2,.29-.29c1.09-.71,2.23-1.31,3.31-1.71Z" fill="#fffbcc" stroke-width="0"/><path d="m872.71,368.77l-.29.29-.83.49c.34-.29.74-.54,1.11-.77Z" fill="#fff" stroke-width="0"/><path d="m871.6,369.54l.83-.49-5.77,6.37c.86-2.17,2.77-4.26,4.94-5.88Z" fill="#fff" stroke-width="0"/><path d="m869.6,328.95c2.94.06,1.2,7.94.97,9.11-1.57,1.17-3.06,1-3.77.43h-.06c.4-2,1.17-9.54,2.86-9.54Z" fill="#fdf4f7" stroke-width="0"/><path d="m901.53,314.3c-.46-.26-.94-.51-1.43-.8-1-.6-7.4,12.8-8.11,13.62-.09.09-.09.03,0-.17-.03-.03-.03-.09,0-.11v-.03c.29-4.6.83-9.14.6-13.8-1.71-.46-4.17-.66-5.91-.6-.8,0-1.46.09-1.83.2-1.14.34-3.74,12-4.66,15.05-.69,2.31-2.54,6.63-3.4,8.85-1.54,4.06-3.08,7.06-5.37,10.8-.29.49-.89,1.26-1.69,2.23-1.74,2.11-4.46,5.14-6.8,7.57-.37.4-.74.77-1.09,1.14.34-.2.71-.26,1.09.03.57.49.11,1.94.23,2.6.23,1.17,1.31,1.69,1.89,2.69.6,1.03.46,1.97.23,3.08-.17.77-.09,1.43-.06,2.14.74,1.06,1.26,2.23,1.46,3.48l4.91-2.74c.34-.29.74-.54,1.11-.77,1.09-.71,2.23-1.31,3.31-1.71h0c.37-.14.71-.26,1.06-.37,4.37-1.26,8.83-3.2,12.91-5.51,2.86-1.6,5.83-3.57,8.63-5.68v-.03c-.97-1.11-1.54-3.74-1.2-5.43-2.51,1.74-5,3.46-7.68,4.8.74-.89,1.46-1.77,2.2-2.63.77-.91,2.83-4.37,5.23-8.77,1.63-2.97,3.43-6.4,5.08-9.74,0-.03.03-.06.03-.09,2.37-5.51,4-11.28,4.68-17.17-1.14-.69-3.06-.97-5.43-2.14Z" fill="#fffde0" stroke-width="0"/><path d="m870.57,338.06c-.49,2.4-.86,4.71-1,7.14-.09,1.31.09,2.86.17,4.34-1.74,2.11-4.46,5.14-6.8,7.57l-3.34,2.09c-.09,0-.17-.03-.26-.03,1.06-3.63,1.66-7.28,3.26-10.77,1.46-3.2,3.11-6.2,4.08-9.57.03-.09.06-.2.06-.34h.06c.71.57,2.2.74,3.77-.43Z" fill="#fffde0" stroke-width="0"/><path d="m866.77,372.97c.14,2.2-.83,4.63-2.14,6.46-1.8,2.46-3.82,3.51-6.73,3.2-1.09-.14-2.09-.46-3.07-.97-2.51-1.31-3.66-4.88-4.54-7.74,1.11-1.2,2.91-1.86,4.34-1.66,1.11.17,1.46.49,2.57-.11.63-.34,1.26-1.03,1.97-1,1.34.09,1.77,1.66,2.86,1.86.74.11,1.43-.26,2-.83.29.37.51.77.69,1.23l1.97-1.11c.06.23.09.46.09.69Z" fill="#fdf4f7" stroke="#e61673" stroke-linecap="round" stroke-linejoin="round" stroke-width="1.37"/><path d="m865.23,368.8c-.03-.71-.11-1.37.06-2.14.23-1.11.37-2.06-.23-3.08-.57-1-1.66-1.51-1.89-2.69-.11-.66.34-2.11-.23-2.6-.37-.29-.74-.23-1.09-.03-.4.17-.77.51-1.11.69-.49.26-.77.26-1.14.26l-.31.2c.03-.09.06-.14.06-.23h-.29c-1.94-.06-2.94.91-3.8,2.63-.63,1.23-.8,2.6-1.97,3.51-1.09.86-2.49,1.09-3.51,2.09-2.4,2.4-1.77,4.91.23,6.86.09-.11.2-.23.29-.34,1.11-1.2,2.91-1.86,4.34-1.66,1.11.17,1.46.49,2.57-.11.63-.34,1.26-1.03,1.97-1,1.34.09,1.77,1.66,2.86,1.86.74.11,1.43-.26,2-.83.29.37.51.77.69,1.23l1.97-1.11c-.2-1.26-.71-2.43-1.46-3.48Z" fill="#e84383" stroke-width="0"/><path d="m859.6,359.2l-.31.2c.03-.09.06-.14.06-.23.09,0,.17.03.26.03Z" fill="#e84383" stroke-width="0"/><path d="m859.34,359.17c1.06-3.63,1.66-7.28,3.26-10.77,1.46-3.2,3.11-6.2,4.08-9.57.03-.09.06-.2.06-.34.4-2,1.17-9.54,2.86-9.54,2.94.06,1.2,7.94.97,9.11-.49,2.4-.86,4.71-1,7.14-.09,1.31.09,2.86.17,4.34" fill="none" stroke="#e61673" stroke-linecap="round" stroke-linejoin="round" stroke-width="1.37"/><path d="m906.96,316.44c.4-3.57.49-7.2.14-10.8-.17-1.89-.17-3.8-.54-5.57-.17-.86,0-4.31-.54-4.8-2.31-2.06-4.08,6.08-4.2,7.2-.17,1.83.6,3.06.74,4.77.23,2.4-.37,4.74-1.03,7.06" fill="#fdf4f7" stroke="#e61673" stroke-linecap="round" stroke-linejoin="round" stroke-width="1.37"/><path d="m897.16,343.43c1.91-3.11,3.63-6.37,5.08-9.74" fill="none" stroke="#e61673" stroke-linecap="round" stroke-linejoin="round" stroke-width="1.37"/><path d="m891.99,326.95v.17" fill="none" stroke="#e61673" stroke-linecap="round" stroke-linejoin="round" stroke-width="1.37"/><path d="m886.68,312.41c.43-3.31,1.17-6.6.66-9.94-.31-1.97-1.43-3.37-1.51-5.2-.06-1.26.8-3.68,1.26-4.83.74-1.89,2.14-2.03,2.83-.11.6,1.63.51,3.83.86,5.57.89,4.68,1.46,9.34,1.8,14.2.03.31.03.63.03.91" fill="#fdf4f7" stroke="#e61673" stroke-linecap="round" stroke-linejoin="round" stroke-width="1.37"/><path d="m889.73,354.83c.74-.89,1.46-1.77,2.2-2.63.77-.91,2.83-4.37,5.23-8.77,1.63-2.97,3.43-6.4,5.08-9.74,0-.03.03-.06.03-.09,3.54-7.2,6.43-14.08,5.77-15.91-.2-.57-.57-.94-1.09-1.26-1.14-.69-3.06-.97-5.43-2.14-.46-.26-.94-.51-1.43-.8-1-.6-7.4,12.8-8.11,13.62-.09.09-.09.03,0-.17-.03-.03-.03-.09,0-.11v-.03c.69-2.17,2.77-7.03,2.63-12.54,0-.51-.86-.94-2.03-1.26-1.71-.46-4.17-.66-5.91-.6-.8,0-1.46.09-1.83.2-1.14.34-3.74,12-4.66,15.05-.69,2.31-2.54,6.63-3.4,8.85-1.54,4.06-3.08,7.06-5.37,10.8-.29.49-.89,1.26-1.69,2.23-1.74,2.11-4.46,5.14-6.8,7.57-.37.4-.74.77-1.09,1.14" fill="none" stroke="#e61673" stroke-linecap="round" stroke-linejoin="round" stroke-width="1.37"/><path d="m898.62,355.46c2.46-1.86,4.77-3.88,6.71-5.97.89-.94,4.28-4.77,1.74-5.37-1.11-.29-3.94,2.09-4.83,2.63-1.63,1.03-3.23,2.17-4.83,3.28-2.51,1.74-5,3.46-7.68,4.8-2.06,1.06-4.2,1.89-6.51,2.37" fill="none" stroke="#e61673" stroke-linecap="round" stroke-linejoin="round" stroke-width="1.37"/><path d="m866.65,375.42c.86-2.17,2.77-4.26,4.94-5.88.34-.29.74-.54,1.11-.77,1.09-.71,2.23-1.31,3.31-1.71.37-.14.71-.26,1.06-.37,4.37-1.26,8.83-3.2,12.91-5.51,2.86-1.6,5.83-3.57,8.63-5.68" fill="none" stroke="#e61673" stroke-linecap="round" stroke-linejoin="round" stroke-width="1.37"/><path d="m850.29,373.91c.82,2.65,1.67,6.04,4.28,7.5,3.03,1.7,7.96.87,10.06-1.99,1.31-1.83,2.29-4.26,2.14-6.46,0-.23-.03-.46-.09-.69-.2-1.26-.71-2.43-1.46-3.48" fill="none" stroke="#e61673" stroke-linecap="round" stroke-linejoin="round" stroke-width="1.37"/><path d="m850.29,373.91c-.09.11-.2.23-.29.34-2-1.94-2.63-4.46-.23-6.86,1.03-1,2.43-1.23,3.51-2.09,1.17-.91,1.34-2.29,1.97-3.51.86-1.71,1.86-2.68,3.8-2.63h.29c.09,0,.17.03.26.03.37,0,.66,0,1.14-.26.34-.17.71-.51,1.11-.69.34-.2.71-.26,1.09.03.57.49.11,1.94.23,2.6.23,1.17,1.31,1.69,1.89,2.68.6,1.03.46,1.97.23,3.08-.17.77-.09,1.43-.06,2.14.03.29.06.54.03.86-.06.74-.51,1.8-1.23,2.51-.57.57-1.26.94-2,.83-1.09-.2-1.51-1.77-2.86-1.86-.71-.03-1.34.66-1.97,1-1.11.6-1.46.29-2.57.11-1.43-.2-3.23.46-4.34,1.66Z" fill="none" stroke="#e61673" stroke-linecap="round" stroke-linejoin="round" stroke-width="1.37"/><path d="m853.69,376.31c.03.09.09.17.14.26" fill="none" stroke="#e61673" stroke-linecap="round" stroke-linejoin="round" stroke-width="1.37"/><path d="m857.31,375.74c.03.09.09.17.14.26" fill="none" stroke="#e61673" stroke-linecap="round" stroke-linejoin="round" stroke-width="1.37"/><path d="m897.42,350.03c-.34,1.69.23,4.31,1.2,5.43v.03" fill="none" stroke="#e61673" stroke-linecap="round" stroke-linejoin="round" stroke-width="1.37"/><path d="m866.8,338.49c.71.57,2.2.74,3.77-.43" fill="none" stroke="#e61673" stroke-linecap="round" stroke-linejoin="round" stroke-width="1.37"/><ellipse cx="967.81" cy="167.88" rx="7.73" ry="5.11" transform="translate(165.81 735.01) rotate(-45.11)" fill="#fff" stroke="#da3915" stroke-linecap="round" stroke-linejoin="round" stroke-width="1.26"/><ellipse cx="965.74" cy="165.81" rx="7.73" ry="5.14" transform="translate(166.66 732.93) rotate(-45.11)" fill="#cae5cd" stroke="#d93915" stroke-linecap="round" stroke-linejoin="round" stroke-width="1.26"/><circle cx="978.91" cy="207.22" r="4.46" fill="#d93915" stroke="#da3915" stroke-linecap="round" stroke-linejoin="round" stroke-width="1.26"/><ellipse cx="931.04" cy="301.92" rx="4.25" ry="2.23" transform="translate(235.19 990.23) rotate(-62.65)" fill="#d93915" stroke="#da3915" stroke-linecap="round" stroke-linejoin="round" stroke-width="1.26"/><path d="m1026.8,2762.98c3.91,5.77,1.45,14.27-5.51,18.99-6.96,4.72-15.77,3.88-19.68-1.89-3.91-5.77-1.45-14.27,5.51-18.99,6.96-4.72,15.77-3.88,19.68,1.89Zm-16.4,2.52c-3.42,2.32-4.64,6.51-2.71,9.34,1.93,2.84,6.26,3.25,9.68.93,3.42-2.32,4.64-6.51,2.71-9.34-1.93-2.84-6.26-3.25-9.68-.93Z" fill="#e35450" stroke="#da3915" stroke-linecap="round" stroke-linejoin="round" stroke-width="1.26"/><path d="m1024.44,2759.49c3.91,5.77,1.45,14.27-5.51,18.99-6.96,4.72-15.77,3.88-19.68-1.89-3.91-5.77-1.45-14.27,5.51-18.99,6.96-4.72,15.77-3.88,19.68,1.89Zm-15.54,3.78c-3.42,2.32-4.64,6.51-2.71,9.34,1.93,2.84,6.26,3.25,9.68.93,3.42-2.32,4.64-6.51,2.71-9.34-1.93-2.84-6.26-3.25-9.68-.93Z" fill="#fdd23e" stroke="#da3915" stroke-linecap="round" stroke-linejoin="round" stroke-width="1.26"/><circle cx="1021.04" cy="2877.07" r="7.73" fill="#fff" stroke="#da3915" stroke-linecap="round" stroke-linejoin="round" stroke-width="1.26"/><circle cx="1021.79" cy="2873.14" r="7.73" fill="#fff799" stroke="#da3915" stroke-linecap="round" stroke-linejoin="round" stroke-width="1.26"/><circle cx="942.78" cy="2911.73" r="5.97" fill="#fff" stroke="#da3915" stroke-linecap="round" stroke-linejoin="round" stroke-width=".97"/><circle cx="943.36" cy="2908.7" r="5.97" fill="#d93915" stroke="#da3915" stroke-linecap="round" stroke-linejoin="round" stroke-width=".97"/><path d="m395.43,224.99c4.17.34,7.74,3.49,5.86,9.41-2.63,8.24-7.54,13.84-14.82,18.21-3.08,1.85-7.27,3.7-10.96,3.1-3.44-.54-4.42-3.41-4.23-6.42l.35.02c1.6,6.74,13.1-2.18,15.19-4.28,3.96-3.94,8.51-9.25,9.88-14.64.42-1.65,1.1-4.89-1.28-5.31v-.08Z" fill="#e35450" stroke-width="0"/><path d="m395.43,225.07c2.38.42,1.7,3.66,1.28,5.31-1.38,5.39-5.93,10.7-9.88,14.64-2.09,2.1-13.6,11.02-15.19,4.28l-.35-.02c.09-1.77.57-3.58,1.2-5,3.62-8.24,10.68-16.74,19.75-19.04,1.05-.28,2.13-.35,3.2-.25v.08Zm-9.99,13.2c1.29-1.19,3.59-3.41,3.95-5.18-2.98.31-5.84,3.36-7.68,5.46-.67.78-1.44,1.62-1.87,2.54-.19.4-.36,1.1-.5,1.27l-.1.02s.06,0,.1-.02c2.25-.44,4.48-2.61,6.09-4.09Z" fill="#fff799" stroke-width="0"/><path d="m389.4,233.09c-.37,1.77-2.66,3.99-3.95,5.18-1.61,1.48-3.84,3.65-6.09,4.09.13-.17.31-.87.5-1.27.44-.92,1.2-1.76,1.87-2.54,1.84-2.1,4.7-5.16,7.68-5.46Z" fill="#81cde4" stroke-width="0"/><path d="m379.25,242.38l.1-.02s-.07.05-.1.02Z" fill="#81cde4" stroke-width="0"/><path d="m395.43,224.99c4.17.34,7.74,3.49,5.86,9.41-2.63,8.24-7.54,13.84-14.82,18.21-3.08,1.85-7.27,3.7-10.96,3.1-3.44-.54-4.42-3.41-4.23-6.42.09-1.77.57-3.58,1.2-5,3.62-8.24,10.68-16.74,19.75-19.04,1.05-.28,2.13-.35,3.2-.25Z" fill="none" stroke="#da3915" stroke-linecap="round" stroke-linejoin="round" stroke-width="1.26"/><path d="m379.35,242.36c2.25-.44,4.48-2.61,6.09-4.09,1.29-1.19,3.59-3.41,3.95-5.18-2.98.31-5.84,3.36-7.68,5.46-.67.78-1.44,1.62-1.87,2.54-.19.4-.36,1.1-.5,1.27Z" fill="none" stroke="#da3915" stroke-linecap="round" stroke-linejoin="round" stroke-width="1.26"/><path d="m379.35,242.36s-.07.05-.1.02l.1-.02Z" fill="none" stroke="#da3915" stroke-linecap="round" stroke-linejoin="round" stroke-width="1.26"/><path d="m377.97,242.29c1.85,1.5,4.29-.41,5.6-1.54,2.27-1.98,4.82-4.62,6.03-7.37.65-1.44,1.33-3.09,1.07-4.72" fill="none" stroke="#da3915" stroke-linecap="round" stroke-linejoin="round" stroke-width="1.26"/><path d="m371.63,249.3c1.6,6.74,13.1-2.18,15.19-4.28,3.96-3.94,8.51-9.25,9.88-14.64.42-1.65,1.1-4.89-1.28-5.31" fill="none" stroke="#da3915" stroke-linecap="round" stroke-linejoin="round" stroke-width="1.26"/><polygon points="945.32 1290.25 931.08 1298.17 914.79 1298.24 900.87 1289.81 892.69 1275.76 892.76 1259.46 901.18 1245.57 915.23 1237.52 931.47 1237.46 945.37 1245.85 953.5 1259.87 953.25 1276.07 945.32 1290.25" fill="#fdedd4" stroke-width="0"/><polygon points="945.14 1290.07 931.05 1298.05 914.84 1298.06 900.77 1289.9 892.91 1275.71 892.95 1259.51 901 1245.39 915.24 1237.55 931.47 1237.47 945.42 1245.8 953.35 1259.91 953.59 1276.16 945.14 1290.07" fill="url(#uuid-6ebc5402-a774-4505-aa5f-04fc67c1fedd)" stroke-width="0"/><polygon points="945.14 1290.07 931.05 1298.05 914.84 1298.06 900.77 1289.9 892.91 1275.71 892.95 1259.51 901 1245.39 915.24 1237.55 931.47 1237.47 945.42 1245.8 953.35 1259.91 953.59 1276.16 945.14 1290.07" fill="none" stroke="#e61673" stroke-linecap="round" stroke-linejoin="round" stroke-width="1.46"/><polygon points="987.32 3189.25 973.08 3197.17 956.79 3197.24 942.87 3188.81 934.69 3174.76 934.76 3158.46 943.18 3144.57 957.23 3136.52 973.47 3136.46 987.37 3144.85 995.5 3158.87 995.25 3175.07 987.32 3189.25" fill="#fdedd4" stroke-width="0"/><polygon points="987.14 3189.07 973.05 3197.05 956.84 3197.06 942.77 3188.9 934.91 3174.71 934.95 3158.51 943 3144.39 957.24 3136.55 973.47 3136.47 987.42 3144.8 995.35 3158.91 995.59 3175.16 987.14 3189.07" fill="url(#uuid-9d1f468c-b7ea-42a5-95c4-d8f396fe3f70)" stroke-width="0"/><polygon points="987.14 3189.07 973.05 3197.05 956.84 3197.06 942.77 3188.9 934.91 3174.71 934.95 3158.51 943 3144.39 957.24 3136.55 973.47 3136.47 987.42 3144.8 995.35 3158.91 995.59 3175.16 987.14 3189.07" fill="none" stroke="#e61673" stroke-linecap="round" stroke-linejoin="round" stroke-width="1.46"/></svg>