<?xml version="1.0" encoding="utf-8"?>
<!-- Generator: Adobe Illustrator 25.2.1, SVG Export Plug-In . SVG Version: 6.00 Build 0)  -->
<svg version="1.1" id="レイヤー_1" xmlns="http://www.w3.org/2000/svg" xmlns:xlink="http://www.w3.org/1999/xlink" x="0px"
	 y="0px" viewBox="0 0 278 64" style="enable-background:new 0 0 278 64;" xml:space="preserve">
<style type="text/css">
	.st0{fill:none;stroke:#000000;stroke-width:3.0341;stroke-linejoin:round;stroke-miterlimit:10;}
	.st1{fill:none;stroke:#000000;stroke-width:3.0341;stroke-linecap:round;stroke-miterlimit:10;}
	.st2{fill:none;stroke:#000000;stroke-width:3.0341;stroke-miterlimit:10;}
	.st3{fill:none;stroke:#000000;stroke-width:2.9432;stroke-linejoin:round;stroke-miterlimit:10;}
</style>
<g>
	<rect x="154.4" y="14.7" class="st0" width="43" height="32.2"/>
	<path class="st0" d="M154.4,21.8v5.4c0,3,2.4,5.4,5.4,5.4H192c3,0,5.4-2.4,5.4-5.4v-5.4"/>
	<path class="st0" d="M181.2,14.7h-10.7v-3.6c0-1,0.8-1.8,1.8-1.8h7.2c1,0,1.8,0.8,1.8,1.8V14.7z"/>
	<line class="st0" x1="186.6" y1="23.6" x2="186.6" y2="29"/>
	<line class="st0" x1="165.1" y1="23.6" x2="165.1" y2="29"/>
</g>
<g>
	<rect x="19.5" y="43" class="st1" width="9.5" height="6.3"/>
	<path class="st1" d="M36.9,25.7c0-7.5-6.5-13.4-14.1-12.5c-5.7,0.6-10.3,5.2-11,10.9c-0.6,4.5,1.3,8.7,4.4,11.3
		c2.2,1.8,3.4,4.5,3.4,7.3V43H29v-0.4c0-2.9,1.4-5.6,3.6-7.5C35.2,32.8,36.9,29.4,36.9,25.7z"/>
	<line class="st1" x1="41.6" y1="27.2" x2="46.3" y2="27.2"/>
	<line class="st1" x1="2.2" y1="27.2" x2="6.9" y2="27.2"/>
	<line class="st1" x1="36.5" y1="39.5" x2="39.9" y2="42.8"/>
	<line class="st1" x1="7.2" y1="10.2" x2="10.6" y2="13.6"/>
	<line class="st1" x1="12" y1="39.5" x2="8.6" y2="42.8"/>
	<line class="st1" x1="41.1" y1="10.4" x2="37.7" y2="13.7"/>
	<line class="st1" x1="24.2" y1="2.8" x2="24.2" y2="7.5"/>
	<path d="M27.4,50.9c0,1.7-1.4,3.2-3.2,3.2s-3.2-1.4-3.2-3.2H27.4z"/>
</g>
<g>
	<polyline class="st0" points="233,25.6 233,48 257,48 257,32.5 263.9,32.5 263.9,48 270.8,48 270.8,25.6 	"/>
	<rect x="239.8" y="32.5" class="st0" width="10.3" height="8.6"/>
	<path class="st2" d="M269.1,22.2L269.1,22.2c0,1.9,1.5,3.4,3.4,3.4s3.4-1.5,3.4-3.4l-5.2-11h-37.8l-5.1,11c0,1.9,1.5,3.4,3.4,3.4
		c1.9,0,3.4-1.5,3.4-3.4l0,0"/>
	<path class="st2" d="M262.2,22.2c0,1.9,1.5,3.4,3.4,3.4c1.9,0,3.4-1.5,3.4-3.4"/>
	<path class="st2" d="M255.3,22.2c0,1.9,1.5,3.4,3.4,3.4c1.9,0,3.4-1.5,3.4-3.4"/>
	<path class="st2" d="M248.4,22.2c0,1.9,1.5,3.4,3.4,3.4c1.9,0,3.4-1.5,3.4-3.4"/>
	<path class="st2" d="M241.6,22.2c0,1.9,1.5,3.4,3.4,3.4c1.9,0,3.4-1.5,3.4-3.4"/>
	<path class="st2" d="M234.7,22.2c0,1.9,1.5,3.4,3.4,3.4c1.9,0,3.4-1.5,3.4-3.4"/>
</g>
<g>
	<g>
		<path d="M80.2,48c0,0.3-0.2,0.5-0.5,0.5h-4.6c-0.3,0-0.5-0.2-0.5-0.5V30.8c0-0.3,0.2-0.5,0.5-0.5h4.6c0.3,0,0.5,0.2,0.5,0.5V48z"
			/>
	</g>
	<g>
		<path d="M90.4,48c0,0.3-0.2,0.5-0.5,0.5h-4.6c-0.3,0-0.5-0.2-0.5-0.5V33.5c0-0.3,0.2-0.5,0.5-0.5h4.6c0.3,0,0.5,0.2,0.5,0.5V48z"
			/>
	</g>
	<g>
		<path d="M100.6,48c0,0.3-0.2,0.5-0.5,0.5h-4.6c-0.3,0-0.5-0.2-0.5-0.5V26.5c0-0.3,0.2-0.5,0.5-0.5h4.6c0.3,0,0.5,0.2,0.5,0.5V48z"
			/>
	</g>
	<g>
		<path d="M110.7,48c0,0.3-0.2,0.5-0.5,0.5h-4.6c-0.3,0-0.5-0.2-0.5-0.5V20.4c0-0.3,0.2-0.5,0.5-0.5h4.6c0.3,0,0.5,0.2,0.5,0.5V48z"
			/>
	</g>
	<g>
		<path d="M120.9,48c0,0.3-0.2,0.5-0.5,0.5h-4.6c-0.3,0-0.5-0.2-0.5-0.5V15.2c0-0.3,0.2-0.5,0.5-0.5h4.6c0.3,0,0.5,0.2,0.5,0.5V48z"
			/>
	</g>
	<polyline class="st3" points="73.8,21.5 82,16.5 88,23.6 114.4,7.1 	"/>
	<polygon points="111.4,4 119.5,3.7 116.4,11.2 	"/>
</g>
</svg>
