<?xml version="1.0" encoding="UTF-8"?><svg id="uuid-e74946d1-79c5-4548-9a19-46affe2f3047" xmlns="http://www.w3.org/2000/svg" width="599.72mm" height="713.6mm" xmlns:xlink="http://www.w3.org/1999/xlink" viewBox="0 0 1700 2022.8"><defs><pattern id="uuid-3d5f34f7-8e72-4cf7-a280-4fdcabf89337" x="0" y="0" width="127.56" height="127.56" patternTransform="translate(-6822.44 -5431.17) rotate(1.01) scale(.22)" patternUnits="userSpaceOnUse" viewBox="0 0 127.56 127.56"><rect y="0" width="127.56" height="127.56" fill="none" stroke-width="0"/><circle cx="109.79" cy="115.38" r="5.52" fill="#e61673" stroke-width="0"/><circle cx="130.18" cy="117.56" r="5.52" fill="#e61673" stroke-width="0"/><circle cx="109.79" cy="97.22" r="5.52" fill="#e61673" stroke-width="0"/><circle cx="131.15" cy="95.03" r="5.52" fill="#e61673" stroke-width="0"/><circle cx="67.27" cy="115.38" r="5.52" fill="#e61673" stroke-width="0"/><circle cx="87.66" cy="117.56" r="5.52" fill="#e61673" stroke-width="0"/><circle cx="67.27" cy="97.22" r="5.52" fill="#e61673" stroke-width="0"/><circle cx="88.63" cy="95.03" r="5.52" fill="#e61673" stroke-width="0"/><circle cx="24.75" cy="115.38" r="5.52" fill="#e61673" stroke-width="0"/><circle cx="45.14" cy="117.56" r="5.52" fill="#e61673" stroke-width="0"/><circle cx="24.75" cy="97.22" r="5.52" fill="#e61673" stroke-width="0"/><circle cx="46.11" cy="95.03" r="5.52" fill="#e61673" stroke-width="0"/><circle cx="2.62" cy="117.56" r="5.52" fill="#e61673" stroke-width="0"/><circle cx="3.59" cy="95.03" r="5.52" fill="#e61673" stroke-width="0"/><circle cx="95.62" cy="72.86" r="5.52" fill="#e61673" stroke-width="0"/><circle cx="116.01" cy="75.04" r="5.52" fill="#e61673" stroke-width="0"/><circle cx="95.62" cy="54.7" r="5.52" fill="#e61673" stroke-width="0"/><circle cx="116.98" cy="52.51" r="5.52" fill="#e61673" stroke-width="0"/><circle cx="53.1" cy="72.86" r="5.52" fill="#e61673" stroke-width="0"/><circle cx="73.49" cy="75.04" r="5.52" fill="#e61673" stroke-width="0"/><circle cx="53.1" cy="54.7" r="5.52" fill="#e61673" stroke-width="0"/><circle cx="74.46" cy="52.51" r="5.52" fill="#e61673" stroke-width="0"/><circle cx="10.58" cy="72.86" r="5.52" fill="#e61673" stroke-width="0"/><circle cx="30.97" cy="75.04" r="5.52" fill="#e61673" stroke-width="0"/><circle cx="10.58" cy="54.7" r="5.52" fill="#e61673" stroke-width="0"/><circle cx="31.94" cy="52.51" r="5.52" fill="#e61673" stroke-width="0"/><circle cx="123.96" cy="30.34" r="5.52" fill="#e61673" stroke-width="0"/><circle cx="123.96" cy="12.18" r="5.52" fill="#e61673" stroke-width="0"/><circle cx="81.45" cy="30.34" r="5.52" fill="#e61673" stroke-width="0"/><circle cx="101.84" cy="32.52" r="5.52" fill="#e61673" stroke-width="0"/><circle cx="81.45" cy="12.18" r="5.52" fill="#e61673" stroke-width="0"/><circle cx="102.81" cy="9.99" r="5.52" fill="#e61673" stroke-width="0"/><circle cx="38.93" cy="30.34" r="5.52" fill="#e61673" stroke-width="0"/><circle cx="59.32" cy="32.52" r="5.52" fill="#e61673" stroke-width="0"/><circle cx="38.93" cy="12.18" r="5.52" fill="#e61673" stroke-width="0"/><circle cx="60.29" cy="9.99" r="5.52" fill="#e61673" stroke-width="0"/><circle cx="-3.59" cy="30.34" r="5.52" fill="#e61673" stroke-width="0"/><circle cx="16.8" cy="32.52" r="5.52" fill="#e61673" stroke-width="0"/><circle cx="-3.59" cy="12.18" r="5.52" fill="#e61673" stroke-width="0"/><circle cx="17.77" cy="9.99" r="5.52" fill="#e61673" stroke-width="0"/></pattern></defs><path d="m496.8,388C474.6,287.8,345.5,81.5,36.4,9.4l1.6-5.4c249.1,57.3,364.1,203.8,399,249.6,27.9,36.5,55.5,92.6,65.3,134.4" fill="#fce1b7" stroke="#e61673" stroke-miterlimit="10" stroke-width="1.43"/><path d="m496.8,388c2.12,9.06,3.33,18.3,3.6,27.6.4,33.5-11.2,78.8-81,100.9-10,3.2-26.9,8-37.4,10.5-27.8,6.5-57.9,8.5-75.5,32.4-18.6,25.2,3.4,68.7,21.9,106.6,6.2,12.8,16.1,29.5,12.2,44.4s-26.2,15.8-38,15.8h-1.4c-22.8-.1-44.9-5.9-66.5-10.1-30-6-59.8-9.9-92.9-4.8-52.1,8-70.2,31.9-78.3,52.6-13.9,35.6-3.9,78.2,28.8,121,2.8,3.7,8.5-.9,6-3.8-33.5-38-42.8-82.8-30.1-115.4,10.4-26.6,36-43.8,73.9-49.6,31.6-4.9,60.5.9,91.1,6.9,22,4.4,42.2,8.6,65.8,8.7l3.9.3c13,.9,35-2.4,41.6-16,7.4-15.4-3.2-38.4-9.9-52.1-15.3-31.4-37.8-81.1-23-101.1,15.7-21.3,46.2-24.3,72.8-30.5,10.7-2.5,21.7-5,32-8.3,58.5-18.6,90.5-57.2,89.9-108.8-.28-9.14-1.55-18.23-3.8-27.1" fill="#fce1b7" stroke="#e61673" stroke-miterlimit="10" stroke-width="1.43"/><path d="m1097,1375.4l4.8,9.9c5.8,11.8-22.1,37.2-62.3,56.9s-77.4,26.1-83.2,14.3l-4.8-9.9" fill="#f8b500" stroke="#e61673" stroke-linecap="round" stroke-linejoin="round" stroke-width="1.22"/><path d="m1097,1375.4c-4.4-9.1-27.5-7.4-56.2,2.9l-16.6,32.7,56.4-10.4,1.2,1.4c12.2-10.8,18.2-20.5,15.2-26.6Z" fill="#80cce5" stroke-width="0"/><path d="m1081.8,1402l-1.2-1.4-56.4,10.4-2.4,26.7.2.4c4.2-1.8,8.4-3.7,12.7-5.8,19.3-9.5,35.8-20.4,47.1-30.3Z" fill="#33add6" stroke-width="0"/><path d="m1024.3,1411l16.6-32.7c-9.19,3.33-18.2,7.13-27,11.4-40.2,19.7-68.1,45.2-62.3,56.9,5.2,10.5,35.4,6.5,70.5-8.5l-.2-.4,2.4-26.7Z" fill="#fffbcc" stroke-width="0"/><path d="m1081.8,1402c12.1-10.8,18.2-20.5,15.2-26.6-4.4-9.1-27.5-7.4-56.2,2.9-9.19,3.33-18.2,7.13-27,11.4-40.2,19.7-68.1,45.2-62.3,56.9,5.2,10.5,35.4,6.5,70.5-8.5,4.2-1.8,8.4-3.7,12.7-5.8,19.3-9.5,35.8-20.4,47.1-30.3Z" fill="none" stroke="#e61673" stroke-linecap="round" stroke-linejoin="round" stroke-width="1.71"/><polyline points="1021.8 1437.7 1024.3 1411 1080.7 1400.6" fill="none" stroke="#e61673" stroke-linecap="round" stroke-linejoin="round" stroke-width="1.71"/><line x1="1024.3" y1="1411" x2="1040.8" y2="1378.2" fill="none" stroke="#e61673" stroke-linecap="round" stroke-linejoin="round" stroke-width="1.71"/><path d="m1405.25,1489.97c2.58,1.05,6.51,2.86,9,4,17.18,7.88,32.07,18.33,35,37,3.76,23.96-17.2,48.5-9.94,71.64,4.13,13.16,17.12,27.09,30.44,30.62,40.5,10.74,103.67-34.95,115.41-42.19,13.09-8.07,27.73-13.48,40.34-9.27,17.25,5.77,22.12,29.92,13.56,45.97s-26.65,23.56-42.58,32.35c-34.23,18.88-96.23,45.88-173.57,66.32-34.56,9.13-68.44,28.48-83.26,61.01-15.36,33.7-26.64,127.82,21.6,171.56,107,97,242,28,268,14,10.27-5.53,24.49-15.49,30.03-18.73,32.8-19.22,52.53-46.84,74.35-77.53l7.52,2.8c-19.46,30.94-45.94,57.72-76.18,78.11-36.37,24.52-188.72,115.35-305.72,9.35-53.26-48.25-41.42-138.01-26.72-179.34,13.75-38.66,56.62-58.17,96.47-67.93,39.86-9.77,162.12-55.2,193.99-81.05,7.14-5.79,10.37-9.52,13.22-18.26,2.85-8.74.42-22.51-6.71-28.32-12.64-10.3-32.11-3.11-46.18,5.14-20.08,11.77-73.08,57.77-123.59,38.15-15.52-6.03-26.16-22.67-26.84-39.3-.95-22.94,16.94-45.28,10.17-67.21-5.3-17.18-22.39-25.14-39.77-33.04" fill="#fce1b7" stroke="#e61673" stroke-miterlimit="10" stroke-width="1.43"/><path d="m1519.43,1810.7c-1.35-.44-2.83,1.28-2.63,2.52.3,1.9,2.91,1.93,3.94.56.89-1.18.45-3.14-1.31-3.09Z" fill="#fff799" stroke="#e61673" stroke-linecap="round" stroke-linejoin="round" stroke-width=".83"/><path d="m1484.31,1814.07c-4.87,2.93-1.83,9.79,2.53,11.61,5.32,2.22,13-1.21,16.99-4.72,8.16-7.19.06-12.45-7.55-11.24-4.82.77-8.1,2.71-11.97,4.35Z" fill="#fff799" stroke="#bd771a" stroke-linecap="round" stroke-linejoin="round" stroke-width=".83"/><path d="m1501.66,1817.49c-6.72,4.49-19.75,6.05-17.26-5.35,2.07-9.49,8.9-12.05,17.45-12.91,8.62,3.83,7.97,12.81-.19,18.26Zm-2.81-8.13c-2.7-.4-7.98,1.45-7.17,4.67,2.15.02,11.41-2.31,7.17-4.67" fill="#56b879" stroke="#e61673" stroke-linecap="round" stroke-linejoin="round" stroke-width=".83"/><path d="m1433.8,1448.7c-3.07-3.26-7.44,3.64-3.74,5.97,5.39,3.39,4.45-4.09,3.25-6.46" fill="#fff" stroke="#bd771a" stroke-miterlimit="10" stroke-width="1.21"/><path d="m1313.89,1535.72c-3.5-1.54-7.72-1.96-11.33-.56-4.58,9.08,15,11.63,11.88,1.35-.76-.18-1.23-.48-1.9-.79,1.72.57-.1-1.09,1.35,0Z" fill="#fff799" stroke="#bd771a" stroke-linecap="round" stroke-linejoin="round" stroke-width="1.21"/><path d="m1389.56,1507.64c-5.5-7.4-2.72-18.77,6.2-25.41s20.62-6.02,26.12,1.38c5.5,7.4,2.72,18.77-6.2,25.41-8.92,6.63-20.62,6.02-26.12-1.38Zm22.79-2.56c6.21-4.61,8.14-12.52,4.31-17.67-3.82-5.14-11.96-5.57-18.16-.96-6.21,4.61-8.14,12.52-4.31,17.67,3.82,5.14,11.96,5.57,18.16.96Z" fill="#fff" stroke="#da3915" stroke-linecap="round" stroke-linejoin="round" stroke-width="1.26"/><path d="m1387.24,1504.52c-5.5-7.4-2.72-18.77,6.2-25.41s20.62-6.02,26.12,1.38c5.5,7.4,2.72,18.77-6.2,25.41-8.92,6.63-20.62,6.02-26.12-1.38Zm22.12-3.47c6.21-4.61,8.14-12.52,4.31-17.67-3.82-5.14-11.96-5.57-18.16-.96s-8.14,12.52-4.31,17.67c3.82,5.14,11.96,5.57,18.16.96Z" fill="#fff" stroke="#da3915" stroke-linecap="round" stroke-linejoin="round" stroke-width="1.26"/><path d="m1405.25,1489.97c-12.49-5.1-25.32-10.31-32.92-21.15-10.65-15.2-6.2-36.26,1.71-53.05,23.62-50.11,77.47-88.49,126.02-115.18,62.22-34.2,124.03-56.52,194.74-62.96,18.66-1.7,44.81,1.37,62.19,8.38,17.38,7.01,24.29,18.71,27.02,38.08,5.65,5.77,5.29-20.07-11-33.58-9.52-7.9-21.03-13.07-33.12-15.72-29.77-6.53-60.85-2.74-90.68,3.57-62.58,13.24-122.8,37.53-177.05,71.42-44.19,27.6-85.83,63.4-106.06,111.42-5.73,13.61-9.58,29.31-3.89,42.93,6.78,16.24,24.07,23.93,41.08,31.67" fill="#fce1b7" stroke="#e61673" stroke-miterlimit="10" stroke-width="1.43"/><path d="m1447.11,1525.06c1.57-2.88,3.66-5.7,6.38-7.59,1.2-.83,2.92-1.85,4.43-1.54,1.52.31,2.64,1.05,2.61,2.36-.04,1.61,1.18.72,1.72-.25,2.41-4.43,6.07-7.1,8.17-5.96,2.1,1.14,1.84,5.66-.58,10.09-1.01,1.85-2.33,3.71-3.97,5.06-.68.56-1.68,1.21-2.65,1.28-1.77.12-1.91-2.07-3.17-1.61-1.42.5-1.39,2.57-1.76,3.78-1.36,4.54-6.74,12.06-12.01,9.18-3.07-1.67-2.69-8.3.85-14.8Z" fill="#81cde4" stroke="#da3915" stroke-linecap="round" stroke-linejoin="round" stroke-width="1.26"/><path d="m1219.5,1697.42c.07.26.14.49.2.71-2.09,0-3.62,1.66-5.66,1.89l-.39.11c.58,1.99,1.06,3.99,1.68,5.92.57,1.74,2.5,4.83,2.61,1.01,1.15,1.08,2.39,1.73,3.1-.17,1.17.56,2.28,1.4,3.48,1-.97-4.83-3.96-9.46-5.93-14.08-.01-.03-.04-.08-.06-.11l-.07.02c-.1.09-.22.17-.35.24l.07.09c.59.88.96,2.24,1.32,3.37Z" fill="#fffbcc" stroke-width="0"/><path d="m1213.65,1700.13l.39-.11c0-.06.01-.13-.01-.2-.04-1.08-.66-2.06-.99-3.06.92.16,1.57-.74,2.4-1.11.91-.43,2.41-.91,2.75-1.6l-.07-.09c-1.44,1.03-3.46,2.05-5.11,2.34l5.45-2.58.07-.02c-.94-2.23-2.21-4.79-3.71-7.25-2.61.81-5.25.9-7.05-.06l-7.38-8.31c2.23.06,3.14-.82,3.26-2.21-3.27-1.59-7.17-1.16-10.54.35-1.49.64-7.96,4.52-7.1,7.02.81,2.33,3.32-.78,4.5-.8,2.15-.06,1.97,1.13,3.09,2.78,2.52,3.69,5.32,4.04,9.57,4.46,5.4.52,7.7,2.43,9.52,7.38.38,1.03.7,2.05.96,3.08Z" fill="#fffbcc" stroke-width="0"/><path d="m1214.03,1699.82c.02.07.01.14.01.2,2.04-.23,3.57-1.88,5.66-1.89-.06-.22-.13-.46-.2-.71l-1.2.51-4.27,1.89Z" fill="#84ccc9" stroke-width="0"/><path d="m1214.03,1699.82l4.27-1.89c-1.73.66-3.87,1.37-4.27,1.89Z" fill="#fffbcc" stroke-width="0"/><path d="m1214.03,1699.82c.4-.52,2.54-1.23,4.27-1.89l1.2-.51c-.35-1.13-.73-2.48-1.32-3.37-.35.69-1.84,1.16-2.75,1.6-.82.37-1.47,1.27-2.4,1.11.33,1,.95,1.98.99,3.06Z" fill="#84ccc9" stroke-width="0"/><path d="m1218.46,1693.72l-5.45,2.58c1.65-.28,3.67-1.3,5.11-2.34.12-.08.25-.16.35-.24Z" fill="#fffbcc" stroke-width="0"/><path d="m1207.77,1686.38c1.8.96,4.44.87,7.05.06-2.18-3.47-4.88-6.69-8.04-8.28l-2.37-1.89c-.26-.16-.52-.29-.77-.41-.12,1.39-1.03,2.27-3.26,2.21l7.38,8.31Z" fill="#fffbcc" stroke-width="0"/><path d="m1221.78,1682.37c.13.07-.17-1.31-.23-1.65-.23-1.15-.54-2.31-.8-3.44-1.54-6.63-4.36-12.54-8.13-18.17-1.41-2.13-2.96-4.08-4.6-6.02-.99-1.14-1.92-2.67-3.09-3.62l-.12-.09c-.21.31-.41.6-.63.91-2.25,3.36-5.23,8.57-5.1,12.79.05,2.17,4.94,9.18,4.57,12.78.24.12.51.26.77.41l2.37,1.89c3.16,1.59,5.85,4.81,8.04,8.28,2.66-.75,5.29-2.27,6.99-4.03l-.03-.04Z" fill="#fffbcc" stroke-width="0"/><path d="m1221.78,1682.37l.03.04c.7-.73,1.22-1.48,1.55-2.26.39-.89-.15-1.97.06-2.5.28-.72,1.36-2.04,1.64-2.88.73-2.06,2.47-4.02-.48-4.92.62-1.67,1.8-3.02,2.61-4.57-.68-.04-1.81-.88-2.51-.93,1.46-3.5,1.45-4.87-2.03-5.65.55-1.15,1.03-2.38,1.27-3.63.24-1.36-1.25-2.39-2.48-1.72-.95.5-1.87,1.06-2.8,1.02.21-2.4,2.2-5.08,2.55-7.5.16-.98-.72-1.84-1.71-1.7-2.19.26-1.73.38-4.76,1.81,1.49-5.72,5.38-15.77-.36-15.01-1.59,2.38-1.86,5.31-3.14,7.84-1.69,3.41-4.24,6.42-6.43,9.56l.12.09c1.17.95,2.1,2.48,3.09,3.62,1.64,1.94,3.2,3.89,4.6,6.02,3.77,5.63,6.59,11.54,8.13,18.17.26,1.14.57,2.29.8,3.44.05.33.36,1.72.23,1.65Z" fill="#84ccc9" stroke-width="0"/><path d="m1203.65,1675.86c-3.27-1.59-7.17-1.16-10.54.35-1.49.64-7.96,4.52-7.1,7.02.81,2.33,3.32-.78,4.5-.8,2.15-.06,1.97,1.13,3.09,2.78,2.52,3.69,5.32,4.04,9.57,4.46,5.4.52,7.7,2.43,9.52,7.38.38,1.03.7,2.05.96,3.08.58,1.99,1.06,3.99,1.68,5.92.57,1.74,2.5,4.83,2.61,1.01,1.15,1.08,2.39,1.73,3.1-.17,1.17.56,2.28,1.4,3.48,1-.97-4.83-3.96-9.46-5.93-14.08-.01-.03-.04-.08-.06-.11-.94-2.23-2.21-4.79-3.71-7.25" fill="none" stroke="#e61673" stroke-linecap="round" stroke-linejoin="round" stroke-width="1.7"/><path d="m1200.39,1678.07c2.23.06,3.14-.82,3.26-2.21.37-3.61-4.52-10.61-4.57-12.78-.13-4.22,2.85-9.43,5.1-12.79.21-.31.41-.6.63-.91,2.19-3.13,4.74-6.14,6.43-9.56,1.28-2.53,1.55-5.46,3.14-7.84,5.74-.76,1.85,9.29.36,15.01,3.03-1.43,2.56-1.55,4.76-1.81.99-.14,1.87.72,1.71,1.7-.35,2.41-2.34,5.09-2.55,7.5.92.05,1.85-.52,2.8-1.02,1.23-.66,2.72.36,2.48,1.72-.24,1.25-.72,2.48-1.27,3.63,3.48.78,3.49,2.15,2.03,5.65.7.05,1.83.9,2.51.93-.81,1.55-1.99,2.9-2.61,4.57,2.95.9,1.21,2.86.48,4.92-.28.83-1.36,2.16-1.64,2.88-.21.53.33,1.62-.06,2.5-.34.78-.85,1.52-1.55,2.26-1.7,1.77-4.33,3.28-6.99,4.03-2.61.81-5.25.9-7.05-.06" fill="none" stroke="#e61673" stroke-linecap="round" stroke-linejoin="round" stroke-width="1.7"/><path d="m1218.46,1693.72c-.1.09-.22.17-.35.24-1.44,1.03-3.46,2.05-5.11,2.34" fill="none" stroke="#e61673" stroke-linecap="round" stroke-linejoin="round" stroke-width="1.7"/><path d="m1218.3,1697.92c-1.73.66-3.87,1.37-4.27,1.89" fill="none" stroke="#e61673" stroke-linecap="round" stroke-linejoin="round" stroke-width="1.7"/><polyline points="1218.3 1697.92 1219.5 1697.42 1219.82 1697.27" fill="none" stroke="#e61673" stroke-linecap="round" stroke-linejoin="round" stroke-width="1.7"/><path d="m1191.03,1679.57c.03.1.09.16.16.19" fill="none" stroke="#e61673" stroke-linecap="round" stroke-linejoin="round" stroke-width="1.7"/><path d="m1211.6,1649.71c.21,1.14-.93,2.12-1.66,2.85" fill="none" stroke="#e61673" stroke-linecap="round" stroke-linejoin="round" stroke-width="1.7"/><path d="m1214.52,1652.43c.61,1.34-.5,2.65-1.5,3.42" fill="none" stroke="#e61673" stroke-linecap="round" stroke-linejoin="round" stroke-width="1.7"/><path d="m1218.16,1657.39c.14.71.16,1.5-.27,2.15-.29.41-.99.7-1.08.99" fill="none" stroke="#e61673" stroke-linecap="round" stroke-linejoin="round" stroke-width="1.7"/><path d="m1220.63,1662.11c.55.95-.47,2.66-1.22,3.31" fill="none" stroke="#e61673" stroke-linecap="round" stroke-linejoin="round" stroke-width="1.7"/><path d="m1221.81,1668.48c.27.8-.44,1.31-.77,2.04" fill="none" stroke="#e61673" stroke-linecap="round" stroke-linejoin="round" stroke-width="1.7"/><path d="m1222.58,1672.91c-.08.32-.28.5-.59.51" fill="none" stroke="#e61673" stroke-linecap="round" stroke-linejoin="round" stroke-width="1.7"/><path d="m1204.92,1649.47c1.17.95,2.1,2.48,3.09,3.62,1.64,1.94,3.2,3.89,4.6,6.02,3.77,5.63,6.59,11.54,8.13,18.17.26,1.14.57,2.29.8,3.44.05.33.36,1.72.23,1.65,0,0,.01-.02-.01-.03" fill="none" stroke="#e61673" stroke-linecap="round" stroke-linejoin="round" stroke-width="1.7"/><polygon points="418.88 1779.21 404.64 1787.13 388.35 1787.2 374.42 1778.76 366.25 1764.72 366.31 1748.42 374.74 1734.53 388.78 1726.47 405.03 1726.42 418.92 1734.81 427.06 1748.82 426.8 1765.02 418.88 1779.21" fill="#fdedd4" stroke-width="0"/><polygon points="418.7 1779.03 404.61 1787 388.39 1787.02 374.33 1778.86 366.47 1764.66 366.5 1748.47 374.56 1734.34 388.79 1726.51 405.03 1726.43 418.97 1734.76 426.91 1748.86 427.15 1765.12 418.7 1779.03" fill="url(#uuid-3d5f34f7-8e72-4cf7-a280-4fdcabf89337)" stroke-width="0"/><polygon points="418.7 1779.03 404.61 1787 388.39 1787.02 374.33 1778.86 366.47 1764.66 366.5 1748.47 374.56 1734.34 388.79 1726.51 405.03 1726.43 418.97 1734.76 426.91 1748.86 427.15 1765.12 418.7 1779.03" fill="none" stroke="#e61673" stroke-linecap="round" stroke-linejoin="round" stroke-width="1.46"/></svg>