<svg xmlns="http://www.w3.org/2000/svg" width="750" height="1580" viewBox="0 0 750 1580"><defs><style>.a,.e{fill:#fff;}.a,.c,.d,.e,.f,.g,.h,.j,.k,.n{stroke:#da3915;}.a,.b,.c,.d,.e,.f,.g,.h,.j,.k,.n{stroke-linecap:round;stroke-linejoin:round;}.a,.b{stroke-width:1.26px;}.b{fill:#cae5cd;stroke:#d93915;}.c,.d{fill:#d93915;}.c,.e,.f,.j{stroke-width:1.26px;}.d{stroke-width:1.26px;}.f,.h,.i{fill:#fff799;}.g{fill:#f39800;}.g,.h,.k{stroke-width:1.51px;}.j,.n{fill:none;}.k,.l{fill:#e35450;}.m{fill:#81cde4;}.n{stroke-width:0.92px;}</style></defs><ellipse class="a" cx="577.29" cy="1372.72" rx="7.7" ry="5.1" transform="translate(-802.61 812.8) rotate(-45.11)"/><ellipse class="b" cx="575.18" cy="1370.65" rx="7.7" ry="5.1" transform="translate(-801.76 810.69) rotate(-45.11)"/><circle class="c" cx="630.4" cy="1441" r="4.5"/><ellipse class="d" cx="540.59" cy="1440.78" rx="4.2" ry="2.2" transform="translate(-987.5 1259.1) rotate(-62.65)"/><circle class="e" cx="702.8" cy="1290.2" r="7.7"/><circle class="f" cx="700.7" cy="1291.1" r="7.7"/><polygon class="g" points="60.8 869.4 44.8 872.7 50.9 882 62.3 884.4 60.8 869.4"/><polygon class="h" points="60.8 869.4 50.9 882 62.3 884.4 60.8 869.4"/><polygon class="i" points="695.4 19.9 693.6 26.6 689.4 32.2 683.4 35.7 676.5 36.8 669.8 34.9 664.2 30.8 660.7 24.7 659.7 17.9 661.4 11.1 665.7 5.6 671.6 2 678.5 1 685.3 2.7 690.8 7 694.4 13 695.4 19.9"/><polygon class="j" points="695.4 19.9 693.6 26.6 689.4 32.2 683.4 35.7 676.5 36.8 669.8 34.9 664.2 30.8 660.7 24.7 659.7 17.9 661.4 11.1 665.7 5.6 671.6 2 678.5 1 685.3 2.7 690.8 7 694.4 13 695.4 19.9"/><path class="j" d="M664.2,7c.4.2.9.4,1.3.6"/><path class="j" d="M667.3,8.6a2.18,2.18,0,0,0,.8.5"/><path class="j" d="M671.1,9.9a3.33,3.33,0,0,1,1,.6"/><path class="j" d="M673.9,11.7l.6.3"/><path class="j" d="M677.5,13.3a4.05,4.05,0,0,0,.9.5"/><path class="j" d="M680.3,14.9a2.09,2.09,0,0,1,.6.4"/><path class="j" d="M683.1,16.3a5,5,0,0,1,.8.7"/><path class="j" d="M685.7,17.6a8.74,8.74,0,0,1,1,.8"/><path class="j" d="M688.3,19.2c.3.2.6.3,1,.6"/><path class="j" d="M691.7,21a.66.66,0,0,0,.5.4"/><path class="j" d="M693.4,22c.3.2.6.5.9.7"/><path class="j" d="M662.5,10.2a3,3,0,0,0,1,.4"/><path class="j" d="M664.9,11.3a3,3,0,0,0,.8.4"/><path class="j" d="M667.2,12.7a1.88,1.88,0,0,0,.8.2"/><path class="j" d="M669.5,13.5a5.3,5.3,0,0,1,1,.6"/><path class="j" d="M671.7,14.5c.2.2.5.3.7.5"/><path class="j" d="M674.1,16.1l.4.4"/><path class="j" d="M676,17.3a2.18,2.18,0,0,1,.5.4"/><path class="j" d="M677.7,18.2c.3.2.6.3.9.5"/><path class="j" d="M680.4,19.5a2.07,2.07,0,0,0,1,.6"/><path class="j" d="M682.4,20.4a.86.86,0,0,0,.6.3"/><path class="j" d="M684.4,21.4a1.39,1.39,0,0,0,1,.5"/><path class="j" d="M686.7,22.4a4.23,4.23,0,0,1,.7.5"/><path class="j" d="M688.7,23.5a1.93,1.93,0,0,0,.9.5"/><path class="j" d="M690.8,24.7a3,3,0,0,0,.7.5"/><path class="j" d="M692.2,25.5a2.07,2.07,0,0,0,1,.6"/><path class="j" d="M661,14a2.57,2.57,0,0,0,1.2.5"/><path class="j" d="M663.5,15.2a.66.66,0,0,0,.5.4"/><path class="j" d="M665,15.8a.71.71,0,0,0,.6.3"/><path class="j" d="M666.9,16.7a2.09,2.09,0,0,0,.6.4"/><path class="j" d="M668.5,17.6a2.65,2.65,0,0,0,.6.5"/><path class="j" d="M670.6,18.9c.4.2.8.5,1.2.7"/><path class="j" d="M673.3,20.4a2,2,0,0,0,.8.4"/><path class="j" d="M675.6,21.3a5.39,5.39,0,0,0,1.3.7"/><path class="j" d="M678.6,22.7a3.51,3.51,0,0,0,.8.5"/><path class="j" d="M680.9,23.9a4.05,4.05,0,0,1,.9.5"/><path class="j" d="M683,24.8a8,8,0,0,0,1.6.8"/><path class="j" d="M686,26.1a1.93,1.93,0,0,0,.9.5"/><path class="j" d="M688.2,27.4a7.46,7.46,0,0,1,1.2.7"/><path class="j" d="M690.8,28.6c.2.2.5.3.7.5"/><path class="j" d="M659.9,17.8a10.91,10.91,0,0,0,1.1.6"/><path class="j" d="M662.4,18.9a.66.66,0,0,0,.5.4"/><path class="j" d="M664.5,20.2c.1.2.2.2.3.2"/><path class="j" d="M666.3,21a1.79,1.79,0,0,0,.7.5"/><path class="j" d="M668.7,22.2c.1.1.3.2.4.3"/><path class="j" d="M670.4,23a7.46,7.46,0,0,0,1.2.7"/><path class="j" d="M673.2,24.5a3.08,3.08,0,0,0,1.2.5"/><path class="j" d="M675.8,25.6a3,3,0,0,0,.8.4"/><path class="j" d="M678.1,26.7a3,3,0,0,1,.8.4"/><path class="j" d="M680.1,27.7a3,3,0,0,0,.8.4"/><path class="j" d="M682.4,28.7a3.51,3.51,0,0,0,.8.5"/><path class="j" d="M684.7,29.7c.2.1.5.2.7.3"/><path class="j" d="M686.5,30.4c.4.2.7.4,1.1.6"/><path class="j" d="M688.6,31.2a1.35,1.35,0,0,0,.9.5"/><path class="j" d="M667.2,4.1a.91.91,0,0,0,.7.3"/><path class="j" d="M669.6,5.1a.35.35,0,0,1,.2.1"/><path class="j" d="M670.8,5.4c.1,0,.2.1.3.2"/><path class="j" d="M672.2,6.2c.1.1.3.2.4.3"/><path class="j" d="M673.7,6.9a.91.91,0,0,0,.7.3"/><path class="j" d="M676.1,7.8c.2.1.3.1.5.2"/><path class="j" d="M677.8,8.6a7.46,7.46,0,0,1,1.2.7"/><path class="j" d="M680.6,10a7.46,7.46,0,0,0,1.2.7"/><path class="j" d="M683.3,11.5a.86.86,0,0,1,.6.3"/><path class="j" d="M685.1,12.4a4.67,4.67,0,0,0,1,.5"/><path class="j" d="M687.5,13.4c.3.2.6.3.9.5"/><path class="j" d="M689.4,14.4a4.05,4.05,0,0,1,.9.5"/><path class="j" d="M691.6,15.5a2.09,2.09,0,0,1,.6.4"/><path class="j" d="M693.7,16.5c.2.1.4.3.6.4"/><path class="j" d="M673.4,1.7a1.91,1.91,0,0,0,1,.5"/><path class="j" d="M676.3,2.9a1.76,1.76,0,0,1,.5.4"/><path class="j" d="M677.9,3.7a3,3,0,0,0,.8.4"/><path class="j" d="M680.3,4.9a2,2,0,0,0,.8.4"/><path class="j" d="M682.6,5.9a6.73,6.73,0,0,0,1.1.7"/><path class="j" d="M685,7.2a8.79,8.79,0,0,0,1,.6"/><path class="j" d="M687.4,8.6a4.67,4.67,0,0,0,1,.5"/><path class="j" d="M689.5,9.5a3,3,0,0,0,1,.4"/><path class="j" d="M691.5,10.5a7.46,7.46,0,0,0,1.2.7"/><path class="j" d="M693.1,11.4a.35.35,0,0,1,.2.1"/><path class="j" d="M660.2,22c.2.1.4.3.6.4"/><path class="j" d="M662.9,23.4c.1.1.2.1.3.2"/><path class="j" d="M665,24.5a5.3,5.3,0,0,1,1,.6"/><path class="j" d="M667.8,26.1c.3.2.6.3.9.5"/><path class="j" d="M670.1,27.2a.76.76,0,0,0,.5.2"/><path class="j" d="M672.2,28.1c.2.1.3.1.5.2"/><path class="j" d="M674.4,29.1a3,3,0,0,0,.8.4"/><path class="j" d="M676.8,30.1c.2.1.4.1.6.2"/><path class="j" d="M678.3,30.8a.73.73,0,0,0,.6.2"/><path class="j" d="M680.5,31.7l.9.3"/><path class="j" d="M682.4,32.5a4.05,4.05,0,0,1,.9.5"/><path class="j" d="M685,33.6c.2.2.4.4.4.3"/><path class="j" d="M661.8,26.5a2,2,0,0,0,.8.4"/><path class="j" d="M663.9,27.5a1.38,1.38,0,0,1,.3.4"/><path class="j" d="M665.3,28.4a.37.37,0,0,0,.5.2"/><path class="j" d="M666.9,29.2a1.08,1.08,0,0,0,.7.3"/><path class="j" d="M669,30.1c.3.2.6.3.9.5"/><path class="j" d="M671.1,31.2l.6.3"/><path class="j" d="M673,32.1a2,2,0,0,1,.8.4"/><path class="j" d="M674.9,32.8a4.67,4.67,0,0,0,1,.5"/><path class="j" d="M677.9,34.5c.2.3.4.4.6.2"/><path class="j" d="M680.3,35.7a.92.92,0,0,1,.6.4"/><path class="j" d="M666.7,31.6a1,1,0,0,0,.5.4"/><path class="j" d="M669.1,33.1c.1.1.2.1.3.2"/><path class="j" d="M670.6,33.8c.1.2.2.3.3.2-.1-.1-.2-.1-.3-.2"/><path class="j" d="M672.8,34.7a1,1,0,0,0,.5.4"/><path class="j" d="M674.3,35.5a1,1,0,0,0,.5.4"/><path class="j" d="M680.3,1.9c.2.1.2.2.4.2-.1-.2-.2-.2-.4-.2"/><path class="j" d="M681.9,2.7a1.38,1.38,0,0,0,.4.3"/><path class="j" d="M683.3,3.3c.2.1.3.1.5.2"/><path class="j" d="M685,4.2c.1.1.2.2.3.2"/><path class="j" d="M686.4,4.8a3.51,3.51,0,0,0,.8.5"/><path class="j" d="M687.8,5.5a1.76,1.76,0,0,1,.5.4"/><path class="j" d="M689.3,6.4c.1.1.3.2.4.3"/><circle class="k" cx="83.5" cy="1571" r="4.7"/><circle class="g" cx="82.1" cy="1573" r="4.7"/><path class="l" d="M390.1,262.6c.1,3.1-1.8,6-6.3,5.1a22.79,22.79,0,0,1-14.6-9.1c-1.6-2.1-3.4-4.9-3.3-7.7.1-2.6,2.1-3.5,4.3-3.7v.3c-4.7,1.8,2.8,9.3,4.6,10.7,3.2,2.5,7.5,5.3,11.6,5.8,1.2.2,3.6.4,3.7-1.4Z"/><path class="i" d="M390.1,262.6c-.1,1.8-2.5,1.6-3.7,1.4-4-.5-8.3-3.3-11.6-5.8-1.7-1.3-9.3-8.8-4.6-10.7v-.3a11.69,11.69,0,0,1,3.8.4c6.3,1.9,13.2,6.2,15.7,12.6a7.1,7.1,0,0,1,.4,2.4Zm-10.5-6c1,.8,2.8,2.2,4.2,2.3-.5-2.1-3-3.9-4.8-5a7.81,7.81,0,0,0-2-1.1c-.3-.1-.8-.1-1-.2v0C376.5,254.2,378.3,255.6,379.6,256.6Z"/><path class="m" d="M383.7,259c-1.3-.1-3.2-1.5-4.2-2.3-1.2-1-3.1-2.4-3.6-4,.1.1.7.1,1,.2a7.81,7.81,0,0,1,2,1.1C380.7,255.1,383.2,256.8,383.7,259Z"/><path class="n" d="M390.1,262.6c.1,3.1-1.8,6-6.3,5.1a22.79,22.79,0,0,1-14.6-9.1c-1.6-2.1-3.4-4.9-3.3-7.7.1-2.6,2.1-3.5,4.3-3.7a11.69,11.69,0,0,1,3.8.4c6.3,1.9,13.2,6.2,15.7,12.6A7.1,7.1,0,0,1,390.1,262.6Z"/><path class="n" d="M376,252.6c.6,1.6,2.4,3,3.6,4,1,.8,2.8,2.2,4.2,2.3-.5-2.1-3-3.9-4.8-5a7.81,7.81,0,0,0-2-1.1A2.15,2.15,0,0,1,376,252.6Z"/><path class="n" d="M376,252.6Z"/><path class="n" d="M375.9,251.6c-.9,1.5.7,3.1,1.6,3.9a16.76,16.76,0,0,0,5.9,3.7,6,6,0,0,0,3.5.3"/><path class="n" d="M370.2,247.6c-4.7,1.8,2.8,9.3,4.6,10.7,3.2,2.5,7.5,5.3,11.6,5.8,1.2.2,3.7.3,3.7-1.4"/></svg>