<svg xmlns="http://www.w3.org/2000/svg" width="1500" height="754" viewBox="0 0 1500 754"><defs><style>.a{fill:#fff799;}.b{fill:none;}.b,.c,.d,.e,.f,.g,.h{stroke:#da3915;stroke-linecap:round;stroke-linejoin:round;}.b,.c,.d{stroke-width:1.26px;}.c,.e{fill:#e35450;}.d{fill:#f39800;}.e,.f,.g,.h{stroke-width:1.49px;}.f{fill:#fff697;}.g{fill:#81cde4;}.h{fill:#fdd23e;}</style></defs><polygon class="a" points="1261.2 21.2 1259.4 27.9 1255.2 33.5 1249.2 37 1242.3 38.1 1235.6 36.2 1230 32.1 1226.5 26 1225.5 19.2 1227.2 12.4 1231.5 6.9 1237.4 3.3 1244.3 2.3 1251.1 4 1256.6 8.3 1260.2 14.3 1261.2 21.2"/><polygon class="b" points="1261.2 21.2 1259.4 27.9 1255.2 33.5 1249.2 37 1242.3 38.1 1235.6 36.2 1230 32.1 1226.5 26 1225.5 19.2 1227.2 12.4 1231.5 6.9 1237.4 3.3 1244.3 2.3 1251.1 4 1256.6 8.3 1260.2 14.3 1261.2 21.2"/><path class="b" d="M1230,8.4c.4.2.9.4,1.3.6"/><path class="b" d="M1233.1,9.9a2.18,2.18,0,0,0,.8.5"/><path class="b" d="M1236.9,11.2a3.33,3.33,0,0,1,1,.6"/><path class="b" d="M1239.7,13l.6.3"/><path class="b" d="M1243.3,14.6a4.05,4.05,0,0,0,.9.5"/><path class="b" d="M1246.1,16.2a2.09,2.09,0,0,1,.6.4"/><path class="b" d="M1248.9,17.6a5,5,0,0,1,.8.7"/><path class="b" d="M1251.5,18.9a8.74,8.74,0,0,1,1,.8"/><path class="b" d="M1254.1,20.5c.3.2.6.3,1,.6"/><path class="b" d="M1257.5,22.3a.66.66,0,0,0,.5.4"/><path class="b" d="M1259.2,23.3c.3.2.6.5.9.7"/><path class="b" d="M1228.3,11.5a3,3,0,0,0,1,.4"/><path class="b" d="M1230.7,12.6a3,3,0,0,0,.8.4"/><path class="b" d="M1233,14a1.88,1.88,0,0,0,.8.2"/><path class="b" d="M1235.3,14.8a5.3,5.3,0,0,1,1,.6"/><path class="b" d="M1237.5,15.8c.2.2.5.3.7.5"/><path class="b" d="M1239.9,17.4l.4.4"/><path class="b" d="M1241.8,18.6a2.18,2.18,0,0,1,.5.4"/><path class="b" d="M1243.5,19.5c.3.2.6.3.9.5"/><path class="b" d="M1246.2,20.8a2.07,2.07,0,0,0,1,.6"/><path class="b" d="M1248.2,21.7a.86.86,0,0,0,.6.3"/><path class="b" d="M1250.2,22.7a1.39,1.39,0,0,0,1,.5"/><path class="b" d="M1252.5,23.8a4.23,4.23,0,0,1,.7.5"/><path class="b" d="M1254.5,24.8a1.93,1.93,0,0,0,.9.5"/><path class="b" d="M1256.6,26a3,3,0,0,0,.7.5"/><path class="b" d="M1258,26.8a2.07,2.07,0,0,0,1,.6"/><path class="b" d="M1226.8,15.3a2.57,2.57,0,0,0,1.2.5"/><path class="b" d="M1229.3,16.5a.66.66,0,0,0,.5.4"/><path class="b" d="M1230.8,17.2a.71.71,0,0,0,.6.3"/><path class="b" d="M1232.7,18a2.09,2.09,0,0,0,.6.4"/><path class="b" d="M1234.3,18.9a2.65,2.65,0,0,0,.6.5"/><path class="b" d="M1236.4,20.2c.4.2.8.5,1.2.7"/><path class="b" d="M1239.1,21.7a2,2,0,0,0,.8.4"/><path class="b" d="M1241.4,22.6a5.39,5.39,0,0,0,1.3.7"/><path class="b" d="M1244.4,24a3.51,3.51,0,0,0,.8.5"/><path class="b" d="M1246.7,25.3a4.05,4.05,0,0,1,.9.5"/><path class="b" d="M1248.8,26.1a8,8,0,0,0,1.6.8"/><path class="b" d="M1251.8,27.4a1.93,1.93,0,0,0,.9.5"/><path class="b" d="M1254,28.7a7.46,7.46,0,0,1,1.2.7"/><path class="b" d="M1256.6,29.9c.2.2.5.3.7.5"/><path class="b" d="M1225.7,19.1a10.91,10.91,0,0,0,1.1.6"/><path class="b" d="M1228.2,20.2a.66.66,0,0,0,.5.4"/><path class="b" d="M1230.3,21.5c.1.2.2.2.3.2"/><path class="b" d="M1232.1,22.4a1.79,1.79,0,0,0,.7.5"/><path class="b" d="M1234.5,23.5c.1.1.3.2.4.3"/><path class="b" d="M1236.2,24.4a7.46,7.46,0,0,0,1.2.7"/><path class="b" d="M1239,25.8a3.08,3.08,0,0,0,1.2.5"/><path class="b" d="M1241.6,26.9a3,3,0,0,0,.8.4"/><path class="b" d="M1243.9,28a3,3,0,0,1,.8.4"/><path class="b" d="M1245.9,29a3,3,0,0,0,.8.4"/><path class="b" d="M1248.2,30a3.51,3.51,0,0,0,.8.5"/><path class="b" d="M1250.5,31c.2.1.5.2.7.3"/><path class="b" d="M1252.3,31.7c.4.2.7.4,1.1.6"/><path class="b" d="M1254.4,32.6a1.35,1.35,0,0,0,.9.5"/><path class="b" d="M1233,5.4a.91.91,0,0,0,.7.3"/><path class="b" d="M1235.4,6.4a.35.35,0,0,1,.2.1"/><path class="b" d="M1236.6,6.7c.1,0,.2.1.3.2"/><path class="b" d="M1238,7.5c.1.1.3.2.4.3"/><path class="b" d="M1239.5,8.2a.91.91,0,0,0,.7.3"/><path class="b" d="M1241.9,9.1c.2.1.3.1.5.2"/><path class="b" d="M1243.6,9.9a7.46,7.46,0,0,1,1.2.7"/><path class="b" d="M1246.4,11.3a7.46,7.46,0,0,0,1.2.7"/><path class="b" d="M1249.1,12.8a.86.86,0,0,1,.6.3"/><path class="b" d="M1250.9,13.7a4.67,4.67,0,0,0,1,.5"/><path class="b" d="M1253.3,14.7c.3.2.6.3.9.5"/><path class="b" d="M1255.2,15.7a4.05,4.05,0,0,1,.9.5"/><path class="b" d="M1257.4,16.8a2.09,2.09,0,0,1,.6.4"/><path class="b" d="M1259.5,17.8c.2.1.4.3.6.4"/><path class="b" d="M1239.2,3.1a1.91,1.91,0,0,0,1,.5"/><path class="b" d="M1242.1,4.2a1.76,1.76,0,0,1,.5.4"/><path class="b" d="M1243.7,5a3,3,0,0,0,.8.4"/><path class="b" d="M1246.1,6.2a2,2,0,0,0,.8.4"/><path class="b" d="M1248.4,7.2a6.73,6.73,0,0,0,1.1.7"/><path class="b" d="M1250.8,8.6a8.79,8.79,0,0,0,1,.6"/><path class="b" d="M1253.2,9.9a4.67,4.67,0,0,0,1,.5"/><path class="b" d="M1255.3,10.8a3,3,0,0,0,1,.4"/><path class="b" d="M1257.3,11.8a7.46,7.46,0,0,0,1.2.7"/><path class="b" d="M1258.9,12.7a.35.35,0,0,1,.2.1"/><path class="b" d="M1226,23.3c.2.1.4.3.6.4"/><path class="b" d="M1228.7,24.8c.1.1.2.1.3.2"/><path class="b" d="M1230.8,25.8a5.3,5.3,0,0,1,1,.6"/><path class="b" d="M1233.6,27.4c.3.2.6.3.9.5"/><path class="b" d="M1235.9,28.5a.76.76,0,0,0,.5.2"/><path class="b" d="M1238,29.4c.2.1.3.1.5.2"/><path class="b" d="M1240.2,30.4a3,3,0,0,0,.8.4"/><path class="b" d="M1242.6,31.4c.2.1.4.1.6.2"/><path class="b" d="M1244.1,32.1a.73.73,0,0,0,.6.2"/><path class="b" d="M1246.3,33l.9.3"/><path class="b" d="M1248.2,33.8a4.05,4.05,0,0,1,.9.5"/><path class="b" d="M1250.8,34.9c.2.2.4.4.4.3"/><path class="b" d="M1227.6,27.8a2,2,0,0,0,.8.4"/><path class="b" d="M1229.7,28.8a1.38,1.38,0,0,1,.3.4"/><path class="b" d="M1231.1,29.7a.37.37,0,0,0,.5.2"/><path class="b" d="M1232.7,30.5a1.08,1.08,0,0,0,.7.3"/><path class="b" d="M1234.8,31.4c.3.2.6.3.9.5"/><path class="b" d="M1236.9,32.5l.6.3"/><path class="b" d="M1238.8,33.4a2,2,0,0,1,.8.4"/><path class="b" d="M1240.7,34.2a4.67,4.67,0,0,0,1,.5"/><path class="b" d="M1243.7,35.9c.2.3.4.4.6.2"/><path class="b" d="M1246.1,37a.92.92,0,0,1,.6.4"/><path class="b" d="M1232.5,32.9a1,1,0,0,0,.5.4"/><path class="b" d="M1234.9,34.4c.1.1.2.1.3.2"/><path class="b" d="M1236.4,35.1c.1.2.2.3.3.2-.1-.1-.2-.1-.3-.2"/><path class="b" d="M1238.6,36a1,1,0,0,0,.5.4"/><path class="b" d="M1240.1,36.8a1,1,0,0,0,.5.4"/><path class="b" d="M1246.1,3.2c.2.1.2.2.4.2-.1-.2-.2-.2-.4-.2"/><path class="b" d="M1247.7,4a1.38,1.38,0,0,0,.4.3"/><path class="b" d="M1249.1,4.6c.2.1.3.1.5.2"/><path class="b" d="M1250.8,5.5c.1.1.2.2.3.2"/><path class="b" d="M1252.2,6.1a3.51,3.51,0,0,0,.8.5"/><path class="b" d="M1253.6,6.9a1.76,1.76,0,0,1,.5.4"/><path class="b" d="M1255.1,7.7c.1.1.3.2.4.3"/><circle class="c" cx="313.1" cy="408.9" r="3.9"/><circle class="d" cx="311.9" cy="410.5" r="3.9"/><circle class="e" cx="1053.4" cy="747.7" r="3.5"/><circle class="e" cx="1126.7" cy="698.5" r="4.7"/><circle class="f" cx="1126.6" cy="696.1" r="4.7"/><circle class="f" cx="1183.7" cy="633.4" r="4.7"/><circle class="g" cx="1415" cy="467" r="10.8"/><path class="e" d="M1248.4,616c4.3,3.9,4,11.3-.7,16.6s-12.1,6.3-16.4,2.4-4-11.3.7-16.6S1244,612.1,1248.4,616Zm-13.4,4.9c-3.3,3.6-3.5,8.8-.5,11.5s8.1,2,11.4-1.6,3.5-8.8.5-11.5S1238.3,617.2,1235,620.9Z"/><path class="h" d="M1246.5,614.3c4.3,3.9,4,11.3-.7,16.6s-12.1,6.3-16.4,2.4-4-11.3.7-16.6S1242.2,610.4,1246.5,614.3Zm-12.7,5.5c-2.6,2.9-2.8,7-.4,9.1s6.4,1.6,9-1.3,2.8-7,.4-9.1S1236.4,616.9,1233.8,619.8Z"/></svg>