<svg xmlns="http://www.w3.org/2000/svg" width="1700" height="1474" viewBox="0 0 1700 1474"><defs><style>.a{fill:#fff697;stroke-width:1.64px;}.a,.b,.c,.d,.e,.f,.h,.j{stroke:#da3915;}.a,.b,.c,.d,.e,.f,.g,.h,.j,.o,.q{stroke-linecap:round;stroke-linejoin:round;}.b,.e,.h,.i{fill:#fff799;}.b{stroke-width:1.26px;}.c{fill:#d93915;}.c,.d,.e{stroke-width:1.26px;}.d,.f,.m{fill:#fff;}.f,.g{stroke-width:1.26px;}.g{fill:#cae5cd;stroke:#d93915;}.h,.j{stroke-width:1.2px;}.j,.q{fill:none;}.k{fill:#fffde0;}.l,.o{fill:#fdf4f7;}.n{fill:#fffbcc;}.o,.q{stroke:#e61673;stroke-width:1.37px;}.p{fill:#e84383;}</style></defs><circle class="a" cx="1472" cy="584.1" r="5.1"/><ellipse class="b" cx="410.55" cy="1185.5" rx="7.7" ry="6.5" transform="translate(-839.85 1287.81) rotate(-75.58)"/><circle class="c" cx="1322.9" cy="1168.5" r="4.5"/><circle class="d" cx="110.2" cy="688.7" r="7.7"/><circle class="e" cx="111" cy="684.8" r="7.7"/><ellipse class="f" cx="245.77" cy="496.11" rx="7.7" ry="5.1" transform="translate(-279.15 320.06) rotate(-45.11)"/><ellipse class="g" cx="243.72" cy="494.12" rx="7.7" ry="5.1" transform="translate(-278.33 318.02) rotate(-45.11)"/><circle class="d" cx="371.3" cy="413.6" r="7.7"/><circle class="e" cx="369.2" cy="414.5" r="7.7"/><path class="h" d="M1257.7,375.9s.2,4,.8,8.2a13,13,0,0,1-4.2-.8c-.3-1.2-1.2-2.3-1.4-3.4-.7.7-2,1.1-2.7,1.8a58.45,58.45,0,0,0-.4-5.9,53.51,53.51,0,0,0-5.5-1.1,41.94,41.94,0,0,0,.6,4.8l-6.2-1.8c-.2-2.2-.9-3.8-.9-5.8"/><path class="h" d="M1258.2,376.7s.2,2.4.8,6.5a13,13,0,0,1-4.2-.8c-.3-1.2-1.2-2.3-1.4-3.4-.7.7-2,1.1-2.7,1.8a58.45,58.45,0,0,0-.4-5.9,53.51,53.51,0,0,0-5.5-1.1,41.94,41.94,0,0,0,.6,4.8l-6.2-1.8c-.2-2.2-.9-3.8-.9-5.8m-15.7-4.8s-.1,10.6-8.9,9.7c-10.8-1.1-13.8-10.7-14-16-.3-6.9,3.7-13.9,12.5-11,5.5,1.8,9.4,7.1,9.9,11.7m-4.2,4.1c.9-3.4-2.4-10.8-8.1-10.7-5.2.1-5.5,4.6-4.8,9.4C1206.3,372.5,1218.6,374.2,1217.9,364.7Z"/><path class="i" d="M1221.3,366.5c1,.2,2.1.4,3.2.7s2.1.4,3.1.8,2,.7,3.1,1.1,2,.7,3,1.1,2,.7,3.1,1.1l3.1.9a19.75,19.75,0,0,1,2.6.8c.9.3,1.8.5,2.6.8a26.81,26.81,0,0,0,2.7.7,25.82,25.82,0,0,0,2.6.8,25.25,25.25,0,0,1,2.9,1,8.87,8.87,0,0,0,3,.6,3,3,0,0,0,2.5-1.9,2.74,2.74,0,0,0-.6-3.1,4.59,4.59,0,0,0-2.2-1.1c-.9-.2-1.8-.3-2.5-.5-1.1-.3-2.2-.5-3.3-.8l-3.3-.9c-1.1-.3-2.2-.7-3.3-.9l-3-.9-3-.9c-1-.3-2-.5-3-.8s-2-.7-3-1-2-.5-3-.8-2-.8-2.9-1.1l-3-.9"/><path class="j" d="M1221.3,366.5c1,.2,2.1.4,3.2.7s2.1.4,3.1.8,2,.7,3.1,1.1,2,.7,3,1.1,2,.7,3.1,1.1l3.1.9a19.75,19.75,0,0,1,2.6.8c.9.3,1.8.5,2.6.8a26.81,26.81,0,0,0,2.7.7,25.82,25.82,0,0,0,2.6.8,25.25,25.25,0,0,1,2.9,1,8.87,8.87,0,0,0,3,.6,3,3,0,0,0,2.5-1.9,2.74,2.74,0,0,0-.6-3.1,4.59,4.59,0,0,0-2.2-1.1c-.9-.2-1.8-.3-2.5-.5-1.1-.3-2.2-.5-3.3-.8l-3.3-.9c-1.1-.3-2.2-.7-3.3-.9l-3-.9-3-.9c-1-.3-2-.5-3-.8s-2-.7-3-1-2-.5-3-.8-2-.8-2.9-1.1l-3-.9"/><path class="k" d="M1270.7,1404.5c.7,1.8-2.2,8.7-5.8,15.9a61,61,0,0,0,4.7-17.2A3.34,3.34,0,0,1,1270.7,1404.5Z"/><path class="l" d="M1269.7,1430.9c2.5.6-.9,4.4-1.7,5.4a56,56,0,0,1-6.7,6,7.54,7.54,0,0,1-1.2-5.4c1.6-1.1,3.2-2.3,4.8-3.3C1265.8,1433,1268.6,1430.7,1269.7,1430.9Z"/><path class="m" d="M1269.7,1392.5a55.68,55.68,0,0,1-.1,10.8c-1.1-.7-3.1-1-5.4-2.1a17.25,17.25,0,0,0,1-7.1c-.1-1.7-.9-2.9-.7-4.8.1-1.1,1.9-9.3,4.2-7.2.5.5.4,3.9.5,4.8C1269.5,1388.7,1269.5,1390.6,1269.7,1392.5Z"/><path class="m" d="M1264.9,1420.5a81.19,81.19,0,0,1-5.1,9.7C1261.4,1427.3,1263.2,1423.9,1264.9,1420.5Z"/><path class="n" d="M1257.2,1401.1c.1,5.5-1.9,10.4-2.6,12.5a126.31,126.31,0,0,0,.6-13.8C1256.4,1400.2,1257.2,1400.6,1257.2,1401.1Z"/><path class="m" d="M1255.2,1398.9v.9a19.75,19.75,0,0,0-5.9-.6c.4-3.3,1.2-6.6.7-9.9-.3-2-1.4-3.4-1.5-5.2a13.17,13.17,0,0,1,1.3-4.8c.7-1.9,2.1-2,2.8-.1.6,1.6.5,3.8.9,5.6C1254.3,1389.4,1254.8,1394.1,1255.2,1398.9Z"/><path class="m" d="M1254.6,1413.8v.2C1254.5,1414,1254.5,1414,1254.6,1413.8Z"/><path class="n" d="M1238.6,1453.9l-3.6,2,.3-.3A20.79,20.79,0,0,1,1238.6,1453.9Z"/><path class="m" d="M1235.3,1455.6l-.3.3-.8.5C1234.6,1456.1,1235,1455.8,1235.3,1455.6Z"/><path class="m" d="M1234.2,1456.4l.8-.5-5.8,6.4A14.69,14.69,0,0,1,1234.2,1456.4Z"/><path class="l" d="M1232.2,1415.8c2.9.1,1.2,7.9,1,9.1-1.6,1.2-3.1,1-3.8.4h-.1C1229.8,1423.3,1230.5,1415.8,1232.2,1415.8Z"/><path class="k" d="M1264.2,1401.1c-.5-.3-.9-.5-1.4-.8-1-.6-7.4,12.8-8.1,13.6-.1.1-.1,0,0-.2v-.1h0a126.31,126.31,0,0,0,.6-13.8,19.75,19.75,0,0,0-5.9-.6,6.82,6.82,0,0,0-1.8.2c-1.1.3-3.7,12-4.7,15.1-.7,2.3-2.5,6.6-3.4,8.9a54.5,54.5,0,0,1-5.4,10.8,16.61,16.61,0,0,1-1.7,2.2c-1.7,2.1-4.5,5.1-6.8,7.6a11.41,11.41,0,0,1-1.1,1.1.9.9,0,0,1,1.1,0c.6.5.1,1.9.2,2.6.2,1.2,1.3,1.7,1.9,2.7a3.73,3.73,0,0,1,.2,3.1,7.58,7.58,0,0,0-.1,2.1,9.08,9.08,0,0,1,1.5,3.5l4.9-2.7a10.47,10.47,0,0,1,1.1-.8,17.26,17.26,0,0,1,3.3-1.7h0c.4-.1.7-.3,1.1-.4a63.37,63.37,0,0,0,12.9-5.5,75.25,75.25,0,0,0,8.6-5.7h0a7.54,7.54,0,0,1-1.2-5.4,61.72,61.72,0,0,1-7.7,4.8c.7-.9,1.5-1.8,2.2-2.6a79.68,79.68,0,0,0,5.2-8.8c1.6-3,3.4-6.4,5.1-9.7v-.1a61,61,0,0,0,4.7-17.2C1268.4,1402.6,1266.5,1402.3,1264.2,1401.1Z"/><path class="k" d="M1233.2,1424.9a43.34,43.34,0,0,0-1,7.1,31.68,31.68,0,0,0,.2,4.3c-1.7,2.1-4.5,5.1-6.8,7.6l-3.3,2.1h-.3c1.1-3.6,1.7-7.3,3.3-10.8a67.57,67.57,0,0,0,4.1-9.6c0-.1.1-.2.1-.3h.1C1230.1,1425.9,1231.6,1426.1,1233.2,1424.9Z"/><path class="o" d="M1229.4,1459.8a11.18,11.18,0,0,1-2.1,6.5c-1.8,2.5-3.8,3.5-6.7,3.2a8.67,8.67,0,0,1-3.1-1c-2.5-1.3-3.7-4.9-4.5-7.7a5.3,5.3,0,0,1,4.3-1.7c1.1.2,1.5.5,2.6-.1.6-.3,1.3-1,2-1,1.3.1,1.8,1.7,2.9,1.9a2.71,2.71,0,0,0,2-.8,7.46,7.46,0,0,1,.7,1.2l2-1.1C1229.4,1459.3,1229.4,1459.6,1229.4,1459.8Z"/><path class="p" d="M1227.8,1455.6a7.41,7.41,0,0,1,.1-2.1,4.15,4.15,0,0,0-.2-3.1c-.6-1-1.7-1.5-1.9-2.7-.1-.7.3-2.1-.2-2.6a.9.9,0,0,0-1.1,0,10.54,10.54,0,0,0-1.1.7,1.82,1.82,0,0,1-1.1.3l-.3.2c0-.1.1-.1.1-.2h-.3c-1.9-.1-2.9.9-3.8,2.6-.6,1.2-.8,2.6-2,3.5s-2.5,1.1-3.5,2.1c-2.4,2.4-1.8,4.9.2,6.9l.3-.3a5.3,5.3,0,0,1,4.3-1.7c1.1.2,1.5.5,2.6-.1.6-.3,1.3-1,2-1,1.3.1,1.8,1.7,2.9,1.9a2.71,2.71,0,0,0,2-.8,7.46,7.46,0,0,1,.7,1.2l2-1.1A11.4,11.4,0,0,0,1227.8,1455.6Z"/><path class="p" d="M1222.2,1446l-.3.2c0-.1.1-.1.1-.2Z"/><path class="q" d="M1222,1446c1.1-3.6,1.7-7.3,3.3-10.8a67.57,67.57,0,0,0,4.1-9.6c0-.1.1-.2.1-.3.4-2,1.2-9.5,2.9-9.5,2.9.1,1.2,7.9,1,9.1a43.34,43.34,0,0,0-1,7.1,31.68,31.68,0,0,0,.2,4.3"/><path class="o" d="M1269.6,1403.3a48.76,48.76,0,0,0,.1-10.8c-.2-1.9-.2-3.8-.5-5.6-.2-.9,0-4.3-.5-4.8-2.3-2.1-4.1,6.1-4.2,7.2-.2,1.8.6,3.1.7,4.8a21.78,21.78,0,0,1-1,7.1"/><path class="q" d="M1259.8,1430.3a89.62,89.62,0,0,0,5.1-9.7"/><path class="q" d="M1254.6,1413.8v.2"/><path class="o" d="M1249.3,1399.2c.4-3.3,1.2-6.6.7-9.9-.3-2-1.4-3.4-1.5-5.2a13.17,13.17,0,0,1,1.3-4.8c.7-1.9,2.1-2,2.8-.1.6,1.6.5,3.8.9,5.6a110.19,110.19,0,0,1,1.8,14.2v.9"/><path class="q" d="M1252.4,1441.7c.7-.9,1.5-1.8,2.2-2.6a79.68,79.68,0,0,0,5.2-8.8c1.6-3,3.4-6.4,5.1-9.7v-.1c3.5-7.2,6.4-14.1,5.8-15.9a2.76,2.76,0,0,0-1.1-1.3c-1.1-.7-3.1-1-5.4-2.1-.5-.3-.9-.5-1.4-.8-1-.6-7.4,12.8-8.1,13.6-.1.1-.1,0,0-.2v-.1h0c.7-2.2,2.8-7,2.6-12.5,0-.5-.9-.9-2-1.3a19.75,19.75,0,0,0-5.9-.6,6.82,6.82,0,0,0-1.8.2c-1.1.3-3.7,12-4.7,15.1-.7,2.3-2.5,6.6-3.4,8.9a54.5,54.5,0,0,1-5.4,10.8,16.61,16.61,0,0,1-1.7,2.2c-1.7,2.1-4.5,5.1-6.8,7.6a11.41,11.41,0,0,1-1.1,1.1"/><path class="q" d="M1261.2,1442.3a49.16,49.16,0,0,0,6.7-6c.9-.9,4.3-4.8,1.7-5.4-1.1-.3-3.9,2.1-4.8,2.6-1.6,1-3.2,2.2-4.8,3.3a61.72,61.72,0,0,1-7.7,4.8,25.43,25.43,0,0,1-6.5,2.4"/><path class="q" d="M1229.3,1462.3a15.24,15.24,0,0,1,4.9-5.9,10.47,10.47,0,0,1,1.1-.8,17.26,17.26,0,0,1,3.3-1.7c.4-.1.7-.3,1.1-.4a63.37,63.37,0,0,0,12.9-5.5,75.25,75.25,0,0,0,8.6-5.7"/><path class="q" d="M1212.9,1460.7c.8,2.6,1.7,6,4.3,7.5,3,1.7,8,.9,10.1-2a10.32,10.32,0,0,0,2.1-6.5,1.7,1.7,0,0,0-.1-.7,7.79,7.79,0,0,0-1.5-3.5"/><path class="q" d="M1212.9,1460.7l-.3.3c-2-1.9-2.6-4.5-.2-6.9,1-1,2.4-1.2,3.5-2.1s1.3-2.3,2-3.5c.9-1.7,1.9-2.7,3.8-2.6h.6a1.55,1.55,0,0,0,1.1-.3,10.54,10.54,0,0,1,1.1-.7.9.9,0,0,1,1.1,0c.6.5.1,1.9.2,2.6.2,1.2,1.3,1.7,1.9,2.7a3.73,3.73,0,0,1,.2,3.1,7.58,7.58,0,0,0-.1,2.1,2.7,2.7,0,0,1,0,.9,4.82,4.82,0,0,1-1.2,2.5,2.37,2.37,0,0,1-2,.8c-1.1-.2-1.5-1.8-2.9-1.9-.7,0-1.3.7-2,1-1.1.6-1.5.3-2.6.1A6.72,6.72,0,0,0,1212.9,1460.7Z"/><path class="q" d="M1216.3,1463.1c0,.1.1.2.1.3"/><path class="q" d="M1219.9,1462.6c0,.1.1.2.1.3"/><path class="q" d="M1260,1436.9a7.54,7.54,0,0,0,1.2,5.4h0"/><path class="q" d="M1229.4,1425.3c.7.6,2.2.7,3.8-.4"/></svg>