<svg xmlns="http://www.w3.org/2000/svg" width="1700" height="1474" viewBox="0 0 1700 1474"><defs><style>.a,.i{fill:#e35450;}.a,.b,.c,.d,.e,.f,.g,.i,.k,.l,.o,.p{stroke:#da3915;}.a,.b,.c,.d,.e,.f,.g,.h,.i,.k,.l,.o,.p{stroke-linecap:round;stroke-linejoin:round;}.a,.b{stroke-width:1.64px;}.b,.m{fill:#81cde4;}.c,.e,.f,.o{fill:#d93915;}.c{stroke-width:1.26px;}.d,.h{fill:#fff;}.d,.e{stroke-width:0.97px;}.f{stroke-width:1.26px;}.g{fill:#fce1b7;stroke-width:1.22px;}.h{stroke:#e61673;stroke-width:1.37px;}.i,.k,.l,.o,.p{stroke-width:1.2px;}.j,.l{fill:#fff799;}.k{fill:none;}.n{fill:#fffbcc;}.p{fill:#cae5cd;}</style></defs><circle class="a" cx="1348.5" cy="715.7" r="3.9"/><circle class="b" cx="1495.7" cy="561.5" r="3"/><ellipse class="c" cx="1275.15" cy="1197.2" rx="4.2" ry="2.2" transform="translate(-374.02 1779.89) rotate(-62.65)"/><circle class="d" cx="32" cy="723.4" r="6"/><circle class="e" cx="32.6" cy="720.3" r="6"/><circle class="f" cx="298.9" cy="564.5" r="4.5"/><ellipse class="c" cx="209.07" cy="564.22" rx="4.2" ry="2.2" transform="translate(-388.13 490.74) rotate(-62.65)"/><path class="g" d="M316.4,139.1c-2.5,0-4.8,3.7-1.4,3.6,2.8,0,2.4-3,1.4-3.6"/><path class="h" d="M1202.4,1426.6c-4.2-2.1-7.8,5.1-2.9,6,1.1.2,4.1-1.8,4.2-3,.2-1.7-1.5-1.9-2.2-3"/><path class="h" d="M1209.1,1416.1c-2.5-1.1-4.5,2.8-1.9,3.4,2,.5,3.4-3.5.6-3.7"/><polygon class="i" points="1225.1 418.3 1281.3 444.4 1284.6 439.7 1283.7 437.2 1228.4 413.7 1224.1 415.8 1225.1 418.3"/><path class="i" d="M1231,417.8l48.6,22.5,36.3-51.3c17.1-24.2-31.4-46.7-48.6-22.5l-37.4,49Z"/><path class="j" d="M1229.7,415.5c1.4,5.2,5,2.3,9.9,4.5s4.9,2,9.8,4.3,4.8,2.3,9.7,4.6,4.8,2.4,9.7,4.6,4.6,5.8,9.7,4.5,3.1-4.2,6.2-8.5,3.1-4.2,6.1-8.5,2.8-4.5,5.8-8.7,3.3-4.1,6.3-8.4l6-8.6c3-4.3,2.8-4.4,5.8-8.7a18.09,18.09,0,0,0,3.6-10.2,16.91,16.91,0,0,0-3.6-10.2,26.7,26.7,0,0,0-8.2-7.4,35.89,35.89,0,0,0-10.4-3.8,34,34,0,0,0-11-1,28.06,28.06,0,0,0-10.6,3,22.84,22.84,0,0,0-8.4,7.1c-3,4.3-2.8,4.4-5.8,8.7l-6,8.6c-3,4.3-3.2,4.1-6.3,8.4s-2.8,4.4-5.8,8.7-2.1,5.1-6,8.6C1231.7,410.8,1228.3,410.5,1229.7,415.5Z"/><path class="k" d="M1229.7,415.5c1.4,5.2,5,2.3,9.9,4.5s4.9,2,9.8,4.3,4.8,2.3,9.7,4.6,4.8,2.4,9.7,4.6,4.6,5.8,9.7,4.5,3.1-4.2,6.2-8.5,3.1-4.2,6.1-8.5,2.8-4.5,5.8-8.7,3.3-4.1,6.3-8.4l6-8.6c3-4.3,2.8-4.4,5.8-8.7a18.09,18.09,0,0,0,3.6-10.2,16.91,16.91,0,0,0-3.6-10.2,26.7,26.7,0,0,0-8.2-7.4,35.89,35.89,0,0,0-10.4-3.8,34,34,0,0,0-11-1,28.06,28.06,0,0,0-10.6,3,22.84,22.84,0,0,0-8.4,7.1c-3,4.3-2.8,4.4-5.8,8.7l-6,8.6c-3,4.3-3.2,4.1-6.3,8.4s-2.8,4.4-5.8,8.7-2.1,5.1-6,8.6C1231.7,410.8,1228.3,410.5,1229.7,415.5Z"/><path class="i" d="M1235.3,414.2l41.8,19.4,33.3-47.1c15.7-22.2-26.1-41.6-41.8-19.4Z"/><path class="l" d="M1234.2,412.8l46.2,7.1,31.5-45c14.1-21.6-31.4-27.9-46.2-7.1l-32.1,42.5Z"/><path class="m" d="M1233.5,410.3c.6,1.4,1.5.3,3.1.5s1.5,0,3.1.2,1.5.5,3,.7,1.5.1,3.1.3,1.5.2,3,.5,1.5.3,3,.5,1.5.3,3,.5,1.6-.1,3.1.1l3,.4c1.5.2,1.5.4,3,.6l3,.4c1.5.2,1.5.1,3.1.3l3,.4c1.5.2,1.5.4,3,.6s1.6.8,3,.2,1-1,1.8-2.3,1-1.1,1.9-2.4.8-1.2,1.7-2.5.7-1.4,1.5-2.6,1-1.1,1.9-2.4.8-1.3,1.7-2.5.8-1.3,1.7-2.5,1.1-1.1,2-2.3a22,22,0,0,0,1.7-2.5c.9-1.2.7-1.3,1.6-2.6s.8-1.3,1.7-2.5,1.1-1.1,2-2.3.8-1.3,1.7-2.5l1.8-2.4c.9-1.2.8-1.3,1.6-2.5s.7-1.3,1.6-2.6l1.8-2.4c.9-1.2,1-1.2,1.8-2.4a15.84,15.84,0,0,0,1.6-2.7,13.75,13.75,0,0,0,1.2-2.9,11.73,11.73,0,0,0,.2-3.2,7.62,7.62,0,0,0-1.3-2.9,9.31,9.31,0,0,0-1.8-2.6,10,10,0,0,0-2.6-1.8,20.92,20.92,0,0,0-3-1.1,21.33,21.33,0,0,0-3-.9,28.37,28.37,0,0,0-3.1-.6c-1-.1-2-.5-3.1-.6s-2.1.2-3.2.2-2.1,0-3.1.1-2.1.2-3.1.4-2.1.2-3.1.4-2,.8-3,1.1a24.88,24.88,0,0,0-2.9,1.1,25.15,25.15,0,0,0-2.9,1.2c-.9.5-1.7,1.3-2.6,1.8s-1.7,1.3-2.5,1.9-1.5,1.5-2.2,2.2a23.91,23.91,0,0,0-2.2,2.3c-.9,1.2-.8,1.3-1.6,2.5s-1,1.1-1.9,2.3-.6,1.4-1.5,2.6-1.2,1-2,2.2-.7,1.4-1.6,2.6-1,1.1-1.9,2.4-.8,1.3-1.7,2.5-.8,1.3-1.7,2.5-1,1.2-1.8,2.4-.8,1.3-1.6,2.5-.8,1.3-1.7,2.5l-1.8,2.4c-.9,1.2-1,1.1-1.9,2.4s-.8,1.3-1.7,2.5-1,1.2-1.9,2.4-.7,1.3-1.6,2.6-.7,1.4-1.9,2.4C1234,408.9,1232.9,409,1233.5,410.3Z"/><path class="k" d="M1233.5,410.3c.6,1.4,1.5.3,3.1.5s1.5,0,3.1.2,1.5.5,3,.7,1.5.1,3.1.3,1.5.2,3,.5,1.5.3,3,.5,1.5.3,3,.5,1.6-.1,3.1.1l3,.4c1.5.2,1.5.4,3,.6l3,.4c1.5.2,1.5.1,3.1.3l3,.4c1.5.2,1.5.4,3,.6s1.6.8,3,.2,1-1,1.8-2.3,1-1.1,1.9-2.4.8-1.2,1.7-2.5.7-1.4,1.5-2.6,1-1.1,1.9-2.4.8-1.3,1.7-2.5.8-1.3,1.7-2.5,1.1-1.1,2-2.3a22,22,0,0,0,1.7-2.5c.9-1.2.7-1.3,1.6-2.6s.8-1.3,1.7-2.5,1.1-1.1,2-2.3.8-1.3,1.7-2.5l1.8-2.4c.9-1.2.8-1.3,1.6-2.5s.7-1.3,1.6-2.6l1.8-2.4c.9-1.2,1-1.2,1.8-2.4a15.84,15.84,0,0,0,1.6-2.7,13.75,13.75,0,0,0,1.2-2.9,11.73,11.73,0,0,0,.2-3.2,7.62,7.62,0,0,0-1.3-2.9,9.31,9.31,0,0,0-1.8-2.6,10,10,0,0,0-2.6-1.8,20.92,20.92,0,0,0-3-1.1,21.33,21.33,0,0,0-3-.9,28.37,28.37,0,0,0-3.1-.6c-1-.1-2-.5-3.1-.6s-2.1.2-3.2.2-2.1,0-3.1.1-2.1.2-3.1.4-2.1.2-3.1.4-2,.8-3,1.1a24.88,24.88,0,0,0-2.9,1.1,25.15,25.15,0,0,0-2.9,1.2c-.9.5-1.7,1.3-2.6,1.8s-1.7,1.3-2.5,1.9-1.5,1.5-2.2,2.2a23.91,23.91,0,0,0-2.2,2.3c-.9,1.2-.8,1.3-1.6,2.5s-1,1.1-1.9,2.3-.6,1.4-1.5,2.6-1.2,1-2,2.2-.7,1.4-1.6,2.6-1,1.1-1.9,2.4-.8,1.3-1.7,2.5-.8,1.3-1.7,2.5-1,1.2-1.8,2.4-.8,1.3-1.6,2.5-.8,1.3-1.7,2.5l-1.8,2.4c-.9,1.2-1,1.1-1.9,2.4s-.8,1.3-1.7,2.5-1,1.2-1.9,2.4-.7,1.3-1.6,2.6-.7,1.4-1.9,2.4C1234,408.9,1232.9,409,1233.5,410.3Z"/><path class="n" d="M1239.4,407.8c.6,1.4,1.5.2,3,.5s1.5,0,3,.2,1.5.5,2.9.7,1.5.1,3,.3l3,.4c1.5.2,1.5.3,3,.5s1.5.3,3,.5,1.5-.1,3,.1l3,.4c1.5.2,1.5.3,3,.5l3,.4c1.5.2,1.5.1,3,.3s1.5,1,2.9.4,1-1.1,1.9-2.4.8-1.4,1.6-2.6a22.26,22.26,0,0,0,1.9-2.4c.9-1.2,1-1.2,1.9-2.4s.9-1.3,1.8-2.5.7-1.4,1.6-2.6,1-1.2,1.9-2.4.8-1.3,1.7-2.5.8-1.3,1.7-2.5,1.1-1.1,2-2.3.9-1.2,1.8-2.5.8-1.4,1.6-2.6.8-1.3,1.7-2.5,1.1-1.1,2-2.3.9-1.3,1.8-2.5,1-1.2,1.9-2.5a12.75,12.75,0,0,0,1.5-2.8,9.21,9.21,0,0,0,.7-3,6.47,6.47,0,0,0-.3-3.1,7.2,7.2,0,0,0-1.5-2.7,9.7,9.7,0,0,0-2.5-1.9,12.22,12.22,0,0,0-2.8-1.4,21.33,21.33,0,0,0-3-.9c-1-.2-2.1-.1-3.1-.3a29.09,29.09,0,0,0-3.1-.4c-1,0-2.1,0-3.1.1s-2,.4-3.1.6l-3,.6c-1,.3-2,.5-3,.8a17.6,17.6,0,0,0-3,1,20.07,20.07,0,0,0-2.7,1.7,23.26,23.26,0,0,0-2.6,1.7,22.91,22.91,0,0,0-2.3,2.1,24.42,24.42,0,0,0-2.2,2.3c-.9,1.2-.7,1.4-1.6,2.6s-.9,1.3-1.8,2.5-1.1,1.1-2,2.4-.7,1.4-1.6,2.6-.9,1.3-1.8,2.5-.8,1.3-1.7,2.5-1.1,1.1-2,2.4-.8,1.3-1.7,2.6-1,1.2-1.9,2.4-.7,1.4-1.6,2.6-1.2,1.1-2.1,2.3-.7,1.4-1.6,2.6-1,1.2-1.9,2.4-.8,1.3-1.7,2.5-.6,1.5-1.7,2.5C1239.9,406.4,1238.8,406.3,1239.4,407.8Z"/><path class="k" d="M1239.4,407.8c.6,1.4,1.5.2,3,.5s1.5,0,3,.2,1.5.5,2.9.7,1.5.1,3,.3l3,.4c1.5.2,1.5.3,3,.5s1.5.3,3,.5,1.5-.1,3,.1l3,.4c1.5.2,1.5.3,3,.5l3,.4c1.5.2,1.5.1,3,.3s1.5,1,2.9.4,1-1.1,1.9-2.4.8-1.4,1.6-2.6a22.26,22.26,0,0,0,1.9-2.4c.9-1.2,1-1.2,1.9-2.4s.9-1.3,1.8-2.5.7-1.4,1.6-2.6,1-1.2,1.9-2.4.8-1.3,1.7-2.5.8-1.3,1.7-2.5,1.1-1.1,2-2.3.9-1.2,1.8-2.5.8-1.4,1.6-2.6.8-1.3,1.7-2.5,1.1-1.1,2-2.3.9-1.3,1.8-2.5,1-1.2,1.9-2.5a12.75,12.75,0,0,0,1.5-2.8,9.21,9.21,0,0,0,.7-3,6.47,6.47,0,0,0-.3-3.1,7.2,7.2,0,0,0-1.5-2.7,9.7,9.7,0,0,0-2.5-1.9,12.22,12.22,0,0,0-2.8-1.4,21.33,21.33,0,0,0-3-.9c-1-.2-2.1-.1-3.1-.3a29.09,29.09,0,0,0-3.1-.4c-1,0-2.1,0-3.1.1s-2,.4-3.1.6l-3,.6c-1,.3-2,.5-3,.8a17.6,17.6,0,0,0-3,1,20.07,20.07,0,0,0-2.7,1.7,23.26,23.26,0,0,0-2.6,1.7,22.91,22.91,0,0,0-2.3,2.1,24.42,24.42,0,0,0-2.2,2.3c-.9,1.2-.7,1.4-1.6,2.6s-.9,1.3-1.8,2.5-1.1,1.1-2,2.4-.7,1.4-1.6,2.6-.9,1.3-1.8,2.5-.8,1.3-1.7,2.5-1.1,1.1-2,2.4-.8,1.3-1.7,2.6-1,1.2-1.9,2.4-.7,1.4-1.6,2.6-1.2,1.1-2.1,2.3-.7,1.4-1.6,2.6-1,1.2-1.9,2.4-.8,1.3-1.7,2.5-.6,1.5-1.7,2.5C1239.9,406.4,1238.8,406.3,1239.4,407.8Z"/><path class="k" d="M1272.6,385c-2.4-1.6-2.4-5,2.2-7.3,4.3-2.2,10-1.1,10.5,1.8.5,2.7-3.9,6.5-7.9,6.4-.2,3-1.9,6.4-2.8,9.4-.1.5-.9.9-1.5.9a37.41,37.41,0,0,1-9.8-1.5c-.3-.1-.4-.5-.1-.9C1265.2,391.7,1269.6,387.7,1272.6,385Z"/><path class="o" d="M1272.6,385c-.1-.1-.2-.1-.3-.2-1.3-1.8-.6-4.4,3.2-6.4,3.3-1.7,7.4-1.4,9.4.1a1.78,1.78,0,0,1,.4,1c.5,2.7-3.9,6.5-7.9,6.4-.2,3-1.9,6.4-2.8,9.4-.1.5-.9.9-1.5.9a44.29,44.29,0,0,1-9.4-1.3c0-.1.1-.2.2-.3,2-2.2,6.4-6.2,9.4-8.8-.3-.3-.6-.5-.7-.8Z"/><path class="k" d="M1283.7,373c1.2-.2.5,1.3-.6,1.1s-.3-1.3.8-1.3"/><path class="k" d="M1288.5,375.6c1.2-.2.5,1.3-.6,1.1s-.3-1.3.8-1.3"/><path class="k" d="M1289.4,379.4c1.3-.6,1.2,1,.1,1.2s-.8-1.1.2-1.2"/><path class="k" d="M1288.9,383.2c1-.2,1.4.8.3,1.2s-1.2-1,0-1.1"/><path class="k" d="M1287,387.6c1.2-.2.3,1.4-.4,1.3-.9,0-.5-1.4.6-1.3"/><path class="k" d="M1283.7,391.4c1-.2,1.5.8.3,1.2s-1.2-.8-.4-1.3c.3,0,.2.1.3.1"/><path class="k" d="M1279.6,395.1c1.1-.2.9,1-.1,1.1s-.5-.8.1-1.2c.4-.1,0,0,0,.1"/><path class="k" d="M1274.5,397.8c1.2-.2.4,1.4-.6,1.1-.7-.2-.2-1.3.6-1.1"/><path class="k" d="M1268.1,398.4c1.3-.1.9,1.5-.4,1.5-1.3-.2-.3-1.1.4-1.5"/><path class="k" d="M1262.1,397.2c1,0,.7,1.3-.5,1.2s0-1.6.5-1.2"/><path class="k" d="M1259.7,393.9c1.3-.8,1,.7.1.9-1.5.4-.5-1,0-1.3"/><path class="k" d="M1260.5,388.7c0-.1.1-.2.3-.2.7.3.5,1.7-.8,1.5-.7-.1-.6-1,.2-1.4"/><path class="k" d="M1262.7,384.4c.9-.6,1.5.6.5,1.1-1.3.7-1.3-.5-.5-1.1"/><path class="k" d="M1265.7,380.3c1.8-.4.9,1.5-.2,1.4-.9-.2-.5-1.3.5-1.5"/><path class="k" d="M1270.6,376.5c1.7-.3.9,1.7-.5,1.2-.8-.3-.2-1.2.7-1.5"/><path class="k" d="M1276.6,373.8c1.2-.2,1,1-.2,1.3-1.7.4-.5-.9.1-1.3"/><polygon class="l" points="1224.1 415.8 1280.4 441.9 1283.7 437.2 1227.5 411.1 1224.1 415.8"/><polygon class="i" points="1219.4 419.9 1280.6 448.2 1283.9 443.5 1283 441 1222.7 415.2 1218.5 417.3 1219.4 419.9"/><polygon class="l" points="1218.5 417.3 1279.7 445.7 1283 441 1221.8 412.6 1218.5 417.3"/><path class="p" d="M1308.7,379.3c.7.2,1,.5,1.6.3.7,2.1,2,2.3,3.3.4a6.56,6.56,0,0,0,1.9,3.9c2.4-2.3,4-.5,5.3,1.7,2.5-2.6,4.6.9,6.6,1.4.7.2,5.6.8,6.4.8,2.3-.1,3.5-.9,4.2-3.3,7,1.9,7.8,9.8,15.8,3.1.2.9,1.4,1.8,1.7,2.5,1.9-2.5,3.6-.1,5.8-.8,1.4-.4,1.6-2.6,3.1-3,.6-.2,2.2,1.8,2.9,1.9s3.2-1.2,4.1-1.3c1.6-.2,2.5.8,4.1.2,2.1-.8,4.5-4.2,4.5-6.3,4.5.3,9.7,2.7,10.4-3.8.3-3.2-2.6-6,2.6-8.1-4.4-.8-2.9-4.1-1.1-6.1s3.9-.2,4-4.5c0-3.4-3.4-4.4-4.2-7.2-.6-2,.4-2.5.5-4.5.1-4.6.3-2.6-3-5.2s-4.8-3.1-5.1-8.1c-6.2,2.2-5.4-3.9-6.5-7.3-.7-2-2.5-4.1-3.5-6.4-4.7,3.1-3.6-3.3-6.4-4.3-2-.7-1.1,1-2.8,1.5a35.19,35.19,0,0,0-4,1.8c-2,1.1-3.6,4.3-5.4,5-2,.8-2.6-2-4.3,0-.4.5.7,4,.1,5.1-.7,1.5-2.6,1.6-3.1,2.4-1.1,1.7-1.9,4.9-2.4,7-.7,3.2-.3,10.2,4.2,11.9-4.3,2.9,2.9,5.5,3.2,7.8.1.5-1.7,1.2-1.7,2,0,1,1.3,1.8,1.4,2.6.1,3.5.6.7-1.1,4-.4.8-1.7,3.9-2.4,4.4-1.6,1.1-2.1-.6-3.5-.2-3.3.8-4.3,3.1-5.8,6.2-3.3-4.3-3.5.3-6.5,1-2.8.7-4.1-2.3-6.5,1.5a15,15,0,0,1-2.7-3.4c-1.8,3.8-7.8,1.1-7.9-2.7-.3.3-.5.6-.8.9a15.26,15.26,0,0,1-3-.3"/><path class="p" d="M1373.3,319.1c1.2-6.6-4-2.5-6.1-4.2-2.8-2.3,1.7-7.3,1.3-9.8-.4-2.7-3.7-5.7-6-6.7-3.1,4.9-4.5-6.2-5.9-7.1s-3.4.3-4.9-.6-1.5-2.9-1.3-4.5.4-3.8-1-4.8c-.4.6-.8,1.2-1.2,1.7a5.23,5.23,0,0,1-2.2-3.5,29.84,29.84,0,0,1-.4-4.2,1.69,1.69,0,0,0-.3-1c-.6-.9-2-.7-3.1-.3a2.68,2.68,0,0,0-1.5,1,3.75,3.75,0,0,0-.1,1.1,6.74,6.74,0,0,1-1,3.4,4.35,4.35,0,0,1-.6.7c-.6.3-1.3-.2-1.6-.9a11.7,11.7,0,0,1-.5-2c.1,1.6-2.2,2-3,3.4s.1,3-.2,4.4c-.4,1.7-2.3,2.9-3.7,3.6-.1.1-4.1,2.5-2.2,3-4.2-1.2-2.9,2-4.3,3.9-2,2.8-5.6,3.9-4.3,8.1a9.29,9.29,0,0,0,1-.5,5.53,5.53,0,0,0-.4,4.5c.3.9,2.5,1,2.5,2.2,0,1.6-1.7,1.1-2.1,2.3-1.2,3.4-1.4,1.6.4,5.7.7,1.5,1.3,2,1,3.6.7-.3,1.9,0,2.8-.5.3,1.3,1.5,2.2,1.9,3.6s-.7,2.9-.4,3.8a35.19,35.19,0,0,0,4.4,6.5c2.2,1.9,3.2,1.3,6.4,1.3,0,3,.2,5.5,3,7.1,1.3.8,3.6.1,4.7.9s.6,1.7,1.3,2.4c2.8,2.7,5.8,5.9,4.9,10.2a2.84,2.84,0,0,1,.9-1"/></svg>