<svg xmlns="http://www.w3.org/2000/svg" width="1700" height="1474" viewBox="0 0 1700 1474"><defs><style>.a{fill:#fff697;stroke-width:1.64px;}.a,.b,.c,.d,.e,.f,.g,.k,.l,.m,.n,.p,.q{stroke:#da3915;}.a,.b,.c,.d,.e,.f,.g,.k,.l,.m,.n,.o,.p,.q{stroke-linecap:round;stroke-linejoin:round;}.b,.l,.n{fill:#fff;}.b,.c,.d,.e,.k{stroke-width:1.26px;}.c,.j{fill:#81cde4;}.d,.h,.p{fill:#e35450;}.e{fill:#fdd23e;}.f,.i{fill:#fff799;}.f,.g,.p,.q{stroke-width:1.22px;}.g{fill:#6eaccf;}.k{fill:none;}.l,.m{stroke-width:1.5px;}.m,.o{fill:#cae5cd;}.n,.o{stroke-width:1.26px;}.o{stroke:#d93915;}.q{fill:#fffbcc;}</style></defs><circle class="a" cx="215.4" cy="903.8" r="10"/><path class="b" d="M363.6,1225.2a22.43,22.43,0,0,1,6.4-7.6c1.2-.8,2.9-1.8,4.4-1.5s2.6,1,2.6,2.4c0,1.6,1.2.7,1.7-.3,2.4-4.4,6.1-7.1,8.2-6s1.8,5.7-.6,10.1a16.46,16.46,0,0,1-4,5.1,5.26,5.26,0,0,1-2.7,1.3c-1.8.1-1.9-2.1-3.2-1.6s-1.4,2.6-1.8,3.8c-1.4,4.5-6.7,12.1-12,9.2C359.7,1238.3,360,1231.7,363.6,1225.2Z"/><path class="c" d="M361,1223.8a22.43,22.43,0,0,1,6.4-7.6c1.2-.8,2.9-1.8,4.4-1.5s2.6,1,2.6,2.4c0,1.6,1.2.7,1.7-.3,2.4-4.4,6.1-7.1,8.2-6s1.8,5.7-.6,10.1a16.46,16.46,0,0,1-4,5.1,5.26,5.26,0,0,1-2.7,1.3c-1.8.1-1.9-2.1-3.2-1.6s-1.4,2.6-1.8,3.8c-1.4,4.5-6.7,12.1-12,9.2C357.1,1236.9,357.5,1230.3,361,1223.8Z"/><path class="d" d="M116,574.6c3.9,5.8,1.4,14.3-5.5,19s-15.8,3.9-19.7-1.9-1.4-14.3,5.5-19S112.1,568.9,116,574.6Zm-16.4,2.5c-3.4,2.3-4.6,6.5-2.7,9.3s6.3,3.3,9.7.9,4.6-6.5,2.7-9.3S103,574.8,99.6,577.1Z"/><path class="e" d="M113.6,571.1c3.9,5.8,1.4,14.3-5.5,19s-15.8,3.9-19.7-1.9-1.4-14.3,5.5-19S109.7,565.4,113.6,571.1Zm-15.5,3.8c-3.4,2.3-4.6,6.5-2.7,9.3s6.3,3.3,9.7.9,4.6-6.5,2.7-9.3S101.5,572.6,98.1,574.9Z"/><path class="f" d="M252.5,229.9c-8.5-.5-15,10.9-12.4,17.4,1.8,4.4,7.2,7.6,12.3,7.3,6.7-.3,15.8-4.1,19.8-10.4,4.2-6.5-.5-16.3-9.2-15.2A70.75,70.75,0,0,1,252.5,229.9Z"/><path class="g" d="M250.3,226c-8.5-.5-15,10.9-12.4,17.4,1.8,4.4,7.2,7.6,12.3,7.3,6.7-.3,15.8-4.1,19.8-10.4,4.2-6.5-.5-16.3-9.2-15.2A61.17,61.17,0,0,1,250.3,226Z"/><path class="h" d="M368.2,2.1c4.2.3,7.7,3.5,5.8,9.4-2.6,8.3-7.5,13.8-14.8,18.2-3.1,1.9-7.3,3.7-11,3.1-3.5-.6-4.4-3.4-4.2-6.4h.4c1.6,6.7,13.1-2.2,15.2-4.3,3.9-3.9,8.5-9.3,9.9-14.6.4-1.7,1.1-5-1.3-5.4Z"/><path class="i" d="M368.2,2.1c2.4.4,1.7,3.7,1.3,5.3-1.4,5.4-5.9,10.7-9.9,14.6-2.1,2.1-13.6,11-15.2,4.3H344a15.29,15.29,0,0,1,1.2-5c3.6-8.2,10.7-16.7,19.8-19a8.52,8.52,0,0,1,3.2-.2Zm-10,13.2c1.3-1.2,3.6-3.4,4-5.2-3,.3-5.8,3.3-7.7,5.5a15,15,0,0,0-1.9,2.5c-.2.4-.4,1.1-.5,1.3h0C354.3,19,356.6,16.8,358.2,15.3Z"/><path class="j" d="M362.1,10.2c-.4,1.8-2.7,4-4,5.2-1.6,1.5-3.8,3.6-6.1,4.1.1-.2.3-.9.5-1.3a9.2,9.2,0,0,1,1.9-2.5C356.3,13.5,359.2,10.4,362.1,10.2Z"/><path class="j" d="M352.1,19.4c0,.1-.1.1,0,0Z"/><path class="k" d="M368.2,2.1c4.2.3,7.7,3.5,5.8,9.4-2.6,8.3-7.5,13.8-14.8,18.2-3.1,1.9-7.3,3.7-11,3.1-3.5-.6-4.4-3.4-4.2-6.4a15.29,15.29,0,0,1,1.2-5c3.6-8.2,10.7-16.7,19.8-19A6.88,6.88,0,0,1,368.2,2.1Z"/><path class="k" d="M352.1,19.4c2.2-.4,4.5-2.6,6.1-4.1,1.3-1.2,3.6-3.4,4-5.2-3,.3-5.8,3.3-7.7,5.5a15,15,0,0,0-1.9,2.5C352.4,18.6,352.2,19.2,352.1,19.4Z"/><path class="k" d="M352.1,19.4c0,.1-.1.1,0,0Z"/><path class="k" d="M350.7,19.3c1.9,1.5,4.3-.4,5.6-1.5a24.18,24.18,0,0,0,6.1-7.4,9.57,9.57,0,0,0,1.1-4.7"/><path class="k" d="M344.4,26.4c1.6,6.7,13.1-2.2,15.2-4.3,3.9-3.9,8.5-9.3,9.9-14.6.4-1.6,1.1-4.9-1.3-5.3"/><path class="l" d="M1393.4,727.8a28.81,28.81,0,0,0,11.6-4.4c1.5-1.1,3.4-2.7,3.6-4.6s-.2-3.5-1.7-4c-1.9-.6-.4-1.7,1-1.9,6.2-1,10.9-4.3,10.4-7.2s-5.9-4.5-12.1-3.4a20.81,20.81,0,0,0-7.6,2.6,7.2,7.2,0,0,0-2.6,2.6c-.9,2,1.7,3.1.6,4.4-1.2,1.5-3.6.6-5.2.5-5.9-.2-17,3-15.7,10.4C1376.4,727.1,1384.3,729.3,1393.4,727.8Z"/><path class="m" d="M1394,731.3a28.81,28.81,0,0,0,11.6-4.4c1.5-1.1,3.4-2.7,3.6-4.6s-.2-3.5-1.7-4c-1.9-.6-.4-1.7,1-1.9,6.2-1,10.9-4.3,10.4-7.2s-5.9-4.5-12.1-3.4a20.81,20.81,0,0,0-7.6,2.6,7.2,7.2,0,0,0-2.6,2.6c-.9,2,1.7,3.1.6,4.4-1.2,1.5-3.6.6-5.2.5-5.9-.2-17,3-15.7,10.4C1376.9,730.6,1384.9,732.9,1394,731.3Z"/><ellipse class="n" cx="1311.77" cy="1129.14" rx="7.7" ry="5.1" transform="translate(-413.98 1261.45) rotate(-45.11)"/><ellipse class="o" cx="1309.72" cy="1127.14" rx="7.7" ry="5.1" transform="translate(-413.16 1259.41) rotate(-45.11)"/><path class="p" d="M1236.9,92.5a13.79,13.79,0,0,0-5.7,2.8c-1.8,1.7-3.6,5-3.2,7.3.6,3.6,6.6,5.9,10.1,5.6,5.7-.4,11.8-4.2,13.1-9.8.9-3.6-.7-5.8-4.1-6.7C1244.8,91.1,1240.6,91.4,1236.9,92.5Z"/><path class="q" d="M1236.8,96a13.79,13.79,0,0,0-5.7,2.8c-1.8,1.7-3.6,5-3.2,7.3.6,3.6,6.6,5.9,10.1,5.6,5.7-.4,11.8-4.2,13.1-9.8.9-3.6-.7-5.8-4.1-6.7C1244.7,94.6,1240.4,95,1236.8,96Z"/></svg>