<svg xmlns="http://www.w3.org/2000/svg" width="900" height="1400" viewBox="0 0 900 1400"><defs><style>.a,.e{fill:#fff;}.a,.c,.d,.e,.f,.g,.i,.j,.m,.n{stroke:#da3915;}.a,.b,.c,.d,.e,.f,.g,.i,.j,.m,.n{stroke-linecap:round;stroke-linejoin:round;}.a,.b{stroke-width:1.26px;}.b,.n{fill:#cae5cd;}.b{stroke:#d93915;}.c,.d,.m{fill:#d93915;}.c,.e,.f{stroke-width:1.26px;}.d{stroke-width:1.26px;}.f,.h,.j{fill:#fff799;}.g{fill:#e35450;}.g,.i,.j,.m,.n{stroke-width:1.2px;}.i{fill:none;}.k{fill:#81cde4;}.l{fill:#fffbcc;}</style></defs><ellipse class="a" cx="760.08" cy="861.93" rx="7.7" ry="5.1" transform="translate(-386.98 792.02) rotate(-45.11)"/><ellipse class="b" cx="757.97" cy="859.86" rx="7.7" ry="5.1" transform="translate(-386.14 789.91) rotate(-45.11)"/><circle class="c" cx="813.2" cy="930.3" r="4.5"/><ellipse class="d" cx="723.44" cy="930.01" rx="4.2" ry="2.2" transform="translate(-434.97 1145.38) rotate(-62.65)"/><circle class="e" cx="885.6" cy="779.4" r="7.7"/><circle class="f" cx="883.5" cy="780.3" r="7.7"/><ellipse class="a" cx="750.7" cy="1331.55" rx="7.7" ry="5.1" transform="translate(-722.43 923.53) rotate(-45.11)"/><ellipse class="b" cx="748.65" cy="1329.41" rx="7.7" ry="5.1" transform="translate(-721.51 921.46) rotate(-45.11)"/><circle class="c" cx="761.8" cy="1370.8" r="4.5"/><polygon class="g" points="636.4 169.1 692.6 195.2 695.9 190.5 695 188 639.7 164.4 635.5 166.6 636.4 169.1"/><path class="g" d="M642.3,168.6l48.6,22.5,36.3-51.3c17.1-24.2-31.4-46.7-48.6-22.5l-37.4,49Z"/><path class="h" d="M641,166.3c1.4,5.2,5,2.3,9.9,4.5s4.9,2,9.8,4.3,4.8,2.3,9.7,4.6,4.8,2.4,9.7,4.6,4.6,5.8,9.7,4.5,3.1-4.2,6.2-8.5,3.1-4.2,6.1-8.5,2.8-4.5,5.8-8.7,3.3-4.1,6.3-8.4l6-8.6c3-4.3,2.8-4.4,5.8-8.7a18.09,18.09,0,0,0,3.6-10.2A16.91,16.91,0,0,0,726,117a26.7,26.7,0,0,0-8.2-7.4,35.89,35.89,0,0,0-10.4-3.8,34,34,0,0,0-11-1,28.06,28.06,0,0,0-10.6,3,22.84,22.84,0,0,0-8.4,7.1c-3,4.3-2.8,4.4-5.8,8.7l-6,8.6c-3,4.3-3.2,4.1-6.3,8.4s-2.8,4.4-5.8,8.7-2.1,5.1-6,8.6C643,161.6,639.6,161.3,641,166.3Z"/><path class="i" d="M641,166.3c1.4,5.2,5,2.3,9.9,4.5s4.9,2,9.8,4.3,4.8,2.3,9.7,4.6,4.8,2.4,9.7,4.6,4.6,5.8,9.7,4.5,3.1-4.2,6.2-8.5,3.1-4.2,6.1-8.5,2.8-4.5,5.8-8.7,3.3-4.1,6.3-8.4l6-8.6c3-4.3,2.8-4.4,5.8-8.7a18.09,18.09,0,0,0,3.6-10.2A16.91,16.91,0,0,0,726,117a26.7,26.7,0,0,0-8.2-7.4,35.89,35.89,0,0,0-10.4-3.8,34,34,0,0,0-11-1,28.06,28.06,0,0,0-10.6,3,22.84,22.84,0,0,0-8.4,7.1c-3,4.3-2.8,4.4-5.8,8.7l-6,8.6c-3,4.3-3.2,4.1-6.3,8.4s-2.8,4.4-5.8,8.7-2.1,5.1-6,8.6C643,161.6,639.6,161.3,641,166.3Z"/><path class="g" d="M646.6,165l41.8,19.4,33.3-47.1c15.7-22.2-26.1-41.6-41.8-19.4Z"/><path class="j" d="M645.5,163.6l46.2,7.1,31.5-45c14.1-21.6-31.4-27.9-46.2-7.1l-32.1,42.5Z"/><path class="k" d="M644.8,161.1c.6,1.4,1.5.3,3.1.5s1.5,0,3.1.2,1.5.5,3,.7,1.5.1,3.1.3,1.5.2,3,.5,1.5.3,3,.5,1.5.3,3,.5,1.6-.1,3.1.1l3,.4c1.5.2,1.5.4,3,.6l3,.4c1.5.2,1.5.1,3.1.3l3,.4c1.5.2,1.5.4,3,.6s1.6.8,3,.2,1-1,1.8-2.3,1-1.1,1.9-2.4.8-1.2,1.7-2.5.7-1.4,1.5-2.6,1-1.1,1.9-2.4.8-1.3,1.7-2.5.8-1.3,1.7-2.5,1.1-1.1,2-2.3a22,22,0,0,0,1.7-2.5c.9-1.2.7-1.3,1.6-2.6s.8-1.3,1.7-2.5,1.1-1.1,2-2.3.8-1.3,1.7-2.5L715,133c.9-1.2.8-1.3,1.6-2.5s.7-1.3,1.6-2.6l1.8-2.4c.9-1.2,1-1.2,1.8-2.4a15.84,15.84,0,0,0,1.6-2.7,13.75,13.75,0,0,0,1.2-2.9,11.73,11.73,0,0,0,.2-3.2,7.62,7.62,0,0,0-1.3-2.9,9.31,9.31,0,0,0-1.8-2.6,10,10,0,0,0-2.6-1.8,20.92,20.92,0,0,0-3-1.1,21.33,21.33,0,0,0-3-.9,28.37,28.37,0,0,0-3.1-.6c-1-.1-2-.5-3.1-.6s-2.1.2-3.2.2-2.1,0-3.1.1-2.1.2-3.1.4-2.1.2-3.1.4-2,.8-3,1.1a24.88,24.88,0,0,0-2.9,1.1,25.15,25.15,0,0,0-2.9,1.2c-.9.5-1.7,1.3-2.6,1.8s-1.7,1.3-2.5,1.9-1.5,1.5-2.2,2.2a23.91,23.91,0,0,0-2.2,2.3c-.9,1.2-.8,1.3-1.6,2.5s-1,1.1-1.9,2.3-.6,1.4-1.5,2.6-1.2,1-2,2.2-.7,1.4-1.6,2.6-1,1.1-1.9,2.4-.8,1.3-1.7,2.5-.8,1.3-1.7,2.5-1,1.2-1.8,2.4-.8,1.3-1.6,2.5-.8,1.3-1.7,2.5l-1.8,2.4c-.9,1.2-1,1.1-1.9,2.4s-.8,1.3-1.7,2.5-1,1.2-1.9,2.4-.7,1.3-1.6,2.6-.7,1.4-1.9,2.4C645.3,159.7,644.2,159.7,644.8,161.1Z"/><path class="i" d="M644.8,161.1c.6,1.4,1.5.3,3.1.5s1.5,0,3.1.2,1.5.5,3,.7,1.5.1,3.1.3,1.5.2,3,.5,1.5.3,3,.5,1.5.3,3,.5,1.6-.1,3.1.1l3,.4c1.5.2,1.5.4,3,.6l3,.4c1.5.2,1.5.1,3.1.3l3,.4c1.5.2,1.5.4,3,.6s1.6.8,3,.2,1-1,1.8-2.3,1-1.1,1.9-2.4.8-1.2,1.7-2.5.7-1.4,1.5-2.6,1-1.1,1.9-2.4.8-1.3,1.7-2.5.8-1.3,1.7-2.5,1.1-1.1,2-2.3a22,22,0,0,0,1.7-2.5c.9-1.2.7-1.3,1.6-2.6s.8-1.3,1.7-2.5,1.1-1.1,2-2.3.8-1.3,1.7-2.5L715,133c.9-1.2.8-1.3,1.6-2.5s.7-1.3,1.6-2.6l1.8-2.4c.9-1.2,1-1.2,1.8-2.4a15.84,15.84,0,0,0,1.6-2.7,13.75,13.75,0,0,0,1.2-2.9,11.73,11.73,0,0,0,.2-3.2,7.62,7.62,0,0,0-1.3-2.9,9.31,9.31,0,0,0-1.8-2.6,10,10,0,0,0-2.6-1.8,20.92,20.92,0,0,0-3-1.1,21.33,21.33,0,0,0-3-.9,28.37,28.37,0,0,0-3.1-.6c-1-.1-2-.5-3.1-.6s-2.1.2-3.2.2-2.1,0-3.1.1-2.1.2-3.1.4-2.1.2-3.1.4-2,.8-3,1.1a24.88,24.88,0,0,0-2.9,1.1,25.15,25.15,0,0,0-2.9,1.2c-.9.5-1.7,1.3-2.6,1.8s-1.7,1.3-2.5,1.9-1.5,1.5-2.2,2.2a23.91,23.91,0,0,0-2.2,2.3c-.9,1.2-.8,1.3-1.6,2.5s-1,1.1-1.9,2.3-.6,1.4-1.5,2.6-1.2,1-2,2.2-.7,1.4-1.6,2.6-1,1.1-1.9,2.4-.8,1.3-1.7,2.5-.8,1.3-1.7,2.5-1,1.2-1.8,2.4-.8,1.3-1.6,2.5-.8,1.3-1.7,2.5l-1.8,2.4c-.9,1.2-1,1.1-1.9,2.4s-.8,1.3-1.7,2.5-1,1.2-1.9,2.4-.7,1.3-1.6,2.6-.7,1.4-1.9,2.4C645.3,159.7,644.2,159.7,644.8,161.1Z"/><path class="l" d="M650.7,158.5c.6,1.4,1.5.2,3,.5s1.5,0,3,.2,1.5.5,2.9.7,1.5.1,3,.3l3,.4c1.5.2,1.5.3,3,.5s1.5.3,3,.5,1.5-.1,3,.1l3,.4c1.5.2,1.5.3,3,.5l3,.4c1.5.2,1.5.1,3,.3s1.5,1,2.9.4,1-1.1,1.9-2.4.8-1.4,1.6-2.6a22.26,22.26,0,0,0,1.9-2.4c.9-1.2,1-1.2,1.9-2.4s.9-1.3,1.8-2.5.7-1.4,1.6-2.6,1-1.2,1.9-2.4.8-1.3,1.7-2.5.8-1.3,1.7-2.5,1.1-1.1,2-2.3.9-1.2,1.8-2.5.8-1.4,1.6-2.6.8-1.3,1.7-2.5,1.1-1.1,2-2.3.9-1.3,1.8-2.5,1-1.2,1.9-2.5a12.75,12.75,0,0,0,1.5-2.8,9.21,9.21,0,0,0,.7-3,6.47,6.47,0,0,0-.3-3.1,7.2,7.2,0,0,0-1.5-2.7,9.7,9.7,0,0,0-2.5-1.9,12.22,12.22,0,0,0-2.8-1.4,21.33,21.33,0,0,0-3-.9c-1-.2-2.1-.1-3.1-.3a29.09,29.09,0,0,0-3.1-.4c-1,0-2.1,0-3.1.1s-2,.4-3.1.6l-3,.6c-1,.3-2,.5-3,.8a17.6,17.6,0,0,0-3,1,20.07,20.07,0,0,0-2.7,1.7,23.26,23.26,0,0,0-2.6,1.7,22.91,22.91,0,0,0-2.3,2.1,24.42,24.42,0,0,0-2.2,2.3c-.9,1.2-.7,1.4-1.6,2.6s-.9,1.3-1.8,2.5-1.1,1.1-2,2.4-.7,1.4-1.6,2.6-.9,1.3-1.8,2.5-.8,1.3-1.7,2.5-1.1,1.1-2,2.4-.8,1.3-1.7,2.6-1,1.2-1.9,2.4-.7,1.4-1.6,2.6-1.2,1.1-2.1,2.3-.7,1.4-1.6,2.6-1,1.2-1.9,2.4-.8,1.3-1.7,2.5-.6,1.5-1.7,2.5C651.2,157.2,650.1,157.1,650.7,158.5Z"/><path class="i" d="M650.7,158.5c.6,1.4,1.5.2,3,.5s1.5,0,3,.2,1.5.5,2.9.7,1.5.1,3,.3l3,.4c1.5.2,1.5.3,3,.5s1.5.3,3,.5,1.5-.1,3,.1l3,.4c1.5.2,1.5.3,3,.5l3,.4c1.5.2,1.5.1,3,.3s1.5,1,2.9.4,1-1.1,1.9-2.4.8-1.4,1.6-2.6a22.26,22.26,0,0,0,1.9-2.4c.9-1.2,1-1.2,1.9-2.4s.9-1.3,1.8-2.5.7-1.4,1.6-2.6,1-1.2,1.9-2.4.8-1.3,1.7-2.5.8-1.3,1.7-2.5,1.1-1.1,2-2.3.9-1.2,1.8-2.5.8-1.4,1.6-2.6.8-1.3,1.7-2.5,1.1-1.1,2-2.3.9-1.3,1.8-2.5,1-1.2,1.9-2.5a12.75,12.75,0,0,0,1.5-2.8,9.21,9.21,0,0,0,.7-3,6.47,6.47,0,0,0-.3-3.1,7.2,7.2,0,0,0-1.5-2.7,9.7,9.7,0,0,0-2.5-1.9,12.22,12.22,0,0,0-2.8-1.4,21.33,21.33,0,0,0-3-.9c-1-.2-2.1-.1-3.1-.3a29.09,29.09,0,0,0-3.1-.4c-1,0-2.1,0-3.1.1s-2,.4-3.1.6l-3,.6c-1,.3-2,.5-3,.8a17.6,17.6,0,0,0-3,1,20.07,20.07,0,0,0-2.7,1.7,23.26,23.26,0,0,0-2.6,1.7,22.91,22.91,0,0,0-2.3,2.1,24.42,24.42,0,0,0-2.2,2.3c-.9,1.2-.7,1.4-1.6,2.6s-.9,1.3-1.8,2.5-1.1,1.1-2,2.4-.7,1.4-1.6,2.6-.9,1.3-1.8,2.5-.8,1.3-1.7,2.5-1.1,1.1-2,2.4-.8,1.3-1.7,2.6-1,1.2-1.9,2.4-.7,1.4-1.6,2.6-1.2,1.1-2.1,2.3-.7,1.4-1.6,2.6-1,1.2-1.9,2.4-.8,1.3-1.7,2.5-.6,1.5-1.7,2.5C651.2,157.2,650.1,157.1,650.7,158.5Z"/><path class="i" d="M683.9,135.8c-2.4-1.6-2.4-5,2.2-7.3,4.3-2.2,10-1.1,10.5,1.8.5,2.7-3.9,6.5-7.9,6.4-.2,3-1.9,6.4-2.8,9.4-.1.5-.9.9-1.5.9a37.41,37.41,0,0,1-9.8-1.5c-.3-.1-.4-.5-.1-.9C676.5,142.4,680.9,138.4,683.9,135.8Z"/><path class="m" d="M683.9,135.8c-.1-.1-.2-.1-.3-.2-1.3-1.8-.6-4.4,3.2-6.4,3.3-1.7,7.4-1.4,9.4.1a1.78,1.78,0,0,1,.4,1c.5,2.7-3.9,6.5-7.9,6.4-.2,3-1.9,6.4-2.8,9.4-.1.5-.9.9-1.5.9a44.29,44.29,0,0,1-9.4-1.3c0-.1.1-.2.2-.3,2-2.2,6.4-6.2,9.4-8.8-.3-.3-.6-.5-.7-.8Z"/><path class="i" d="M695,123.8c1.2-.2.5,1.3-.6,1.1s-.3-1.3.8-1.3"/><path class="i" d="M699.8,126.4c1.2-.2.5,1.3-.6,1.1s-.3-1.3.8-1.3"/><path class="i" d="M700.7,130.2c1.3-.6,1.2,1,.1,1.2s-.8-1.1.2-1.2"/><path class="i" d="M700.2,134c1-.2,1.4.8.3,1.2s-1.2-1,0-1.1"/><path class="i" d="M698.3,138.4c1.2-.2.3,1.4-.4,1.3-.9,0-.5-1.4.6-1.3"/><path class="i" d="M695,142.2c1-.2,1.5.8.3,1.2s-1.2-.8-.4-1.3c.3,0,.2.1.3.1"/><path class="i" d="M691,145.8c1.1-.2.9,1-.1,1.1s-.5-.8.1-1.2c.3,0-.1.1,0,.1"/><path class="i" d="M685.8,148.5c1.2-.2.4,1.4-.6,1.1-.7-.2-.2-1.2.6-1.1"/><path class="i" d="M679.4,149.1c1.3-.1.9,1.5-.4,1.5s-.3-1.1.4-1.5"/><path class="i" d="M673.4,148c1,0,.7,1.3-.5,1.2s.1-1.6.5-1.2"/><path class="i" d="M671,144.6c1.3-.8,1,.7.1.9-1.5.4-.5-1,0-1.3"/><path class="i" d="M671.8,139.5c0-.1.1-.2.3-.2.7.3.5,1.7-.8,1.5-.7-.1-.6-1,.2-1.4"/><path class="i" d="M674,135.2c.9-.6,1.5.6.5,1.1-1.3.7-1.3-.5-.5-1.1"/><path class="i" d="M677.1,131c1.8-.4.9,1.5-.2,1.4-.9-.2-.5-1.3.5-1.5"/><path class="i" d="M681.9,127.3c1.7-.3.9,1.7-.5,1.2-.8-.3-.2-1.2.7-1.5"/><path class="i" d="M688,124.5c1.2-.2,1,1-.2,1.3-1.7.4-.5-.9.1-1.3"/><polygon class="j" points="635.5 166.6 691.7 192.6 695 188 638.8 161.9 635.5 166.6"/><polygon class="g" points="630.7 170.7 691.9 199 695.2 194.3 694.3 191.8 634 166 629.8 168.1 630.7 170.7"/><polygon class="j" points="629.8 168.1 691 196.4 694.3 191.8 633.1 163.4 629.8 168.1"/><path class="n" d="M720,130.1c.7.2,1,.5,1.6.3.7,2.1,2,2.3,3.3.4a6.56,6.56,0,0,0,1.9,3.9c2.4-2.3,4-.5,5.3,1.7,2.5-2.6,4.6.9,6.6,1.4.7.2,5.6.8,6.4.8,2.3-.1,3.5-.9,4.2-3.3,7,1.9,7.8,9.8,15.8,3.1.2.9,1.4,1.8,1.7,2.5,1.9-2.5,3.6-.1,5.8-.8,1.4-.4,1.6-2.6,3.1-3,.6-.2,2.2,1.8,2.9,1.9s3.2-1.2,4.1-1.3c1.6-.2,2.5.8,4.1.2,2.1-.8,4.5-4.2,4.5-6.3,4.5.3,9.7,2.7,10.4-3.8.3-3.2-2.6-6,2.6-8.1-4.4-.8-2.9-4.1-1.1-6.1s3.9-.2,4-4.5c0-3.4-3.4-4.4-4.2-7.2-.6-2,.4-2.5.5-4.5.1-4.6.3-2.6-3-5.2s-4.8-3.1-5.1-8.1c-6.2,2.2-5.4-3.9-6.5-7.3-.7-2-2.5-4.1-3.5-6.4-4.7,3.1-3.6-3.3-6.4-4.3-2-.7-1.1,1-2.8,1.5a35.19,35.19,0,0,0-4,1.8c-2,1.1-3.6,4.3-5.4,5-2,.8-2.6-2-4.3,0-.4.5.7,4,.1,5.1-.7,1.5-2.6,1.6-3.1,2.4-1.1,1.7-1.9,4.9-2.4,7-.7,3.2-.3,10.2,4.2,11.9-4.3,2.9,2.9,5.5,3.2,7.8.1.5-1.7,1.2-1.7,2,0,1,1.3,1.8,1.4,2.6.1,3.5.6.7-1.1,4-.4.8-1.7,3.9-2.4,4.4-1.6,1.1-2.1-.6-3.5-.2-3.3.8-4.3,3.1-5.8,6.2-3.3-4.3-3.5.3-6.5,1-2.8.7-4.1-2.3-6.5,1.5a15,15,0,0,1-2.7-3.4c-1.8,3.8-7.8,1.1-7.9-2.7-.3.3-.5.6-.8.9a15.26,15.26,0,0,1-3-.3"/><path class="n" d="M784.6,69.9c1.2-6.6-4-2.5-6.1-4.2-2.8-2.3,1.7-7.3,1.3-9.8-.4-2.7-3.7-5.7-6-6.7-3.1,4.9-4.5-6.2-5.9-7.1s-3.4.3-4.9-.6-1.5-2.9-1.3-4.5.4-3.8-1-4.8c-.4.6-.8,1.2-1.2,1.7a5.23,5.23,0,0,1-2.2-3.5,29.84,29.84,0,0,1-.4-4.2,1.69,1.69,0,0,0-.3-1c-.6-.9-2-.7-3.1-.3a2.68,2.68,0,0,0-1.5,1,3.75,3.75,0,0,0-.1,1.1,6.74,6.74,0,0,1-1,3.4,4.35,4.35,0,0,1-.6.7c-.6.3-1.3-.2-1.6-.9a11.7,11.7,0,0,1-.5-2c.1,1.6-2.2,2-3,3.4s.1,3-.2,4.4c-.4,1.7-2.3,2.9-3.7,3.6-.1.1-4.1,2.5-2.2,3-4.2-1.2-2.9,2-4.3,3.9-2,2.8-5.6,3.9-4.3,8.1a9.29,9.29,0,0,0,1-.5,5.53,5.53,0,0,0-.4,4.5c.3.9,2.5,1,2.5,2.2,0,1.6-1.7,1.1-2.1,2.3-1.2,3.4-1.4,1.6.4,5.7.7,1.5,1.3,2,1,3.6.7-.3,1.9,0,2.8-.5.3,1.3,1.5,2.2,1.9,3.6s-.7,2.9-.4,3.8a35.19,35.19,0,0,0,4.4,6.5c2.2,1.9,3.2,1.3,6.4,1.3,0,3,.2,5.5,3,7.1,1.3.8,3.6.1,4.7.9s.6,1.7,1.3,2.4c2.8,2.7,5.8,5.9,4.9,10.2a2.84,2.84,0,0,1,.9-1"/><path class="j" d="M669.5,127.5s.2,2.4.8,6.5a13,13,0,0,1-4.2-.8c-.3-1.2-1.2-2.3-1.4-3.4-.7.7-2,1.1-2.7,1.8a58.45,58.45,0,0,0-.4-5.9,53.51,53.51,0,0,0-5.5-1.1,41.94,41.94,0,0,0,.6,4.8l-6.2-1.8c-.2-2.2-.9-3.8-.9-5.8m-15.7-4.9s-.1,10.6-8.9,9.7c-10.8-1.1-13.8-10.7-14-16-.3-6.9,3.7-13.9,12.5-11,5.5,1.8,9.4,7.1,9.9,11.7m-4.2,4.2c.9-3.4-2.4-10.8-8.1-10.7-5.2.1-5.5,4.6-4.8,9.4C617.6,123.3,629.9,125,629.2,115.5Z"/><path class="j" d="M669,126.7s.2,4,.8,8.2a13,13,0,0,1-4.2-.8c-.3-1.2-1.2-2.3-1.4-3.4-.7.7-2,1.1-2.7,1.8a58.45,58.45,0,0,0-.4-5.9,53.51,53.51,0,0,0-5.5-1.1,41.94,41.94,0,0,0,.6,4.8l-6.2-1.8c-.2-2.2-.9-3.8-.9-5.8"/><path class="h" d="M632.6,117.3c1,.2,2.1.4,3.2.7s2.1.4,3.1.8,2,.7,3.1,1.1,2,.7,3,1.1,2,.7,3.1,1.1l3.1.9a19.75,19.75,0,0,1,2.6.8c.9.3,1.8.5,2.6.8a26.81,26.81,0,0,0,2.7.7,25.82,25.82,0,0,0,2.6.8,25.25,25.25,0,0,1,2.9,1,8.87,8.87,0,0,0,3,.6,3,3,0,0,0,2.5-1.9,2.74,2.74,0,0,0-.6-3.1,4.59,4.59,0,0,0-2.2-1.1c-.9-.2-1.8-.3-2.5-.5-1.1-.3-2.2-.5-3.3-.8l-3.3-.9c-1.1-.3-2.2-.7-3.3-.9l-3-.9-3-.9c-1-.3-2-.5-3-.8s-2-.7-3-1-2-.5-3-.8-2-.8-2.9-1.1l-3-.9"/><path class="i" d="M632.6,117.3c1,.2,2.1.4,3.2.7s2.1.4,3.1.8,2,.7,3.1,1.1,2,.7,3,1.1,2,.7,3.1,1.1l3.1.9a19.75,19.75,0,0,1,2.6.8c.9.3,1.8.5,2.6.8a26.81,26.81,0,0,0,2.7.7,25.82,25.82,0,0,0,2.6.8,25.25,25.25,0,0,1,2.9,1,8.87,8.87,0,0,0,3,.6,3,3,0,0,0,2.5-1.9,2.74,2.74,0,0,0-.6-3.1,4.59,4.59,0,0,0-2.2-1.1c-.9-.2-1.8-.3-2.5-.5-1.1-.3-2.2-.5-3.3-.8l-3.3-.9c-1.1-.3-2.2-.7-3.3-.9l-3-.9-3-.9c-1-.3-2-.5-3-.8s-2-.7-3-1-2-.5-3-.8-2-.8-2.9-1.1l-3-.9"/></svg>