<?xml version="1.0" encoding="utf-8"?>
<!-- Generator: Adobe Illustrator 25.2.1, SVG Export Plug-In . SVG Version: 6.00 Build 0)  -->
<svg version="1.1" id="レイヤー_1" xmlns="http://www.w3.org/2000/svg" xmlns:xlink="http://www.w3.org/1999/xlink" x="0px"
	 y="0px" viewBox="0 0 328 294" style="enable-background:new 0 0 328 294;" xml:space="preserve">
<style type="text/css">
	.st0{fill:none;}
	.st1{fill:#D6566A;}
	.st2{fill:#DA686D;}
	.st3{fill:#E99A97;}
	.st4{fill:#E3898E;}
	.st5{fill:#E89EA6;}
	.st6{fill:#E2907B;}
	.st7{fill:#E69E9B;}
	.st8{fill:#D76381;}
	.st9{fill:#DE7B91;}
	.st10{fill:#D9728A;}
	.st11{fill:#D75C80;}
	.st12{fill:#D4526B;}
	.st13{fill:#C82F69;}
	.st14{fill:#D65F82;}
	.st15{fill:#D97C6E;}
	.st16{fill:#D35566;}
	.st17{fill:#D4506A;}
	.st18{fill:#DB5776;}
	.st19{fill:#D14C79;}
	.st20{fill:#CD415C;}
	.st21{fill:#D02852;}
	.st22{fill:#D13868;}
	.st23{fill:#B62652;}
	.st24{fill:#9F1D53;}
	.st25{fill:#82174B;}
	.st26{fill:#A22162;}
	.st27{fill:#B1176F;}
	.st28{fill:#C32663;}
	.st29{fill:#D12D73;}
	.st30{fill:#CC2658;}
	.st31{fill:#BD1F4E;}
	.st32{fill:#C21D63;}
	.st33{fill:#C9196E;}
	.st34{fill:#D53C6C;}
	.st35{fill:#D32D59;}
	.st36{fill:#CA3760;}
	.st37{fill:#CA286E;}
	.st38{fill:#C82468;}
	.st39{fill:#D6447F;}
	.st40{fill:#DF7580;}
	.st41{fill:#CF3382;}
	.st42{opacity:0.5;}
	.st43{fill:none;stroke:#FFFFFF;stroke-width:0.4865;stroke-linecap:round;stroke-linejoin:round;stroke-miterlimit:10;}
	.st44{fill:#FFFFFF;}
	.st45{fill:none;stroke:#FFFFFF;stroke-width:2.4971;stroke-linecap:round;stroke-miterlimit:10;}
</style>
<g>
	<g>
		<g>
			<polyline class="st0" points="164.3,35.3 123.1,6.6 85.8,0.3 23.9,35.3 1,118 42.6,207 104.2,264 164.3,293.4 			"/>
			<polygon class="st0" points="164.3,35.3 107.3,49.7 123.1,6.6 			"/>
			<polygon class="st1" points="164.3,35.3 164.3,83.4 107.3,49.7 			"/>
			<polygon class="st0" points="73.8,67.4 164.3,143.3 164.3,83.4 			"/>
			<polygon class="st2" points="107.3,49.7 85.8,0.3 123.1,6.6 			"/>
			<polygon class="st3" points="73.8,67.4 23.9,35.3 85.8,0.3 			"/>
			<polygon class="st4" points="73.8,67.4 44.7,107.4 23.9,35.3 			"/>
			<polygon class="st5" points="44.7,107.4 1,118 23.9,35.3 			"/>
			<polygon class="st6" points="44.7,107.4 50.6,164.8 1,118 			"/>
			<polygon class="st7" points="1,118 50.6,164.8 42.6,207 			"/>
			<polygon class="st8" points="42.6,207 50.6,164.8 87.6,215.1 			"/>
			<polygon class="st9" points="50.6,164.8 94.9,157.9 44.7,107.4 			"/>
			<polygon class="st10" points="94.9,157.9 73.8,67.4 44.7,107.4 			"/>
			<polygon class="st11" points="94.9,157.9 164.3,143.3 73.8,67.4 			"/>
			<polyline class="st0" points="164.3,143.3 94.9,157.9 147.6,221.7 			"/>
			<polygon class="st12" points="94.9,157.9 87.6,215.1 50.6,164.8 			"/>
			<polygon class="st13" points="104.2,264 147.6,221.7 164.3,293.4 			"/>
			<polygon class="st14" points="87.6,215.1 147.6,221.7 94.9,157.9 			"/>
			<polygon class="st15" points="73.8,67.4 107.3,49.7 85.8,0.3 			"/>
			<polygon class="st16" points="73.8,67.4 107.3,49.7 164.3,83.4 			"/>
			<polygon class="st17" points="164.3,35.3 221.4,49.7 205.6,6.6 			"/>
			<polygon class="st18" points="164.3,35.3 164.3,83.4 221.4,49.7 			"/>
			<polygon class="st19" points="254.9,67.4 164.3,143.3 164.3,83.4 			"/>
			<polygon class="st20" points="221.4,49.7 242.9,0.3 205.6,6.6 			"/>
			<polygon class="st21" points="254.9,67.4 304.7,35.3 242.9,0.3 			"/>
			<polygon class="st22" points="254.9,67.4 283.9,107.4 304.7,35.3 			"/>
			<polygon class="st23" points="283.9,107.4 327.7,118 304.7,35.3 			"/>
			<polygon class="st24" points="283.9,107.4 280.2,179.3 327.7,118 			"/>
			<polygon class="st25" points="327.7,118 280.2,179.3 286,207 			"/>
			<polygon class="st26" points="286,207 280.2,179.3 224.5,264 			"/>
			<polygon class="st27" points="280.2,179.3 233.8,157.9 283.9,107.4 			"/>
			<polygon class="st28" points="233.8,157.9 254.9,67.4 283.9,107.4 			"/>
			<polygon class="st29" points="233.8,157.9 164.3,143.3 254.9,67.4 			"/>
			<polyline class="st30" points="196.6,204.1 233.8,157.9 164.3,143.3 196.6,204.1 			"/>
			<polygon class="st31" points="233.8,157.9 224.5,264 280.2,179.3 			"/>
			<polygon class="st32" points="224.5,264 147.6,221.7 164.3,293.4 			"/>
			<polygon class="st33" points="224.5,264 196.6,204.1 233.8,157.9 			"/>
			<polygon class="st34" points="254.9,67.4 221.4,49.7 242.9,0.3 			"/>
			<polygon class="st35" points="254.9,67.4 221.4,49.7 164.3,83.4 			"/>
			<polygon class="st36" points="87.6,215.1 104.2,264 147.6,221.7 			"/>
			<polygon class="st37" points="87.6,215.1 104.2,264 42.6,207 			"/>
			<path class="st0" d="M147.6,221.7"/>
			<polygon class="st38" points="164.3,143.3 147.6,221.7 196.6,204.1 			"/>
			<polygon class="st39" points="164.3,143.3 147.6,221.7 94.9,157.9 			"/>
			<polygon class="st16" points="123.1,6.6 107.3,49.7 164.3,35.3 			"/>
			<polygon class="st40" points="73.8,67.4 164.3,143.3 164.3,83.4 			"/>
			<polygon class="st41" points="196.6,204.1 147.6,221.7 224.5,264 			"/>
		</g>
		<g class="st42">
			<polyline class="st43" points="164.3,35.3 123.1,6.6 85.8,0.3 23.9,35.3 1,118 42.6,207 104.2,264 164.3,293.4 			"/>
			<polygon class="st43" points="164.3,35.3 107.3,49.7 123.1,6.6 			"/>
			<polygon class="st43" points="164.3,35.3 164.3,83.4 107.3,49.7 			"/>
			<polygon class="st43" points="73.8,67.4 164.3,143.3 164.3,83.4 			"/>
			<polygon class="st43" points="107.3,49.7 85.8,0.3 123.1,6.6 			"/>
			<polygon class="st43" points="73.8,67.4 23.9,35.3 85.8,0.3 			"/>
			<polygon class="st43" points="73.8,67.4 44.7,107.4 23.9,35.3 			"/>
			<polygon class="st43" points="44.7,107.4 1,118 23.9,35.3 			"/>
			<polygon class="st43" points="44.7,107.4 50.6,164.8 1,118 			"/>
			<polygon class="st43" points="1,118 50.6,164.8 42.6,207 			"/>
			<polygon class="st43" points="42.6,207 50.6,164.8 87.6,215.1 			"/>
			<polygon class="st43" points="50.6,164.8 94.9,157.9 44.7,107.4 			"/>
			<polygon class="st43" points="94.9,157.9 73.8,67.4 44.7,107.4 			"/>
			<polygon class="st43" points="94.9,157.9 164.3,143.3 73.8,67.4 			"/>
			<polyline class="st43" points="164.3,143.3 94.9,157.9 147.6,221.7 			"/>
			<polygon class="st43" points="94.9,157.9 87.6,215.1 50.6,164.8 			"/>
			<polygon class="st43" points="104.2,264 147.6,221.7 164.3,293.4 			"/>
			<polygon class="st43" points="87.6,215.1 147.6,221.7 94.9,157.9 			"/>
			<polygon class="st43" points="73.8,67.4 107.3,49.7 85.8,0.3 			"/>
			<polygon class="st43" points="73.8,67.4 107.3,49.7 164.3,83.4 			"/>
			<polygon class="st43" points="164.3,35.3 221.4,49.7 205.6,6.6 			"/>
			<polygon class="st43" points="164.3,35.3 164.3,83.4 221.4,49.7 			"/>
			<polygon class="st43" points="254.9,67.4 164.3,143.3 164.3,83.4 			"/>
			<polygon class="st43" points="221.4,49.7 242.9,0.3 205.6,6.6 			"/>
			<polygon class="st43" points="254.9,67.4 304.7,35.3 242.9,0.3 			"/>
			<polygon class="st43" points="254.9,67.4 283.9,107.4 304.7,35.3 			"/>
			<polygon class="st43" points="283.9,107.4 327.7,118 304.7,35.3 			"/>
			<polygon class="st43" points="283.9,107.4 280.2,179.3 327.7,118 			"/>
			<polygon class="st43" points="327.7,118 280.2,179.3 286,207 			"/>
			<polygon class="st43" points="286,207 280.2,179.3 224.5,264 			"/>
			<polygon class="st43" points="280.2,179.3 233.8,157.9 283.9,107.4 			"/>
			<polygon class="st43" points="233.8,157.9 254.9,67.4 283.9,107.4 			"/>
			<polygon class="st43" points="233.8,157.9 164.3,143.3 254.9,67.4 			"/>
			<polyline class="st43" points="196.6,204.1 233.8,157.9 164.3,143.3 196.6,204.1 			"/>
			<polygon class="st43" points="233.8,157.9 224.5,264 280.2,179.3 			"/>
			<polygon class="st43" points="224.5,264 147.6,221.7 164.3,293.4 			"/>
			<polygon class="st43" points="224.5,264 196.6,204.1 233.8,157.9 			"/>
			<polygon class="st43" points="254.9,67.4 221.4,49.7 242.9,0.3 			"/>
			<polygon class="st43" points="254.9,67.4 221.4,49.7 164.3,83.4 			"/>
			<polygon class="st43" points="87.6,215.1 104.2,264 147.6,221.7 			"/>
			<polygon class="st43" points="87.6,215.1 104.2,264 42.6,207 			"/>
			<path class="st43" d="M147.6,221.7"/>
			<polygon class="st43" points="164.3,143.3 147.6,221.7 196.6,204.1 			"/>
			<polygon class="st43" points="164.3,143.3 147.6,221.7 94.9,157.9 			"/>
			<polygon class="st43" points="123.1,6.6 107.3,49.7 164.3,35.3 			"/>
			<polygon class="st43" points="73.8,67.4 164.3,143.3 164.3,83.4 			"/>
			<polygon class="st43" points="196.6,204.1 147.6,221.7 224.5,264 			"/>
		</g>
	</g>
	<path class="st44" d="M86.6,58c0-0.9,0.7-1.6,1.5-1.4c0.9,0.2,4.2,0.3,5.3,0.3c0.5,0,0.5-0.8,0.5-1.4c0.2-3.4,0.1-5.2,0-6.8
		c0-0.8,0.6-1.5,1.3-1.5l3.9,0.1c0.4,0,0.7,0.1,0.8,0.5c0.1,0.6-0.3,0.7-0.8,0.9c0,0.5,0,5.5,0,6.9c0,1.1,1.6,1,2.5,0.8
		c1-0.2,4.6-0.6,5.9-0.9c0.9-0.2,1.7,0.5,1.6,1.5c-0.1,0.8-0.1,1.6-0.1,2.4c0,0.7-0.4,1.2-1,1.4c-3,0.7-7.1,0.6-8.4,0.8
		c-0.5,0-1,0.3-1,0.8c-0.5,5.3-1,7.2-1.7,9.2c-0.7,1.8-1.4,3.6-8.1,12.1c-0.4,0.6-1.2,0.4-1.7-0.1c-0.6-0.6-1.1-0.9-1.7-1.7
		c-0.5-0.7-0.6-1.5,0-2.2c3.7-4.6,5.9-7.4,6.8-10.2c0.8-2.5,1-3.9,1.2-5.8c0.1-1,0.3-1.6-0.6-1.6c-1.4,0-2.9,0.1-4.9,0
		c-0.6,0-1.1-0.6-1.2-1.3L86.6,58z M114,65.9c0.8,0,1.3,0.6,1.3,1.4c-0.1,2.3-0.2,6.3-0.1,7.6c0.1,2.2,0,4.2,0.2,5.6
		c0.1,0.6,0.8,1,1.2,1.2c2.9,1,4.3,1.7,7.4,2.9c0.6,0.3,0.9,1.1,0.7,1.8c-0.2,0.6-0.4,1.3-0.7,2.3c-0.2,0.8-1.1,1.2-1.7,0.9
		c-2.8-1.2-4.3-1.8-5.4-2c-1.4-0.4-2.3,0.6-2.5,1.5c-1.5,5.7-7.4,5.7-8.9,5.7c-5.4,0-9.9-2.8-9.6-8c0.2-3.9,3-7.6,9.1-7.6
		c1.2,0,2.6,0.2,3.5,0.4c0.8,0.2,1.7,0.5,1.8-0.5c0.1-1.3,0-10,0.2-11.8c0.1-0.7,0.6-1.3,1.3-1.3L114,65.9z M104.9,83.3
		c-2.3,0-4.5,1.1-4.6,3.4c-0.2,3.5,4.6,3.6,4.9,3.6c4.2,0,4.8-2.5,4.9-4.6c0-0.5-0.2-1-0.7-1.3C107.1,83.3,105.3,83.3,104.9,83.3z
		 M115.1,57.5c5.8,1.4,8.8,2.8,10.9,4.2c0.6,0.4,0.8,1.2,0.5,1.8c-0.5,1-0.8,1.7-1.1,2.4c-0.3,0.8-1.2,1-1.9,0.6
		c-3.6-2.3-7.4-3.4-10-4c-0.8-0.2-1.2-1.1-0.9-1.9l1-2.3C113.8,57.7,114.5,57.4,115.1,57.5z"/>
	<path class="st44" d="M158.8,48.7c0.2,0.1,0.7,0.4,0.7,0.8c0,0.7-0.7,0.6-1.1,0.6c-1,2.3-4,10.7-5.9,15.5c-0.4,1.1,0.6,2.4,1.7,2.2
		c0.7-0.2,1.6-0.3,2.5-0.3c2.7,0,6.4,1.2,6.4,6.6c0,1.7-0.4,2.7-0.7,5.8c-0.2,1.7-0.2,4.3,0,5.6c0.8,3.8,3.5,4.2,6.2,3.5
		c3.3-0.9,6.3-6.5,8.2-10.5c0.4-0.8,1.4-1,2-0.4c0.5,0.5,1.2,1.2,1.9,1.7c0.5,0.4,0.7,1.2,0.4,1.8c-2,3.9-6.3,12.7-13.5,13
		c-4.5,0.2-8.7-0.7-10.1-7.2c-0.7-3.5,0.4-10.2,0.4-11.8c0-2.7-1.3-3.3-2.7-3.3c-4,0-6,3.8-6.8,5.6c-1.5,2.9-4.2,9.6-5.7,14.7
		c-0.2,0.8-1,1.2-1.7,0.9l-2.7-1.1c-0.7-0.3-1-1.2-0.7-1.9c3.6-7.7,6.7-16,7.7-18.8c3.9-10.4,5.1-14.1,8-23.9
		c0.2-0.8,1.1-1.2,1.8-0.9L158.8,48.7z"/>
	<path class="st44" d="M210.7,81c0.5,0,0.9,0.5,0.8,1.1c-0.3,1.9-0.3,2.7-0.3,3.3c0,2.1,2.2,3.5,9,3.5c1.8,0,4.2-0.2,8-1.3
		c0.5-0.2,1,0.3,1,0.9c0,0.5-0.1,1.1-0.1,1.7c0,1.1,0,1.8,0,2.4c0,0.4-0.3,0.7-0.6,0.7c-4.6,0.9-7.2,0.7-8.2,0.7
		c-3.1,0-13.6,0-13.6-8.2c0-2.1,0-1.1,0.4-3.8c0.1-0.7,0.7-1.2,1.4-1.2L210.7,81z M211.5,68.2c0-0.7,0.5-1.3,1.1-1.4
		c4.2-0.6,7.7-0.7,9.7-0.7c2.8,0,3.4,0.3,4.6,0.4c0.7,0.1,1.2,0.8,1.1,1.6c-0.1,0.9-0.1,1.7-0.2,2.4c0,0.8-0.8,1.5-1.5,1.3
		c-1.3-0.2-2-0.5-4.6-0.5c-3.3,0-6.7,0.4-8.8,0.7c-0.8,0.1-1.5-0.6-1.5-1.4L211.5,68.2z M225,50.6c0.1,1.8,0.2,4.6,0.2,6.6
		c0,0.6-0.5,1-1.1,0.9c-0.5-0.1-1-0.1-1.6,0c-0.6,0-1-0.4-1-1c0.1-1.6,0.1-5.4-0.1-7.9l2.2,0C224.3,49.2,224.9,49.8,225,50.6z
		 M231.3,50.9c0.2,1.6,0.2,3.6,0.2,5.3c0,0.9-0.7,1.6-1.5,1.6c-0.4,0-0.8,0-1.2,0c-0.5,0-0.9-0.4-0.8-0.9c0.1-1.6,0.3-4.6-0.1-7.5
		l2.1,0.1C230.6,49.6,231.2,50.1,231.3,50.9z"/>
	<path class="st44" d="M243.8,232.3c0,4.2-3.6,7.6-7.8,7.6c-4.2,0-7.8-3.4-7.8-7.6c0-4.2,3.5-7.5,7.8-7.5
		C240.2,224.8,243.8,228.1,243.8,232.3z M231.2,232.3c0,2.5,2.1,4.6,4.7,4.6c2.6,0,4.7-2,4.7-4.6c0-2.5-2.1-4.6-4.7-4.6
		C233.3,227.7,231.2,229.8,231.2,232.3z"/>
	<line class="st45" x1="78.6" y1="109.1" x2="242.2" y2="109.1"/>
	<line class="st45" x1="78.6" y1="177.7" x2="242.2" y2="177.7"/>
	<g>
		<path class="st44" d="M243.3,95.2c0,0.9-1.9,3.3-2.8,3.3c-0.4,0-0.7-0.4-1-0.8c-2.1-2.7-3.5-3.8-6.3-5.7c-0.3-0.3-0.8-0.5-0.8-1
			c0-0.8,2-2.9,2.6-2.9C236.2,88.1,243.3,93.9,243.3,95.2z"/>
	</g>
	<path class="st44" d="M191.9,59.2c0-0.9,0.7-1.6,1.5-1.4c0.9,0.2,1.9,0.3,3.4,0.4c1.9,0.2,2.2,0,3.2,0c0.5,0,0.5-0.7,0.5-1.3
		c0.1-3.4,0-5.3,0-7c0-0.8,0.6-1.5,1.3-1.5l3.9,0.1c0.4,0,0.7,0.1,0.8,0.5c0.1,0.6-0.3,0.7-0.8,0.9c0,0.5,0,5.5,0,6.9
		c0,1.1,1.6,0.9,2.5,0.7c1-0.1,6.3-0.8,7.6-1.2c0.9-0.2,1.7,0.5,1.6,1.5c-0.1,0.8-0.1,1.6-0.1,2.4c0,0.7-0.4,1.2-1,1.4
		c-3,0.7-8.8,1-10.1,1.1c-0.5,0-1,0.3-1,0.8c-0.3,4.5-0.7,9.7-2,13.6c-1.2,3.6-2.3,6.7-9.3,14.7c-0.5,0.5-1.3,0.3-1.7-0.2
		c-0.5-0.6-1.2-1.2-1.8-2.1c-0.5-0.7-0.4-1.5,0.1-2.2c4.1-4.3,6.9-9.2,7.8-11.8c1.1-3.2,1.6-9,1.7-10.8c0.1-1,0.3-1.6-0.6-1.6
		c-1.4,0-4.1,0.1-6.1,0c-0.6,0-1.1-0.6-1.2-1.3L191.9,59.2z"/>
	<path class="st44" d="M86.6,201.3c0-0.9,0.7-1.6,1.5-1.4c0.9,0.2,4.2,0.3,5.3,0.3c0.5,0,0.5-0.8,0.5-1.4c0.2-3.4,0.1-5.2,0-6.8
		c0-0.8,0.6-1.5,1.3-1.5l3.9,0.1c0.4,0,0.7,0.1,0.8,0.5c0.1,0.6-0.3,0.7-0.8,0.9c0,0.5,0,5.5,0,6.9c0,1.1,1.6,1,2.5,0.8
		c1-0.2,4.6-0.6,5.9-0.9c0.9-0.2,1.7,0.5,1.6,1.5c-0.1,0.8-0.1,1.6-0.1,2.4c0,0.7-0.4,1.2-1,1.4c-3,0.7-7.1,0.6-8.4,0.8
		c-0.5,0-1,0.3-1,0.8c-0.5,5.3-1,7.2-1.7,9.2c-0.7,1.8-1.4,3.6-8.1,12.1c-0.4,0.6-1.2,0.4-1.7-0.1c-0.6-0.6-1.1-0.9-1.7-1.7
		c-0.5-0.7-0.6-1.5,0-2.2c3.7-4.6,5.9-7.4,6.8-10.2c0.8-2.5,1-3.9,1.2-5.8c0.1-1,0.3-1.6-0.6-1.6c-1.4,0-2.9,0.1-4.9,0
		c-0.6,0-1.1-0.6-1.2-1.3L86.6,201.3z M114,209.2c0.8,0,1.3,0.6,1.3,1.4c-0.1,2.3-0.2,6.3-0.1,7.6c0.1,2.2,0,4.2,0.2,5.6
		c0.1,0.6,0.8,1,1.2,1.2c2.9,1,4.3,1.7,7.4,2.9c0.6,0.3,0.9,1.1,0.7,1.8c-0.2,0.6-0.4,1.3-0.7,2.3c-0.2,0.8-1.1,1.2-1.7,0.9
		c-2.8-1.2-4.3-1.8-5.4-2c-1.4-0.4-2.3,0.6-2.5,1.5c-1.5,5.7-7.4,5.7-8.9,5.7c-5.4,0-9.9-2.8-9.6-8c0.2-3.9,3-7.6,9.1-7.6
		c1.2,0,2.6,0.2,3.5,0.4c0.8,0.2,1.7,0.5,1.8-0.5c0.1-1.3,0-10,0.2-11.8c0.1-0.7,0.6-1.3,1.3-1.3L114,209.2z M104.9,226.6
		c-2.3,0-4.5,1.1-4.6,3.4c-0.2,3.5,4.6,3.6,4.9,3.6c4.2,0,4.8-2.5,4.9-4.6c0-0.5-0.2-1-0.7-1.3C107.1,226.6,105.3,226.6,104.9,226.6
		z M115.1,200.8c5.8,1.4,8.8,2.8,10.9,4.2c0.6,0.4,0.8,1.2,0.5,1.8c-0.5,1-0.8,1.7-1.1,2.4c-0.3,0.8-1.2,1-1.9,0.6
		c-3.6-2.3-7.4-3.4-10-4c-0.8-0.2-1.2-1.1-0.9-1.9l1-2.3C113.8,201,114.5,200.7,115.1,200.8z"/>
	<path class="st44" d="M158.8,192c0.2,0.1,0.7,0.4,0.7,0.8c0,0.7-0.7,0.6-1.1,0.6c-1,2.3-4,10.7-5.9,15.5c-0.4,1.1,0.6,2.4,1.7,2.2
		c0.7-0.2,1.6-0.3,2.5-0.3c2.7,0,6.4,1.2,6.4,6.6c0,1.7-0.4,2.7-0.7,5.8c-0.2,1.7-0.2,4.3,0,5.6c0.8,3.8,3.5,4.2,6.2,3.5
		c3.3-0.9,6.3-6.5,8.2-10.5c0.4-0.8,1.4-1,2-0.4c0.5,0.5,1.2,1.2,1.9,1.7c0.5,0.4,0.7,1.2,0.4,1.8c-2,3.9-6.3,12.7-13.5,13
		c-4.5,0.2-8.7-0.7-10.1-7.2c-0.7-3.5,0.4-10.2,0.4-11.8c0-2.7-1.3-3.3-2.7-3.3c-4,0-6,3.8-6.8,5.6c-1.5,2.9-4.2,9.6-5.7,14.7
		c-0.2,0.8-1,1.2-1.7,0.9l-2.7-1.1c-0.7-0.3-1-1.2-0.7-1.9c3.6-7.7,6.7-16,7.7-18.8c3.9-10.4,5.1-14.1,8-23.9
		c0.2-0.8,1.1-1.2,1.8-0.9L158.8,192z"/>
	<path class="st44" d="M210.7,224.3c0.5,0,0.9,0.5,0.8,1.1c-0.3,1.9-0.3,2.7-0.3,3.3c0,2.1,2.2,3.5,9,3.5c1.8,0,4.2-0.2,8-1.3
		c0.5-0.2,1,0.3,1,0.9c0,0.5-0.1,1.1-0.1,1.7c0,1.1,0.6,1.7,0.6,2.3c0,0.4-0.3,0.7-0.6,0.7c-4.6,0.9-7.7,0.8-8.7,0.8
		c-3.1,0-13.6,0-13.6-8.2c0-2.1,0-1.1,0.4-3.8c0.1-0.7,0.7-1.2,1.4-1.2L210.7,224.3z M211.5,211.5c0-0.7,0.5-1.3,1.1-1.4
		c4.2-0.6,7.7-0.7,9.7-0.7c2.8,0,3.4,0.3,4.6,0.4c0.7,0.1,1.2,0.8,1.1,1.6c-0.1,0.9-0.1,1.7-0.2,2.4c0,0.8-0.8,1.5-1.5,1.3
		c-1.3-0.2-2-0.5-4.6-0.5c-3.3,0-6.7,0.4-8.8,0.7c-0.8,0.1-1.5-0.6-1.5-1.4L211.5,211.5z M225,193.9c0.1,1.8,0.2,4.6,0.2,6.6
		c0,0.6-0.5,1-1.1,0.9c-0.5-0.1-1-0.1-1.6,0c-0.6,0-1-0.4-1-1c0.1-1.6,0.1-5.4-0.1-7.9l2.2,0C224.3,192.5,224.9,193.1,225,193.9z
		 M231.3,194.2c0.2,1.6,0.2,3.6,0.2,5.3c0,0.9-0.7,1.6-1.5,1.6c-0.4,0-0.8,0-1.2,0c-0.5,0-0.9-0.4-0.8-0.9c0.1-1.6,0.3-4.6-0.1-7.5
		l2.1,0.1C230.6,192.9,231.2,193.5,231.3,194.2z"/>
	<path class="st44" d="M191.9,202.5c0-0.9,0.7-1.6,1.5-1.4c0.9,0.2,1.9,0.3,3.4,0.4c1.9,0.2,2.2,0,3.2,0c0.5,0,0.5-0.7,0.5-1.3
		c0.1-3.4,0-5.3,0-7c0-0.8,0.6-1.5,1.3-1.5l3.9,0.1c0.4,0,0.7,0.1,0.8,0.5c0.1,0.6-0.3,0.7-0.8,0.9c0,0.5,0,5.5,0,6.9
		c0,1.1,1.6,0.9,2.5,0.7c1-0.1,6.3-0.8,7.6-1.2c0.9-0.2,1.7,0.5,1.6,1.5c-0.1,0.8-0.1,1.6-0.1,2.4c0,0.7-0.4,1.2-1,1.4
		c-3,0.7-8.8,1-10.1,1.1c-0.5,0-1,0.3-1,0.8c-0.3,4.5-0.7,9.7-2,13.6c-1.2,3.6-2.3,6.7-9.3,14.7c-0.5,0.5-1.3,0.3-1.7-0.2
		c-0.5-0.6-1.2-1.2-1.8-2.1c-0.5-0.7-0.4-1.5,0.1-2.2c4.1-4.3,6.9-9.2,7.8-11.8c1.1-3.2,1.6-9,1.7-10.8c0.1-1,0.3-1.6-0.6-1.6
		c-1.4,0-4.1,0.1-6.1,0c-0.6,0-1.1-0.6-1.2-1.3L191.9,202.5z"/>
	<path class="st44" d="M95.3,146.3c0.5,0.1,0.5,0.5,0.3,0.8c-1,1-4,3.2-4,6c0.1,2.8,2.8,4.3,11.9,4.3c8.1,0,15-0.5,17.3-0.7
		c0.5,0,0.9,0.4,0.9,0.8l0,3.9c0,0.5-0.3,0.8-0.8,0.9c-5.3,0.6-16.1,0.7-17.3,0.7c-11.4,0-18.3-2.4-18.3-9.5c0-1.9,1.1-5.1,4.4-8.4
		c0.2-0.2,0.5-0.4,0.8-0.3L95.3,146.3z M120.1,127.7c-2,1.9-6.2,6.4-7.9,8.3c-0.2,0.2-0.6,0.3-0.9,0.2c-1.4-0.5-3.2-1-4.5-1.5
		c-0.4-0.1-0.6-0.5-0.3-0.8c0.2-0.3,2.3-2.4,4.7-4.4c0.6-0.5,0.3-1.1-0.2-1.1c-4.9,0.3-16.7,0.4-21.1,0c-0.4,0-0.8-0.4-0.8-0.8v-3.9
		c0-0.5,0.4-0.9,0.9-0.9c2.8,0.2,12.2,1,27,0c0.3,0,0.6,0.1,0.8,0.4c0.6,1,1.9,2.9,2.4,3.7C120.3,127.1,120.3,127.5,120.1,127.7z"/>
	<path class="st44" d="M149.1,146.3c0.5,0.1,0.5,0.5,0.3,0.8c-1,1-4,3.2-4,6c0.1,2.8,2.8,4.3,11.9,4.3c8.1,0,15-0.5,17.3-0.7
		c0.5,0,0.9,0.4,0.9,0.8l0,3.9c0,0.5-0.3,0.8-0.8,0.9c-5.3,0.6-16.1,0.7-17.3,0.7c-11.4,0-18.3-2.4-18.3-9.5c0-1.9,1.1-5.1,4.4-8.4
		c0.2-0.2,0.5-0.4,0.8-0.3L149.1,146.3z M173.9,127.7c-2,1.9-6.2,6.4-7.9,8.3c-0.2,0.2-0.6,0.3-0.9,0.2c-1.4-0.5-3.2-1-4.5-1.5
		c-0.4-0.1-0.6-0.5-0.3-0.8c0.2-0.3,2.3-2.4,4.7-4.4c0.6-0.5,0.3-1.1-0.2-1.1c-4.9,0.3-16.7,0.4-21.1,0c-0.4,0-0.8-0.4-0.8-0.8v-3.9
		c0-0.5,0.4-0.9,0.9-0.9c2.8,0.2,12.2,1,27,0c0.3,0,0.6,0.1,0.8,0.4c0.6,1,1.9,2.9,2.4,3.7C174.1,127.1,174.1,127.5,173.9,127.7z"/>
	<path class="st44" d="M223.4,127.2c-2.3,2-6.1,5.2-9.1,7.6c-0.6,0.5-0.3,1.5,0.5,1.5c9-0.1,15.3,6.6,14.4,15.3
		c-1.5,13.4-16.5,13-26.3,12.7c-1.3,0-1.7-0.4-1.7-1.2s0-2.4,0-3.2s0.6-1.1,1.3-1.1s1.4,0,2.5,0c8.3,0.5,17.4,0.1,18.5-7.8
		c1-7.1-5.8-10.4-9.3-10.4c-6.4,0-11.2,2.8-18.6,8.6c-0.3,0.3-0.8,0.2-1.1-0.1l-2.6-2.6c-0.4-0.4-0.3-1,0.1-1.3
		c6.6-5.2,13.1-9.7,18.8-15.2c0.6-0.6,0.1-1.5-0.7-1.5c-4.5,0.4-10.9,0.2-14.3,0.2c-0.5,0-0.8-0.4-0.8-0.9V124
		c0-0.5,0.4-0.9,0.9-0.8c11.4,0.4,21.3,0.3,26.1-0.2c0.4,0,0.8,0.2,0.9,0.6l0.9,2.8C223.8,126.6,223.7,127,223.4,127.2z"/>
</g>
</svg>
