<svg xmlns="http://www.w3.org/2000/svg" width="184" height="175" viewBox="0 0 184 175"><defs><style>.a{fill:#231815;}</style></defs><path class="a" d="M20.5,8.4a54.19,54.19,0,0,1-8,1.7A78.89,78.89,0,0,1,3,28.4l-1.5-.8C5.1,23.3,9,15.8,11,10.2a45.33,45.33,0,0,1-5.2.3c-1.5,0-3.3,0-4.7-.1L1,8.8a30.48,30.48,0,0,0,4.8.3,38.92,38.92,0,0,0,5.7-.3A34.7,34.7,0,0,0,13,1l1.7.2c-.5,1.7-1.1,5-1.9,7.5a34.54,34.54,0,0,0,7.6-1.8Zm4.4,6.2a23.77,23.77,0,0,0,0,3.8c0,2,.3,5.6.3,8.8a29.15,29.15,0,0,1,8.9,5.3l-.8,1.2a26.78,26.78,0,0,0-8-5.1v3c0,2.9-2.3,5.5-6.8,5.5-4.1,0-7.6-1.5-7.6-5.4s4-5.7,7.7-5.7a21.91,21.91,0,0,1,5.3.7c-.1-3.9-.4-8.7-.4-12.1Zm-1,13.5a17.85,17.85,0,0,0-5.3-.8c-3.8,0-6.4,1.8-6.4,4.3s1.9,4.1,6.2,4.1c4.1,0,5.5-2.3,5.5-4.3C24,30.5,23.9,29.3,23.9,28.1ZM26,7.7a52.9,52.9,0,0,1,9.4,5.7l-.8,1.2c-2.1-2-6.5-4.5-9.3-5.8Z"/><path class="a" d="M74.7,4.6C73,7.5,67.9,16.8,65.6,21.4c2.6-2.8,5.2-3.9,7.7-3.9a4.7,4.7,0,0,1,4.8,4.9c.1,3.2,0,6.4.1,8.9s1.8,3.8,4.1,3.8c5.8,0,9.1-7.1,10.1-11l1.1.9c-2.3,6.6-5.6,11.4-11.4,11.4-4.4,0-5.2-3-5.3-5-.1-2.7,0-6-.1-9a3.42,3.42,0,0,0-3.8-3.6c-4,0-8,4.1-9.7,7.4A66.26,66.26,0,0,0,59,36.3l-1.4-.5C60.9,26.9,71.2,8.3,73.5,4a10.68,10.68,0,0,0,1-2.3l1.6.7C75.8,2.8,75.3,3.6,74.7,4.6Z"/><path class="a" d="M134,9.6a75.15,75.15,0,0,1-9.5,1.5c-.4,1.9-.8,4-1.4,6-1.6,6.3-4.5,15.5-6.6,19.8l-1.6-.5c2.6-4.6,5.4-13.2,7-19.5.4-1.7.9-3.7,1.3-5.7a46,46,0,0,1-5,.3,37.74,37.74,0,0,1-4.8-.2V9.8a29.15,29.15,0,0,0,4.9.3,51.05,51.05,0,0,0,5.2-.3c.4-2.2.8-4.2,1-5.1a26.35,26.35,0,0,0,.2-2.8l1.8.2a23,23,0,0,0-.6,2.8q-.45,2.1-.9,4.8A65.21,65.21,0,0,0,134.2,8V9.6Zm-2.5,16.3a17.63,17.63,0,0,0-.6,4.2c0,2.2.9,4.7,8.4,4.7a38.4,38.4,0,0,0,7.9-.8v1.5a47,47,0,0,1-7.9.6c-6.3,0-9.7-1.8-9.7-6a22.32,22.32,0,0,1,.6-4.5Zm.4-10.3c2.1-.2,4.7-.3,7.4-.3a54.43,54.43,0,0,1,7.3.4l-.1,1.5a52.73,52.73,0,0,0-7.1-.5c-2.5,0-5,.2-7.6.4V15.6Zm12.6-5.4a46.52,46.52,0,0,0-3.6-6.1l1.2-.6a57.92,57.92,0,0,1,3.7,6.1Zm1.9-8.3A47.84,47.84,0,0,1,150.2,8l-1.2.6a44.88,44.88,0,0,0-3.7-6.1Z"/><path class="a" d="M181.2,37.5a61.3,61.3,0,0,0-9.8-9.9l1.1-1.1a84.44,84.44,0,0,1,10,9.9Z"/><path class="a" d="M6.9,90.6a18.29,18.29,0,0,0-1,5.5c0,3.8,3.9,6.4,11.5,6.4,6.1,0,11.6-.7,14.3-1.7v1.4c-2.4.8-8.1,1.6-14.3,1.6-7.6,0-12.8-2.5-12.8-7.5a23.41,23.41,0,0,1,.9-5.9ZM7,73.9a87.69,87.69,0,0,0,11,.6,105.48,105.48,0,0,0,10.7-.6v1.4c-2.8.2-6.9.5-10.7.5-4.1,0-7.7-.2-11-.5Z"/><path class="a" d="M60.6,90.6a18.29,18.29,0,0,0-1,5.5c0,3.8,3.9,6.4,11.5,6.4,6.1,0,11.6-.7,14.3-1.7v1.4c-2.4.8-8.1,1.6-14.3,1.6-7.6,0-12.8-2.5-12.8-7.5a23.41,23.41,0,0,1,.9-5.9Zm.1-16.7a87.69,87.69,0,0,0,11,.6,105.48,105.48,0,0,0,10.7-.6v1.4c-2.8.2-6.9.5-10.7.5-4.1,0-7.7-.2-11-.5Z"/><path class="a" d="M115.6,72.7c2.2,0,11.6-.4,14.2-.5a5.08,5.08,0,0,0,1.7-.3l1.2,1.3c-.3.2-1.1.8-1.4,1-3.9,3.2-10.1,8.6-13.1,11.4a18.83,18.83,0,0,1,8.5-1.9c6.4,0,11.3,3.8,11.3,9.7,0,8.6-9.7,12.1-20.6,11.3l-.4-1.5c10.5,1.2,19.7-2.5,19.7-9.9,0-4.9-4-8.2-10.1-8.2-8.1,0-12.4,4-17.4,9.1l-1.1-1.1c6.8-6.5,18.1-16.2,22.1-19.7-3,.1-12.3.5-14.5.6a21.05,21.05,0,0,0-2.5.2V72.6A17.72,17.72,0,0,0,115.6,72.7Z"/><path class="a" d="M20.5,144.6a54.19,54.19,0,0,1-8,1.7A78.89,78.89,0,0,1,3,164.6l-1.5-.8c3.7-4.2,7.6-11.7,9.6-17.3a45.33,45.33,0,0,1-5.2.3c-1.5,0-3.3,0-4.7-.1L1,145.1a30.48,30.48,0,0,0,4.8.3,38.92,38.92,0,0,0,5.7-.3,41.54,41.54,0,0,0,1.6-7.8l1.7.2c-.5,1.7-1.1,5-1.9,7.5a34.54,34.54,0,0,0,7.6-1.8Zm4.4,6.2a23.77,23.77,0,0,0,0,3.8c0,2,.3,5.6.3,8.8a29.15,29.15,0,0,1,8.9,5.3l-.8,1.2a26.78,26.78,0,0,0-8-5.1v3c0,2.9-2.3,5.5-6.8,5.5-4.1,0-7.6-1.5-7.6-5.4s4-5.7,7.7-5.7a21.91,21.91,0,0,1,5.3.7c-.1-3.9-.4-8.7-.4-12.1Zm-1,13.6a17.85,17.85,0,0,0-5.3-.8c-3.8,0-6.4,1.8-6.4,4.3s1.9,4.1,6.2,4.1c4.1,0,5.5-2.3,5.5-4.3C24,166.7,23.9,165.6,23.9,164.4ZM26,144a52.9,52.9,0,0,1,9.4,5.7l-.8,1.2c-2.1-2-6.5-4.5-9.3-5.8Z"/><path class="a" d="M74.7,140.8c-1.7,2.9-6.8,12.2-9.1,16.8,2.6-2.8,5.2-3.9,7.7-3.9a4.7,4.7,0,0,1,4.8,4.9c.1,3.2,0,6.4.1,8.9s1.8,3.8,4.1,3.8c5.8,0,9.1-7.1,10.1-11l1.1.9c-2.3,6.6-5.6,11.4-11.4,11.4-4.4,0-5.2-3-5.3-5-.1-2.7,0-6-.1-9a3.42,3.42,0,0,0-3.8-3.6c-4,0-8,4.1-9.7,7.4A66.26,66.26,0,0,0,59,172.5l-1.4-.5c3.1-8.9,13.4-27.5,15.8-31.8a10.68,10.68,0,0,0,1-2.3l1.6.7A15.08,15.08,0,0,1,74.7,140.8Z"/><path class="a" d="M134,145.9a75.15,75.15,0,0,1-9.5,1.5c-.4,1.9-.8,4-1.4,6-1.6,6.3-4.5,15.5-6.6,19.8l-1.6-.5c2.6-4.6,5.4-13.2,7-19.5.4-1.7.9-3.7,1.3-5.7a46,46,0,0,1-5,.3,37.74,37.74,0,0,1-4.8-.2v-1.5a29.15,29.15,0,0,0,4.9.3,51.05,51.05,0,0,0,5.2-.3c.4-2.2.8-4.2,1-5.1a26.35,26.35,0,0,0,.2-2.8l1.8.2a23,23,0,0,0-.6,2.8q-.45,2.1-.9,4.8a65.21,65.21,0,0,0,9.2-1.7v1.6Zm-2.5,16.2a17.63,17.63,0,0,0-.6,4.2c0,2.2.9,4.7,8.4,4.7a38.4,38.4,0,0,0,7.9-.8v1.5a47,47,0,0,1-7.9.6c-6.3,0-9.7-1.8-9.7-6a22.32,22.32,0,0,1,.6-4.5Zm.4-10.3c2.1-.2,4.7-.3,7.4-.3a54.43,54.43,0,0,1,7.3.4l-.1,1.5a52.73,52.73,0,0,0-7.1-.5c-2.5,0-5,.2-7.6.4v-1.5Zm12.6-5.3a46.52,46.52,0,0,0-3.6-6.1l1.2-.6a57.92,57.92,0,0,1,3.7,6.1Zm1.9-8.3a47.84,47.84,0,0,1,3.8,6.1l-1.2.6a44.88,44.88,0,0,0-3.7-6.1Z"/><path class="a" d="M180.6,167.6a6.2,6.2,0,1,1-6.2-6.3A6.19,6.19,0,0,1,180.6,167.6Zm-1.3,0a4.9,4.9,0,1,0-9.8,0,4.93,4.93,0,0,0,4.9,5A5.06,5.06,0,0,0,179.3,167.6Z"/></svg>