<?xml version="1.0" encoding="UTF-8"?><svg id="uuid-559b6b5f-9fa9-4965-a64c-dabeb9b6bb12" xmlns="http://www.w3.org/2000/svg" width="627" height="121" viewBox="0 0 627 121"><path d="m14.1,77.82c-2.25,9.64-6.98,21.57-11.93,28.44l-1.43-.79c5.18-6.95,9.91-18.72,11.93-28.04l1.43.4Zm9.23-10.59v42.42c0,4.58,1.5,5.77,5.78,5.85,4.2.08,11.56.08,16.21,0,5.4-.16,5.78-.87,6-15.56l1.5.32c-.38,15.4-.98,16.67-7.28,16.83-4.95.08-12.23.08-16.66,0-5.03-.08-7.05-1.74-7.05-7.35v-42.5h1.5Zm1.28-17.77c8.55,5.53,15.38,11.22,20.11,16.59l-1.2,1.03c-4.65-5.37-11.41-11.06-19.89-16.51l.98-1.11Zm29.42,26.46c6.83,9.87,11.63,19.27,14.48,27.25l-1.43.63c-2.78-7.98-7.58-17.3-14.26-27.1l1.2-.79Z" stroke="#000" stroke-miterlimit="10"/><path d="m88.55,104.84v-24.57h-9.76v-1.5h9.76v-21.57h-10.88v-1.5h22.81v1.5h-10.43v21.57h9.38v1.5h-9.38v24.09c3.83-1.19,7.73-2.29,10.73-3.32l.15,1.58c-6.9,2.21-17.63,5.45-23.64,7.19l-.53-1.66c2.93-.79,7.28-2.05,11.78-3.32Zm32.87,10.59v-15.56h-18.46v-1.5h18.46v-12.88h-17.71v-32.7h37.75v32.7h-18.54v12.88h19.14v1.5h-19.14v15.56h21.76v1.5h-47.28v-1.5h24.01Zm-16.21-47.32h16.21v-13.82h-16.21v13.82Zm0,15.88h16.21v-14.3h-16.21v14.3Zm34.67-15.88v-13.82h-16.96v13.82h16.96Zm0,15.88v-14.3h-16.96v14.3h16.96Z" stroke="#000" stroke-miterlimit="10"/><path d="m186.94,96.78v-6.24h1.05c5.78-3.4,12.08-7.82,15.91-11.3h-35.65v-1.5h37.9l1.13.63c-4.58,4.19-12.08,9.56-18.84,13.59v4.82h32.49v1.5h-32.49v17.93c0,2.13-.67,3.4-2.78,3.71-1.88.24-7.65.16-11.56.08v-1.58c3.53.16,9.16.16,10.58.08,1.73-.16,2.25-.95,2.25-2.37v-17.85h-32.87v-1.5h32.87Zm14.03-30.89l-1.12-.87c4.5-5.45,9-11.69,11.33-15.96l1.35.79c-2.63,4.42-7.05,10.59-11.56,16.04h17.41v14.93h-1.58v-13.43h-58.46v13.43h-1.5v-14.93h44.12Zm-38.2-15.48c3.83,4.74,6.6,9.16,8.4,13.19l-1.35.87c-1.73-4.03-4.43-8.53-8.18-13.11l1.13-.95Zm19.36-1.34c3.45,5.06,5.78,9.87,7.2,14.14l-1.43.71c-1.35-4.27-3.68-9.01-6.98-13.98l1.2-.87Z" stroke="#000" stroke-miterlimit="10"/><path d="m255.38,80.43c3.08-6.32,6-13.51,7.58-18.41l1.5.47c-1.73,4.9-4.5,11.85-7.5,17.93h14.11v1.5h-40.75v-1.5h25.06Zm-5.33-21.8v-9.56h1.5v9.56h16.06v1.5h-34.22v-1.5h16.66Zm-12.31,57.59v3.87h-1.5v-28.2h28.89v28.2h-1.5v-3.87h-25.89Zm25.89-1.5v-21.33h-25.89v21.33h25.89Zm-24.31-52.29c2.33,5.45,4.13,11.77,4.8,16.11l-1.58.55c-.6-4.42-2.4-10.9-4.65-16.11l1.43-.55Zm56.66-10.27h.3l.98.47c-3.68,7.82-8.18,16.91-12.53,25.44,8.55,7.74,12.38,13.19,12.38,19.59,0,5.61-1.8,10.35-7.13,11.06-2.03.32-6.38.24-8.85,0l-.08-1.74c2.25.32,6.53.4,8.25.16,4.8-.55,6.15-4.42,6.15-9.48,0-5.92-3.6-11.38-12.76-19.2,4.73-8.93,9.08-17.69,12.23-24.8h-19.96v66.51h-1.5V52.15h22.51Z" stroke="#000" stroke-miterlimit="10"/><path d="m342.07,77.82c-2.25,9.64-6.98,21.57-11.93,28.44l-1.43-.79c5.18-6.95,9.91-18.72,11.93-28.04l1.43.4Zm9.23-10.59v42.42c0,4.58,1.5,5.77,5.78,5.85,4.2.08,11.56.08,16.21,0,5.4-.16,5.78-.87,6-15.56l1.5.32c-.38,15.4-.98,16.67-7.28,16.83-4.95.08-12.23.08-16.66,0-5.03-.08-7.05-1.74-7.05-7.35v-42.5h1.5Zm1.28-17.77c8.55,5.53,15.38,11.22,20.11,16.59l-1.2,1.03c-4.65-5.37-11.41-11.06-19.89-16.51l.98-1.11Zm29.42,26.46c6.83,9.87,11.63,19.27,14.48,27.25l-1.43.63c-2.78-7.98-7.58-17.3-14.26-27.1l1.2-.79Z" stroke="#000" stroke-miterlimit="10"/><path d="m416.52,104.84v-24.57h-9.76v-1.5h9.76v-21.57h-10.88v-1.5h22.81v1.5h-10.43v21.57h9.38v1.5h-9.38v24.09c3.83-1.19,7.73-2.29,10.73-3.32l.15,1.58c-6.9,2.21-17.63,5.45-23.64,7.19l-.53-1.66c2.93-.79,7.28-2.05,11.78-3.32Zm32.87,10.59v-15.56h-18.46v-1.5h18.46v-12.88h-17.71v-32.7h37.75v32.7h-18.54v12.88h19.14v1.5h-19.14v15.56h21.76v1.5h-47.28v-1.5h24.01Zm-16.21-47.32h16.21v-13.82h-16.21v13.82Zm0,15.88h16.21v-14.3h-16.21v14.3Zm34.67-15.88v-13.82h-16.96v13.82h16.96Zm0,15.88v-14.3h-16.96v14.3h16.96Z" stroke="#000" stroke-miterlimit="10"/><path d="m514.9,96.78v-6.24h1.05c5.78-3.4,12.08-7.82,15.91-11.3h-35.65v-1.5h37.9l1.13.63c-4.58,4.19-12.08,9.56-18.84,13.59v4.82h32.49v1.5h-32.49v17.93c0,2.13-.67,3.4-2.78,3.71-1.88.24-7.65.16-11.56.08v-1.58c3.53.16,9.16.16,10.58.08,1.73-.16,2.25-.95,2.25-2.37v-17.85h-32.87v-1.5h32.87Zm14.03-30.89l-1.12-.87c4.5-5.45,9-11.69,11.33-15.96l1.35.79c-2.63,4.42-7.05,10.59-11.56,16.04h17.41v14.93h-1.58v-13.43h-58.46v13.43h-1.5v-14.93h44.12Zm-38.2-15.48c3.83,4.74,6.6,9.16,8.4,13.19l-1.35.87c-1.73-4.03-4.43-8.53-8.18-13.11l1.13-.95Zm19.36-1.34c3.45,5.06,5.78,9.87,7.2,14.14l-1.43.71c-1.35-4.27-3.68-9.01-6.98-13.98l1.2-.87Z" stroke="#000" stroke-miterlimit="10"/><path d="m588.6,93.23l-1.12,1.26c-2.78-3.71-7.35-9.72-11.78-14.77v40.45h-1.5v-43.45c-3.83,10.9-9.91,21.88-15.16,28.6l-1.2-1.11c5.78-7.11,12.53-19.67,16.06-31.12h-15.61v-1.5h15.91v-15.96c-5.03,1.26-10.21,2.29-14.48,2.76l-.83-1.58c9.31-.87,22.74-4.34,29.12-7.66l1.28,1.26c-3.38,1.66-8.33,3.4-13.58,4.82v16.35h13.51v1.5h-13.51v4.58c4.73,5.21,9.98,11.77,12.91,15.56Zm24.76,1.97v-45.82h1.5v45.42l10.66-2.61.45,1.5-11.11,2.69v23.7h-1.5v-23.3l-25.06,6.16-.45-1.5,25.51-6.24Zm-20.86-19.43c5.25,4.58,9.23,9.08,11.93,13.27l-1.28.95c-2.55-4.19-6.53-8.69-11.71-13.19l1.05-1.03Zm1.95-19.91c5.25,4.58,9.23,9.08,11.93,13.27l-1.28.95c-2.55-4.19-6.53-8.69-11.71-13.19l1.05-1.03Z" stroke="#000" stroke-miterlimit="10"/><path d="m110.5,11.93c-.31,1.54-1.32,3.78-1.43,4.03-.62,1.34-1.46,2.66-2.13,3.7l-2.63-1.51c1.12-1.29,2.1-3.28,2.24-3.58.87-1.82,1.2-3.47,1.43-4.59l2.91,1.04c.17.06.31.22.31.42,0,.36-.53.48-.7.5Zm11.17,12.96h-4.37c-1.48,0-3.56,0-3.98-1.88-.11-.53-.14-.7-.14-2.16v-7.56c0-1.88-.03-3.75-.08-5.63l3.33.5c.11.03.53.08.53.42,0,.28-.45.67-.73.87,0,.42-.08,2.1-.08,3.89v7.62c0,1.29.11,1.48,1.37,1.48h3.56c1.88,0,2.24,0,2.77-4.2l2.63,1.6c-.87,4.93-2.38,5.04-4.82,5.04Zm-1.76-17.25c-1.04-1.96-3.84-4.34-5.15-4.82l1.9-2.27c2.41,1.2,4.06,2.58,5.43,4.65l-2.18,2.44Zm8.51,10.19c-1.15-2.66-2.88-5.01-5.24-7.11l2.3-1.85c2.41,1.93,4.62,5.1,5.26,6.75l-2.32,2.21Z"/><path d="m149.18,13.02c-1.54.84-4.76,2.72-4.76,5.8,0,1.6,1.65,2.46,2.3,2.69,1.68.56,3.47.64,4.96.64,2.58,0,5.15-.08,7.56-1.01l.08,3.02c-2.18.36-4.4.42-6.61.42-4,0-10.92-.11-10.92-5.6,0-4.98,4.93-7.31,6.33-7.98-.84-.78-1.12-1.26-1.29-3-.34-3.86-.53-5.24-.92-7.08l3.08-.06c.84-.03,1.09,0,1.09.36,0,.42-.5.78-.81.98-.03.59-.06,1.2-.06,2.04,0,2.3.14,3.11.36,4,.2.84.53,1.09,1.06,1.51.9-.42,1.96-.9,4.31-1.71,2.69-.9,3.33-1.23,4.03-1.6l.78,3.16c-3.36.62-8.01,2.02-10.58,3.39Z"/><path d="m181.15,17.5c-.59-.48-1.74-1.37-3.14-2.91v5.82c0,1.12.14,4.34.2,5.29h-2.88c.22-2.66.25-5.01.25-5.15v-5.49c-1.62,1.57-3.05,2.46-4,3.08l-1.68-2.21c5.24-2.83,7.36-6.16,8.12-7.95h-3.14c-1.23,0-2.44.08-3.67.17v-2.63c.92.14,1.15.14,3.25.14h.92v-.56c0-1.43,0-2.21-.08-4.7l3.05.28c.28.03.53.25.53.5,0,.39-.56.62-.78.67-.03.67-.08,1.99-.08,3.25v.56c.98-.03,1.99-.11,2.97-.31l1.01,1.06c-.45.7-2.38,3.75-2.8,4.37-.34.48-.56.81-.76,1.06,1.4,1.43,2.97,2.66,4.62,3.81l-1.9,1.85Zm9.77,6.8h-4.98c-2.24,0-3.14.03-4.98.2v-2.55c1.57.14,2.3.14,4.98.14h1.46v-10.89h-1.23c-1.46,0-3.16,0-4.51.17v-2.52c1.82.22,4.34.22,4.51.22h1.23c-.03-4.31-.06-4.79-.11-8.76l2.91.28c.2.03.7.06.7.42,0,.28-.2.39-.64.62-.03,3.14-.06,3.36-.08,7.45h.53s2.55,0,4.51-.22v2.52c-1.4-.17-3.14-.17-4.51-.17h-.53v10.89h.81c1.34,0,3.53-.06,5.24-.22v2.63c-1.93-.14-2.69-.2-5.29-.2Z"/><path d="m230.01,12.12c-2.35-.84-3.33-1.29-4.9-2.21v1.6c-1.4-.17-3.11-.17-4.48-.17h-4.51c-1.43,0-3.14,0-4.48.17v-1.71c-2.41,1.6-3.53,1.99-4.42,2.32l-2.04-2.32c2.49-.76,4.45-1.48,7.11-3.67,2.02-1.65,3.86-3.56,4.93-5.96l2.91,1.01c.28.08.48.25.48.53,0,.22-.22.39-.48.48.78,1.88,5.15,5.99,11.68,7.45l-1.79,2.49Zm-9.38,4.31h-2.35c-.81,2.18-2.04,4.2-2.97,5.4,2.16-.17,5.12-.53,8.04-.92-.67-.73-1.15-1.12-2.46-2.16l2.13-1.46c2.52,1.9,4.79,5.04,5.57,6.66l-2.13,1.76c-.28-.73-.62-1.51-1.51-2.8-9.38,1.37-10.11,1.48-14.28,1.85-.11.25-.34.7-.67.7-.08,0-.31-.06-.36-.42l-.36-2.88c1.46-.03,2.04-.06,2.97-.11.81-1.15,2.27-3.19,3.08-5.63h-1.04c-3,0-4.4,0-7.06.28v-2.69c2.69.14,3.67.17,7.25.17h6.1c3.3,0,5.26-.03,9.27-.34v2.69c-1.96-.11-4.34-.11-9.21-.11Zm-2.55-12.74c-1.15,1.48-2.66,3.44-5.43,5.38.28.03,2.1.14,3.47.14h4.51c1.09,0,2.6-.08,3.16-.11-2.77-1.85-3.89-3.05-5.71-5.4Z"/><path d="m261.53,12.57c-.14,0-.76-.08-1.06-.11-1.48.36-1.62.42-5.15,1.85.03.81.03,4.51.06,5.24l-3.02.2c.11-.9.28-2.27.39-4.31-1.74.87-2.77,1.48-3.7,2.44-.64.67-1.12,1.65-1.12,2.41,0,2.16,3.11,2.41,5.4,2.41,1.46,0,4.26-.22,6.36-.84l-.81,2.88c-.22,0-.42.03-2.07.17-.64.06-1.43.11-2.63.11-5.12,0-6.3-.67-7.34-1.57-.95-.81-1.48-1.99-1.48-3.22,0-3.64,4.54-6.19,7.11-7.45-.25-.73-.59-1.68-2.07-1.68s-3.11,1.2-4,2.07c-1.2,1.18-2.04,2.49-2.66,3.56l-2.44-1.34c2.94-2.91,4.4-5.29,5.91-8.23-1.96.22-2.8.34-4.48.42l-.45-2.66c.76.06,1.51.14,2.63.14,1.4,0,2.44-.11,3.33-.2.78-1.93,1.04-2.97,1.34-4.14l3.11.45c.25.03.48.17.48.45,0,.31-.06.34-1.04.95-.45.92-.56,1.2-.87,1.85,2.72-.48,4.28-.95,5.96-1.57l-.28,2.66c-1.57.39-5.07,1.01-6.8,1.23-.67,1.32-1.12,2.04-1.6,2.8.56-.22,1.99-.7,3-.7s2.49.62,3.16,2.1c.11.25.2.56.25.78,3.64-1.51,3.78-1.57,5.07-2.24l1.82,2.32c.11.14.14.28.14.39,0,.22-.17.39-.45.39Z"/><path d="m279.09,25.31c-1.65-2.44-3.39-4.26-5.8-5.74l1.93-1.9c3.42,2.27,5.1,4.28,6.02,5.35l-2.16,2.3Z"/><path d="m305.13,22.29l-1.46-2.88c3.14.08,6.3-.53,8.9-2.27,1.6-1.06,2.94-2.94,2.94-5.24,0-4.34-4.37-5.01-5.88-5.01-1.74,0-3.89.73-5.43,1.26-1.09.36-5.88,2.13-6.86,2.46-.31.76-.42,1.06-.78,1.06-.14,0-.22,0-.62-.76l-1.51-2.88c1.29-.2,2.94-.45,5.91-1.29,6.52-1.88,7.64-2.18,9.8-2.18,2.44,0,4.42.62,6.19,2.49,1.54,1.65,1.96,3.3,1.96,4.76,0,4.73-4.9,9.88-13.16,10.47Z"/><path d="m341.09,7.28c-2.52.67-3.56.76-4.65.87-.64,1.88-2.94,7.76-5.52,11.84l-2.6-1.37c1.2-1.62,2.86-4,5.29-10.25-1.01.08-1.15.11-3.81.08l-.22-2.55c.78.14,1.54.28,2.97.28.78,0,1.32-.06,1.9-.11.73-2.07,1.09-4.06,1.29-5.32l2.94.7c.62.14.67.17.67.39,0,.28-.08.31-.84.62-.73,2.07-.87,2.41-1.18,3.25,1.29-.17,2.1-.34,4.06-.9l-.31,2.46Zm7.87,3.98c-.56-.14-1.18-.28-2.13-.28-3.25,0-3.98,1.34-3.98,2.94,0,.9.08,1.18.73,3.75,0,.03.03.31.06.36,2.6.87,3.5,1.29,5.85,2.77l-1.57,2.3c-2.18-1.65-2.86-1.99-3.95-2.44,0,1.06-.03,2.18-.73,3-.73.87-2.16,1.46-3.95,1.46-3.02,0-5.6-1.74-5.6-4.17,0-1.82,1.48-3.67,5.29-3.67.78,0,1.34.08,2.02.17-.5-2.02-.76-3-.76-3.92,0-.28.03-1.62.92-2.63,1.04-1.12,2.52-1.29,4.62-1.43-1.26-.7-1.88-.95-3.78-1.32l1.29-2.02c1.34.28,3.64.84,6.83,3.05l-1.18,2.07Zm-7.76,8.57c-1.09-.31-1.62-.39-2.3-.39-1.65,0-2.69.56-2.69,1.65,0,1.23,1.93,1.74,3,1.74,1.54,0,2.13-.84,2.13-1.93,0-.31-.08-.84-.14-1.06Z"/><path d="m374.54,2.86c-1.4,1.43-8.96,8.79-8.99,8.82-.28.31-.34.53-.34.7,0,.42.22.78.9,1.37,3.56,3.16,6.94,6.52,9.6,10.47l-2.55,1.99c-2.21-3.86-5.04-7.36-8.54-10.14-2.46-1.93-2.77-2.49-2.77-3.3s.42-1.26,1.71-2.55c.64-.64,3.56-3.5,4.14-4.12,1.85-1.93,3.84-3.98,5.18-6.1l2.49,1.57c.36.22.53.45.53.7,0,.45-.42.5-1.37.59Zm4.54,7.56c-.95-1.2-2.21-2.46-3-3.16l1.54-1.32c1.23.98,2.3,1.99,3.05,2.94l-1.6,1.54Zm1.93-4.14c-1.12-1.4-2.24-2.32-2.83-2.8l1.51-1.51c1.15.84,2.21,1.99,2.86,2.97l-1.54,1.34Z"/><path d="m395.59,25.34v-.03c-2.27,0-4.09-1.88-4.09-4.14s1.85-4.17,4.09-4.17,4.09,1.85,4.09,4.17-1.82,4.14-4.09,4.17Zm0-7.08c-1.57,0-2.86,1.29-2.86,2.91s1.26,2.91,2.86,2.91,2.86-1.32,2.86-2.91-1.32-2.91-2.86-2.91Z"/><path d="m438.29,23.52c-.45,1.06-1.09,2.02-4.42,1.82l-1.2-2.94c.73.14,1.37.25,2.04.25.95,0,1.48-.11,1.96-2.58.36-1.96.84-7.45.78-11.09h-2.02c-.06,2.16-.2,6.08-1.76,10.05-.95,2.35-2.66,5.04-4.62,6.47l-2.83-1.34c.62-.42,1.29-.81,2.18-1.65-5.21.81-6.97,1.04-12.1,1.62-.14.36-.36.81-.73.81-.31,0-.42-.25-.45-.53l-.25-2.74c1.6.08,2.72,0,6.55-.34v-1.79h-1.26c-.84,0-3.08.06-4.7.14v-2.13c1.54.08,3.67.14,4.7.14h1.26v-1.43h-.53c-.92,0-3.25.08-4.14.17.06-.7.11-2.41.11-3.19v-2.1c0-.45-.06-2.38-.11-2.91.7.06,2.77.08,3.61.08h1.06v-1.2h-1.32c-.45,0-2.66.03-4.84.17v-2.21c1.6.11,3.81.17,4.84.17h1.32v-1.4c-1.23.06-1.96.11-2.66.11-.59,0-1.4-.03-1.96-.06l-1.18-2.21c.73.14,1.68.28,3.25.28,1.4,0,5.49-.03,8.68-1.54l1.4,1.85c.06.08.11.22.11.36,0,.2-.08.36-.36.36-.31,0-.7-.25-.84-.34-.45.17-2.3.76-4.23.9v1.68h.92c1.01,0,3.19-.06,4.82-.17v2.21c-1.48-.08-3.86-.17-4.82-.17h-.92v1.2h.87c1.2,0,3.22-.03,4.09-.08-.03.56-.11,2.07-.11,2.27v2.88c0,.48.08,2.13.11,3.05-1.23-.11-2.46-.17-4.31-.17h-.64v1.43h.48c.98,0,3.14-.06,4.7-.14v2.13c-1.46-.08-3.78-.14-4.7-.14h-.48v1.57c1.93-.2,3.81-.39,5.43-.7l-.28,1.74c3.84-3.92,4.12-10.67,4.23-13.16-1.6,0-2.58.06-3.25.11v-2.41c.81.08,2.16.11,3.3.11,0-3.22,0-4.37-.31-6.05l3.08.2c.25.03.48.08.48.36,0,.25-.45.53-.76.73v.98c0,.59-.06,3.25-.06,3.78h.56c.81,0,2.24-.11,3.75-.2-.03,4.96-.08,13.41-1.54,16.91Zm-16.86-13.47h-2.38v1.34h2.38v-1.34Zm0,3h-2.38v1.48h2.38v-1.48Zm4.9-3h-2.69v1.34h2.69v-1.34Zm0,3h-2.69v1.48h2.69v-1.48Z"/><path d="m464.44,21.31c-.87,1.79-1.79,2.46-3.89,2.46-1.18,0-1.79-.17-2.49-.39l-.42-2.91c.92.42,1.68.76,2.66.76.7,0,1.51-.06,2.27-2.21.73-2.02,1.29-4.37,1.29-6.47,0-1.85-.45-2.74-1.76-2.74-.76,0-1.57.14-2.83.36-1.34,4.79-3.16,9.44-6.08,13.44l-2.77-1.23c2.44-2.18,4.73-6.5,6.02-11.59-1.09.2-3.7.87-4.73,1.2l-.95-2.66c1.88-.08,4.14-.53,6.19-.95.39-2.04.78-4.12.64-6.19l2.72.25c.22.03,1.18.11,1.18.62,0,.25-.2.42-.9,1.01-.25,1.12-.34,1.51-.81,3.78,1.01-.14,1.96-.25,3.11-.25,2.88,0,3.56,2.44,3.56,4.76,0,3-.95,6.83-1.99,8.96Zm5.24-5.52l-1.9-2.49c2.32.11,2.66-.34,2.66-1.18,0-.59-.28-1.09-.59-1.54-.76-1.12-2.55-3.16-3.33-3.89l1.99-1.26c.7.7,1.79,1.76,3.11,3.42,1.43,1.76,1.65,2.8,1.65,3.64,0,2.55-2.52,3.08-3.58,3.3Z"/><path d="m500.56,6.92c-1.79,0-2.46.06-3.56.14-.06.62-.2,3.33-.22,3.89.5,1.01,1.23,2.44,1.23,4.62,0,1.04-.28,6.24-4.54,10.28l-3.19-1.29c.7-.34,1.65-.81,2.66-1.99,1.26-1.46,1.57-2.72,1.79-3.58-.5.34-1.06.7-2.13.7-2.72,0-3.92-2.58-3.92-4.65,0-2.38,1.57-5.35,4.42-5.35.5,0,1.12.06,1.32.08.03-.76.03-.92.03-2.52-1.99.03-7.78.36-11.23.98l-.31-2.91c.76.03.95.06,1.79.06,1.01,0,5.43-.17,6.33-.2,1.26-.03,1.96-.03,3.33-.06,0-1.23-.03-2.83-.34-4.54l3,.14c.45.03,1.06.03,1.06.48,0,.2-.2.34-.28.39-.28.22-.31.25-.56.45-.11.73-.14.95-.2,2.91,1.26,0,6.1-.2,8.62-.7l.11,2.86c-2.49-.2-4.62-.2-5.24-.2Zm-7.39,5.21c-1.18,0-1.99,1.32-1.99,2.88,0,1.79,1.12,2.38,1.68,2.38,1.79,0,2.07-1.82,2.07-2.77,0-1.6-.84-2.49-1.76-2.49Z"/><path d="m518.31,25.34v-.03c-2.27,0-4.09-1.88-4.09-4.14s1.85-4.17,4.09-4.17,4.09,1.85,4.09,4.17-1.82,4.14-4.09,4.17Zm0-7.08c-1.57,0-2.86,1.29-2.86,2.91s1.26,2.91,2.86,2.91,2.86-1.32,2.86-2.91-1.32-2.91-2.86-2.91Z"/></svg>