<?xml version="1.0" encoding="UTF-8"?><svg id="uuid-9b93e0b4-0b14-4772-93c8-7ac8f49b8355" xmlns="http://www.w3.org/2000/svg" width="832" height="56" viewBox="0 0 832 56"><path d="m365.98,22.55c-1.71,7.32-5.3,16.38-9.06,21.6l-1.08-.6c3.93-5.28,7.52-14.22,9.06-21.3l1.08.3Zm7.01-8.04v32.22c0,3.48,1.14,4.38,4.39,4.44,3.19.06,8.78.06,12.31,0,4.1-.12,4.39-.66,4.56-11.82l1.14.24c-.29,11.7-.74,12.66-5.53,12.78-3.76.06-9.29.06-12.66,0-3.82-.06-5.36-1.32-5.36-5.58V14.51h1.14Zm.97-13.5c6.5,4.2,11.69,8.52,15.28,12.6l-.91.78c-3.53-4.08-8.67-8.4-15.11-12.54l.74-.84Zm22.35,20.1c5.19,7.5,8.84,14.64,11,20.7l-1.08.48c-2.11-6.06-5.76-13.14-10.83-20.58l.91-.6Z" stroke="#000" stroke-miterlimit="10"/><path d="m422.53,43.06v-18.66h-7.41v-1.14h7.41V6.89h-8.27v-1.14h17.33v1.14h-7.92v16.38h7.13v1.14h-7.13v18.3c2.91-.9,5.87-1.74,8.15-2.52l.11,1.2c-5.25,1.68-13.4,4.14-17.96,5.46l-.4-1.26c2.22-.6,5.53-1.56,8.95-2.52Zm24.97,8.04v-11.82h-14.02v-1.14h14.02v-9.78h-13.45V3.53h28.67v24.84h-14.08v9.78h14.54v1.14h-14.54v11.82h16.53v1.14h-35.91v-1.14h18.24Zm-12.31-35.94h12.31V4.67h-12.31v10.5Zm0,12.06h12.31v-10.86h-12.31v10.86Zm26.34-12.06V4.67h-12.88v10.5h12.88Zm0,12.06v-10.86h-12.88v10.86h12.88Z" stroke="#000" stroke-miterlimit="10"/><path d="m497.26,36.94v-4.74h.8c4.39-2.58,9.18-5.94,12.09-8.58h-27.08v-1.14h28.79l.85.48c-3.48,3.18-9.18,7.26-14.31,10.32v3.66h24.68v1.14h-24.68v13.62c0,1.62-.51,2.58-2.11,2.82-1.43.18-5.81.12-8.78.06v-1.2c2.68.12,6.95.12,8.04.06,1.31-.12,1.71-.72,1.71-1.8v-13.56h-24.97v-1.14h24.97Zm10.66-23.46l-.85-.66c3.42-4.14,6.84-8.88,8.61-12.12l1.03.6c-2,3.36-5.36,8.04-8.78,12.18h13.23v11.34h-1.2v-10.2h-44.41v10.2h-1.14v-11.34h33.52Zm-29.02-11.76c2.91,3.6,5.02,6.96,6.38,10.02l-1.03.66c-1.31-3.06-3.36-6.48-6.21-9.96l.85-.72Zm14.71-1.02c2.62,3.84,4.39,7.5,5.47,10.74l-1.08.54c-1.03-3.24-2.79-6.84-5.3-10.62l.91-.66Z" stroke="#000" stroke-miterlimit="10"/><path d="m549.24,24.53c2.34-4.8,4.56-10.26,5.76-13.98l1.14.36c-1.31,3.72-3.42,9-5.7,13.62h10.72v1.14h-30.95v-1.14h19.04Zm-4.05-16.56V.71h1.14v7.26h12.2v1.14h-26v-1.14h12.66Zm-9.35,43.74v2.94h-1.14v-21.42h21.95v21.42h-1.14v-2.94h-19.67Zm19.67-1.14v-16.2h-19.67v16.2h19.67Zm-18.47-39.72c1.77,4.14,3.14,8.94,3.65,12.24l-1.2.42c-.46-3.36-1.82-8.28-3.53-12.24l1.08-.42Zm43.04-7.8h.23l.74.36c-2.79,5.94-6.21,12.84-9.52,19.32,6.5,5.88,9.41,10.02,9.41,14.88,0,4.26-1.37,7.86-5.42,8.4-1.54.24-4.85.18-6.73,0l-.06-1.32c1.71.24,4.96.3,6.27.12,3.65-.42,4.67-3.36,4.67-7.2,0-4.5-2.74-8.64-9.69-14.58,3.59-6.78,6.9-13.44,9.29-18.84h-15.16v50.52h-1.14V3.05h17.1Z" stroke="#000" stroke-miterlimit="10"/><path d="m615.07,22.55c-1.71,7.32-5.3,16.38-9.06,21.6l-1.08-.6c3.93-5.28,7.53-14.22,9.06-21.3l1.08.3Zm7.01-8.04v32.22c0,3.48,1.14,4.38,4.39,4.44,3.19.06,8.78.06,12.31,0,4.1-.12,4.39-.66,4.56-11.82l1.14.24c-.29,11.7-.74,12.66-5.53,12.78-3.76.06-9.29.06-12.66,0-3.82-.06-5.36-1.32-5.36-5.58V14.51h1.14Zm.97-13.5c6.5,4.2,11.69,8.52,15.28,12.6l-.91.78c-3.53-4.08-8.67-8.4-15.11-12.54l.74-.84Zm22.35,20.1c5.19,7.5,8.84,14.64,11,20.7l-1.08.48c-2.11-6.06-5.76-13.14-10.83-20.58l.91-.6Z" stroke="#000" stroke-miterlimit="10"/><path d="m671.62,43.06v-18.66h-7.41v-1.14h7.41V6.89h-8.27v-1.14h17.33v1.14h-7.92v16.38h7.13v1.14h-7.13v18.3c2.91-.9,5.87-1.74,8.15-2.52l.11,1.2c-5.25,1.68-13.4,4.14-17.96,5.46l-.4-1.26c2.22-.6,5.53-1.56,8.95-2.52Zm24.97,8.04v-11.82h-14.02v-1.14h14.02v-9.78h-13.45V3.53h28.67v24.84h-14.08v9.78h14.54v1.14h-14.54v11.82h16.53v1.14h-35.91v-1.14h18.24Zm-12.31-35.94h12.31V4.67h-12.31v10.5Zm0,12.06h12.31v-10.86h-12.31v10.86Zm26.34-12.06V4.67h-12.88v10.5h12.88Zm0,12.06v-10.86h-12.88v10.86h12.88Z" stroke="#000" stroke-miterlimit="10"/><path d="m746.35,36.94v-4.74h.8c4.39-2.58,9.18-5.94,12.08-8.58h-27.08v-1.14h28.79l.86.48c-3.48,3.18-9.18,7.26-14.31,10.32v3.66h24.68v1.14h-24.68v13.62c0,1.62-.51,2.58-2.11,2.82-1.42.18-5.81.12-8.78.06v-1.2c2.68.12,6.96.12,8.04.06,1.31-.12,1.71-.72,1.71-1.8v-13.56h-24.97v-1.14h24.97Zm10.66-23.46l-.86-.66c3.42-4.14,6.84-8.88,8.61-12.12l1.03.6c-2,3.36-5.36,8.04-8.78,12.18h13.23v11.34h-1.2v-10.2h-44.41v10.2h-1.14v-11.34h33.52Zm-29.02-11.76c2.91,3.6,5.02,6.96,6.38,10.02l-1.03.66c-1.31-3.06-3.36-6.48-6.21-9.96l.86-.72Zm14.71-1.02c2.62,3.84,4.39,7.5,5.47,10.74l-1.08.54c-1.03-3.24-2.79-6.84-5.3-10.62l.91-.66Z" stroke="#000" stroke-miterlimit="10"/><path d="m802.32,34.24l-.85.96c-2.11-2.82-5.59-7.38-8.95-11.22v30.72h-1.14V21.71c-2.91,8.28-7.52,16.62-11.51,21.72l-.91-.84c4.39-5.4,9.52-14.94,12.2-23.64h-11.86v-1.14h12.08V5.69c-3.82.96-7.75,1.74-11,2.1l-.63-1.2c7.07-.66,17.27-3.3,22.12-5.82l.97.96c-2.57,1.26-6.33,2.58-10.32,3.66v12.42h10.26v1.14h-10.26v3.48c3.59,3.96,7.58,8.94,9.8,11.82Zm18.81,1.5V.95h1.14v34.5l8.1-1.98.34,1.14-8.44,2.04v18h-1.14v-17.7l-19.04,4.68-.34-1.14,19.38-4.74Zm-15.85-14.76c3.99,3.48,7.01,6.9,9.06,10.08l-.97.72c-1.94-3.18-4.96-6.6-8.89-10.02l.8-.78Zm1.48-15.12c3.99,3.48,7.01,6.9,9.06,10.08l-.97.72c-1.94-3.18-4.96-6.6-8.89-10.02l.8-.78Z" stroke="#000" stroke-miterlimit="10"/><path d="m4.86,27.65c-.24,1.21-1.03,2.97-1.12,3.17-.48,1.06-1.14,2.09-1.67,2.9l-2.07-1.19c.88-1.01,1.65-2.57,1.76-2.82.68-1.43.95-2.73,1.12-3.61l2.29.81c.13.04.24.18.24.33,0,.29-.42.37-.55.4Zm8.78,10.19h-3.43c-1.17,0-2.79,0-3.12-1.47-.09-.42-.11-.55-.11-1.69v-5.94c0-1.47-.02-2.95-.07-4.42l2.62.4c.09.02.42.07.42.33,0,.22-.35.53-.57.68,0,.33-.07,1.65-.07,3.06v5.98c0,1.01.09,1.17,1.08,1.17h2.79c1.47,0,1.76,0,2.18-3.3l2.07,1.25c-.68,3.87-1.87,3.96-3.78,3.96Zm-1.39-13.55c-.81-1.54-3.01-3.41-4.05-3.78l1.5-1.78c1.89.95,3.19,2.02,4.27,3.65l-1.72,1.91Zm6.69,8.01c-.9-2.09-2.27-3.94-4.11-5.59l1.8-1.45c1.89,1.52,3.63,4,4.14,5.3l-1.83,1.74Z"/><path d="m35.3,28.51c-1.21.66-3.74,2.13-3.74,4.55,0,1.25,1.3,1.94,1.8,2.11,1.32.44,2.73.51,3.89.51,2.02,0,4.05-.07,5.94-.79l.07,2.38c-1.72.29-3.45.33-5.19.33-3.15,0-8.58-.09-8.58-4.4,0-3.92,3.87-5.74,4.97-6.27-.66-.62-.88-.99-1.01-2.35-.26-3.04-.42-4.11-.73-5.57l2.42-.04c.66-.02.86,0,.86.29,0,.33-.4.62-.64.77-.02.46-.04.95-.04,1.61,0,1.8.11,2.44.29,3.15.15.66.42.86.84,1.19.7-.33,1.54-.7,3.39-1.34,2.11-.7,2.62-.97,3.17-1.25l.62,2.49c-2.64.48-6.29,1.58-8.32,2.66Z"/><path d="m60.49,32.03c-.46-.37-1.36-1.08-2.46-2.29v4.58c0,.88.11,3.41.15,4.16h-2.27c.18-2.09.2-3.94.2-4.05v-4.31c-1.28,1.23-2.4,1.94-3.15,2.42l-1.32-1.74c4.11-2.22,5.79-4.84,6.38-6.25h-2.46c-.97,0-1.91.07-2.88.13v-2.07c.73.11.9.11,2.55.11h.73v-.44c0-1.12,0-1.74-.07-3.7l2.4.22c.22.02.42.2.42.4,0,.31-.44.48-.62.53-.02.53-.07,1.56-.07,2.55v.44c.77-.02,1.56-.09,2.33-.24l.79.84c-.35.55-1.87,2.95-2.2,3.43-.26.37-.44.64-.59.84,1.1,1.12,2.33,2.09,3.63,2.99l-1.5,1.45Zm7.68,5.35h-3.92c-1.76,0-2.46.02-3.92.15v-2c1.23.11,1.8.11,3.92.11h1.14v-8.56h-.97c-1.14,0-2.49,0-3.54.13v-1.98c1.43.18,3.41.18,3.54.18h.97c-.02-3.39-.04-3.76-.09-6.89l2.29.22c.15.02.55.04.55.33,0,.22-.15.31-.51.48-.02,2.46-.04,2.64-.07,5.85h.42s2,0,3.54-.18v1.98c-1.1-.13-2.46-.13-3.54-.13h-.42v8.56h.64c1.06,0,2.77-.04,4.11-.18v2.07c-1.52-.11-2.11-.15-4.16-.15Z"/><path d="m98.91,27.8c-1.85-.66-2.62-1.01-3.85-1.74v1.25c-1.1-.13-2.44-.13-3.52-.13h-3.54c-1.12,0-2.46,0-3.52.13v-1.34c-1.89,1.25-2.77,1.56-3.48,1.83l-1.61-1.83c1.96-.59,3.5-1.17,5.59-2.88,1.58-1.3,3.04-2.79,3.87-4.69l2.29.79c.22.07.37.2.37.42,0,.18-.18.31-.37.37.62,1.47,4.05,4.71,9.18,5.85l-1.41,1.96Zm-7.37,3.39h-1.85c-.64,1.72-1.61,3.3-2.33,4.25,1.69-.13,4.03-.42,6.31-.73-.53-.57-.9-.88-1.94-1.69l1.67-1.14c1.98,1.5,3.76,3.96,4.38,5.24l-1.67,1.39c-.22-.57-.48-1.19-1.19-2.2-7.37,1.08-7.94,1.17-11.22,1.45-.09.2-.26.55-.53.55-.07,0-.24-.04-.29-.33l-.29-2.27c1.14-.02,1.61-.04,2.33-.09.64-.9,1.78-2.51,2.42-4.42h-.81c-2.35,0-3.45,0-5.54.22v-2.11c2.11.11,2.88.13,5.7.13h4.8c2.6,0,4.14-.02,7.28-.26v2.11c-1.54-.09-3.41-.09-7.24-.09Zm-2-10.01c-.9,1.17-2.09,2.71-4.27,4.22.22.02,1.65.11,2.73.11h3.54c.86,0,2.05-.07,2.49-.09-2.18-1.45-3.06-2.4-4.49-4.25Z"/><path d="m123.74,28.16c-.11,0-.59-.07-.84-.09-1.17.29-1.28.33-4.05,1.45.02.64.02,3.54.04,4.11l-2.38.15c.09-.7.22-1.78.31-3.39-1.36.68-2.18,1.17-2.9,1.91-.51.53-.88,1.3-.88,1.89,0,1.69,2.44,1.89,4.25,1.89,1.14,0,3.34-.18,4.99-.66l-.64,2.27c-.18,0-.33.02-1.63.13-.51.04-1.12.09-2.07.09-4.03,0-4.95-.53-5.77-1.23-.75-.64-1.17-1.56-1.17-2.53,0-2.86,3.56-4.86,5.59-5.85-.2-.57-.46-1.32-1.63-1.32s-2.44.95-3.15,1.63c-.95.92-1.61,1.96-2.09,2.79l-1.91-1.06c2.31-2.29,3.45-4.16,4.64-6.47-1.54.18-2.2.26-3.52.33l-.35-2.09c.59.04,1.19.11,2.07.11,1.1,0,1.91-.09,2.62-.15.62-1.52.81-2.33,1.06-3.26l2.44.35c.2.02.37.13.37.35,0,.24-.04.26-.81.75-.35.73-.44.95-.68,1.45,2.13-.37,3.37-.75,4.69-1.23l-.22,2.09c-1.23.31-3.98.79-5.35.97-.53,1.03-.88,1.61-1.25,2.2.44-.18,1.56-.55,2.35-.55s1.96.48,2.49,1.65c.09.2.15.44.2.62,2.86-1.19,2.97-1.23,3.98-1.76l1.43,1.83c.09.11.11.22.11.31,0,.18-.13.31-.35.31Z"/><path d="m137.53,38.17c-1.3-1.91-2.66-3.34-4.55-4.51l1.52-1.5c2.68,1.78,4,3.37,4.73,4.2l-1.69,1.8Z"/><path d="m157.99,35.79l-1.14-2.27c2.46.07,4.95-.42,7-1.78,1.25-.84,2.31-2.31,2.31-4.11,0-3.41-3.43-3.94-4.62-3.94-1.36,0-3.06.57-4.27.99-.86.29-4.62,1.67-5.39,1.94-.24.59-.33.84-.62.84-.11,0-.18,0-.48-.59l-1.19-2.27c1.01-.15,2.31-.35,4.64-1.01,5.13-1.47,6.01-1.72,7.7-1.72,1.91,0,3.48.48,4.86,1.96,1.21,1.3,1.54,2.6,1.54,3.74,0,3.72-3.85,7.77-10.34,8.23Z"/><path d="m186.3,24c-1.98.53-2.79.59-3.65.68-.51,1.47-2.31,6.09-4.33,9.31l-2.05-1.08c.95-1.28,2.24-3.15,4.16-8.05-.79.07-.9.09-2.99.07l-.18-2c.62.11,1.21.22,2.33.22.62,0,1.03-.04,1.5-.09.57-1.63.86-3.19,1.01-4.18l2.31.55c.48.11.53.13.53.31,0,.22-.07.24-.66.48-.57,1.63-.68,1.89-.92,2.55,1.01-.13,1.65-.26,3.19-.7l-.24,1.94Zm6.18,3.12c-.44-.11-.92-.22-1.67-.22-2.55,0-3.12,1.06-3.12,2.31,0,.7.07.92.57,2.95,0,.02.02.24.04.29,2.05.68,2.75,1.01,4.6,2.18l-1.23,1.8c-1.72-1.3-2.24-1.56-3.1-1.91,0,.84-.02,1.72-.57,2.35-.57.68-1.69,1.14-3.1,1.14-2.38,0-4.4-1.36-4.4-3.28,0-1.43,1.17-2.88,4.16-2.88.62,0,1.06.07,1.58.13-.4-1.58-.59-2.35-.59-3.08,0-.22.02-1.28.73-2.07.81-.88,1.98-1.01,3.63-1.12-.99-.55-1.47-.75-2.97-1.03l1.01-1.58c1.06.22,2.86.66,5.37,2.4l-.92,1.63Zm-6.09,6.73c-.86-.24-1.28-.31-1.8-.31-1.3,0-2.11.44-2.11,1.3,0,.97,1.52,1.36,2.35,1.36,1.21,0,1.67-.66,1.67-1.52,0-.24-.07-.66-.11-.84Z"/><path d="m212.65,20.52c-1.1,1.12-7.04,6.91-7.06,6.93-.22.24-.26.42-.26.55,0,.33.18.62.7,1.08,2.79,2.49,5.46,5.13,7.55,8.23l-2,1.56c-1.74-3.04-3.96-5.79-6.71-7.97-1.94-1.52-2.18-1.96-2.18-2.6s.33-.99,1.34-2c.51-.51,2.79-2.75,3.26-3.23,1.45-1.52,3.01-3.12,4.07-4.8l1.96,1.23c.29.18.42.35.42.55,0,.35-.33.4-1.08.46Zm3.56,5.94c-.75-.95-1.74-1.94-2.35-2.49l1.21-1.03c.97.77,1.8,1.56,2.4,2.31l-1.25,1.21Zm1.52-3.26c-.88-1.1-1.76-1.83-2.22-2.2l1.19-1.19c.9.66,1.74,1.56,2.24,2.33l-1.21,1.06Z"/><path d="m229.2,38.19v-.02c-1.78,0-3.21-1.47-3.21-3.26s1.45-3.28,3.21-3.28,3.21,1.45,3.21,3.28-1.43,3.26-3.21,3.28Zm0-5.57c-1.23,0-2.24,1.01-2.24,2.29s.99,2.29,2.24,2.29,2.24-1.03,2.24-2.29-1.03-2.29-2.24-2.29Z"/><path d="m262.75,36.76c-.35.84-.86,1.58-3.48,1.43l-.95-2.31c.57.11,1.08.2,1.61.2.75,0,1.17-.09,1.54-2.02.29-1.54.66-5.85.62-8.71h-1.58c-.04,1.69-.15,4.77-1.39,7.9-.75,1.85-2.09,3.96-3.63,5.08l-2.22-1.06c.48-.33,1.01-.64,1.72-1.3-4.09.64-5.48.81-9.51,1.28-.11.29-.29.64-.57.64-.24,0-.33-.2-.35-.42l-.2-2.16c1.25.07,2.13,0,5.15-.26v-1.41h-.99c-.66,0-2.42.04-3.7.11v-1.67c1.21.07,2.88.11,3.7.11h.99v-1.12h-.42c-.73,0-2.55.07-3.26.13.04-.55.09-1.89.09-2.51v-1.65c0-.35-.04-1.87-.09-2.29.55.04,2.18.07,2.84.07h.84v-.95h-1.03c-.35,0-2.09.02-3.81.13v-1.74c1.25.09,2.99.13,3.81.13h1.03v-1.1c-.97.04-1.54.09-2.09.09-.46,0-1.1-.02-1.54-.04l-.92-1.74c.57.11,1.32.22,2.55.22,1.1,0,4.31-.02,6.82-1.21l1.1,1.45c.04.07.09.18.09.29,0,.15-.07.29-.29.29-.24,0-.55-.2-.66-.26-.35.13-1.8.59-3.32.7v1.32h.73c.79,0,2.51-.04,3.78-.13v1.74c-1.17-.07-3.04-.13-3.78-.13h-.73v.95h.68c.95,0,2.53-.02,3.21-.07-.02.44-.09,1.63-.09,1.78v2.27c0,.37.07,1.67.09,2.4-.97-.09-1.94-.13-3.39-.13h-.51v1.12h.37c.77,0,2.46-.04,3.7-.11v1.67c-1.14-.07-2.97-.11-3.7-.11h-.37v1.23c1.52-.15,2.99-.31,4.27-.55l-.22,1.36c3.01-3.08,3.23-8.38,3.32-10.34-1.25,0-2.02.04-2.55.09v-1.89c.64.07,1.69.09,2.6.09,0-2.53,0-3.43-.24-4.75l2.42.15c.2.02.37.07.37.29,0,.2-.35.42-.59.57v.77c0,.46-.04,2.55-.04,2.97h.44c.64,0,1.76-.09,2.95-.15-.02,3.89-.07,10.54-1.21,13.29Zm-13.25-10.58h-1.87v1.06h1.87v-1.06Zm0,2.35h-1.87v1.17h1.87v-1.17Zm3.85-2.35h-2.11v1.06h2.11v-1.06Zm0,2.35h-2.11v1.17h2.11v-1.17Z"/><path d="m283.34,35.02c-.68,1.41-1.41,1.94-3.06,1.94-.92,0-1.41-.13-1.96-.31l-.33-2.29c.73.33,1.32.59,2.09.59.55,0,1.19-.04,1.78-1.74.57-1.58,1.01-3.43,1.01-5.08,0-1.45-.35-2.16-1.39-2.16-.59,0-1.23.11-2.22.29-1.06,3.76-2.49,7.42-4.77,10.56l-2.18-.97c1.91-1.72,3.72-5.1,4.73-9.11-.86.15-2.9.68-3.72.95l-.75-2.09c1.47-.07,3.26-.42,4.86-.75.31-1.61.62-3.23.51-4.86l2.13.2c.18.02.92.09.92.48,0,.2-.15.33-.7.79-.2.88-.26,1.19-.64,2.97.79-.11,1.54-.2,2.44-.2,2.27,0,2.79,1.91,2.79,3.74,0,2.35-.75,5.37-1.56,7.04Zm4.11-4.33l-1.5-1.96c1.83.09,2.09-.26,2.09-.92,0-.46-.22-.86-.46-1.21-.59-.88-2-2.49-2.62-3.06l1.56-.99c.55.55,1.41,1.39,2.44,2.68,1.12,1.39,1.3,2.2,1.3,2.86,0,2-1.98,2.42-2.82,2.6Z"/><path d="m311.78,23.71c-1.41,0-1.94.04-2.79.11-.04.48-.15,2.62-.18,3.06.4.79.97,1.91.97,3.63,0,.81-.22,4.91-3.56,8.08l-2.51-1.01c.55-.26,1.3-.64,2.09-1.56.99-1.14,1.23-2.13,1.41-2.82-.4.26-.84.55-1.67.55-2.13,0-3.08-2.02-3.08-3.65,0-1.87,1.23-4.2,3.48-4.2.4,0,.88.04,1.03.07.02-.59.02-.73.02-1.98-1.56.02-6.12.29-8.82.77l-.24-2.29c.59.02.75.04,1.41.04.79,0,4.27-.13,4.97-.15.99-.02,1.54-.02,2.62-.04,0-.97-.02-2.22-.26-3.56l2.35.11c.35.02.84.02.84.37,0,.15-.15.26-.22.31-.22.18-.24.2-.44.35-.09.57-.11.75-.15,2.29.99,0,4.8-.15,6.78-.55l.09,2.24c-1.96-.15-3.63-.15-4.11-.15Zm-5.81,4.09c-.92,0-1.56,1.03-1.56,2.27,0,1.41.88,1.87,1.32,1.87,1.41,0,1.63-1.43,1.63-2.18,0-1.25-.66-1.96-1.39-1.96Z"/><path d="m325.73,38.19v-.02c-1.78,0-3.21-1.47-3.21-3.26s1.45-3.28,3.21-3.28,3.21,1.45,3.21,3.28-1.43,3.26-3.21,3.28Zm0-5.57c-1.23,0-2.24,1.01-2.24,2.29s.99,2.29,2.24,2.29,2.24-1.03,2.24-2.29-1.03-2.29-2.24-2.29Z"/></svg>