<svg xmlns="http://www.w3.org/2000/svg" width="207" height="187" viewBox="0 0 207 187"><path d="M23.1,9.4A54.42,54.42,0,0,1,14,11.3C11.5,18.3,7.1,26.9,3.2,32L1.5,31c4.2-4.7,8.6-13.3,10.8-19.6-2,.2-4,.3-5.9.3-1.7,0-3.7,0-5.3-.1L1,9.9a38.52,38.52,0,0,0,5.4.3c1.9,0,4.1-.1,6.4-.3A45.32,45.32,0,0,0,14.6,1l2,.2c-.5,2-1.3,5.7-2.1,8.5a55.09,55.09,0,0,0,8.6-2Zm4.9,7a30.52,30.52,0,0,0,0,4.3c0,2.3.3,6.4.4,10a31,31,0,0,1,10,6.1l-.9,1.4a30.33,30.33,0,0,0-9-5.8v3.4c0,3.3-2.6,6.2-7.7,6.2-4.7,0-8.6-1.7-8.6-6.1s4.5-6.4,8.7-6.4a22.33,22.33,0,0,1,6,.8c-.1-4.4-.4-9.8-.5-13.8H28ZM27,31.7a23.5,23.5,0,0,0-6-.9c-4.3,0-7.3,2-7.3,4.9s2.1,4.6,7,4.6c4.6,0,6.3-2.6,6.3-4.9ZM29.3,8.6A58.11,58.11,0,0,1,40,15.1l-.9,1.4c-2.4-2.3-7.4-5.1-10.5-6.6Z"/><path d="M84.4,5.1C82.5,8.4,76.8,19,74.1,24.2,77,21,80,19.7,82.8,19.7a5.36,5.36,0,0,1,5.4,5.6c.1,3.7,0,7.3.1,10.1.1,3,2.1,4.3,4.7,4.3,6.6,0,10.3-8,11.5-12.4l1.3,1c-2.6,7.5-6.3,12.9-12.9,12.9-5,0-5.9-3.5-6-5.7-.1-3.1,0-6.8-.1-10.2-.1-2.6-1.6-4.1-4.3-4.1-4.5,0-9,4.6-11,8.4a68.14,68.14,0,0,0-4.7,11.5l-1.6-.6C68.7,30.4,80.4,9.3,83,4.5a28.55,28.55,0,0,0,1.2-2.7l1.8.8A18.52,18.52,0,0,0,84.4,5.1Z"/><path d="M151.4,10.8a95.55,95.55,0,0,1-10.7,1.8,55.75,55.75,0,0,1-1.6,6.8c-1.8,7.2-5,17.5-7.5,22.5l-1.9-.6c2.9-5.3,6.1-15,7.9-22.1.5-1.9,1-4.2,1.5-6.5q-3.15.3-5.7.3c-1.9,0-3.6-.1-5.4-.2V11.1a37.68,37.68,0,0,0,5.5.3c1.7,0,3.7-.1,5.9-.3.5-2.5.9-4.7,1.1-5.8s.2-2.3.2-3.2l2,.2c-.2.8-.5,2.3-.7,3.2-.3,1.6-.6,3.5-1,5.5a68.36,68.36,0,0,0,10.4-2Zm-2.9,18.4a18.5,18.5,0,0,0-.7,4.8c0,2.5,1,5.4,9.6,5.4a40.62,40.62,0,0,0,8.9-.9v1.8a58.46,58.46,0,0,1-8.9.7c-7.1,0-11-2-11-6.8a28.56,28.56,0,0,1,.6-5.1Zm.4-11.7c2.4-.2,5.3-.4,8.4-.4a71,71,0,0,1,8.3.4l-.1,1.7a66.72,66.72,0,0,0-8-.6,84.27,84.27,0,0,0-8.6.5V17.5Zm14.3-6a55.51,55.51,0,0,0-4.1-7l1.3-.7a57.46,57.46,0,0,1,4.2,6.9Zm2.2-9.4A56.22,56.22,0,0,1,169.7,9l-1.4.7a48,48,0,0,0-4.2-7Z"/><path d="M204.7,42.3A74.51,74.51,0,0,0,193.6,31l1.2-1.2a92.61,92.61,0,0,1,11.3,11.3Z"/><path d="M7.7,97.4a20.29,20.29,0,0,0-1.1,6.2c0,4.3,4.5,7.3,13,7.3,6.9,0,13.1-.8,16.2-1.9v1.6c-2.7,1-9.2,1.8-16.2,1.8-8.6,0-14.5-2.9-14.5-8.5a30.13,30.13,0,0,1,1-6.7Zm.1-19a109.63,109.63,0,0,0,12.4.7c4.6,0,8.8-.4,12.1-.7V80c-3.2.2-7.8.6-12.1.6-4.7,0-8.7-.2-12.4-.5Z"/><path d="M68.3,97.4a20.29,20.29,0,0,0-1.1,6.2c0,4.3,4.5,7.3,13,7.3,6.9,0,13.1-.8,16.2-1.9v1.6c-2.7,1-9.2,1.8-16.2,1.8-8.6,0-14.5-2.9-14.5-8.5a30.13,30.13,0,0,1,1-6.7Zm.1-19a109.63,109.63,0,0,0,12.4.7c4.6,0,8.8-.4,12.1-.7V80c-3.2.2-7.8.6-12.1.6-4.7,0-8.7-.2-12.4-.5Z"/><path d="M130.4,77c2.5,0,13.1-.4,16.1-.6a12.86,12.86,0,0,0,1.9-.4l1.4,1.5c-.3.2-1.2.9-1.6,1.2-4.4,3.7-11.4,9.8-14.8,12.9a21.18,21.18,0,0,1,9.6-2.1c7.3,0,12.8,4.3,12.8,11,0,9.7-11,13.8-23.3,12.8l-.5-1.7c11.9,1.4,22.3-2.8,22.3-11.2,0-5.6-4.5-9.3-11.5-9.3-9.2,0-14.1,4.6-19.7,10.4l-1.2-1.3c7.7-7.4,20.5-18.4,25-22.4-3.4.1-14,.6-16.5.7a26.35,26.35,0,0,1-2.8.2V76.8A12.74,12.74,0,0,0,130.4,77Z"/><path d="M23.1,153.4a54.42,54.42,0,0,1-9.1,1.9c-2.5,7-6.9,15.6-10.8,20.7l-1.7-1c4.2-4.7,8.6-13.3,10.8-19.6-2,.2-4,.3-5.9.3-1.7,0-3.7,0-5.3-.1L1,153.9a38.52,38.52,0,0,0,5.4.3c1.9,0,4.1-.1,6.4-.3a45.32,45.32,0,0,0,1.8-8.9l2,.2c-.5,2-1.3,5.7-2.1,8.5a55.09,55.09,0,0,0,8.6-2Zm4.9,7a30.52,30.52,0,0,0,0,4.3c0,2.3.3,6.4.4,10a31,31,0,0,1,10,6.1l-.9,1.4a30.33,30.33,0,0,0-9-5.8v3.4c0,3.3-2.6,6.2-7.7,6.2-4.7,0-8.6-1.7-8.6-6.1s4.5-6.4,8.7-6.4a22.33,22.33,0,0,1,6,.8c-.1-4.4-.4-9.8-.5-13.8H28Zm-1,15.3a23.5,23.5,0,0,0-6-.9c-4.3,0-7.3,2-7.3,4.9s2.1,4.6,7,4.6c4.6,0,6.3-2.6,6.3-4.9Zm2.3-23.1A58.11,58.11,0,0,1,40,159.1l-.9,1.4c-2.4-2.3-7.4-5.1-10.5-6.6Z"/><path d="M84.4,149.1c-1.9,3.3-7.6,13.9-10.3,19.1,2.9-3.2,5.9-4.5,8.7-4.5a5.36,5.36,0,0,1,5.4,5.6c.1,3.7,0,7.3.1,10.1.1,3,2.1,4.3,4.7,4.3,6.6,0,10.3-8,11.5-12.4l1.3,1c-2.6,7.5-6.3,12.9-12.9,12.9-5,0-5.9-3.5-6-5.7-.1-3.1,0-6.8-.1-10.2-.1-2.6-1.6-4.1-4.3-4.1-4.5,0-9,4.6-11,8.4a68.14,68.14,0,0,0-4.7,11.5l-1.6-.6c3.5-10.1,15.2-31.2,17.8-36a28.55,28.55,0,0,0,1.2-2.7l1.8.8A18.52,18.52,0,0,0,84.4,149.1Z"/><path d="M151.4,154.8a95.55,95.55,0,0,1-10.7,1.8,55.75,55.75,0,0,1-1.6,6.8c-1.8,7.2-5,17.5-7.5,22.5l-1.9-.6c2.9-5.3,6.1-15,7.9-22.1.5-1.9,1-4.2,1.5-6.5q-3.15.3-5.7.3c-1.9,0-3.6-.1-5.4-.2v-1.7a37.68,37.68,0,0,0,5.5.3c1.7,0,3.7-.1,5.9-.3.5-2.5.9-4.7,1.1-5.8s.2-2.3.2-3.2l2,.2c-.2.8-.5,2.3-.7,3.2-.3,1.6-.6,3.5-1,5.5a68.36,68.36,0,0,0,10.4-2Zm-2.9,18.4a18.5,18.5,0,0,0-.7,4.8c0,2.5,1,5.4,9.6,5.4a40.62,40.62,0,0,0,8.9-.9v1.8a58.46,58.46,0,0,1-8.9.7c-7.1,0-11-2-11-6.8a28.56,28.56,0,0,1,.6-5.1Zm.4-11.7c2.4-.2,5.3-.4,8.4-.4a71,71,0,0,1,8.3.4l-.1,1.7a66.72,66.72,0,0,0-8-.6,84.27,84.27,0,0,0-8.6.5v-1.6Zm14.3-6a55.51,55.51,0,0,0-4.1-7l1.3-.7a57.46,57.46,0,0,1,4.2,6.9Zm2.2-9.4a56.22,56.22,0,0,1,4.3,6.9l-1.4.7a48,48,0,0,0-4.2-7Z"/><path d="M204.1,179.3a7,7,0,1,1-7-7.2A7.19,7.19,0,0,1,204.1,179.3Zm-1.5,0a5.59,5.59,0,0,0-5.5-5.7,5.66,5.66,0,0,0-5.5,5.7,5.59,5.59,0,0,0,5.5,5.7A5.53,5.53,0,0,0,202.6,179.3Z"/></svg>