<svg xmlns="http://www.w3.org/2000/svg" width="18.651" height="22.451" viewBox="0 0 18.651 22.451"><g transform="translate(-5.922 -4.491)"><path d="M4-.75A4.75,4.75,0,1,1-.75,4,4.755,4.755,0,0,1,4-.75Zm0,8A3.25,3.25,0,1,0,.75,4,3.254,3.254,0,0,0,4,7.25Z" transform="translate(11 5.241)" fill="#bf1d34"/><path d="M27.151,38.55a.75.75,0,0,1-.75-.75V34.125a5.381,5.381,0,0,0-5.375-5.375h-4.9a5.381,5.381,0,0,0-5.375,5.375V37.8a.75.75,0,0,1-1.5,0V34.125a6.883,6.883,0,0,1,6.875-6.875h4.9A6.883,6.883,0,0,1,27.9,34.125V37.8A.75.75,0,0,1,27.151,38.55Z" transform="translate(-3.328 -11.608)" fill="#bf1d34"/></g></svg>